<svg xmlns="http://www.w3.org/2000/svg" viewBox="-1.431 -0.229 0.838 1.414" preserveAspectRatio="xMidYMid meet"><rect x="-1.431" y="-0.229" width="0.838" height="1.414" fill="#a9d2ea"/><g stroke="#7e96a9" stroke-width="0.0035" stroke-linejoin="round"><path d="M-1.2132,0.3105 -1.2156,0.3057 -1.2015,0.2891 -1.2116,0.2757 -1.1989,0.2199 -1.2144,0.1923 -1.1976,0.1951 -1.162,0.1737 -1.1414,0.1703 -1.1413,0.1976 -1.1343,0.2106 -1.0561,0.243 -1.0503,0.2879 -1.0184,0.288 -1.0193,0.3054 -1.0036,0.3233 -1.0139,0.3592 -1.0313,0.3432 -1.0779,0.3499 -1.0934,0.3981 -1.1156,0.3943 -1.1228,0.4094 -1.1277,0.3981 -1.1558,0.39 -1.1727,0.4093 -1.1818,0.4106 -1.2001,0.3642 -1.1949,0.3458 -1.2132,0.3105Z" fill="#e8efe2"/><path d="M-1.1673,-0.0213 -1.1427,-0.012 -1.1071,-0.0377 -1.1179,-0.0436 -1.1209,-0.0627 -1.1308,-0.0748 -1.0971,-0.0627 -1.0945,-0.0702 -1.0647,-0.0793 -1.0585,-0.0912 -1.047,-0.0888 -1.0498,-0.0791 -1.0393,-0.0686 -1.0472,-0.0484 -1.043,-0.0332 -1.0273,-0.0209 -0.9969,-0.0351 -0.9767,-0.0325 -0.977,-0.044 -0.9243,-0.0381 -0.8981,-0.0753 -0.8851,-0.0372 -0.872,-0.029 -0.8709,-0.0202 -0.895,0.0016 -0.9072,0.0239 -0.9191,0.0271 -0.9067,0.0278 -0.8882,0.0164 -0.8796,0.0353 -0.8606,0.0302 -0.8664,0.0464 -0.8589,0.0335 -0.8439,0.0258 -0.8399,0.0129 -0.825,0.0113 -0.7793,0.0305 -0.7812,0.0396 -0.7746,0.0414 -0.7805,0.0559 -0.772,0.0431 -0.7713,0.0491 -0.7571,0.0416 -0.724,0.051 -0.6974,0.0499 -0.6487,0.0858 -0.6205,0.0897 -0.6151,0.0974 -0.6079,0.1228 -0.6103,0.1473 -0.6674,0.226 -0.6781,0.2251 -0.6833,0.314 -0.692,0.324 -0.6943,0.3484 -0.7147,0.3795 -0.7156,0.3938 -0.7337,0.4117 -0.7521,0.4074 -0.7791,0.4138 -0.8412,0.459 -0.8505,0.458 -0.8447,0.4625 -0.8508,0.4755 -0.8517,0.5209 -0.8683,0.5364 -0.8887,0.5749 -0.9083,0.5923 -0.8828,0.5582 -0.8954,0.5499 -0.895,0.5645 -0.9315,0.6262 -0.9343,0.6143 -0.9273,0.6053 -0.9383,0.5913 -0.9704,0.5665 -0.9774,0.5712 -0.9919,0.5515 -1.0055,0.5531 -0.9727,0.5133 -0.9397,0.4921 -0.9367,0.4747 -0.9427,0.4621 -0.9533,0.4621 -0.9467,0.4327 -0.9673,0.4307 -0.9739,0.4004 -1.0121,0.3947 -1.0093,0.375 -1.0151,0.3594 -1.0098,0.356 -1.0146,0.3516 -1.0036,0.3233 -1.0193,0.3054 -1.0184,0.288 -1.0503,0.2879 -1.0561,0.243 -1.1343,0.2106 -1.1413,0.1976 -1.1414,0.1703 -1.162,0.1737 -1.1976,0.1951 -1.2329,0.1934 -1.2312,0.1655 -1.2434,0.1749 -1.2598,0.1754 -1.2633,0.1667 -1.2778,0.165 -1.2736,0.1576 -1.2915,0.1323 -1.2765,0.1132 -1.2722,0.0895 -1.2357,0.0728 -1.2212,0.0751 -1.2113,0.0208 -1.223,0.0024 -1.2226,-0.0101 -1.2069,-0.0115 -1.2097,-0.0183 -1.2191,-0.0185 -1.2191,-0.0298 -1.1847,-0.0307 -1.1764,-0.037 -1.1673,-0.0213Z M-0.8662,0.004 -0.8446,0.0052 -0.8522,0.0243 -0.8816,0.0312 -0.884,0.0047 -0.8662,0.004Z M-0.8681,-0.0047 -0.8786,-0.0007 -0.8681,-0.0047Z M-0.8802,-0.0024 -0.8791,-0.0103 -0.8802,-0.0024Z M-0.9046,0.025 -0.8945,0.0094 -0.9046,0.025Z" fill="#e8efe2"/><path d="M-1.2291,0.3259 -1.2132,0.3105 -1.2058,0.3204 -1.2038,0.3373 -1.1949,0.3458 -1.2001,0.3642 -1.1847,0.4093 -1.1695,0.4127 -1.1757,0.4323 -1.1957,0.4438 -1.1924,0.4891 -1.2017,0.4927 -1.2158,0.5175 -1.2223,0.5356 -1.2189,0.5529 -1.2308,0.5726 -1.2191,0.6363 -1.2315,0.6582 -1.2287,0.6756 -1.2425,0.6925 -1.2366,0.73 -1.2518,0.7547 -1.2523,0.8103 -1.2591,0.8229 -1.2523,0.8386 -1.2535,0.8662 -1.242,0.8706 -1.2577,0.8757 -1.2453,0.8871 -1.2523,0.8958 -1.2514,0.9227 -1.2657,0.9543 -1.2617,0.9635 -1.2673,0.9782 -1.2842,0.9993 -1.2767,1.0309 -1.2626,1.0293 -1.2638,1.0532 -1.2552,1.0659 -1.1949,1.0744 -1.2357,1.0882 -1.2444,1.1206 -1.2638,1.105 -1.253,1.1088 -1.2432,1.0893 -1.2662,1.1082 -1.275,1.1018 -1.2694,1.0879 -1.2481,1.0836 -1.269,1.0816 -1.2762,1.0969 -1.2854,1.0902 -1.2762,1.0801 -1.2917,1.0844 -1.2968,1.0696 -1.2706,1.0647 -1.2657,1.0736 -1.2699,1.054 -1.2771,1.0507 -1.2671,1.0605 -1.2832,1.0673 -1.295,1.0571 -1.2905,1.0456 -1.3106,1.0293 -1.3027,1.0205 -1.2882,1.0365 -1.2854,1.0241 -1.2912,1.0334 -1.3025,1.0159 -1.2908,1.0104 -1.2966,0.9999 -1.2888,1.0001 -1.2903,0.9843 -1.298,0.9945 -1.2975,0.9732 -1.2917,0.97 -1.2997,0.9695 -1.3017,0.9575 -1.2807,0.9622 -1.2867,0.9486 -1.2956,0.9567 -1.3022,0.9512 -1.2938,0.9468 -1.2999,0.9427 -1.297,0.9263 -1.3214,0.9242 -1.3076,0.9103 -1.3102,0.903 -1.2943,0.9005 -1.2908,0.8913 -1.2919,0.9078 -1.2984,0.9118 -1.287,0.9015 -1.2889,0.9207 -1.2868,0.8933 -1.2729,0.8925 -1.2811,0.8838 -1.2685,0.8713 -1.2788,0.861 -1.2704,0.8162 -1.2638,0.8184 -1.2709,0.8071 -1.2622,0.7975 -1.287,0.8031 -1.2912,0.7852 -1.2781,0.7452 -1.2856,0.7034 -1.2779,0.6997 -1.2605,0.655 -1.247,0.6037 -1.2483,0.5279 -1.2331,0.4766 -1.232,0.4176 -1.2231,0.3818 -1.2291,0.3259Z M-1.1978,1.0847 -1.1982,1.1497 -1.2549,1.1421 -1.2271,1.14 -1.2367,1.1274 -1.231,1.1132 -1.2312,1.1283 -1.2086,1.1409 -1.205,1.1364 -1.2243,1.1209 -1.2111,1.1056 -1.2275,1.1059 -1.2284,1.0876 -1.1978,1.0847Z M-1.1708,1.1588 -1.1921,1.1536 -1.1708,1.1588Z M-1.2875,0.8412 -1.2984,0.8383 -1.2922,0.8045 -1.2814,0.8136 -1.2875,0.8412Z M-1.2999,0.9878 -1.3018,1.011 -1.3041,0.995 -1.3095,1.0063 -1.3186,1.005 -1.3073,0.9766 -1.2999,0.9878Z M-1.3179,0.9774 -1.3158,0.958 -1.3118,0.9737 -1.3179,0.9774Z M-1.2984,1.0925 -1.2765,1.105 -1.3039,1.0876 -1.2984,1.0925Z M-1.3015,0.9729 -1.3076,0.974 -1.3125,0.9567 -1.306,0.9536 -1.3015,0.9729Z M-1.2727,1.1088 -1.2603,1.1185 -1.2718,1.128 -1.2699,1.12 -1.2889,1.1109 -1.2727,1.1088Z M-1.3059,1.0557 -1.3036,1.0741 -1.3109,1.0602 -1.3059,1.0557Z M-1.2165,1.1518 -1.1949,1.153 -1.1877,1.1739 -1.2214,1.1588 -1.2165,1.1518Z M-1.246,1.1251 -1.2392,1.1316 -1.2603,1.1257 -1.246,1.1251Z M-1.287,0.8664 -1.2915,0.8701 -1.2872,0.8881 -1.2933,0.8895 -1.3024,0.8728 -1.2914,0.8603 -1.287,0.8664Z M-1.2739,0.876 -1.2811,0.8757 -1.2786,0.8654 -1.2703,0.8693 -1.2739,0.876Z M-1.3013,1.0459 -1.3141,1.0557 -1.3116,1.0459 -1.3013,1.0459Z M-1.3099,1.0189 -1.3169,1.0199 -1.3148,1.011 -1.3069,1.0137 -1.3099,1.0189Z M-1.239,1.1503 -1.2266,1.1564 -1.2469,1.1509 -1.239,1.1503Z" fill="#e8efe2"/><path d="M-1.2448,-0.2085 -1.2687,-0.1903 -1.2805,-0.1611 -1.2706,-0.1597 -1.2648,-0.1316 -1.2568,-0.123 -1.2235,-0.1214 -1.2118,-0.107 -1.1777,-0.1081 -1.1844,-0.0788 -1.1748,-0.0597 -1.1844,-0.0487 -1.173,-0.0417 -1.1673,-0.0237 -1.1708,-0.0208 -1.1764,-0.037 -1.1847,-0.0307 -1.2191,-0.0298 -1.2191,-0.0185 -1.2097,-0.0183 -1.2069,-0.0115 -1.2226,-0.0101 -1.223,0.0024 -1.2113,0.0208 -1.2212,0.0741 -1.2346,0.066 -1.2235,0.0464 -1.2387,0.0386 -1.273,0.0417 -1.3055,0.0035 -1.3319,-0.0079 -1.3509,-0.0068 -1.3793,-0.0283 -1.3453,-0.0683 -1.353,-0.0735 -1.3504,-0.1151 -1.3596,-0.1265 -1.3474,-0.1396 -1.3518,-0.1501 -1.3402,-0.1388 -1.342,-0.151 -1.3202,-0.1657 -1.3214,-0.1779 -1.3062,-0.1951 -1.2985,-0.1891 -1.294,-0.1989 -1.2795,-0.1985 -1.2516,-0.2185 -1.2437,-0.2171 -1.2448,-0.2085Z" fill="#e8efe2"/><path d="M-1.0601,-0.0909 -1.0715,-0.1039 -1.0673,-0.117 -1.0533,-0.1225 -1.0598,-0.132 -1.0446,-0.1445 -1.0475,-0.1498 -1.0212,-0.1295 -1.024,-0.1118 -1.0175,-0.1204 -0.9989,-0.1081 -0.9985,-0.0909 -1.0102,-0.0853 -1.0132,-0.0716 -0.9858,-0.0339 -1.0004,-0.0342 -1.0266,-0.0209 -1.0338,-0.0241 -1.047,-0.047 -1.042,-0.0765 -1.0498,-0.0791 -1.0496,-0.0916 -1.0601,-0.0909Z" fill="#e8efe2"/><path d="M-1.0151,0.3594 -1.0116,0.3958 -0.9748,0.3996 -0.9673,0.4307 -0.9467,0.4327 -0.9557,0.4805 -0.9723,0.4978 -1.0228,0.4958 -1.006,0.4572 -1.0652,0.4271 -1.0931,0.3992 -1.0779,0.3499 -1.0313,0.3432 -1.0151,0.3594Z" fill="#e8efe2"/><path d="M-1.2212,0.0741 -1.2357,0.0728 -1.2722,0.0895 -1.2765,0.1132 -1.2915,0.1323 -1.2736,0.1576 -1.2778,0.165 -1.2633,0.1667 -1.2598,0.1754 -1.2434,0.1749 -1.2312,0.1655 -1.2329,0.1934 -1.2144,0.1923 -1.1989,0.2199 -1.2116,0.2757 -1.2015,0.2891 -1.2205,0.3233 -1.2291,0.3259 -1.2484,0.3065 -1.3252,0.2582 -1.3331,0.2443 -1.3303,0.2355 -1.3549,0.1983 -1.3746,0.151 -1.3961,0.1184 -1.4162,0.106 -1.4116,0.0986 -1.4197,0.0816 -1.4018,0.0592 -1.4046,0.0774 -1.39,0.0777 -1.3793,0.0869 -1.3675,0.0594 -1.3189,0.0267 -1.3135,0.0098 -1.32,0.0021 -1.3128,0.0007 -1.2856,0.0218 -1.273,0.0417 -1.2387,0.0386 -1.2235,0.0464 -1.2346,0.066 -1.2212,0.0741Z" fill="#e8efe2"/><path d="M-0.9453,-0.0937 -0.9503,-0.0784 -0.9423,-0.0627 -0.9495,-0.0429 -0.977,-0.044 -0.9767,-0.0325 -0.9896,-0.0356 -1.0001,-0.059 -1.0128,-0.0699 -1.0102,-0.0853 -1.0006,-0.0877 -0.9943,-0.1047 -0.9756,-0.0996 -0.9713,-0.1047 -0.9488,-0.1033 -0.9434,-0.1016 -0.9453,-0.0937Z" fill="#e8efe2"/><path d="M-0.9315,0.6262 -0.9582,0.6513 -1.01,0.6412 -1.02,0.6258 -1.0062,0.5539 -0.9919,0.5515 -0.9774,0.5712 -0.9704,0.5665 -0.9383,0.5913 -0.9273,0.6053 -0.9343,0.6143 -0.9315,0.6262Z" fill="#e8efe2"/><path d="M-1.0475,-0.1498 -1.0446,-0.1445 -1.0598,-0.132 -1.0533,-0.1225 -1.0673,-0.117 -1.0715,-0.1039 -1.0582,-0.0855 -1.0945,-0.0702 -1.0971,-0.0627 -1.1308,-0.0748 -1.1209,-0.0627 -1.1179,-0.0436 -1.1064,-0.0388 -1.1442,-0.012 -1.1673,-0.0213 -1.173,-0.0417 -1.1844,-0.0487 -1.1748,-0.0597 -1.1844,-0.0788 -1.1777,-0.1081 -1.2118,-0.107 -1.2235,-0.1214 -1.2568,-0.123 -1.2648,-0.1316 -1.2706,-0.1597 -1.2805,-0.1611 -1.2687,-0.1903 -1.2448,-0.2085 -1.2559,-0.2033 -1.2495,-0.1871 -1.2586,-0.1722 -1.2512,-0.159 -1.2434,-0.1606 -1.2401,-0.1703 -1.2474,-0.1925 -1.2182,-0.2015 -1.2268,-0.209 -1.2217,-0.2142 -1.2153,-0.2017 -1.1938,-0.196 -1.1893,-0.1841 -1.1563,-0.1866 -1.1367,-0.1767 -1.1123,-0.1843 -1.1222,-0.1868 -1.08,-0.1886 -1.098,-0.1848 -1.0877,-0.1715 -1.0749,-0.1735 -1.061,-0.1641 -1.0755,-0.1507 -1.0475,-0.1498Z" fill="#e8efe2"/><path d="M-1.3139,0.0019 -1.32,0.0021 -1.3135,0.0098 -1.3189,0.0267 -1.3675,0.0594 -1.3793,0.0869 -1.39,0.0777 -1.4046,0.0774 -1.3916,0.045 -1.3935,0.0361 -1.4012,0.0473 -1.4125,0.0396 -1.412,0.0189 -1.4012,0.0108 -1.397,-0.0145 -1.3764,-0.0255 -1.3509,-0.0068 -1.3319,-0.0079 -1.3139,0.0019Z M-1.593,-0.0005 -1.5848,0.0131 -1.5905,0.0178 -1.597,0.015 -1.5903,0.0098 -1.5987,0.0 -1.593,-0.0005Z" fill="#e8efe2"/><path d="M-1.0055,0.5531 -1.0215,0.638 -0.9978,0.6605 -1.0015,0.6721 -0.99,0.6827 -0.9901,0.6951 -1.0154,0.7278 -1.0666,0.7401 -1.0879,0.7358 -1.083,0.7486 -1.0891,0.7833 -1.1104,0.7896 -1.1357,0.7815 -1.1343,0.8115 -1.1243,0.8193 -1.1135,0.8118 -1.1104,0.8257 -1.1339,0.825 -1.1226,0.8321 -1.1388,0.8465 -1.1456,0.8816 -1.1683,0.8878 -1.1798,0.9075 -1.1655,0.9319 -1.1493,0.9357 -1.1486,0.9481 -1.1559,0.953 -1.1486,0.9559 -1.1776,0.9825 -1.1853,1.0101 -1.2039,1.0107 -1.1942,1.015 -1.2106,1.039 -1.2053,1.0535 -1.2125,1.0543 -1.1936,1.075 -1.2561,1.065 -1.2638,1.0532 -1.2626,1.0293 -1.2767,1.0309 -1.2842,0.9993 -1.2673,0.9782 -1.2617,0.9635 -1.2657,0.9543 -1.2514,0.9227 -1.2523,0.8958 -1.2453,0.8871 -1.2577,0.8757 -1.242,0.8706 -1.2535,0.8662 -1.2523,0.8386 -1.2593,0.8326 -1.2586,0.8151 -1.2523,0.8103 -1.2554,0.7787 -1.2467,0.7401 -1.2367,0.7313 -1.2425,0.6925 -1.2287,0.6756 -1.2315,0.6582 -1.2191,0.6363 -1.2186,0.6166 -1.232,0.5812 -1.2189,0.5529 -1.2223,0.5356 -1.2158,0.5175 -1.2017,0.4927 -1.1924,0.4891 -1.1957,0.4438 -1.1757,0.4323 -1.1727,0.4093 -1.1558,0.39 -1.1277,0.3981 -1.1228,0.4094 -1.1156,0.3943 -1.0966,0.3938 -1.0652,0.4271 -1.006,0.4572 -1.0228,0.4958 -0.9723,0.4978 -0.957,0.4829 -0.9533,0.4621 -0.9406,0.4638 -0.9397,0.4921 -0.9727,0.5133 -1.0055,0.5531Z M-1.1982,1.1497 -1.1978,1.0847 -1.191,1.0972 -1.1954,1.1024 -1.1744,1.1257 -1.1376,1.1445 -1.1608,1.1551 -1.1982,1.1497Z M-1.1266,1.1457 -1.1139,1.146 -1.1266,1.1457Z" fill="#e8453c"/></g></svg>