<svg xmlns="http://www.w3.org/2000/svg" viewBox="-1.431 -0.229 0.838 1.414" preserveAspectRatio="xMidYMid meet"><rect x="-1.431" y="-0.229" width="0.838" height="1.414" fill="#a9d2ea"/><g stroke="#7e96a9" stroke-width="0.0035" stroke-linejoin="round"><path d="M-1.213,0.31 -1.216,0.306 -1.201,0.289 -1.212,0.276 -1.199,0.22 -1.214,0.192 -1.198,0.195 -1.162,0.174 -1.141,0.17 -1.141,0.198 -1.134,0.211 -1.056,0.243 -1.05,0.288 -1.018,0.288 -1.019,0.305 -1.004,0.323 -1.014,0.359 -1.031,0.343 -1.078,0.35 -1.093,0.398 -1.116,0.394 -1.123,0.409 -1.128,0.398 -1.156,0.39 -1.173,0.409 -1.182,0.411 -1.2,0.364 -1.195,0.346 -1.213,0.31Z" fill="#e8efe2"/><path d="M-1.167,-0.021 -1.143,-0.012 -1.107,-0.038 -1.118,-0.044 -1.121,-0.063 -1.131,-0.075 -1.097,-0.063 -1.094,-0.07 -1.065,-0.079 -1.059,-0.091 -1.047,-0.089 -1.05,-0.079 -1.039,-0.069 -1.047,-0.048 -1.043,-0.033 -1.027,-0.021 -0.997,-0.035 -0.977,-0.032 -0.977,-0.044 -0.924,-0.038 -0.898,-0.075 -0.885,-0.037 -0.872,-0.029 -0.871,-0.02 -0.895,0.002 -0.907,0.024 -0.919,0.027 -0.907,0.028 -0.888,0.016 -0.88,0.035 -0.861,0.03 -0.866,0.046 -0.859,0.034 -0.844,0.026 -0.84,0.013 -0.825,0.011 -0.779,0.031 -0.781,0.04 -0.775,0.041 -0.781,0.056 -0.772,0.043 -0.771,0.049 -0.757,0.042 -0.724,0.051 -0.697,0.05 -0.649,0.086 -0.62,0.09 -0.615,0.097 -0.608,0.123 -0.61,0.147 -0.667,0.226 -0.678,0.225 -0.683,0.314 -0.692,0.324 -0.694,0.348 -0.715,0.38 -0.716,0.394 -0.734,0.412 -0.752,0.407 -0.779,0.414 -0.841,0.459 -0.85,0.458 -0.845,0.462 -0.851,0.475 -0.852,0.521 -0.868,0.536 -0.889,0.575 -0.908,0.592 -0.883,0.558 -0.895,0.55 -0.895,0.564 -0.931,0.626 -0.934,0.614 -0.927,0.605 -0.938,0.591 -0.97,0.567 -0.977,0.571 -0.992,0.552 -1.005,0.553 -0.973,0.513 -0.94,0.492 -0.937,0.475 -0.943,0.462 -0.953,0.462 -0.947,0.433 -0.967,0.431 -0.974,0.4 -1.012,0.395 -1.009,0.375 -1.015,0.359 -1.01,0.356 -1.015,0.352 -1.004,0.323 -1.019,0.305 -1.018,0.288 -1.05,0.288 -1.056,0.243 -1.134,0.211 -1.141,0.198 -1.141,0.17 -1.162,0.174 -1.198,0.195 -1.233,0.193 -1.231,0.166 -1.243,0.175 -1.26,0.175 -1.263,0.167 -1.278,0.165 -1.274,0.158 -1.292,0.132 -1.277,0.113 -1.272,0.089 -1.236,0.073 -1.221,0.075 -1.211,0.021 -1.223,0.002 -1.223,-0.01 -1.207,-0.012 -1.21,-0.018 -1.219,-0.019 -1.219,-0.03 -1.185,-0.031 -1.176,-0.037 -1.167,-0.021Z M-0.866,0.004 -0.845,0.005 -0.852,0.024 -0.882,0.031 -0.884,0.005 -0.866,0.004Z M-0.868,-0.005 -0.879,-0.001 -0.868,-0.005Z M-0.88,-0.002 -0.879,-0.01 -0.88,-0.002Z M-0.905,0.025 -0.894,0.009 -0.905,0.025Z" fill="#e8efe2"/><path d="M-1.229,0.326 -1.213,0.31 -1.206,0.32 -1.204,0.337 -1.195,0.346 -1.2,0.364 -1.185,0.409 -1.17,0.413 -1.176,0.432 -1.196,0.444 -1.192,0.489 -1.202,0.493 -1.216,0.518 -1.222,0.536 -1.219,0.553 -1.231,0.573 -1.219,0.636 -1.232,0.658 -1.229,0.676 -1.242,0.692 -1.237,0.73 -1.252,0.755 -1.252,0.81 -1.259,0.823 -1.252,0.839 -1.253,0.866 -1.242,0.871 -1.258,0.876 -1.245,0.887 -1.252,0.896 -1.251,0.923 -1.266,0.954 -1.262,0.963 -1.267,0.978 -1.284,0.999 -1.277,1.031 -1.263,1.029 -1.264,1.053 -1.255,1.066 -1.195,1.074 -1.236,1.088 -1.244,1.121 -1.264,1.105 -1.253,1.109 -1.243,1.089 -1.266,1.108 -1.275,1.102 -1.269,1.088 -1.248,1.084 -1.269,1.082 -1.276,1.097 -1.285,1.09 -1.276,1.08 -1.292,1.084 -1.297,1.07 -1.271,1.065 -1.266,1.074 -1.27,1.054 -1.277,1.051 -1.267,1.061 -1.283,1.067 -1.295,1.057 -1.29,1.046 -1.311,1.029 -1.303,1.02 -1.288,1.036 -1.285,1.024 -1.291,1.033 -1.303,1.016 -1.291,1.01 -1.297,1.0 -1.289,1.0 -1.29,0.984 -1.298,0.994 -1.297,0.973 -1.292,0.97 -1.3,0.97 -1.302,0.957 -1.281,0.962 -1.287,0.949 -1.296,0.957 -1.302,0.951 -1.294,0.947 -1.3,0.943 -1.297,0.926 -1.321,0.924 -1.308,0.91 -1.31,0.903 -1.294,0.901 -1.291,0.891 -1.292,0.908 -1.298,0.912 -1.287,0.902 -1.289,0.921 -1.287,0.893 -1.273,0.893 -1.281,0.884 -1.269,0.871 -1.279,0.861 -1.27,0.816 -1.264,0.818 -1.271,0.807 -1.262,0.797 -1.287,0.803 -1.291,0.785 -1.278,0.745 -1.286,0.703 -1.278,0.7 -1.26,0.655 -1.247,0.604 -1.248,0.528 -1.233,0.477 -1.232,0.418 -1.223,0.382 -1.229,0.326Z M-1.198,1.085 -1.198,1.15 -1.255,1.142 -1.227,1.14 -1.237,1.127 -1.231,1.113 -1.231,1.128 -1.209,1.141 -1.205,1.136 -1.224,1.121 -1.211,1.106 -1.227,1.106 -1.228,1.088 -1.198,1.085Z M-1.171,1.159 -1.192,1.154 -1.171,1.159Z M-1.288,0.841 -1.298,0.838 -1.292,0.804 -1.281,0.814 -1.288,0.841Z M-1.3,0.988 -1.302,1.011 -1.304,0.995 -1.31,1.006 -1.319,1.005 -1.307,0.977 -1.3,0.988Z M-1.318,0.977 -1.316,0.958 -1.312,0.974 -1.318,0.977Z M-1.298,1.093 -1.277,1.105 -1.304,1.088 -1.298,1.093Z M-1.301,0.973 -1.308,0.974 -1.312,0.957 -1.306,0.954 -1.301,0.973Z M-1.273,1.109 -1.26,1.119 -1.272,1.128 -1.27,1.12 -1.289,1.111 -1.273,1.109Z M-1.306,1.056 -1.304,1.074 -1.311,1.06 -1.306,1.056Z M-1.216,1.152 -1.195,1.153 -1.188,1.174 -1.221,1.159 -1.216,1.152Z M-1.246,1.125 -1.239,1.132 -1.26,1.126 -1.246,1.125Z M-1.287,0.866 -1.292,0.87 -1.287,0.888 -1.293,0.89 -1.302,0.873 -1.291,0.86 -1.287,0.866Z M-1.274,0.876 -1.281,0.876 -1.279,0.865 -1.27,0.869 -1.274,0.876Z M-1.301,1.046 -1.314,1.056 -1.312,1.046 -1.301,1.046Z M-1.31,1.019 -1.317,1.02 -1.315,1.011 -1.307,1.014 -1.31,1.019Z M-1.239,1.15 -1.227,1.156 -1.247,1.151 -1.239,1.15Z" fill="#e8efe2"/><path d="M-1.245,-0.208 -1.269,-0.19 -1.281,-0.161 -1.271,-0.16 -1.265,-0.132 -1.257,-0.123 -1.223,-0.121 -1.212,-0.107 -1.178,-0.108 -1.184,-0.079 -1.175,-0.06 -1.184,-0.049 -1.173,-0.042 -1.167,-0.024 -1.171,-0.021 -1.176,-0.037 -1.185,-0.031 -1.219,-0.03 -1.219,-0.019 -1.21,-0.018 -1.207,-0.012 -1.223,-0.01 -1.223,0.002 -1.211,0.021 -1.221,0.074 -1.235,0.066 -1.223,0.046 -1.239,0.039 -1.273,0.042 -1.306,0.003 -1.332,-0.008 -1.351,-0.007 -1.379,-0.028 -1.345,-0.068 -1.353,-0.074 -1.35,-0.115 -1.36,-0.127 -1.347,-0.14 -1.352,-0.15 -1.34,-0.139 -1.342,-0.151 -1.32,-0.166 -1.321,-0.178 -1.306,-0.195 -1.299,-0.189 -1.294,-0.199 -1.28,-0.199 -1.252,-0.218 -1.244,-0.217 -1.245,-0.208Z" fill="#e8efe2"/><path d="M-1.06,-0.091 -1.071,-0.104 -1.067,-0.117 -1.053,-0.122 -1.06,-0.132 -1.045,-0.144 -1.048,-0.15 -1.021,-0.13 -1.024,-0.112 -1.018,-0.12 -0.999,-0.108 -0.999,-0.091 -1.01,-0.085 -1.013,-0.072 -0.986,-0.034 -1.0,-0.034 -1.027,-0.021 -1.034,-0.024 -1.047,-0.047 -1.042,-0.077 -1.05,-0.079 -1.05,-0.092 -1.06,-0.091Z" fill="#e8efe2"/><path d="M-1.015,0.359 -1.012,0.396 -0.975,0.4 -0.967,0.431 -0.947,0.433 -0.956,0.481 -0.972,0.498 -1.023,0.496 -1.006,0.457 -1.065,0.427 -1.093,0.399 -1.078,0.35 -1.031,0.343 -1.015,0.359Z" fill="#e8efe2"/><path d="M-1.221,0.074 -1.236,0.073 -1.272,0.089 -1.277,0.113 -1.292,0.132 -1.274,0.158 -1.278,0.165 -1.263,0.167 -1.26,0.175 -1.243,0.175 -1.231,0.166 -1.233,0.193 -1.214,0.192 -1.199,0.22 -1.212,0.276 -1.201,0.289 -1.221,0.323 -1.229,0.326 -1.248,0.306 -1.325,0.258 -1.333,0.244 -1.33,0.235 -1.355,0.198 -1.375,0.151 -1.396,0.118 -1.416,0.106 -1.412,0.099 -1.42,0.082 -1.402,0.059 -1.405,0.077 -1.39,0.078 -1.379,0.087 -1.367,0.059 -1.319,0.027 -1.314,0.01 -1.32,0.002 -1.313,0.001 -1.286,0.022 -1.273,0.042 -1.239,0.039 -1.223,0.046 -1.235,0.066 -1.221,0.074Z" fill="#e8efe2"/><path d="M-0.945,-0.094 -0.95,-0.078 -0.942,-0.063 -0.949,-0.043 -0.977,-0.044 -0.977,-0.032 -0.99,-0.036 -1.0,-0.059 -1.013,-0.07 -1.01,-0.085 -1.001,-0.088 -0.994,-0.105 -0.976,-0.1 -0.971,-0.105 -0.949,-0.103 -0.943,-0.102 -0.945,-0.094Z" fill="#e8efe2"/><path d="M-0.931,0.626 -0.958,0.651 -1.01,0.641 -1.02,0.626 -1.006,0.554 -0.992,0.552 -0.977,0.571 -0.97,0.567 -0.938,0.591 -0.927,0.605 -0.934,0.614 -0.931,0.626Z" fill="#e8efe2"/><path d="M-1.048,-0.15 -1.045,-0.144 -1.06,-0.132 -1.053,-0.122 -1.067,-0.117 -1.071,-0.104 -1.058,-0.085 -1.094,-0.07 -1.097,-0.063 -1.131,-0.075 -1.121,-0.063 -1.118,-0.044 -1.106,-0.039 -1.144,-0.012 -1.167,-0.021 -1.173,-0.042 -1.184,-0.049 -1.175,-0.06 -1.184,-0.079 -1.178,-0.108 -1.212,-0.107 -1.223,-0.121 -1.257,-0.123 -1.265,-0.132 -1.271,-0.16 -1.281,-0.161 -1.269,-0.19 -1.245,-0.208 -1.256,-0.203 -1.249,-0.187 -1.259,-0.172 -1.251,-0.159 -1.243,-0.161 -1.24,-0.17 -1.247,-0.192 -1.218,-0.202 -1.227,-0.209 -1.222,-0.214 -1.215,-0.202 -1.194,-0.196 -1.189,-0.184 -1.156,-0.187 -1.137,-0.177 -1.112,-0.184 -1.122,-0.187 -1.08,-0.189 -1.098,-0.185 -1.088,-0.172 -1.075,-0.173 -1.061,-0.164 -1.075,-0.151 -1.048,-0.15Z" fill="#e8efe2"/><path d="M-1.314,0.002 -1.32,0.002 -1.314,0.01 -1.319,0.027 -1.367,0.059 -1.379,0.087 -1.39,0.078 -1.405,0.077 -1.392,0.045 -1.393,0.036 -1.401,0.047 -1.412,0.04 -1.412,0.019 -1.401,0.011 -1.397,-0.014 -1.376,-0.025 -1.351,-0.007 -1.332,-0.008 -1.314,0.002Z M-1.593,-0.001 -1.585,0.013 -1.591,0.018 -1.597,0.015 -1.59,0.01 -1.599,0.0 -1.593,-0.001Z" fill="#e8efe2"/><path d="M-1.005,0.553 -1.022,0.638 -0.998,0.661 -1.001,0.672 -0.99,0.683 -0.99,0.695 -1.015,0.728 -1.067,0.74 -1.088,0.736 -1.083,0.749 -1.089,0.783 -1.11,0.79 -1.136,0.781 -1.134,0.812 -1.124,0.819 -1.114,0.812 -1.11,0.826 -1.134,0.825 -1.123,0.832 -1.139,0.847 -1.146,0.882 -1.168,0.888 -1.18,0.908 -1.166,0.932 -1.149,0.936 -1.149,0.948 -1.156,0.953 -1.149,0.956 -1.178,0.982 -1.185,1.01 -1.204,1.011 -1.194,1.015 -1.211,1.039 -1.205,1.053 -1.212,1.054 -1.194,1.075 -1.256,1.065 -1.264,1.053 -1.263,1.029 -1.277,1.031 -1.284,0.999 -1.267,0.978 -1.262,0.963 -1.266,0.954 -1.251,0.923 -1.252,0.896 -1.245,0.887 -1.258,0.876 -1.242,0.871 -1.253,0.866 -1.252,0.839 -1.259,0.833 -1.259,0.815 -1.252,0.81 -1.255,0.779 -1.247,0.74 -1.237,0.731 -1.242,0.692 -1.229,0.676 -1.232,0.658 -1.219,0.636 -1.219,0.617 -1.232,0.581 -1.219,0.553 -1.222,0.536 -1.216,0.518 -1.202,0.493 -1.192,0.489 -1.196,0.444 -1.176,0.432 -1.173,0.409 -1.156,0.39 -1.128,0.398 -1.123,0.409 -1.116,0.394 -1.097,0.394 -1.065,0.427 -1.006,0.457 -1.023,0.496 -0.972,0.498 -0.957,0.483 -0.953,0.462 -0.941,0.464 -0.94,0.492 -0.973,0.513 -1.005,0.553Z M-1.198,1.15 -1.198,1.085 -1.191,1.097 -1.195,1.102 -1.174,1.126 -1.138,1.145 -1.161,1.155 -1.198,1.15Z M-1.127,1.146 -1.114,1.146 -1.127,1.146Z" fill="#e8453c"/></g></svg>