<svg xmlns="http://www.w3.org/2000/svg" viewBox="-0.436 -1.843 1.222 1.232" preserveAspectRatio="xMidYMid meet"><rect x="-0.436" y="-1.843" width="1.222" height="1.232" fill="#a9d2ea"/><g stroke="#7e96a9" stroke-width="0.0031" stroke-linejoin="round"><path d="M0.338,-0.806 0.344,-0.825 0.358,-0.813 0.358,-0.792 0.367,-0.777 0.353,-0.755 0.337,-0.772 0.338,-0.806Z" fill="#e8efe2"/><path d="M0.166,-0.945 0.132,-0.947 0.142,-0.983 0.111,-0.996 0.104,-1.061 0.122,-1.072 0.117,-1.081 0.125,-1.094 0.126,-1.114 0.148,-1.106 0.15,-1.121 0.161,-1.12 0.171,-1.111 0.151,-1.133 0.156,-1.14 0.151,-1.151 0.192,-1.136 0.189,-1.124 0.22,-1.138 0.239,-1.129 0.249,-1.116 0.247,-1.091 0.255,-1.081 0.261,-1.041 0.211,-1.018 0.241,-0.973 0.223,-0.96 0.227,-0.944 0.166,-0.945Z" fill="#e8efe2"/><path d="M0.074,-1.049 0.102,-1.042 0.098,-1.034 0.111,-1.019 0.1,-1.009 0.102,-0.999 0.085,-1.005 0.085,-1.014 0.072,-1.01 0.044,-1.041 0.074,-1.049Z" fill="#e8efe2"/><path d="M0.554,-1.069 0.541,-1.068 0.531,-1.046 0.441,-1.064 0.412,-1.053 0.413,-1.067 0.405,-1.075 0.417,-1.088 0.41,-1.122 0.449,-1.129 0.451,-1.152 0.467,-1.162 0.462,-1.165 0.464,-1.175 0.491,-1.19 0.539,-1.172 0.538,-1.148 0.571,-1.107 0.546,-1.095 0.554,-1.069Z" fill="#e8efe2"/><path d="M0.338,-0.878 0.334,-0.866 0.342,-0.858 0.336,-0.856 0.34,-0.848 0.331,-0.846 0.322,-0.822 0.275,-0.876 0.276,-0.886 0.295,-0.888 0.338,-0.878Z" fill="#e8efe2"/><path d="M0.489,-0.808 0.464,-0.808 0.452,-0.793 0.4,-0.794 0.401,-0.804 0.39,-0.816 0.401,-0.837 0.391,-0.856 0.396,-0.863 0.4,-0.853 0.445,-0.849 0.473,-0.861 0.499,-0.851 0.48,-0.82 0.489,-0.808Z" fill="#e8efe2"/><path d="M0.571,-0.656 0.594,-0.653 0.576,-0.644 0.564,-0.652 0.571,-0.656Z" fill="#e8efe2"/><path d="M0.237,-0.894 0.268,-0.893 0.272,-0.911 0.285,-0.92 0.311,-0.901 0.33,-0.905 0.339,-0.886 0.332,-0.878 0.276,-0.886 0.275,-0.876 0.307,-0.831 0.279,-0.845 0.254,-0.889 0.242,-0.877 0.237,-0.894Z M0.3,-0.836 0.286,-0.838 0.3,-0.836Z M0.322,-0.822 0.298,-0.833 0.322,-0.822Z" fill="#e8efe2"/><path d="M0.219,-1.179 0.207,-1.147 0.192,-1.176 0.203,-1.184 0.206,-1.176 0.213,-1.189 0.219,-1.179Z M0.17,-1.149 0.151,-1.151 0.15,-1.167 0.142,-1.173 0.142,-1.204 0.161,-1.207 0.159,-1.218 0.144,-1.211 0.185,-1.241 0.179,-1.205 0.191,-1.199 0.167,-1.169 0.17,-1.149Z M0.186,-1.173 0.185,-1.156 0.172,-1.165 0.186,-1.173Z M0.198,-1.151 0.205,-1.145 0.193,-1.147 0.198,-1.151Z" fill="#e8efe2"/><path d="M0.055,-0.758 0.06,-0.756 0.054,-0.747 0.041,-0.753 0.055,-0.758Z M-0.031,-0.843 -0.001,-0.825 0.056,-0.819 0.057,-0.808 0.012,-0.782 -0.006,-0.752 0.003,-0.735 -0.009,-0.725 -0.013,-0.71 -0.029,-0.705 -0.037,-0.691 -0.076,-0.69 -0.098,-0.675 -0.111,-0.688 -0.109,-0.694 -0.129,-0.7 -0.122,-0.742 -0.132,-0.755 -0.123,-0.756 -0.121,-0.787 -0.108,-0.798 -0.116,-0.808 -0.154,-0.808 -0.16,-0.837 -0.134,-0.851 -0.031,-0.843Z M-0.285,-0.517 -0.291,-0.51 -0.295,-0.516 -0.281,-0.521 -0.285,-0.517Z M-0.248,-0.513 -0.253,-0.511 -0.242,-0.524 -0.248,-0.513Z" fill="#e8efe2"/><path d="M0.477,-1.234 0.441,-1.251 0.424,-1.245 0.428,-1.261 0.415,-1.261 0.41,-1.289 0.445,-1.304 0.489,-1.299 0.479,-1.275 0.485,-1.245 0.477,-1.234Z M0.395,-1.27 0.407,-1.264 0.384,-1.247 0.382,-1.266 0.395,-1.27Z M0.4,-1.277 0.385,-1.281 0.4,-1.277Z" fill="#e8efe2"/><path d="M0.422,-1.54 0.414,-1.559 0.419,-1.584 0.409,-1.613 0.413,-1.636 0.36,-1.688 0.377,-1.699 0.391,-1.672 0.435,-1.666 0.463,-1.731 0.487,-1.738 0.509,-1.719 0.506,-1.687 0.496,-1.681 0.502,-1.678 0.497,-1.661 0.501,-1.647 0.523,-1.623 0.507,-1.589 0.525,-1.54 0.517,-1.505 0.533,-1.469 0.523,-1.456 0.55,-1.423 0.485,-1.336 0.464,-1.339 0.401,-1.311 0.405,-1.318 0.4,-1.324 0.392,-1.318 0.394,-1.33 0.374,-1.34 0.377,-1.374 0.368,-1.412 0.376,-1.435 0.441,-1.501 0.442,-1.526 0.422,-1.54Z" fill="#e8efe2"/><path d="M0.165,-0.828 0.16,-0.795 0.15,-0.818 0.165,-0.828Z M0.133,-0.947 0.122,-0.943 0.104,-0.912 0.118,-0.917 0.125,-0.891 0.116,-0.883 0.122,-0.877 0.12,-0.865 0.134,-0.86 0.131,-0.851 0.107,-0.835 0.068,-0.846 0.053,-0.831 0.056,-0.819 0.035,-0.817 -0.025,-0.834 -0.031,-0.843 -0.019,-0.874 -0.019,-0.895 -0.01,-0.881 -0.021,-0.899 -0.02,-0.914 -0.036,-0.927 -0.038,-0.936 -0.03,-0.937 -0.075,-0.953 -0.082,-0.959 -0.074,-0.965 -0.083,-0.969 -0.056,-0.98 -0.024,-0.975 -0.032,-1.002 0.007,-0.996 0.003,-1.003 0.028,-1.017 0.029,-1.035 0.044,-1.041 0.072,-1.01 0.085,-1.014 0.096,-0.997 0.142,-0.983 0.133,-0.947Z M0.974,0.381 0.965,0.373 0.974,0.381Z M-0.953,-0.041 -0.943,-0.06 -0.951,-0.085 -0.941,-0.101 -0.923,-0.095 -0.908,-0.076 -0.905,-0.081 -0.901,-0.071 -0.92,-0.041 -0.953,-0.041Z" fill="#e8efe2"/><path d="M0.409,-0.739 0.429,-0.718 0.399,-0.737 0.409,-0.739Z M0.461,-0.748 0.463,-0.74 0.451,-0.745 0.461,-0.748Z M0.416,-0.664 0.459,-0.66 0.457,-0.653 0.433,-0.651 0.412,-0.658 0.416,-0.664Z M0.459,-0.803 0.465,-0.795 0.456,-0.78 0.415,-0.78 0.425,-0.766 0.414,-0.77 0.418,-0.762 0.395,-0.774 0.407,-0.744 0.4,-0.747 0.403,-0.741 0.394,-0.737 0.418,-0.724 0.42,-0.712 0.41,-0.719 0.402,-0.715 0.41,-0.706 0.397,-0.708 0.404,-0.684 0.398,-0.691 0.39,-0.685 0.385,-0.697 0.379,-0.693 0.369,-0.716 0.374,-0.722 0.405,-0.721 0.37,-0.726 0.363,-0.737 0.369,-0.741 0.354,-0.748 0.349,-0.756 0.366,-0.782 0.42,-0.798 0.452,-0.793 0.459,-0.803Z" fill="#e8efe2"/><path d="M0.386,-0.968 0.399,-0.956 0.384,-0.945 0.367,-0.912 0.313,-0.901 0.281,-0.928 0.291,-0.946 0.287,-0.949 0.299,-0.958 0.327,-0.952 0.358,-0.971 0.386,-0.968Z" fill="#e8efe2"/><path d="M-0.126,-1.157 -0.142,-1.138 -0.108,-1.126 -0.11,-1.073 -0.177,-1.055 -0.168,-1.062 -0.18,-1.061 -0.173,-1.07 -0.181,-1.072 -0.153,-1.086 -0.173,-1.082 -0.156,-1.101 -0.176,-1.107 -0.167,-1.119 -0.176,-1.132 -0.149,-1.131 -0.142,-1.143 -0.153,-1.145 -0.144,-1.159 -0.121,-1.162 -0.126,-1.157Z" fill="#e8efe2"/><path d="M-0.271,-1.558 -0.255,-1.565 -0.264,-1.553 -0.253,-1.531 -0.238,-1.528 -0.237,-1.509 -0.261,-1.479 -0.326,-1.443 -0.368,-1.464 -0.395,-1.459 -0.375,-1.481 -0.385,-1.478 -0.377,-1.491 -0.419,-1.502 -0.382,-1.509 -0.393,-1.515 -0.381,-1.525 -0.427,-1.529 -0.406,-1.538 -0.416,-1.542 -0.409,-1.556 -0.392,-1.545 -0.401,-1.558 -0.392,-1.56 -0.404,-1.563 -0.4,-1.568 -0.374,-1.55 -0.378,-1.537 -0.369,-1.518 -0.353,-1.553 -0.34,-1.539 -0.328,-1.556 -0.317,-1.537 -0.319,-1.555 -0.306,-1.547 -0.28,-1.572 -0.271,-1.558Z" fill="#e8efe2"/><path d="M0.123,-0.905 0.136,-0.904 0.147,-0.918 0.156,-0.902 0.162,-0.919 0.177,-0.912 0.182,-0.928 0.212,-0.934 0.216,-0.924 0.239,-0.919 0.234,-0.913 0.242,-0.897 0.214,-0.893 0.216,-0.862 0.237,-0.847 0.254,-0.815 0.282,-0.807 0.278,-0.798 0.313,-0.778 0.321,-0.761 0.295,-0.773 0.288,-0.757 0.3,-0.74 0.274,-0.717 0.283,-0.739 0.274,-0.763 0.194,-0.818 0.175,-0.857 0.153,-0.867 0.131,-0.851 0.134,-0.86 0.12,-0.865 0.122,-0.877 0.116,-0.883 0.125,-0.891 0.119,-0.9 0.123,-0.905Z M0.272,-0.723 0.264,-0.689 0.217,-0.714 0.222,-0.722 0.272,-0.723Z M0.168,-0.783 0.167,-0.744 0.151,-0.739 0.143,-0.784 0.161,-0.792 0.168,-0.783Z" fill="#e8efe2"/><path d="M0.464,-1.175 0.434,-1.198 0.367,-1.187 0.367,-1.205 0.379,-1.235 0.394,-1.24 0.413,-1.216 0.426,-1.225 0.424,-1.245 0.442,-1.25 0.486,-1.226 0.482,-1.212 0.491,-1.189 0.464,-1.175Z" fill="#e8efe2"/><path d="M0.397,-1.135 0.394,-1.156 0.371,-1.162 0.367,-1.187 0.434,-1.198 0.467,-1.162 0.451,-1.152 0.448,-1.128 0.411,-1.122 0.397,-1.135Z" fill="#e8efe2"/><path d="M0.107,-1.014 0.113,-1.005 0.111,-0.996 0.101,-0.998 0.107,-1.014Z" fill="#e8efe2"/><path d="M0.376,-0.815 0.398,-0.81 0.4,-0.794 0.361,-0.784 0.359,-0.806 0.376,-0.815Z" fill="#e8efe2"/><path d="M0.465,-0.964 0.481,-0.97 0.508,-0.956 0.508,-0.944 0.526,-0.917 0.505,-0.918 0.492,-0.893 0.49,-0.931 0.465,-0.964Z" fill="#e8efe2"/><path d="M0.335,-0.846 0.355,-0.829 0.343,-0.824 0.338,-0.806 0.322,-0.821 0.322,-0.833 0.335,-0.846Z" fill="#e8efe2"/><path d="M0.36,-1.688 0.351,-1.687 0.355,-1.678 0.349,-1.655 0.319,-1.664 0.313,-1.636 0.293,-1.633 0.27,-1.562 0.254,-1.554 0.253,-1.519 0.238,-1.489 0.247,-1.473 0.213,-1.45 0.212,-1.379 0.225,-1.365 0.215,-1.352 0.218,-1.321 0.204,-1.303 0.203,-1.28 0.189,-1.289 0.185,-1.309 0.178,-1.283 0.167,-1.286 0.143,-1.254 0.122,-1.25 0.096,-1.273 0.111,-1.283 0.103,-1.286 0.112,-1.301 0.09,-1.288 0.093,-1.304 0.109,-1.311 0.1,-1.312 0.122,-1.335 0.09,-1.304 0.091,-1.32 0.099,-1.321 0.09,-1.333 0.099,-1.341 0.091,-1.337 0.087,-1.354 0.133,-1.36 0.089,-1.359 0.093,-1.37 0.086,-1.385 0.117,-1.384 0.09,-1.395 0.141,-1.416 0.117,-1.416 0.132,-1.431 0.15,-1.421 0.142,-1.433 0.15,-1.45 0.188,-1.445 0.2,-1.466 0.176,-1.447 0.167,-1.454 0.201,-1.506 0.225,-1.521 0.212,-1.518 0.227,-1.547 0.223,-1.553 0.245,-1.561 0.229,-1.558 0.231,-1.576 0.269,-1.601 0.252,-1.604 0.257,-1.615 0.274,-1.616 0.258,-1.629 0.279,-1.649 0.285,-1.632 0.283,-1.653 0.306,-1.658 0.288,-1.663 0.319,-1.709 0.329,-1.701 0.325,-1.71 0.344,-1.725 0.343,-1.706 0.355,-1.733 0.35,-1.702 0.362,-1.711 0.36,-1.731 0.383,-1.727 0.376,-1.749 0.396,-1.754 0.408,-1.734 0.432,-1.788 0.45,-1.778 0.437,-1.741 0.463,-1.783 0.464,-1.757 0.471,-1.762 0.482,-1.793 0.495,-1.787 0.487,-1.771 0.493,-1.77 0.492,-1.748 0.503,-1.78 0.54,-1.753 0.502,-1.743 0.54,-1.718 0.506,-1.687 0.509,-1.719 0.487,-1.738 0.463,-1.731 0.435,-1.666 0.391,-1.672 0.377,-1.699 0.36,-1.688Z M0.409,-1.778 0.384,-1.77 0.409,-1.778Z M0.447,-1.795 0.456,-1.79 0.442,-1.789 0.447,-1.795Z M0.412,-1.764 0.4,-1.755 0.412,-1.764Z M0.242,-1.651 0.246,-1.65 0.231,-1.638 0.242,-1.651Z M0.265,-1.683 0.266,-1.667 0.251,-1.672 0.265,-1.683Z M0.336,-1.739 0.342,-1.736 0.315,-1.715 0.336,-1.739Z M0.305,-1.715 0.316,-1.705 0.293,-1.689 0.305,-1.715Z M0.275,-1.664 0.289,-1.672 0.249,-1.647 0.282,-1.699 0.275,-1.664Z M-0.156,-1.779 -0.139,-1.794 -0.156,-1.779Z M0.469,-2.309 0.461,-2.32 0.469,-2.309Z M0.568,-2.448 0.549,-2.447 0.587,-2.459 0.568,-2.448Z M0.377,-2.304 0.435,-2.233 0.398,-2.194 0.391,-2.197 0.396,-2.216 0.367,-2.207 0.378,-2.246 0.353,-2.294 0.377,-2.304Z M0.365,-2.462 0.389,-2.441 0.402,-2.485 0.407,-2.48 0.403,-2.456 0.426,-2.473 0.475,-2.427 0.418,-2.358 0.351,-2.386 0.343,-2.396 0.363,-2.411 0.327,-2.412 0.319,-2.429 0.329,-2.44 0.313,-2.45 0.338,-2.448 0.335,-2.47 0.344,-2.486 0.365,-2.462Z M0.293,-2.427 0.311,-2.416 0.308,-2.377 0.321,-2.398 0.326,-2.364 0.373,-2.317 0.334,-2.285 0.291,-2.14 0.244,-2.212 0.295,-2.244 0.239,-2.255 0.3,-2.289 0.287,-2.296 0.293,-2.31 0.256,-2.315 0.256,-2.288 0.23,-2.273 0.198,-2.336 0.216,-2.336 0.209,-2.367 0.196,-2.352 0.186,-2.412 0.239,-2.422 0.243,-2.412 0.219,-2.394 0.245,-2.372 0.259,-2.413 0.285,-2.339 0.276,-2.408 0.293,-2.427Z M0.196,-2.305 0.212,-2.272 0.184,-2.331 0.196,-2.305Z M0.507,-2.332 0.518,-2.331 0.487,-2.327 0.507,-2.332Z" fill="#e8efe2"/><path d="M0.105,-1.031 0.088,-1.051 0.06,-1.053 0.075,-1.051 0.069,-1.061 0.083,-1.093 0.119,-1.108 0.126,-1.103 0.117,-1.081 0.123,-1.074 0.104,-1.061 0.105,-1.031Z M0.074,-1.049 0.058,-1.049 0.074,-1.049Z" fill="#e8efe2"/><path d="M0.412,-1.053 0.42,-1.025 0.395,-0.998 0.398,-0.984 0.378,-0.995 0.331,-0.994 0.309,-1.019 0.295,-1.022 0.29,-1.013 0.284,-1.029 0.258,-1.034 0.262,-1.045 0.255,-1.081 0.247,-1.091 0.254,-1.119 0.248,-1.122 0.316,-1.149 0.331,-1.135 0.401,-1.135 0.409,-1.128 0.417,-1.096 0.405,-1.075 0.413,-1.067 0.412,-1.053Z" fill="#e8efe2"/><path d="M-0.153,-0.808 -0.116,-0.808 -0.108,-0.798 -0.121,-0.787 -0.123,-0.756 -0.132,-0.755 -0.122,-0.742 -0.128,-0.728 -0.121,-0.722 -0.137,-0.696 -0.157,-0.697 -0.151,-0.727 -0.161,-0.733 -0.153,-0.742 -0.165,-0.734 -0.151,-0.78 -0.153,-0.808Z M-0.448,-0.714 -0.439,-0.714 -0.448,-0.714Z" fill="#e8efe2"/><path d="M0.492,-0.893 0.519,-0.888 0.516,-0.877 0.504,-0.879 0.499,-0.851 0.473,-0.861 0.445,-0.849 0.4,-0.853 0.393,-0.868 0.397,-0.872 0.373,-0.877 0.375,-0.885 0.353,-0.909 0.369,-0.914 0.384,-0.945 0.404,-0.96 0.436,-0.95 0.468,-0.964 0.49,-0.931 0.492,-0.893Z" fill="#e8efe2"/><path d="M-0.047,-1.055 -0.062,-1.05 -0.092,-1.063 -0.069,-1.082 -0.072,-1.093 -0.082,-1.089 -0.076,-1.098 -0.048,-1.104 -0.053,-1.11 -0.05,-1.13 -0.063,-1.141 -0.053,-1.153 -0.09,-1.15 -0.082,-1.17 -0.084,-1.19 -0.094,-1.185 -0.101,-1.165 -0.091,-1.209 -0.107,-1.208 -0.1,-1.212 -0.1,-1.238 -0.09,-1.245 -0.094,-1.251 -0.088,-1.268 -0.053,-1.27 -0.072,-1.235 -0.033,-1.236 -0.045,-1.203 -0.058,-1.196 -0.047,-1.193 -0.066,-1.188 -0.038,-1.182 -0.021,-1.145 -0.001,-1.128 0.002,-1.113 -0.012,-1.116 0.005,-1.105 0.001,-1.092 0.03,-1.086 0.027,-1.069 0.007,-1.051 0.025,-1.048 0.017,-1.036 -0.052,-1.03 -0.064,-1.017 -0.099,-1.013 -0.073,-1.043 -0.055,-1.044 -0.042,-1.059 -0.047,-1.055Z M-0.023,-1.336 -0.018,-1.332 -0.023,-1.313 -0.029,-1.326 -0.023,-1.336Z M-0.108,-1.261 -0.124,-1.243 -0.123,-1.256 -0.108,-1.261Z M-0.107,-1.233 -0.099,-1.224 -0.118,-1.231 -0.107,-1.233Z M-0.109,-1.127 -0.142,-1.138 -0.129,-1.155 -0.107,-1.161 -0.095,-1.139 -0.109,-1.127Z" fill="#e8efe2"/><path d="M2.099,-1.906 2.088,-1.908 2.099,-1.906Z M1.855,-2.271 1.85,-2.271 1.863,-2.277 1.855,-2.271Z M1.34,-1.928 1.328,-1.932 1.34,-1.928Z M1.512,-2.026 1.521,-2.024 1.506,-2.02 1.512,-2.026Z M1.035,-2.577 1.023,-2.581 1.035,-2.577Z M-3.138,-1.683 -3.06,-1.623 -3.061,-1.609 -3.052,-1.608 -3.053,-1.575 -3.038,-1.558 -3.033,-1.567 -3.046,-1.596 -2.998,-1.589 -2.962,-1.551 -2.979,-1.532 -2.992,-1.54 -2.987,-1.527 -3.016,-1.535 -3.006,-1.526 -3.013,-1.517 -3.006,-1.509 -3.021,-1.5 -3.009,-1.483 -3.022,-1.477 -3.061,-1.498 -3.073,-1.526 -3.114,-1.527 -3.123,-1.55 -3.116,-1.566 -3.136,-1.556 -3.13,-1.528 -3.142,-1.509 -3.138,-1.683Z M2.281,-0.816 2.276,-0.826 2.288,-0.83 2.291,-0.842 2.286,-0.877 2.301,-0.89 2.323,-0.885 2.342,-0.939 2.352,-0.95 2.35,-0.964 2.286,-0.949 2.279,-0.98 2.226,-1.005 2.2,-1.087 2.157,-1.111 2.112,-1.103 2.096,-1.089 2.106,-1.082 2.106,-1.065 2.08,-1.022 2.081,-1.013 2.057,-0.997 1.995,-1.018 1.969,-0.998 1.932,-0.988 1.896,-0.992 1.862,-1.019 1.803,-1.016 1.786,-1.025 1.782,-1.048 1.726,-1.07 1.709,-1.046 1.715,-1.019 1.699,-1.004 1.651,-1.011 1.645,-1.026 1.612,-1.034 1.526,-0.986 1.513,-1.005 1.488,-1.0 1.459,-1.036 1.422,-1.031 1.409,-1.046 1.396,-1.032 1.359,-1.103 1.335,-1.125 1.341,-1.137 1.281,-1.108 1.286,-1.125 1.241,-1.13 1.235,-1.164 1.204,-1.166 1.136,-1.134 1.069,-1.125 1.064,-1.113 1.074,-1.109 1.068,-1.103 1.084,-1.095 1.066,-1.094 1.064,-1.074 1.048,-1.064 1.074,-1.047 1.064,-1.03 1.048,-1.034 1.039,-1.024 1.019,-1.04 0.995,-1.04 0.972,-1.027 0.954,-1.038 0.952,-1.025 0.931,-1.052 0.886,-1.059 0.849,-1.027 0.851,-1.009 0.828,-1.02 0.818,-1.003 0.814,-0.968 0.825,-0.951 0.841,-0.95 0.855,-0.926 0.847,-0.922 0.86,-0.914 0.828,-0.898 0.815,-0.871 0.828,-0.846 0.832,-0.854 0.828,-0.834 0.848,-0.805 0.835,-0.791 0.826,-0.792 0.797,-0.814 0.797,-0.821 0.698,-0.843 0.64,-0.885 0.672,-0.909 0.659,-0.922 0.685,-0.933 0.667,-0.94 0.678,-0.953 0.694,-0.953 0.697,-0.965 0.692,-0.973 0.698,-0.979 0.693,-0.984 0.7,-0.999 0.664,-1.009 0.653,-1.022 0.621,-1.021 0.616,-1.039 0.597,-1.045 0.6,-1.06 0.59,-1.075 0.554,-1.069 0.546,-1.095 0.571,-1.107 0.538,-1.148 0.539,-1.172 0.494,-1.187 0.482,-1.212 0.479,-1.275 0.491,-1.295 0.489,-1.307 0.527,-1.316 0.498,-1.341 0.485,-1.336 0.55,-1.424 0.523,-1.456 0.533,-1.469 0.517,-1.505 0.525,-1.54 0.507,-1.587 0.523,-1.623 0.501,-1.647 0.497,-1.661 0.502,-1.678 0.496,-1.681 0.558,-1.733 0.576,-1.721 0.56,-1.717 0.565,-1.709 0.584,-1.707 0.578,-1.689 0.626,-1.695 0.715,-1.625 0.722,-1.602 0.719,-1.585 0.675,-1.552 0.557,-1.599 0.605,-1.546 0.601,-1.523 0.612,-1.484 0.653,-1.458 0.664,-1.469 0.639,-1.496 0.644,-1.513 0.694,-1.489 0.706,-1.497 0.695,-1.532 0.737,-1.571 0.77,-1.549 0.775,-1.59 0.764,-1.604 0.772,-1.645 0.756,-1.67 0.801,-1.661 0.815,-1.631 0.784,-1.611 0.811,-1.583 0.832,-1.591 0.835,-1.619 0.851,-1.633 0.915,-1.654 0.92,-1.661 0.914,-1.667 0.939,-1.686 0.951,-1.685 0.939,-1.681 0.941,-1.659 0.93,-1.651 0.955,-1.646 0.967,-1.665 1.031,-1.686 1.036,-1.673 1.031,-1.659 1.042,-1.654 1.063,-1.685 1.05,-1.715 1.063,-1.728 1.12,-1.712 1.193,-1.652 1.207,-1.683 1.168,-1.713 1.174,-1.774 1.163,-1.792 1.192,-1.825 1.211,-1.898 1.248,-1.895 1.271,-1.882 1.254,-1.813 1.269,-1.786 1.267,-1.684 1.284,-1.661 1.275,-1.627 1.246,-1.591 1.249,-1.578 1.204,-1.583 1.258,-1.559 1.303,-1.624 1.3,-1.669 1.311,-1.679 1.334,-1.685 1.348,-1.66 1.347,-1.628 1.377,-1.619 1.354,-1.626 1.361,-1.65 1.355,-1.681 1.288,-1.695 1.284,-1.725 1.297,-1.765 1.276,-1.812 1.309,-1.851 1.307,-1.891 1.319,-1.876 1.314,-1.811 1.322,-1.802 1.379,-1.785 1.327,-1.838 1.365,-1.838 1.351,-1.849 1.365,-1.864 1.451,-1.827 1.437,-1.802 1.434,-1.766 1.449,-1.782 1.443,-1.747 1.45,-1.74 1.462,-1.764 1.451,-1.793 1.458,-1.825 1.411,-1.871 1.406,-1.935 1.517,-1.955 1.497,-1.927 1.513,-1.907 1.499,-1.924 1.528,-1.95 1.501,-1.983 1.522,-1.985 1.497,-2.004 1.527,-2.028 1.519,-2.039 1.643,-2.094 1.621,-2.096 1.628,-2.105 1.677,-2.103 1.671,-2.088 1.722,-2.115 1.741,-2.099 1.739,-2.084 1.742,-2.107 1.725,-2.133 1.773,-2.13 1.762,-2.139 1.761,-2.164 1.815,-2.23 1.851,-2.203 1.819,-2.18 1.875,-2.167 1.857,-2.135 1.939,-2.151 1.987,-2.092 1.981,-2.066 1.963,-2.085 1.985,-2.058 1.971,-2.029 1.835,-1.888 1.935,-1.945 1.914,-1.95 1.924,-1.964 1.973,-1.957 1.981,-1.922 1.974,-1.891 1.984,-1.879 1.976,-1.89 1.988,-1.922 1.981,-1.931 1.991,-1.936 2.067,-1.937 2.076,-1.93 2.067,-1.916 2.09,-1.9 2.139,-1.894 2.158,-1.912 2.154,-1.94 2.174,-1.947 2.253,-1.907 2.244,-1.895 2.256,-1.884 2.241,-1.874 2.256,-1.868 2.256,-1.848 2.229,-1.866 2.287,-1.774 2.315,-1.839 2.333,-1.811 2.375,-1.821 2.408,-1.795 2.413,-1.82 2.443,-1.814 2.432,-1.84 2.447,-1.854 2.428,-1.862 2.462,-1.877 2.458,-1.894 2.553,-1.868 2.516,-1.858 2.521,-1.852 2.563,-1.86 2.55,-1.839 2.544,-1.856 2.544,-1.839 2.532,-1.839 2.534,-1.826 2.57,-1.862 2.609,-1.852 2.618,-1.837 2.599,-1.826 2.662,-1.779 2.77,-1.785 2.791,-1.762 2.79,-1.724 2.808,-1.716 2.816,-1.681 2.808,-1.663 2.827,-1.713 2.861,-1.722 2.93,-1.722 2.96,-1.675 2.976,-1.677 2.985,-1.692 2.97,-1.717 2.976,-1.741 3.07,-1.73 3.142,-1.685 3.142,-1.509 3.116,-1.49 3.087,-1.51 3.078,-1.509 3.093,-1.501 3.046,-1.493 3.073,-1.502 3.074,-1.49 3.096,-1.497 3.101,-1.478 3.111,-1.48 3.119,-1.46 3.115,-1.449 3.134,-1.418 3.126,-1.401 3.09,-1.418 3.092,-1.41 3.017,-1.369 2.978,-1.332 2.973,-1.316 2.954,-1.338 2.919,-1.331 2.901,-1.312 2.903,-1.334 2.879,-1.311 2.858,-1.318 2.827,-1.252 2.834,-1.24 2.849,-1.242 2.841,-1.224 2.851,-1.192 2.842,-1.187 2.838,-1.192 2.846,-1.201 2.839,-1.2 2.829,-1.188 2.823,-1.17 2.829,-1.147 2.794,-1.13 2.793,-1.099 2.766,-1.096 2.759,-1.061 2.736,-1.037 2.715,-1.16 2.722,-1.207 2.738,-1.226 2.737,-1.242 2.763,-1.249 2.829,-1.333 2.857,-1.35 2.866,-1.4 2.887,-1.407 2.851,-1.41 2.846,-1.373 2.834,-1.376 2.795,-1.34 2.799,-1.353 2.789,-1.351 2.798,-1.385 2.742,-1.377 2.693,-1.311 2.691,-1.299 2.708,-1.289 2.641,-1.279 2.638,-1.285 2.657,-1.29 2.612,-1.309 2.596,-1.291 2.511,-1.297 2.479,-1.283 2.36,-1.149 2.388,-1.143 2.388,-1.118 2.403,-1.133 2.397,-1.127 2.406,-1.123 2.395,-1.111 2.418,-1.123 2.416,-1.111 2.42,-1.133 2.438,-1.133 2.467,-1.103 2.458,-1.097 2.469,-1.071 2.453,-1.033 2.445,-0.968 2.358,-0.846 2.324,-0.826 2.3,-0.839 2.281,-0.825 2.281,-0.816Z M0.828,-2.525 0.85,-2.502 0.784,-2.499 0.828,-2.525Z M0.878,-2.534 0.902,-2.508 0.845,-2.446 0.814,-2.467 0.878,-2.534Z M1.183,-2.115 1.071,-2.049 1.022,-1.994 1.023,-1.977 0.988,-1.919 0.948,-1.922 0.938,-1.948 0.98,-1.994 0.97,-2.003 0.986,-2.025 0.976,-2.039 1.028,-2.087 1.179,-2.173 1.203,-2.15 1.183,-2.115Z M0.966,-1.919 0.985,-1.913 0.967,-1.874 0.965,-1.839 1.006,-1.773 0.938,-1.778 0.932,-1.781 0.945,-1.795 0.898,-1.83 0.918,-1.86 0.924,-1.881 0.917,-1.887 0.931,-1.896 0.929,-1.912 0.966,-1.919Z M1.685,-2.551 1.708,-2.509 1.695,-2.499 1.7,-2.469 1.696,-2.461 1.638,-2.437 1.597,-2.473 1.628,-2.519 1.616,-2.518 1.624,-2.541 1.685,-2.551Z M1.705,-2.452 1.711,-2.438 1.704,-2.412 1.721,-2.441 1.744,-2.421 1.74,-2.37 1.729,-2.367 1.744,-2.337 1.703,-2.325 1.624,-2.387 1.658,-2.446 1.705,-2.452Z M1.796,-2.364 1.787,-2.326 1.812,-2.354 1.839,-2.304 1.733,-2.256 1.773,-2.373 1.796,-2.364Z M2.444,-2.085 2.458,-2.071 2.469,-2.107 2.537,-2.064 2.514,-2.03 2.493,-2.046 2.495,-2.077 2.48,-2.073 2.498,-2.026 2.438,-2.025 2.43,-2.005 2.39,-2.046 2.412,-2.105 2.444,-2.085Z M2.562,-2.053 2.632,-2.038 2.601,-2.012 2.551,-2.041 2.556,-2.066 2.562,-2.053Z M3.122,-1.779 3.119,-1.794 3.142,-1.817 3.142,-1.787 3.122,-1.779Z M2.492,-1.136 2.501,-1.094 2.499,-1.064 2.526,-0.974 2.513,-0.991 2.498,-0.989 2.488,-0.951 2.506,-0.915 2.503,-0.907 2.501,-0.92 2.49,-0.924 2.48,-0.904 2.475,-0.918 2.482,-0.958 2.476,-0.977 2.482,-1.044 2.472,-1.074 2.475,-1.105 2.488,-1.108 2.491,-1.121 2.484,-1.133 2.492,-1.136Z M-3.122,-1.819 -3.098,-1.8 -3.142,-1.787 -3.142,-1.817 -3.122,-1.819Z M0.923,-1.807 0.927,-1.787 0.912,-1.806 0.923,-1.807Z M2.933,-1.141 2.922,-1.15 2.933,-1.141Z M2.818,-1.681 2.811,-1.706 2.819,-1.717 2.818,-1.681Z M2.603,-2.146 2.59,-2.145 2.608,-2.155 2.603,-2.146Z M2.408,-1.815 2.392,-1.817 2.408,-1.815Z M1.88,-2.264 1.857,-2.265 1.88,-2.264Z M1.963,-2.143 1.954,-2.144 1.963,-2.143Z M1.685,-2.118 1.663,-2.113 1.685,-2.118Z M1.681,-2.174 1.663,-2.174 1.685,-2.189 1.681,-2.174Z M1.303,-1.893 1.293,-1.902 1.308,-1.904 1.303,-1.893Z M1.318,-1.929 1.327,-1.934 1.318,-1.929Z M1.458,-1.967 1.445,-1.968 1.458,-1.967Z M1.222,-1.57 1.212,-1.58 1.222,-1.57Z M0.874,-2.443 0.865,-2.452 0.878,-2.453 0.874,-2.443Z M0.897,-2.43 0.874,-2.434 0.897,-2.43Z M0.95,-2.485 0.939,-2.486 0.95,-2.485Z M1.042,-2.432 1.028,-2.434 1.042,-2.432Z M1.023,-2.547 1.029,-2.523 0.999,-2.544 1.023,-2.547Z M0.877,-1.695 0.854,-1.673 0.843,-1.688 0.854,-1.711 0.877,-1.695Z M1.106,-2.509 1.091,-2.522 1.127,-2.565 1.142,-2.534 1.106,-2.509Z M1.012,-2.448 0.995,-2.485 1.034,-2.471 1.012,-2.448Z M1.085,-2.523 1.066,-2.479 1.035,-2.495 1.085,-2.523Z M1.067,-2.537 1.048,-2.54 1.075,-2.548 1.067,-2.537Z M0.934,-2.456 0.911,-2.463 0.94,-2.464 0.934,-2.456Z M0.996,-2.472 0.995,-2.443 0.972,-2.446 0.996,-2.472Z M1.009,-2.605 1.022,-2.59 0.968,-2.577 1.009,-2.605Z M0.955,-2.556 1.007,-2.519 0.944,-2.521 0.955,-2.556Z M1.111,-2.613 1.084,-2.621 1.111,-2.613Z M1.018,-2.626 1.011,-2.626 1.037,-2.639 1.018,-2.626Z M1.618,-2.406 1.589,-2.434 1.637,-2.426 1.618,-2.406Z M1.598,-2.558 1.569,-2.561 1.598,-2.558Z M2.461,-1.962 2.445,-1.974 2.461,-1.962Z M2.482,-1.956 2.504,-1.916 2.438,-1.927 2.482,-1.956Z M2.373,-2.056 2.364,-2.054 2.368,-2.087 2.377,-2.07 2.373,-2.056Z M2.377,-1.957 2.363,-1.978 2.377,-1.957Z M2.408,-1.157 2.412,-1.155 2.404,-1.144 2.395,-1.148 2.408,-1.157Z M2.953,-1.714 2.928,-1.727 2.957,-1.728 2.953,-1.714Z M2.856,-1.269 2.858,-1.283 2.872,-1.29 2.873,-1.279 2.856,-1.269Z M2.909,-1.149 2.893,-1.163 2.902,-1.164 2.909,-1.149Z M2.721,-1.019 2.709,-1.018 2.724,-1.032 2.721,-1.019Z M2.613,-0.897 2.628,-0.912 2.613,-0.897Z M2.594,-0.889 2.564,-0.867 2.582,-0.891 2.598,-0.894 2.594,-0.889Z M2.552,-0.869 2.558,-0.868 2.538,-0.851 2.552,-0.869Z M1.979,-1.988 1.969,-1.969 1.946,-1.985 1.979,-1.988Z M1.331,-2.402 1.354,-2.387 1.331,-2.402Z M1.397,-2.525 1.378,-2.525 1.404,-2.534 1.397,-2.525Z M1.233,-1.907 1.22,-1.906 1.228,-1.93 1.25,-1.914 1.233,-1.907Z M1.355,-1.859 1.342,-1.861 1.368,-1.87 1.355,-1.859Z M1.388,-1.884 1.372,-1.892 1.382,-1.906 1.388,-1.884Z M1.434,-2.056 1.422,-2.053 1.434,-2.056Z M1.055,-1.732 1.041,-1.721 1.02,-1.749 1.03,-1.76 1.055,-1.732Z M0.366,-1.163 0.359,-1.154 0.373,-1.163 0.394,-1.156 0.397,-1.135 0.342,-1.138 0.366,-1.163Z M0.586,-0.909 0.605,-0.906 0.619,-0.889 0.638,-0.891 0.589,-0.867 0.584,-0.87 0.586,-0.884 0.567,-0.891 0.586,-0.909Z" fill="#e8efe2"/><path d="M0.373,-0.877 0.397,-0.872 0.39,-0.852 0.401,-0.837 0.391,-0.817 0.376,-0.815 0.38,-0.825 0.363,-0.839 0.355,-0.829 0.335,-0.844 0.342,-0.858 0.334,-0.866 0.338,-0.878 0.332,-0.879 0.339,-0.887 0.329,-0.902 0.353,-0.91 0.375,-0.885 0.373,-0.877Z" fill="#e8efe2"/><path d="M0.393,-0.986 0.386,-0.968 0.358,-0.971 0.327,-0.952 0.308,-0.953 0.294,-0.969 0.299,-0.98 0.339,-1.0 0.346,-0.989 0.373,-0.995 0.393,-0.986Z" fill="#e8efe2"/><path d="M0.288,-0.919 0.273,-0.911 0.266,-0.892 0.238,-0.893 0.242,-0.897 0.234,-0.913 0.281,-0.928 0.288,-0.919Z" fill="#e8efe2"/><path d="M0.166,-0.945 0.166,-0.933 0.182,-0.929 0.177,-0.912 0.162,-0.919 0.156,-0.902 0.147,-0.918 0.136,-0.904 0.123,-0.904 0.118,-0.917 0.104,-0.91 0.123,-0.944 0.15,-0.952 0.166,-0.945Z" fill="#e8efe2"/><path d="M0.333,-1.244 0.317,-1.214 0.317,-1.235 0.333,-1.244Z M0.289,-1.194 0.299,-1.227 0.289,-1.194Z M0.199,-1.284 0.203,-1.28 0.204,-1.303 0.218,-1.321 0.215,-1.352 0.225,-1.365 0.212,-1.379 0.209,-1.438 0.221,-1.464 0.247,-1.473 0.238,-1.489 0.253,-1.519 0.254,-1.554 0.268,-1.559 0.286,-1.595 0.283,-1.615 0.302,-1.643 0.313,-1.636 0.317,-1.663 0.35,-1.656 0.351,-1.687 0.413,-1.636 0.409,-1.613 0.419,-1.584 0.414,-1.559 0.422,-1.54 0.391,-1.543 0.374,-1.52 0.369,-1.499 0.376,-1.484 0.362,-1.461 0.304,-1.408 0.301,-1.342 0.331,-1.311 0.313,-1.295 0.325,-1.294 0.319,-1.286 0.283,-1.27 0.295,-1.265 0.279,-1.192 0.257,-1.189 0.247,-1.166 0.225,-1.167 0.218,-1.194 0.225,-1.205 0.196,-1.261 0.199,-1.284Z" fill="#e8efe2"/><path d="M0.329,-0.997 0.296,-0.973 0.262,-0.984 0.248,-0.973 0.221,-0.995 0.211,-1.019 0.262,-1.038 0.286,-1.028 0.29,-1.013 0.295,-1.022 0.309,-1.019 0.329,-0.997Z" fill="#e8efe2"/><path d="M0.667,-0.934 0.611,-0.909 0.615,-0.917 0.608,-0.911 0.61,-0.9 0.59,-0.912 0.556,-0.913 0.551,-0.92 0.569,-0.922 0.559,-0.922 0.554,-0.937 0.556,-0.923 0.538,-0.92 0.517,-0.899 0.519,-0.888 0.502,-0.887 0.492,-0.893 0.505,-0.918 0.526,-0.917 0.508,-0.944 0.508,-0.956 0.481,-0.97 0.434,-0.95 0.399,-0.956 0.386,-0.972 0.399,-0.985 0.396,-1.0 0.42,-1.025 0.412,-1.055 0.425,-1.062 0.533,-1.046 0.541,-1.068 0.589,-1.076 0.6,-1.06 0.597,-1.045 0.616,-1.039 0.621,-1.021 0.653,-1.022 0.664,-1.009 0.7,-0.999 0.693,-0.984 0.698,-0.979 0.692,-0.973 0.697,-0.965 0.694,-0.955 0.678,-0.953 0.667,-0.934Z M0.559,-0.911 0.55,-0.916 0.559,-0.911Z" fill="#e8efe2"/><path d="M0.166,-0.939 0.17,-0.947 0.178,-0.939 0.213,-0.95 0.227,-0.944 0.224,-0.962 0.241,-0.978 0.256,-0.973 0.262,-0.984 0.295,-0.976 0.299,-0.958 0.287,-0.949 0.288,-0.933 0.279,-0.923 0.254,-0.916 0.218,-0.923 0.213,-0.934 0.177,-0.928 0.166,-0.939Z" fill="#e8453c"/></g></svg>