<svg xmlns="http://www.w3.org/2000/svg" viewBox="-0.436 -1.843 1.222 1.232" preserveAspectRatio="xMidYMid meet"><rect x="-0.436" y="-1.843" width="1.222" height="1.232" fill="#a9d2ea"/><g stroke="#7e96a9" stroke-width="0.0031" stroke-linejoin="round"><path d="M0.3375,-0.8061 0.3438,-0.8245 0.3581,-0.8132 0.3576,-0.7921 0.367,-0.7771 0.3527,-0.755 0.3372,-0.7723 0.3375,-0.8061Z" fill="#e8efe2"/><path d="M0.1662,-0.945 0.1321,-0.9473 0.1419,-0.983 0.1107,-0.9958 0.1038,-1.0605 0.1218,-1.0721 0.1168,-1.0813 0.1253,-1.094 0.1258,-1.1138 0.1484,-1.1062 0.1504,-1.1206 0.1607,-1.12 0.1707,-1.1109 0.1508,-1.1328 0.1564,-1.1403 0.1513,-1.1512 0.1922,-1.1355 0.1894,-1.1245 0.2196,-1.1382 0.2395,-1.1286 0.2491,-1.1156 0.2466,-1.0914 0.2552,-1.0813 0.2611,-1.0409 0.211,-1.018 0.2407,-0.9729 0.2227,-0.9603 0.2271,-0.944 0.1662,-0.945Z" fill="#e8efe2"/><path d="M0.1663,-0.9386 0.1702,-0.9466 0.1777,-0.9388 0.2131,-0.9502 0.2271,-0.944 0.2236,-0.9616 0.241,-0.9777 0.2564,-0.9732 0.2616,-0.9838 0.2946,-0.9759 0.2993,-0.9577 0.2866,-0.9489 0.2876,-0.9332 0.2786,-0.9235 0.2539,-0.9164 0.2178,-0.9232 0.2129,-0.9337 0.1768,-0.9278 0.1663,-0.9386Z" fill="#e8efe2"/><path d="M0.0738,-1.049 0.1018,-1.0417 0.0984,-1.0337 0.111,-1.0194 0.1002,-1.0085 0.1016,-0.9985 0.085,-1.005 0.0848,-1.0145 0.0724,-1.0099 0.044,-1.0409 0.0738,-1.049Z" fill="#e8efe2"/><path d="M0.5543,-1.069 0.5407,-1.0676 0.5315,-1.0456 0.441,-1.0645 0.4121,-1.0526 0.4128,-1.0673 0.4046,-1.075 0.4175,-1.0882 0.4098,-1.1224 0.4494,-1.1289 0.4513,-1.1518 0.4674,-1.1625 0.4618,-1.1646 0.4641,-1.1748 0.4908,-1.1897 0.5395,-1.1717 0.5376,-1.1476 0.5709,-1.1071 0.5456,-1.0954 0.5543,-1.069Z" fill="#e8efe2"/><path d="M0.3377,-0.8784 0.3337,-0.8657 0.3417,-0.8579 0.336,-0.8562 0.3403,-0.8482 0.3307,-0.8455 0.322,-0.8224 0.2747,-0.8757 0.2761,-0.8863 0.2953,-0.8883 0.3377,-0.8784Z" fill="#e8efe2"/><path d="M0.4889,-0.8085 0.4639,-0.808 0.4524,-0.793 0.4,-0.7937 0.4013,-0.8035 0.3899,-0.8165 0.4011,-0.8374 0.391,-0.8562 0.3964,-0.8627 0.4,-0.8528 0.4451,-0.8489 0.4728,-0.861 0.499,-0.8506 0.4796,-0.8202 0.4889,-0.8085Z" fill="#e8efe2"/><path d="M0.237,-0.8943 0.2677,-0.893 0.2724,-0.9106 0.2848,-0.9197 0.3108,-0.901 0.33,-0.9045 0.3386,-0.8861 0.3318,-0.8782 0.2756,-0.8858 0.2747,-0.8757 0.307,-0.8314 0.2791,-0.8453 0.2539,-0.8888 0.2419,-0.8774 0.237,-0.8943Z M0.3,-0.8359 0.2859,-0.8379 0.3,-0.8359Z M0.3218,-0.8224 0.2976,-0.8331 0.3218,-0.8224Z" fill="#e8efe2"/><path d="M0.2194,-1.1785 0.207,-1.1473 0.1916,-1.1763 0.203,-1.1838 0.2063,-1.1757 0.2133,-1.1888 0.2194,-1.1785Z M0.17,-1.1491 0.1513,-1.1512 0.1504,-1.1671 0.1419,-1.1726 0.1424,-1.2042 0.1606,-1.2071 0.159,-1.218 0.1443,-1.2109 0.1852,-1.2406 0.1794,-1.2046 0.1908,-1.1989 0.1674,-1.1692 0.17,-1.1491Z M0.1859,-1.1729 0.1854,-1.1558 0.1721,-1.1652 0.1859,-1.1729Z M0.1983,-1.1509 0.2054,-1.1445 0.1927,-1.1473 0.1983,-1.1509Z" fill="#e8efe2"/><path d="M0.055,-0.7581 0.0604,-0.7561 0.0536,-0.747 0.0414,-0.7531 0.055,-0.7581Z M-0.0312,-0.8427 -0.0007,-0.8255 0.056,-0.8193 0.0567,-0.8078 0.0124,-0.7817 -0.0058,-0.752 0.0035,-0.7349 -0.0091,-0.7251 -0.0126,-0.7098 -0.0286,-0.7045 -0.0368,-0.6912 -0.0763,-0.6899 -0.0983,-0.6749 -0.1114,-0.6881 -0.1086,-0.694 -0.1293,-0.6999 -0.1222,-0.7416 -0.1316,-0.7552 -0.1229,-0.7563 -0.1208,-0.7868 -0.1084,-0.7982 -0.1155,-0.8078 -0.1545,-0.8075 -0.1602,-0.8369 -0.1344,-0.8511 -0.0312,-0.8427Z M-0.285,-0.5169 -0.2908,-0.5096 -0.2951,-0.5161 -0.2813,-0.5209 -0.285,-0.5169Z M-0.2478,-0.5128 -0.2529,-0.5114 -0.2419,-0.5241 -0.2478,-0.5128Z" fill="#e8efe2"/><path d="M0.4773,-1.2338 0.4412,-1.2508 0.4245,-1.2449 0.4281,-1.2607 0.4149,-1.2611 0.41,-1.2894 0.4452,-1.3045 0.4889,-1.2989 0.4787,-1.2755 0.4849,-1.2446 0.4773,-1.2338Z M0.3948,-1.2698 0.407,-1.2641 0.384,-1.2469 0.3815,-1.2657 0.3948,-1.2698Z M0.4,-1.2768 0.385,-1.2805 0.4,-1.2768Z" fill="#e8efe2"/><path d="M0.4217,-1.5404 0.4136,-1.5593 0.4187,-1.5839 0.4093,-1.6131 0.4126,-1.6356 0.3599,-1.6875 0.3773,-1.6988 0.3911,-1.672 0.4353,-1.6658 0.463,-1.7313 0.4868,-1.7385 0.5086,-1.7187 0.5056,-1.6865 0.4958,-1.6807 0.5021,-1.6778 0.4969,-1.661 0.5007,-1.6468 0.5234,-1.6227 0.5074,-1.5892 0.5252,-1.5396 0.5166,-1.5052 0.5328,-1.4691 0.5234,-1.4556 0.5503,-1.4226 0.4852,-1.336 0.4644,-1.3392 0.4007,-1.311 0.4049,-1.3177 0.3999,-1.3243 0.392,-1.318 0.3941,-1.3303 0.3737,-1.3395 0.3772,-1.3738 0.3683,-1.4123 0.3761,-1.4345 0.4414,-1.5007 0.4424,-1.5265 0.4217,-1.5404Z" fill="#e8efe2"/><path d="M0.1655,-0.8283 0.1604,-0.7947 0.1496,-0.8176 0.1655,-0.8283Z M0.133,-0.9468 0.1216,-0.9432 0.1042,-0.9116 0.1183,-0.9166 0.1248,-0.8908 0.1157,-0.8831 0.122,-0.8772 0.1204,-0.8652 0.1339,-0.8598 0.1307,-0.8513 0.1068,-0.8345 0.0682,-0.8463 0.0532,-0.8309 0.056,-0.8193 0.0354,-0.8174 -0.0255,-0.834 -0.0312,-0.8427 -0.0188,-0.8737 -0.0188,-0.8945 -0.0096,-0.8814 -0.0209,-0.899 -0.0201,-0.9141 -0.036,-0.9268 -0.0384,-0.9357 -0.0304,-0.9373 -0.0752,-0.9528 -0.0817,-0.9585 -0.074,-0.9653 -0.0831,-0.9693 -0.0564,-0.9796 -0.0241,-0.9745 -0.0325,-1.002 0.0073,-0.9958 0.0033,-1.0026 0.0278,-1.0175 0.0291,-1.0351 0.044,-1.0409 0.0724,-1.0099 0.0848,-1.0145 0.0962,-0.9974 0.1419,-0.983 0.133,-0.9468Z M0.9739,0.3814 0.9653,0.3731 0.9739,0.3814Z M-0.9533,-0.0407 -0.9427,-0.0603 -0.9509,-0.0846 -0.9411,-0.1009 -0.9233,-0.0949 -0.9076,-0.076 -0.9046,-0.0811 -0.9015,-0.0709 -0.9198,-0.0412 -0.9533,-0.0407Z" fill="#e8efe2"/><path d="M0.4088,-0.7394 0.429,-0.7184 0.3992,-0.7374 0.4088,-0.7394Z M0.4609,-0.7477 0.4634,-0.7401 0.451,-0.7448 0.4609,-0.7477Z M0.4163,-0.6644 0.4594,-0.6597 0.4568,-0.6533 0.4328,-0.6513 0.4117,-0.6584 0.4163,-0.6644Z M0.4594,-0.8026 0.4646,-0.7951 0.4557,-0.7801 0.4147,-0.7801 0.4248,-0.7663 0.4142,-0.7704 0.418,-0.7622 0.395,-0.7743 0.4072,-0.7441 0.4,-0.7473 0.4026,-0.7412 0.3939,-0.7374 0.4184,-0.724 0.4199,-0.7116 0.4102,-0.7187 0.4021,-0.7153 0.41,-0.7056 0.3967,-0.7078 0.4042,-0.684 0.3976,-0.6914 0.3904,-0.6853 0.3854,-0.6966 0.3794,-0.6929 0.3686,-0.7156 0.3735,-0.7224 0.4046,-0.7209 0.3697,-0.7258 0.3625,-0.7374 0.3686,-0.741 0.3543,-0.7477 0.3491,-0.7563 0.3658,-0.7824 0.4199,-0.7982 0.4524,-0.793 0.4594,-0.8026Z" fill="#e8efe2"/><path d="M0.3862,-0.9682 0.3993,-0.9562 0.384,-0.9447 0.3672,-0.9123 0.3135,-0.9005 0.2808,-0.9281 0.2911,-0.9455 0.2866,-0.9489 0.2993,-0.9577 0.3267,-0.952 0.3576,-0.9714 0.3862,-0.9682Z" fill="#e8efe2"/><path d="M-0.126,-1.157 -0.1421,-1.1376 -0.1079,-1.1257 -0.1105,-1.0733 -0.1766,-1.0549 -0.1676,-1.0625 -0.1805,-1.0605 -0.173,-1.0696 -0.1808,-1.0721 -0.1532,-1.0856 -0.1731,-1.0824 -0.1559,-1.1009 -0.1761,-1.1068 -0.1672,-1.1185 -0.1756,-1.1319 -0.1492,-1.1313 -0.1419,-1.1433 -0.1529,-1.1445 -0.1443,-1.1588 -0.1215,-1.1616 -0.126,-1.157Z" fill="#e8efe2"/><path d="M-0.2712,-1.5585 -0.2548,-1.565 -0.2639,-1.5528 -0.2525,-1.5307 -0.2377,-1.5281 -0.2368,-1.5093 -0.2606,-1.4787 -0.3255,-1.4427 -0.3684,-1.4635 -0.3953,-1.4592 -0.3745,-1.4811 -0.3848,-1.4783 -0.3768,-1.4913 -0.4191,-1.5023 -0.3821,-1.5085 -0.3929,-1.5147 -0.3812,-1.5252 -0.4273,-1.5286 -0.4065,-1.5379 -0.4159,-1.5421 -0.4093,-1.5563 -0.3917,-1.5447 -0.4006,-1.5576 -0.3924,-1.5602 -0.4035,-1.5632 -0.3995,-1.5676 -0.3737,-1.5498 -0.378,-1.5366 -0.3688,-1.5177 -0.3527,-1.5528 -0.3396,-1.5387 -0.3278,-1.5559 -0.3166,-1.537 -0.3194,-1.5554 -0.3063,-1.5468 -0.28,-1.5715 -0.2712,-1.5585Z" fill="#e8efe2"/><path d="M0.1225,-0.9045 0.136,-0.9043 0.147,-0.9176 0.1562,-0.902 0.1623,-0.9189 0.1768,-0.9123 0.1824,-0.9281 0.2124,-0.9337 0.2162,-0.924 0.2391,-0.9194 0.2335,-0.9128 0.2421,-0.8965 0.2142,-0.8925 0.2164,-0.8623 0.2367,-0.8465 0.2538,-0.8148 0.282,-0.8068 0.2775,-0.7977 0.3133,-0.778 0.321,-0.7606 0.2955,-0.7734 0.2883,-0.7572 0.2997,-0.7403 0.2744,-0.7167 0.2829,-0.7389 0.2738,-0.7627 0.1944,-0.8184 0.1754,-0.8574 0.1531,-0.8671 0.1307,-0.8513 0.1339,-0.8598 0.1204,-0.8652 0.122,-0.8772 0.1157,-0.8831 0.1248,-0.8908 0.1185,-0.8998 0.1225,-0.9045Z M0.2719,-0.7229 0.2637,-0.6892 0.2171,-0.714 0.2222,-0.722 0.2719,-0.7229Z M0.1681,-0.7831 0.1669,-0.7441 0.151,-0.7387 0.1435,-0.7838 0.1611,-0.7919 0.1681,-0.7831Z" fill="#e8efe2"/><path d="M0.4641,-1.1748 0.4335,-1.1979 0.3674,-1.1872 0.367,-1.2052 0.3793,-1.2351 0.3936,-1.24 0.4128,-1.2157 0.4255,-1.2247 0.4245,-1.2449 0.4423,-1.2505 0.4857,-1.226 0.4824,-1.2119 0.4913,-1.1894 0.4641,-1.1748Z" fill="#e8efe2"/><path d="M0.3974,-1.1349 0.3939,-1.1561 0.3707,-1.1622 0.3674,-1.1872 0.4335,-1.1979 0.4674,-1.1625 0.4513,-1.1518 0.4482,-1.1283 0.4112,-1.1218 0.3974,-1.1349Z" fill="#e8efe2"/><path d="M0.1068,-1.0139 0.1133,-1.0053 0.1107,-0.9958 0.1011,-0.9983 0.1068,-1.0139Z" fill="#e8efe2"/><path d="M0.3763,-0.8151 0.3979,-0.8099 0.4,-0.7937 0.3615,-0.7842 0.3587,-0.8059 0.3763,-0.8151Z" fill="#e8efe2"/><path d="M0.4646,-0.9643 0.4808,-0.97 0.5084,-0.9564 0.5084,-0.9442 0.5259,-0.9169 0.5054,-0.9179 0.4924,-0.8925 0.4899,-0.9311 0.4646,-0.9643Z" fill="#e8efe2"/><path d="M0.3349,-0.8455 0.3552,-0.8293 0.343,-0.824 0.3375,-0.8061 0.3218,-0.8214 0.3222,-0.8328 0.3349,-0.8455Z" fill="#e8efe2"/><path d="M0.3599,-1.6875 0.3512,-1.6865 0.3552,-1.6783 0.3485,-1.6548 0.3194,-1.6644 0.3128,-1.6361 0.2929,-1.6333 0.2702,-1.5619 0.2538,-1.5541 0.2527,-1.5189 0.2382,-1.4892 0.2468,-1.4727 0.2126,-1.4501 0.2122,-1.3786 0.2248,-1.3651 0.2145,-1.3524 0.218,-1.3208 0.2039,-1.3027 0.2032,-1.2802 0.189,-1.2887 0.185,-1.3086 0.1777,-1.2829 0.1669,-1.2863 0.1426,-1.2541 0.1222,-1.2498 0.0963,-1.2735 0.111,-1.2826 0.1028,-1.286 0.1121,-1.3014 0.0902,-1.288 0.0925,-1.3045 0.1086,-1.3107 0.1,-1.3121 0.1222,-1.3349 0.0899,-1.3045 0.0909,-1.3201 0.0993,-1.3212 0.0897,-1.3328 0.0986,-1.3413 0.0915,-1.337 0.0874,-1.3538 0.1326,-1.36 0.0892,-1.3593 0.0932,-1.3702 0.086,-1.3845 0.1175,-1.3842 0.0897,-1.3949 0.1414,-1.4165 0.1175,-1.4161 0.1321,-1.4306 0.1504,-1.421 0.1424,-1.433 0.1497,-1.4501 0.1878,-1.4446 0.2,-1.4659 0.1756,-1.4466 0.167,-1.4544 0.2005,-1.5056 0.2255,-1.5206 0.2117,-1.5181 0.2274,-1.5468 0.2231,-1.5528 0.2449,-1.5615 0.229,-1.5585 0.2306,-1.5764 0.2691,-1.6013 0.252,-1.6045 0.2574,-1.6149 0.2738,-1.6158 0.2583,-1.6291 0.2794,-1.6487 0.2847,-1.6324 0.2827,-1.653 0.3063,-1.6582 0.2882,-1.6629 0.3187,-1.7087 0.3292,-1.7008 0.3248,-1.7097 0.3437,-1.7253 0.3428,-1.7062 0.3547,-1.7329 0.3499,-1.7018 0.362,-1.7112 0.3599,-1.7308 0.3834,-1.7268 0.3759,-1.7488 0.3958,-1.7545 0.4075,-1.7344 0.4321,-1.7882 0.4499,-1.7781 0.437,-1.741 0.4627,-1.7829 0.4641,-1.7565 0.4711,-1.7618 0.4817,-1.7925 0.4955,-1.7866 0.4869,-1.7707 0.4934,-1.7702 0.492,-1.7482 0.5032,-1.7802 0.5404,-1.7529 0.5023,-1.7431 0.5397,-1.7177 0.5056,-1.6865 0.5086,-1.7187 0.4868,-1.7385 0.463,-1.7313 0.4353,-1.6658 0.3911,-1.672 0.3773,-1.6988 0.3599,-1.6875Z M0.4091,-1.7781 0.3838,-1.7696 0.4091,-1.7781Z M0.4466,-1.7952 0.4564,-1.7899 0.4417,-1.7893 0.4466,-1.7952Z M0.4122,-1.7639 0.4,-1.755 0.4122,-1.7639Z M0.2421,-1.6506 0.2464,-1.6496 0.2309,-1.6379 0.2421,-1.6506Z M0.2655,-1.6827 0.2656,-1.6672 0.2508,-1.6715 0.2655,-1.6827Z M0.3362,-1.739 0.3423,-1.7364 0.3152,-1.7152 0.3362,-1.739Z M0.3054,-1.7152 0.3156,-1.7052 0.2934,-1.689 0.3054,-1.7152Z M0.2751,-1.6644 0.2889,-1.672 0.2489,-1.6468 0.2815,-1.6988 0.2751,-1.6644Z M-0.1562,-1.7792 -0.1393,-1.7942 -0.1562,-1.7792Z M0.4691,-2.3089 0.4609,-2.3205 0.4691,-2.3089Z M0.5678,-2.4484 0.5494,-2.4474 0.587,-2.4586 0.5678,-2.4484Z M0.3772,-2.3045 0.4346,-2.2329 0.3979,-2.1941 0.3915,-2.1973 0.396,-2.2157 0.3674,-2.2068 0.3779,-2.2461 0.3531,-2.2939 0.3772,-2.3045Z M0.3648,-2.4617 0.389,-2.4413 0.4016,-2.4846 0.407,-2.4804 0.4033,-2.4555 0.4259,-2.4731 0.4747,-2.4272 0.418,-2.3579 0.3513,-2.3862 0.3433,-2.3959 0.3627,-2.4114 0.3269,-2.4124 0.3187,-2.4292 0.3292,-2.4403 0.3128,-2.4504 0.3375,-2.4484 0.3348,-2.47 0.3444,-2.4857 0.3648,-2.4617Z M0.293,-2.4272 0.3112,-2.4163 0.3084,-2.3767 0.3211,-2.3978 0.326,-2.3645 0.3733,-2.3169 0.3342,-2.2852 0.2915,-2.14 0.2443,-2.2125 0.2951,-2.2444 0.2388,-2.2553 0.2997,-2.2887 0.2871,-2.2957 0.2929,-2.3098 0.2564,-2.3151 0.2555,-2.2878 0.2295,-2.2732 0.1984,-2.3358 0.2164,-2.3358 0.2091,-2.3673 0.1957,-2.3524 0.1864,-2.4124 0.2389,-2.4223 0.2429,-2.4124 0.2192,-2.3939 0.2449,-2.372 0.2588,-2.4134 0.2852,-2.3386 0.2763,-2.4075 0.293,-2.4272Z M0.1963,-2.3053 0.2115,-2.2723 0.1843,-2.3313 0.1963,-2.3053Z M0.507,-2.3322 0.5184,-2.3313 0.4868,-2.3268 0.507,-2.3322Z" fill="#e8efe2"/><path d="M0.1045,-1.0312 0.0878,-1.0512 0.0602,-1.0532 0.0745,-1.0512 0.0689,-1.0608 0.0833,-1.0931 0.119,-1.1077 0.1257,-1.103 0.1168,-1.0813 0.1225,-1.0738 0.1038,-1.0605 0.1045,-1.0312Z M0.0738,-1.049 0.0585,-1.0487 0.0738,-1.049Z" fill="#e8efe2"/><path d="M0.4121,-1.0526 0.4204,-1.0252 0.3953,-0.9983 0.3981,-0.9843 0.3777,-0.9948 0.3311,-0.9945 0.3089,-1.0191 0.2946,-1.0224 0.2904,-1.0134 0.2841,-1.0287 0.2585,-1.0342 0.2621,-1.0451 0.2552,-1.0813 0.2466,-1.0914 0.2541,-1.1188 0.2478,-1.1218 0.3157,-1.1494 0.3313,-1.1346 0.4011,-1.1352 0.4093,-1.1283 0.417,-1.0957 0.4046,-1.075 0.4128,-1.0673 0.4121,-1.0526Z" fill="#e8efe2"/><path d="M-0.1532,-0.8078 -0.1155,-0.8078 -0.1084,-0.7982 -0.1208,-0.7868 -0.1229,-0.7563 -0.1316,-0.7552 -0.1222,-0.7416 -0.1281,-0.7282 -0.1215,-0.7222 -0.1367,-0.6962 -0.1571,-0.6966 -0.1513,-0.7273 -0.1614,-0.7327 -0.1534,-0.7421 -0.1653,-0.7342 -0.1515,-0.7801 -0.1532,-0.8078Z M-0.4477,-0.7144 -0.4395,-0.7144 -0.4477,-0.7144Z" fill="#e8efe2"/><path d="M0.4924,-0.8925 0.5185,-0.8878 0.5159,-0.8774 0.5042,-0.8794 0.499,-0.8506 0.4728,-0.861 0.4451,-0.8489 0.4,-0.8528 0.3925,-0.8676 0.3965,-0.8718 0.3728,-0.8772 0.3751,-0.8851 0.3533,-0.909 0.3691,-0.9138 0.384,-0.9447 0.4039,-0.9598 0.436,-0.9502 0.4676,-0.9643 0.4899,-0.9311 0.4924,-0.8925Z" fill="#e8efe2"/><path d="M-0.0466,-1.0554 -0.0621,-1.0495 -0.0918,-1.0628 -0.0695,-1.0816 -0.0716,-1.0925 -0.0817,-1.0893 -0.0756,-1.098 -0.048,-1.1039 -0.0534,-1.1097 -0.0501,-1.1295 -0.0627,-1.1409 -0.0531,-1.1527 -0.0897,-1.15 -0.0817,-1.1695 -0.0838,-1.1901 -0.0944,-1.1851 -0.1007,-1.1652 -0.0906,-1.209 -0.107,-1.2077 -0.1,-1.2119 -0.1002,-1.2383 -0.0901,-1.2452 -0.0944,-1.2515 -0.0876,-1.2681 -0.0532,-1.2701 -0.0721,-1.2354 -0.0326,-1.2364 -0.0452,-1.2027 -0.0578,-1.1963 -0.0466,-1.1929 -0.0661,-1.1882 -0.0375,-1.1819 -0.0215,-1.1451 -0.0014,-1.1277 0.0021,-1.1127 -0.0115,-1.1159 0.0047,-1.1047 0.0009,-1.0922 0.03,-1.0856 0.0272,-1.0687 0.0073,-1.0512 0.0246,-1.0481 0.0168,-1.0362 -0.0524,-1.0304 -0.0642,-1.0172 -0.0988,-1.0129 -0.0731,-1.0434 -0.0548,-1.044 -0.0424,-1.0588 -0.0466,-1.0554Z M-0.0229,-1.336 -0.0183,-1.3324 -0.0227,-1.3128 -0.029,-1.3261 -0.0229,-1.336Z M-0.1082,-1.2611 -0.1236,-1.2429 -0.1227,-1.2564 -0.1082,-1.2611Z M-0.1072,-1.2328 -0.099,-1.2241 -0.118,-1.2309 -0.1072,-1.2328Z M-0.1086,-1.1269 -0.1421,-1.1376 -0.1288,-1.1551 -0.107,-1.1609 -0.0955,-1.1391 -0.1086,-1.1269Z" fill="#e8efe2"/><path d="M2.0989,-1.9062 2.0881,-1.908 2.0989,-1.9062Z M1.8548,-2.2706 1.8504,-2.2714 1.8626,-2.2774 1.8548,-2.2706Z M1.3397,-1.928 1.3278,-1.9323 1.3397,-1.928Z M1.5123,-2.0262 1.5205,-2.0236 1.5055,-2.0202 1.5123,-2.0262Z M1.0352,-2.5773 1.0229,-2.5808 1.0352,-2.5773Z M-3.1381,-1.6827 -3.0604,-1.6231 -3.0608,-1.6085 -3.0517,-1.6081 -3.0529,-1.5755 -3.0381,-1.5585 -3.0329,-1.5672 -3.0465,-1.5964 -2.9985,-1.5892 -2.9623,-1.5511 -2.9788,-1.5324 -2.9924,-1.5396 -2.9875,-1.5273 -3.0156,-1.5349 -3.006,-1.5256 -3.0135,-1.5168 -3.0056,-1.5085 -3.0206,-1.5003 -3.0086,-1.4832 -3.0222,-1.4771 -3.0613,-1.4982 -3.0734,-1.526 -3.1138,-1.5273 -3.1231,-1.5498 -3.1159,-1.5658 -3.136,-1.5563 -3.1302,-1.5281 -3.1416,-1.5093 -3.1381,-1.6827Z M2.281,-0.8162 2.2763,-0.8264 2.2876,-0.8305 2.2909,-0.8419 2.286,-0.8774 2.3012,-0.8895 2.3232,-0.8846 2.3417,-0.9393 2.3518,-0.9502 2.3504,-0.964 2.2864,-0.9494 2.2785,-0.9801 2.2262,-1.0053 2.2,-1.0873 2.1574,-1.1109 2.1117,-1.103 2.096,-1.0888 2.1059,-1.0824 2.1063,-1.0653 2.0797,-1.0219 2.0815,-1.0126 2.0572,-0.9974 1.9949,-1.018 1.9689,-0.9977 1.9323,-0.9875 1.8956,-0.9923 1.8624,-1.0191 1.8029,-1.0161 1.7862,-1.0254 1.7822,-1.0479 1.726,-1.0696 1.709,-1.0459 1.7148,-1.0189 1.6993,-1.0036 1.6513,-1.0112 1.645,-1.026 1.6118,-1.0342 1.5258,-0.9859 1.5129,-1.0047 1.4875,-1.0004 1.4587,-1.0365 1.4219,-1.0309 1.4092,-1.0462 1.3961,-1.0318 1.3589,-1.1027 1.3348,-1.1248 1.3411,-1.1373 1.2805,-1.108 1.2865,-1.1254 1.2408,-1.1304 1.2346,-1.1637 1.2039,-1.1662 1.136,-1.1343 1.0687,-1.1248 1.0643,-1.1129 1.0739,-1.1094 1.0681,-1.1033 1.0835,-1.0951 1.0655,-1.094 1.0636,-1.0741 1.0477,-1.0642 1.0743,-1.047 1.0636,-1.0298 1.0482,-1.034 1.0388,-1.0241 1.0186,-1.0398 0.995,-1.0401 0.972,-1.0265 0.9536,-1.0384 0.9516,-1.0254 0.931,-1.0515 0.8865,-1.0585 0.8488,-1.0274 0.851,-1.0088 0.8278,-1.0205 0.8184,-1.0026 0.8144,-0.9682 0.8254,-0.9507 0.8407,-0.9499 0.8545,-0.9258 0.8472,-0.9217 0.8596,-0.9136 0.8283,-0.8983 0.8154,-0.8706 0.8283,-0.8463 0.8316,-0.854 0.8283,-0.8338 0.8477,-0.8054 0.8353,-0.7907 0.8259,-0.7924 0.7966,-0.8141 0.7969,-0.8214 0.6978,-0.8429 0.6397,-0.8846 0.6718,-0.9085 0.6592,-0.9224 0.6854,-0.9327 0.6667,-0.9398 0.6775,-0.9533 0.6936,-0.9533 0.6974,-0.9645 0.6918,-0.9729 0.6981,-0.979 0.6927,-0.9841 0.6995,-0.9993 0.6641,-1.0085 0.6531,-1.0219 0.6212,-1.0208 0.6163,-1.0392 0.5971,-1.0454 0.6004,-1.0599 0.5903,-1.0753 0.5543,-1.069 0.5456,-1.0954 0.5709,-1.1071 0.5376,-1.1476 0.5395,-1.1717 0.4936,-1.1869 0.4824,-1.2119 0.4787,-1.2755 0.4913,-1.2952 0.4889,-1.3072 0.5266,-1.3156 0.4976,-1.3409 0.4852,-1.336 0.5505,-1.4237 0.5234,-1.4556 0.5328,-1.4691 0.5166,-1.5052 0.5252,-1.5396 0.5074,-1.5874 0.5234,-1.6227 0.5007,-1.6468 0.4969,-1.661 0.5021,-1.6778 0.4958,-1.6807 0.5582,-1.7329 0.5761,-1.7212 0.5601,-1.7167 0.5651,-1.7092 0.5838,-1.7067 0.5784,-1.689 0.6259,-1.6949 0.7151,-1.6245 0.7219,-1.6017 0.7189,-1.5848 0.6746,-1.5516 0.5568,-1.5995 0.6055,-1.5464 0.6006,-1.5231 0.6116,-1.4836 0.6535,-1.4584 0.6643,-1.4695 0.6391,-1.4962 0.6437,-1.5135 0.6939,-1.4892 0.7058,-1.4974 0.695,-1.5315 0.7367,-1.5711 0.7697,-1.549 0.7754,-1.5896 0.7641,-1.6035 0.772,-1.645 0.7563,-1.6696 0.8009,-1.6605 0.8149,-1.631 0.7837,-1.6108 0.8114,-1.5834 0.8318,-1.5914 0.8355,-1.6185 0.8508,-1.6333 0.9146,-1.6544 0.9201,-1.6605 0.9135,-1.6667 0.939,-1.6856 0.951,-1.6851 0.939,-1.6812 0.9413,-1.6586 0.9296,-1.6506 0.955,-1.6464 0.9673,-1.6648 1.0308,-1.6861 1.0362,-1.673 1.0315,-1.6586 1.0425,-1.6544 1.0634,-1.6851 1.0502,-1.7147 1.0631,-1.7278 1.1203,-1.7117 1.1933,-1.6525 1.2067,-1.6831 1.1676,-1.7127 1.1743,-1.7739 1.1631,-1.792 1.1915,-1.8248 1.2111,-1.8984 1.2479,-1.8954 1.2708,-1.8824 1.2544,-1.8127 1.2689,-1.7856 1.2668,-1.6841 1.2844,-1.6605 1.2753,-1.6273 1.2456,-1.5905 1.2486,-1.5781 1.2045,-1.583 1.2579,-1.5593 1.3034,-1.6236 1.2999,-1.6691 1.3111,-1.6788 1.3345,-1.6846 1.3481,-1.6601 1.3469,-1.6277 1.3774,-1.619 1.3542,-1.6264 1.3614,-1.6501 1.3552,-1.6807 1.2877,-1.6954 1.2842,-1.7253 1.2975,-1.7654 1.2757,-1.8116 1.3088,-1.8507 1.3066,-1.8913 1.3195,-1.876 1.3139,-1.811 1.3217,-1.8023 1.3792,-1.785 1.327,-1.8377 1.3647,-1.8377 1.3511,-1.849 1.3654,-1.8644 1.4505,-1.827 1.4368,-1.8017 1.434,-1.7665 1.4488,-1.7824 1.443,-1.7467 1.45,-1.74 1.4615,-1.7639 1.4512,-1.7931 1.4579,-1.8248 1.4107,-1.8708 1.4064,-1.9354 1.5165,-1.9553 1.4973,-1.9274 1.5129,-1.9074 1.4994,-1.9243 1.5284,-1.9503 1.501,-1.9827 1.5225,-1.9853 1.4973,-2.0043 1.5266,-2.0283 1.5186,-2.0391 1.6434,-2.0944 1.6207,-2.0959 1.6277,-2.1046 1.6769,-2.1031 1.671,-2.088 1.7219,-2.1148 1.7413,-2.0995 1.7385,-2.0837 1.7424,-2.1075 1.7246,-2.1325 1.7733,-2.1296 1.7616,-2.1385 1.7612,-2.1644 1.8153,-2.2304 1.8511,-2.2028 1.8186,-2.1799 1.875,-2.1667 1.8572,-2.1348 1.9392,-2.1506 1.9872,-2.0916 1.9808,-2.0661 1.9626,-2.0851 1.985,-2.0584 1.9708,-2.0289 1.835,-1.8877 1.935,-1.9453 1.9141,-1.9497 1.9244,-1.9635 1.9727,-1.9566 1.9808,-1.9219 1.9745,-1.8907 1.9837,-1.8789 1.9761,-1.8895 1.9878,-1.9219 1.9811,-1.9311 1.9907,-1.936 2.0673,-1.9366 2.0759,-1.9298 2.067,-1.9158 2.09,-1.8996 2.1387,-1.8936 2.1576,-1.9122 2.1541,-1.9397 2.1736,-1.9465 2.2532,-1.9074 2.2445,-1.8948 2.2558,-1.8836 2.2414,-1.8737 2.2564,-1.8679 2.2564,-1.8478 2.2293,-1.8661 2.2867,-1.7744 2.3152,-1.8388 2.3333,-1.811 2.3752,-1.8215 2.4075,-1.7947 2.4126,-1.8204 2.4431,-1.8143 2.4323,-1.8399 2.4468,-1.8535 2.4285,-1.8615 2.4623,-1.8766 2.4576,-1.8942 2.5525,-1.8679 2.5162,-1.8575 2.5215,-1.8524 2.5627,-1.8598 2.5501,-1.8393 2.544,-1.8558 2.544,-1.8393 2.5318,-1.8388 2.534,-1.8259 2.5702,-1.8615 2.6093,-1.8518 2.6183,-1.8371 2.5991,-1.8265 2.6618,-1.7786 2.7698,-1.7845 2.791,-1.7618 2.7896,-1.7242 2.8084,-1.7157 2.8159,-1.6812 2.8075,-1.6634 2.8266,-1.7127 2.8615,-1.7222 2.9297,-1.7217 2.9603,-1.6754 2.9765,-1.6773 2.9845,-1.6919 2.9699,-1.7167 2.9756,-1.741 3.0704,-1.7303 3.1416,-1.6846 3.1416,-1.5093 3.1158,-1.4901 3.0871,-1.5098 3.0777,-1.5085 3.0931,-1.5007 3.0465,-1.4933 3.0728,-1.5023 3.0742,-1.4897 3.096,-1.497 3.1013,-1.4779 3.1107,-1.4803 3.1187,-1.4596 3.1149,-1.4489 3.1341,-1.418 3.1262,-1.4009 3.0896,-1.4184 3.092,-1.41 3.017,-1.3695 2.9777,-1.3321 2.9732,-1.3159 2.9536,-1.3381 2.9187,-1.3314 2.9006,-1.3117 2.9034,-1.3338 2.8789,-1.3114 2.8578,-1.318 2.8267,-1.2518 2.8342,-1.24 2.8489,-1.2423 2.8407,-1.2244 2.8508,-1.1923 2.8421,-1.1872 2.8384,-1.1923 2.8456,-1.2014 2.8391,-1.2004 2.8288,-1.1879 2.8225,-1.1695 2.8294,-1.1467 2.7937,-1.1298 2.7931,-1.0986 2.7658,-1.0957 2.7594,-1.0608 2.7358,-1.0373 2.715,-1.1603 2.7224,-1.2071 2.7375,-1.226 2.7372,-1.2419 2.7625,-1.2495 2.8287,-1.3335 2.8573,-1.3495 2.866,-1.3998 2.8868,-1.4074 2.8506,-1.4096 2.8465,-1.3731 2.8342,-1.3764 2.7955,-1.3395 2.7992,-1.3535 2.7889,-1.351 2.7979,-1.3849 2.7416,-1.3772 2.6929,-1.311 2.6915,-1.2989 2.7081,-1.289 2.6412,-1.2785 2.6375,-1.2853 2.6574,-1.29 2.6117,-1.309 2.5958,-1.2914 2.511,-1.2965 2.4789,-1.2826 2.3599,-1.1494 2.3876,-1.1427 2.3876,-1.1177 2.4028,-1.1325 2.397,-1.1272 2.4056,-1.1227 2.3955,-1.1109 2.4178,-1.123 2.4164,-1.1106 2.4201,-1.1331 2.4384,-1.1325 2.4674,-1.1033 2.4581,-1.0974 2.4695,-1.0713 2.4525,-1.0326 2.4454,-0.9685 2.3585,-0.8455 2.3241,-0.8257 2.3002,-0.8391 2.2813,-0.8247 2.281,-0.8162Z M0.828,-2.5255 0.8496,-2.5016 0.7837,-2.4995 0.828,-2.5255Z M0.8776,-2.5343 0.9023,-2.5081 0.8446,-2.4463 0.814,-2.4669 0.8776,-2.5343Z M1.1828,-2.1148 1.0709,-2.0487 1.0215,-1.9944 1.0231,-1.9769 0.9884,-1.9189 0.9477,-1.9219 0.9383,-1.9478 0.9798,-1.9944 0.9701,-2.0029 0.9861,-2.0249 0.976,-2.0391 1.0276,-2.0866 1.1786,-2.1729 1.2032,-2.1499 1.1828,-2.1148Z M0.9655,-1.9195 0.9849,-1.9128 0.9669,-1.8743 0.9652,-1.8393 1.0058,-1.7733 0.9376,-1.7776 0.9317,-1.7808 0.9453,-1.7947 0.8978,-1.8304 0.9184,-1.8598 0.9236,-1.8813 0.9172,-1.8871 0.9315,-1.896 0.9294,-1.9116 0.9655,-1.9195Z M1.6848,-2.5511 1.708,-2.5092 1.6949,-2.4995 1.7003,-2.4689 1.6961,-2.4607 1.6383,-2.4373 1.5973,-2.4731 1.6277,-2.5189 1.616,-2.5178 1.6244,-2.541 1.6848,-2.5511Z M1.7047,-2.4525 1.7108,-2.4383 1.7043,-2.4124 1.7209,-2.4413 1.7445,-2.4213 1.7397,-2.3701 1.7286,-2.3673 1.7441,-2.3367 1.7027,-2.325 1.6244,-2.3872 1.6579,-2.4463 1.7047,-2.4525Z M1.7956,-2.3635 1.7874,-2.3259 1.8117,-2.3542 1.8385,-2.3036 1.7329,-2.2562 1.7731,-2.3729 1.7956,-2.3635Z M2.4443,-2.0851 2.4578,-2.071 2.4695,-2.1075 2.537,-2.064 2.5136,-2.0303 2.4927,-2.046 2.4948,-2.0766 2.4799,-2.0731 2.4981,-2.0256 2.4379,-2.0249 2.4298,-2.0049 2.3904,-2.046 2.4122,-2.1053 2.4443,-2.0851Z M2.5621,-2.0528 2.6323,-2.0384 2.6014,-2.0122 2.5508,-2.0412 2.5559,-2.0661 2.5621,-2.0528Z M3.1217,-1.7786 3.1186,-1.7936 3.1416,-1.8171 3.1416,-1.7872 3.1217,-1.7786Z M2.4916,-1.1358 2.5014,-1.0937 2.4991,-1.0645 2.5257,-0.9743 2.5128,-0.9913 2.4976,-0.9891 2.4881,-0.9507 2.5059,-0.9154 2.5033,-0.907 2.5007,-0.9204 2.4895,-0.9245 2.4798,-0.9043 2.4754,-0.9176 2.4815,-0.9577 2.4761,-0.9772 2.482,-1.0442 2.4724,-1.0738 2.4752,-1.1047 2.4876,-1.108 2.4908,-1.1212 2.4841,-1.1325 2.4916,-1.1358Z M-3.122,-1.8193 -3.098,-1.7996 -3.1416,-1.7872 -3.1416,-1.8171 -3.122,-1.8193Z M0.9233,-1.8072 0.9271,-1.7866 0.9118,-1.8056 0.9233,-1.8072Z M2.9329,-1.1409 2.9224,-1.15 2.9329,-1.1409Z M2.8182,-1.6807 2.8114,-1.7057 2.8189,-1.7172 2.8182,-1.6807Z M2.6032,-2.1461 2.5901,-2.1453 2.6077,-2.1552 2.6032,-2.1461Z M2.4079,-1.8154 2.3921,-1.8165 2.4079,-1.8154Z M1.8797,-2.2638 1.8574,-2.2646 1.8797,-2.2638Z M1.9631,-2.1431 1.9542,-2.1438 1.9631,-2.1431Z M1.6848,-2.1177 1.6635,-2.1126 1.6848,-2.1177Z M1.6806,-2.1745 1.6628,-2.1737 1.6848,-2.1885 1.6806,-2.1745Z M1.3031,-1.8931 1.2933,-1.902 1.3083,-1.9044 1.3031,-1.8931Z M1.3177,-1.9286 1.3273,-1.9341 1.3177,-1.9286Z M1.4582,-1.9667 1.4455,-1.968 1.4582,-1.9667Z M1.2221,-1.5702 1.2125,-1.5799 1.2221,-1.5702Z M0.8735,-2.4433 0.865,-2.4525 0.8782,-2.4535 0.8735,-2.4433Z M0.8973,-2.4302 0.8742,-2.4342 0.8973,-2.4302Z M0.9498,-2.4846 0.9392,-2.4857 0.9498,-2.4846Z M1.0418,-2.4322 1.0283,-2.4342 1.0418,-2.4322Z M1.0231,-2.5466 1.0285,-2.5233 0.9985,-2.5443 1.0231,-2.5466Z M0.8774,-1.6949 0.8536,-1.673 0.8426,-1.6875 0.8543,-1.7107 0.8774,-1.6949Z M1.106,-2.5092 1.0912,-2.5222 1.1271,-2.5647 1.1421,-2.5343 1.106,-2.5092Z M1.0116,-2.4484 0.995,-2.4846 1.0343,-2.471 1.0116,-2.4484Z M1.0851,-2.5233 1.0655,-2.4794 1.0348,-2.4952 1.0851,-2.5233Z M1.0671,-2.5365 1.0482,-2.5399 1.0746,-2.5477 1.0671,-2.5365Z M0.9341,-2.4555 0.9112,-2.4627 0.9399,-2.4638 0.9341,-2.4555Z M0.9962,-2.472 0.9947,-2.4433 0.9725,-2.4463 0.9962,-2.472Z M1.009,-2.6054 1.0221,-2.5901 0.9681,-2.5773 1.009,-2.6054Z M0.955,-2.5556 1.0069,-2.5189 0.9437,-2.5211 0.955,-2.5556Z M1.1109,-2.6125 1.084,-2.621 1.1109,-2.6125Z M1.0175,-2.6258 1.0107,-2.6258 1.0369,-2.6392 1.0175,-2.6258Z M1.6176,-2.4056 1.5895,-2.4342 1.6371,-2.4262 1.6176,-2.4056Z M1.5982,-2.5578 1.5691,-2.5612 1.5982,-2.5578Z M2.4611,-1.9623 2.4452,-1.9737 2.4611,-1.9623Z M2.4815,-1.9559 2.5044,-1.9158 2.4381,-1.9268 2.4815,-1.9559Z M2.3728,-2.0556 2.364,-2.0542 2.3684,-2.0866 2.3766,-2.0696 2.3728,-2.0556Z M2.3771,-1.9566 2.363,-1.9782 2.3771,-1.9566Z M2.4075,-1.157 2.4122,-1.1551 2.4037,-1.1439 2.3951,-1.1479 2.4075,-1.157Z M2.9531,-1.7142 2.9285,-1.7273 2.9569,-1.7283 2.9531,-1.7142Z M2.8561,-1.2691 2.8582,-1.2832 2.8723,-1.29 2.8732,-1.2788 2.8561,-1.2691Z M2.9086,-1.1494 2.8929,-1.1631 2.9021,-1.1637 2.9086,-1.1494Z M2.7213,-1.0189 2.7088,-1.0178 2.7245,-1.0318 2.7213,-1.0189Z M2.6126,-0.8973 2.6276,-0.9116 2.6126,-0.8973Z M2.5936,-0.8893 2.5639,-0.8666 2.5817,-0.8908 2.5976,-0.8935 2.5936,-0.8893Z M2.5518,-0.8691 2.5581,-0.8676 2.5384,-0.8506 2.5518,-0.8691Z M1.979,-1.9879 1.9689,-1.9686 1.946,-1.9847 1.979,-1.9879Z M1.3308,-2.4017 1.3542,-2.3872 1.3308,-2.4017Z M1.3968,-2.5255 1.3785,-2.5255 1.4038,-2.5343 1.3968,-2.5255Z M1.2334,-1.9068 1.2203,-1.9056 1.2278,-1.9298 1.2502,-1.914 1.2334,-1.9068Z M1.3549,-1.8592 1.3416,-1.861 1.3678,-1.8702 1.3549,-1.8592Z M1.3875,-1.8842 1.3724,-1.8919 1.3816,-1.9062 1.3875,-1.8842Z M1.4341,-2.0563 1.4224,-2.0528 1.4341,-2.0563Z M1.0551,-1.7318 1.0409,-1.7212 1.0205,-1.7493 1.0299,-1.7597 1.0551,-1.7318Z M0.3658,-1.1628 0.3594,-1.1536 0.3733,-1.1628 0.3939,-1.1561 0.3974,-1.1349 0.3421,-1.1379 0.3658,-1.1628Z M0.5863,-0.9088 0.6055,-0.9058 0.6189,-0.8893 0.6384,-0.891 0.5892,-0.8666 0.5838,-0.8703 0.5857,-0.8838 0.5674,-0.8913 0.5863,-0.9088Z" fill="#e8efe2"/><path d="M0.3728,-0.8772 0.3965,-0.8718 0.3904,-0.8516 0.4011,-0.8374 0.3913,-0.8169 0.3763,-0.8151 0.3796,-0.825 0.363,-0.8391 0.355,-0.8288 0.3355,-0.8436 0.3417,-0.8579 0.3337,-0.8657 0.3377,-0.8784 0.3316,-0.8789 0.3386,-0.8866 0.3288,-0.9023 0.3527,-0.9095 0.3751,-0.8851 0.3728,-0.8772Z" fill="#e8efe2"/><path d="M0.3934,-0.9857 0.3859,-0.9677 0.3576,-0.9714 0.3267,-0.952 0.3079,-0.9525 0.2943,-0.969 0.2991,-0.9796 0.3393,-0.9999 0.3456,-0.9889 0.3726,-0.9953 0.3934,-0.9857Z" fill="#e8efe2"/><path d="M0.2883,-0.9189 0.273,-0.9113 0.266,-0.8923 0.2377,-0.8933 0.2421,-0.8965 0.2335,-0.9128 0.2808,-0.9281 0.2883,-0.9189Z" fill="#e8efe2"/><path d="M0.1662,-0.945 0.1656,-0.9332 0.1824,-0.9291 0.1768,-0.9123 0.1623,-0.9189 0.1562,-0.902 0.147,-0.9176 0.136,-0.9043 0.1232,-0.9038 0.118,-0.9169 0.1042,-0.91 0.123,-0.9442 0.1496,-0.9517 0.1662,-0.945Z" fill="#e8efe2"/><path d="M0.333,-1.2439 0.3168,-1.2141 0.3166,-1.2348 0.333,-1.2439Z M0.2885,-1.1941 0.2988,-1.227 0.2885,-1.1941Z M0.1988,-1.2839 0.2032,-1.2802 0.2039,-1.3027 0.218,-1.3208 0.2145,-1.3524 0.2248,-1.3651 0.2122,-1.3786 0.2094,-1.438 0.2215,-1.4643 0.2468,-1.4727 0.2382,-1.4892 0.2527,-1.5189 0.2538,-1.5541 0.2683,-1.5593 0.2862,-1.5946 0.2826,-1.6153 0.3023,-1.6426 0.3128,-1.6361 0.317,-1.6629 0.3501,-1.6563 0.3512,-1.6865 0.4126,-1.6356 0.4093,-1.6131 0.4187,-1.5839 0.4136,-1.5593 0.4217,-1.5404 0.391,-1.5426 0.3737,-1.5197 0.369,-1.4986 0.3756,-1.4844 0.3623,-1.4607 0.3039,-1.4081 0.3011,-1.3417 0.3314,-1.311 0.3135,-1.2948 0.325,-1.2938 0.3192,-1.2863 0.2829,-1.2704 0.2953,-1.2654 0.2793,-1.1919 0.2567,-1.1891 0.2473,-1.1665 0.225,-1.1668 0.2176,-1.1941 0.2248,-1.2046 0.1963,-1.2614 0.1988,-1.2839Z" fill="#e8efe2"/><path d="M0.3286,-0.9974 0.2958,-0.9732 0.2616,-0.9838 0.2477,-0.9727 0.2213,-0.9948 0.211,-1.0189 0.2616,-1.0384 0.2855,-1.0276 0.2904,-1.0134 0.2946,-1.0224 0.3089,-1.0191 0.3286,-0.9974Z" fill="#e8efe2"/><path d="M0.6669,-0.9339 0.611,-0.909 0.6149,-0.9174 0.6082,-0.9111 0.61,-0.8995 0.5901,-0.9116 0.5555,-0.9133 0.5507,-0.9202 0.5686,-0.9219 0.5592,-0.9224 0.5543,-0.937 0.5562,-0.9227 0.5376,-0.9202 0.5171,-0.8993 0.5185,-0.8878 0.502,-0.8871 0.4924,-0.8925 0.5054,-0.9179 0.5259,-0.9169 0.5084,-0.9442 0.5084,-0.9564 0.4808,-0.97 0.4344,-0.9502 0.3993,-0.9562 0.3864,-0.9724 0.3986,-0.9849 0.3964,-1.0001 0.4204,-1.0252 0.4121,-1.0552 0.4252,-1.0625 0.533,-1.0456 0.5407,-1.0676 0.5889,-1.0758 0.6004,-1.0599 0.5971,-1.0454 0.6163,-1.0392 0.6212,-1.0208 0.6531,-1.0219 0.6641,-1.0085 0.6995,-0.9993 0.6927,-0.9841 0.6981,-0.979 0.6918,-0.9729 0.6974,-0.9645 0.6943,-0.9546 0.6775,-0.9533 0.6669,-0.9339Z M0.5587,-0.9113 0.55,-0.9156 0.5587,-0.9113Z" fill="#e8efe2"/><path d="M0.5709,-0.6565 0.5943,-0.6526 0.5761,-0.6437 0.5641,-0.6518 0.5709,-0.6565Z" fill="#e8453c"/></g></svg>