<svg xmlns="http://www.w3.org/2000/svg" viewBox="0.436 -1.249 2.129 1.442" preserveAspectRatio="xMidYMid meet"><rect x="0.436" y="-1.249" width="2.129" height="1.442" fill="#a9d2ea"/><g stroke="#7e96a9" stroke-width="0.0053" stroke-linejoin="round"><path d="M1.161,-0.7037 1.188,-0.6949 1.2024,-0.7032 1.2095,-0.6986 1.2371,-0.7282 1.2493,-0.716 1.2519,-0.689 1.2807,-0.7061 1.3071,-0.701 1.261,-0.6901 1.2432,-0.6769 1.25,-0.6567 1.2387,-0.6429 1.2401,-0.6327 1.2198,-0.6319 1.2263,-0.6168 1.213,-0.6111 1.2092,-0.5888 1.1664,-0.5749 1.1551,-0.5461 1.1188,-0.5371 1.0619,-0.5465 1.0788,-0.5677 1.0762,-0.5773 1.0615,-0.5798 1.057,-0.612 1.0633,-0.6214 1.0561,-0.6241 1.0557,-0.6336 1.0627,-0.6384 1.0692,-0.6661 1.0928,-0.6577 1.1018,-0.671 1.1259,-0.6816 1.1313,-0.6988 1.1479,-0.7085 1.161,-0.7037Z" fill="#e8efe2"/><path d="M0.9072,-0.3379 0.8559,-0.3301 0.8227,-0.3002 0.8156,-0.3061 0.7578,-0.3107 0.747,-0.2897 0.7114,-0.3519 0.6856,-0.3745 0.6809,-0.4083 0.6713,-0.4262 0.6552,-0.4372 0.614,-0.51 0.6042,-0.5106 0.61,-0.5362 0.6295,-0.5332 0.6543,-0.5495 0.6629,-0.5594 0.6451,-0.5796 0.6833,-0.5925 0.7343,-0.5712 0.78,-0.5332 0.8278,-0.5291 0.832,-0.5199 0.8454,-0.5201 0.8517,-0.5039 0.8753,-0.4831 0.8741,-0.4694 0.8877,-0.4447 0.8973,-0.4426 0.9173,-0.4113 0.9632,-0.407 0.9711,-0.3938 0.9596,-0.3564 0.9072,-0.3379Z" fill="#e8efe2"/><path d="M0.7814,-0.7561 0.7622,-0.7659 0.7582,-0.7884 0.7854,-0.7926 0.7927,-0.7856 0.8023,-0.7668 0.7955,-0.7625 0.8112,-0.7529 0.8114,-0.7383 0.8048,-0.7376 0.799,-0.7527 0.7814,-0.7561Z" fill="#e8efe2"/><path d="M0.7823,-0.755 0.799,-0.7527 0.8048,-0.7376 0.7823,-0.755Z M0.8529,-0.7278 0.8381,-0.7363 0.8433,-0.7493 0.8378,-0.7556 0.8114,-0.7383 0.8112,-0.7529 0.7955,-0.7625 0.8022,-0.7682 0.7854,-0.7926 0.8121,-0.7879 0.806,-0.8012 0.8104,-0.8066 0.8341,-0.7905 0.8493,-0.8042 0.8791,-0.7693 0.8648,-0.7672 0.8529,-0.7278Z" fill="#e8efe2"/><path d="M1.5542,-0.3955 1.5485,-0.4369 1.5362,-0.4438 1.5525,-0.4559 1.5373,-0.4681 1.5432,-0.4813 1.5615,-0.4698 1.565,-0.4743 1.5678,-0.4565 1.6143,-0.449 1.591,-0.4252 1.5991,-0.4123 1.6101,-0.4256 1.6167,-0.3816 1.6094,-0.3818 1.6113,-0.3711 1.6033,-0.4004 1.5966,-0.4104 1.5874,-0.4051 1.5813,-0.4239 1.5755,-0.4214 1.5816,-0.4006 1.5748,-0.3906 1.5706,-0.4026 1.5633,-0.3894 1.5617,-0.399 1.5595,-0.3885 1.5542,-0.3955Z M1.5844,-0.3955 1.5799,-0.3951 1.5795,-0.4096 1.5844,-0.3955Z" fill="#e8efe2"/><path d="M1.5992,-0.5047 1.6066,-0.4872 1.5666,-0.4838 1.5488,-0.4932 1.5704,-0.5155 1.5992,-0.5047Z" fill="#e8efe2"/><path d="M1.7474,-0.3623 1.7113,-0.3521 1.7061,-0.3303 1.6994,-0.329 1.726,-0.2893 1.7139,-0.2645 1.7303,-0.2418 1.7385,-0.2071 1.7202,-0.176 1.7258,-0.206 1.7071,-0.2623 1.7057,-0.2933 1.6996,-0.2924 1.6904,-0.3085 1.689,-0.2959 1.6788,-0.297 1.6811,-0.291 1.6649,-0.2779 1.6642,-0.2848 1.6521,-0.2811 1.6528,-0.2922 1.6444,-0.2833 1.6509,-0.3116 1.6413,-0.3432 1.6394,-0.336 1.6317,-0.3447 1.6406,-0.346 1.6355,-0.3547 1.6254,-0.3538 1.6088,-0.3804 1.6162,-0.3801 1.6157,-0.3934 1.6258,-0.3981 1.6289,-0.4328 1.6429,-0.4294 1.6603,-0.4819 1.6788,-0.4948 1.6947,-0.4921 1.6909,-0.5013 1.7024,-0.5195 1.7218,-0.5009 1.7233,-0.4856 1.7219,-0.4675 1.7031,-0.4465 1.7027,-0.43 1.7251,-0.434 1.7254,-0.4163 1.7368,-0.4119 1.7308,-0.3966 1.7439,-0.3943 1.749,-0.3836 1.7651,-0.3889 1.7474,-0.3623Z" fill="#e8efe2"/><path d="M2.0077,-0.0856 2.0003,-0.0702 1.9907,-0.0802 2.0077,-0.0856Z" fill="#e8efe2"/><path d="M1.8766,-0.2596 1.8769,-0.2187 1.8474,-0.2046 1.8528,-0.1894 1.8335,-0.1916 1.8226,-0.1827 1.808,-0.1852 1.8069,-0.1958 1.8003,-0.1916 1.7858,-0.2385 1.7982,-0.2513 1.8288,-0.2546 1.8513,-0.2454 1.8541,-0.2555 1.8665,-0.2528 1.8766,-0.2596Z" fill="#e8efe2"/><path d="M2.1269,-0.5796 2.1155,-0.5861 2.1269,-0.5796Z M1.8844,-0.3846 1.8616,-0.3934 1.8637,-0.4085 1.8375,-0.4193 1.8141,-0.404 1.7752,-0.403 1.7755,-0.378 1.7666,-0.3791 1.7642,-0.3893 1.7479,-0.384 1.7439,-0.3943 1.7308,-0.3966 1.7368,-0.4119 1.7254,-0.4163 1.7251,-0.434 1.7027,-0.43 1.7073,-0.4557 1.7219,-0.4675 1.7218,-0.5009 1.7157,-0.5005 1.7045,-0.5193 1.6986,-0.5137 1.6804,-0.5175 1.6856,-0.5245 1.6762,-0.5383 1.6649,-0.5301 1.6514,-0.5354 1.6054,-0.5041 1.5691,-0.5151 1.5514,-0.496 1.5467,-0.5112 1.5008,-0.5076 1.4319,-0.556 1.4156,-0.5501 1.3743,-0.5761 1.3682,-0.6012 1.3826,-0.6004 1.3753,-0.6212 1.3778,-0.639 1.3662,-0.6454 1.3621,-0.6631 1.3296,-0.6702 1.3237,-0.6884 1.2982,-0.6991 1.3111,-0.7045 1.3062,-0.7269 1.2881,-0.7316 1.2851,-0.7504 1.3062,-0.7739 1.332,-0.7709 1.3423,-0.7863 1.3635,-0.7877 1.4005,-0.8101 1.3992,-0.825 1.4101,-0.8367 1.4043,-0.8752 1.394,-0.8784 1.4258,-0.89 1.4402,-0.8846 1.4366,-0.8953 1.4491,-0.9365 1.4799,-0.9273 1.4919,-0.9332 1.4956,-0.9656 1.5106,-0.9714 1.5174,-0.9865 1.5326,-0.9881 1.5355,-0.9722 1.5762,-0.9491 1.5881,-0.9252 1.5862,-0.8863 1.6322,-0.8799 1.6642,-0.8637 1.6823,-0.8262 1.7715,-0.8219 1.8322,-0.7998 1.8635,-0.816 1.9268,-0.8274 1.9535,-0.8499 1.9443,-0.8659 1.953,-0.8829 1.9836,-0.8755 1.9994,-0.891 2.019,-0.8928 2.0497,-0.9212 2.0921,-0.9232 2.0682,-0.9569 2.0228,-0.9494 2.0164,-0.9609 2.0365,-1.0058 2.0572,-0.9974 2.0815,-1.0126 2.0797,-1.0219 2.1075,-1.069 2.1059,-1.0824 2.0951,-1.0867 2.1117,-1.103 2.1574,-1.1109 2.193,-1.096 2.222,-1.0301 2.2262,-1.0053 2.2785,-0.9801 2.2864,-0.9494 2.3504,-0.964 2.3518,-0.9502 2.3417,-0.9393 2.3232,-0.8846 2.3012,-0.8895 2.286,-0.8774 2.2909,-0.8419 2.2782,-0.8219 2.2672,-0.8328 2.2637,-0.8198 2.2349,-0.8089 2.2366,-0.7949 2.2117,-0.8026 2.1689,-0.7611 2.1155,-0.7345 2.1262,-0.7491 2.1166,-0.7525 2.1342,-0.7753 2.1263,-0.7852 2.1148,-0.7836 2.0766,-0.7443 2.0556,-0.7432 2.0536,-0.7273 2.0759,-0.7189 2.0789,-0.7004 2.0902,-0.6995 2.1075,-0.7142 2.141,-0.7048 2.1352,-0.6923 2.0975,-0.6786 2.0799,-0.6496 2.0991,-0.6374 2.1092,-0.6037 2.1269,-0.5863 2.0951,-0.5888 2.107,-0.5896 2.1256,-0.5728 2.1272,-0.5679 2.0977,-0.5541 2.1164,-0.5554 2.1307,-0.5467 2.1207,-0.5389 2.1288,-0.5391 2.1279,-0.532 2.1197,-0.5318 2.1225,-0.5151 2.1075,-0.5096 2.0951,-0.4825 2.0872,-0.4854 2.0923,-0.4766 2.0794,-0.4725 2.0878,-0.4702 2.0878,-0.4584 2.0801,-0.4596 2.071,-0.4436 2.0567,-0.4407 2.0605,-0.4365 2.0485,-0.4239 2.0405,-0.425 2.0328,-0.4117 1.99,-0.4034 1.9813,-0.4146 1.9818,-0.3979 1.927,-0.3814 1.9258,-0.3618 1.9178,-0.3631 1.9186,-0.384 1.9124,-0.3879 1.9038,-0.3833 1.8933,-0.3919 1.8844,-0.3846Z M1.9354,-0.3562 1.9375,-0.3501 1.9211,-0.3277 1.9115,-0.3235 1.8972,-0.3294 1.8963,-0.3429 1.9069,-0.3542 1.9354,-0.3562Z" fill="#e8efe2"/><path d="M2.2405,-0.7318 2.2181,-0.7242 2.2101,-0.7131 2.1951,-0.7178 2.1879,-0.7118 2.1763,-0.7209 2.1913,-0.7333 2.1846,-0.736 2.1879,-0.7522 2.1754,-0.7543 2.171,-0.7652 2.1989,-0.7836 2.2117,-0.8026 2.2366,-0.7949 2.2349,-0.8089 2.2501,-0.8101 2.271,-0.8319 2.281,-0.8162 2.2647,-0.8024 2.2639,-0.7826 2.2258,-0.7561 2.2234,-0.745 2.2405,-0.7318Z" fill="#e8efe2"/><path d="M2.2101,-0.7131 2.2181,-0.7242 2.2405,-0.7318 2.2588,-0.6973 2.2612,-0.6732 2.2551,-0.6567 2.2084,-0.6382 2.2042,-0.656 2.2122,-0.6715 2.2019,-0.691 2.2162,-0.6947 2.2101,-0.7131Z M2.2049,-0.6153 2.2148,-0.6216 2.2049,-0.6153Z" fill="#e8efe2"/><path d="M0.7582,-0.7884 0.7461,-0.7993 0.7245,-0.7979 0.7288,-0.8085 0.7241,-0.8247 0.6985,-0.8443 0.7463,-0.8369 0.765,-0.8226 0.7969,-0.8214 0.8145,-0.7926 0.7582,-0.7884Z" fill="#e8efe2"/><path d="M1.7013,-0.0257 1.7073,-0.0098 1.6944,-0.025 1.7013,-0.0257Z M1.7307,0.0311 1.7223,0.0169 1.7307,0.0311Z M2.0358,0.1508 2.0349,0.1558 2.0223,0.1547 2.0316,0.1436 2.0358,0.1508Z M2.015,0.1429 2.0193,0.1473 2.0096,0.1551 1.9979,0.1431 2.015,0.1429Z M1.8509,0.0292 1.8565,0.0429 1.8644,0.0449 1.8617,0.0536 1.85,0.0492 1.8464,0.0381 1.8349,0.0356 1.8406,0.0274 1.8509,0.0292Z M2.1499,0.0795 2.1501,0.0932 2.1406,0.0989 2.1441,0.0807 2.1499,0.0795Z M2.1406,0.0921 2.1342,0.093 2.1415,0.0807 2.1406,0.0921Z M1.8886,0.0524 1.8781,0.0561 1.8792,0.0449 1.8886,0.0524Z M2.3628,0.0113 2.3803,0.019 2.3723,0.0206 2.3628,0.0113Z M2.3644,0.0278 2.3892,0.0314 2.3644,0.0278Z M2.2831,0.0 2.2923,0.0051 2.2731,0.0037 2.2831,0.0Z M2.2366,0.029 2.2234,0.0286 2.2279,0.0232 2.2366,0.029Z M2.1995,0.0312 2.2049,0.0318 2.1885,0.0321 2.1995,0.0312Z M2.1811,0.0298 2.1871,0.0328 2.17,0.0325 2.1811,0.0298Z M2.2921,0.1401 2.2888,0.1344 2.2976,0.1244 2.2921,0.1401Z M2.2131,0.1343 2.1956,0.1397 2.1988,0.1341 2.2131,0.1343Z M2.1743,0.1426 2.1839,0.1459 2.1708,0.1475 2.1743,0.1426Z M1.6841,-0.0914 1.7026,-0.0911 1.7544,-0.0382 1.7609,-0.034 1.7637,-0.0395 1.7982,-0.0101 1.7898,-0.0038 1.8094,-0.0051 1.8054,0.0101 1.8218,0.0187 1.83,0.0365 1.8265,0.0454 1.8396,0.0416 1.8511,0.0552 1.8457,0.1018 1.8263,0.0965 1.8256,0.1032 1.7729,0.0554 1.7504,0.014 1.7307,-0.0061 1.7209,-0.0325 1.7052,-0.0412 1.6924,-0.0625 1.6666,-0.0832 1.6619,-0.0965 1.6841,-0.0914Z M2.1429,0.1508 2.1125,0.1567 2.0911,0.1524 2.105,0.1443 2.1349,0.1512 2.1441,0.1417 2.1429,0.1508Z M2.0946,0.1643 2.1066,0.1791 2.0762,0.1669 2.0946,0.1643Z M2.0637,0.1457 2.0757,0.1454 2.0792,0.1519 2.0384,0.1579 2.0448,0.1466 2.059,0.153 2.0635,0.1505 2.0553,0.1427 2.0637,0.1457Z M2.1797,-0.0175 2.168,-0.0066 2.0977,-0.0047 2.0954,0.0098 2.1061,0.0239 2.122,0.0145 2.1543,0.0136 2.1181,0.0328 2.1344,0.0508 2.1337,0.0632 2.1445,0.0767 2.1221,0.0832 2.1227,0.0714 2.1099,0.0615 2.1127,0.048 2.1057,0.0466 2.0988,0.0533 2.1019,0.0977 2.0867,0.0981 2.0878,0.0704 2.0851,0.0613 2.0755,0.0608 2.0731,0.0475 2.0858,0.0159 2.0916,0.015 2.0895,0.0016 2.0991,-0.0169 2.1132,-0.0232 2.163,-0.0148 2.1836,-0.0295 2.1797,-0.0175Z M1.874,0.1051 1.8986,0.1191 1.9274,0.1216 1.9343,0.1123 1.9642,0.1212 1.9724,0.1341 1.9968,0.1364 2.0001,0.153 1.8836,0.1351 1.8371,0.1197 1.8514,0.1033 1.874,0.1051Z M1.9134,-0.0354 1.9288,-0.015 1.9515,-0.0176 1.9631,-0.0272 1.983,-0.0216 1.9986,-0.0253 2.019,-0.0732 2.0438,-0.0758 2.0556,-0.0644 2.0431,-0.0632 2.0607,-0.0405 2.0558,-0.0354 2.0766,-0.0171 2.0579,-0.0192 2.0518,0.0134 2.0375,0.0182 2.0295,0.0311 2.0345,0.0402 2.0291,0.0547 2.0017,0.0728 1.9956,0.0566 1.9846,0.0604 1.9727,0.0512 1.9523,0.062 1.9494,0.0505 1.9244,0.0519 1.9195,0.0222 1.9069,0.0141 1.9014,-0.0063 1.9038,-0.0262 1.9134,-0.0354Z M2.2293,-0.0148 2.2461,-0.0274 2.2386,-0.0127 2.2497,-0.0038 2.2321,-0.0052 2.2415,0.0155 2.2286,0.0042 2.2241,-0.0199 2.2347,-0.0384 2.2293,-0.0148Z M2.2646,0.0501 2.2789,0.0547 2.2831,0.0674 2.2661,0.0582 2.2363,0.0552 2.2323,0.0611 2.2375,0.0501 2.2646,0.0501Z M2.2141,0.054 2.2208,0.0606 2.2155,0.0657 2.1996,0.0587 2.2141,0.054Z M2.1803,0.1567 2.181,0.1696 2.1579,0.1809 2.1591,0.1685 2.1803,0.1567Z M2.3518,0.0998 2.3499,0.1114 2.3414,0.106 2.3476,0.0951 2.3518,0.0998Z M2.3482,0.1126 2.3403,0.1195 2.3407,0.1082 2.3482,0.1126Z M2.418,0.1448 2.4024,0.147 2.41,0.1325 2.422,0.1293 2.4258,0.1348 2.418,0.1448Z M2.4604,0.0456 2.4606,0.1599 2.4435,0.1436 2.4456,0.1387 2.4241,0.1443 2.4276,0.1329 2.4216,0.1269 2.4291,0.1258 2.419,0.1214 2.4236,0.12 2.4145,0.0993 2.396,0.0865 2.3382,0.0667 2.3359,0.0533 2.3283,0.0681 2.3197,0.0709 2.3169,0.0575 2.3033,0.0487 2.3335,0.0457 2.3373,0.0367 2.3092,0.0391 2.3026,0.0272 2.2864,0.0241 2.2916,0.0145 2.3106,0.0063 2.3382,0.0129 2.3421,0.0403 2.3606,0.0589 2.4052,0.0258 2.4604,0.0456Z M1.9869,0.1244 1.9675,0.1237 1.9909,0.1218 1.9869,0.1244Z M2.3201,0.1032 2.3232,0.0928 2.3201,0.1032Z M2.275,0.0295 2.2733,0.0358 2.2644,0.0326 2.275,0.0295Z M1.6835,-0.0412 1.6706,-0.0494 1.6835,-0.0412Z M2.1504,0.0204 2.1557,0.0253 2.1448,0.0278 2.1504,0.0204Z M2.1036,0.1102 2.1028,0.1011 2.1036,0.1102Z M2.0298,0.0676 2.0256,0.07 2.0293,0.0568 2.0298,0.0676Z M2.1459,0.1916 2.1532,0.1838 2.1459,0.1916Z M2.1628,0.1448 2.1508,0.1494 2.1628,0.1448Z" fill="#e8efe2"/><path d="M0.7393,-0.6984 0.7807,-0.6997 0.7917,-0.6747 0.8076,-0.6693 0.7924,-0.631 0.8048,-0.6099 0.8268,-0.5987 0.8348,-0.5857 0.8322,-0.5696 0.8474,-0.5485 0.8241,-0.5501 0.8091,-0.5305 0.7805,-0.533 0.7343,-0.5712 0.6833,-0.5925 0.6767,-0.6184 0.7154,-0.6407 0.7208,-0.6825 0.7393,-0.6984Z" fill="#e8efe2"/><path d="M0.9807,-0.4881 0.9653,-0.4817 0.9807,-0.4881Z M0.9409,-0.7034 0.9666,-0.7191 0.9982,-0.7229 1.035,-0.7072 1.0531,-0.6881 1.0676,-0.6866 1.0695,-0.6637 1.0557,-0.6336 1.0561,-0.6241 1.0633,-0.6214 1.057,-0.612 1.0615,-0.5798 1.0762,-0.5773 1.0788,-0.5677 1.0619,-0.5465 1.0802,-0.5203 1.0954,-0.5141 1.0952,-0.495 1.105,-0.4921 1.1023,-0.4829 1.0793,-0.4747 1.0749,-0.4547 1.0006,-0.4661 0.9901,-0.4923 0.9557,-0.4801 0.9374,-0.4844 0.895,-0.512 0.8739,-0.5533 0.8648,-0.5499 0.8552,-0.5596 0.8529,-0.5505 0.8453,-0.5501 0.8379,-0.5694 0.8322,-0.5696 0.8348,-0.5857 0.8268,-0.5987 0.8048,-0.6099 0.7924,-0.631 0.8076,-0.6693 0.7863,-0.6844 0.7718,-0.7153 0.7758,-0.7253 0.7683,-0.7488 0.7782,-0.7577 0.8058,-0.7374 0.8378,-0.7556 0.8433,-0.7493 0.8378,-0.7369 0.8529,-0.7278 0.8566,-0.7107 0.8922,-0.6903 0.942,-0.6921 0.9409,-0.7034Z" fill="#e8efe2"/><path d="M0.6255,-0.6195 0.6247,-0.6051 0.6102,-0.5933 0.6144,-0.5849 0.6088,-0.5771 0.6187,-0.5794 0.6091,-0.5389 0.5978,-0.5738 0.6128,-0.6124 0.6255,-0.6195Z" fill="#e8efe2"/><path d="M2.5101,-0.8598 2.5272,-0.8554 2.5372,-0.8649 2.5332,-0.8487 2.5367,-0.84 2.5452,-0.8422 2.5128,-0.83 2.5,-0.8092 2.4757,-0.8229 2.4518,-0.8224 2.4492,-0.816 2.4635,-0.8047 2.4442,-0.7968 2.441,-0.8229 2.4503,-0.84 2.4674,-0.8395 2.4726,-0.8913 2.5101,-0.8598Z M2.2893,-0.6233 2.2986,-0.6233 2.2958,-0.6164 2.304,-0.6091 2.2923,-0.5777 2.281,-0.57 2.2825,-0.5841 2.2792,-0.5732 2.2715,-0.5779 2.2785,-0.6072 2.2731,-0.6145 2.2749,-0.6045 2.2649,-0.6018 2.2633,-0.612 2.2688,-0.6076 2.2616,-0.6157 2.2806,-0.63 2.2893,-0.6233Z M2.345,-0.6371 2.3517,-0.6279 2.3419,-0.6159 2.3323,-0.6214 2.3178,-0.6055 2.311,-0.6197 2.3044,-0.6178 2.3202,-0.6338 2.345,-0.6371Z M2.4649,-0.7944 2.478,-0.75 2.4602,-0.7213 2.4534,-0.6792 2.4586,-0.6682 2.4496,-0.6567 2.4407,-0.6509 2.4419,-0.6672 2.4243,-0.645 2.4229,-0.655 2.4119,-0.6443 2.3921,-0.6439 2.396,-0.6479 2.3876,-0.6539 2.3829,-0.646 2.3885,-0.6384 2.3684,-0.621 2.3585,-0.6319 2.3635,-0.6448 2.3517,-0.6479 2.3092,-0.6384 2.3065,-0.6283 2.285,-0.6312 2.2864,-0.6399 2.3199,-0.6637 2.3702,-0.6646 2.3883,-0.7043 2.397,-0.7067 2.3894,-0.6986 2.3955,-0.6905 2.4141,-0.7008 2.44,-0.7376 2.4445,-0.7543 2.4389,-0.7611 2.4494,-0.7905 2.463,-0.7831 2.4651,-0.7907 2.4574,-0.7917 2.4649,-0.7944Z M2.2386,-0.4829 2.2279,-0.472 2.2325,-0.4837 2.2386,-0.4829Z" fill="#e8efe2"/><path d="M0.6247,-0.6051 0.6426,-0.5966 0.6767,-0.6184 0.6857,-0.595 0.6451,-0.5796 0.6629,-0.5594 0.6287,-0.533 0.61,-0.5362 0.6247,-0.6051Z" fill="#e8efe2"/><path d="M1.2383,-0.8151 1.2069,-0.7958 1.1942,-0.7771 1.1858,-0.7905 1.1643,-0.79 1.1606,-0.8089 1.1521,-0.8092 1.1537,-0.8326 1.1329,-0.8499 1.0819,-0.8446 1.0648,-0.8664 1.0221,-0.8953 0.977,-0.8811 0.977,-0.7933 0.9674,-0.7928 0.9446,-0.8172 0.9161,-0.804 0.918,-0.8271 0.8954,-0.8369 0.8872,-0.8615 0.877,-0.8681 0.8995,-0.8698 0.8905,-0.8777 0.8974,-0.8903 0.9285,-0.8895 0.921,-0.8955 0.9262,-0.9281 0.8933,-0.9344 0.8592,-0.9148 0.8484,-0.9207 0.8545,-0.9258 0.8407,-0.9499 0.8254,-0.9507 0.8144,-0.9682 0.8208,-0.9878 0.8172,-0.9972 0.829,-1.0216 0.851,-1.0088 0.8488,-1.0274 0.8865,-1.0585 0.931,-1.0515 0.9516,-1.0254 0.9536,-1.0384 0.972,-1.0265 0.995,-1.0401 1.0186,-1.0398 1.0388,-1.0241 1.0482,-1.034 1.0687,-1.0318 1.0743,-1.047 1.0477,-1.0642 1.0636,-1.0741 1.0655,-1.094 1.0835,-1.0951 1.0681,-1.1033 1.0739,-1.1094 1.0643,-1.1129 1.0687,-1.1248 1.136,-1.1343 1.2039,-1.1662 1.2346,-1.1637 1.2408,-1.1304 1.2865,-1.1254 1.2805,-1.108 1.3411,-1.1373 1.3348,-1.1248 1.3589,-1.1027 1.3961,-1.0318 1.4092,-1.0462 1.4219,-1.0309 1.4549,-1.0378 1.4875,-1.0004 1.5129,-1.0047 1.5237,-0.9878 1.4966,-0.9677 1.4919,-0.9332 1.4799,-0.9273 1.4491,-0.9365 1.4366,-0.8953 1.4402,-0.8846 1.4258,-0.89 1.394,-0.8784 1.4043,-0.8752 1.4101,-0.8367 1.4027,-0.8333 1.3999,-0.8136 1.3811,-0.8276 1.3202,-0.8283 1.2952,-0.8386 1.2839,-0.8328 1.2826,-0.8188 1.2519,-0.8286 1.2383,-0.8151Z" fill="#e8efe2"/><path d="M1.2385,-0.7684 1.2512,-0.7663 1.2765,-0.7815 1.2507,-0.7984 1.246,-0.7886 1.2252,-0.7977 1.2432,-0.8129 1.2373,-0.8172 1.2465,-0.8276 1.2826,-0.8188 1.2839,-0.8328 1.2952,-0.8386 1.3202,-0.8283 1.3811,-0.8276 1.4006,-0.8106 1.3635,-0.7877 1.3423,-0.7863 1.332,-0.7709 1.3062,-0.7739 1.2867,-0.7507 1.2607,-0.745 1.2474,-0.7538 1.2095,-0.752 1.2135,-0.7652 1.2385,-0.7684Z" fill="#e8efe2"/><path d="M0.8454,-0.5201 0.8121,-0.5312 0.8229,-0.5493 0.8334,-0.5509 0.8402,-0.5407 0.8329,-0.5371 0.8454,-0.5201Z" fill="#e8efe2"/><path d="M1.7825,-0.4009 1.7968,-0.3878 1.7994,-0.373 1.8253,-0.3685 1.8216,-0.3646 1.8314,-0.3567 1.8132,-0.3434 1.8347,-0.332 1.8616,-0.2919 1.8745,-0.2837 1.8747,-0.2569 1.8541,-0.2555 1.8513,-0.2454 1.8375,-0.2497 1.8438,-0.2768 1.8295,-0.2915 1.8295,-0.3066 1.8143,-0.3253 1.8028,-0.327 1.7921,-0.3162 1.782,-0.3233 1.7612,-0.3118 1.7664,-0.348 1.7527,-0.3497 1.7485,-0.3674 1.7652,-0.3857 1.7677,-0.3784 1.7767,-0.3789 1.7719,-0.3985 1.7825,-0.4009Z" fill="#e8efe2"/><path d="M0.628,-0.645 0.635,-0.6456 0.6377,-0.6344 0.6128,-0.6124 0.628,-0.645Z" fill="#e8efe2"/><path d="M1.7474,-0.1126 1.7492,-0.117 1.7637,-0.1091 1.7647,-0.0986 1.7849,-0.1084 1.7994,-0.0946 1.8054,-0.0512 1.8195,-0.0243 1.8148,-0.0283 1.8061,-0.0232 1.768,-0.0505 1.7474,-0.1126Z M2.052,-0.0728 2.0221,-0.076 1.9986,-0.0253 1.983,-0.0216 1.9631,-0.0272 1.9515,-0.0176 1.9288,-0.015 1.912,-0.0323 1.9412,-0.0244 1.9415,-0.0426 1.972,-0.0552 1.9898,-0.08 2.0003,-0.0702 2.0077,-0.0856 2.0129,-0.0765 2.0145,-0.0946 2.0382,-0.1223 2.0384,-0.1156 2.0443,-0.122 2.0534,-0.1132 2.0508,-0.1028 2.0595,-0.1058 2.059,-0.0998 2.0815,-0.0939 2.064,-0.0872 2.0691,-0.0765 2.052,-0.0728Z" fill="#e8efe2"/><path d="M1.5326,-0.9881 1.6118,-1.0342 1.645,-1.026 1.6513,-1.0112 1.6993,-1.0036 1.7148,-1.0189 1.709,-1.0459 1.726,-1.0696 1.7822,-1.0479 1.7862,-1.0254 1.8029,-1.0161 1.8624,-1.0191 1.8956,-0.9923 1.9323,-0.9875 1.9689,-0.9977 1.9949,-1.018 2.0307,-1.0101 2.0365,-1.0058 2.0179,-0.9541 2.0481,-0.9484 2.0682,-0.9569 2.0926,-0.9247 2.0497,-0.9212 2.019,-0.8928 1.9994,-0.891 1.9836,-0.8755 1.953,-0.8829 1.9443,-0.8659 1.9535,-0.8499 1.9268,-0.8274 1.8635,-0.816 1.8322,-0.7998 1.7715,-0.8219 1.6823,-0.8262 1.6642,-0.8637 1.6322,-0.8799 1.5862,-0.8863 1.5881,-0.9252 1.5766,-0.9486 1.5355,-0.9722 1.5326,-0.9881Z" fill="#e8efe2"/><path d="M1.5378,-0.5068 1.5368,-0.4786 1.5235,-0.4772 1.4877,-0.4848 1.4676,-0.4993 1.4439,-0.4999 1.3971,-0.5267 1.4069,-0.5485 1.4249,-0.5572 1.5008,-0.5076 1.5378,-0.5068Z" fill="#e8efe2"/><path d="M0.9266,-0.2948 0.9072,-0.3379 0.9596,-0.3564 0.9711,-0.3938 0.9634,-0.4132 0.9681,-0.4305 0.9772,-0.4328 0.9742,-0.4491 0.9842,-0.4505 0.9969,-0.4313 1.0257,-0.4225 1.0437,-0.3979 1.0205,-0.364 1.0153,-0.3674 1.0098,-0.3608 1.009,-0.3382 0.9919,-0.3333 0.984,-0.3193 0.9683,-0.3165 0.961,-0.3019 0.9266,-0.2948Z M0.9826,-0.4634 0.9788,-0.4714 0.984,-0.4772 0.9826,-0.4634Z" fill="#e8efe2"/><path d="M1.2383,-0.8151 1.2432,-0.8129 1.2252,-0.7977 1.246,-0.7886 1.2507,-0.7984 1.2765,-0.7815 1.2512,-0.7663 1.2322,-0.7677 1.2284,-0.7732 1.2348,-0.7799 1.2287,-0.7868 1.2114,-0.7812 1.209,-0.7675 1.1978,-0.7668 1.2038,-0.765 1.1957,-0.7529 1.1769,-0.7509 1.1929,-0.7226 1.1826,-0.6997 1.161,-0.7037 1.1626,-0.7178 1.1128,-0.7439 1.0905,-0.7625 1.0804,-0.7879 1.0488,-0.7951 1.047,-0.8141 1.0226,-0.8276 1.0149,-0.824 1.0203,-0.816 1.0128,-0.8207 0.9941,-0.8059 0.9952,-0.7919 0.977,-0.7933 0.977,-0.8811 1.0221,-0.8953 1.0648,-0.8664 1.0819,-0.8446 1.1329,-0.8499 1.1537,-0.8326 1.1521,-0.8092 1.1606,-0.8089 1.1643,-0.79 1.1858,-0.7905 1.1942,-0.7771 1.2069,-0.7958 1.2383,-0.8151Z" fill="#e8efe2"/><path d="M1.3399,-0.667 1.3448,-0.6552 1.3367,-0.6473 1.2908,-0.6454 1.2898,-0.6333 1.2959,-0.6314 1.2915,-0.6147 1.3148,-0.5958 1.3008,-0.5853 1.3025,-0.5702 1.2544,-0.5086 1.2357,-0.5037 1.2287,-0.51 1.2137,-0.4921 1.2127,-0.4852 1.2243,-0.4801 1.2235,-0.4685 1.2331,-0.4638 1.2399,-0.4393 1.2001,-0.4376 1.1889,-0.4269 1.1781,-0.4305 1.1594,-0.4621 1.1285,-0.4543 1.0746,-0.4545 1.0793,-0.4747 1.1023,-0.4829 1.105,-0.4921 1.0952,-0.495 1.0954,-0.5141 1.0802,-0.5203 1.0619,-0.5465 1.1188,-0.5371 1.1559,-0.5467 1.158,-0.5655 1.1664,-0.5749 1.2092,-0.5888 1.213,-0.6111 1.2263,-0.6168 1.2198,-0.6319 1.2401,-0.6327 1.2387,-0.6429 1.25,-0.6567 1.2425,-0.6751 1.2594,-0.6894 1.3116,-0.6953 1.3237,-0.6884 1.3291,-0.6706 1.3399,-0.667Z" fill="#e8efe2"/><path d="M2.1136,-0.3309 2.134,-0.3279 2.1319,-0.3132 2.1384,-0.3033 2.1187,-0.2706 2.1253,-0.2499 2.133,-0.2456 2.1403,-0.2526 2.1485,-0.2423 2.1523,-0.2479 2.1611,-0.2439 2.1564,-0.2405 2.1667,-0.2296 2.1653,-0.2212 2.1398,-0.2452 2.1398,-0.2323 2.1255,-0.2457 2.1056,-0.2432 2.1108,-0.2585 2.1045,-0.2627 2.1021,-0.2549 2.0958,-0.2621 2.0904,-0.2877 2.1009,-0.285 2.1049,-0.3288 2.1136,-0.3309Z M2.0474,-0.1478 2.082,-0.1855 2.0857,-0.1994 2.089,-0.1843 2.0474,-0.1478Z M2.138,-0.2042 2.1495,-0.2028 2.1482,-0.1967 2.1284,-0.1832 2.1274,-0.2072 2.138,-0.2042Z M2.149,-0.1588 2.1363,-0.1722 2.1513,-0.193 2.1567,-0.1893 2.149,-0.1588Z M2.1742,-0.1992 2.1822,-0.1969 2.1822,-0.176 2.17,-0.2028 2.1742,-0.1992Z M2.1859,-0.2205 2.1946,-0.1941 2.1822,-0.1992 2.1693,-0.2212 2.1859,-0.2205Z M2.1066,-0.2375 2.1213,-0.2305 2.116,-0.2149 2.1003,-0.2362 2.1066,-0.2375Z M2.1993,-0.1634 2.2092,-0.1269 2.2024,-0.1104 2.1937,-0.1271 2.1897,-0.0989 2.1857,-0.1061 2.1679,-0.1089 2.1679,-0.1295 2.1584,-0.1369 2.1536,-0.1297 2.1401,-0.1359 2.1286,-0.122 2.1335,-0.1392 2.1543,-0.1524 2.1607,-0.141 2.1794,-0.1572 2.1904,-0.1579 2.1899,-0.1712 2.1993,-0.1634Z M2.1532,-0.1657 2.1649,-0.198 2.1642,-0.1825 2.1532,-0.1657Z M2.1745,-0.1717 2.1611,-0.1722 2.1701,-0.1783 2.1745,-0.1717Z M2.1593,-0.2162 2.1651,-0.2065 2.155,-0.2149 2.1495,-0.2097 2.1509,-0.2213 2.1593,-0.2162Z" fill="#e8efe2"/><path d="M0.8948,-0.4434 0.8877,-0.4447 0.8858,-0.4586 0.8947,-0.4731 0.9008,-0.4518 0.8948,-0.4434Z" fill="#e8efe2"/><path d="M1.3959,-0.1721 1.4087,-0.1643 1.4289,-0.1276 1.4249,-0.1125 1.4088,-0.1046 1.398,-0.1075 1.3938,-0.1195 1.3912,-0.1433 1.3978,-0.168 1.4038,-0.1662 1.3959,-0.1721Z" fill="#e8efe2"/><path d="M0.6264,-0.6726 0.6395,-0.6792 0.6398,-0.6916 0.687,-0.689 0.7393,-0.6984 0.7208,-0.6825 0.7154,-0.6407 0.6426,-0.5966 0.6247,-0.6051 0.6278,-0.626 0.6384,-0.6363 0.635,-0.6456 0.628,-0.645 0.6264,-0.6726Z" fill="#e8efe2"/><path d="M1.1826,-0.6997 1.1929,-0.7226 1.1769,-0.7509 1.1957,-0.7529 1.2038,-0.765 1.1978,-0.7668 1.209,-0.7675 1.2106,-0.7806 1.2287,-0.7868 1.2348,-0.7794 1.2282,-0.7716 1.2383,-0.7672 1.2135,-0.7652 1.2095,-0.752 1.2474,-0.7538 1.2607,-0.745 1.2851,-0.7504 1.2881,-0.7316 1.3057,-0.7282 1.3111,-0.7045 1.2807,-0.7061 1.2519,-0.689 1.2493,-0.716 1.2371,-0.7282 1.2095,-0.6986 1.1826,-0.6997Z" fill="#e8efe2"/><path d="M1.7474,-0.3623 1.7544,-0.3597 1.7542,-0.348 1.7664,-0.348 1.7612,-0.3118 1.782,-0.3233 1.7921,-0.3162 1.8028,-0.327 1.8143,-0.3253 1.8295,-0.3066 1.8295,-0.2915 1.8438,-0.2768 1.841,-0.2564 1.8338,-0.251 1.8073,-0.2544 1.7858,-0.2385 1.7961,-0.2056 1.7774,-0.2224 1.761,-0.2226 1.7612,-0.2371 1.7457,-0.2351 1.7307,-0.1706 1.7322,-0.1625 1.7425,-0.1629 1.7527,-0.1258 1.7715,-0.1202 1.782,-0.1091 1.7654,-0.0986 1.7637,-0.1091 1.7492,-0.117 1.7474,-0.1126 1.7383,-0.1288 1.7146,-0.1475 1.7237,-0.1871 1.7385,-0.2071 1.7303,-0.2418 1.7139,-0.2645 1.726,-0.2893 1.6994,-0.329 1.7061,-0.3303 1.7113,-0.3521 1.7474,-0.3623Z" fill="#e8efe2"/><path d="M2.1829,0.1667 2.1848,0.1515 2.2218,0.1475 2.1829,0.1667Z" fill="#e8efe2"/><path d="M0.977,-0.7933 0.9952,-0.7919 0.9941,-0.8059 1.0128,-0.8207 1.0203,-0.816 1.0149,-0.824 1.0226,-0.8276 1.047,-0.8141 1.0488,-0.7951 1.0804,-0.7879 1.0905,-0.7625 1.1128,-0.7439 1.1626,-0.7178 1.161,-0.7037 1.1479,-0.7085 1.1313,-0.6988 1.1259,-0.6816 1.0875,-0.6565 1.0692,-0.6661 1.0667,-0.6881 1.0531,-0.6881 1.035,-0.7072 0.9982,-0.7229 0.9666,-0.7191 0.9409,-0.7034 0.9402,-0.7392 0.9278,-0.7461 0.9355,-0.7527 0.9336,-0.7609 0.9257,-0.7577 0.9203,-0.772 0.924,-0.7868 0.9402,-0.7778 0.955,-0.7861 0.939,-0.812 0.9245,-0.8087 0.9224,-0.7905 0.9161,-0.804 0.9446,-0.8172 0.9674,-0.7928 0.977,-0.7933Z" fill="#e8efe2"/><path d="M0.7245,-0.7979 0.7468,-0.7989 0.7615,-0.7842 0.7622,-0.7659 0.7823,-0.755 0.7683,-0.7488 0.7758,-0.7253 0.7718,-0.7153 0.7814,-0.6991 0.7465,-0.7041 0.687,-0.689 0.6398,-0.6916 0.6309,-0.6706 0.625,-0.681 0.6292,-0.694 0.6177,-0.6868 0.6056,-0.6921 0.5723,-0.6751 0.5348,-0.6931 0.5315,-0.6801 0.5182,-0.6777 0.5056,-0.6899 0.4791,-0.6897 0.4929,-0.6966 0.4758,-0.6956 0.4807,-0.6995 0.4725,-0.7105 0.4753,-0.7175 0.4588,-0.7242 0.4615,-0.7322 0.4737,-0.728 0.4671,-0.7338 0.4695,-0.7527 0.4557,-0.7509 0.4569,-0.7627 0.4667,-0.772 0.5063,-0.7718 0.5025,-0.775 0.5208,-0.7799 0.5075,-0.7849 0.5088,-0.791 0.5454,-0.7884 0.5808,-0.8092 0.611,-0.8106 0.6355,-0.7921 0.6699,-0.784 0.7028,-0.7849 0.7245,-0.7979Z M0.4889,-0.8085 0.5054,-0.7861 0.48,-0.7852 0.4573,-0.7647 0.4676,-0.7773 0.4545,-0.7796 0.4646,-0.7951 0.4595,-0.8038 0.4889,-0.8085Z" fill="#e8efe2"/><path d="M1.8844,-0.3846 1.8619,-0.375 1.8434,-0.3373 1.8565,-0.3149 1.8993,-0.2717 1.9101,-0.2217 1.9022,-0.1992 1.872,-0.1825 1.8628,-0.185 1.8605,-0.1729 1.8525,-0.1793 1.8595,-0.1683 1.8471,-0.1754 1.853,-0.1648 1.8286,-0.1507 1.8342,-0.1745 1.8226,-0.1827 1.8335,-0.1916 1.8528,-0.1894 1.8474,-0.2046 1.8764,-0.2174 1.8733,-0.2492 1.8788,-0.2695 1.8705,-0.2793 1.8745,-0.2837 1.8616,-0.2919 1.8352,-0.3314 1.8132,-0.3434 1.8314,-0.3567 1.8216,-0.3646 1.8253,-0.3685 1.7994,-0.373 1.7968,-0.3878 1.7825,-0.4009 1.7884,-0.4079 1.8141,-0.404 1.8375,-0.4193 1.8637,-0.4085 1.8616,-0.3934 1.8844,-0.3846Z" fill="#e8efe2"/><path d="M0.9266,-0.2948 0.9006,-0.271 0.7725,-0.2224 0.759,-0.2235 0.7446,-0.269 0.7566,-0.3101 0.8156,-0.3061 0.8227,-0.3002 0.8407,-0.3224 0.8681,-0.3323 0.9072,-0.3379 0.9266,-0.2948Z M0.9383,-0.2224 0.9514,-0.2208 0.9306,-0.2205 0.9383,-0.2224Z" fill="#e8efe2"/><path d="M0.9826,-0.4634 0.9842,-0.4505 0.9742,-0.4491 0.9772,-0.4328 0.9681,-0.4305 0.962,-0.4055 0.9173,-0.4113 0.9001,-0.4342 0.9406,-0.4332 0.9788,-0.4714 0.9826,-0.4634Z" fill="#e8efe2"/><path d="M1.1898,-0.429 1.1994,-0.4309 1.2001,-0.4376 1.2399,-0.4393 1.2331,-0.4638 1.2235,-0.4685 1.2243,-0.4801 1.2132,-0.4846 1.2137,-0.4921 1.2287,-0.51 1.2357,-0.5037 1.2544,-0.5086 1.3025,-0.5702 1.3013,-0.5863 1.3146,-0.5946 1.2915,-0.6147 1.2959,-0.6314 1.2898,-0.6333 1.2908,-0.6454 1.3214,-0.6422 1.3579,-0.6635 1.3785,-0.6371 1.3741,-0.6319 1.3826,-0.6004 1.3682,-0.6012 1.3743,-0.5761 1.4135,-0.5541 1.3975,-0.5259 1.4439,-0.4999 1.4676,-0.4993 1.4877,-0.4848 1.5359,-0.4776 1.5383,-0.5084 1.5499,-0.5096 1.5488,-0.4932 1.556,-0.4862 1.6057,-0.4868 1.5992,-0.5047 1.6153,-0.507 1.6514,-0.5354 1.6649,-0.5301 1.6762,-0.5383 1.6856,-0.5245 1.6804,-0.5175 1.6986,-0.5137 1.6909,-0.5013 1.6947,-0.4921 1.6788,-0.4948 1.6603,-0.4819 1.6429,-0.4294 1.6289,-0.4328 1.6216,-0.3936 1.6157,-0.3934 1.6101,-0.4256 1.5991,-0.4123 1.5912,-0.4237 1.6139,-0.4497 1.5678,-0.4565 1.565,-0.4743 1.5615,-0.4698 1.5423,-0.4811 1.5373,-0.4681 1.5525,-0.4559 1.5362,-0.4438 1.5485,-0.4369 1.5542,-0.3872 1.5483,-0.3866 1.5471,-0.396 1.546,-0.3874 1.538,-0.387 1.5348,-0.4007 1.535,-0.3906 1.516,-0.3795 1.5141,-0.3621 1.4879,-0.3519 1.4678,-0.3248 1.4375,-0.303 1.4357,-0.2931 1.4013,-0.2777 1.3935,-0.1811 1.3842,-0.18 1.3778,-0.1678 1.386,-0.1611 1.3687,-0.1597 1.353,-0.1415 1.336,-0.156 1.28,-0.2913 1.2683,-0.3532 1.2722,-0.3688 1.2673,-0.3836 1.276,-0.3891 1.2661,-0.3881 1.2708,-0.3981 1.2598,-0.3989 1.258,-0.3791 1.2343,-0.3702 1.2038,-0.3992 1.2249,-0.4045 1.2303,-0.4144 1.2085,-0.4098 1.1942,-0.4235 1.2004,-0.4288 1.1908,-0.4241 1.1898,-0.429Z M1.6387,-0.1195 1.6375,-0.1267 1.6387,-0.1195Z M1.6144,-0.1852 1.6146,-0.1914 1.6144,-0.1852Z M1.6183,-0.2028 1.6242,-0.2387 1.6183,-0.2028Z" fill="#e8453c"/></g></svg>