<svg xmlns="http://www.w3.org/2000/svg" viewBox="0.436 -2.436 2.182 2.629" preserveAspectRatio="xMidYMid meet"><rect x="0.436" y="-2.436" width="2.182" height="2.629" fill="#a9d2ea"/><g stroke="#7e96a9" stroke-width="0.0066" stroke-linejoin="round"><path d="M1.161,-0.704 1.188,-0.695 1.202,-0.703 1.21,-0.699 1.237,-0.728 1.249,-0.716 1.252,-0.689 1.281,-0.706 1.307,-0.701 1.261,-0.69 1.243,-0.677 1.25,-0.657 1.239,-0.643 1.24,-0.633 1.22,-0.632 1.226,-0.617 1.213,-0.611 1.209,-0.589 1.166,-0.575 1.155,-0.546 1.119,-0.537 1.062,-0.546 1.079,-0.568 1.076,-0.577 1.062,-0.58 1.057,-0.612 1.063,-0.621 1.056,-0.624 1.056,-0.634 1.063,-0.638 1.069,-0.666 1.093,-0.658 1.102,-0.671 1.126,-0.682 1.131,-0.699 1.148,-0.708 1.161,-0.704Z" fill="#e8efe2"/><path d="M0.907,-0.338 0.856,-0.33 0.823,-0.3 0.816,-0.306 0.758,-0.311 0.747,-0.29 0.711,-0.352 0.686,-0.374 0.681,-0.408 0.671,-0.426 0.655,-0.437 0.614,-0.51 0.604,-0.511 0.61,-0.536 0.63,-0.533 0.654,-0.55 0.663,-0.559 0.645,-0.58 0.683,-0.593 0.734,-0.571 0.78,-0.533 0.828,-0.529 0.832,-0.52 0.845,-0.52 0.852,-0.504 0.875,-0.483 0.874,-0.469 0.888,-0.445 0.897,-0.443 0.917,-0.411 0.963,-0.407 0.971,-0.394 0.96,-0.356 0.907,-0.338Z" fill="#e8efe2"/><path d="M0.781,-0.756 0.762,-0.766 0.758,-0.788 0.785,-0.793 0.793,-0.786 0.802,-0.767 0.796,-0.762 0.811,-0.753 0.811,-0.738 0.805,-0.738 0.799,-0.753 0.781,-0.756Z" fill="#e8efe2"/><path d="M0.782,-0.755 0.799,-0.753 0.805,-0.738 0.782,-0.755Z M0.853,-0.728 0.838,-0.736 0.843,-0.749 0.838,-0.756 0.811,-0.738 0.811,-0.753 0.796,-0.762 0.802,-0.768 0.785,-0.793 0.812,-0.788 0.806,-0.801 0.81,-0.807 0.834,-0.79 0.849,-0.804 0.879,-0.769 0.865,-0.767 0.853,-0.728Z" fill="#e8efe2"/><path d="M1.554,-0.395 1.548,-0.437 1.536,-0.444 1.552,-0.456 1.537,-0.468 1.543,-0.481 1.562,-0.47 1.565,-0.474 1.568,-0.456 1.614,-0.449 1.591,-0.425 1.599,-0.412 1.61,-0.426 1.617,-0.382 1.609,-0.382 1.611,-0.371 1.603,-0.4 1.597,-0.41 1.587,-0.405 1.581,-0.424 1.576,-0.421 1.582,-0.401 1.575,-0.391 1.571,-0.403 1.563,-0.389 1.562,-0.399 1.559,-0.389 1.554,-0.395Z M1.584,-0.395 1.58,-0.395 1.58,-0.41 1.584,-0.395Z" fill="#e8efe2"/><path d="M1.599,-0.505 1.607,-0.487 1.567,-0.484 1.549,-0.493 1.57,-0.516 1.599,-0.505Z" fill="#e8efe2"/><path d="M1.747,-0.362 1.711,-0.352 1.706,-0.33 1.699,-0.329 1.726,-0.289 1.714,-0.264 1.73,-0.242 1.739,-0.207 1.72,-0.176 1.726,-0.206 1.707,-0.262 1.706,-0.293 1.7,-0.292 1.69,-0.308 1.689,-0.296 1.679,-0.297 1.681,-0.291 1.665,-0.278 1.664,-0.285 1.652,-0.281 1.653,-0.292 1.644,-0.283 1.651,-0.312 1.641,-0.343 1.639,-0.336 1.632,-0.345 1.641,-0.346 1.636,-0.355 1.625,-0.354 1.609,-0.38 1.616,-0.38 1.616,-0.393 1.626,-0.398 1.629,-0.433 1.643,-0.429 1.66,-0.482 1.679,-0.495 1.695,-0.492 1.691,-0.501 1.702,-0.519 1.722,-0.501 1.723,-0.486 1.722,-0.467 1.703,-0.446 1.703,-0.43 1.725,-0.434 1.725,-0.416 1.737,-0.412 1.731,-0.397 1.744,-0.394 1.749,-0.384 1.765,-0.389 1.747,-0.362Z" fill="#e8efe2"/><path d="M2.008,-0.086 2.0,-0.07 1.991,-0.08 2.008,-0.086Z" fill="#e8efe2"/><path d="M1.877,-0.26 1.877,-0.219 1.847,-0.205 1.853,-0.189 1.833,-0.192 1.823,-0.183 1.808,-0.185 1.807,-0.196 1.8,-0.192 1.786,-0.239 1.798,-0.251 1.829,-0.255 1.851,-0.245 1.854,-0.255 1.866,-0.253 1.877,-0.26Z" fill="#e8efe2"/><path d="M2.127,-0.58 2.116,-0.586 2.127,-0.58Z M1.884,-0.385 1.862,-0.393 1.864,-0.408 1.837,-0.419 1.814,-0.404 1.775,-0.403 1.776,-0.378 1.767,-0.379 1.764,-0.389 1.748,-0.384 1.744,-0.394 1.731,-0.397 1.737,-0.412 1.725,-0.416 1.725,-0.434 1.703,-0.43 1.707,-0.456 1.722,-0.467 1.722,-0.501 1.716,-0.501 1.704,-0.519 1.699,-0.514 1.68,-0.518 1.686,-0.524 1.676,-0.538 1.665,-0.53 1.651,-0.535 1.605,-0.504 1.569,-0.515 1.551,-0.496 1.547,-0.511 1.501,-0.508 1.432,-0.556 1.416,-0.55 1.374,-0.576 1.368,-0.601 1.383,-0.6 1.375,-0.621 1.378,-0.639 1.366,-0.645 1.362,-0.663 1.33,-0.67 1.324,-0.688 1.298,-0.699 1.311,-0.705 1.306,-0.727 1.288,-0.732 1.285,-0.75 1.306,-0.774 1.332,-0.771 1.342,-0.786 1.363,-0.788 1.4,-0.81 1.399,-0.825 1.41,-0.837 1.404,-0.875 1.394,-0.878 1.426,-0.89 1.44,-0.885 1.437,-0.895 1.449,-0.937 1.48,-0.927 1.492,-0.933 1.496,-0.966 1.511,-0.971 1.517,-0.986 1.533,-0.988 1.536,-0.972 1.576,-0.949 1.588,-0.925 1.586,-0.886 1.632,-0.88 1.664,-0.864 1.682,-0.826 1.772,-0.822 1.832,-0.8 1.863,-0.816 1.927,-0.827 1.954,-0.85 1.944,-0.866 1.953,-0.883 1.984,-0.875 1.999,-0.891 2.019,-0.893 2.05,-0.921 2.092,-0.923 2.068,-0.957 2.023,-0.949 2.016,-0.961 2.036,-1.006 2.057,-0.997 2.081,-1.013 2.08,-1.022 2.107,-1.069 2.106,-1.082 2.095,-1.087 2.112,-1.103 2.157,-1.111 2.193,-1.096 2.222,-1.03 2.226,-1.005 2.279,-0.98 2.286,-0.949 2.35,-0.964 2.352,-0.95 2.342,-0.939 2.323,-0.885 2.301,-0.89 2.286,-0.877 2.291,-0.842 2.278,-0.822 2.267,-0.833 2.264,-0.82 2.235,-0.809 2.237,-0.795 2.212,-0.803 2.169,-0.761 2.116,-0.734 2.126,-0.749 2.117,-0.752 2.134,-0.775 2.126,-0.785 2.115,-0.784 2.077,-0.744 2.056,-0.743 2.054,-0.727 2.076,-0.719 2.079,-0.7 2.09,-0.699 2.107,-0.714 2.141,-0.705 2.135,-0.692 2.098,-0.679 2.08,-0.65 2.099,-0.637 2.109,-0.604 2.127,-0.586 2.095,-0.589 2.107,-0.59 2.126,-0.573 2.127,-0.568 2.098,-0.554 2.116,-0.555 2.131,-0.547 2.121,-0.539 2.129,-0.539 2.128,-0.532 2.12,-0.532 2.122,-0.515 2.107,-0.51 2.095,-0.482 2.087,-0.485 2.092,-0.477 2.079,-0.473 2.088,-0.47 2.088,-0.458 2.08,-0.46 2.071,-0.444 2.057,-0.441 2.061,-0.436 2.048,-0.424 2.04,-0.425 2.033,-0.412 1.99,-0.403 1.981,-0.415 1.982,-0.398 1.927,-0.381 1.926,-0.362 1.918,-0.363 1.919,-0.384 1.912,-0.388 1.904,-0.383 1.893,-0.392 1.884,-0.385Z M1.935,-0.356 1.937,-0.35 1.921,-0.328 1.911,-0.323 1.897,-0.329 1.896,-0.343 1.907,-0.354 1.935,-0.356Z" fill="#e8efe2"/><path d="M2.24,-0.732 2.218,-0.724 2.21,-0.713 2.195,-0.718 2.188,-0.712 2.176,-0.721 2.191,-0.733 2.185,-0.736 2.188,-0.752 2.175,-0.754 2.171,-0.765 2.199,-0.784 2.212,-0.803 2.237,-0.795 2.235,-0.809 2.25,-0.81 2.271,-0.832 2.281,-0.816 2.265,-0.802 2.264,-0.783 2.226,-0.756 2.223,-0.745 2.24,-0.732Z" fill="#e8efe2"/><path d="M2.21,-0.713 2.218,-0.724 2.24,-0.732 2.259,-0.697 2.261,-0.673 2.255,-0.657 2.208,-0.638 2.204,-0.656 2.212,-0.671 2.202,-0.691 2.216,-0.695 2.21,-0.713Z M2.205,-0.615 2.215,-0.622 2.205,-0.615Z" fill="#e8efe2"/><path d="M0.758,-0.788 0.746,-0.799 0.724,-0.798 0.729,-0.808 0.724,-0.825 0.698,-0.844 0.746,-0.837 0.765,-0.823 0.797,-0.821 0.815,-0.793 0.758,-0.788Z" fill="#e8efe2"/><path d="M1.19,-0.429 1.199,-0.431 1.2,-0.438 1.24,-0.439 1.233,-0.464 1.223,-0.468 1.224,-0.48 1.213,-0.485 1.214,-0.492 1.229,-0.51 1.236,-0.504 1.254,-0.509 1.303,-0.57 1.301,-0.586 1.315,-0.595 1.292,-0.615 1.296,-0.631 1.29,-0.633 1.291,-0.645 1.321,-0.642 1.358,-0.664 1.378,-0.637 1.374,-0.632 1.383,-0.6 1.368,-0.601 1.374,-0.576 1.414,-0.554 1.397,-0.526 1.444,-0.5 1.468,-0.499 1.488,-0.485 1.536,-0.478 1.538,-0.508 1.55,-0.51 1.549,-0.493 1.556,-0.486 1.606,-0.487 1.599,-0.505 1.615,-0.507 1.651,-0.535 1.665,-0.53 1.676,-0.538 1.686,-0.524 1.68,-0.518 1.699,-0.514 1.691,-0.501 1.695,-0.492 1.679,-0.495 1.66,-0.482 1.643,-0.429 1.629,-0.433 1.622,-0.394 1.616,-0.393 1.61,-0.426 1.599,-0.412 1.591,-0.424 1.614,-0.45 1.568,-0.456 1.565,-0.474 1.562,-0.47 1.542,-0.481 1.537,-0.468 1.552,-0.456 1.536,-0.444 1.548,-0.437 1.554,-0.387 1.548,-0.387 1.547,-0.396 1.546,-0.387 1.538,-0.387 1.535,-0.401 1.535,-0.391 1.516,-0.38 1.514,-0.362 1.488,-0.352 1.468,-0.325 1.437,-0.303 1.436,-0.293 1.401,-0.278 1.393,-0.181 1.384,-0.18 1.378,-0.168 1.386,-0.161 1.369,-0.16 1.353,-0.141 1.336,-0.156 1.28,-0.291 1.268,-0.353 1.272,-0.369 1.267,-0.384 1.276,-0.389 1.266,-0.388 1.271,-0.398 1.26,-0.399 1.258,-0.379 1.234,-0.37 1.204,-0.399 1.225,-0.405 1.23,-0.414 1.208,-0.41 1.194,-0.423 1.2,-0.429 1.191,-0.424 1.19,-0.429Z M1.618,-0.203 1.624,-0.239 1.618,-0.203Z" fill="#e8efe2"/><path d="M1.701,-0.026 1.707,-0.01 1.694,-0.025 1.701,-0.026Z M1.731,0.031 1.722,0.017 1.731,0.031Z M2.036,0.151 2.035,0.156 2.022,0.155 2.032,0.144 2.036,0.151Z M2.015,0.143 2.019,0.147 2.01,0.155 1.998,0.143 2.015,0.143Z M1.851,0.029 1.857,0.043 1.864,0.045 1.862,0.054 1.85,0.049 1.846,0.038 1.835,0.036 1.841,0.027 1.851,0.029Z M2.15,0.079 2.15,0.093 2.141,0.099 2.144,0.081 2.15,0.079Z M2.141,0.092 2.134,0.093 2.142,0.081 2.141,0.092Z M1.889,0.052 1.878,0.056 1.879,0.045 1.889,0.052Z M2.363,0.011 2.38,0.019 2.372,0.021 2.363,0.011Z M2.364,0.028 2.389,0.031 2.364,0.028Z M2.283,0.0 2.292,0.005 2.273,0.004 2.283,0.0Z M2.237,0.029 2.223,0.029 2.228,0.023 2.237,0.029Z M2.199,0.031 2.205,0.032 2.188,0.032 2.199,0.031Z M2.181,0.03 2.187,0.033 2.17,0.032 2.181,0.03Z M2.292,0.14 2.289,0.134 2.298,0.124 2.292,0.14Z M2.213,0.134 2.196,0.14 2.199,0.134 2.213,0.134Z M2.174,0.143 2.184,0.146 2.171,0.147 2.174,0.143Z M1.684,-0.091 1.703,-0.091 1.754,-0.038 1.761,-0.034 1.764,-0.039 1.798,-0.01 1.79,-0.004 1.809,-0.005 1.805,0.01 1.822,0.019 1.83,0.036 1.826,0.045 1.84,0.042 1.851,0.055 1.846,0.102 1.826,0.096 1.826,0.103 1.773,0.055 1.75,0.014 1.731,-0.006 1.721,-0.032 1.705,-0.041 1.692,-0.063 1.667,-0.083 1.662,-0.096 1.684,-0.091Z M2.143,0.151 2.113,0.157 2.091,0.152 2.105,0.144 2.135,0.151 2.144,0.142 2.143,0.151Z M2.095,0.164 2.107,0.179 2.076,0.167 2.095,0.164Z M2.064,0.146 2.076,0.145 2.079,0.152 2.038,0.158 2.045,0.147 2.059,0.153 2.064,0.15 2.055,0.143 2.064,0.146Z M2.18,-0.017 2.168,-0.007 2.098,-0.005 2.095,0.01 2.106,0.024 2.122,0.014 2.154,0.014 2.118,0.033 2.134,0.051 2.134,0.063 2.144,0.077 2.122,0.083 2.123,0.071 2.11,0.061 2.113,0.048 2.106,0.047 2.099,0.053 2.102,0.098 2.087,0.098 2.088,0.07 2.085,0.061 2.076,0.061 2.073,0.047 2.086,0.016 2.092,0.015 2.09,0.002 2.099,-0.017 2.113,-0.023 2.163,-0.015 2.184,-0.03 2.18,-0.017Z M1.874,0.105 1.899,0.119 1.927,0.122 1.934,0.112 1.964,0.121 1.972,0.134 1.997,0.136 2.0,0.153 1.884,0.135 1.837,0.12 1.851,0.103 1.874,0.105Z M1.913,-0.035 1.929,-0.015 1.951,-0.018 1.963,-0.027 1.983,-0.022 1.999,-0.025 2.019,-0.073 2.044,-0.076 2.056,-0.064 2.043,-0.063 2.061,-0.041 2.056,-0.035 2.077,-0.017 2.058,-0.019 2.052,0.013 2.037,0.018 2.029,0.031 2.035,0.04 2.029,0.055 2.002,0.073 1.996,0.057 1.985,0.06 1.973,0.051 1.952,0.062 1.949,0.05 1.924,0.052 1.92,0.022 1.907,0.014 1.901,-0.006 1.904,-0.026 1.913,-0.035Z M2.229,-0.015 2.246,-0.027 2.239,-0.013 2.25,-0.004 2.232,-0.005 2.242,0.016 2.229,0.004 2.224,-0.02 2.235,-0.038 2.229,-0.015Z M2.265,0.05 2.279,0.055 2.283,0.067 2.266,0.058 2.236,0.055 2.232,0.061 2.238,0.05 2.265,0.05Z M2.214,0.054 2.221,0.061 2.216,0.066 2.2,0.059 2.214,0.054Z M2.18,0.157 2.181,0.17 2.158,0.181 2.159,0.169 2.18,0.157Z M2.352,0.1 2.35,0.111 2.341,0.106 2.348,0.095 2.352,0.1Z M2.348,0.113 2.34,0.119 2.341,0.108 2.348,0.113Z M2.418,0.145 2.402,0.147 2.41,0.133 2.422,0.129 2.426,0.135 2.418,0.145Z M2.46,0.046 2.461,0.16 2.443,0.144 2.446,0.139 2.424,0.144 2.428,0.133 2.422,0.127 2.429,0.126 2.419,0.121 2.424,0.12 2.414,0.099 2.396,0.087 2.338,0.067 2.336,0.053 2.328,0.068 2.32,0.071 2.317,0.057 2.303,0.049 2.334,0.046 2.337,0.037 2.309,0.039 2.303,0.027 2.286,0.024 2.292,0.014 2.311,0.006 2.338,0.013 2.342,0.04 2.361,0.059 2.405,0.026 2.46,0.046Z M1.987,0.124 1.968,0.124 1.991,0.122 1.987,0.124Z M2.32,0.103 2.323,0.093 2.32,0.103Z M2.275,0.03 2.273,0.036 2.264,0.033 2.275,0.03Z M1.684,-0.041 1.671,-0.049 1.684,-0.041Z M2.15,0.02 2.156,0.025 2.145,0.028 2.15,0.02Z M2.104,0.11 2.103,0.101 2.104,0.11Z M2.03,0.068 2.026,0.07 2.029,0.057 2.03,0.068Z M2.146,0.192 2.153,0.184 2.146,0.192Z M2.163,0.145 2.151,0.149 2.163,0.145Z" fill="#e8efe2"/><path d="M0.739,-0.698 0.781,-0.7 0.792,-0.675 0.808,-0.669 0.792,-0.631 0.805,-0.61 0.827,-0.599 0.835,-0.586 0.832,-0.57 0.847,-0.549 0.824,-0.55 0.809,-0.53 0.781,-0.533 0.734,-0.571 0.683,-0.593 0.677,-0.618 0.715,-0.641 0.721,-0.682 0.739,-0.698Z" fill="#e8efe2"/><path d="M0.981,-0.488 0.965,-0.482 0.981,-0.488Z M0.941,-0.703 0.967,-0.719 0.998,-0.723 1.035,-0.707 1.053,-0.688 1.068,-0.687 1.07,-0.664 1.056,-0.634 1.056,-0.624 1.063,-0.621 1.057,-0.612 1.062,-0.58 1.076,-0.577 1.079,-0.568 1.062,-0.546 1.08,-0.52 1.095,-0.514 1.095,-0.495 1.105,-0.492 1.102,-0.483 1.079,-0.475 1.075,-0.455 1.001,-0.466 0.99,-0.492 0.956,-0.48 0.937,-0.484 0.895,-0.512 0.874,-0.553 0.865,-0.55 0.855,-0.56 0.853,-0.551 0.845,-0.55 0.838,-0.569 0.832,-0.57 0.835,-0.586 0.827,-0.599 0.805,-0.61 0.792,-0.631 0.808,-0.669 0.786,-0.684 0.772,-0.715 0.776,-0.725 0.768,-0.749 0.778,-0.758 0.806,-0.737 0.838,-0.756 0.843,-0.749 0.838,-0.737 0.853,-0.728 0.857,-0.711 0.892,-0.69 0.942,-0.692 0.941,-0.703Z" fill="#e8efe2"/><path d="M0.626,-0.619 0.625,-0.605 0.61,-0.593 0.614,-0.585 0.609,-0.577 0.619,-0.579 0.609,-0.539 0.598,-0.574 0.613,-0.612 0.626,-0.619Z" fill="#e8efe2"/><path d="M2.51,-0.86 2.527,-0.855 2.537,-0.865 2.533,-0.849 2.537,-0.84 2.545,-0.842 2.513,-0.83 2.5,-0.809 2.476,-0.823 2.452,-0.822 2.449,-0.816 2.464,-0.805 2.444,-0.797 2.441,-0.823 2.45,-0.84 2.467,-0.84 2.473,-0.891 2.51,-0.86Z M2.289,-0.623 2.299,-0.623 2.296,-0.616 2.304,-0.609 2.292,-0.578 2.281,-0.57 2.283,-0.584 2.279,-0.573 2.272,-0.578 2.279,-0.607 2.273,-0.614 2.275,-0.604 2.265,-0.602 2.263,-0.612 2.269,-0.608 2.262,-0.616 2.281,-0.63 2.289,-0.623Z M2.345,-0.637 2.352,-0.628 2.342,-0.616 2.332,-0.621 2.318,-0.606 2.311,-0.62 2.304,-0.618 2.32,-0.634 2.345,-0.637Z M2.465,-0.794 2.478,-0.75 2.46,-0.721 2.453,-0.679 2.459,-0.668 2.45,-0.657 2.441,-0.651 2.442,-0.667 2.424,-0.645 2.423,-0.655 2.412,-0.644 2.392,-0.644 2.396,-0.648 2.388,-0.654 2.383,-0.646 2.388,-0.638 2.368,-0.621 2.358,-0.632 2.364,-0.645 2.352,-0.648 2.309,-0.638 2.306,-0.628 2.285,-0.631 2.286,-0.64 2.32,-0.664 2.37,-0.665 2.388,-0.704 2.397,-0.707 2.389,-0.699 2.395,-0.691 2.414,-0.701 2.44,-0.738 2.445,-0.754 2.439,-0.761 2.449,-0.79 2.463,-0.783 2.465,-0.791 2.457,-0.792 2.465,-0.794Z M2.239,-0.483 2.228,-0.472 2.232,-0.484 2.239,-0.483Z" fill="#e8efe2"/><path d="M0.625,-0.605 0.643,-0.597 0.677,-0.618 0.686,-0.595 0.645,-0.58 0.663,-0.559 0.629,-0.533 0.61,-0.536 0.625,-0.605Z" fill="#e8efe2"/><path d="M1.238,-0.768 1.251,-0.766 1.277,-0.781 1.251,-0.798 1.246,-0.789 1.225,-0.798 1.243,-0.813 1.237,-0.817 1.247,-0.828 1.283,-0.819 1.284,-0.833 1.295,-0.839 1.32,-0.828 1.381,-0.828 1.401,-0.811 1.363,-0.788 1.342,-0.786 1.332,-0.771 1.306,-0.774 1.287,-0.751 1.261,-0.745 1.247,-0.754 1.21,-0.752 1.214,-0.765 1.238,-0.768Z" fill="#e8efe2"/><path d="M0.845,-0.52 0.812,-0.531 0.823,-0.549 0.833,-0.551 0.84,-0.541 0.833,-0.537 0.845,-0.52Z" fill="#e8efe2"/><path d="M1.783,-0.401 1.797,-0.388 1.799,-0.373 1.825,-0.368 1.822,-0.365 1.831,-0.357 1.813,-0.343 1.835,-0.332 1.862,-0.292 1.874,-0.284 1.875,-0.257 1.854,-0.255 1.851,-0.245 1.837,-0.25 1.844,-0.277 1.829,-0.291 1.829,-0.307 1.814,-0.325 1.803,-0.327 1.792,-0.316 1.782,-0.323 1.761,-0.312 1.766,-0.348 1.753,-0.35 1.748,-0.367 1.765,-0.386 1.768,-0.378 1.777,-0.379 1.772,-0.398 1.783,-0.401Z" fill="#e8efe2"/><path d="M0.628,-0.645 0.635,-0.646 0.638,-0.634 0.613,-0.612 0.628,-0.645Z" fill="#e8efe2"/><path d="M1.747,-0.113 1.749,-0.117 1.764,-0.109 1.765,-0.099 1.785,-0.108 1.799,-0.095 1.805,-0.051 1.82,-0.024 1.815,-0.028 1.806,-0.023 1.768,-0.05 1.747,-0.113Z M2.052,-0.073 2.022,-0.076 1.999,-0.025 1.983,-0.022 1.963,-0.027 1.951,-0.018 1.929,-0.015 1.912,-0.032 1.941,-0.024 1.942,-0.043 1.972,-0.055 1.99,-0.08 2.0,-0.07 2.008,-0.086 2.013,-0.077 2.014,-0.095 2.038,-0.122 2.038,-0.116 2.044,-0.122 2.053,-0.113 2.051,-0.103 2.059,-0.106 2.059,-0.1 2.081,-0.094 2.064,-0.087 2.069,-0.077 2.052,-0.073Z" fill="#e8efe2"/><path d="M1.533,-0.988 1.612,-1.034 1.645,-1.026 1.651,-1.011 1.699,-1.004 1.715,-1.019 1.709,-1.046 1.726,-1.07 1.782,-1.048 1.786,-1.025 1.803,-1.016 1.862,-1.019 1.896,-0.992 1.932,-0.988 1.969,-0.998 1.995,-1.018 2.031,-1.01 2.036,-1.006 2.018,-0.954 2.048,-0.948 2.068,-0.957 2.093,-0.925 2.05,-0.921 2.019,-0.893 1.999,-0.891 1.984,-0.875 1.953,-0.883 1.944,-0.866 1.954,-0.85 1.927,-0.827 1.863,-0.816 1.832,-0.8 1.772,-0.822 1.682,-0.826 1.664,-0.864 1.632,-0.88 1.586,-0.886 1.588,-0.925 1.577,-0.949 1.536,-0.972 1.533,-0.988Z" fill="#e8efe2"/><path d="M1.538,-0.507 1.537,-0.479 1.523,-0.477 1.488,-0.485 1.468,-0.499 1.444,-0.5 1.397,-0.527 1.407,-0.549 1.425,-0.557 1.501,-0.508 1.538,-0.507Z" fill="#e8efe2"/><path d="M0.927,-0.295 0.907,-0.338 0.96,-0.356 0.971,-0.394 0.963,-0.413 0.968,-0.431 0.977,-0.433 0.974,-0.449 0.984,-0.45 0.997,-0.431 1.026,-0.423 1.044,-0.398 1.02,-0.364 1.015,-0.367 1.01,-0.361 1.009,-0.338 0.992,-0.333 0.984,-0.319 0.968,-0.317 0.961,-0.302 0.927,-0.295Z M0.983,-0.463 0.979,-0.471 0.984,-0.477 0.983,-0.463Z" fill="#e8efe2"/><path d="M1.238,-0.815 1.243,-0.813 1.225,-0.798 1.246,-0.789 1.251,-0.798 1.277,-0.781 1.251,-0.766 1.232,-0.768 1.228,-0.773 1.235,-0.78 1.229,-0.787 1.211,-0.781 1.209,-0.767 1.198,-0.767 1.204,-0.765 1.196,-0.753 1.177,-0.751 1.193,-0.723 1.183,-0.7 1.161,-0.704 1.163,-0.718 1.113,-0.744 1.09,-0.762 1.08,-0.788 1.049,-0.795 1.047,-0.814 1.023,-0.828 1.015,-0.824 1.02,-0.816 1.013,-0.821 0.994,-0.806 0.995,-0.792 0.977,-0.793 0.977,-0.881 1.022,-0.895 1.065,-0.866 1.082,-0.845 1.133,-0.85 1.154,-0.833 1.152,-0.809 1.161,-0.809 1.164,-0.79 1.186,-0.79 1.194,-0.777 1.207,-0.796 1.238,-0.815Z" fill="#e8efe2"/><path d="M1.34,-0.667 1.345,-0.655 1.337,-0.647 1.291,-0.645 1.29,-0.633 1.296,-0.631 1.292,-0.615 1.315,-0.596 1.301,-0.585 1.303,-0.57 1.254,-0.509 1.236,-0.504 1.229,-0.51 1.214,-0.492 1.213,-0.485 1.224,-0.48 1.223,-0.468 1.233,-0.464 1.24,-0.439 1.2,-0.438 1.189,-0.427 1.178,-0.431 1.159,-0.462 1.129,-0.454 1.075,-0.455 1.079,-0.475 1.102,-0.483 1.105,-0.492 1.095,-0.495 1.095,-0.514 1.08,-0.52 1.062,-0.546 1.119,-0.537 1.156,-0.547 1.158,-0.565 1.166,-0.575 1.209,-0.589 1.213,-0.611 1.226,-0.617 1.22,-0.632 1.24,-0.633 1.239,-0.643 1.25,-0.657 1.242,-0.675 1.259,-0.689 1.312,-0.695 1.324,-0.688 1.329,-0.671 1.34,-0.667Z" fill="#e8efe2"/><path d="M2.114,-0.331 2.134,-0.328 2.132,-0.313 2.138,-0.303 2.119,-0.271 2.125,-0.25 2.133,-0.246 2.14,-0.253 2.149,-0.242 2.152,-0.248 2.161,-0.244 2.156,-0.241 2.167,-0.23 2.165,-0.221 2.14,-0.245 2.14,-0.232 2.125,-0.246 2.106,-0.243 2.111,-0.259 2.105,-0.263 2.102,-0.255 2.096,-0.262 2.09,-0.288 2.101,-0.285 2.105,-0.329 2.114,-0.331Z M2.047,-0.148 2.082,-0.186 2.086,-0.199 2.089,-0.184 2.047,-0.148Z M2.138,-0.204 2.15,-0.203 2.148,-0.197 2.128,-0.183 2.127,-0.207 2.138,-0.204Z M2.149,-0.159 2.136,-0.172 2.151,-0.193 2.157,-0.189 2.149,-0.159Z M2.174,-0.199 2.182,-0.197 2.182,-0.176 2.17,-0.203 2.174,-0.199Z M2.186,-0.22 2.195,-0.194 2.182,-0.199 2.169,-0.221 2.186,-0.22Z M2.107,-0.237 2.121,-0.23 2.116,-0.215 2.1,-0.236 2.107,-0.237Z M2.199,-0.163 2.209,-0.127 2.202,-0.11 2.194,-0.127 2.19,-0.099 2.186,-0.106 2.168,-0.109 2.168,-0.13 2.158,-0.137 2.154,-0.13 2.14,-0.136 2.129,-0.122 2.133,-0.139 2.154,-0.152 2.161,-0.141 2.179,-0.157 2.19,-0.158 2.19,-0.171 2.199,-0.163Z M2.153,-0.166 2.165,-0.198 2.164,-0.183 2.153,-0.166Z M2.175,-0.172 2.161,-0.172 2.17,-0.178 2.175,-0.172Z M2.159,-0.216 2.165,-0.207 2.155,-0.215 2.15,-0.21 2.151,-0.221 2.159,-0.216Z" fill="#e8efe2"/><path d="M0.895,-0.443 0.888,-0.445 0.886,-0.459 0.895,-0.473 0.901,-0.452 0.895,-0.443Z" fill="#e8efe2"/><path d="M1.396,-0.172 1.409,-0.164 1.429,-0.128 1.425,-0.112 1.409,-0.105 1.398,-0.108 1.394,-0.119 1.391,-0.143 1.398,-0.168 1.404,-0.166 1.396,-0.172Z" fill="#e8efe2"/><path d="M0.626,-0.673 0.639,-0.679 0.64,-0.692 0.687,-0.689 0.739,-0.698 0.721,-0.682 0.715,-0.641 0.643,-0.597 0.625,-0.605 0.628,-0.626 0.638,-0.636 0.635,-0.646 0.628,-0.645 0.626,-0.673Z" fill="#e8efe2"/><path d="M1.183,-0.7 1.193,-0.723 1.177,-0.751 1.196,-0.753 1.204,-0.765 1.198,-0.767 1.209,-0.767 1.211,-0.781 1.229,-0.787 1.235,-0.779 1.228,-0.772 1.238,-0.767 1.214,-0.765 1.21,-0.752 1.247,-0.754 1.261,-0.745 1.285,-0.75 1.288,-0.732 1.306,-0.728 1.311,-0.705 1.281,-0.706 1.252,-0.689 1.249,-0.716 1.237,-0.728 1.21,-0.699 1.183,-0.7Z" fill="#e8efe2"/><path d="M1.747,-0.362 1.754,-0.36 1.754,-0.348 1.766,-0.348 1.761,-0.312 1.782,-0.323 1.792,-0.316 1.803,-0.327 1.814,-0.325 1.829,-0.307 1.829,-0.291 1.844,-0.277 1.841,-0.256 1.834,-0.251 1.807,-0.254 1.786,-0.239 1.796,-0.206 1.777,-0.222 1.761,-0.223 1.761,-0.237 1.746,-0.235 1.731,-0.171 1.732,-0.163 1.743,-0.163 1.753,-0.126 1.772,-0.12 1.782,-0.109 1.765,-0.099 1.764,-0.109 1.749,-0.117 1.747,-0.113 1.738,-0.129 1.715,-0.147 1.724,-0.187 1.739,-0.207 1.73,-0.242 1.714,-0.264 1.726,-0.289 1.699,-0.329 1.706,-0.33 1.711,-0.352 1.747,-0.362Z" fill="#e8efe2"/><path d="M2.183,0.167 2.185,0.152 2.222,0.147 2.183,0.167Z" fill="#e8efe2"/><path d="M0.977,-0.793 0.995,-0.792 0.994,-0.806 1.013,-0.821 1.02,-0.816 1.015,-0.824 1.023,-0.828 1.047,-0.814 1.049,-0.795 1.08,-0.788 1.09,-0.762 1.113,-0.744 1.163,-0.718 1.161,-0.704 1.148,-0.708 1.131,-0.699 1.126,-0.682 1.088,-0.656 1.069,-0.666 1.067,-0.688 1.053,-0.688 1.035,-0.707 0.998,-0.723 0.967,-0.719 0.941,-0.703 0.94,-0.739 0.928,-0.746 0.935,-0.753 0.934,-0.761 0.926,-0.758 0.92,-0.772 0.924,-0.787 0.94,-0.778 0.955,-0.786 0.939,-0.812 0.925,-0.809 0.922,-0.79 0.916,-0.804 0.945,-0.817 0.967,-0.793 0.977,-0.793Z" fill="#e8efe2"/><path d="M0.724,-0.798 0.747,-0.799 0.761,-0.784 0.762,-0.766 0.782,-0.755 0.768,-0.749 0.776,-0.725 0.772,-0.715 0.781,-0.699 0.746,-0.704 0.687,-0.689 0.64,-0.692 0.631,-0.671 0.625,-0.681 0.629,-0.694 0.618,-0.687 0.606,-0.692 0.572,-0.675 0.535,-0.693 0.531,-0.68 0.518,-0.678 0.506,-0.69 0.479,-0.69 0.493,-0.697 0.476,-0.696 0.481,-0.699 0.472,-0.71 0.475,-0.718 0.459,-0.724 0.461,-0.732 0.474,-0.728 0.467,-0.734 0.469,-0.753 0.456,-0.751 0.457,-0.763 0.467,-0.772 0.506,-0.772 0.502,-0.775 0.521,-0.78 0.508,-0.785 0.509,-0.791 0.545,-0.788 0.581,-0.809 0.611,-0.811 0.635,-0.792 0.67,-0.784 0.703,-0.785 0.724,-0.798Z M0.489,-0.808 0.505,-0.786 0.48,-0.785 0.457,-0.765 0.468,-0.777 0.454,-0.78 0.465,-0.795 0.46,-0.804 0.489,-0.808Z" fill="#e8efe2"/><path d="M1.884,-0.385 1.862,-0.375 1.843,-0.337 1.857,-0.315 1.899,-0.272 1.91,-0.222 1.902,-0.199 1.872,-0.183 1.863,-0.185 1.861,-0.173 1.852,-0.179 1.859,-0.168 1.847,-0.175 1.853,-0.165 1.829,-0.151 1.834,-0.175 1.823,-0.183 1.833,-0.192 1.853,-0.189 1.847,-0.205 1.876,-0.217 1.873,-0.249 1.879,-0.27 1.87,-0.279 1.874,-0.284 1.862,-0.292 1.835,-0.331 1.813,-0.343 1.831,-0.357 1.822,-0.365 1.825,-0.368 1.799,-0.373 1.797,-0.388 1.783,-0.401 1.788,-0.408 1.814,-0.404 1.837,-0.419 1.864,-0.408 1.862,-0.393 1.884,-0.385Z" fill="#e8efe2"/><path d="M0.927,-0.295 0.901,-0.271 0.772,-0.222 0.759,-0.223 0.745,-0.269 0.757,-0.31 0.816,-0.306 0.823,-0.3 0.841,-0.322 0.868,-0.332 0.907,-0.338 0.927,-0.295Z M0.938,-0.222 0.951,-0.221 0.931,-0.22 0.938,-0.222Z" fill="#e8efe2"/><path d="M0.983,-0.463 0.984,-0.45 0.974,-0.449 0.977,-0.433 0.968,-0.431 0.962,-0.405 0.917,-0.411 0.9,-0.434 0.941,-0.433 0.979,-0.471 0.983,-0.463Z" fill="#e8efe2"/><path d="M0.876,-0.878 0.874,-0.883 0.876,-0.878Z M1.238,-0.815 1.207,-0.796 1.194,-0.777 1.186,-0.79 1.164,-0.79 1.161,-0.809 1.152,-0.809 1.154,-0.833 1.133,-0.85 1.082,-0.845 1.065,-0.866 1.022,-0.895 0.977,-0.881 0.977,-0.793 0.967,-0.793 0.945,-0.817 0.916,-0.804 0.918,-0.827 0.895,-0.837 0.887,-0.862 0.877,-0.868 0.9,-0.87 0.89,-0.878 0.897,-0.89 0.929,-0.89 0.921,-0.896 0.926,-0.928 0.893,-0.934 0.859,-0.915 0.848,-0.921 0.855,-0.926 0.841,-0.95 0.825,-0.951 0.814,-0.968 0.821,-0.988 0.817,-0.997 0.829,-1.022 0.851,-1.009 0.849,-1.027 0.886,-1.059 0.931,-1.052 0.952,-1.025 0.954,-1.038 0.972,-1.027 0.995,-1.04 1.019,-1.04 1.039,-1.024 1.048,-1.034 1.069,-1.032 1.074,-1.047 1.048,-1.064 1.064,-1.074 1.066,-1.094 1.084,-1.095 1.068,-1.103 1.074,-1.109 1.064,-1.113 1.069,-1.125 1.136,-1.134 1.204,-1.166 1.235,-1.164 1.241,-1.13 1.286,-1.125 1.281,-1.108 1.341,-1.137 1.335,-1.125 1.359,-1.103 1.396,-1.032 1.409,-1.046 1.422,-1.031 1.455,-1.038 1.488,-1.0 1.513,-1.005 1.524,-0.988 1.497,-0.968 1.492,-0.933 1.48,-0.927 1.449,-0.937 1.437,-0.895 1.44,-0.885 1.426,-0.89 1.394,-0.878 1.404,-0.875 1.41,-0.837 1.403,-0.833 1.4,-0.814 1.381,-0.828 1.32,-0.828 1.295,-0.839 1.284,-0.833 1.283,-0.819 1.252,-0.829 1.238,-0.815Z" fill="#e8453c"/></g></svg>