<svg xmlns="http://www.w3.org/2000/svg" viewBox="1.920 0.000 1.204 0.957" preserveAspectRatio="xMidYMid meet"><rect x="1.920" y="0.000" width="1.204" height="0.957" fill="#a9d2ea"/><g stroke="#7e96a9" stroke-width="0.0030" stroke-linejoin="round"><path d="M2.499,0.2101 2.5091,0.2531 2.5215,0.251 2.5358,0.2638 2.5548,0.3375 2.5964,0.3618 2.6128,0.4021 2.6194,0.3968 2.6297,0.4017 2.6327,0.4214 2.6499,0.434 2.6731,0.4694 2.6812,0.5227 2.6693,0.5783 2.6405,0.6228 2.6215,0.6706 2.6168,0.7076 2.581,0.7164 2.552,0.7342 2.5552,0.7437 2.5377,0.73 2.5391,0.7233 2.5258,0.7255 2.5328,0.72 2.5288,0.7158 2.5052,0.7363 2.4682,0.726 2.4396,0.7015 2.4387,0.6823 2.4255,0.6652 2.4309,0.661 2.4117,0.6659 2.4175,0.6533 2.4101,0.6352 2.4031,0.6558 2.389,0.658 2.3979,0.6509 2.4073,0.6228 2.4047,0.602 2.3953,0.6239 2.3675,0.6516 2.3583,0.6441 2.364,0.6439 2.36,0.6308 2.344,0.6143 2.3428,0.6014 2.2888,0.5798 2.1977,0.5962 2.1684,0.6111 2.1557,0.63 2.0918,0.631 2.0522,0.655 2.0073,0.6371 2.007,0.6216 2.0134,0.6241 2.019,0.6147 2.0193,0.5837 2.0047,0.532 1.9754,0.4737 1.9869,0.4799 1.9801,0.4625 1.9935,0.4759 1.9794,0.4365 1.99,0.3915 1.9921,0.4028 2.037,0.3685 2.1118,0.349 2.1354,0.3215 2.1351,0.3023 2.1462,0.291 2.1565,0.3107 2.1619,0.2997 2.1574,0.287 2.1776,0.2902 2.1712,0.2884 2.1719,0.2737 2.1827,0.2728 2.1789,0.2677 2.1879,0.267 2.1848,0.2596 2.1927,0.2515 2.1972,0.258 2.2,0.2465 2.2091,0.2497 2.2148,0.2421 2.2246,0.2474 2.2375,0.2603 2.2352,0.2708 2.2441,0.2607 2.2625,0.2674 2.2663,0.2618 2.2581,0.2538 2.2797,0.2187 2.2914,0.2122 2.3162,0.2131 2.3155,0.2047 2.3031,0.1964 2.3567,0.2144 2.3717,0.2078 2.3684,0.2147 2.377,0.2188 2.3831,0.2103 2.3902,0.2172 2.3817,0.233 2.3724,0.2342 2.364,0.2634 2.4304,0.3072 2.4524,0.3125 2.4681,0.2842 2.4691,0.2432 2.4771,0.2242 2.473,0.2172 2.4864,0.188 2.499,0.2101Z M2.6718,0.4654 2.6749,0.4457 2.6718,0.4654Z M2.386,0.2432 2.3899,0.2513 2.3799,0.251 2.386,0.2432Z M2.2797,0.1999 2.2958,0.201 2.2855,0.2097 2.2756,0.1966 2.2797,0.1999Z M2.4016,0.6687 2.4106,0.671 2.3831,0.6719 2.4016,0.6687Z M2.5314,0.781 2.5538,0.7896 2.5869,0.7824 2.589,0.8143 2.5868,0.8085 2.5834,0.8153 2.5827,0.8367 2.5709,0.8278 2.5634,0.8475 2.5489,0.846 2.5518,0.8405 2.5393,0.8312 2.5342,0.8146 2.5398,0.8174 2.5269,0.7956 2.5258,0.7783 2.5314,0.781Z" fill="#e8efe2"/><path d="M3.1416,0.286 3.1339,0.2946 3.1404,0.2964 3.1154,0.2973 3.1416,0.286Z M3.1116,0.3079 3.1184,0.3209 3.0948,0.3209 3.098,0.311 3.1116,0.3079Z" fill="#e8efe2"/><path d="M3.0215,0.7924 3.0433,0.7882 3.0407,0.8056 3.0112,0.8439 3.0206,0.8538 3.0027,0.8496 2.9887,0.8632 2.9807,0.903 2.9514,0.9222 2.9058,0.9053 2.9386,0.8588 2.9847,0.8302 3.0067,0.7803 3.0184,0.7748 3.0142,0.7783 3.0215,0.7924Z M2.9346,0.9281 2.9238,0.9383 2.9283,0.924 2.9346,0.9281Z M3.0241,0.6513 3.0425,0.6582 3.0494,0.6925 3.0638,0.7004 3.0624,0.6847 3.0737,0.7103 3.092,0.7178 3.1161,0.7111 3.1051,0.7457 3.0906,0.7452 3.0864,0.7666 3.0597,0.8 3.048,0.793 3.0571,0.7654 3.0327,0.7475 3.0473,0.7356 3.0531,0.7136 3.0472,0.6982 3.0531,0.6977 3.0453,0.6947 3.0437,0.6795 3.0353,0.6723 3.0377,0.6821 3.0266,0.6644 3.0304,0.6597 3.0248,0.6622 3.0144,0.6414 3.0241,0.6513Z M-3.0749,0.8506 -3.0809,0.8598 -3.0866,0.8525 -3.0749,0.8506Z" fill="#e8efe2"/><path d="M-2.9924,0.2477 -3.0028,0.2443 -2.9924,0.2477Z" fill="#e8efe2"/><path d="M2.9103,0.2618 2.9114,0.2677 2.9161,0.2638 2.9163,0.2753 2.9082,0.2723 2.9072,0.2583 2.9103,0.2618Z M2.9219,0.2848 2.9294,0.2911 2.9226,0.293 2.9182,0.281 2.9219,0.2848Z" fill="#e8efe2"/><path d="M2.8026,0.2074 2.7925,0.2015 2.8026,0.2074Z M2.7534,0.1443 2.7545,0.1508 2.744,0.1447 2.7487,0.1396 2.7534,0.1443Z M2.7882,0.1625 2.8068,0.1729 2.7899,0.1717 2.7882,0.1625Z M2.7904,0.1494 2.7656,0.132 2.7904,0.1494Z M2.7487,0.1283 2.7306,0.1162 2.7487,0.1283Z M2.8056,0.1455 2.8164,0.1685 2.806,0.157 2.8056,0.1455Z M2.8225,0.1823 2.8339,0.19 2.8152,0.179 2.8225,0.1823Z" fill="#e8efe2"/><path d="M2.6698,0.0832 2.6578,0.0625 2.6325,0.0449 2.6707,0.0718 2.6698,0.0832Z M2.6515,0.0751 2.6601,0.0758 2.6543,0.0954 2.6255,0.1098 2.589,0.0991 2.615,0.0965 2.6196,0.0876 2.6211,0.0965 2.6337,0.0953 2.6471,0.0853 2.6457,0.0734 2.6515,0.0751Z M2.4606,0.1599 2.4627,0.0456 2.5217,0.0669 2.5442,0.0842 2.5438,0.0944 2.5747,0.1053 2.5805,0.1165 2.5648,0.1195 2.569,0.1292 2.5854,0.1418 2.5932,0.1586 2.604,0.1583 2.6051,0.1666 2.6182,0.1699 2.6157,0.1756 2.6328,0.1797 2.6236,0.187 2.5791,0.1767 2.5496,0.142 2.5072,0.1306 2.5122,0.139 2.5065,0.1436 2.482,0.1436 2.4977,0.1484 2.5023,0.157 2.4897,0.1636 2.4606,0.1599Z M2.5836,0.1019 2.5794,0.096 2.5836,0.1019Z M2.614,0.0271 2.6107,0.0236 2.614,0.0271Z M2.6368,0.1758 2.6316,0.1703 2.6368,0.1758Z M2.6241,0.1664 2.6203,0.1623 2.6241,0.1664Z M2.6374,0.153 2.6375,0.1475 2.6374,0.153Z M2.6927,0.1996 2.6882,0.1994 2.6927,0.1996Z M2.5061,0.1485 2.5014,0.1466 2.5061,0.1485Z M2.5669,0.0342 2.5733,0.036 2.5578,0.0386 2.5669,0.0342Z M2.6257,0.0464 2.6173,0.0431 2.6257,0.0464Z M2.6272,0.1639 2.6335,0.1696 2.6257,0.1687 2.6272,0.1639Z M2.6639,0.157 2.6698,0.1614 2.6639,0.157Z M2.6798,0.2017 2.6738,0.1989 2.6798,0.2017Z M2.5061,0.1512 2.4995,0.1475 2.5061,0.1512Z M2.722,0.117 2.7112,0.1176 2.7005,0.0951 2.722,0.117Z M2.6992,0.0949 2.6988,0.0876 2.6992,0.0949Z" fill="#e8453c"/></g></svg>