<svg xmlns="http://www.w3.org/2000/svg" viewBox="-2.967 -1.962 2.059 1.840" preserveAspectRatio="xMidYMid meet"><rect x="-2.967" y="-1.962" width="2.059" height="1.840" fill="#a9d2ea"/><g stroke="#7e96a9" stroke-width="0.0051" stroke-linejoin="round"><path d="M-1.348,-0.468 -1.348,-0.481 -1.36,-0.488 -1.345,-0.481 -1.348,-0.468Z M-1.275,-0.379 -1.286,-0.375 -1.275,-0.379Z M-1.357,-0.445 -1.362,-0.437 -1.369,-0.444 -1.364,-0.455 -1.357,-0.445Z M-1.37,-0.484 -1.36,-0.484 -1.379,-0.484 -1.37,-0.484Z M-1.338,-0.46 -1.329,-0.454 -1.329,-0.444 -1.338,-0.46Z M-1.306,-0.411 -1.315,-0.425 -1.306,-0.411Z" fill="#e8efe2"/><path d="M-1.556,-0.316 -1.545,-0.328 -1.538,-0.326 -1.541,-0.294 -1.551,-0.281 -1.558,-0.281 -1.556,-0.316Z" fill="#e8efe2"/><path d="M-2.315,-1.128 -2.307,-1.123 -2.312,-1.114 -2.298,-1.128 -2.303,-1.104 -2.317,-1.104 -2.311,-1.105 -2.323,-1.124 -2.315,-1.128Z M-2.299,-1.101 -2.297,-1.093 -2.303,-1.091 -2.29,-1.07 -2.313,-1.099 -2.299,-1.101Z M-2.22,-1.028 -2.19,-1.019 -2.152,-0.97 -2.182,-0.976 -2.178,-0.989 -2.191,-0.982 -2.209,-0.995 -2.201,-1.002 -2.232,-1.014 -2.225,-1.027 -2.24,-1.031 -2.22,-1.028Z M-2.269,-1.182 -2.301,-1.204 -2.328,-1.263 -2.365,-1.31 -2.399,-1.279 -2.429,-1.32 -2.427,-1.329 -2.461,-1.327 -2.461,-1.718 -2.361,-1.67 -2.372,-1.691 -2.346,-1.719 -2.337,-1.711 -2.342,-1.698 -2.261,-1.741 -2.316,-1.698 -2.325,-1.673 -2.3,-1.707 -2.286,-1.696 -2.271,-1.721 -2.249,-1.723 -2.228,-1.749 -2.234,-1.765 -2.194,-1.704 -2.185,-1.707 -2.188,-1.718 -2.174,-1.743 -2.166,-1.72 -2.17,-1.703 -2.125,-1.725 -2.046,-1.681 -2.015,-1.683 -1.989,-1.657 -2.015,-1.634 -2.009,-1.63 -1.921,-1.637 -1.885,-1.604 -1.894,-1.596 -1.873,-1.566 -1.881,-1.591 -1.87,-1.587 -1.884,-1.63 -1.846,-1.666 -1.898,-1.652 -1.891,-1.666 -1.85,-1.681 -1.824,-1.641 -1.772,-1.624 -1.718,-1.629 -1.721,-1.641 -1.701,-1.62 -1.695,-1.629 -1.714,-1.634 -1.722,-1.655 -1.7,-1.661 -1.683,-1.652 -1.688,-1.64 -1.675,-1.65 -1.682,-1.615 -1.665,-1.593 -1.683,-1.594 -1.672,-1.575 -1.676,-1.59 -1.663,-1.604 -1.669,-1.626 -1.666,-1.64 -1.631,-1.667 -1.638,-1.686 -1.651,-1.676 -1.632,-1.709 -1.675,-1.725 -1.685,-1.746 -1.673,-1.764 -1.685,-1.778 -1.683,-1.801 -1.651,-1.842 -1.598,-1.745 -1.611,-1.748 -1.605,-1.737 -1.621,-1.719 -1.579,-1.709 -1.592,-1.7 -1.574,-1.65 -1.558,-1.698 -1.54,-1.682 -1.533,-1.654 -1.542,-1.652 -1.541,-1.636 -1.524,-1.6 -1.511,-1.614 -1.496,-1.67 -1.481,-1.674 -1.492,-1.728 -1.438,-1.717 -1.444,-1.71 -1.42,-1.695 -1.43,-1.68 -1.418,-1.673 -1.441,-1.66 -1.419,-1.615 -1.422,-1.595 -1.456,-1.565 -1.485,-1.588 -1.464,-1.558 -1.513,-1.571 -1.5,-1.554 -1.526,-1.521 -1.596,-1.546 -1.519,-1.515 -1.538,-1.473 -1.571,-1.471 -1.573,-1.454 -1.585,-1.449 -1.635,-1.472 -1.583,-1.438 -1.584,-1.426 -1.612,-1.42 -1.605,-1.411 -1.615,-1.41 -1.615,-1.395 -1.627,-1.402 -1.622,-1.397 -1.633,-1.387 -1.629,-1.38 -1.654,-1.335 -1.657,-1.285 -1.646,-1.273 -1.646,-1.259 -1.643,-1.274 -1.626,-1.273 -1.613,-1.227 -1.62,-1.214 -1.581,-1.224 -1.495,-1.173 -1.487,-1.165 -1.49,-1.157 -1.438,-1.156 -1.436,-1.096 -1.424,-1.078 -1.428,-1.072 -1.408,-1.059 -1.404,-1.049 -1.411,-1.041 -1.398,-1.046 -1.385,-1.031 -1.391,-1.048 -1.385,-1.056 -1.377,-1.044 -1.378,-1.06 -1.369,-1.074 -1.379,-1.125 -1.391,-1.144 -1.358,-1.163 -1.336,-1.201 -1.342,-1.241 -1.37,-1.272 -1.357,-1.306 -1.35,-1.302 -1.349,-1.318 -1.354,-1.32 -1.354,-1.346 -1.364,-1.346 -1.353,-1.373 -1.364,-1.399 -1.35,-1.41 -1.303,-1.393 -1.286,-1.407 -1.261,-1.374 -1.25,-1.375 -1.254,-1.368 -1.247,-1.358 -1.213,-1.354 -1.216,-1.32 -1.233,-1.318 -1.217,-1.314 -1.216,-1.294 -1.21,-1.293 -1.214,-1.278 -1.224,-1.274 -1.194,-1.275 -1.193,-1.254 -1.205,-1.246 -1.187,-1.265 -1.181,-1.249 -1.158,-1.275 -1.152,-1.263 -1.153,-1.276 -1.141,-1.285 -1.147,-1.29 -1.143,-1.299 -1.135,-1.296 -1.142,-1.309 -1.126,-1.326 -1.13,-1.317 -1.122,-1.319 -1.107,-1.289 -1.116,-1.284 -1.103,-1.285 -1.097,-1.271 -1.109,-1.26 -1.092,-1.265 -1.104,-1.249 -1.081,-1.246 -1.091,-1.232 -1.07,-1.217 -1.074,-1.206 -1.091,-1.21 -1.072,-1.196 -1.077,-1.194 -1.073,-1.185 -1.053,-1.178 -1.058,-1.156 -1.043,-1.164 -1.037,-1.16 -1.044,-1.148 -1.034,-1.16 -1.002,-1.142 -1.054,-1.114 -1.049,-1.109 -1.053,-1.103 -1.011,-1.127 -1.018,-1.13 -1.002,-1.129 -1.001,-1.109 -0.986,-1.117 -0.977,-1.109 -0.974,-1.084 -0.983,-1.082 -0.972,-1.072 -0.994,-1.051 -1.021,-1.046 -1.049,-1.017 -1.161,-1.016 -1.176,-0.993 -1.192,-0.989 -1.216,-0.963 -1.24,-0.97 -1.218,-0.96 -1.244,-0.927 -1.297,-0.895 -1.291,-0.89 -1.341,-0.848 -1.376,-0.847 -1.382,-0.844 -1.38,-0.828 -1.443,-0.802 -1.451,-0.812 -1.434,-0.847 -1.441,-0.89 -1.466,-0.908 -1.468,-0.92 -1.543,-0.965 -1.597,-0.959 -1.651,-0.977 -1.661,-0.994 -1.661,-0.984 -2.148,-0.983 -2.151,-0.991 -2.145,-0.994 -2.152,-0.993 -2.15,-1.002 -2.165,-1.0 -2.157,-1.002 -2.161,-1.014 -2.169,-1.004 -2.178,-1.011 -2.179,-1.035 -2.194,-1.023 -2.207,-1.026 -2.197,-1.03 -2.208,-1.029 -2.208,-1.04 -2.229,-1.042 -2.224,-1.055 -2.211,-1.058 -2.229,-1.052 -2.231,-1.072 -2.221,-1.078 -2.212,-1.068 -2.22,-1.08 -2.217,-1.09 -2.236,-1.06 -2.24,-1.071 -2.235,-1.092 -2.254,-1.11 -2.233,-1.103 -2.246,-1.111 -2.243,-1.12 -2.261,-1.102 -2.275,-1.116 -2.262,-1.131 -2.276,-1.137 -2.261,-1.168 -2.27,-1.156 -2.269,-1.182Z M-1.917,-2.309 -1.909,-2.284 -1.977,-2.281 -1.917,-2.309Z M-1.928,-2.261 -1.913,-2.258 -1.935,-2.239 -1.923,-2.213 -1.954,-2.199 -1.977,-2.237 -1.928,-2.261Z M-2.017,-2.2 -2.03,-2.183 -2.021,-2.167 -2.029,-2.164 -2.024,-2.148 -2.046,-2.118 -2.059,-2.127 -2.057,-2.157 -2.077,-2.107 -2.087,-2.121 -2.093,-2.087 -2.145,-2.107 -2.079,-2.196 -2.017,-2.2Z M-1.89,-2.102 -1.866,-2.074 -1.862,-2.099 -1.848,-2.098 -1.841,-2.076 -1.85,-2.036 -1.867,-2.024 -1.899,-2.032 -1.973,-1.988 -1.996,-2.006 -1.938,-2.043 -1.985,-2.032 -1.98,-2.056 -1.99,-2.057 -2.02,-2.026 -2.053,-2.046 -2.01,-2.074 -2.045,-2.072 -2.007,-2.09 -2.036,-2.094 -2.003,-2.11 -2.022,-2.119 -2.007,-2.134 -1.938,-2.065 -1.903,-2.063 -1.918,-2.092 -1.91,-2.105 -1.925,-2.127 -1.899,-2.158 -1.89,-2.102Z M-1.999,-1.877 -1.973,-1.901 -1.942,-1.884 -1.949,-1.86 -1.924,-1.881 -1.931,-1.901 -1.92,-1.9 -1.898,-1.874 -1.881,-1.822 -1.873,-1.837 -1.889,-1.91 -1.858,-1.913 -1.84,-1.888 -1.822,-1.819 -1.824,-1.791 -1.764,-1.743 -1.761,-1.726 -1.805,-1.719 -1.8,-1.695 -1.783,-1.71 -1.777,-1.694 -1.796,-1.677 -1.835,-1.682 -1.862,-1.707 -1.911,-1.67 -1.974,-1.661 -1.984,-1.695 -2.033,-1.706 -2.046,-1.738 -1.948,-1.751 -1.985,-1.771 -2.052,-1.768 -2.066,-1.786 -2.012,-1.814 -2.058,-1.809 -2.064,-1.813 -2.055,-1.824 -2.077,-1.829 -2.063,-1.858 -2.066,-1.873 -2.035,-1.904 -1.993,-1.919 -1.991,-1.895 -1.999,-1.877Z M-2.09,-1.969 -2.051,-1.977 -2.014,-1.931 -2.076,-1.882 -2.098,-1.855 -2.105,-1.815 -2.144,-1.793 -2.196,-1.842 -2.161,-1.948 -2.176,-1.985 -2.121,-1.998 -2.09,-1.969Z M-1.213,-2.797 -1.159,-2.784 -1.195,-2.745 -1.133,-2.78 -1.068,-2.704 -1.199,-2.575 -1.131,-2.598 -1.258,-2.448 -1.232,-2.443 -1.246,-2.412 -1.342,-2.388 -1.301,-2.345 -1.371,-2.348 -1.299,-2.315 -1.334,-2.297 -1.312,-2.281 -1.362,-2.249 -1.37,-2.201 -1.432,-2.196 -1.361,-2.161 -1.41,-2.11 -1.44,-2.151 -1.435,-2.132 -1.543,-2.127 -1.545,-2.154 -1.545,-2.128 -1.563,-2.133 -1.562,-2.159 -1.546,-2.178 -1.515,-2.186 -1.537,-2.23 -1.532,-2.239 -1.479,-2.2 -1.442,-2.252 -1.481,-2.212 -1.493,-2.247 -1.47,-2.268 -1.482,-2.273 -1.48,-2.298 -1.494,-2.262 -1.528,-2.268 -1.515,-2.32 -1.427,-2.339 -1.473,-2.34 -1.459,-2.345 -1.508,-2.421 -1.51,-2.463 -1.461,-2.46 -1.405,-2.398 -1.398,-2.404 -1.448,-2.469 -1.341,-2.527 -1.374,-2.537 -1.342,-2.591 -1.414,-2.504 -1.486,-2.49 -1.512,-2.502 -1.454,-2.559 -1.531,-2.505 -1.558,-2.532 -1.482,-2.575 -1.564,-2.545 -1.57,-2.556 -1.529,-2.603 -1.6,-2.616 -1.537,-2.673 -1.484,-2.658 -1.512,-2.688 -1.482,-2.718 -1.386,-2.642 -1.439,-2.712 -1.41,-2.737 -1.414,-2.763 -1.374,-2.749 -1.399,-2.781 -1.394,-2.786 -1.327,-2.73 -1.319,-2.74 -1.346,-2.796 -1.268,-2.755 -1.282,-2.787 -1.213,-2.797Z M-1.666,-2.235 -1.625,-2.225 -1.68,-2.222 -1.666,-2.235Z M-1.633,-2.03 -1.633,-2.006 -1.653,-2.004 -1.686,-2.032 -1.656,-2.071 -1.633,-2.03Z M-1.745,-1.959 -1.695,-1.949 -1.704,-1.931 -1.698,-1.924 -1.718,-1.898 -1.685,-1.883 -1.686,-1.833 -1.716,-1.834 -1.714,-1.812 -1.724,-1.804 -1.793,-1.887 -1.784,-1.906 -1.767,-1.884 -1.748,-1.895 -1.755,-1.913 -1.742,-1.913 -1.772,-1.932 -1.754,-1.928 -1.763,-1.948 -1.745,-1.959Z M-1.482,-1.517 -1.475,-1.526 -1.432,-1.492 -1.426,-1.474 -1.429,-1.467 -1.401,-1.458 -1.415,-1.445 -1.452,-1.472 -1.49,-1.431 -1.497,-1.454 -1.522,-1.45 -1.505,-1.471 -1.498,-1.541 -1.488,-1.54 -1.482,-1.517Z M-1.705,-2.132 -1.702,-2.107 -1.709,-2.08 -1.699,-2.056 -1.708,-2.056 -1.704,-2.038 -1.71,-2.031 -1.749,-2.028 -1.758,-2.051 -1.731,-2.076 -1.794,-2.069 -1.762,-2.083 -1.783,-2.118 -1.778,-2.13 -1.743,-2.092 -1.747,-2.106 -1.737,-2.108 -1.761,-2.133 -1.705,-2.132Z M-1.805,-2.37 -1.79,-2.329 -1.778,-2.349 -1.746,-2.316 -1.728,-2.253 -1.745,-2.235 -1.764,-2.269 -1.824,-2.277 -1.833,-2.297 -1.804,-2.317 -1.843,-2.351 -1.805,-2.37Z M-1.604,-2.557 -1.551,-2.453 -1.53,-2.474 -1.534,-2.446 -1.518,-2.425 -1.524,-2.395 -1.495,-2.399 -1.484,-2.366 -1.529,-2.312 -1.537,-2.34 -1.54,-2.311 -1.536,-2.299 -1.548,-2.304 -1.55,-2.269 -1.571,-2.305 -1.562,-2.267 -1.595,-2.269 -1.644,-2.338 -1.593,-2.375 -1.66,-2.367 -1.671,-2.38 -1.648,-2.41 -1.673,-2.404 -1.689,-2.45 -1.645,-2.456 -1.682,-2.47 -1.668,-2.474 -1.678,-2.493 -1.674,-2.511 -1.639,-2.494 -1.667,-2.527 -1.627,-2.557 -1.644,-2.581 -1.604,-2.557Z M-1.646,-2.165 -1.627,-2.153 -1.632,-2.13 -1.598,-2.148 -1.558,-2.119 -1.595,-2.113 -1.552,-2.058 -1.434,-2.085 -1.39,-2.058 -1.403,-2.03 -1.386,-2.022 -1.43,-1.992 -1.458,-2.021 -1.458,-2.0 -1.474,-1.995 -1.597,-2.004 -1.613,-2.045 -1.608,-2.083 -1.625,-2.123 -1.663,-2.116 -1.691,-2.153 -1.673,-2.178 -1.646,-2.165Z M-1.679,-2.298 -1.659,-2.29 -1.664,-2.272 -1.657,-2.26 -1.693,-2.237 -1.704,-2.26 -1.692,-2.265 -1.707,-2.272 -1.716,-2.318 -1.679,-2.298Z M-1.626,-1.972 -1.577,-1.954 -1.608,-1.886 -1.644,-1.887 -1.633,-1.868 -1.643,-1.843 -1.661,-1.844 -1.669,-1.943 -1.626,-1.972Z M-1.701,-1.717 -1.663,-1.677 -1.686,-1.66 -1.738,-1.687 -1.711,-1.708 -1.714,-1.725 -1.701,-1.717Z M-1.067,-0.905 -1.06,-0.9 -1.052,-0.914 -1.044,-0.906 -1.073,-0.899 -1.056,-0.932 -1.056,-0.913 -1.067,-0.905Z M-1.171,-0.886 -1.183,-0.9 -1.184,-0.934 -1.208,-0.943 -1.237,-0.888 -1.304,-0.881 -1.259,-0.92 -1.231,-0.932 -1.201,-0.967 -1.144,-0.991 -1.127,-0.986 -1.121,-0.972 -1.139,-0.958 -1.164,-0.958 -1.129,-0.95 -1.14,-0.934 -1.131,-0.933 -1.126,-0.912 -1.095,-0.898 -1.081,-0.903 -1.065,-0.889 -1.122,-0.87 -1.142,-0.845 -1.154,-0.852 -1.15,-0.871 -1.154,-0.868 -1.125,-0.89 -1.119,-0.882 -1.106,-0.89 -1.132,-0.89 -1.122,-0.902 -1.128,-0.905 -1.15,-0.887 -1.171,-0.886Z M-0.968,-1.053 -0.978,-1.047 -0.974,-1.039 -0.992,-1.0 -0.981,-1.014 -0.969,-1.01 -0.98,-1.0 -0.964,-0.997 -0.966,-0.986 -0.951,-0.998 -0.936,-0.992 -0.944,-0.968 -0.926,-0.975 -0.94,-0.958 -0.937,-0.948 -0.923,-0.961 -0.928,-0.945 -0.919,-0.946 -0.926,-0.924 -0.935,-0.922 -0.935,-0.935 -0.945,-0.928 -0.94,-0.943 -0.946,-0.954 -0.974,-0.928 -0.956,-0.949 -1.034,-0.948 -1.034,-0.957 -1.018,-0.971 -1.033,-0.972 -1.012,-0.984 -1.016,-0.994 -1.009,-0.997 -0.996,-1.038 -0.968,-1.053Z M-1.511,-1.788 -1.48,-1.789 -1.478,-1.822 -1.499,-1.842 -1.471,-1.845 -1.495,-1.884 -1.471,-1.891 -1.491,-1.907 -1.424,-1.943 -1.401,-1.886 -1.418,-1.86 -1.407,-1.868 -1.412,-1.838 -1.393,-1.868 -1.372,-1.836 -1.374,-1.863 -1.353,-1.853 -1.369,-1.875 -1.348,-1.885 -1.31,-1.861 -1.325,-1.826 -1.296,-1.845 -1.312,-1.826 -1.304,-1.825 -1.309,-1.8 -1.289,-1.83 -1.295,-1.809 -1.25,-1.816 -1.242,-1.803 -1.268,-1.779 -1.233,-1.79 -1.255,-1.758 -1.245,-1.763 -1.247,-1.742 -1.228,-1.777 -1.196,-1.767 -1.223,-1.737 -1.184,-1.75 -1.173,-1.723 -1.209,-1.711 -1.164,-1.698 -1.205,-1.69 -1.184,-1.689 -1.185,-1.675 -1.21,-1.679 -1.164,-1.659 -1.168,-1.641 -1.156,-1.651 -1.161,-1.631 -1.151,-1.641 -1.141,-1.623 -1.134,-1.64 -1.114,-1.618 -1.129,-1.608 -1.123,-1.604 -1.1,-1.603 -1.112,-1.584 -1.084,-1.595 -1.07,-1.577 -1.092,-1.566 -1.082,-1.55 -1.093,-1.549 -1.089,-1.541 -1.094,-1.533 -1.108,-1.542 -1.11,-1.504 -1.141,-1.538 -1.125,-1.562 -1.149,-1.549 -1.146,-1.557 -1.169,-1.576 -1.173,-1.562 -1.185,-1.57 -1.175,-1.546 -1.2,-1.557 -1.171,-1.525 -1.164,-1.499 -1.142,-1.495 -1.136,-1.484 -1.145,-1.478 -1.124,-1.454 -1.127,-1.436 -1.138,-1.456 -1.129,-1.424 -1.137,-1.425 -1.136,-1.413 -1.185,-1.455 -1.182,-1.443 -1.203,-1.454 -1.152,-1.397 -1.158,-1.384 -1.245,-1.429 -1.256,-1.443 -1.246,-1.449 -1.265,-1.459 -1.282,-1.482 -1.279,-1.489 -1.293,-1.483 -1.304,-1.499 -1.304,-1.486 -1.341,-1.476 -1.364,-1.491 -1.35,-1.525 -1.323,-1.516 -1.317,-1.5 -1.323,-1.519 -1.284,-1.527 -1.299,-1.556 -1.26,-1.604 -1.288,-1.671 -1.299,-1.665 -1.306,-1.689 -1.337,-1.671 -1.336,-1.686 -1.32,-1.696 -1.38,-1.766 -1.386,-1.756 -1.375,-1.745 -1.38,-1.732 -1.425,-1.74 -1.412,-1.722 -1.497,-1.737 -1.508,-1.76 -1.534,-1.748 -1.561,-1.791 -1.521,-1.788 -1.565,-1.81 -1.571,-1.84 -1.557,-1.907 -1.539,-1.937 -1.484,-1.948 -1.513,-1.887 -1.505,-1.837 -1.484,-1.807 -1.511,-1.788Z M-1.079,-0.986 -1.126,-1.008 -1.097,-1.003 -1.079,-0.986Z M-1.114,-0.918 -1.082,-0.917 -1.096,-0.906 -1.124,-0.924 -1.117,-0.933 -1.114,-0.918Z M-1.431,-1.425 -1.449,-1.397 -1.465,-1.405 -1.455,-1.423 -1.431,-1.425Z M-1.388,-1.404 -1.384,-1.396 -1.391,-1.376 -1.401,-1.382 -1.388,-1.404Z M-1.321,-1.653 -1.31,-1.644 -1.314,-1.61 -1.343,-1.604 -1.349,-1.625 -1.338,-1.65 -1.321,-1.653Z M-1.388,-1.94 -1.351,-1.934 -1.328,-1.894 -1.388,-1.887 -1.411,-1.937 -1.388,-1.94Z M-1.409,-1.088 -1.432,-1.096 -1.416,-1.101 -1.409,-1.088Z M-1.378,-1.194 -1.382,-1.182 -1.382,-1.192 -1.396,-1.182 -1.387,-1.202 -1.388,-1.191 -1.384,-1.204 -1.378,-1.194Z M-1.568,-2.193 -1.591,-2.217 -1.568,-2.193Z M-1.825,-2.183 -1.851,-2.23 -1.825,-2.183Z M-1.724,-2.434 -1.727,-2.408 -1.748,-2.436 -1.724,-2.434Z M-1.838,-1.896 -1.867,-1.932 -1.825,-1.936 -1.838,-1.896Z M-1.784,-2.098 -1.803,-2.08 -1.798,-2.092 -1.822,-2.105 -1.793,-2.12 -1.784,-2.098Z M-1.815,-2.14 -1.798,-2.129 -1.826,-2.14 -1.815,-2.14Z M-2.065,-2.067 -2.084,-2.07 -2.051,-2.105 -2.065,-2.067Z M-1.987,-2.232 -2.008,-2.25 -1.987,-2.232Z M-2.266,-1.1 -2.278,-1.111 -2.266,-1.1Z M-2.244,-1.093 -2.246,-1.074 -2.255,-1.095 -2.252,-1.103 -2.244,-1.093Z M-1.081,-0.939 -1.072,-0.948 -1.081,-0.939Z M-1.228,-1.41 -1.243,-1.422 -1.228,-1.41Z M-1.131,-1.366 -1.142,-1.376 -1.131,-1.376 -1.131,-1.366Z M-1.38,-2.092 -1.391,-2.089 -1.376,-2.105 -1.38,-2.092Z M-1.285,-1.628 -1.305,-1.639 -1.282,-1.637 -1.285,-1.628Z M-1.359,-1.445 -1.353,-1.436 -1.371,-1.443 -1.359,-1.445Z M-1.65,-2.079 -1.656,-2.092 -1.65,-2.079Z M-1.715,-1.954 -1.735,-1.956 -1.704,-1.967 -1.715,-1.954Z M-1.292,-1.412 -1.303,-1.416 -1.292,-1.412Z M-1.307,-1.654 -1.316,-1.666 -1.307,-1.654Z M-1.338,-1.442 -1.35,-1.45 -1.338,-1.442Z M-1.386,-1.725 -1.41,-1.72 -1.386,-1.725Z M-1.362,-1.721 -1.376,-1.709 -1.362,-1.721Z M-1.382,-1.678 -1.365,-1.701 -1.382,-1.678Z M-1.344,-1.692 -1.35,-1.705 -1.338,-1.704 -1.344,-1.692Z M-1.517,-1.741 -1.51,-1.736 -1.524,-1.74 -1.517,-1.741Z M-1.461,-1.54 -1.453,-1.536 -1.474,-1.552 -1.461,-1.54Z M-1.767,-2.14 -1.773,-2.142 -1.75,-2.151 -1.767,-2.14Z M-1.775,-2.228 -1.789,-2.239 -1.763,-2.231 -1.775,-2.228Z M-1.566,-2.135 -1.581,-2.153 -1.57,-2.16 -1.566,-2.135Z M-1.677,-2.063 -1.693,-2.06 -1.677,-2.063Z M-1.982,-2.152 -2.004,-2.156 -1.982,-2.152Z M-1.817,-2.03 -1.831,-2.038 -1.821,-2.057 -1.809,-2.04 -1.817,-2.03Z M-1.667,-1.714 -1.675,-1.705 -1.667,-1.714Z M-1.825,-1.657 -1.833,-1.664 -1.825,-1.657Z" fill="#e8efe2"/><path d="M-1.441,-0.168 -1.448,-0.166 -1.447,-0.141 -1.484,-0.178 -1.488,-0.18 -1.482,-0.172 -1.485,-0.168 -1.494,-0.174 -1.499,-0.191 -1.494,-0.197 -1.46,-0.192 -1.441,-0.168Z" fill="#e8efe2"/><path d="M-1.428,-0.416 -1.393,-0.411 -1.294,-0.36 -1.356,-0.354 -1.348,-0.368 -1.363,-0.371 -1.374,-0.386 -1.429,-0.398 -1.429,-0.407 -1.482,-0.391 -1.467,-0.406 -1.428,-0.416Z M-1.441,-0.386 -1.452,-0.387 -1.448,-0.393 -1.441,-0.386Z" fill="#e8efe2"/><path d="M-1.61,-0.257 -1.601,-0.284 -1.579,-0.284 -1.595,-0.306 -1.588,-0.306 -1.588,-0.316 -1.556,-0.316 -1.558,-0.281 -1.54,-0.278 -1.556,-0.266 -1.556,-0.258 -1.573,-0.242 -1.61,-0.257Z" fill="#e8efe2"/><path d="M-1.253,-0.351 -1.253,-0.32 -1.289,-0.32 -1.3,-0.327 -1.296,-0.332 -1.263,-0.33 -1.269,-0.346 -1.28,-0.354 -1.253,-0.351Z" fill="#e8efe2"/><path d="M-1.451,-0.265 -1.483,-0.26 -1.496,-0.244 -1.514,-0.242 -1.519,-0.229 -1.533,-0.236 -1.532,-0.245 -1.544,-0.244 -1.56,-0.254 -1.556,-0.266 -1.531,-0.281 -1.483,-0.283 -1.451,-0.265Z" fill="#e8efe2"/><path d="M-1.348,-0.328 -1.33,-0.318 -1.347,-0.314 -1.367,-0.325 -1.348,-0.328Z" fill="#e8efe2"/><path d="M-2.044,-0.601 -2.002,-0.605 -1.938,-0.576 -1.889,-0.576 -1.889,-0.586 -1.858,-0.585 -1.832,-0.562 -1.822,-0.541 -1.802,-0.529 -1.791,-0.544 -1.77,-0.545 -1.737,-0.501 -1.73,-0.479 -1.696,-0.469 -1.708,-0.405 -1.7,-0.38 -1.706,-0.394 -1.704,-0.386 -1.674,-0.335 -1.65,-0.323 -1.613,-0.332 -1.597,-0.328 -1.584,-0.344 -1.577,-0.375 -1.521,-0.387 -1.514,-0.378 -1.53,-0.35 -1.526,-0.349 -1.532,-0.326 -1.536,-0.335 -1.556,-0.316 -1.588,-0.316 -1.588,-0.306 -1.595,-0.306 -1.579,-0.284 -1.601,-0.284 -1.61,-0.257 -1.647,-0.288 -1.641,-0.283 -1.656,-0.291 -1.684,-0.277 -1.805,-0.326 -1.841,-0.356 -1.844,-0.364 -1.837,-0.367 -1.841,-0.371 -1.836,-0.384 -1.846,-0.406 -1.886,-0.452 -1.903,-0.46 -1.9,-0.465 -1.908,-0.463 -1.907,-0.481 -1.958,-0.53 -1.973,-0.573 -2.006,-0.588 -1.999,-0.55 -1.947,-0.484 -1.931,-0.438 -1.91,-0.422 -1.917,-0.411 -1.956,-0.448 -1.958,-0.468 -1.975,-0.489 -1.983,-0.484 -2.007,-0.504 -1.991,-0.503 -1.991,-0.518 -2.019,-0.544 -2.044,-0.601Z M-1.956,-0.442 -1.958,-0.456 -1.956,-0.442Z" fill="#e8efe2"/><path d="M-1.451,-0.265 -1.463,-0.189 -1.496,-0.194 -1.53,-0.227 -1.518,-0.23 -1.514,-0.242 -1.496,-0.244 -1.483,-0.26 -1.451,-0.265Z" fill="#e8efe2"/><path d="M-1.35,-0.152 -1.347,-0.14 -1.36,-0.127 -1.369,-0.141 -1.364,-0.147 -1.357,-0.142 -1.38,-0.158 -1.404,-0.144 -1.396,-0.131 -1.408,-0.127 -1.415,-0.138 -1.418,-0.134 -1.426,-0.143 -1.449,-0.146 -1.445,-0.168 -1.42,-0.154 -1.381,-0.167 -1.35,-0.152Z" fill="#e8efe2"/><path d="M-1.253,-0.32 -1.257,-0.33 -1.249,-0.355 -1.221,-0.35 -1.208,-0.343 -1.215,-0.34 -1.193,-0.331 -1.199,-0.323 -1.24,-0.324 -1.247,-0.313 -1.253,-0.32Z" fill="#e8efe2"/><path d="M-1.56,-0.254 -1.531,-0.244 -1.533,-0.234 -1.573,-0.242 -1.56,-0.254Z" fill="#e8efe2"/><path d="M-1.065,-0.178 -1.081,-0.177 -1.073,-0.18 -1.076,-0.188 -1.063,-0.19 -1.065,-0.178Z" fill="#e8efe2"/><path d="M-2.993,-1.452 -2.945,-1.439 -2.961,-1.425 -2.998,-1.443 -2.993,-1.452Z M-2.9,-1.33 -2.89,-1.314 -2.922,-1.324 -2.9,-1.33Z M-2.669,-1.243 -2.657,-1.235 -2.687,-1.209 -2.684,-1.217 -2.694,-1.214 -2.7,-1.228 -2.69,-1.238 -2.682,-1.227 -2.684,-1.245 -2.669,-1.243Z M-2.269,-1.182 -2.27,-1.163 -2.279,-1.147 -2.287,-1.159 -2.282,-1.163 -2.287,-1.188 -2.306,-1.172 -2.296,-1.192 -2.329,-1.222 -2.333,-1.237 -2.323,-1.235 -2.331,-1.244 -2.325,-1.245 -2.339,-1.251 -2.337,-1.266 -2.342,-1.257 -2.352,-1.264 -2.362,-1.297 -2.358,-1.257 -2.372,-1.262 -2.376,-1.284 -2.377,-1.275 -2.391,-1.284 -2.375,-1.264 -2.384,-1.257 -2.44,-1.301 -2.435,-1.315 -2.431,-1.303 -2.426,-1.311 -2.434,-1.317 -2.451,-1.307 -2.468,-1.321 -2.516,-1.318 -2.529,-1.329 -2.525,-1.341 -2.535,-1.33 -2.558,-1.343 -2.555,-1.357 -2.589,-1.355 -2.593,-1.345 -2.588,-1.338 -2.594,-1.334 -2.582,-1.334 -2.591,-1.316 -2.608,-1.321 -2.635,-1.291 -2.652,-1.292 -2.636,-1.309 -2.65,-1.309 -2.642,-1.342 -2.602,-1.348 -2.619,-1.359 -2.608,-1.371 -2.671,-1.327 -2.664,-1.318 -2.691,-1.288 -2.678,-1.274 -2.765,-1.199 -2.766,-1.187 -2.813,-1.166 -2.819,-1.173 -2.851,-1.149 -2.822,-1.182 -2.798,-1.179 -2.798,-1.195 -2.748,-1.233 -2.751,-1.251 -2.743,-1.255 -2.749,-1.263 -2.737,-1.287 -2.761,-1.269 -2.766,-1.281 -2.759,-1.282 -2.772,-1.282 -2.774,-1.262 -2.799,-1.284 -2.83,-1.27 -2.821,-1.286 -2.827,-1.288 -2.824,-1.303 -2.835,-1.327 -2.827,-1.342 -2.839,-1.326 -2.837,-1.317 -2.861,-1.31 -2.886,-1.336 -2.876,-1.348 -2.858,-1.338 -2.852,-1.344 -2.861,-1.347 -2.855,-1.349 -2.882,-1.35 -2.878,-1.356 -2.89,-1.356 -2.9,-1.376 -2.876,-1.407 -2.869,-1.435 -2.85,-1.429 -2.809,-1.452 -2.81,-1.476 -2.819,-1.483 -2.808,-1.498 -2.842,-1.481 -2.848,-1.492 -2.9,-1.489 -2.913,-1.513 -2.9,-1.518 -2.934,-1.534 -2.87,-1.574 -2.856,-1.573 -2.863,-1.558 -2.857,-1.552 -2.811,-1.557 -2.838,-1.587 -2.834,-1.59 -2.82,-1.568 -2.797,-1.567 -2.825,-1.579 -2.823,-1.593 -2.854,-1.597 -2.865,-1.62 -2.911,-1.655 -2.901,-1.68 -2.854,-1.694 -2.825,-1.752 -2.829,-1.744 -2.793,-1.766 -2.79,-1.75 -2.782,-1.762 -2.794,-1.768 -2.787,-1.777 -2.756,-1.78 -2.731,-1.81 -2.715,-1.794 -2.722,-1.779 -2.708,-1.793 -2.658,-1.78 -2.661,-1.769 -2.652,-1.759 -2.5,-1.742 -2.461,-1.718 -2.461,-1.327 -2.427,-1.329 -2.429,-1.32 -2.399,-1.279 -2.365,-1.31 -2.328,-1.263 -2.301,-1.204 -2.269,-1.182Z M-2.853,-1.154 -2.846,-1.144 -2.878,-1.14 -2.853,-1.154Z M-2.306,-1.188 -2.316,-1.191 -2.31,-1.201 -2.306,-1.188Z M-2.286,-1.169 -2.301,-1.161 -2.291,-1.184 -2.286,-1.169Z M-2.328,-1.217 -2.32,-1.213 -2.321,-1.205 -2.327,-1.211 -2.325,-1.199 -2.338,-1.217 -2.328,-1.217Z M-2.319,-1.151 -2.316,-1.145 -2.329,-1.163 -2.319,-1.151Z M-2.579,-1.31 -2.565,-1.327 -2.579,-1.31Z M-3.015,-1.333 -3.006,-1.327 -3.021,-1.334 -3.015,-1.333Z M-3.092,-1.058 -3.101,-1.058 -3.092,-1.058Z M3.132,-1.048 3.118,-1.056 3.132,-1.048Z M-2.356,-1.228 -2.351,-1.192 -2.364,-1.225 -2.37,-1.217 -2.365,-1.233 -2.356,-1.228Z M-2.351,-1.254 -2.336,-1.237 -2.344,-1.25 -2.337,-1.228 -2.348,-1.218 -2.355,-1.261 -2.351,-1.254Z M-2.369,-1.257 -2.355,-1.25 -2.362,-1.242 -2.355,-1.232 -2.372,-1.231 -2.384,-1.248 -2.369,-1.257Z M-2.331,-1.196 -2.307,-1.169 -2.315,-1.169 -2.303,-1.161 -2.304,-1.146 -2.333,-1.179 -2.325,-1.183 -2.334,-1.184 -2.331,-1.196Z M-2.339,-1.212 -2.334,-1.206 -2.342,-1.188 -2.345,-1.212 -2.339,-1.212Z M-2.66,-1.261 -2.653,-1.257 -2.677,-1.252 -2.66,-1.261Z M-2.931,-1.105 -2.951,-1.09 -2.937,-1.109 -2.931,-1.105Z M-2.908,-1.121 -2.901,-1.122 -2.929,-1.104 -2.908,-1.121Z M-3.029,-1.07 -3.02,-1.068 -3.037,-1.069 -3.029,-1.07Z M-3.049,-1.067 -3.06,-1.067 -3.037,-1.076 -3.049,-1.067Z M3.016,-1.095 3.027,-1.09 3.011,-1.093 3.016,-1.095Z M-2.715,-0.338 -2.724,-0.352 -2.72,-0.362 -2.702,-0.347 -2.715,-0.338Z M-2.731,-0.374 -2.723,-0.371 -2.73,-0.368 -2.731,-0.374Z M-2.754,-0.384 -2.762,-0.386 -2.754,-0.384Z M-1.304,-0.881 -1.237,-0.888 -1.208,-0.943 -1.184,-0.934 -1.183,-0.9 -1.169,-0.877 -1.196,-0.863 -1.2,-0.871 -1.207,-0.858 -1.225,-0.851 -1.24,-0.817 -1.229,-0.804 -1.222,-0.805 -1.224,-0.811 -1.221,-0.802 -1.242,-0.797 -1.246,-0.804 -1.248,-0.795 -1.273,-0.793 -1.291,-0.78 -1.291,-0.792 -1.293,-0.758 -1.305,-0.74 -1.318,-0.751 -1.31,-0.762 -1.319,-0.755 -1.31,-0.728 -1.325,-0.699 -1.321,-0.717 -1.332,-0.734 -1.324,-0.752 -1.336,-0.746 -1.332,-0.72 -1.348,-0.727 -1.344,-0.738 -1.348,-0.731 -1.331,-0.716 -1.335,-0.711 -1.346,-0.722 -1.332,-0.708 -1.334,-0.702 -1.34,-0.707 -1.331,-0.697 -1.348,-0.703 -1.326,-0.694 -1.318,-0.67 -1.326,-0.689 -1.323,-0.677 -1.339,-0.679 -1.322,-0.669 -1.329,-0.66 -1.345,-0.664 -1.335,-0.659 -1.343,-0.653 -1.334,-0.649 -1.351,-0.647 -1.36,-0.63 -1.41,-0.599 -1.422,-0.572 -1.397,-0.486 -1.405,-0.455 -1.416,-0.454 -1.426,-0.47 -1.428,-0.484 -1.444,-0.5 -1.438,-0.507 -1.446,-0.506 -1.443,-0.527 -1.461,-0.548 -1.489,-0.543 -1.494,-0.555 -1.522,-0.556 -1.518,-0.561 -1.536,-0.554 -1.536,-0.563 -1.538,-0.557 -1.577,-0.555 -1.56,-0.55 -1.566,-0.542 -1.554,-0.533 -1.56,-0.529 -1.574,-0.54 -1.574,-0.531 -1.588,-0.533 -1.604,-0.546 -1.61,-0.54 -1.638,-0.549 -1.654,-0.537 -1.65,-0.54 -1.658,-0.543 -1.663,-0.528 -1.68,-0.519 -1.676,-0.522 -1.687,-0.523 -1.683,-0.519 -1.696,-0.512 -1.701,-0.496 -1.706,-0.499 -1.695,-0.471 -1.7,-0.468 -1.73,-0.479 -1.737,-0.501 -1.77,-0.545 -1.791,-0.544 -1.802,-0.529 -1.822,-0.541 -1.832,-0.562 -1.858,-0.585 -1.889,-0.586 -1.889,-0.576 -1.938,-0.576 -2.002,-0.605 -2.044,-0.601 -2.05,-0.617 -2.068,-0.632 -2.106,-0.644 -2.105,-0.655 -2.138,-0.708 -2.137,-0.714 -2.131,-0.707 -2.135,-0.718 -2.121,-0.719 -2.147,-0.718 -2.17,-0.771 -2.165,-0.797 -2.174,-0.828 -2.164,-0.912 -2.151,-0.91 -2.165,-0.913 -2.161,-0.931 -2.167,-0.93 -2.177,-0.967 -2.143,-0.961 -2.149,-0.941 -2.139,-0.955 -2.139,-0.939 -2.147,-0.935 -2.142,-0.934 -2.133,-0.958 -2.143,-0.984 -1.661,-0.984 -1.657,-0.993 -1.651,-0.977 -1.597,-0.959 -1.543,-0.965 -1.468,-0.92 -1.466,-0.908 -1.441,-0.89 -1.434,-0.847 -1.451,-0.812 -1.443,-0.802 -1.38,-0.828 -1.382,-0.844 -1.376,-0.847 -1.341,-0.848 -1.304,-0.881Z M-1.266,-0.786 -1.255,-0.787 -1.292,-0.778 -1.261,-0.789 -1.266,-0.786Z M-1.696,-0.473 -1.7,-0.494 -1.696,-0.473Z M-1.4,-0.495 -1.404,-0.506 -1.4,-0.495Z" fill="#e8efe2"/><circle cx="-1.069" cy="-0.229" r="0.037" fill="#e8453c" stroke="#fff" stroke-width="0.0051"/></g></svg>