<svg xmlns="http://www.w3.org/2000/svg" viewBox="1.920 0.000 1.204 0.957" preserveAspectRatio="xMidYMid meet"><rect x="1.920" y="0.000" width="1.204" height="0.957" fill="#a9d2ea"/><g stroke="#7e96a9" stroke-width="0.0030" stroke-linejoin="round"><path d="M2.499,0.21 2.509,0.253 2.521,0.251 2.536,0.264 2.555,0.337 2.596,0.362 2.613,0.402 2.619,0.397 2.63,0.402 2.633,0.421 2.65,0.434 2.673,0.469 2.681,0.523 2.669,0.578 2.641,0.623 2.621,0.671 2.617,0.708 2.581,0.716 2.552,0.734 2.555,0.744 2.538,0.73 2.539,0.723 2.526,0.726 2.533,0.72 2.529,0.716 2.505,0.736 2.468,0.726 2.44,0.701 2.439,0.682 2.425,0.665 2.431,0.661 2.412,0.666 2.417,0.653 2.41,0.635 2.403,0.656 2.389,0.658 2.398,0.651 2.407,0.623 2.405,0.602 2.395,0.624 2.368,0.652 2.358,0.644 2.364,0.644 2.36,0.631 2.344,0.614 2.343,0.601 2.289,0.58 2.198,0.596 2.168,0.611 2.156,0.63 2.092,0.631 2.052,0.655 2.007,0.637 2.007,0.622 2.013,0.624 2.019,0.615 2.019,0.584 2.005,0.532 1.975,0.474 1.987,0.48 1.98,0.462 1.994,0.476 1.979,0.436 1.99,0.392 1.992,0.403 2.037,0.368 2.112,0.349 2.135,0.321 2.135,0.302 2.146,0.291 2.157,0.311 2.162,0.3 2.157,0.287 2.178,0.29 2.171,0.288 2.172,0.274 2.183,0.273 2.179,0.268 2.188,0.267 2.185,0.26 2.193,0.251 2.197,0.258 2.2,0.246 2.209,0.25 2.215,0.242 2.225,0.247 2.238,0.26 2.235,0.271 2.244,0.261 2.262,0.267 2.266,0.262 2.258,0.254 2.28,0.219 2.291,0.212 2.316,0.213 2.316,0.205 2.303,0.196 2.357,0.214 2.372,0.208 2.368,0.215 2.377,0.219 2.383,0.21 2.39,0.217 2.382,0.233 2.372,0.234 2.364,0.263 2.43,0.307 2.452,0.312 2.468,0.284 2.469,0.243 2.477,0.224 2.473,0.217 2.486,0.188 2.499,0.21Z M2.672,0.465 2.675,0.446 2.672,0.465Z M2.386,0.243 2.39,0.251 2.38,0.251 2.386,0.243Z M2.28,0.2 2.296,0.201 2.286,0.21 2.276,0.197 2.28,0.2Z M2.402,0.669 2.411,0.671 2.383,0.672 2.402,0.669Z M2.531,0.781 2.554,0.79 2.587,0.782 2.589,0.814 2.587,0.808 2.583,0.815 2.583,0.837 2.571,0.828 2.563,0.847 2.549,0.846 2.552,0.84 2.539,0.831 2.534,0.815 2.54,0.817 2.527,0.796 2.526,0.778 2.531,0.781Z" fill="#e8efe2"/><path d="M3.142,0.286 3.134,0.295 3.14,0.296 3.115,0.297 3.142,0.286Z M3.112,0.308 3.118,0.321 3.095,0.321 3.098,0.311 3.112,0.308Z" fill="#e8efe2"/><path d="M3.022,0.792 3.043,0.788 3.041,0.806 3.011,0.844 3.021,0.854 3.003,0.85 2.989,0.863 2.981,0.903 2.951,0.922 2.906,0.905 2.939,0.859 2.985,0.83 3.007,0.78 3.018,0.775 3.014,0.778 3.022,0.792Z M2.935,0.928 2.924,0.938 2.928,0.924 2.935,0.928Z M3.024,0.651 3.042,0.658 3.049,0.692 3.064,0.7 3.062,0.685 3.074,0.71 3.092,0.718 3.116,0.711 3.105,0.746 3.091,0.745 3.086,0.767 3.06,0.8 3.048,0.793 3.057,0.765 3.033,0.747 3.047,0.736 3.053,0.714 3.047,0.698 3.053,0.698 3.045,0.695 3.044,0.679 3.035,0.672 3.038,0.682 3.027,0.664 3.03,0.66 3.025,0.662 3.014,0.641 3.024,0.651Z M-3.075,0.851 -3.081,0.86 -3.087,0.853 -3.075,0.851Z" fill="#e8efe2"/><path d="M2.67,0.083 2.658,0.063 2.632,0.045 2.671,0.072 2.67,0.083Z M2.652,0.075 2.66,0.076 2.654,0.095 2.625,0.11 2.589,0.099 2.615,0.096 2.62,0.088 2.621,0.096 2.634,0.095 2.647,0.085 2.646,0.073 2.652,0.075Z M2.461,0.16 2.463,0.046 2.522,0.067 2.544,0.084 2.544,0.094 2.575,0.105 2.58,0.117 2.565,0.119 2.569,0.129 2.585,0.142 2.593,0.159 2.604,0.158 2.605,0.167 2.618,0.17 2.616,0.176 2.633,0.18 2.624,0.187 2.579,0.177 2.55,0.142 2.507,0.131 2.512,0.139 2.506,0.144 2.482,0.144 2.498,0.148 2.502,0.157 2.49,0.164 2.461,0.16Z M2.567,0.034 2.573,0.036 2.558,0.039 2.567,0.034Z M2.722,0.117 2.711,0.118 2.701,0.095 2.722,0.117Z" fill="#e8efe2"/><path d="M-2.992,0.248 -3.003,0.244 -2.992,0.248Z" fill="#e8efe2"/><path d="M2.803,0.207 2.793,0.202 2.803,0.207Z M2.753,0.144 2.754,0.151 2.744,0.145 2.749,0.14 2.753,0.144Z M2.788,0.163 2.807,0.173 2.79,0.172 2.788,0.163Z M2.79,0.149 2.766,0.132 2.79,0.149Z M2.749,0.128 2.731,0.116 2.749,0.128Z M2.806,0.146 2.816,0.169 2.806,0.157 2.806,0.146Z M2.823,0.182 2.834,0.19 2.815,0.179 2.823,0.182Z" fill="#e8efe2"/><path d="M2.91,0.262 2.911,0.268 2.916,0.264 2.916,0.275 2.908,0.272 2.907,0.258 2.91,0.262Z M2.922,0.285 2.929,0.291 2.923,0.293 2.918,0.281 2.922,0.285Z M2.94,0.297 2.934,0.296 2.94,0.297Z M2.937,0.289 2.931,0.287 2.937,0.289Z M2.94,0.311 2.941,0.316 2.935,0.314 2.94,0.311Z M2.936,0.282 2.935,0.273 2.936,0.282Z M2.935,0.271 2.934,0.265 2.935,0.271Z M2.958,0.348 2.954,0.344 2.958,0.348Z M2.955,0.337 2.95,0.331 2.955,0.337Z" fill="#e8453c"/></g></svg>