<svg xmlns="http://www.w3.org/2000/svg" viewBox="-0.332 -0.718 1.239 1.414" preserveAspectRatio="xMidYMid meet"><rect x="-0.332" y="-0.718" width="1.239" height="1.414" fill="#a9d2ea"/><g stroke="#7e96a9" stroke-width="0.0035" stroke-linejoin="round"><path d="M0.15,-0.695 0.143,-0.686 0.144,-0.647 0.131,-0.628 0.158,-0.591 0.171,-0.533 0.172,-0.482 0.164,-0.473 0.179,-0.443 0.201,-0.438 0.209,-0.423 0.131,-0.373 0.102,-0.347 0.057,-0.338 0.055,-0.354 0.031,-0.363 0.02,-0.377 -0.151,-0.495 -0.151,-0.523 -0.144,-0.529 -0.065,-0.568 -0.066,-0.584 -0.021,-0.592 -0.031,-0.647 -0.039,-0.655 0.022,-0.686 0.066,-0.694 0.093,-0.688 0.113,-0.698 0.15,-0.695Z" fill="#e8efe2"/><path d="M0.228,0.081 0.213,0.101 0.21,0.087 0.223,0.077 0.228,0.081Z M0.418,0.191 0.418,0.229 0.384,0.229 0.385,0.288 0.408,0.313 0.362,0.32 0.321,0.308 0.245,0.309 0.23,0.301 0.205,0.306 0.205,0.28 0.219,0.237 0.237,0.216 0.242,0.194 0.227,0.159 0.234,0.147 0.215,0.106 0.287,0.103 0.307,0.142 0.338,0.14 0.347,0.122 0.38,0.128 0.388,0.195 0.418,0.191Z" fill="#e8efe2"/><path d="M0.441,0.316 0.457,0.348 0.483,0.366 0.488,0.385 0.512,0.397 0.474,0.423 0.444,0.465 0.402,0.457 0.384,0.483 0.362,0.487 0.363,0.469 0.349,0.447 0.349,0.394 0.366,0.394 0.366,0.325 0.405,0.319 0.412,0.328 0.441,0.316Z" fill="#e8efe2"/><path d="M0.016,-0.193 -0.049,-0.193 -0.048,-0.165 -0.056,-0.174 -0.081,-0.17 -0.096,-0.183 -0.092,-0.208 -0.077,-0.217 -0.072,-0.234 -0.058,-0.234 -0.045,-0.251 -0.012,-0.266 0.004,-0.263 0.008,-0.246 0.021,-0.235 0.017,-0.23 0.039,-0.221 0.04,-0.205 0.016,-0.193Z" fill="#e8efe2"/><path d="M0.533,0.042 0.537,0.057 0.513,0.078 0.507,0.045 0.518,0.049 0.522,0.041 0.533,0.042Z" fill="#e8efe2"/><path d="M0.028,-0.109 0.028,-0.159 0.014,-0.188 0.05,-0.218 0.063,-0.206 0.067,-0.186 0.048,-0.159 0.047,-0.111 0.028,-0.109Z" fill="#e8efe2"/><path d="M0.149,-0.083 0.158,-0.105 0.177,-0.122 0.187,-0.122 0.195,-0.113 0.201,-0.117 0.239,-0.191 0.254,-0.203 0.245,-0.23 0.253,-0.229 0.263,-0.208 0.264,-0.187 0.273,-0.176 0.244,-0.17 0.272,-0.136 0.252,-0.106 0.263,-0.069 0.28,-0.051 0.282,-0.03 0.254,-0.038 0.172,-0.039 0.169,-0.071 0.157,-0.071 0.149,-0.083Z" fill="#e8efe2"/><path d="M0.194,0.068 0.201,0.061 0.207,0.064 0.203,0.041 0.217,0.041 0.22,0.032 0.227,0.04 0.24,0.037 0.244,0.043 0.251,0.033 0.253,0.01 0.242,0.003 0.252,-0.016 0.247,-0.024 0.23,-0.022 0.232,-0.038 0.254,-0.038 0.28,-0.029 0.29,-0.061 0.323,-0.063 0.31,0.01 0.283,0.038 0.277,0.069 0.257,0.085 0.25,0.075 0.234,0.085 0.223,0.077 0.21,0.087 0.194,0.068Z" fill="#e8efe2"/><path d="M0.537,0.143 0.504,0.149 0.496,0.162 0.497,0.208 0.507,0.217 0.52,0.214 0.52,0.237 0.508,0.236 0.474,0.203 0.468,0.21 0.454,0.209 0.442,0.204 0.441,0.197 0.426,0.201 0.418,0.191 0.389,0.197 0.38,0.128 0.347,0.122 0.338,0.14 0.307,0.142 0.287,0.103 0.213,0.101 0.228,0.08 0.234,0.085 0.251,0.075 0.257,0.085 0.279,0.066 0.283,0.038 0.31,0.01 0.324,-0.076 0.333,-0.085 0.344,-0.089 0.359,-0.078 0.391,-0.072 0.399,-0.082 0.446,-0.093 0.473,-0.091 0.492,-0.076 0.518,-0.08 0.539,-0.06 0.536,-0.043 0.546,-0.038 0.523,-0.014 0.516,0.024 0.504,0.043 0.51,0.053 0.516,0.11 0.537,0.143Z" fill="#e8efe2"/><path d="M-0.139,-0.178 -0.131,-0.183 -0.123,-0.178 -0.109,-0.188 -0.107,-0.179 -0.097,-0.183 -0.081,-0.17 -0.056,-0.174 -0.047,-0.166 -0.044,-0.144 -0.057,-0.119 -0.049,-0.09 -0.092,-0.091 -0.132,-0.076 -0.13,-0.102 -0.15,-0.114 -0.148,-0.132 -0.14,-0.141 -0.144,-0.148 -0.134,-0.147 -0.142,-0.167 -0.139,-0.178Z" fill="#e8efe2"/><path d="M0.755,-0.202 0.749,-0.193 0.73,-0.193 0.729,-0.205 0.741,-0.22 0.753,-0.224 0.757,-0.213 0.742,-0.203 0.755,-0.202Z" fill="#e8efe2"/><path d="M0.558,0.469 0.558,0.496 0.542,0.492 0.537,0.479 0.543,0.47 0.558,0.469Z" fill="#e8efe2"/><path d="M0.232,-0.038 0.23,-0.022 0.247,-0.024 0.252,-0.016 0.242,0.003 0.253,0.01 0.251,0.033 0.244,0.043 0.24,0.037 0.227,0.04 0.22,0.032 0.217,0.041 0.203,0.041 0.207,0.064 0.201,0.061 0.194,0.068 0.168,0.041 0.158,0.023 0.166,0.027 0.152,0.01 0.162,0.006 0.163,-0.006 0.175,-0.003 0.163,-0.01 0.167,-0.018 0.198,-0.017 0.198,-0.04 0.232,-0.038Z" fill="#e8efe2"/><path d="M-0.289,-0.239 -0.262,-0.243 -0.241,-0.236 -0.264,-0.239 -0.293,-0.23 -0.291,-0.237 -0.269,-0.237 -0.289,-0.239Z" fill="#e8efe2"/><path d="M-0.001,-0.195 0.012,-0.146 0.009,-0.12 0.021,-0.106 -0.035,-0.083 -0.054,-0.089 -0.048,-0.095 -0.057,-0.119 -0.044,-0.144 -0.049,-0.193 -0.001,-0.195Z" fill="#e8efe2"/><path d="M-0.179,-0.149 -0.187,-0.146 -0.186,-0.163 -0.196,-0.175 -0.217,-0.174 -0.232,-0.159 -0.239,-0.174 -0.263,-0.19 -0.256,-0.202 -0.24,-0.206 -0.24,-0.223 -0.2,-0.218 -0.187,-0.209 -0.158,-0.218 -0.147,-0.2 -0.151,-0.193 -0.139,-0.18 -0.142,-0.167 -0.134,-0.147 -0.144,-0.148 -0.144,-0.132 -0.151,-0.135 -0.159,-0.126 -0.165,-0.13 -0.166,-0.146 -0.179,-0.149Z" fill="#e8efe2"/><path d="M0.198,-0.038 0.198,-0.017 0.164,-0.02 0.171,-0.04 0.198,-0.038Z" fill="#e8efe2"/><path d="M-0.292,-0.217 -0.265,-0.223 -0.239,-0.22 -0.243,-0.215 -0.24,-0.206 -0.256,-0.202 -0.262,-0.192 -0.27,-0.2 -0.263,-0.204 -0.271,-0.206 -0.263,-0.21 -0.276,-0.207 -0.292,-0.217Z" fill="#e8efe2"/><path d="M0.592,0.017 0.592,-0.003 0.611,-0.03 0.593,-0.074 0.616,-0.096 0.624,-0.093 0.629,-0.078 0.644,-0.077 0.665,-0.064 0.69,-0.061 0.712,-0.075 0.731,-0.07 0.715,-0.049 0.715,0.015 0.725,0.03 0.702,0.047 0.687,0.081 0.659,0.064 0.657,0.053 0.592,0.017Z" fill="#e8efe2"/><path d="M0.502,0.551 0.484,0.561 0.472,0.542 0.5,0.521 0.513,0.535 0.502,0.551Z" fill="#e8efe2"/><path d="M-0.201,-0.121 -0.179,-0.149 -0.169,-0.148 -0.165,-0.13 -0.155,-0.127 -0.15,-0.134 -0.145,-0.122 -0.15,-0.114 -0.13,-0.102 -0.132,-0.076 -0.159,-0.088 -0.201,-0.121Z" fill="#e8efe2"/><path d="M0.166,-0.554 0.178,-0.565 0.179,-0.583 0.201,-0.598 0.201,-0.614 0.265,-0.598 0.276,-0.577 0.334,-0.555 0.351,-0.569 0.35,-0.592 0.368,-0.606 0.387,-0.609 0.406,-0.594 0.435,-0.589 0.431,-0.553 0.436,-0.533 0.436,-0.356 0.419,-0.356 0.419,-0.347 0.279,-0.421 0.248,-0.405 0.209,-0.423 0.201,-0.438 0.18,-0.442 0.164,-0.473 0.172,-0.481 0.173,-0.505 0.166,-0.554Z" fill="#e8efe2"/><path d="M0.865,0.219 0.881,0.272 0.876,0.282 0.867,0.274 0.869,0.298 0.823,0.447 0.789,0.462 0.769,0.451 0.755,0.401 0.775,0.355 0.768,0.308 0.776,0.287 0.81,0.282 0.826,0.261 0.829,0.265 0.837,0.259 0.836,0.242 0.852,0.234 0.852,0.219 0.859,0.212 0.865,0.219Z" fill="#e8efe2"/><path d="M0.579,0.247 0.57,0.239 0.585,0.217 0.58,0.191 0.587,0.185 0.575,0.165 0.593,0.167 0.602,0.176 0.61,0.203 0.6,0.214 0.603,0.235 0.626,0.263 0.616,0.303 0.598,0.281 0.602,0.258 0.587,0.257 0.579,0.247Z" fill="#e8efe2"/><path d="M-0.199,-0.218 -0.214,-0.261 -0.201,-0.276 -0.191,-0.268 -0.163,-0.277 -0.096,-0.274 -0.115,-0.451 -0.084,-0.451 0.02,-0.377 0.031,-0.363 0.055,-0.354 0.054,-0.34 0.074,-0.34 0.073,-0.294 0.061,-0.271 -0.012,-0.266 -0.045,-0.251 -0.058,-0.234 -0.076,-0.231 -0.077,-0.217 -0.092,-0.208 -0.096,-0.183 -0.105,-0.179 -0.109,-0.188 -0.123,-0.178 -0.131,-0.183 -0.139,-0.178 -0.159,-0.219 -0.186,-0.209 -0.191,-0.215 -0.197,-0.211 -0.199,-0.218Z" fill="#e8efe2"/><path d="M-0.039,-0.655 -0.031,-0.647 -0.021,-0.592 -0.066,-0.584 -0.065,-0.568 -0.144,-0.529 -0.151,-0.523 -0.153,-0.492 -0.199,-0.487 -0.217,-0.448 -0.242,-0.426 -0.257,-0.384 -0.297,-0.383 -0.278,-0.429 -0.26,-0.445 -0.252,-0.475 -0.237,-0.485 -0.226,-0.508 -0.202,-0.516 -0.178,-0.537 -0.169,-0.552 -0.171,-0.578 -0.161,-0.602 -0.12,-0.631 -0.103,-0.67 -0.092,-0.672 -0.081,-0.657 -0.052,-0.662 -0.039,-0.655Z" fill="#e8efe2"/><path d="M-0.214,-0.261 -0.254,-0.295 -0.283,-0.293 -0.289,-0.28 -0.28,-0.323 -0.288,-0.345 -0.283,-0.361 -0.295,-0.377 -0.298,-0.371 -0.296,-0.381 -0.227,-0.381 -0.23,-0.409 -0.21,-0.422 -0.21,-0.47 -0.151,-0.47 -0.151,-0.495 -0.084,-0.451 -0.115,-0.451 -0.096,-0.274 -0.163,-0.277 -0.191,-0.268 -0.201,-0.276 -0.214,-0.261Z" fill="#e8efe2"/><path d="M0.546,0.401 0.566,0.381 0.576,0.356 0.571,0.337 0.575,0.296 0.531,0.283 0.528,0.265 0.579,0.247 0.587,0.257 0.6,0.254 0.598,0.281 0.616,0.303 0.626,0.263 0.603,0.235 0.604,0.204 0.655,0.205 0.706,0.184 0.713,0.26 0.708,0.273 0.695,0.291 0.655,0.312 0.635,0.334 0.605,0.351 0.62,0.399 0.619,0.433 0.611,0.444 0.572,0.463 0.574,0.487 0.56,0.487 0.558,0.44 0.546,0.401Z" fill="#e8efe2"/><path d="M0.408,0.313 0.441,0.316 0.412,0.328 0.405,0.319 0.366,0.325 0.366,0.394 0.349,0.394 0.349,0.518 0.334,0.528 0.316,0.527 0.305,0.523 0.298,0.51 0.287,0.522 0.267,0.495 0.253,0.436 0.252,0.402 0.206,0.319 0.205,0.306 0.23,0.301 0.245,0.309 0.321,0.308 0.362,0.32 0.408,0.313Z" fill="#e8efe2"/><path d="M0.238,-0.241 0.217,-0.23 0.183,-0.235 0.168,-0.225 0.137,-0.235 0.121,-0.229 0.11,-0.241 0.081,-0.242 0.064,-0.22 0.063,-0.206 0.05,-0.218 0.042,-0.209 0.037,-0.223 0.018,-0.229 0.021,-0.235 0.003,-0.256 0.004,-0.264 0.023,-0.27 0.061,-0.271 0.073,-0.294 0.074,-0.34 0.102,-0.347 0.131,-0.373 0.209,-0.423 0.248,-0.405 0.261,-0.413 0.265,-0.385 0.279,-0.363 0.27,-0.3 0.235,-0.254 0.238,-0.241Z" fill="#e8efe2"/><path d="M0.238,-0.241 0.255,-0.214 0.254,-0.203 0.239,-0.191 0.199,-0.114 0.177,-0.122 0.158,-0.105 0.145,-0.08 0.124,-0.082 0.121,-0.077 0.118,-0.082 0.12,-0.076 0.108,-0.075 0.098,-0.081 0.097,-0.096 0.091,-0.097 0.095,-0.098 0.077,-0.111 0.047,-0.111 0.048,-0.159 0.066,-0.183 0.064,-0.22 0.077,-0.241 0.096,-0.244 0.121,-0.229 0.137,-0.235 0.168,-0.225 0.183,-0.235 0.217,-0.23 0.238,-0.241Z" fill="#e8efe2"/><path d="M0.592,0.017 0.538,0.017 0.516,0.024 0.523,-0.014 0.545,-0.036 0.536,-0.043 0.544,-0.066 0.561,-0.061 0.585,-0.066 0.593,-0.074 0.601,-0.064 0.611,-0.03 0.592,-0.003 0.592,0.017Z" fill="#e8efe2"/><path d="M0.516,0.024 0.532,0.019 0.538,0.041 0.505,0.047 0.516,0.024Z" fill="#e8efe2"/><path d="M0.421,-0.152 0.46,-0.116 0.478,-0.089 0.446,-0.093 0.399,-0.082 0.391,-0.072 0.359,-0.078 0.34,-0.09 0.324,-0.076 0.325,-0.061 0.291,-0.062 0.282,-0.04 0.257,-0.08 0.252,-0.106 0.27,-0.132 0.324,-0.141 0.334,-0.152 0.33,-0.156 0.36,-0.163 0.385,-0.19 0.399,-0.192 0.413,-0.172 0.411,-0.155 0.421,-0.152Z" fill="#e8efe2"/><path d="M-0.179,-0.149 -0.201,-0.121 -0.224,-0.137 -0.232,-0.159 -0.217,-0.174 -0.197,-0.175 -0.186,-0.163 -0.187,-0.146 -0.179,-0.149Z" fill="#e8efe2"/><path d="M0.725,0.03 0.715,0.015 0.715,-0.05 0.733,-0.072 0.76,-0.085 0.784,-0.086 0.837,-0.14 0.854,-0.166 0.854,-0.198 0.886,-0.211 0.894,-0.208 0.891,-0.183 0.897,-0.182 0.889,-0.181 0.887,-0.165 0.837,-0.079 0.804,-0.043 0.759,-0.011 0.725,0.03Z" fill="#e8efe2"/><path d="M0.595,-0.166 0.592,-0.179 0.578,-0.189 0.579,-0.215 0.571,-0.215 0.56,-0.211 0.566,-0.195 0.544,-0.171 0.524,-0.18 0.503,-0.164 0.465,-0.166 0.45,-0.183 0.437,-0.18 0.428,-0.156 0.411,-0.155 0.413,-0.172 0.399,-0.192 0.39,-0.223 0.381,-0.225 0.4,-0.274 0.418,-0.278 0.419,-0.356 0.436,-0.356 0.436,-0.394 0.644,-0.394 0.654,-0.335 0.674,-0.32 0.646,-0.302 0.631,-0.225 0.613,-0.208 0.61,-0.191 0.599,-0.187 0.595,-0.166Z" fill="#e8efe2"/><path d="M0.593,-0.074 0.585,-0.066 0.561,-0.061 0.544,-0.066 0.538,-0.061 0.516,-0.081 0.49,-0.077 0.46,-0.116 0.423,-0.147 0.437,-0.18 0.451,-0.183 0.463,-0.167 0.49,-0.164 0.503,-0.164 0.524,-0.18 0.544,-0.171 0.566,-0.195 0.56,-0.211 0.579,-0.215 0.578,-0.189 0.592,-0.179 0.595,-0.152 0.581,-0.148 0.576,-0.138 0.606,-0.117 0.616,-0.096 0.593,-0.074Z" fill="#e8efe2"/><path d="M-0.214,-0.261 -0.199,-0.218 -0.265,-0.223 -0.292,-0.217 -0.291,-0.232 -0.242,-0.237 -0.262,-0.243 -0.289,-0.239 -0.306,-0.261 -0.294,-0.27 -0.283,-0.293 -0.262,-0.295 -0.236,-0.285 -0.214,-0.261Z" fill="#e8efe2"/><path d="M0.689,0.108 0.69,0.113 0.684,0.108 0.686,0.1 0.689,0.108Z M0.575,0.165 0.541,0.15 0.516,0.11 0.513,0.078 0.523,0.075 0.538,0.056 0.531,0.049 0.539,0.037 0.533,0.019 0.593,0.017 0.657,0.053 0.656,0.061 0.685,0.082 0.677,0.106 0.69,0.123 0.686,0.148 0.693,0.175 0.706,0.184 0.655,0.205 0.61,0.203 0.599,0.171 0.575,0.165Z" fill="#e8efe2"/><path d="M0.419,-0.347 0.418,-0.278 0.4,-0.274 0.381,-0.225 0.39,-0.223 0.399,-0.192 0.38,-0.187 0.355,-0.16 0.331,-0.157 0.324,-0.141 0.27,-0.132 0.264,-0.15 0.244,-0.17 0.273,-0.176 0.264,-0.187 0.259,-0.22 0.245,-0.23 0.235,-0.254 0.27,-0.3 0.279,-0.363 0.265,-0.385 0.261,-0.413 0.279,-0.421 0.419,-0.347Z" fill="#e8efe2"/><path d="M0.016,-0.193 0.013,-0.182 0.023,-0.175 0.028,-0.159 0.031,-0.11 0.021,-0.106 0.009,-0.12 0.009,-0.165 0.004,-0.166 0.007,-0.181 -0.002,-0.187 -0.001,-0.195 0.016,-0.193Z" fill="#e8efe2"/><path d="M0.201,-0.614 0.201,-0.598 0.179,-0.583 0.178,-0.565 0.166,-0.554 0.157,-0.592 0.131,-0.628 0.144,-0.647 0.143,-0.686 0.15,-0.695 0.169,-0.703 0.182,-0.69 0.193,-0.698 0.183,-0.678 0.194,-0.658 0.175,-0.635 0.201,-0.614Z" fill="#e8efe2"/><path d="M0.531,0.276 0.506,0.282 0.502,0.293 0.467,0.32 0.435,0.311 0.408,0.313 0.385,0.288 0.384,0.229 0.418,0.229 0.418,0.191 0.426,0.201 0.441,0.197 0.442,0.204 0.454,0.209 0.468,0.21 0.474,0.203 0.506,0.235 0.52,0.237 0.52,0.214 0.507,0.217 0.495,0.203 0.5,0.185 0.496,0.162 0.504,0.149 0.537,0.143 0.579,0.169 0.587,0.186 0.58,0.191 0.585,0.217 0.57,0.239 0.579,0.247 0.528,0.265 0.531,0.276Z" fill="#e8efe2"/><path d="M0.546,0.401 0.512,0.397 0.489,0.385 0.483,0.366 0.457,0.348 0.441,0.316 0.472,0.319 0.502,0.293 0.505,0.283 0.519,0.276 0.575,0.296 0.571,0.337 0.576,0.356 0.566,0.381 0.546,0.401Z" fill="#e8efe2"/><path d="M0.644,-0.394 0.436,-0.394 0.434,-0.576 0.452,-0.582 0.507,-0.566 0.542,-0.582 0.557,-0.581 0.56,-0.571 0.597,-0.576 0.609,-0.539 0.597,-0.505 0.58,-0.521 0.568,-0.549 0.565,-0.542 0.624,-0.431 0.62,-0.427 0.623,-0.412 0.644,-0.394Z" fill="#e8efe2"/><path d="M0.637,-0.251 0.646,-0.302 0.674,-0.32 0.694,-0.267 0.696,-0.273 0.719,-0.258 0.753,-0.224 0.74,-0.219 0.701,-0.255 0.671,-0.255 0.661,-0.262 0.655,-0.249 0.65,-0.255 0.637,-0.251Z" fill="#e8efe2"/><path d="M0.616,-0.096 0.606,-0.117 0.576,-0.139 0.581,-0.148 0.595,-0.15 0.598,-0.185 0.61,-0.191 0.613,-0.208 0.631,-0.225 0.637,-0.251 0.65,-0.255 0.655,-0.249 0.661,-0.262 0.671,-0.255 0.682,-0.258 0.712,-0.249 0.74,-0.219 0.729,-0.205 0.73,-0.193 0.749,-0.193 0.748,-0.179 0.768,-0.158 0.837,-0.14 0.784,-0.086 0.76,-0.085 0.731,-0.07 0.712,-0.075 0.689,-0.06 0.629,-0.078 0.624,-0.093 0.616,-0.096Z" fill="#e8efe2"/><path d="M0.512,0.397 0.546,0.401 0.558,0.439 0.558,0.469 0.545,0.467 0.538,0.486 0.554,0.496 0.558,0.486 0.574,0.487 0.565,0.519 0.529,0.569 0.486,0.612 0.446,0.633 0.394,0.632 0.349,0.648 0.327,0.633 0.322,0.639 0.312,0.607 0.32,0.6 0.318,0.585 0.287,0.522 0.295,0.511 0.305,0.523 0.336,0.527 0.349,0.518 0.349,0.447 0.363,0.469 0.361,0.486 0.379,0.487 0.402,0.457 0.444,0.465 0.474,0.423 0.512,0.397Z M0.502,0.551 0.513,0.535 0.5,0.521 0.472,0.542 0.484,0.561 0.502,0.551Z M0.661,0.93 0.656,0.929 0.661,0.93Z" fill="#e8453c"/></g></svg>