<svg xmlns="http://www.w3.org/2000/svg" viewBox="-0.332 -0.718 1.239 1.414" preserveAspectRatio="xMidYMid meet"><rect x="-0.332" y="-0.718" width="1.239" height="1.414" fill="#a9d2ea"/><g stroke="#7e96a9" stroke-width="0.0035" stroke-linejoin="round"><path d="M0.5124,0.3973 0.5461,0.4013 0.558,0.439 0.5576,0.4694 0.5447,0.4671 0.5377,0.4856 0.554,0.4958 0.5583,0.4862 0.574,0.4868 0.5651,0.5193 0.5287,0.569 0.4862,0.6118 0.4463,0.6325 0.3936,0.6319 0.3494,0.6484 0.3272,0.6333 0.3222,0.639 0.3115,0.6072 0.3199,0.6004 0.3178,0.5847 0.2871,0.5217 0.2955,0.5108 0.3046,0.5233 0.336,0.5273 0.3487,0.5183 0.3487,0.4466 0.3629,0.4687 0.3611,0.4862 0.3786,0.4866 0.4018,0.457 0.444,0.4646 0.4739,0.4225 0.5124,0.3973Z M0.5016,0.5513 0.513,0.5346 0.4997,0.5209 0.4721,0.5425 0.4843,0.5614 0.5016,0.5513Z" fill="#e8efe2"/><path d="M0.1497,-0.6947 0.1433,-0.6855 0.144,-0.6471 0.1309,-0.6281 0.1578,-0.5915 0.1712,-0.5328 0.1724,-0.4825 0.1644,-0.4731 0.1791,-0.443 0.2009,-0.4376 0.2089,-0.4225 0.1306,-0.3726 0.1019,-0.3467 0.0569,-0.338 0.0546,-0.3536 0.0305,-0.3625 0.0201,-0.3769 -0.1515,-0.4954 -0.1515,-0.5231 -0.1443,-0.5289 -0.0646,-0.5683 -0.0658,-0.5837 -0.0215,-0.5923 -0.0312,-0.6469 -0.0387,-0.655 0.022,-0.6855 0.066,-0.6938 0.0925,-0.6884 0.1133,-0.698 0.1497,-0.6947Z" fill="#e8efe2"/><path d="M0.2281,0.0809 0.2131,0.1007 0.2098,0.0874 0.2234,0.0774 0.2281,0.0809Z M0.4184,0.1909 0.4182,0.2287 0.3836,0.2289 0.3847,0.2877 0.4081,0.3129 0.3622,0.3198 0.3211,0.3085 0.2447,0.3086 0.23,0.3006 0.2049,0.3057 0.2051,0.2799 0.219,0.2368 0.2374,0.2162 0.2417,0.1941 0.2269,0.1586 0.2335,0.1466 0.2147,0.1065 0.2868,0.1032 0.3068,0.1418 0.3375,0.1396 0.347,0.1223 0.3801,0.1279 0.388,0.1953 0.4184,0.1909Z" fill="#e8efe2"/><path d="M0.4409,0.3156 0.4568,0.3478 0.4831,0.3657 0.4882,0.3846 0.5124,0.3973 0.4739,0.4225 0.444,0.4646 0.4025,0.4569 0.3841,0.4827 0.362,0.4868 0.3629,0.4687 0.3487,0.4466 0.3487,0.3938 0.366,0.3938 0.366,0.3253 0.4053,0.3195 0.4119,0.3279 0.4409,0.3156Z" fill="#e8efe2"/><path d="M0.0157,-0.193 -0.0494,-0.1932 -0.0483,-0.1652 -0.0562,-0.1737 -0.0808,-0.1703 -0.0963,-0.1831 -0.0923,-0.208 -0.0773,-0.2171 -0.0724,-0.2344 -0.0576,-0.2339 -0.0452,-0.251 -0.0117,-0.2661 0.0038,-0.2632 0.0075,-0.2463 0.0209,-0.2353 0.0173,-0.2296 0.0386,-0.2206 0.04,-0.2055 0.0157,-0.193Z" fill="#e8efe2"/><path d="M0.5332,0.0419 0.5374,0.0571 0.5131,0.0777 0.5072,0.0454 0.5184,0.0487 0.5224,0.0409 0.5332,0.0419Z" fill="#e8efe2"/><path d="M0.0283,-0.1088 0.0279,-0.1586 0.0138,-0.188 0.0503,-0.2176 0.0628,-0.2056 0.0668,-0.1862 0.0483,-0.1586 0.0473,-0.1114 0.0283,-0.1088Z" fill="#e8efe2"/><path d="M0.1494,-0.0832 0.1581,-0.1051 0.177,-0.1225 0.1874,-0.1223 0.1946,-0.1126 0.2012,-0.1165 0.2391,-0.1909 0.2545,-0.2026 0.2454,-0.2303 0.2534,-0.2285 0.2632,-0.2083 0.2641,-0.187 0.2731,-0.1756 0.244,-0.1699 0.2716,-0.1355 0.2519,-0.1056 0.2628,-0.069 0.2803,-0.0508 0.2817,-0.03 0.2545,-0.0384 0.1723,-0.0386 0.1691,-0.0709 0.1571,-0.0714 0.1494,-0.0832Z" fill="#e8efe2"/><path d="M0.1943,0.0685 0.2007,0.0615 0.2073,0.0641 0.2026,0.0409 0.2173,0.0407 0.2204,0.0319 0.2267,0.0403 0.2396,0.0374 0.2442,0.0435 0.251,0.033 0.2525,0.0099 0.2419,0.0035 0.2519,-0.0157 0.2475,-0.0239 0.2302,-0.0223 0.232,-0.0377 0.2545,-0.0384 0.2803,-0.0293 0.2899,-0.0613 0.3229,-0.0629 0.3098,0.0096 0.2831,0.0381 0.277,0.0686 0.2567,0.0853 0.2499,0.0751 0.234,0.0846 0.2234,0.0774 0.2098,0.0874 0.1943,0.0685Z" fill="#e8efe2"/><path d="M0.5367,0.1434 0.5044,0.1487 0.4957,0.1616 0.4971,0.2076 0.5072,0.2172 0.5201,0.2138 0.5198,0.2368 0.5081,0.236 0.474,0.2035 0.4681,0.2105 0.4543,0.209 0.4424,0.2042 0.4414,0.1969 0.4255,0.2006 0.4184,0.1909 0.3889,0.1966 0.3801,0.1279 0.347,0.1223 0.3375,0.1396 0.3068,0.1418 0.2868,0.1032 0.2131,0.1007 0.2285,0.0804 0.234,0.0846 0.2506,0.0751 0.2567,0.0853 0.2791,0.0658 0.2831,0.0381 0.3098,0.0096 0.3245,-0.076 0.3328,-0.0855 0.3437,-0.0895 0.3588,-0.0779 0.3913,-0.0721 0.399,-0.0825 0.4456,-0.0928 0.4732,-0.0909 0.492,-0.076 0.518,-0.0802 0.5393,-0.0604 0.5363,-0.0429 0.5458,-0.0375 0.5226,-0.0143 0.5163,0.0243 0.5037,0.0428 0.51,0.0533 0.5156,0.1104 0.5367,0.1434Z" fill="#e8efe2"/><path d="M-0.1395,-0.1783 -0.1309,-0.1832 -0.1225,-0.1779 -0.1091,-0.1882 -0.1068,-0.179 -0.097,-0.1832 -0.0808,-0.1703 -0.0562,-0.1737 -0.0471,-0.1662 -0.0438,-0.1438 -0.0565,-0.1191 -0.0492,-0.09 -0.0922,-0.0911 -0.1316,-0.076 -0.13,-0.1021 -0.1501,-0.1139 -0.1482,-0.1323 -0.1398,-0.1415 -0.1438,-0.1482 -0.134,-0.1473 -0.1421,-0.1666 -0.1395,-0.1783Z" fill="#e8efe2"/><path d="M0.7549,-0.2021 0.7491,-0.1932 0.7295,-0.1928 0.7294,-0.2055 0.7409,-0.2203 0.7526,-0.2237 0.7571,-0.2126 0.7421,-0.2033 0.7549,-0.2021Z" fill="#e8efe2"/><path d="M0.5576,0.4694 0.5578,0.4958 0.5421,0.4919 0.5374,0.4792 0.5426,0.4698 0.5576,0.4694Z" fill="#e8efe2"/><path d="M0.232,-0.0377 0.2302,-0.0223 0.2475,-0.0239 0.2519,-0.0157 0.2419,0.0035 0.2525,0.0099 0.251,0.033 0.2442,0.0435 0.2396,0.0374 0.2267,0.0403 0.2204,0.0319 0.2173,0.0407 0.2026,0.0409 0.2073,0.0641 0.2007,0.0615 0.1943,0.0685 0.1679,0.0414 0.1578,0.0229 0.1658,0.0272 0.1518,0.0103 0.1623,0.0061 0.1632,-0.0059 0.1745,-0.0033 0.1627,-0.0096 0.1674,-0.018 0.1979,-0.0175 0.1981,-0.0402 0.232,-0.0377Z" fill="#e8efe2"/><path d="M-0.289,-0.2394 -0.2621,-0.2434 -0.2414,-0.2362 -0.2644,-0.2389 -0.2925,-0.2299 -0.2909,-0.2373 -0.2693,-0.2373 -0.289,-0.2394Z" fill="#e8efe2"/><path d="M-0.0012,-0.1953 0.012,-0.1463 0.0093,-0.1198 0.0208,-0.1065 -0.0349,-0.0832 -0.0543,-0.089 -0.048,-0.0949 -0.0565,-0.1191 -0.0438,-0.1438 -0.0494,-0.1932 -0.0012,-0.1953Z" fill="#e8efe2"/><path d="M-0.1794,-0.1487 -0.1869,-0.1461 -0.1864,-0.1629 -0.1957,-0.1751 -0.2169,-0.1737 -0.232,-0.1586 -0.2389,-0.1742 -0.2627,-0.1902 -0.2562,-0.2023 -0.2396,-0.2064 -0.2396,-0.223 -0.2,-0.2185 -0.1869,-0.2092 -0.1578,-0.2181 -0.1466,-0.1998 -0.1513,-0.1934 -0.1391,-0.1795 -0.1421,-0.1666 -0.134,-0.1473 -0.1438,-0.1482 -0.1436,-0.1323 -0.1511,-0.1346 -0.1592,-0.1263 -0.1651,-0.1299 -0.1662,-0.1463 -0.1794,-0.1487Z" fill="#e8efe2"/><path d="M0.1977,-0.0379 0.1979,-0.0175 0.1639,-0.0199 0.171,-0.0402 0.1977,-0.0379Z" fill="#e8efe2"/><path d="M-0.2916,-0.2172 -0.2653,-0.2231 -0.2386,-0.2196 -0.2435,-0.2149 -0.2396,-0.2064 -0.2562,-0.2023 -0.2625,-0.1921 -0.2702,-0.2005 -0.263,-0.2039 -0.2705,-0.206 -0.2632,-0.2105 -0.2761,-0.2067 -0.2916,-0.2172Z" fill="#e8efe2"/><path d="M0.5917,0.0175 0.5924,-0.003 0.6105,-0.03 0.5931,-0.0737 0.6156,-0.096 0.624,-0.0933 0.6287,-0.0781 0.6442,-0.077 0.6648,-0.0637 0.6901,-0.0606 0.7116,-0.0746 0.7309,-0.0695 0.7149,-0.0491 0.7152,0.0152 0.7248,0.0297 0.702,0.047 0.6873,0.0809 0.659,0.0636 0.6569,0.0533 0.5917,0.0175Z" fill="#e8efe2"/><path d="M0.5016,0.5513 0.4843,0.5614 0.4721,0.5425 0.4997,0.5209 0.513,0.5346 0.5016,0.5513Z" fill="#e8efe2"/><path d="M-0.2009,-0.1209 -0.1794,-0.1487 -0.1686,-0.1484 -0.1651,-0.1299 -0.1552,-0.1271 -0.1497,-0.1344 -0.1449,-0.1221 -0.1499,-0.1135 -0.13,-0.1021 -0.1316,-0.076 -0.1593,-0.0883 -0.2009,-0.1209Z" fill="#e8efe2"/><path d="M0.1662,-0.5539 0.1784,-0.5651 0.1792,-0.5835 0.2007,-0.5985 0.2007,-0.6145 0.2649,-0.5981 0.2763,-0.5769 0.3337,-0.5548 0.351,-0.5687 0.3496,-0.5923 0.3676,-0.6062 0.3873,-0.6091 0.4065,-0.5944 0.4355,-0.589 0.4311,-0.5533 0.436,-0.5328 0.436,-0.3564 0.4185,-0.3564 0.4185,-0.3471 0.2789,-0.4212 0.2478,-0.4055 0.2089,-0.4225 0.2009,-0.4376 0.1803,-0.4418 0.1644,-0.4731 0.1721,-0.4809 0.1731,-0.5052 0.1662,-0.5539Z" fill="#e8efe2"/><path d="M0.8646,0.2187 0.881,0.2719 0.8763,0.2822 0.8667,0.2742 0.8687,0.2979 0.8234,0.4468 0.7891,0.4619 0.7686,0.4509 0.755,0.4009 0.7749,0.3549 0.7676,0.3083 0.7756,0.2873 0.8098,0.2815 0.8264,0.2607 0.8287,0.265 0.8371,0.2589 0.836,0.242 0.8517,0.2337 0.8517,0.2188 0.8589,0.2124 0.8646,0.2187Z" fill="#e8efe2"/><path d="M0.5794,0.247 0.5702,0.2394 0.5849,0.2172 0.5805,0.1912 0.5875,0.1852 0.5749,0.1648 0.5934,0.1666 0.6025,0.176 0.6102,0.2035 0.5997,0.2138 0.6032,0.2353 0.6264,0.2629 0.6156,0.3033 0.5978,0.281 0.6023,0.2576 0.5871,0.2571 0.5794,0.247Z" fill="#e8efe2"/><path d="M-0.1988,-0.2181 -0.2143,-0.2614 -0.2007,-0.2764 -0.1911,-0.2676 -0.1632,-0.2771 -0.0962,-0.2739 -0.115,-0.4507 -0.0841,-0.4509 0.0201,-0.3769 0.0305,-0.3625 0.0546,-0.3536 0.0545,-0.3397 0.0738,-0.3404 0.073,-0.2935 0.0611,-0.2714 -0.0117,-0.2661 -0.0452,-0.251 -0.0576,-0.2339 -0.0756,-0.231 -0.0773,-0.2171 -0.0923,-0.208 -0.0963,-0.1831 -0.1052,-0.1788 -0.1093,-0.1882 -0.1225,-0.1779 -0.1309,-0.1832 -0.1395,-0.1783 -0.1592,-0.219 -0.1864,-0.2092 -0.1908,-0.2147 -0.1974,-0.2113 -0.1988,-0.2181Z" fill="#e8efe2"/><path d="M-0.0387,-0.655 -0.0312,-0.6469 -0.0215,-0.5923 -0.0658,-0.5837 -0.0646,-0.5683 -0.1443,-0.5289 -0.1515,-0.5231 -0.1534,-0.4921 -0.1988,-0.4874 -0.2169,-0.4476 -0.2424,-0.4258 -0.2574,-0.3844 -0.2967,-0.3829 -0.2775,-0.4286 -0.2601,-0.4455 -0.2515,-0.4751 -0.237,-0.4846 -0.226,-0.5076 -0.2016,-0.5155 -0.178,-0.5368 -0.1688,-0.5515 -0.1712,-0.5781 -0.1614,-0.6018 -0.1204,-0.631 -0.1033,-0.6698 -0.0922,-0.6721 -0.0808,-0.6573 -0.0518,-0.6616 -0.0387,-0.655Z" fill="#e8efe2"/><path d="M-0.2143,-0.2614 -0.2536,-0.295 -0.2834,-0.2926 -0.2887,-0.2801 -0.2801,-0.3235 -0.2882,-0.3445 -0.2829,-0.3607 -0.2946,-0.3767 -0.2976,-0.3715 -0.296,-0.3812 -0.2272,-0.3812 -0.2295,-0.4093 -0.2098,-0.4216 -0.2098,-0.4702 -0.1515,-0.4702 -0.1515,-0.4954 -0.0841,-0.4509 -0.115,-0.4507 -0.0962,-0.2739 -0.1632,-0.2771 -0.1911,-0.2676 -0.2007,-0.2764 -0.2143,-0.2614Z" fill="#e8efe2"/><path d="M0.5461,0.4013 0.566,0.3806 0.5758,0.356 0.5707,0.3368 0.5751,0.2959 0.5313,0.283 0.5276,0.2647 0.5794,0.247 0.5871,0.2571 0.6,0.2544 0.5978,0.281 0.6156,0.3033 0.6264,0.2629 0.6032,0.2353 0.6042,0.2042 0.6552,0.2053 0.7062,0.1836 0.7128,0.2598 0.7079,0.2733 0.6953,0.291 0.6547,0.3116 0.6353,0.3336 0.6048,0.3508 0.6203,0.3994 0.6194,0.433 0.6107,0.4441 0.5723,0.4632 0.574,0.4868 0.5604,0.4866 0.5583,0.4405 0.5461,0.4013Z" fill="#e8efe2"/><path d="M0.4081,0.3129 0.4409,0.3156 0.4119,0.3279 0.4053,0.3195 0.366,0.3253 0.366,0.3938 0.3487,0.3938 0.3487,0.5183 0.3344,0.5281 0.3159,0.5267 0.3046,0.5233 0.2978,0.51 0.2871,0.5217 0.2669,0.495 0.2531,0.4355 0.2524,0.4023 0.2056,0.3195 0.2049,0.3057 0.23,0.3006 0.2447,0.3086 0.3211,0.3085 0.3622,0.3198 0.4081,0.3129Z" fill="#e8efe2"/><path d="M0.2375,-0.2414 0.2175,-0.2305 0.1829,-0.2348 0.1679,-0.2255 0.1367,-0.235 0.1211,-0.229 0.11,-0.2407 0.0813,-0.242 0.0637,-0.2205 0.0628,-0.2056 0.0503,-0.2176 0.0417,-0.2092 0.0367,-0.2235 0.0176,-0.2292 0.0209,-0.2353 0.0028,-0.2558 0.004,-0.2641 0.0227,-0.2697 0.0611,-0.2714 0.073,-0.2935 0.0738,-0.3404 0.1019,-0.3467 0.1306,-0.3726 0.2089,-0.4225 0.2478,-0.4055 0.2615,-0.4127 0.2649,-0.3848 0.2786,-0.3629 0.27,-0.2995 0.2347,-0.2537 0.2375,-0.2414Z" fill="#e8efe2"/><path d="M0.2375,-0.2414 0.2552,-0.2137 0.2545,-0.2026 0.2391,-0.1909 0.199,-0.1142 0.177,-0.1225 0.1581,-0.1051 0.1447,-0.0797 0.1236,-0.0825 0.1208,-0.0767 0.1182,-0.0825 0.1197,-0.0763 0.1077,-0.0748 0.0976,-0.0812 0.0969,-0.0956 0.0908,-0.0967 0.0953,-0.0981 0.0773,-0.1111 0.0473,-0.1114 0.0483,-0.1586 0.066,-0.1832 0.0637,-0.2205 0.0771,-0.2405 0.0958,-0.2445 0.1211,-0.229 0.1367,-0.235 0.1679,-0.2255 0.1829,-0.2348 0.2175,-0.2305 0.2375,-0.2414Z" fill="#e8efe2"/><path d="M0.5917,0.0175 0.5377,0.0173 0.5163,0.0243 0.5226,-0.0143 0.5454,-0.0356 0.5363,-0.0429 0.5437,-0.0662 0.5609,-0.0615 0.5845,-0.0657 0.5931,-0.0737 0.6011,-0.0637 0.6105,-0.03 0.5924,-0.003 0.5917,0.0175Z" fill="#e8efe2"/><path d="M0.5163,0.0243 0.5325,0.0187 0.5381,0.0409 0.5047,0.0468 0.5163,0.0243Z" fill="#e8efe2"/><path d="M0.4215,-0.1519 0.4601,-0.1162 0.4782,-0.0893 0.4456,-0.0928 0.399,-0.0825 0.3913,-0.0721 0.3588,-0.0779 0.3403,-0.0897 0.3245,-0.076 0.3248,-0.0608 0.2909,-0.0618 0.2824,-0.0396 0.2571,-0.0804 0.252,-0.1065 0.2702,-0.1316 0.3245,-0.1411 0.3335,-0.1517 0.3297,-0.1558 0.3601,-0.163 0.3847,-0.19 0.399,-0.1918 0.4128,-0.1722 0.4109,-0.1545 0.4215,-0.1519Z" fill="#e8efe2"/><path d="M-0.1794,-0.1487 -0.2009,-0.1209 -0.2243,-0.1369 -0.232,-0.1586 -0.2169,-0.1737 -0.1967,-0.1754 -0.1864,-0.1629 -0.1869,-0.1461 -0.1794,-0.1487Z" fill="#e8efe2"/><path d="M0.7248,0.0297 0.7152,0.0152 0.7152,-0.0496 0.7334,-0.0723 0.7599,-0.0846 0.7844,-0.0858 0.8374,-0.1401 0.8542,-0.1657 0.8542,-0.1978 0.8865,-0.2106 0.8945,-0.208 0.8906,-0.1832 0.8968,-0.1823 0.8889,-0.1815 0.8872,-0.1653 0.8374,-0.0786 0.8037,-0.0433 0.7587,-0.0108 0.7248,0.0297Z" fill="#e8efe2"/><path d="M0.5948,-0.1659 0.5918,-0.1786 0.5782,-0.1887 0.5794,-0.2149 0.5711,-0.2149 0.5597,-0.2112 0.566,-0.1951 0.5437,-0.1714 0.5236,-0.1804 0.5034,-0.1636 0.4653,-0.1662 0.4503,-0.1829 0.4367,-0.1797 0.4281,-0.1558 0.4109,-0.1545 0.4128,-0.1722 0.399,-0.1918 0.3901,-0.2228 0.381,-0.2251 0.4002,-0.2744 0.4184,-0.2777 0.4185,-0.3564 0.436,-0.3564 0.436,-0.3938 0.6435,-0.3938 0.654,-0.3345 0.6739,-0.3196 0.6459,-0.3023 0.6306,-0.2246 0.6128,-0.2078 0.6096,-0.1907 0.5993,-0.1871 0.5948,-0.1659Z" fill="#e8efe2"/><path d="M0.5931,-0.0737 0.5845,-0.0657 0.5609,-0.0615 0.5437,-0.0662 0.5383,-0.0609 0.5157,-0.0811 0.4901,-0.0772 0.4601,-0.1162 0.4225,-0.1466 0.4367,-0.1797 0.4513,-0.1827 0.4634,-0.1671 0.4896,-0.1636 0.5034,-0.1636 0.5236,-0.1804 0.5437,-0.1714 0.566,-0.1951 0.5597,-0.2112 0.5794,-0.2149 0.5782,-0.1887 0.5918,-0.1786 0.5952,-0.1521 0.5808,-0.1478 0.576,-0.1383 0.6058,-0.1165 0.6156,-0.096 0.5931,-0.0737Z" fill="#e8efe2"/><path d="M-0.2143,-0.2614 -0.1988,-0.2181 -0.2653,-0.2231 -0.2916,-0.2172 -0.2906,-0.2316 -0.2417,-0.2375 -0.2621,-0.2434 -0.289,-0.2394 -0.3061,-0.2605 -0.2939,-0.2701 -0.2834,-0.2926 -0.2616,-0.2953 -0.2358,-0.2855 -0.2143,-0.2614Z" fill="#e8efe2"/><path d="M0.6894,0.1079 0.6896,0.1128 0.6838,0.1079 0.6861,0.1 0.6894,0.1079Z M0.5746,0.165 0.5405,0.1498 0.5156,0.1104 0.5131,0.0777 0.5227,0.0753 0.5377,0.0559 0.5309,0.0492 0.539,0.0374 0.5327,0.0185 0.5931,0.0175 0.6569,0.0533 0.6564,0.0611 0.6845,0.0819 0.6772,0.1061 0.6903,0.1228 0.6859,0.1478 0.6934,0.1754 0.7062,0.1836 0.6552,0.2053 0.6102,0.2035 0.599,0.1706 0.5746,0.165Z" fill="#e8efe2"/><path d="M0.4185,-0.3471 0.4184,-0.2777 0.4002,-0.2744 0.381,-0.2251 0.3901,-0.2228 0.399,-0.1918 0.38,-0.1868 0.355,-0.16 0.3309,-0.1567 0.3245,-0.1411 0.2702,-0.1316 0.2639,-0.15 0.244,-0.1699 0.2731,-0.1756 0.2641,-0.187 0.2592,-0.2199 0.2454,-0.2303 0.2347,-0.2537 0.27,-0.2995 0.2786,-0.3629 0.2649,-0.3848 0.2615,-0.4127 0.2789,-0.4212 0.4185,-0.3471Z" fill="#e8efe2"/><path d="M0.0157,-0.193 0.0133,-0.1823 0.0232,-0.1754 0.0279,-0.1586 0.0311,-0.11 0.0208,-0.1065 0.0093,-0.1198 0.0093,-0.1648 0.004,-0.1659 0.0066,-0.1806 -0.0016,-0.1873 -0.0012,-0.1953 0.0157,-0.193Z" fill="#e8efe2"/><path d="M0.2007,-0.6145 0.2007,-0.5985 0.1792,-0.5835 0.1784,-0.5651 0.1662,-0.5539 0.1574,-0.5923 0.1309,-0.6281 0.144,-0.6471 0.1433,-0.6855 0.1497,-0.6947 0.1691,-0.7034 0.1817,-0.6901 0.1929,-0.6975 0.1829,-0.6782 0.1941,-0.658 0.1752,-0.6346 0.2007,-0.6145Z" fill="#e8efe2"/><path d="M0.5461,0.4013 0.5124,0.3973 0.4889,0.3853 0.4831,0.3657 0.4568,0.3478 0.4409,0.3156 0.4716,0.3187 0.502,0.2926 0.5046,0.2828 0.5189,0.2764 0.5751,0.2959 0.5707,0.3368 0.5758,0.356 0.566,0.3806 0.5461,0.4013Z" fill="#e8efe2"/><path d="M0.6435,-0.3938 0.436,-0.3938 0.4337,-0.5763 0.4519,-0.5822 0.5074,-0.5661 0.5424,-0.5818 0.5566,-0.5806 0.5603,-0.5714 0.5969,-0.5761 0.6091,-0.5389 0.5973,-0.5047 0.5803,-0.5207 0.5685,-0.5487 0.5648,-0.5419 0.6245,-0.4305 0.6196,-0.4275 0.6231,-0.4117 0.6435,-0.3938Z" fill="#e8efe2"/><path d="M0.6374,-0.2515 0.6459,-0.3023 0.6739,-0.3196 0.6945,-0.267 0.6957,-0.2733 0.7187,-0.258 0.7526,-0.2237 0.7397,-0.2194 0.7006,-0.2551 0.6707,-0.2546 0.6611,-0.2621 0.6554,-0.2493 0.6503,-0.2549 0.6374,-0.2515Z" fill="#e8efe2"/><path d="M0.6156,-0.096 0.6058,-0.1165 0.5761,-0.1392 0.5808,-0.1478 0.595,-0.1503 0.5983,-0.1848 0.6096,-0.1907 0.6128,-0.2078 0.6306,-0.2246 0.6374,-0.2515 0.6503,-0.2549 0.6554,-0.2493 0.6611,-0.2621 0.6707,-0.2546 0.6819,-0.2582 0.7124,-0.2488 0.7397,-0.2194 0.7294,-0.2055 0.7295,-0.1928 0.7491,-0.1932 0.7477,-0.179 0.7676,-0.1579 0.8374,-0.1401 0.7844,-0.0858 0.7599,-0.0846 0.7309,-0.0695 0.7116,-0.0746 0.6892,-0.0604 0.6287,-0.0781 0.624,-0.0933 0.6156,-0.096Z" fill="#e8efe2"/><path d="M0.5306,0.2764 0.5056,0.282 0.502,0.2926 0.4674,0.3202 0.4351,0.311 0.4081,0.3129 0.3847,0.2877 0.3836,0.2289 0.4182,0.2287 0.4184,0.1909 0.4255,0.2006 0.4414,0.1969 0.4424,0.2042 0.4543,0.209 0.4681,0.2105 0.474,0.2035 0.5063,0.2355 0.5198,0.2368 0.5201,0.2138 0.5072,0.2172 0.4953,0.2033 0.5,0.1852 0.4957,0.1616 0.5044,0.1487 0.5367,0.1434 0.5794,0.1689 0.5875,0.1859 0.5805,0.1912 0.5849,0.2172 0.5702,0.2394 0.5794,0.247 0.5276,0.2647 0.5306,0.2764Z" fill="#e8453c"/></g></svg>