<svg xmlns="http://www.w3.org/2000/svg" viewBox="-0.091 -1.041 0.260 0.248" preserveAspectRatio="xMidYMid meet"><rect x="-0.091" y="-1.041" width="0.260" height="0.248" fill="#a9d2ea"/><g stroke="#7e96a9" stroke-width="0.0007" stroke-linejoin="round"><path d="M0.0834,-0.9107 0.0861,-0.9193 0.0908,-0.9191 0.0955,-0.9129 0.1077,-0.9156 0.1014,-0.9082 0.0982,-0.8966 0.0934,-0.9034 0.0858,-0.9014 0.0825,-0.905 0.0834,-0.9107Z" fill="#e8efe2"/><path d="M0.0707,-0.9947 0.0636,-0.9922 0.0654,-0.988 0.0604,-0.9795 0.0516,-0.9898 0.0552,-0.9956 0.0533,-1.0061 0.0564,-1.0116 0.0739,-1.0095 0.0707,-0.9947Z" fill="#e8efe2"/><path d="M0.0529,-0.9264 0.0603,-0.9228 0.0633,-0.9252 0.0698,-0.918 0.0658,-0.9123 0.0667,-0.9059 0.0526,-0.9088 0.0505,-0.9127 0.0461,-0.9092 0.0402,-0.9152 0.0411,-0.9192 0.0456,-0.9202 0.0449,-0.9229 0.0529,-0.9264Z" fill="#e8efe2"/><path d="M0.0991,-0.8615 0.1031,-0.8615 0.1016,-0.8637 0.1061,-0.8685 0.1158,-0.8678 0.1215,-0.8722 0.1167,-0.861 0.1212,-0.8544 0.117,-0.8523 0.1005,-0.8503 0.0962,-0.8559 0.0991,-0.8615Z" fill="#e8efe2"/><path d="M0.1093,-0.8845 0.1155,-0.8844 0.1235,-0.8735 0.1158,-0.8678 0.1061,-0.8685 0.1016,-0.8637 0.1031,-0.8615 0.0949,-0.8659 0.0989,-0.8691 0.0985,-0.8728 0.1109,-0.8778 0.1093,-0.8845Z" fill="#e8efe2"/><path d="M0.1202,-0.8657 0.1347,-0.8589 0.1314,-0.8518 0.121,-0.8443 0.1158,-0.8518 0.1212,-0.8544 0.1167,-0.861 0.1202,-0.8657Z" fill="#e8efe2"/><path d="M0.0782,-0.8872 0.0833,-0.8902 0.0853,-0.8798 0.0811,-0.8635 0.0707,-0.8646 0.0674,-0.8751 0.0753,-0.8807 0.0782,-0.8872Z" fill="#e8efe2"/><path d="M0.0739,-1.0095 0.0852,-1.0148 0.0847,-1.005 0.0941,-1.0003 0.0893,-0.9997 0.0864,-0.9901 0.0771,-0.9914 0.0705,-0.9955 0.0739,-1.0095Z" fill="#e8efe2"/><path d="M0.0295,-0.8394 0.0346,-0.8336 0.0326,-0.8284 0.0378,-0.8248 0.0254,-0.8234 0.015,-0.8287 0.0185,-0.8362 0.0224,-0.8355 0.0231,-0.8402 0.0295,-0.8394Z" fill="#e8efe2"/><path d="M0.0596,-0.9677 0.0612,-0.9733 0.0667,-0.971 0.0751,-0.9762 0.0815,-0.9714 0.0849,-0.9627 0.0796,-0.9567 0.0689,-0.9557 0.0596,-0.9677Z" fill="#e8efe2"/><path d="M0.0295,-0.8394 0.0324,-0.8435 0.0395,-0.8437 0.0566,-0.8379 0.0531,-0.829 0.0406,-0.829 0.038,-0.8246 0.0334,-0.8271 0.034,-0.8357 0.0295,-0.8394Z" fill="#e8efe2"/><path d="M0.0385,-0.8719 0.0433,-0.8728 0.0481,-0.8797 0.0538,-0.8705 0.0545,-0.8632 0.0602,-0.8574 0.0534,-0.8528 0.0534,-0.8495 0.0468,-0.8507 0.0429,-0.8581 0.0332,-0.8616 0.0321,-0.8685 0.0385,-0.8719Z" fill="#e8efe2"/><path d="M0.0827,-0.8551 0.0966,-0.8487 0.1004,-0.8502 0.0987,-0.8467 0.1005,-0.8392 0.0978,-0.8367 0.0932,-0.838 0.0929,-0.8414 0.0738,-0.8439 0.0827,-0.8551Z M0.0875,-0.8462 0.0885,-0.8424 0.0912,-0.8437 0.0875,-0.8462Z" fill="#e8efe2"/><path d="M-0.0195,-0.9933 -0.0039,-0.9913 0.0052,-0.9953 0.0078,-0.9842 -0.0185,-0.9778 -0.0202,-0.9795 -0.015,-0.9847 -0.0195,-0.9933Z" fill="#e8efe2"/><path d="M0.0438,-0.8932 0.0542,-0.8901 0.0587,-0.8807 0.0542,-0.8786 0.052,-0.8726 0.0477,-0.8798 0.0433,-0.8728 0.0379,-0.8725 0.036,-0.8808 0.0438,-0.8932Z" fill="#e8efe2"/><path d="M-0.0018,-0.9055 0.013,-0.9098 0.0165,-0.9052 0.0001,-0.8861 -0.0048,-0.8888 -0.008,-0.8997 -0.0027,-0.9012 -0.0018,-0.9055Z" fill="#e8efe2"/><path d="M-0.0258,-0.9116 -0.0223,-0.91 -0.0258,-0.9116Z M-0.0197,-0.9141 -0.0141,-0.9148 -0.0108,-0.9097 -0.0028,-0.9072 -0.0027,-0.9012 -0.008,-0.8997 -0.0048,-0.8888 0.0001,-0.8868 -0.0007,-0.8839 -0.0066,-0.8852 -0.0216,-0.8989 -0.0184,-0.9066 -0.0214,-0.9105 -0.0197,-0.9141Z M-0.0218,-0.9024 -0.0247,-0.9075 -0.0218,-0.9024Z" fill="#e8efe2"/><path d="M0.0391,-0.9476 0.0502,-0.945 0.0537,-0.9305 0.0529,-0.9264 0.0398,-0.9169 0.0376,-0.9172 0.0357,-0.9343 0.031,-0.935 0.0373,-0.9389 0.0392,-0.9443 0.037,-0.9466 0.0391,-0.9476Z" fill="#e8efe2"/><path d="M0.0331,-0.8987 0.0435,-0.8997 0.044,-0.8909 0.0411,-0.8913 0.0372,-0.881 0.0318,-0.8796 0.0219,-0.8853 0.0222,-0.8932 0.0331,-0.8987Z" fill="#e8efe2"/><path d="M0.0749,-0.9555 0.0836,-0.9577 0.0866,-0.9496 0.0956,-0.9473 0.0949,-0.9353 0.0818,-0.9291 0.0743,-0.9346 0.071,-0.9421 0.0756,-0.9511 0.0749,-0.9555Z" fill="#e8efe2"/><path d="M-0.0639,-0.9748 -0.0615,-0.9793 -0.054,-0.9803 -0.0471,-0.9707 -0.0404,-0.9752 -0.0336,-0.9718 -0.0337,-0.9665 -0.0459,-0.9584 -0.0531,-0.9628 -0.0596,-0.9613 -0.0622,-0.9623 -0.0639,-0.9748Z" fill="#e8efe2"/><path d="M0.0378,-0.917 0.0447,-0.9106 0.0456,-0.9055 0.0417,-0.9019 0.0425,-0.8987 0.0331,-0.8987 0.024,-0.9117 0.0266,-0.917 0.0378,-0.917Z" fill="#e8efe2"/><path d="M0.011,-0.8991 0.0231,-0.8908 0.0215,-0.8863 0.0247,-0.8845 0.0251,-0.8783 0.0188,-0.871 -0.0004,-0.8777 -0.0003,-0.8856 0.011,-0.8991Z" fill="#e8efe2"/><path d="M0.1188,-0.9461 0.1212,-0.9448 0.1201,-0.9408 0.1233,-0.9405 0.1123,-0.9298 0.1122,-0.9254 0.1056,-0.9216 0.1083,-0.9257 0.1004,-0.9321 0.0995,-0.9384 0.1188,-0.9461Z" fill="#e8efe2"/><path d="M0.0838,-0.8887 0.0897,-0.8887 0.0899,-0.8832 0.0957,-0.8834 0.0954,-0.8762 0.1017,-0.874 0.0946,-0.8673 0.0991,-0.8604 0.0812,-0.8649 0.0853,-0.8798 0.0838,-0.8887Z M0.0854,-0.8658 0.0882,-0.8658 0.0854,-0.8658Z" fill="#e8efe2"/><path d="M0.0052,-0.9953 0.014,-0.9949 0.0177,-0.9905 0.0258,-0.9959 0.0315,-0.9911 0.0255,-0.9855 0.024,-0.9783 0.0136,-0.975 0.0067,-0.9814 0.0052,-0.9953Z" fill="#e8efe2"/><path d="M0.0142,-0.9751 0.023,-0.9775 0.0262,-0.9822 0.0347,-0.9645 0.0326,-0.9597 0.0211,-0.9567 0.0147,-0.9602 0.0134,-0.9659 0.0169,-0.9712 0.0142,-0.9751Z" fill="#e8efe2"/><path d="M-0.0639,-0.9748 -0.0614,-0.9648 -0.0652,-0.9604 -0.0591,-0.9555 -0.0618,-0.9513 -0.0694,-0.955 -0.0761,-0.9522 -0.0772,-0.9565 -0.082,-0.9582 -0.0746,-0.9609 -0.0795,-0.9619 -0.0795,-0.9663 -0.0737,-0.9652 -0.0833,-0.9661 -0.0826,-0.972 -0.0639,-0.9748Z" fill="#e8efe2"/><path d="M0.1496,-0.8181 0.1547,-0.8169 0.1612,-0.8056 0.1641,-0.8059 0.1609,-0.7944 0.1532,-0.7996 0.1556,-0.8019 0.1516,-0.8033 0.1536,-0.8066 0.1503,-0.8068 0.1526,-0.8101 0.1496,-0.8181Z" fill="#e8efe2"/><path d="M0.1641,-0.8059 0.1612,-0.8056 0.1547,-0.8169 0.1496,-0.8181 0.1593,-0.8265 0.1622,-0.8251 0.1633,-0.833 0.1669,-0.8158 0.1641,-0.8059Z" fill="#e8efe2"/><path d="M0.0589,-0.8611 0.0676,-0.86 0.0698,-0.8681 0.0707,-0.8646 0.0809,-0.8638 0.0845,-0.8566 0.0738,-0.8439 0.0723,-0.8505 0.066,-0.8561 0.0586,-0.8548 0.0602,-0.8574 0.057,-0.8591 0.0589,-0.8611Z" fill="#e8efe2"/><path d="M0.0167,-0.8517 0.0272,-0.8549 0.0295,-0.848 0.0357,-0.8445 0.0257,-0.8379 0.0231,-0.8402 0.022,-0.835 0.0185,-0.8362 0.015,-0.8287 0.0083,-0.8257 0.0113,-0.8319 0.0077,-0.836 0.0209,-0.8465 0.0167,-0.8517Z" fill="#e8efe2"/><path d="M0.0013,-0.8565 0.0144,-0.8582 0.0135,-0.855 0.0209,-0.8465 0.0171,-0.8415 0.0032,-0.8417 -0.0003,-0.8474 -0.0049,-0.8476 -0.0041,-0.8545 0.0013,-0.8565Z" fill="#e8efe2"/><path d="M-0.0125,-0.8895 0.0007,-0.8842 -0.0004,-0.8777 0.0055,-0.8776 0.0018,-0.874 -0.0006,-0.8635 -0.0068,-0.862 -0.011,-0.8677 -0.0219,-0.8683 -0.0208,-0.873 -0.0177,-0.8727 -0.0204,-0.8758 -0.022,-0.8723 -0.0198,-0.894 -0.014,-0.89 -0.0106,-0.8817 -0.0125,-0.8895Z" fill="#e8efe2"/><path d="M0.0586,-0.8548 0.066,-0.8561 0.0731,-0.8482 0.0566,-0.8379 0.0445,-0.841 0.0462,-0.8486 0.0534,-0.8495 0.0534,-0.8528 0.0586,-0.8548Z" fill="#e8efe2"/><path d="M-0.0371,-0.9733 -0.035,-0.9723 -0.0371,-0.9733Z M-0.034,-0.9716 -0.0354,-0.9746 -0.033,-0.9758 -0.0249,-0.9696 -0.0187,-0.9708 -0.0178,-0.9573 -0.0217,-0.9517 -0.0366,-0.9479 -0.0355,-0.9531 -0.0399,-0.961 -0.0337,-0.9665 -0.034,-0.9716Z" fill="#e8efe2"/><path d="M0.0232,-0.9364 0.0299,-0.9387 0.0313,-0.9347 0.0357,-0.9343 0.0378,-0.917 0.0213,-0.9155 0.016,-0.9214 0.0151,-0.9252 0.0232,-0.9364Z" fill="#e8efe2"/><path d="M0.0107,-0.9495 0.018,-0.9473 0.0193,-0.9393 0.0235,-0.936 0.0183,-0.9311 0.0177,-0.9255 0.0108,-0.9318 0.0057,-0.9299 0.0009,-0.9358 0.004,-0.9473 0.0107,-0.9495Z" fill="#e8efe2"/><path d="M0.0982,-0.8966 0.1002,-0.8922 0.1078,-0.8911 0.1072,-0.8852 0.1109,-0.8778 0.0986,-0.8746 0.0954,-0.8762 0.0957,-0.8834 0.0899,-0.8832 0.0897,-0.8887 0.0831,-0.8898 0.0839,-0.8956 0.09,-0.899 0.089,-0.9016 0.0934,-0.9034 0.0982,-0.8966Z" fill="#e8efe2"/><path d="M0.0963,-0.9394 0.1083,-0.9257 0.1026,-0.9131 0.0955,-0.9129 0.0925,-0.9167 0.095,-0.9224 0.093,-0.9269 0.0953,-0.9276 0.0917,-0.9311 0.0963,-0.9394Z" fill="#e8efe2"/><path d="M-0.0042,-0.8469 -0.0266,-0.8455 -0.0219,-0.8683 -0.0118,-0.868 -0.0068,-0.862 0.0024,-0.8599 0.001,-0.8544 -0.0041,-0.8545 -0.0042,-0.8469Z" fill="#e8efe2"/><path d="M0.0147,-0.9602 0.0273,-0.9572 0.027,-0.9515 0.0304,-0.9487 0.0384,-0.9491 0.0392,-0.9423 0.0327,-0.9369 0.0232,-0.9364 0.0193,-0.9393 0.018,-0.9473 0.0101,-0.95 0.0147,-0.9602Z" fill="#e8efe2"/><path d="M0.0681,-0.9132 0.0772,-0.9114 0.0742,-0.9076 0.0762,-0.898 0.0815,-0.8955 0.083,-0.8904 0.0793,-0.8872 0.068,-0.8902 0.0695,-0.8936 0.0644,-0.9011 0.0658,-0.9123 0.0681,-0.9132Z" fill="#e8efe2"/><path d="M0.068,-0.8902 0.0738,-0.891 0.0784,-0.8869 0.0674,-0.8751 0.0607,-0.8767 0.0541,-0.8892 0.068,-0.8902Z" fill="#e8efe2"/><path d="M-0.0429,-0.9431 -0.0256,-0.9532 -0.0176,-0.9468 -0.0166,-0.942 -0.0233,-0.9398 -0.0195,-0.9327 -0.0254,-0.9297 -0.0262,-0.9327 -0.027,-0.9281 -0.0389,-0.935 -0.0382,-0.9388 -0.0439,-0.9389 -0.0429,-0.9431Z" fill="#e8efe2"/><path d="M0.0512,-0.9617 0.0546,-0.9567 0.0499,-0.9512 0.052,-0.9463 0.0493,-0.9444 0.0304,-0.9487 0.0268,-0.9528 0.0264,-0.9582 0.0384,-0.9665 0.0419,-0.9659 0.0435,-0.9608 0.0512,-0.9617Z" fill="#e8efe2"/><path d="M0.0253,-0.8818 0.036,-0.8808 0.0383,-0.8712 0.0269,-0.8624 0.0196,-0.8646 0.0171,-0.8702 0.023,-0.875 0.0253,-0.8818Z" fill="#e8efe2"/><path d="M0.0052,-0.8755 0.0173,-0.8724 0.0186,-0.8661 0.0157,-0.8662 0.0155,-0.8605 0.0118,-0.8576 0.0013,-0.8565 0.0024,-0.8599 -0.0025,-0.8624 0.0018,-0.874 0.0052,-0.8755Z" fill="#e8efe2"/><path d="M0.0587,-0.8807 0.0674,-0.8751 0.069,-0.8611 0.0619,-0.8597 0.0545,-0.8632 0.052,-0.8726 0.0542,-0.8786 0.0587,-0.8807Z" fill="#e8efe2"/><path d="M-0.0217,-0.9517 -0.0089,-0.9519 0.0041,-0.9465 -0.0008,-0.934 -0.0156,-0.931 -0.02,-0.9323 -0.0235,-0.9394 -0.0166,-0.9415 -0.0217,-0.9517Z" fill="#e8efe2"/><path d="M-0.0195,-0.9933 -0.015,-0.9847 -0.0201,-0.9791 -0.0131,-0.9732 -0.0249,-0.9696 -0.0274,-0.9739 -0.0243,-0.9746 -0.028,-0.9795 -0.0277,-0.99 -0.0339,-1.0033 -0.0221,-1.0024 -0.0195,-0.9933Z" fill="#e8efe2"/><path d="M0.0707,-0.9947 0.0868,-0.9901 0.0879,-0.9831 0.0853,-0.9784 0.0875,-0.976 0.0835,-0.9751 0.0838,-0.9714 0.0768,-0.9722 0.0751,-0.9762 0.0667,-0.971 0.0601,-0.9749 0.0642,-0.9843 0.063,-0.9874 0.0654,-0.988 0.0636,-0.9922 0.0707,-0.9947Z" fill="#e8efe2"/><path d="M0.0815,-0.9714 0.0871,-0.9754 0.0987,-0.9645 0.0982,-0.9597 0.1028,-0.9551 0.0935,-0.9468 0.0866,-0.9496 0.0872,-0.9528 0.0821,-0.958 0.0848,-0.9645 0.0815,-0.9714Z" fill="#e8efe2"/><path d="M-0.0187,-0.9708 -0.0036,-0.9722 -0.001,-0.9675 -0.0067,-0.9512 -0.0201,-0.9517 -0.0178,-0.9578 -0.0187,-0.9708Z" fill="#e8efe2"/><path d="M0.0955,-0.9971 0.1019,-0.9983 0.1055,-0.9832 0.1243,-0.9709 0.104,-0.9667 0.0998,-0.9722 0.1022,-0.9849 0.1007,-0.9919 0.0955,-0.9971Z" fill="#e8efe2"/><path d="M0.0864,-0.9901 0.0893,-0.9997 0.0941,-1.0003 0.0954,-0.9944 0.0993,-0.9949 0.1022,-0.9849 0.1002,-0.9697 0.095,-0.9686 0.0872,-0.9738 0.0864,-0.9901Z" fill="#e8efe2"/><path d="M-0.0557,-0.941 -0.0534,-0.9396 -0.0557,-0.941Z M-0.0615,-0.9535 -0.0592,-0.9563 -0.0649,-0.9612 -0.0531,-0.9628 -0.0459,-0.9584 -0.0399,-0.961 -0.0355,-0.9531 -0.0366,-0.9454 -0.0433,-0.943 -0.0508,-0.9456 -0.0481,-0.948 -0.0546,-0.9438 -0.0546,-0.9503 -0.0603,-0.9495 -0.0615,-0.9535Z" fill="#e8efe2"/><path d="M0.1029,-0.9971 0.1129,-0.9962 0.1176,-0.9882 0.1299,-0.9887 0.1333,-0.9851 0.1315,-0.9821 0.1234,-0.9856 0.1216,-0.9813 0.1275,-0.9777 0.1236,-0.9715 0.1055,-0.9832 0.1029,-0.9971Z" fill="#e8efe2"/><path d="M0.0502,-0.945 0.0609,-0.946 0.072,-0.9403 0.0738,-0.9367 0.0697,-0.9312 0.0709,-0.9262 0.0603,-0.9228 0.0532,-0.9255 0.0502,-0.945Z" fill="#e8efe2"/><path d="M0.0361,-1.0383 0.0444,-1.0406 0.046,-1.0329 0.0506,-1.0297 0.055,-1.0321 0.0574,-1.0251 0.063,-1.0242 0.0648,-1.0189 0.0734,-1.0181 0.0738,-1.0129 0.0713,-1.0098 0.0544,-1.0114 0.0537,-1.0227 0.0489,-1.0253 0.049,-1.029 0.0416,-1.0291 0.0361,-1.0383Z" fill="#e8efe2"/><path d="M0.0311,-1.0041 0.0463,-0.9991 0.0544,-1.0027 0.0552,-0.9956 0.0516,-0.9898 0.0548,-0.9879 0.0304,-0.9886 0.0311,-1.0041Z" fill="#e8efe2"/><path d="M-0.0147,-0.9772 0.0066,-0.9831 0.0132,-0.9777 0.0167,-0.9691 0.0133,-0.9622 0.0052,-0.9701 -0.0008,-0.9674 -0.0041,-0.9722 -0.0132,-0.9689 -0.0147,-0.9772Z" fill="#e8efe2"/><path d="M0.0361,-1.0383 0.0416,-1.0291 0.049,-1.029 0.0489,-1.0253 0.0537,-1.0227 0.0527,-1.0179 0.0556,-1.0169 0.0539,-1.0122 0.0424,-1.0131 0.0428,-1.0168 0.0272,-1.0215 0.0276,-1.0346 0.0361,-1.0383Z" fill="#e8efe2"/><path d="M0.0448,-0.9099 0.0505,-0.9127 0.0526,-0.9088 0.0628,-0.9067 0.0693,-0.8928 0.0527,-0.8885 0.0438,-0.8932 0.0417,-0.9019 0.0456,-0.9055 0.0448,-0.9099Z" fill="#e8efe2"/><path d="M-0.0042,-0.8469 0.0005,-0.8411 -0.0069,-0.8281 -0.0223,-0.8357 -0.0252,-0.8339 -0.0241,-0.8389 -0.0312,-0.8412 -0.0258,-0.8458 -0.0042,-0.8469Z" fill="#e8efe2"/><path d="M-0.0017,-0.8468 0.0111,-0.84 0.0077,-0.836 0.0113,-0.8319 0.0083,-0.8257 -0.001,-0.8255 -0.0055,-0.8292 0.0005,-0.8411 -0.0017,-0.8468Z" fill="#e8efe2"/><path d="M0.0378,-0.8248 0.0406,-0.829 0.05,-0.8309 0.0531,-0.829 0.0554,-0.8194 0.0443,-0.817 0.0302,-0.8208 0.0378,-0.8248Z" fill="#e8efe2"/><path d="M0.1333,-0.9852 0.1437,-0.9829 0.1368,-0.9743 0.1322,-0.9606 0.1236,-0.9667 0.1275,-0.9777 0.1214,-0.9817 0.124,-0.9858 0.1315,-0.9821 0.1333,-0.9852Z" fill="#e8efe2"/><path d="M0.1256,-0.9656 0.133,-0.9567 0.1324,-0.9465 0.1288,-0.9427 0.1252,-0.943 0.1195,-0.9523 0.1256,-0.9656Z" fill="#e8efe2"/><path d="M0.0766,-0.9118 0.0818,-0.9139 0.0827,-0.9047 0.09,-0.899 0.0834,-0.8926 0.077,-0.8971 0.0742,-0.9061 0.0766,-0.9118Z" fill="#e8efe2"/><path d="M0.1027,-0.9555 0.1153,-0.956 0.1191,-0.9526 0.1188,-0.9461 0.0973,-0.9381 0.0938,-0.9475 0.0993,-0.9493 0.1027,-0.9555Z" fill="#e8efe2"/><path d="M0.0718,-0.9348 0.0818,-0.9291 0.0917,-0.9311 0.0953,-0.9279 0.093,-0.9269 0.0945,-0.9182 0.0861,-0.9193 0.083,-0.9106 0.0812,-0.9139 0.0747,-0.9102 0.0679,-0.9117 0.0698,-0.918 0.0633,-0.9252 0.0709,-0.9262 0.0718,-0.9348Z" fill="#e8efe2"/><path d="M-0.001,-0.9675 0.0062,-0.9695 0.0071,-0.9657 0.0159,-0.9614 0.0147,-0.9559 0.0066,-0.9463 -0.0034,-0.9483 -0.0078,-0.9531 -0.001,-0.9675Z" fill="#e8efe2"/><path d="M0.1187,-0.9007 0.1254,-0.8915 0.1246,-0.8877 0.1132,-0.8828 0.1072,-0.8852 0.107,-0.8921 0.1002,-0.8922 0.0981,-0.8964 0.1018,-0.9047 0.1089,-0.8984 0.1137,-0.9039 0.1187,-0.9007Z" fill="#e8efe2"/><path d="M0.1187,-0.9007 0.1137,-0.9039 0.1105,-0.8986 0.1055,-0.8997 0.1014,-0.9082 0.1096,-0.9117 0.11,-0.9155 0.1185,-0.9162 0.1186,-0.9098 0.1229,-0.9044 0.1187,-0.9007Z" fill="#e8efe2"/><path d="M0.0422,-0.9798 0.0388,-0.9799 0.0422,-0.9798Z" fill="#e8efe2"/><path d="M0.0241,-1.0125 0.0311,-1.0041 0.0299,-0.9947 0.0241,-0.996 0.0177,-0.9905 0.014,-0.9949 0.0012,-0.9973 0.0034,-1.0027 0.0241,-1.0125Z" fill="#e8efe2"/><path d="M0.0449,-0.9756 0.0452,-0.9859 0.0536,-0.987 0.0608,-0.9799 0.0593,-0.9774 0.0621,-0.9737 0.0596,-0.9677 0.0532,-0.9669 0.0512,-0.9617 0.0435,-0.9608 0.0419,-0.9659 0.0449,-0.9756Z" fill="#e8efe2"/><path d="M0.0384,-0.9814 0.0327,-0.969 0.0253,-0.985 0.0384,-0.9814Z" fill="#e8efe2"/><path d="M-0.0156,-0.931 -0.0018,-0.9333 0.0005,-0.9279 -0.0007,-0.9181 0.0031,-0.9146 0.0034,-0.9087 -0.0018,-0.9055 -0.0108,-0.9097 -0.0131,-0.9139 -0.0094,-0.916 -0.0156,-0.931Z" fill="#e8efe2"/><path d="M0.0241,-1.0125 0.0294,-1.0157 0.0271,-1.0202 0.031,-1.0205 0.0554,-1.0103 0.0544,-1.0027 0.0463,-0.9991 0.0321,-1.0028 0.0241,-1.0125Z" fill="#e8efe2"/><path d="M0.0347,-0.8605 0.0406,-0.8599 0.051,-0.8487 0.0462,-0.8486 0.0455,-0.8432 0.0361,-0.8426 0.0295,-0.848 0.0269,-0.8556 0.029,-0.8597 0.0347,-0.8605Z" fill="#e8efe2"/><path d="M0.0186,-0.8661 0.0237,-0.8619 0.0328,-0.8652 0.0347,-0.8605 0.029,-0.8597 0.0221,-0.8516 0.0161,-0.8519 0.0129,-0.8587 0.0157,-0.8662 0.0186,-0.8661Z" fill="#e8efe2"/><path d="M0.1004,-0.8502 0.1155,-0.8522 0.121,-0.8443 0.1149,-0.8395 0.1169,-0.8392 0.1155,-0.8367 0.1017,-0.834 0.099,-0.8371 0.1004,-0.8502Z" fill="#e8efe2"/><path d="M0.0854,-0.8658 0.0882,-0.8658 0.0854,-0.8658Z M0.0811,-0.8635 0.0903,-0.8644 0.1005,-0.8503 0.0966,-0.8487 0.0827,-0.8551 0.0844,-0.8573 0.0811,-0.8635Z" fill="#e8efe2"/><path d="M-0.0201,-0.9324 -0.0124,-0.9271 -0.0098,-0.9154 -0.0256,-0.9149 -0.0376,-0.9288 -0.0346,-0.9324 -0.027,-0.9281 -0.0262,-0.9327 -0.0254,-0.9297 -0.0201,-0.9324Z M-0.0384,-0.9304 -0.04,-0.932 -0.0384,-0.9304Z" fill="#e8efe2"/><path d="M-0.0018,-0.9333 0.0003,-0.9361 0.0057,-0.9299 0.0121,-0.931 0.0211,-0.9171 0.0144,-0.9095 0.0034,-0.9087 0.0031,-0.9146 -0.0007,-0.9181 0.0005,-0.9279 -0.0018,-0.9333Z" fill="#e8efe2"/><path d="M0.0144,-0.9095 0.0157,-0.9135 0.0237,-0.9164 0.0267,-0.9046 0.0332,-0.8982 0.0219,-0.8924 0.0142,-0.8957 0.011,-0.8991 0.0165,-0.9052 0.0144,-0.9095Z" fill="#e8efe2"/><path d="M0.0955,-0.9685 0.1022,-0.9708 0.1068,-0.9667 0.1243,-0.9709 0.1256,-0.9656 0.1191,-0.9526 0.107,-0.9581 0.101,-0.9562 0.0955,-0.9685Z" fill="#e8efe2"/><path d="M0.0512,-0.9617 0.0532,-0.9669 0.0611,-0.9671 0.0681,-0.9559 0.0749,-0.9555 0.0756,-0.9511 0.0703,-0.9397 0.0612,-0.946 0.0565,-0.9442 0.0497,-0.9503 0.0546,-0.9567 0.0512,-0.9617Z" fill="#e8efe2"/><path d="M0.1191,-0.9526 0.1244,-0.9446 0.119,-0.9457 0.1191,-0.9526Z" fill="#e8efe2"/><path d="M0.0389,-0.9779 0.0451,-0.9753 0.044,-0.9681 0.0345,-0.965 0.0338,-0.9722 0.0389,-0.9779Z" fill="#e8efe2"/><path d="M0.04,-0.9825 0.0404,-0.9766 0.0375,-0.9795 0.04,-0.9825Z" fill="#e8efe2"/><path d="M0.0446,-0.9841 0.0452,-0.9787 0.04,-0.9825 0.0446,-0.9841Z" fill="#e8efe2"/><path d="M0.0407,-0.9789 0.0455,-0.9778 0.0407,-0.9789Z" fill="#e8efe2"/><path d="M0.0452,-0.9859 0.0384,-0.9814 0.0281,-0.9859 0.0297,-0.99 0.0452,-0.9859Z" fill="#e8efe2"/><circle cx="0.023" cy="-0.947" r="0.005" fill="#e8453c" stroke="#fff" stroke-width="0.0007"/></g></svg>