<svg xmlns="http://www.w3.org/2000/svg" viewBox="-0.267 -0.747 0.525 0.271" preserveAspectRatio="xMidYMid meet"><rect x="-0.267" y="-0.747" width="0.525" height="0.271" fill="#a9d2ea"/><g stroke="#7e96a9" stroke-width="0.0013" stroke-linejoin="round"><path d="M-2.9925,-1.4517 -2.9447,-1.4388 -2.9615,-1.4253 -2.9983,-1.4431 -2.9925,-1.4517Z M-2.8997,-1.3303 -2.8901,-1.3138 -2.9224,-1.3243 -2.8997,-1.3303Z M-2.6686,-1.2432 -2.6567,-1.2354 -2.6873,-1.2093 -2.7002,-1.2276 -2.6686,-1.2432Z M-2.2695,-1.1816 -2.2791,-1.1473 -2.2873,-1.1591 -2.2869,-1.1879 -2.3059,-1.1717 -2.296,-1.1916 -2.3295,-1.2221 -2.3326,-1.2374 -2.3234,-1.2351 -2.3307,-1.2436 -2.3246,-1.2452 -2.3393,-1.2515 -2.3366,-1.2664 -2.3524,-1.2641 -2.3625,-1.2969 -2.3578,-1.2574 -2.3719,-1.2624 -2.3763,-1.2843 -2.3909,-1.2836 -2.3747,-1.2641 -2.3843,-1.2571 -2.44,-1.3014 -2.4258,-1.3114 -2.4335,-1.3173 -2.4508,-1.3069 -2.4681,-1.3212 -2.5159,-1.3177 -2.529,-1.3289 -2.5253,-1.3406 -2.5351,-1.3303 -2.5581,-1.3427 -2.5548,-1.3575 -2.589,-1.3546 -2.5943,-1.3342 -2.5824,-1.3338 -2.5913,-1.3159 -2.6075,-1.3208 -2.6347,-1.2907 -2.652,-1.2918 -2.6363,-1.309 -2.6503,-1.3093 -2.6417,-1.3424 -2.6019,-1.3481 -2.6189,-1.3585 -2.608,-1.3705 -2.6709,-1.3275 -2.6639,-1.3184 -2.6909,-1.288 -2.678,-1.2741 -2.7663,-1.1869 -2.8191,-1.1732 -2.8508,-1.1494 -2.8222,-1.1822 -2.7976,-1.1791 -2.7978,-1.1948 -2.7482,-1.2331 -2.7508,-1.2508 -2.7435,-1.2554 -2.7492,-1.2631 -2.7369,-1.287 -2.7609,-1.2694 -2.766,-1.2805 -2.759,-1.2819 -2.7718,-1.2816 -2.7742,-1.2624 -2.7988,-1.2843 -2.8299,-1.2704 -2.8212,-1.2863 -2.8348,-1.3268 -2.8267,-1.3417 -2.8374,-1.3166 -2.8608,-1.3103 -2.8859,-1.336 -2.8552,-1.3488 -2.8817,-1.3499 -2.8775,-1.3564 -2.9002,-1.376 -2.876,-1.407 -2.8695,-1.4353 -2.8499,-1.4287 -2.8088,-1.4525 -2.8185,-1.4832 -2.8081,-1.4982 -2.8416,-1.4807 -2.8997,-1.4892 -2.9135,-1.5131 -2.9,-1.5185 -2.9337,-1.5341 -2.8704,-1.5742 -2.8561,-1.5733 -2.8629,-1.558 -2.8571,-1.552 -2.8105,-1.5567 -2.8337,-1.5901 -2.7965,-1.5667 -2.911,-1.6548 -2.9009,-1.6802 -2.8543,-1.6939 -2.8253,-1.7524 -2.7934,-1.766 -2.7903,-1.7498 -2.7819,-1.7623 -2.7939,-1.7681 -2.7869,-1.7765 -2.7309,-1.8099 -2.7154,-1.7942 -2.7222,-1.7792 -2.7082,-1.7931 -2.6581,-1.7797 -2.6519,-1.7586 -2.4997,-1.7416 -2.4609,-1.7177 -2.4609,-1.3275 -2.4274,-1.3289 -2.3988,-1.2792 -2.3646,-1.3097 -2.3283,-1.2627 -2.3007,-1.2036 -2.2695,-1.1816Z M-2.8533,-1.1536 -2.8463,-1.1442 -2.878,-1.1403 -2.8533,-1.1536Z M-2.3277,-1.2167 -2.3204,-1.2128 -2.325,-1.1995 -2.3384,-1.217 -2.3277,-1.2167Z M-2.3557,-1.2279 -2.3506,-1.1919 -2.364,-1.2247 -2.3703,-1.217 -2.3647,-1.2335 -2.3557,-1.2279Z M-2.3506,-1.2544 -2.3356,-1.237 -2.3442,-1.2501 -2.3372,-1.2279 -2.3478,-1.218 -2.3548,-1.2607 -2.3506,-1.2544Z M-2.3689,-1.2571 -2.3553,-1.2498 -2.3621,-1.2416 -2.355,-1.2322 -2.3721,-1.2312 -2.3836,-1.2482 -2.3689,-1.2571Z M-2.3312,-1.1957 -2.3068,-1.1689 -2.3148,-1.1686 -2.3035,-1.1606 -2.3042,-1.146 -2.3332,-1.1785 -2.3255,-1.1826 -2.3342,-1.1838 -2.3312,-1.1957Z M-2.6602,-1.2611 -2.6526,-1.2571 -2.677,-1.2521 -2.6602,-1.2611Z M-2.9315,-1.105 -2.9512,-1.0899 -2.9315,-1.105Z M-2.9081,-1.1212 -2.9013,-1.1221 -2.9288,-1.1041 -2.9081,-1.1212Z M-3.0487,-1.0673 -3.0596,-1.0667 -3.0372,-1.0756 -3.0487,-1.0673Z M-2.7154,-0.338 -2.7236,-0.3517 -2.7197,-0.3616 -2.7018,-0.3475 -2.7154,-0.338Z M-1.3039,-0.8814 -1.2369,-0.8881 -1.2085,-0.9435 -1.1835,-0.9337 -1.1833,-0.8995 -1.1692,-0.8772 -1.1961,-0.8632 -1.2001,-0.8708 -1.2249,-0.8513 -1.2401,-0.8169 -1.2209,-0.8017 -1.246,-0.8045 -1.2483,-0.7947 -1.2914,-0.7801 -1.291,-0.7917 -1.2929,-0.7581 -1.3053,-0.7403 -1.3181,-0.7513 -1.3102,-0.7625 -1.3193,-0.7547 -1.3097,-0.7275 -1.3252,-0.6993 -1.3205,-0.7169 -1.3324,-0.7338 -1.3242,-0.7518 -1.3364,-0.7464 -1.3324,-0.72 -1.3479,-0.7271 -1.3444,-0.7378 -1.3484,-0.7313 -1.331,-0.7156 -1.3458,-0.7218 -1.3313,-0.6971 -1.3483,-0.7032 -1.3265,-0.694 -1.3182,-0.6704 -1.3256,-0.6886 -1.3233,-0.6767 -1.3392,-0.6792 -1.3219,-0.6693 -1.3294,-0.6603 -1.3446,-0.6642 -1.3341,-0.6494 -1.3511,-0.6471 -1.3601,-0.6304 -1.4102,-0.5993 -1.4217,-0.5722 -1.3971,-0.486 -1.4046,-0.4553 -1.4156,-0.4536 -1.4263,-0.4698 -1.4436,-0.4995 -1.4383,-0.5066 -1.4458,-0.5064 -1.4425,-0.5271 -1.4607,-0.5479 -1.4891,-0.5429 -1.494,-0.5552 -1.5219,-0.5562 -1.5184,-0.5608 -1.5361,-0.5539 -1.5361,-0.5633 -1.5766,-0.555 -1.5603,-0.5503 -1.5659,-0.5417 -1.5537,-0.5332 -1.56,-0.5289 -1.5736,-0.5401 -1.5745,-0.5312 -1.5882,-0.533 -1.6038,-0.5461 -1.6102,-0.5405 -1.6378,-0.5489 -1.6539,-0.5368 -1.6584,-0.5433 -1.6628,-0.5285 -1.6867,-0.5235 -1.6828,-0.5185 -1.6958,-0.5122 -1.7006,-0.4962 -1.7064,-0.4987 -1.6996,-0.4677 -1.7298,-0.479 -1.7368,-0.5005 -1.7705,-0.5449 -1.7909,-0.5443 -1.8022,-0.5293 -1.8221,-0.5407 -1.8322,-0.5624 -1.8579,-0.5853 -1.938,-0.5761 -2.0022,-0.6049 -2.0443,-0.601 -2.0684,-0.6321 -2.1056,-0.6439 -2.138,-0.7078 -2.1305,-0.7065 -2.1347,-0.7182 -2.1211,-0.7193 -2.1468,-0.7178 -2.1705,-0.7714 -2.1654,-0.7965 -2.1736,-0.8283 -2.164,-0.9118 -2.1506,-0.91 -2.1654,-0.9133 -2.1614,-0.9306 -2.1766,-0.9674 -2.1429,-0.9611 -2.1492,-0.9409 -2.1386,-0.9554 -2.1473,-0.9352 -2.1415,-0.9344 -2.1335,-0.9577 -2.1431,-0.9835 -1.6609,-0.9835 -1.657,-0.9932 -1.6514,-0.9769 -1.5973,-0.959 -1.5425,-0.9653 -1.4683,-0.9197 -1.4408,-0.89 -1.4336,-0.8465 -1.4512,-0.8125 -1.4432,-0.8017 -1.3795,-0.8281 -1.3762,-0.8467 -1.3408,-0.848 -1.3039,-0.8814Z M-1.2655,-0.7856 -1.2549,-0.7873 -1.2921,-0.7776 -1.2655,-0.7856Z M-1.6959,-0.4733 -1.6998,-0.4936 -1.6959,-0.4733Z" fill="#e8efe2"/><path d="M0.2007,-0.6145 0.2007,-0.5985 0.1792,-0.5835 0.1784,-0.5651 0.1662,-0.5539 0.1574,-0.5923 0.1309,-0.6281 0.144,-0.6471 0.1433,-0.6855 0.1497,-0.6947 0.1691,-0.7034 0.1817,-0.6901 0.1929,-0.6975 0.1829,-0.6782 0.1941,-0.658 0.1752,-0.6346 0.2007,-0.6145Z" fill="#e8efe2"/><path d="M0.055,-0.7581 0.0604,-0.7561 0.0536,-0.747 0.0414,-0.7531 0.055,-0.7581Z M-0.0312,-0.8427 -0.0007,-0.8255 0.056,-0.8193 0.0567,-0.8078 0.0124,-0.7817 -0.0058,-0.752 0.0035,-0.7349 -0.0368,-0.6912 -0.0763,-0.6899 -0.0983,-0.6749 -0.1086,-0.694 -0.1293,-0.6999 -0.1222,-0.7416 -0.1316,-0.7552 -0.1229,-0.7563 -0.1208,-0.7868 -0.1084,-0.7982 -0.1155,-0.8078 -0.1545,-0.8075 -0.1602,-0.8369 -0.1344,-0.8511 -0.0312,-0.8427Z" fill="#e8efe2"/><path d="M-0.1532,-0.8078 -0.1155,-0.8078 -0.1084,-0.7982 -0.1208,-0.7868 -0.1229,-0.7563 -0.1316,-0.7552 -0.1215,-0.7222 -0.1367,-0.6962 -0.1571,-0.6966 -0.1513,-0.7273 -0.1614,-0.7327 -0.1534,-0.7421 -0.1653,-0.7342 -0.1515,-0.7801 -0.1532,-0.8078Z" fill="#e8efe2"/><path d="M0.1045,-1.0312 0.0878,-1.0512 0.0602,-1.0532 0.0745,-1.0512 0.0689,-1.0608 0.0833,-1.0931 0.119,-1.1077 0.1257,-1.103 0.1168,-1.0813 0.1225,-1.0738 0.1038,-1.0605 0.1045,-1.0312Z" fill="#e8efe2"/><path d="M-0.0387,-0.655 -0.0215,-0.5923 -0.0658,-0.5837 -0.0646,-0.5683 -0.1443,-0.5289 -0.1515,-0.5231 -0.1534,-0.4921 -0.1988,-0.4874 -0.2169,-0.4476 -0.2424,-0.4258 -0.2574,-0.3844 -0.2967,-0.3829 -0.2515,-0.4751 -0.226,-0.5076 -0.2016,-0.5155 -0.178,-0.5368 -0.1614,-0.6018 -0.1204,-0.631 -0.1033,-0.6698 -0.0922,-0.6721 -0.0808,-0.6573 -0.0387,-0.655Z" fill="#e8efe2"/><path d="M-0.2143,-0.2614 -0.2536,-0.295 -0.2834,-0.2926 -0.2887,-0.2801 -0.2801,-0.3235 -0.2882,-0.3445 -0.2829,-0.3607 -0.2946,-0.3767 -0.2976,-0.3715 -0.296,-0.3812 -0.2272,-0.3812 -0.2295,-0.4093 -0.2098,-0.4216 -0.2098,-0.4702 -0.1515,-0.4702 -0.1515,-0.4954 -0.0841,-0.4509 -0.115,-0.4507 -0.0962,-0.2739 -0.1632,-0.2771 -0.1911,-0.2676 -0.2007,-0.2764 -0.2143,-0.2614Z" fill="#e8efe2"/><path d="M0.1662,-0.5539 0.1784,-0.5651 0.1792,-0.5835 0.2007,-0.5985 0.2007,-0.6145 0.2649,-0.5981 0.2763,-0.5769 0.3337,-0.5548 0.351,-0.5687 0.3496,-0.5923 0.3676,-0.6062 0.3873,-0.6091 0.4065,-0.5944 0.4355,-0.589 0.436,-0.3564 0.4185,-0.3564 0.4185,-0.3471 0.2789,-0.4212 0.2478,-0.4055 0.2089,-0.4225 0.2009,-0.4376 0.1803,-0.4418 0.1644,-0.4731 0.1721,-0.4809 0.1731,-0.5052 0.1662,-0.5539Z" fill="#e8efe2"/><path d="M0.1225,-0.9045 0.147,-0.9176 0.1562,-0.902 0.1623,-0.9189 0.1768,-0.9123 0.1824,-0.9281 0.2124,-0.9337 0.2391,-0.9194 0.2335,-0.9128 0.2421,-0.8965 0.2142,-0.8925 0.2164,-0.8623 0.2367,-0.8465 0.2538,-0.8148 0.282,-0.8068 0.2775,-0.7977 0.3133,-0.778 0.321,-0.7606 0.2955,-0.7734 0.2883,-0.7572 0.2997,-0.7403 0.2744,-0.7167 0.2829,-0.7389 0.2738,-0.7627 0.1944,-0.8184 0.1754,-0.8574 0.1531,-0.8671 0.1307,-0.8513 0.1339,-0.8598 0.1204,-0.8652 0.1157,-0.8831 0.1248,-0.8908 0.1225,-0.9045Z M0.2719,-0.7229 0.2637,-0.6892 0.2171,-0.714 0.2222,-0.722 0.2719,-0.7229Z M0.1681,-0.7831 0.1669,-0.7441 0.151,-0.7387 0.1435,-0.7838 0.1611,-0.7919 0.1681,-0.7831Z" fill="#e8efe2"/><path d="M0.1655,-0.8283 0.1604,-0.7947 0.1496,-0.8176 0.1655,-0.8283Z M0.133,-0.9468 0.1216,-0.9432 0.1042,-0.9116 0.1183,-0.9166 0.1248,-0.8908 0.1157,-0.8831 0.1204,-0.8652 0.1339,-0.8598 0.1307,-0.8513 0.1068,-0.8345 0.0682,-0.8463 0.0532,-0.8309 0.056,-0.8193 0.0354,-0.8174 -0.0255,-0.834 -0.0312,-0.8427 -0.0188,-0.8945 -0.0096,-0.8814 -0.0201,-0.9141 -0.036,-0.9268 -0.0384,-0.9357 -0.0304,-0.9373 -0.0752,-0.9528 -0.0817,-0.9585 -0.074,-0.9653 -0.0831,-0.9693 -0.0241,-0.9745 -0.0325,-1.002 0.0073,-0.9958 0.0033,-1.0026 0.0278,-1.0175 0.0291,-1.0351 0.044,-1.0409 0.0724,-1.0099 0.0848,-1.0145 0.0962,-0.9974 0.1419,-0.983 0.133,-0.9468Z M-0.9533,-0.0407 -0.9427,-0.0603 -0.9509,-0.0846 -0.9411,-0.1009 -0.9233,-0.0949 -0.9076,-0.076 -0.9046,-0.0811 -0.9015,-0.0709 -0.9198,-0.0412 -0.9533,-0.0407Z" fill="#e8efe2"/><path d="M0.1497,-0.6947 0.1433,-0.6855 0.144,-0.6471 0.1309,-0.6281 0.1578,-0.5915 0.1712,-0.5328 0.1724,-0.4825 0.1644,-0.4731 0.1791,-0.443 0.2009,-0.4376 0.2089,-0.4225 0.1019,-0.3467 0.0569,-0.338 0.0546,-0.3536 0.0305,-0.3625 0.0201,-0.3769 -0.1515,-0.4954 -0.1515,-0.5231 -0.1443,-0.5289 -0.0646,-0.5683 -0.0658,-0.5837 -0.0215,-0.5923 -0.0387,-0.655 0.022,-0.6855 0.1497,-0.6947Z" fill="#e8efe2"/><path d="M0.1815,-0.6894 0.1833,-0.6808 0.1745,-0.6721 0.1728,-0.6614 0.1745,-0.6359 0.1518,-0.6338 0.1222,-0.6486 0.0925,-0.6486 0.0367,-0.6254 -0.0401,-0.5777 -0.0663,-0.5736 -0.0838,-0.5635 -0.0942,-0.5513 -0.1134,-0.5493 -0.1326,-0.5312 -0.1763,-0.5153 -0.192,-0.5193 -0.1902,-0.5253 -0.1501,-0.5635 -0.1676,-0.5594 -0.1728,-0.5635 -0.1658,-0.588 -0.1274,-0.6128 -0.1257,-0.6233 -0.1187,-0.6317 -0.0977,-0.6401 -0.103,-0.6507 -0.103,-0.67 -0.0942,-0.6721 -0.089,-0.6614 -0.0803,-0.6571 -0.0559,-0.6571 -0.0524,-0.6614 -0.0489,-0.655 -0.0332,-0.655 -0.007,-0.6721 -0.0,-0.67 0.014,-0.6829 0.0663,-0.6938 0.0855,-0.6938 0.0925,-0.6873 0.11,-0.696 0.1501,-0.6938 0.1745,-0.7026 0.1815,-0.6894Z" fill="#e8453c" fill-opacity="0.5" stroke="#e8453c" stroke-width="0.0013"/></g></svg>