<svg xmlns="http://www.w3.org/2000/svg" viewBox="-1.514 -0.647 0.519 2.956" preserveAspectRatio="xMidYMid meet"><rect x="-1.514" y="-0.647" width="0.519" height="2.956" fill="#a9d2ea"/><g stroke="#7e96a9" stroke-width="0.0074" stroke-linejoin="round"><path d="M-1.0475,-0.1498 -1.0446,-0.1445 -1.0598,-0.132 -1.0533,-0.1225 -1.0673,-0.117 -1.0715,-0.1039 -1.0582,-0.0855 -1.0971,-0.0627 -1.1308,-0.0748 -1.1179,-0.0436 -1.1064,-0.0388 -1.1442,-0.012 -1.1673,-0.0213 -1.173,-0.0417 -1.1844,-0.0487 -1.1748,-0.0597 -1.1844,-0.0788 -1.1777,-0.1081 -1.2118,-0.107 -1.2235,-0.1214 -1.2568,-0.123 -1.2706,-0.1597 -1.2805,-0.1611 -1.2687,-0.1903 -1.2448,-0.2085 -1.2559,-0.2033 -1.2495,-0.1871 -1.2586,-0.1722 -1.2512,-0.159 -1.2434,-0.1606 -1.2474,-0.1925 -1.2182,-0.2015 -1.2268,-0.209 -1.2217,-0.2142 -1.2153,-0.2017 -1.1938,-0.196 -1.1893,-0.1841 -1.1563,-0.1866 -1.1367,-0.1767 -1.1123,-0.1843 -1.1222,-0.1868 -1.08,-0.1886 -1.098,-0.1848 -1.0877,-0.1715 -1.061,-0.1641 -1.0755,-0.1507 -1.0475,-0.1498Z" fill="#e8efe2"/><path d="M-0.9315,0.6262 -0.9582,0.6513 -1.01,0.6412 -1.02,0.6258 -1.0062,0.5539 -0.9919,0.5515 -0.9774,0.5712 -0.9704,0.5665 -0.9383,0.5913 -0.9273,0.6053 -0.9315,0.6262Z" fill="#e8efe2"/><path d="M-2.9925,-1.4517 -2.9447,-1.4388 -2.9615,-1.4253 -2.9983,-1.4431 -2.9925,-1.4517Z M-2.8997,-1.3303 -2.8901,-1.3138 -2.9224,-1.3243 -2.8997,-1.3303Z M-2.6686,-1.2432 -2.6567,-1.2354 -2.6873,-1.2093 -2.7002,-1.2276 -2.6686,-1.2432Z M-2.2695,-1.1816 -2.2791,-1.1473 -2.2873,-1.1591 -2.2869,-1.1879 -2.3059,-1.1717 -2.296,-1.1916 -2.3295,-1.2221 -2.3326,-1.2374 -2.3234,-1.2351 -2.3307,-1.2436 -2.3246,-1.2452 -2.3393,-1.2515 -2.3366,-1.2664 -2.3524,-1.2641 -2.3625,-1.2969 -2.3578,-1.2574 -2.3719,-1.2624 -2.3763,-1.2843 -2.3909,-1.2836 -2.3747,-1.2641 -2.3843,-1.2571 -2.44,-1.3014 -2.4258,-1.3114 -2.4335,-1.3173 -2.4508,-1.3069 -2.4681,-1.3212 -2.5159,-1.3177 -2.529,-1.3289 -2.5253,-1.3406 -2.5351,-1.3303 -2.5581,-1.3427 -2.5548,-1.3575 -2.589,-1.3546 -2.5943,-1.3342 -2.5824,-1.3338 -2.5913,-1.3159 -2.6075,-1.3208 -2.6347,-1.2907 -2.652,-1.2918 -2.6363,-1.309 -2.6503,-1.3093 -2.6417,-1.3424 -2.6019,-1.3481 -2.6189,-1.3585 -2.608,-1.3705 -2.6709,-1.3275 -2.6639,-1.3184 -2.6909,-1.288 -2.678,-1.2741 -2.7663,-1.1869 -2.8191,-1.1732 -2.8508,-1.1494 -2.8222,-1.1822 -2.7976,-1.1791 -2.7978,-1.1948 -2.7482,-1.2331 -2.7508,-1.2508 -2.7435,-1.2554 -2.7492,-1.2631 -2.7369,-1.287 -2.7609,-1.2694 -2.766,-1.2805 -2.759,-1.2819 -2.7718,-1.2816 -2.7742,-1.2624 -2.7988,-1.2843 -2.8299,-1.2704 -2.8212,-1.2863 -2.8348,-1.3268 -2.8267,-1.3417 -2.8374,-1.3166 -2.8608,-1.3103 -2.8859,-1.336 -2.8552,-1.3488 -2.8817,-1.3499 -2.8775,-1.3564 -2.9002,-1.376 -2.876,-1.407 -2.8695,-1.4353 -2.8499,-1.4287 -2.8088,-1.4525 -2.8185,-1.4832 -2.8081,-1.4982 -2.8416,-1.4807 -2.8997,-1.4892 -2.9135,-1.5131 -2.9,-1.5185 -2.9337,-1.5341 -2.8704,-1.5742 -2.8561,-1.5733 -2.8629,-1.558 -2.8571,-1.552 -2.8105,-1.5567 -2.8337,-1.5901 -2.7965,-1.5667 -2.911,-1.6548 -2.9009,-1.6802 -2.8543,-1.6939 -2.8253,-1.7524 -2.7934,-1.766 -2.7903,-1.7498 -2.7819,-1.7623 -2.7939,-1.7681 -2.7869,-1.7765 -2.7309,-1.8099 -2.7154,-1.7942 -2.7222,-1.7792 -2.7082,-1.7931 -2.6581,-1.7797 -2.6519,-1.7586 -2.4997,-1.7416 -2.4609,-1.7177 -2.4609,-1.3275 -2.4274,-1.3289 -2.3988,-1.2792 -2.3646,-1.3097 -2.3283,-1.2627 -2.3007,-1.2036 -2.2695,-1.1816Z M-2.8533,-1.1536 -2.8463,-1.1442 -2.878,-1.1403 -2.8533,-1.1536Z M-2.3277,-1.2167 -2.3204,-1.2128 -2.325,-1.1995 -2.3384,-1.217 -2.3277,-1.2167Z M-2.3557,-1.2279 -2.3506,-1.1919 -2.364,-1.2247 -2.3703,-1.217 -2.3647,-1.2335 -2.3557,-1.2279Z M-2.3506,-1.2544 -2.3356,-1.237 -2.3442,-1.2501 -2.3372,-1.2279 -2.3478,-1.218 -2.3548,-1.2607 -2.3506,-1.2544Z M-2.3689,-1.2571 -2.3553,-1.2498 -2.3621,-1.2416 -2.355,-1.2322 -2.3721,-1.2312 -2.3836,-1.2482 -2.3689,-1.2571Z M-2.3312,-1.1957 -2.3068,-1.1689 -2.3148,-1.1686 -2.3035,-1.1606 -2.3042,-1.146 -2.3332,-1.1785 -2.3255,-1.1826 -2.3342,-1.1838 -2.3312,-1.1957Z M-2.6602,-1.2611 -2.6526,-1.2571 -2.677,-1.2521 -2.6602,-1.2611Z M-2.9315,-1.105 -2.9512,-1.0899 -2.9315,-1.105Z M-2.9081,-1.1212 -2.9013,-1.1221 -2.9288,-1.1041 -2.9081,-1.1212Z M-3.0487,-1.0673 -3.0596,-1.0667 -3.0372,-1.0756 -3.0487,-1.0673Z M-2.7154,-0.338 -2.7236,-0.3517 -2.7197,-0.3616 -2.7018,-0.3475 -2.7154,-0.338Z M-1.3039,-0.8814 -1.2369,-0.8881 -1.2085,-0.9435 -1.1835,-0.9337 -1.1833,-0.8995 -1.1692,-0.8772 -1.1961,-0.8632 -1.2001,-0.8708 -1.2249,-0.8513 -1.2401,-0.8169 -1.2209,-0.8017 -1.246,-0.8045 -1.2483,-0.7947 -1.2914,-0.7801 -1.291,-0.7917 -1.2929,-0.7581 -1.3053,-0.7403 -1.3181,-0.7513 -1.3102,-0.7625 -1.3193,-0.7547 -1.3097,-0.7275 -1.3252,-0.6993 -1.3205,-0.7169 -1.3324,-0.7338 -1.3242,-0.7518 -1.3364,-0.7464 -1.3324,-0.72 -1.3479,-0.7271 -1.3444,-0.7378 -1.3484,-0.7313 -1.331,-0.7156 -1.3458,-0.7218 -1.3313,-0.6971 -1.3483,-0.7032 -1.3265,-0.694 -1.3182,-0.6704 -1.3256,-0.6886 -1.3233,-0.6767 -1.3392,-0.6792 -1.3219,-0.6693 -1.3294,-0.6603 -1.3446,-0.6642 -1.3341,-0.6494 -1.3511,-0.6471 -1.3601,-0.6304 -1.4102,-0.5993 -1.4217,-0.5722 -1.3971,-0.486 -1.4046,-0.4553 -1.4156,-0.4536 -1.4263,-0.4698 -1.4436,-0.4995 -1.4383,-0.5066 -1.4458,-0.5064 -1.4425,-0.5271 -1.4607,-0.5479 -1.4891,-0.5429 -1.494,-0.5552 -1.5219,-0.5562 -1.5184,-0.5608 -1.5361,-0.5539 -1.5361,-0.5633 -1.5766,-0.555 -1.5603,-0.5503 -1.5659,-0.5417 -1.5537,-0.5332 -1.56,-0.5289 -1.5736,-0.5401 -1.5745,-0.5312 -1.5882,-0.533 -1.6038,-0.5461 -1.6102,-0.5405 -1.6378,-0.5489 -1.6539,-0.5368 -1.6584,-0.5433 -1.6628,-0.5285 -1.6867,-0.5235 -1.6828,-0.5185 -1.6958,-0.5122 -1.7006,-0.4962 -1.7064,-0.4987 -1.6996,-0.4677 -1.7298,-0.479 -1.7368,-0.5005 -1.7705,-0.5449 -1.7909,-0.5443 -1.8022,-0.5293 -1.8221,-0.5407 -1.8322,-0.5624 -1.8579,-0.5853 -1.938,-0.5761 -2.0022,-0.6049 -2.0443,-0.601 -2.0684,-0.6321 -2.1056,-0.6439 -2.138,-0.7078 -2.1305,-0.7065 -2.1347,-0.7182 -2.1211,-0.7193 -2.1468,-0.7178 -2.1705,-0.7714 -2.1654,-0.7965 -2.1736,-0.8283 -2.164,-0.9118 -2.1506,-0.91 -2.1654,-0.9133 -2.1614,-0.9306 -2.1766,-0.9674 -2.1429,-0.9611 -2.1492,-0.9409 -2.1386,-0.9554 -2.1473,-0.9352 -2.1415,-0.9344 -2.1335,-0.9577 -2.1431,-0.9835 -1.6609,-0.9835 -1.657,-0.9932 -1.6514,-0.9769 -1.5973,-0.959 -1.5425,-0.9653 -1.4683,-0.9197 -1.4408,-0.89 -1.4336,-0.8465 -1.4512,-0.8125 -1.4432,-0.8017 -1.3795,-0.8281 -1.3762,-0.8467 -1.3408,-0.848 -1.3039,-0.8814Z M-1.2655,-0.7856 -1.2549,-0.7873 -1.2921,-0.7776 -1.2655,-0.7856Z M-1.6959,-0.4733 -1.6998,-0.4936 -1.6959,-0.4733Z" fill="#e8efe2"/><path d="M-0.9453,-0.0937 -0.9503,-0.0784 -0.9423,-0.0627 -0.9495,-0.0429 -0.977,-0.044 -0.9767,-0.0325 -0.9896,-0.0356 -1.0128,-0.0699 -1.0102,-0.0853 -1.0006,-0.0877 -0.9943,-0.1047 -0.9488,-0.1033 -0.9453,-0.0937Z" fill="#e8efe2"/><path d="M-1.2212,0.0741 -1.2357,0.0728 -1.2722,0.0895 -1.2765,0.1132 -1.2915,0.1323 -1.2736,0.1576 -1.2778,0.165 -1.2633,0.1667 -1.2598,0.1754 -1.2312,0.1655 -1.2329,0.1934 -1.2144,0.1923 -1.1989,0.2199 -1.2116,0.2757 -1.2015,0.2891 -1.2291,0.3259 -1.3252,0.2582 -1.3746,0.151 -1.3961,0.1184 -1.4162,0.106 -1.4116,0.0986 -1.4197,0.0816 -1.4018,0.0592 -1.4046,0.0774 -1.3793,0.0869 -1.3675,0.0594 -1.3189,0.0267 -1.3135,0.0098 -1.32,0.0021 -1.3128,0.0007 -1.273,0.0417 -1.2387,0.0386 -1.2235,0.0464 -1.2346,0.066 -1.2212,0.0741Z" fill="#e8efe2"/><path d="M-1.0151,0.3594 -1.0116,0.3958 -0.9748,0.3996 -0.9673,0.4307 -0.9467,0.4327 -0.9557,0.4805 -0.9723,0.4978 -1.0228,0.4958 -1.006,0.4572 -1.0652,0.4271 -1.0931,0.3992 -1.0779,0.3499 -1.0313,0.3432 -1.0151,0.3594Z" fill="#e8efe2"/><path d="M-1.3504,-0.1517 -1.3474,-0.1396 -1.3596,-0.1265 -1.3687,-0.1411 -1.3572,-0.1424 -1.3804,-0.1577 -1.4043,-0.1438 -1.3964,-0.1313 -1.408,-0.1265 -1.4148,-0.1383 -1.4184,-0.1336 -1.4265,-0.1426 -1.4491,-0.1461 -1.4451,-0.1682 -1.4198,-0.1538 -1.3807,-0.1673 -1.3504,-0.1517Z" fill="#e8efe2"/><path d="M-1.4514,-0.2647 -1.4628,-0.1886 -1.4964,-0.1942 -1.5301,-0.2271 -1.5177,-0.2298 -1.5142,-0.2423 -1.4963,-0.2443 -1.4834,-0.2603 -1.4514,-0.2647Z" fill="#e8efe2"/><path d="M3.0215,0.7924 3.0433,0.7882 3.0407,0.8056 3.0112,0.8439 3.0206,0.8538 3.0027,0.8496 2.9887,0.8632 2.9807,0.903 2.9514,0.9222 2.9058,0.9053 2.9386,0.8588 2.9847,0.8302 3.0067,0.7803 3.0184,0.7748 3.0215,0.7924Z M3.0241,0.6513 3.0425,0.6582 3.0494,0.6925 3.0638,0.7004 3.0624,0.6847 3.0737,0.7103 3.092,0.7178 3.1161,0.7111 3.1051,0.7457 3.0906,0.7452 3.0864,0.7666 3.0597,0.8 3.048,0.793 3.0571,0.7654 3.0327,0.7475 3.0473,0.7356 3.0531,0.7136 3.0472,0.6982 3.0531,0.6977 3.0144,0.6414 3.0241,0.6513Z" fill="#e8efe2"/><path d="M0.1045,-1.0312 0.0878,-1.0512 0.0602,-1.0532 0.0745,-1.0512 0.0689,-1.0608 0.0833,-1.0931 0.119,-1.1077 0.1257,-1.103 0.1168,-1.0813 0.1225,-1.0738 0.1038,-1.0605 0.1045,-1.0312Z" fill="#e8efe2"/><path d="M-2.0443,-0.601 -2.0022,-0.6049 -1.938,-0.5761 -1.8579,-0.5853 -1.8322,-0.5624 -1.8221,-0.5407 -1.8022,-0.5293 -1.7909,-0.5443 -1.7705,-0.5449 -1.7368,-0.5005 -1.7298,-0.479 -1.6956,-0.4694 -1.708,-0.4055 -1.6741,-0.3345 -1.6502,-0.3226 -1.6134,-0.332 -1.5975,-0.3279 -1.5837,-0.3443 -1.5769,-0.3752 -1.5207,-0.3866 -1.5144,-0.3778 -1.5305,-0.3497 -1.5324,-0.3261 -1.5364,-0.3349 -1.5561,-0.316 -1.5881,-0.3162 -1.5881,-0.3057 -1.5954,-0.3059 -1.5787,-0.2842 -1.6012,-0.2842 -1.6099,-0.2567 -1.6471,-0.288 -1.6406,-0.2833 -1.6563,-0.2906 -1.6844,-0.2766 -1.8054,-0.3255 -1.841,-0.356 -1.8363,-0.3842 -1.8464,-0.4057 -1.8858,-0.4522 -1.9076,-0.463 -1.9073,-0.4805 -1.9576,-0.5297 -1.9731,-0.5732 -2.0059,-0.588 -1.9993,-0.5497 -1.9473,-0.484 -1.9314,-0.4382 -1.9097,-0.4218 -1.9167,-0.4111 -1.956,-0.4478 -1.9577,-0.4685 -1.975,-0.4887 -1.9827,-0.4842 -2.007,-0.5043 -1.9909,-0.5031 -1.9905,-0.5179 -2.0188,-0.5445 -2.0443,-0.601Z" fill="#e8efe2"/><path d="M-1.3484,-0.3279 -1.3301,-0.3178 -1.3474,-0.3141 -1.3673,-0.3248 -1.3484,-0.3279Z" fill="#e8efe2"/><path d="M-1.4514,-0.2647 -1.4834,-0.2603 -1.4963,-0.2443 -1.5142,-0.2423 -1.5195,-0.2287 -1.5326,-0.236 -1.5324,-0.2448 -1.5596,-0.2544 -1.5558,-0.2661 -1.5307,-0.2813 -1.483,-0.2828 -1.4514,-0.2647Z" fill="#e8efe2"/><path d="M-1.2528,-0.3512 -1.2526,-0.3202 -1.2996,-0.3266 -1.2633,-0.3299 -1.2797,-0.3536 -1.2528,-0.3512Z" fill="#e8efe2"/><path d="M-1.0601,-0.0909 -1.0715,-0.1039 -1.0673,-0.117 -1.0533,-0.1225 -1.0598,-0.132 -1.0446,-0.1445 -1.0475,-0.1498 -1.0212,-0.1295 -1.024,-0.1118 -1.0175,-0.1204 -0.9989,-0.1081 -0.9985,-0.0909 -1.0102,-0.0853 -1.0132,-0.0716 -0.9858,-0.0339 -1.0338,-0.0241 -1.047,-0.047 -1.042,-0.0765 -1.0498,-0.0791 -1.0496,-0.0916 -1.0601,-0.0909Z" fill="#e8efe2"/><path d="M0.1655,-0.8283 0.1604,-0.7947 0.1496,-0.8176 0.1655,-0.8283Z M0.133,-0.9468 0.1216,-0.9432 0.1042,-0.9116 0.1183,-0.9166 0.1248,-0.8908 0.1157,-0.8831 0.1204,-0.8652 0.1339,-0.8598 0.1307,-0.8513 0.1068,-0.8345 0.0682,-0.8463 0.0532,-0.8309 0.056,-0.8193 0.0354,-0.8174 -0.0255,-0.834 -0.0312,-0.8427 -0.0188,-0.8945 -0.0096,-0.8814 -0.0201,-0.9141 -0.036,-0.9268 -0.0384,-0.9357 -0.0304,-0.9373 -0.0752,-0.9528 -0.0817,-0.9585 -0.074,-0.9653 -0.0831,-0.9693 -0.0241,-0.9745 -0.0325,-1.002 0.0073,-0.9958 0.0033,-1.0026 0.0278,-1.0175 0.0291,-1.0351 0.044,-1.0409 0.0724,-1.0099 0.0848,-1.0145 0.0962,-0.9974 0.1419,-0.983 0.133,-0.9468Z M-0.9533,-0.0407 -0.9427,-0.0603 -0.9509,-0.0846 -0.9411,-0.1009 -0.9233,-0.0949 -0.9076,-0.076 -0.9046,-0.0811 -0.9015,-0.0709 -0.9198,-0.0412 -0.9533,-0.0407Z" fill="#e8efe2"/><path d="M3.1416,0.286 3.1339,0.2946 3.1404,0.2964 3.1154,0.2973 3.1416,0.286Z M3.1116,0.3079 3.1184,0.3209 3.0948,0.3209 3.098,0.311 3.1116,0.3079Z" fill="#e8efe2"/><path d="M-1.3139,0.0019 -1.32,0.0021 -1.3135,0.0098 -1.3189,0.0267 -1.3675,0.0594 -1.3793,0.0869 -1.4046,0.0774 -1.3916,0.045 -1.3935,0.0361 -1.4012,0.0473 -1.4125,0.0396 -1.412,0.0189 -1.4012,0.0108 -1.397,-0.0145 -1.3764,-0.0255 -1.3509,-0.0068 -1.3319,-0.0079 -1.3139,0.0019Z M-1.593,-0.0005 -1.5848,0.0131 -1.5905,0.0178 -1.597,0.015 -1.5903,0.0098 -1.5987,0.0 -1.593,-0.0005Z" fill="#e8efe2"/><path d="M-1.2526,-0.3202 -1.249,-0.3545 -1.221,-0.3503 -1.1928,-0.3307 -1.1989,-0.3233 -1.2397,-0.3244 -1.2469,-0.3129 -1.2526,-0.3202Z" fill="#e8efe2"/><path d="M-1.4284,-0.4157 -1.3931,-0.4106 -1.2942,-0.3595 -1.3565,-0.3538 -1.3479,-0.3683 -1.3635,-0.3705 -1.3741,-0.3861 -1.4286,-0.3977 -1.4294,-0.4066 -1.4816,-0.3911 -1.4668,-0.4064 -1.4284,-0.4157Z" fill="#e8efe2"/><path d="M-1.4409,-0.168 -1.4476,-0.1657 -1.4465,-0.1413 -1.4841,-0.1776 -1.4854,-0.168 -1.4944,-0.1737 -1.4994,-0.1914 -1.4598,-0.1918 -1.4409,-0.168Z" fill="#e8efe2"/><path d="M-1.2448,-0.2085 -1.2687,-0.1903 -1.2805,-0.1611 -1.2706,-0.1597 -1.2568,-0.123 -1.2235,-0.1214 -1.2118,-0.107 -1.1777,-0.1081 -1.1844,-0.0788 -1.1748,-0.0597 -1.1844,-0.0487 -1.173,-0.0417 -1.1673,-0.0237 -1.1764,-0.037 -1.2191,-0.0298 -1.2191,-0.0185 -1.2069,-0.0115 -1.2226,-0.0101 -1.2113,0.0208 -1.2212,0.0741 -1.2346,0.066 -1.2235,0.0464 -1.2387,0.0386 -1.273,0.0417 -1.3055,0.0035 -1.3509,-0.0068 -1.3793,-0.0283 -1.3453,-0.0683 -1.353,-0.0735 -1.3504,-0.1151 -1.3596,-0.1265 -1.3474,-0.1396 -1.3518,-0.1501 -1.3402,-0.1388 -1.342,-0.151 -1.3202,-0.1657 -1.3214,-0.1779 -1.3062,-0.1951 -1.2985,-0.1891 -1.294,-0.1989 -1.2795,-0.1985 -1.2516,-0.2185 -1.2437,-0.2171 -1.2448,-0.2085Z" fill="#e8efe2"/><path d="M-1.2291,0.3259 -1.2132,0.3105 -1.2058,0.3204 -1.1847,0.4093 -1.1695,0.4127 -1.1757,0.4323 -1.1957,0.4438 -1.1924,0.4891 -1.2158,0.5175 -1.2189,0.5529 -1.2308,0.5726 -1.2191,0.6363 -1.2315,0.6582 -1.2287,0.6756 -1.2425,0.6925 -1.2366,0.73 -1.2518,0.7547 -1.2523,0.8103 -1.2591,0.8229 -1.2535,0.8662 -1.242,0.8706 -1.2577,0.8757 -1.2453,0.8871 -1.2523,0.8958 -1.2514,0.9227 -1.2673,0.9782 -1.2842,0.9993 -1.2767,1.0309 -1.2626,1.0293 -1.2638,1.0532 -1.2552,1.0659 -1.1949,1.0744 -1.2357,1.0882 -1.2444,1.1206 -1.2638,1.105 -1.253,1.1088 -1.2432,1.0893 -1.2662,1.1082 -1.275,1.1018 -1.2694,1.0879 -1.2481,1.0836 -1.269,1.0816 -1.2762,1.0969 -1.2854,1.0902 -1.2762,1.0801 -1.2917,1.0844 -1.2968,1.0696 -1.2657,1.0736 -1.2699,1.054 -1.2771,1.0507 -1.2671,1.0605 -1.2832,1.0673 -1.295,1.0571 -1.2905,1.0456 -1.3106,1.0293 -1.3027,1.0205 -1.2882,1.0365 -1.2854,1.0241 -1.2912,1.0334 -1.3025,1.0159 -1.2888,1.0001 -1.2903,0.9843 -1.298,0.9945 -1.2917,0.97 -1.3017,0.9575 -1.2807,0.9622 -1.2867,0.9486 -1.3022,0.9512 -1.2938,0.9468 -1.2999,0.9427 -1.297,0.9263 -1.3214,0.9242 -1.2908,0.8913 -1.2984,0.9118 -1.287,0.9015 -1.2889,0.9207 -1.2868,0.8933 -1.2729,0.8925 -1.2811,0.8838 -1.2685,0.8713 -1.2788,0.861 -1.2704,0.8162 -1.2638,0.8184 -1.2709,0.8071 -1.2622,0.7975 -1.287,0.8031 -1.2912,0.7852 -1.2781,0.7452 -1.2856,0.7034 -1.2605,0.655 -1.247,0.6037 -1.2483,0.5279 -1.2331,0.4766 -1.2231,0.3818 -1.2291,0.3259Z M-1.1978,1.0847 -1.1982,1.1497 -1.2549,1.1421 -1.2271,1.14 -1.2367,1.1274 -1.231,1.1132 -1.2312,1.1283 -1.2086,1.1409 -1.2243,1.1209 -1.2111,1.1056 -1.2275,1.1059 -1.2284,1.0876 -1.1978,1.0847Z M-1.1708,1.1588 -1.1921,1.1536 -1.1708,1.1588Z M-1.2875,0.8412 -1.2984,0.8383 -1.2922,0.8045 -1.2814,0.8136 -1.2875,0.8412Z M-1.2999,0.9878 -1.3018,1.011 -1.3041,0.995 -1.3186,1.005 -1.3073,0.9766 -1.2999,0.9878Z M-1.2984,1.0925 -1.2765,1.105 -1.3039,1.0876 -1.2984,1.0925Z M-1.2727,1.1088 -1.2603,1.1185 -1.2718,1.128 -1.2889,1.1109 -1.2727,1.1088Z M-1.2165,1.1518 -1.1949,1.153 -1.1877,1.1739 -1.2214,1.1588 -1.2165,1.1518Z M-1.246,1.1251 -1.2392,1.1316 -1.2603,1.1257 -1.246,1.1251Z M-1.287,0.8664 -1.2872,0.8881 -1.2933,0.8895 -1.3024,0.8728 -1.2914,0.8603 -1.287,0.8664Z M-1.239,1.1503 -1.2266,1.1564 -1.2469,1.1509 -1.239,1.1503Z" fill="#e8efe2"/><path d="M-1.1673,-0.0213 -1.1427,-0.012 -1.1071,-0.0377 -1.1179,-0.0436 -1.1308,-0.0748 -1.0971,-0.0627 -1.0945,-0.0702 -1.0647,-0.0793 -1.0585,-0.0912 -1.047,-0.0888 -1.0498,-0.0791 -1.0393,-0.0686 -1.0472,-0.0484 -1.043,-0.0332 -1.0273,-0.0209 -0.9969,-0.0351 -0.9767,-0.0325 -0.977,-0.044 -0.9243,-0.0381 -0.8981,-0.0753 -0.8709,-0.0202 -0.9072,0.0239 -0.9191,0.0271 -0.8882,0.0164 -0.8796,0.0353 -0.8606,0.0302 -0.8664,0.0464 -0.8399,0.0129 -0.825,0.0113 -0.7793,0.0305 -0.7805,0.0559 -0.772,0.0431 -0.7713,0.0491 -0.7571,0.0416 -0.6974,0.0499 -0.6487,0.0858 -0.6205,0.0897 -0.6151,0.0974 -0.6103,0.1473 -0.6674,0.226 -0.6781,0.2251 -0.6833,0.314 -0.7156,0.3938 -0.7337,0.4117 -0.7791,0.4138 -0.8412,0.459 -0.8505,0.458 -0.8447,0.4625 -0.8517,0.5209 -0.9083,0.5923 -0.8828,0.5582 -0.8954,0.5499 -0.895,0.5645 -0.9315,0.6262 -0.9273,0.6053 -0.9383,0.5913 -0.9704,0.5665 -0.9774,0.5712 -0.9919,0.5515 -1.0055,0.5531 -0.9727,0.5133 -0.9397,0.4921 -0.9367,0.4747 -0.9427,0.4621 -0.9533,0.4621 -0.9467,0.4327 -0.9673,0.4307 -0.9739,0.4004 -1.0121,0.3947 -1.0146,0.3516 -1.0036,0.3233 -1.0193,0.3054 -1.0184,0.288 -1.0503,0.2879 -1.0561,0.243 -1.1343,0.2106 -1.1414,0.1703 -1.1976,0.1951 -1.2329,0.1934 -1.2312,0.1655 -1.2598,0.1754 -1.2633,0.1667 -1.2778,0.165 -1.2736,0.1576 -1.2915,0.1323 -1.2765,0.1132 -1.2722,0.0895 -1.2357,0.0728 -1.2212,0.0751 -1.2113,0.0208 -1.2226,-0.0101 -1.2069,-0.0115 -1.2191,-0.0185 -1.2191,-0.0298 -1.1764,-0.037 -1.1673,-0.0213Z M-0.8662,0.004 -0.8446,0.0052 -0.8522,0.0243 -0.8816,0.0312 -0.884,0.0047 -0.8662,0.004Z" fill="#e8efe2"/><path d="M-1.2132,0.3105 -1.2015,0.2891 -1.2116,0.2757 -1.1989,0.2199 -1.2144,0.1923 -1.1976,0.1951 -1.1414,0.1703 -1.1343,0.2106 -1.0561,0.243 -1.0503,0.2879 -1.0184,0.288 -1.0193,0.3054 -1.0036,0.3233 -1.0139,0.3592 -1.0313,0.3432 -1.0779,0.3499 -1.0934,0.3981 -1.1156,0.3943 -1.1228,0.4094 -1.1277,0.3981 -1.1558,0.39 -1.1818,0.4106 -1.2001,0.3642 -1.1949,0.3458 -1.2132,0.3105Z" fill="#e8efe2"/><path d="M-1.3479,-0.4683 -1.3481,-0.4811 -1.3603,-0.4878 -1.3451,-0.4805 -1.3479,-0.4683Z M-1.3699,-0.4844 -1.36,-0.4837 -1.3786,-0.4837 -1.3699,-0.4844Z" fill="#e8efe2"/><path d="M-1.0055,0.5531 -1.0215,0.638 -0.9978,0.6605 -1.0015,0.6721 -0.99,0.6827 -0.9901,0.6951 -1.0154,0.7278 -1.0879,0.7358 -1.0891,0.7833 -1.1104,0.7896 -1.1357,0.7815 -1.1343,0.8115 -1.1243,0.8193 -1.1135,0.8118 -1.1104,0.8257 -1.1339,0.825 -1.1226,0.8321 -1.1388,0.8465 -1.1456,0.8816 -1.1683,0.8878 -1.1798,0.9075 -1.1655,0.9319 -1.1493,0.9357 -1.1559,0.953 -1.1486,0.9559 -1.1776,0.9825 -1.1853,1.0101 -1.2039,1.0107 -1.1942,1.015 -1.2106,1.039 -1.2053,1.0535 -1.2125,1.0543 -1.1936,1.075 -1.2561,1.065 -1.2638,1.0532 -1.2626,1.0293 -1.2767,1.0309 -1.2842,0.9993 -1.2673,0.9782 -1.2514,0.9227 -1.2523,0.8958 -1.2453,0.8871 -1.2577,0.8757 -1.242,0.8706 -1.2535,0.8662 -1.2523,0.8386 -1.2593,0.8326 -1.2523,0.8103 -1.2554,0.7787 -1.2467,0.7401 -1.2367,0.7313 -1.2425,0.6925 -1.2287,0.6756 -1.2315,0.6582 -1.2191,0.6363 -1.232,0.5812 -1.2189,0.5529 -1.2158,0.5175 -1.1924,0.4891 -1.1957,0.4438 -1.1757,0.4323 -1.1727,0.4093 -1.1558,0.39 -1.1277,0.3981 -1.1228,0.4094 -1.1156,0.3943 -1.0966,0.3938 -1.0652,0.4271 -1.006,0.4572 -1.0228,0.4958 -0.9723,0.4978 -0.957,0.4829 -0.9533,0.4621 -0.9406,0.4638 -0.9397,0.4921 -0.9727,0.5133 -1.0055,0.5531Z M-1.1982,1.1497 -1.1978,1.0847 -1.1954,1.1024 -1.1744,1.1257 -1.1376,1.1445 -1.1982,1.1497Z" fill="#e8efe2"/><path d="M-1.1921,-0.1878 -1.1921,-0.1843 -1.1537,-0.1843 -1.1484,-0.179 -1.2008,-0.1719 -1.2357,-0.1454 -1.2531,-0.1278 -1.2514,-0.1102 -1.2846,-0.0716 -1.2881,-0.0402 -1.3387,-0.0105 -1.3526,0.0227 -1.3491,0.0786 -1.3177,0.1102 -1.3142,0.1613 -1.2776,0.1985 -1.1868,0.245 -1.138,0.3012 -1.1083,0.3158 -1.1013,0.3527 -1.1275,0.4702 -1.1449,0.4956 -1.1362,0.5173 -1.1624,0.5373 -1.1798,0.5839 -1.1973,0.6004 -1.206,0.6317 -1.2113,0.6635 -1.2078,0.6743 -1.199,0.6764 -1.2357,0.8021 -1.2409,0.8328 -1.2339,0.8715 -1.2619,0.9999 -1.2566,1.069 -1.2357,1.089 -1.2374,1.1124 -1.2444,1.1212 -1.2636,1.1065 -1.2549,1.1006 -1.2531,1.1094 -1.2427,1.089 -1.2619,1.0977 -1.2654,1.1094 -1.2758,1.1006 -1.2689,1.0862 -1.2479,1.0833 -1.2689,1.0804 -1.2758,1.0977 -1.2846,1.089 -1.2793,1.089 -1.2758,1.0804 -1.2863,1.0862 -1.2863,1.069 -1.2793,1.0718 -1.2706,1.0633 -1.2671,1.0776 -1.2654,1.0577 -1.2758,1.0493 -1.2671,1.0605 -1.2811,1.069 -1.2898,1.0605 -1.2898,1.0465 -1.2968,1.0271 -1.2881,1.0354 -1.2846,1.0271 -1.2881,1.0243 -1.2915,1.0326 -1.295,1.0271 -1.2915,1.0243 -1.2968,1.0216 -1.2985,1.0107 -1.2915,1.0107 -1.2968,0.9999 -1.2881,0.9999 -1.2933,0.9945 -1.2898,0.9838 -1.295,0.9972 -1.2985,0.9945 -1.2985,0.9785 -1.2915,0.9706 -1.2985,0.9706 -1.2985,0.9575 -1.2811,0.9601 -1.2863,0.9497 -1.2933,0.9575 -1.2985,0.9549 -1.2985,0.9471 -1.2933,0.9471 -1.2985,0.9445 -1.2863,0.9063 -1.2898,0.9214 -1.2863,0.9164 -1.2828,0.8913 -1.2723,0.8938 -1.2811,0.8814 -1.2689,0.874 -1.2758,0.8545 -1.2671,0.821 -1.2689,0.8139 -1.2636,0.8186 -1.2689,0.8021 -1.2619,0.7975 -1.2689,0.8021 -1.2689,0.7789 -1.2549,0.7202 -1.2462,0.6486 -1.2514,0.6107 -1.2462,0.5983 -1.2514,0.5554 -1.2444,0.5473 -1.2462,0.5352 -1.2287,0.4547 -1.2287,0.4222 -1.2322,0.4146 -1.227,0.4089 -1.2235,0.3863 -1.227,0.3268 -1.2497,0.3048 -1.295,0.2811 -1.3265,0.2576 -1.3317,0.2432 -1.3299,0.236 -1.3404,0.2163 -1.3474,0.211 -1.3963,0.1032 -1.3998,0.0804 -1.398,0.0559 -1.391,0.0436 -1.3945,0.0367 -1.3945,0.0436 -1.398,0.0419 -1.4032,0.0471 -1.4067,0.0332 -1.3998,0.0052 -1.3666,-0.0244 -1.3474,-0.0629 -1.3456,-0.0681 -1.3491,-0.0681 -1.3387,-0.0979 -1.3404,-0.1507 -1.3317,-0.1524 -1.3212,-0.133 -1.2846,-0.163 -1.2933,-0.1985 -1.2654,-0.1985 -1.2514,-0.1914 -1.2514,-0.1825 -1.2584,-0.1719 -1.2497,-0.1577 -1.2409,-0.163 -1.2479,-0.1896 -1.22,-0.2003 -1.2025,-0.2003 -1.1938,-0.1967 -1.1921,-0.1878Z M-1.2235,1.1065 -1.2305,1.0977 -1.2235,1.1065Z M-1.2113,1.1212 -1.1624,1.1361 -1.1397,1.1512 -1.213,1.1512 -1.2479,1.1361 -1.2339,1.1331 -1.2339,1.1391 -1.227,1.1391 -1.2374,1.1272 -1.2305,1.1124 -1.2287,1.1242 -1.2322,1.1242 -1.2252,1.1361 -1.2165,1.1331 -1.2095,1.1421 -1.2043,1.1361 -1.2252,1.1212 -1.2182,1.1124 -1.2113,1.1212Z M-1.1956,1.1603 -1.1921,1.1603 -1.1956,1.1603Z M-1.213,1.1512 -1.1938,1.1542 -1.1973,1.1603 -1.213,1.1512Z M-1.2566,1.1331 -1.2584,1.1212 -1.2392,1.1272 -1.2409,1.1361 -1.2479,1.1301 -1.2566,1.1331Z M-1.2723,1.1242 -1.2723,1.1183 -1.2793,1.1183 -1.2846,1.1065 -1.2723,1.1065 -1.2723,1.1124 -1.2601,1.1183 -1.2671,1.1272 -1.2723,1.1242Z M-1.2846,1.0977 -1.2758,1.1065 -1.2846,1.1036 -1.2846,1.0977Z M-1.2776,0.8642 -1.2706,0.8691 -1.2776,0.8789 -1.2776,0.8642Z M-1.4015,0.0506 -1.3945,0.0471 -1.398,0.0524 -1.4015,0.0506Z M-1.1851,1.1512 -1.1729,1.1542 -1.1711,1.1603 -1.1833,1.1634 -1.1921,1.1542 -1.1851,1.1512Z" fill="#e8453c" fill-opacity="0.5" stroke="#e8453c" stroke-width="0.0074"/></g></svg>