<svg xmlns="http://www.w3.org/2000/svg" viewBox="-0.493 -0.755 1.359 0.681" preserveAspectRatio="xMidYMid meet"><rect x="-0.493" y="-0.755" width="1.359" height="0.681" fill="#a9d2ea"/><g stroke="#7e96a9" stroke-width="0.0034" stroke-linejoin="round"><path d="M0.9266,-0.2948 0.9006,-0.271 0.7725,-0.2224 0.759,-0.2235 0.7446,-0.269 0.7566,-0.3101 0.8227,-0.3002 0.8407,-0.3224 0.8681,-0.3323 0.9072,-0.3379 0.9266,-0.2948Z M0.9383,-0.2224 0.9514,-0.2208 0.9306,-0.2205 0.9383,-0.2224Z" fill="#e8efe2"/><path d="M-2.9925,-1.4517 -2.9447,-1.4388 -2.9615,-1.4253 -2.9983,-1.4431 -2.9925,-1.4517Z M-2.8997,-1.3303 -2.8901,-1.3138 -2.9224,-1.3243 -2.8997,-1.3303Z M-2.6686,-1.2432 -2.6567,-1.2354 -2.6873,-1.2093 -2.7002,-1.2276 -2.6686,-1.2432Z M-2.2695,-1.1816 -2.2791,-1.1473 -2.2873,-1.1591 -2.2869,-1.1879 -2.3059,-1.1717 -2.296,-1.1916 -2.3295,-1.2221 -2.3326,-1.2374 -2.3234,-1.2351 -2.3307,-1.2436 -2.3246,-1.2452 -2.3393,-1.2515 -2.3366,-1.2664 -2.3524,-1.2641 -2.3625,-1.2969 -2.3578,-1.2574 -2.3719,-1.2624 -2.3763,-1.2843 -2.3909,-1.2836 -2.3747,-1.2641 -2.3843,-1.2571 -2.44,-1.3014 -2.4258,-1.3114 -2.4335,-1.3173 -2.4508,-1.3069 -2.4681,-1.3212 -2.5159,-1.3177 -2.529,-1.3289 -2.5253,-1.3406 -2.5351,-1.3303 -2.5581,-1.3427 -2.5548,-1.3575 -2.589,-1.3546 -2.5943,-1.3342 -2.5824,-1.3338 -2.5913,-1.3159 -2.6075,-1.3208 -2.6347,-1.2907 -2.652,-1.2918 -2.6363,-1.309 -2.6503,-1.3093 -2.6417,-1.3424 -2.6019,-1.3481 -2.6189,-1.3585 -2.608,-1.3705 -2.6709,-1.3275 -2.6639,-1.3184 -2.6909,-1.288 -2.678,-1.2741 -2.7663,-1.1869 -2.8191,-1.1732 -2.8508,-1.1494 -2.8222,-1.1822 -2.7976,-1.1791 -2.7978,-1.1948 -2.7482,-1.2331 -2.7508,-1.2508 -2.7435,-1.2554 -2.7492,-1.2631 -2.7369,-1.287 -2.7609,-1.2694 -2.766,-1.2805 -2.759,-1.2819 -2.7718,-1.2816 -2.7742,-1.2624 -2.7988,-1.2843 -2.8299,-1.2704 -2.8212,-1.2863 -2.8348,-1.3268 -2.8267,-1.3417 -2.8374,-1.3166 -2.8608,-1.3103 -2.8859,-1.336 -2.8552,-1.3488 -2.8817,-1.3499 -2.8775,-1.3564 -2.9002,-1.376 -2.876,-1.407 -2.8695,-1.4353 -2.8499,-1.4287 -2.8088,-1.4525 -2.8185,-1.4832 -2.8081,-1.4982 -2.8416,-1.4807 -2.8997,-1.4892 -2.9135,-1.5131 -2.9,-1.5185 -2.9337,-1.5341 -2.8704,-1.5742 -2.8561,-1.5733 -2.8629,-1.558 -2.8571,-1.552 -2.8105,-1.5567 -2.8337,-1.5901 -2.7965,-1.5667 -2.911,-1.6548 -2.9009,-1.6802 -2.8543,-1.6939 -2.8253,-1.7524 -2.7934,-1.766 -2.7903,-1.7498 -2.7819,-1.7623 -2.7939,-1.7681 -2.7869,-1.7765 -2.7309,-1.8099 -2.7154,-1.7942 -2.7222,-1.7792 -2.7082,-1.7931 -2.6581,-1.7797 -2.6519,-1.7586 -2.4997,-1.7416 -2.4609,-1.7177 -2.4609,-1.3275 -2.4274,-1.3289 -2.3988,-1.2792 -2.3646,-1.3097 -2.3283,-1.2627 -2.3007,-1.2036 -2.2695,-1.1816Z M-2.8533,-1.1536 -2.8463,-1.1442 -2.878,-1.1403 -2.8533,-1.1536Z M-2.3277,-1.2167 -2.3204,-1.2128 -2.325,-1.1995 -2.3384,-1.217 -2.3277,-1.2167Z M-2.3557,-1.2279 -2.3506,-1.1919 -2.364,-1.2247 -2.3703,-1.217 -2.3647,-1.2335 -2.3557,-1.2279Z M-2.3506,-1.2544 -2.3356,-1.237 -2.3442,-1.2501 -2.3372,-1.2279 -2.3478,-1.218 -2.3548,-1.2607 -2.3506,-1.2544Z M-2.3689,-1.2571 -2.3553,-1.2498 -2.3621,-1.2416 -2.355,-1.2322 -2.3721,-1.2312 -2.3836,-1.2482 -2.3689,-1.2571Z M-2.3312,-1.1957 -2.3068,-1.1689 -2.3148,-1.1686 -2.3035,-1.1606 -2.3042,-1.146 -2.3332,-1.1785 -2.3255,-1.1826 -2.3342,-1.1838 -2.3312,-1.1957Z M-2.6602,-1.2611 -2.6526,-1.2571 -2.677,-1.2521 -2.6602,-1.2611Z M-2.9315,-1.105 -2.9512,-1.0899 -2.9315,-1.105Z M-2.9081,-1.1212 -2.9013,-1.1221 -2.9288,-1.1041 -2.9081,-1.1212Z M-3.0487,-1.0673 -3.0596,-1.0667 -3.0372,-1.0756 -3.0487,-1.0673Z M-2.7154,-0.338 -2.7236,-0.3517 -2.7197,-0.3616 -2.7018,-0.3475 -2.7154,-0.338Z M-1.3039,-0.8814 -1.2369,-0.8881 -1.2085,-0.9435 -1.1835,-0.9337 -1.1833,-0.8995 -1.1692,-0.8772 -1.1961,-0.8632 -1.2001,-0.8708 -1.2249,-0.8513 -1.2401,-0.8169 -1.2209,-0.8017 -1.246,-0.8045 -1.2483,-0.7947 -1.2914,-0.7801 -1.291,-0.7917 -1.2929,-0.7581 -1.3053,-0.7403 -1.3181,-0.7513 -1.3102,-0.7625 -1.3193,-0.7547 -1.3097,-0.7275 -1.3252,-0.6993 -1.3205,-0.7169 -1.3324,-0.7338 -1.3242,-0.7518 -1.3364,-0.7464 -1.3324,-0.72 -1.3479,-0.7271 -1.3444,-0.7378 -1.3484,-0.7313 -1.331,-0.7156 -1.3458,-0.7218 -1.3313,-0.6971 -1.3483,-0.7032 -1.3265,-0.694 -1.3182,-0.6704 -1.3256,-0.6886 -1.3233,-0.6767 -1.3392,-0.6792 -1.3219,-0.6693 -1.3294,-0.6603 -1.3446,-0.6642 -1.3341,-0.6494 -1.3511,-0.6471 -1.3601,-0.6304 -1.4102,-0.5993 -1.4217,-0.5722 -1.3971,-0.486 -1.4046,-0.4553 -1.4156,-0.4536 -1.4263,-0.4698 -1.4436,-0.4995 -1.4383,-0.5066 -1.4458,-0.5064 -1.4425,-0.5271 -1.4607,-0.5479 -1.4891,-0.5429 -1.494,-0.5552 -1.5219,-0.5562 -1.5184,-0.5608 -1.5361,-0.5539 -1.5361,-0.5633 -1.5766,-0.555 -1.5603,-0.5503 -1.5659,-0.5417 -1.5537,-0.5332 -1.56,-0.5289 -1.5736,-0.5401 -1.5745,-0.5312 -1.5882,-0.533 -1.6038,-0.5461 -1.6102,-0.5405 -1.6378,-0.5489 -1.6539,-0.5368 -1.6584,-0.5433 -1.6628,-0.5285 -1.6867,-0.5235 -1.6828,-0.5185 -1.6958,-0.5122 -1.7006,-0.4962 -1.7064,-0.4987 -1.6996,-0.4677 -1.7298,-0.479 -1.7368,-0.5005 -1.7705,-0.5449 -1.7909,-0.5443 -1.8022,-0.5293 -1.8221,-0.5407 -1.8322,-0.5624 -1.8579,-0.5853 -1.938,-0.5761 -2.0022,-0.6049 -2.0443,-0.601 -2.0684,-0.6321 -2.1056,-0.6439 -2.138,-0.7078 -2.1305,-0.7065 -2.1347,-0.7182 -2.1211,-0.7193 -2.1468,-0.7178 -2.1705,-0.7714 -2.1654,-0.7965 -2.1736,-0.8283 -2.164,-0.9118 -2.1506,-0.91 -2.1654,-0.9133 -2.1614,-0.9306 -2.1766,-0.9674 -2.1429,-0.9611 -2.1492,-0.9409 -2.1386,-0.9554 -2.1473,-0.9352 -2.1415,-0.9344 -2.1335,-0.9577 -2.1431,-0.9835 -1.6609,-0.9835 -1.657,-0.9932 -1.6514,-0.9769 -1.5973,-0.959 -1.5425,-0.9653 -1.4683,-0.9197 -1.4408,-0.89 -1.4336,-0.8465 -1.4512,-0.8125 -1.4432,-0.8017 -1.3795,-0.8281 -1.3762,-0.8467 -1.3408,-0.848 -1.3039,-0.8814Z M-1.2655,-0.7856 -1.2549,-0.7873 -1.2921,-0.7776 -1.2655,-0.7856Z M-1.6959,-0.4733 -1.6998,-0.4936 -1.6959,-0.4733Z" fill="#e8efe2"/><path d="M0.7245,-0.7979 0.7468,-0.7989 0.7615,-0.7842 0.7622,-0.7659 0.7823,-0.755 0.7683,-0.7488 0.7814,-0.6991 0.7465,-0.7041 0.687,-0.689 0.6398,-0.6916 0.6309,-0.6706 0.6292,-0.694 0.5723,-0.6751 0.5348,-0.6931 0.5315,-0.6801 0.5182,-0.6777 0.5056,-0.6899 0.4791,-0.6897 0.4929,-0.6966 0.4758,-0.6956 0.4753,-0.7175 0.4588,-0.7242 0.4615,-0.7322 0.4737,-0.728 0.4671,-0.7338 0.4695,-0.7527 0.4557,-0.7509 0.4569,-0.7627 0.5208,-0.7799 0.5088,-0.791 0.5454,-0.7884 0.5808,-0.8092 0.611,-0.8106 0.6699,-0.784 0.7028,-0.7849 0.7245,-0.7979Z M0.4889,-0.8085 0.5054,-0.7861 0.48,-0.7852 0.4573,-0.7647 0.4676,-0.7773 0.4545,-0.7796 0.4646,-0.7951 0.4595,-0.8038 0.4889,-0.8085Z" fill="#e8efe2"/><path d="M0.2007,-0.6145 0.2007,-0.5985 0.1792,-0.5835 0.1784,-0.5651 0.1662,-0.5539 0.1574,-0.5923 0.1309,-0.6281 0.144,-0.6471 0.1433,-0.6855 0.1497,-0.6947 0.1691,-0.7034 0.1817,-0.6901 0.1929,-0.6975 0.1829,-0.6782 0.1941,-0.658 0.1752,-0.6346 0.2007,-0.6145Z" fill="#e8efe2"/><path d="M0.0157,-0.193 0.0133,-0.1823 0.0279,-0.1586 0.0311,-0.11 0.0208,-0.1065 0.0093,-0.1198 0.0093,-0.1648 -0.0016,-0.1873 -0.0012,-0.1953 0.0157,-0.193Z" fill="#e8efe2"/><path d="M0.6264,-0.6726 0.6395,-0.6792 0.6398,-0.6916 0.7393,-0.6984 0.7208,-0.6825 0.7154,-0.6407 0.6426,-0.5966 0.6247,-0.6051 0.6278,-0.626 0.6384,-0.6363 0.628,-0.645 0.6264,-0.6726Z" fill="#e8efe2"/><path d="M0.5931,-0.0737 0.5845,-0.0657 0.5383,-0.0609 0.5157,-0.0811 0.4901,-0.0772 0.4601,-0.1162 0.4225,-0.1466 0.4367,-0.1797 0.4513,-0.1827 0.4634,-0.1671 0.4896,-0.1636 0.5034,-0.1636 0.5236,-0.1804 0.5437,-0.1714 0.566,-0.1951 0.5597,-0.2112 0.5794,-0.2149 0.5782,-0.1887 0.5918,-0.1786 0.5952,-0.1521 0.576,-0.1383 0.6058,-0.1165 0.6156,-0.096 0.5931,-0.0737Z" fill="#e8efe2"/><path d="M0.5948,-0.1659 0.5782,-0.1887 0.5794,-0.2149 0.5711,-0.2149 0.5597,-0.2112 0.566,-0.1951 0.5437,-0.1714 0.5236,-0.1804 0.5034,-0.1636 0.4653,-0.1662 0.4503,-0.1829 0.4367,-0.1797 0.4281,-0.1558 0.4109,-0.1545 0.4128,-0.1722 0.3901,-0.2228 0.381,-0.2251 0.4002,-0.2744 0.4184,-0.2777 0.4185,-0.3564 0.436,-0.3564 0.436,-0.3938 0.6435,-0.3938 0.654,-0.3345 0.6739,-0.3196 0.6459,-0.3023 0.6306,-0.2246 0.6128,-0.2078 0.6096,-0.1907 0.5993,-0.1871 0.5948,-0.1659Z" fill="#e8efe2"/><path d="M0.055,-0.7581 0.0604,-0.7561 0.0536,-0.747 0.0414,-0.7531 0.055,-0.7581Z M-0.0312,-0.8427 -0.0007,-0.8255 0.056,-0.8193 0.0567,-0.8078 0.0124,-0.7817 -0.0058,-0.752 0.0035,-0.7349 -0.0368,-0.6912 -0.0763,-0.6899 -0.0983,-0.6749 -0.1086,-0.694 -0.1293,-0.6999 -0.1222,-0.7416 -0.1316,-0.7552 -0.1229,-0.7563 -0.1208,-0.7868 -0.1084,-0.7982 -0.1155,-0.8078 -0.1545,-0.8075 -0.1602,-0.8369 -0.1344,-0.8511 -0.0312,-0.8427Z" fill="#e8efe2"/><path d="M0.7248,0.0297 0.7152,0.0152 0.7152,-0.0496 0.7334,-0.0723 0.7844,-0.0858 0.8374,-0.1401 0.8542,-0.1657 0.8542,-0.1978 0.8945,-0.208 0.8906,-0.1832 0.8968,-0.1823 0.8889,-0.1815 0.8872,-0.1653 0.8374,-0.0786 0.7587,-0.0108 0.7248,0.0297Z" fill="#e8efe2"/><path d="M-0.1794,-0.1487 -0.2009,-0.1209 -0.2243,-0.1369 -0.232,-0.1586 -0.2169,-0.1737 -0.1967,-0.1754 -0.1864,-0.1629 -0.1869,-0.1461 -0.1794,-0.1487Z" fill="#e8efe2"/><path d="M-0.2143,-0.2614 -0.1988,-0.2181 -0.2653,-0.2231 -0.2916,-0.2172 -0.2906,-0.2316 -0.2417,-0.2375 -0.289,-0.2394 -0.3061,-0.2605 -0.2834,-0.2926 -0.2616,-0.2953 -0.2358,-0.2855 -0.2143,-0.2614Z" fill="#e8efe2"/><path d="M0.9072,-0.3379 0.8559,-0.3301 0.8227,-0.3002 0.7578,-0.3107 0.747,-0.2897 0.7114,-0.3519 0.6856,-0.3745 0.6713,-0.4262 0.6552,-0.4372 0.614,-0.51 0.6042,-0.5106 0.61,-0.5362 0.6295,-0.5332 0.6543,-0.5495 0.6629,-0.5594 0.6451,-0.5796 0.6833,-0.5925 0.7343,-0.5712 0.78,-0.5332 0.8454,-0.5201 0.8753,-0.4831 0.8741,-0.4694 0.8877,-0.4447 0.8973,-0.4426 0.9173,-0.4113 0.9632,-0.407 0.9711,-0.3938 0.9596,-0.3564 0.9072,-0.3379Z" fill="#e8efe2"/><path d="M-0.1532,-0.8078 -0.1155,-0.8078 -0.1084,-0.7982 -0.1208,-0.7868 -0.1229,-0.7563 -0.1316,-0.7552 -0.1215,-0.7222 -0.1367,-0.6962 -0.1571,-0.6966 -0.1513,-0.7273 -0.1614,-0.7327 -0.1534,-0.7421 -0.1653,-0.7342 -0.1515,-0.7801 -0.1532,-0.8078Z" fill="#e8efe2"/><path d="M0.2375,-0.2414 0.2545,-0.2026 0.2391,-0.1909 0.199,-0.1142 0.177,-0.1225 0.1447,-0.0797 0.1236,-0.0825 0.1208,-0.0767 0.1182,-0.0825 0.1197,-0.0763 0.1077,-0.0748 0.0976,-0.0812 0.0953,-0.0981 0.0773,-0.1111 0.0473,-0.1114 0.0483,-0.1586 0.066,-0.1832 0.0637,-0.2205 0.0771,-0.2405 0.0958,-0.2445 0.1211,-0.229 0.1367,-0.235 0.1679,-0.2255 0.1829,-0.2348 0.2175,-0.2305 0.2375,-0.2414Z" fill="#e8efe2"/><path d="M0.2375,-0.2414 0.2175,-0.2305 0.1829,-0.2348 0.1679,-0.2255 0.0813,-0.242 0.0637,-0.2205 0.0628,-0.2056 0.0503,-0.2176 0.0417,-0.2092 0.0367,-0.2235 0.0176,-0.2292 0.0209,-0.2353 0.0028,-0.2558 0.004,-0.2641 0.0227,-0.2697 0.0611,-0.2714 0.073,-0.2935 0.0738,-0.3404 0.1019,-0.3467 0.2089,-0.4225 0.2478,-0.4055 0.2615,-0.4127 0.2649,-0.3848 0.2786,-0.3629 0.27,-0.2995 0.2347,-0.2537 0.2375,-0.2414Z" fill="#e8efe2"/><path d="M0.1045,-1.0312 0.0878,-1.0512 0.0602,-1.0532 0.0745,-1.0512 0.0689,-1.0608 0.0833,-1.0931 0.119,-1.1077 0.1257,-1.103 0.1168,-1.0813 0.1225,-1.0738 0.1038,-1.0605 0.1045,-1.0312Z" fill="#e8efe2"/><path d="M-0.0387,-0.655 -0.0215,-0.5923 -0.0658,-0.5837 -0.0646,-0.5683 -0.1443,-0.5289 -0.1515,-0.5231 -0.1534,-0.4921 -0.1988,-0.4874 -0.2169,-0.4476 -0.2424,-0.4258 -0.2574,-0.3844 -0.2967,-0.3829 -0.2515,-0.4751 -0.226,-0.5076 -0.2016,-0.5155 -0.178,-0.5368 -0.1614,-0.6018 -0.1204,-0.631 -0.1033,-0.6698 -0.0922,-0.6721 -0.0808,-0.6573 -0.0387,-0.655Z" fill="#e8efe2"/><path d="M-0.2143,-0.2614 -0.2536,-0.295 -0.2834,-0.2926 -0.2887,-0.2801 -0.2801,-0.3235 -0.2882,-0.3445 -0.2829,-0.3607 -0.2946,-0.3767 -0.2976,-0.3715 -0.296,-0.3812 -0.2272,-0.3812 -0.2295,-0.4093 -0.2098,-0.4216 -0.2098,-0.4702 -0.1515,-0.4702 -0.1515,-0.4954 -0.0841,-0.4509 -0.115,-0.4507 -0.0962,-0.2739 -0.1632,-0.2771 -0.1911,-0.2676 -0.2007,-0.2764 -0.2143,-0.2614Z" fill="#e8efe2"/><path d="M-0.1988,-0.2181 -0.2143,-0.2614 -0.2007,-0.2764 -0.1911,-0.2676 -0.1632,-0.2771 -0.0962,-0.2739 -0.115,-0.4507 -0.0841,-0.4509 0.0305,-0.3625 0.0546,-0.3536 0.0545,-0.3397 0.0738,-0.3404 0.073,-0.2935 0.0611,-0.2714 -0.0117,-0.2661 -0.0452,-0.251 -0.0576,-0.2339 -0.0756,-0.231 -0.0773,-0.2171 -0.0923,-0.208 -0.0963,-0.1831 -0.1052,-0.1788 -0.1093,-0.1882 -0.1225,-0.1779 -0.1395,-0.1783 -0.1592,-0.219 -0.1864,-0.2092 -0.1988,-0.2181Z" fill="#e8efe2"/><path d="M0.1662,-0.5539 0.1784,-0.5651 0.1792,-0.5835 0.2007,-0.5985 0.2007,-0.6145 0.2649,-0.5981 0.2763,-0.5769 0.3337,-0.5548 0.351,-0.5687 0.3496,-0.5923 0.3676,-0.6062 0.3873,-0.6091 0.4065,-0.5944 0.4355,-0.589 0.436,-0.3564 0.4185,-0.3564 0.4185,-0.3471 0.2789,-0.4212 0.2478,-0.4055 0.2089,-0.4225 0.2009,-0.4376 0.1803,-0.4418 0.1644,-0.4731 0.1721,-0.4809 0.1731,-0.5052 0.1662,-0.5539Z" fill="#e8efe2"/><path d="M-0.2009,-0.1209 -0.1794,-0.1487 -0.1686,-0.1484 -0.1651,-0.1299 -0.1552,-0.1271 -0.1497,-0.1344 -0.1499,-0.1135 -0.13,-0.1021 -0.1316,-0.076 -0.2009,-0.1209Z" fill="#e8efe2"/><path d="M0.628,-0.645 0.6377,-0.6344 0.6128,-0.6124 0.628,-0.645Z" fill="#e8efe2"/><path d="M0.8454,-0.5201 0.8121,-0.5312 0.8229,-0.5493 0.8334,-0.5509 0.8402,-0.5407 0.8329,-0.5371 0.8454,-0.5201Z" fill="#e8efe2"/><path d="M0.5917,0.0175 0.5924,-0.003 0.6105,-0.03 0.5931,-0.0737 0.6156,-0.096 0.6287,-0.0781 0.6648,-0.0637 0.6901,-0.0606 0.7116,-0.0746 0.7309,-0.0695 0.7149,-0.0491 0.7152,0.0152 0.7248,0.0297 0.702,0.047 0.6873,0.0809 0.659,0.0636 0.6569,0.0533 0.5917,0.0175Z" fill="#e8efe2"/><path d="M0.6247,-0.6051 0.6426,-0.5966 0.6767,-0.6184 0.6857,-0.595 0.6451,-0.5796 0.6629,-0.5594 0.6287,-0.533 0.61,-0.5362 0.6247,-0.6051Z" fill="#e8efe2"/><path d="M0.1225,-0.9045 0.147,-0.9176 0.1562,-0.902 0.1623,-0.9189 0.1768,-0.9123 0.1824,-0.9281 0.2124,-0.9337 0.2391,-0.9194 0.2335,-0.9128 0.2421,-0.8965 0.2142,-0.8925 0.2164,-0.8623 0.2367,-0.8465 0.2538,-0.8148 0.282,-0.8068 0.2775,-0.7977 0.3133,-0.778 0.321,-0.7606 0.2955,-0.7734 0.2883,-0.7572 0.2997,-0.7403 0.2744,-0.7167 0.2829,-0.7389 0.2738,-0.7627 0.1944,-0.8184 0.1754,-0.8574 0.1531,-0.8671 0.1307,-0.8513 0.1339,-0.8598 0.1204,-0.8652 0.1157,-0.8831 0.1248,-0.8908 0.1225,-0.9045Z M0.2719,-0.7229 0.2637,-0.6892 0.2171,-0.714 0.2222,-0.722 0.2719,-0.7229Z M0.1681,-0.7831 0.1669,-0.7441 0.151,-0.7387 0.1435,-0.7838 0.1611,-0.7919 0.1681,-0.7831Z" fill="#e8efe2"/><path d="M0.6255,-0.6195 0.6247,-0.6051 0.6102,-0.5933 0.6088,-0.5771 0.6187,-0.5794 0.6091,-0.5389 0.5978,-0.5738 0.6128,-0.6124 0.6255,-0.6195Z" fill="#e8efe2"/><path d="M0.7393,-0.6984 0.7807,-0.6997 0.7917,-0.6747 0.8076,-0.6693 0.7924,-0.631 0.8048,-0.6099 0.8268,-0.5987 0.8348,-0.5857 0.8322,-0.5696 0.8474,-0.5485 0.8241,-0.5501 0.8091,-0.5305 0.7805,-0.533 0.7343,-0.5712 0.6833,-0.5925 0.6767,-0.6184 0.7154,-0.6407 0.7208,-0.6825 0.7393,-0.6984Z" fill="#e8efe2"/><path d="M0.9409,-0.7034 0.9666,-0.7191 0.9982,-0.7229 1.0676,-0.6866 1.057,-0.612 1.0615,-0.5798 1.0762,-0.5773 1.0788,-0.5677 1.0619,-0.5465 1.0802,-0.5203 1.0954,-0.5141 1.0952,-0.495 1.105,-0.4921 1.1023,-0.4829 1.0793,-0.4747 1.0749,-0.4547 1.0006,-0.4661 0.9901,-0.4923 0.9557,-0.4801 0.9374,-0.4844 0.895,-0.512 0.8739,-0.5533 0.8648,-0.5499 0.8552,-0.5596 0.8453,-0.5501 0.8268,-0.5987 0.8048,-0.6099 0.7924,-0.631 0.8076,-0.6693 0.7863,-0.6844 0.7718,-0.7153 0.7683,-0.7488 0.7782,-0.7577 0.8058,-0.7374 0.8378,-0.7556 0.8433,-0.7493 0.8378,-0.7369 0.8529,-0.7278 0.8566,-0.7107 0.8922,-0.6903 0.942,-0.6921 0.9409,-0.7034Z" fill="#e8efe2"/><path d="M-0.2916,-0.2172 -0.2386,-0.2196 -0.2396,-0.2064 -0.2625,-0.1921 -0.2702,-0.2005 -0.263,-0.2039 -0.2705,-0.206 -0.2632,-0.2105 -0.2761,-0.2067 -0.2916,-0.2172Z" fill="#e8efe2"/><path d="M-0.1794,-0.1487 -0.1869,-0.1461 -0.1864,-0.1629 -0.1957,-0.1751 -0.2169,-0.1737 -0.232,-0.1586 -0.2389,-0.1742 -0.2627,-0.1902 -0.2562,-0.2023 -0.2396,-0.2064 -0.2396,-0.223 -0.2,-0.2185 -0.1869,-0.2092 -0.1578,-0.2181 -0.1391,-0.1795 -0.134,-0.1473 -0.1438,-0.1482 -0.1436,-0.1323 -0.1592,-0.1263 -0.1662,-0.1463 -0.1794,-0.1487Z" fill="#e8efe2"/><path d="M0.4088,-0.7394 0.429,-0.7184 0.3992,-0.7374 0.4088,-0.7394Z M0.4163,-0.6644 0.4594,-0.6597 0.4328,-0.6513 0.4117,-0.6584 0.4163,-0.6644Z M0.4594,-0.8026 0.4646,-0.7951 0.4557,-0.7801 0.4147,-0.7801 0.4248,-0.7663 0.4142,-0.7704 0.418,-0.7622 0.395,-0.7743 0.4072,-0.7441 0.3939,-0.7374 0.4184,-0.724 0.4199,-0.7116 0.4102,-0.7187 0.4021,-0.7153 0.41,-0.7056 0.3967,-0.7078 0.4042,-0.684 0.3794,-0.6929 0.3686,-0.7156 0.3735,-0.7224 0.4046,-0.7209 0.3697,-0.7258 0.3625,-0.7374 0.3686,-0.741 0.3543,-0.7477 0.3491,-0.7563 0.3658,-0.7824 0.4199,-0.7982 0.4524,-0.793 0.4594,-0.8026Z" fill="#e8efe2"/><path d="M-0.0012,-0.1953 0.012,-0.1463 0.0093,-0.1198 0.0208,-0.1065 -0.0349,-0.0832 -0.0543,-0.089 -0.048,-0.0949 -0.0565,-0.1191 -0.0438,-0.1438 -0.0494,-0.1932 -0.0012,-0.1953Z" fill="#e8efe2"/><path d="M-0.289,-0.2394 -0.2621,-0.2434 -0.2414,-0.2362 -0.2644,-0.2389 -0.2925,-0.2299 -0.2909,-0.2373 -0.2693,-0.2373 -0.289,-0.2394Z" fill="#e8efe2"/><path d="M0.1655,-0.8283 0.1604,-0.7947 0.1496,-0.8176 0.1655,-0.8283Z M0.133,-0.9468 0.1216,-0.9432 0.1042,-0.9116 0.1183,-0.9166 0.1248,-0.8908 0.1157,-0.8831 0.1204,-0.8652 0.1339,-0.8598 0.1307,-0.8513 0.1068,-0.8345 0.0682,-0.8463 0.0532,-0.8309 0.056,-0.8193 0.0354,-0.8174 -0.0255,-0.834 -0.0312,-0.8427 -0.0188,-0.8945 -0.0096,-0.8814 -0.0201,-0.9141 -0.036,-0.9268 -0.0384,-0.9357 -0.0304,-0.9373 -0.0752,-0.9528 -0.0817,-0.9585 -0.074,-0.9653 -0.0831,-0.9693 -0.0241,-0.9745 -0.0325,-1.002 0.0073,-0.9958 0.0033,-1.0026 0.0278,-1.0175 0.0291,-1.0351 0.044,-1.0409 0.0724,-1.0099 0.0848,-1.0145 0.0962,-0.9974 0.1419,-0.983 0.133,-0.9468Z M-0.9533,-0.0407 -0.9427,-0.0603 -0.9509,-0.0846 -0.9411,-0.1009 -0.9233,-0.0949 -0.9076,-0.076 -0.9046,-0.0811 -0.9015,-0.0709 -0.9198,-0.0412 -0.9533,-0.0407Z" fill="#e8efe2"/><path d="M0.6156,-0.096 0.6058,-0.1165 0.5761,-0.1392 0.595,-0.1503 0.5983,-0.1848 0.6306,-0.2246 0.6374,-0.2515 0.6554,-0.2493 0.6611,-0.2621 0.7124,-0.2488 0.7397,-0.2194 0.7295,-0.1928 0.7491,-0.1932 0.7477,-0.179 0.7676,-0.1579 0.8374,-0.1401 0.7844,-0.0858 0.7599,-0.0846 0.7309,-0.0695 0.7116,-0.0746 0.6892,-0.0604 0.6287,-0.0781 0.6156,-0.096Z" fill="#e8efe2"/><path d="M0.6374,-0.2515 0.6459,-0.3023 0.6739,-0.3196 0.6945,-0.267 0.6957,-0.2733 0.7187,-0.258 0.7526,-0.2237 0.7397,-0.2194 0.7006,-0.2551 0.6707,-0.2546 0.6611,-0.2621 0.6554,-0.2493 0.6374,-0.2515Z" fill="#e8efe2"/><path d="M0.6435,-0.3938 0.436,-0.3938 0.4337,-0.5763 0.4519,-0.5822 0.5074,-0.5661 0.5424,-0.5818 0.5566,-0.5806 0.5603,-0.5714 0.5969,-0.5761 0.6091,-0.5389 0.5973,-0.5047 0.5685,-0.5487 0.5648,-0.5419 0.6245,-0.4305 0.6231,-0.4117 0.6435,-0.3938Z" fill="#e8efe2"/><path d="M0.7549,-0.2021 0.7491,-0.1932 0.7295,-0.1928 0.7409,-0.2203 0.7526,-0.2237 0.7571,-0.2126 0.7421,-0.2033 0.7549,-0.2021Z" fill="#e8efe2"/><path d="M0.5709,-0.6565 0.5943,-0.6526 0.5761,-0.6437 0.5641,-0.6518 0.5709,-0.6565Z" fill="#e8efe2"/><path d="M-0.1395,-0.1783 -0.1225,-0.1779 -0.1091,-0.1882 -0.1068,-0.179 -0.097,-0.1832 -0.0808,-0.1703 -0.0562,-0.1737 -0.0471,-0.1662 -0.0438,-0.1438 -0.0565,-0.1191 -0.0492,-0.09 -0.0922,-0.0911 -0.1316,-0.076 -0.13,-0.1021 -0.1501,-0.1139 -0.1438,-0.1482 -0.134,-0.1473 -0.1395,-0.1783Z" fill="#e8efe2"/><path d="M0.5367,0.1434 0.5044,0.1487 0.4957,0.1616 0.4971,0.2076 0.5072,0.2172 0.5201,0.2138 0.5198,0.2368 0.5081,0.236 0.474,0.2035 0.4543,0.209 0.4414,0.1969 0.4255,0.2006 0.4184,0.1909 0.3889,0.1966 0.3801,0.1279 0.347,0.1223 0.3375,0.1396 0.3068,0.1418 0.2868,0.1032 0.2131,0.1007 0.2285,0.0804 0.234,0.0846 0.2506,0.0751 0.2567,0.0853 0.2791,0.0658 0.2831,0.0381 0.3098,0.0096 0.3245,-0.076 0.3328,-0.0855 0.3437,-0.0895 0.3588,-0.0779 0.3913,-0.0721 0.399,-0.0825 0.4732,-0.0909 0.492,-0.076 0.518,-0.0802 0.5393,-0.0604 0.5363,-0.0429 0.5458,-0.0375 0.5226,-0.0143 0.5163,0.0243 0.5037,0.0428 0.5156,0.1104 0.5367,0.1434Z" fill="#e8efe2"/><path d="M0.4185,-0.3471 0.4184,-0.2777 0.4002,-0.2744 0.381,-0.2251 0.3901,-0.2228 0.399,-0.1918 0.38,-0.1868 0.355,-0.16 0.3309,-0.1567 0.3245,-0.1411 0.2702,-0.1316 0.244,-0.1699 0.2731,-0.1756 0.2592,-0.2199 0.2347,-0.2537 0.27,-0.2995 0.2786,-0.3629 0.2649,-0.3848 0.2615,-0.4127 0.2789,-0.4212 0.4185,-0.3471Z" fill="#e8efe2"/><path d="M0.4215,-0.1519 0.4782,-0.0893 0.4456,-0.0928 0.399,-0.0825 0.3913,-0.0721 0.3403,-0.0897 0.3245,-0.076 0.3248,-0.0608 0.2909,-0.0618 0.2824,-0.0396 0.2571,-0.0804 0.252,-0.1065 0.2702,-0.1316 0.3245,-0.1411 0.3297,-0.1558 0.3601,-0.163 0.3847,-0.19 0.399,-0.1918 0.4128,-0.1722 0.4109,-0.1545 0.4215,-0.1519Z" fill="#e8efe2"/><path d="M0.1494,-0.0832 0.1581,-0.1051 0.177,-0.1225 0.1946,-0.1126 0.2012,-0.1165 0.2391,-0.1909 0.2545,-0.2026 0.2454,-0.2303 0.2534,-0.2285 0.2731,-0.1756 0.244,-0.1699 0.2716,-0.1355 0.2519,-0.1056 0.2628,-0.069 0.2803,-0.0508 0.2817,-0.03 0.2545,-0.0384 0.1723,-0.0386 0.1691,-0.0709 0.1571,-0.0714 0.1494,-0.0832Z" fill="#e8efe2"/><path d="M0.0157,-0.193 -0.0494,-0.1932 -0.0483,-0.1652 -0.0562,-0.1737 -0.0808,-0.1703 -0.0963,-0.1831 -0.0923,-0.208 -0.0773,-0.2171 -0.0724,-0.2344 -0.0576,-0.2339 -0.0452,-0.251 -0.0117,-0.2661 0.0038,-0.2632 0.0075,-0.2463 0.0209,-0.2353 0.0173,-0.2296 0.0386,-0.2206 0.04,-0.2055 0.0157,-0.193Z" fill="#e8efe2"/><path d="M0.0283,-0.1088 0.0279,-0.1586 0.0138,-0.188 0.0503,-0.2176 0.0628,-0.2056 0.0668,-0.1862 0.0483,-0.1586 0.0473,-0.1114 0.0283,-0.1088Z" fill="#e8efe2"/><path d="M0.7823,-0.755 0.799,-0.7527 0.8048,-0.7376 0.7823,-0.755Z M0.8529,-0.7278 0.8381,-0.7363 0.8433,-0.7493 0.8378,-0.7556 0.8114,-0.7383 0.8112,-0.7529 0.7955,-0.7625 0.8022,-0.7682 0.7854,-0.7926 0.8121,-0.7879 0.8104,-0.8066 0.8341,-0.7905 0.8493,-0.8042 0.8791,-0.7693 0.8648,-0.7672 0.8529,-0.7278Z" fill="#e8efe2"/><path d="M0.7814,-0.7561 0.7622,-0.7659 0.7582,-0.7884 0.7927,-0.7856 0.8023,-0.7668 0.7955,-0.7625 0.8112,-0.7529 0.8114,-0.7383 0.7814,-0.7561Z" fill="#e8efe2"/><path d="M0.1497,-0.6947 0.1433,-0.6855 0.144,-0.6471 0.1309,-0.6281 0.1578,-0.5915 0.1712,-0.5328 0.1724,-0.4825 0.1644,-0.4731 0.1791,-0.443 0.2009,-0.4376 0.2089,-0.4225 0.1019,-0.3467 0.0569,-0.338 0.0546,-0.3536 0.0305,-0.3625 0.0201,-0.3769 -0.1515,-0.4954 -0.1515,-0.5231 -0.1443,-0.5289 -0.0646,-0.5683 -0.0658,-0.5837 -0.0215,-0.5923 -0.0387,-0.655 0.022,-0.6855 0.1497,-0.6947Z" fill="#e8efe2"/><path d="M0.3375,-0.8061 0.3438,-0.8245 0.3581,-0.8132 0.3576,-0.7921 0.367,-0.7771 0.3527,-0.755 0.3372,-0.7723 0.3375,-0.8061Z" fill="#e8efe2"/><path d="M0.3124,-0.5413 0.3368,-0.5413 0.3857,-0.5554 0.5463,-0.5513 0.5533,-0.5594 0.5637,-0.5614 0.569,-0.5513 0.5637,-0.5413 0.5707,-0.5253 0.5864,-0.5054 0.5847,-0.5015 0.5986,-0.4702 0.6178,-0.4355 0.6248,-0.4298 0.6196,-0.4317 0.6231,-0.4108 0.644,-0.3938 0.6493,-0.3731 0.6493,-0.349 0.6545,-0.3323 0.6615,-0.325 0.658,-0.3158 0.672,-0.2685 0.6615,-0.2576 0.6632,-0.245 0.658,-0.2378 0.6475,-0.2468 0.6458,-0.263 0.6388,-0.2703 0.6301,-0.2648 0.6144,-0.2271 0.5899,-0.2128 0.5829,-0.2003 0.5864,-0.1754 0.5655,-0.1666 0.5201,-0.1683 0.5131,-0.163 0.466,-0.1719 0.4573,-0.1807 0.4485,-0.1754 0.4241,-0.1772 0.4102,-0.1825 0.384,-0.1772 0.3718,-0.1861 0.3595,-0.1843 0.3683,-0.179 0.3491,-0.1737 0.3438,-0.1807 0.3508,-0.1914 0.3473,-0.195 0.2985,-0.2021 0.3142,-0.1843 0.3072,-0.179 0.2827,-0.2039 0.2723,-0.195 0.2758,-0.1772 0.2583,-0.1737 0.2496,-0.179 0.2321,-0.2181 0.2199,-0.2271 0.192,-0.2271 0.1466,-0.2486 -0.007,-0.245 -0.0297,-0.2486 -0.0506,-0.2666 -0.0663,-0.263 -0.0611,-0.2757 -0.0471,-0.2775 -0.0367,-0.2866 -0.0506,-0.2866 -0.0506,-0.292 -0.0244,-0.2993 -0.0035,-0.2957 -0.0035,-0.2993 -0.0209,-0.3048 -0.0524,-0.2957 -0.0855,-0.2775 -0.0785,-0.2757 -0.0855,-0.2594 -0.1326,-0.2685 -0.2199,-0.2612 -0.2461,-0.263 -0.288,-0.2793 -0.288,-0.292 -0.2793,-0.3121 -0.2793,-0.3323 -0.288,-0.3434 -0.281,-0.3601 -0.2862,-0.3694 -0.2897,-0.3675 -0.295,-0.3769 -0.2985,-0.375 -0.2862,-0.4032 -0.2618,-0.4413 -0.2531,-0.4741 -0.2374,-0.4819 -0.2199,-0.5094 -0.1868,-0.5114 -0.1431,-0.5253 0.0977,-0.6443 0.1518,-0.6359 0.2112,-0.5859 0.2601,-0.5675 0.3124,-0.5413Z M-0.2862,-0.3527 -0.2862,-0.349 -0.2862,-0.3527Z" fill="#e8453c" fill-opacity="0.5" stroke="#e8453c" stroke-width="0.0034"/></g></svg>