<svg xmlns="http://www.w3.org/2000/svg" viewBox="0.039 -0.981 0.005 0.003" preserveAspectRatio="xMidYMid meet"><rect x="0.039" y="-0.981" width="0.005" height="0.003" fill="#a9d2ea"/><g stroke="#7e96a9" stroke-width="0.0000" stroke-linejoin="round"><path d="M0.0406,-0.9804 0.041,-0.9802 0.0409,-0.9799 0.0408,-0.98 0.0405,-0.9802 0.0406,-0.9803 0.0406,-0.9804Z" fill="#e8efe2"/><path d="M0.041,-0.9802 0.0406,-0.9804 0.0408,-0.9804 0.0411,-0.9803 0.041,-0.9802Z" fill="#e8efe2"/><path d="M0.0413,-0.9803 0.0413,-0.98 0.041,-0.9801 0.0411,-0.9803 0.0413,-0.9803Z" fill="#e8efe2"/><path d="M0.0413,-0.9797 0.0412,-0.9796 0.041,-0.9795 0.0408,-0.9796 0.0409,-0.9799 0.0412,-0.9798 0.0413,-0.9797Z" fill="#e8efe2"/><path d="M0.0409,-0.9799 0.0408,-0.9796 0.0404,-0.9797 0.0406,-0.9799 0.0407,-0.9801 0.0409,-0.9799Z" fill="#e8efe2"/><path d="M0.0402,-0.9799 0.04,-0.98 0.0401,-0.9802 0.0405,-0.9802 0.0407,-0.98 0.0406,-0.9799 0.0404,-0.9797 0.0403,-0.9798 0.0403,-0.9797 0.0402,-0.9799Z" fill="#e8efe2"/><path d="M0.0406,-0.9803 0.0405,-0.9802 0.0402,-0.9802 0.0401,-0.9805 0.0401,-0.9806 0.0406,-0.9807 0.0406,-0.9803Z" fill="#e8efe2"/><path d="M0.0408,-0.9807 0.041,-0.9807 0.041,-0.9804 0.0408,-0.9804 0.0406,-0.9803 0.0406,-0.9807 0.0407,-0.9807 0.0408,-0.9807Z" fill="#e8efe2"/><path d="M0.0413,-0.9807 0.0414,-0.9807 0.0414,-0.9806 0.0415,-0.9804 0.0413,-0.9803 0.041,-0.9804 0.041,-0.9807 0.0413,-0.9807Z" fill="#e8efe2"/><path d="M0.0418,-0.9799 0.0419,-0.9798 0.0413,-0.9799 0.0413,-0.9802 0.0413,-0.9803 0.0415,-0.9804 0.0417,-0.9802 0.0417,-0.98 0.0418,-0.9799Z" fill="#e8efe2"/><path d="M0.0421,-0.9794 0.0423,-0.9794 0.0422,-0.9796 0.0423,-0.9797 0.0423,-0.9796 0.0425,-0.9796 0.0425,-0.9797 0.0426,-0.9797 0.043,-0.9796 0.0431,-0.9795 0.043,-0.9793 0.043,-0.9792 0.043,-0.979 0.0429,-0.9789 0.0425,-0.979 0.0424,-0.9791 0.0421,-0.9792 0.0419,-0.9793 0.0417,-0.9792 0.0413,-0.9797 0.0414,-0.9799 0.0415,-0.9798 0.0422,-0.9797 0.0421,-0.9794Z" fill="#e8efe2"/><path d="M0.0414,-0.9795 0.0417,-0.9792 0.0412,-0.9789 0.0411,-0.9789 0.0411,-0.979 0.0409,-0.9789 0.0409,-0.979 0.0409,-0.9791 0.0409,-0.9795 0.041,-0.9795 0.0412,-0.9796 0.0413,-0.9797 0.0414,-0.9795Z" fill="#e8efe2"/><path d="M0.0407,-0.9796 0.0409,-0.9795 0.0409,-0.9791 0.0409,-0.979 0.0409,-0.9789 0.0407,-0.9789 0.0407,-0.979 0.0402,-0.9792 0.0406,-0.9797 0.0407,-0.9796Z" fill="#e8efe2"/><path d="M0.0401,-0.9799 0.0403,-0.9797 0.0404,-0.9797 0.0406,-0.9797 0.0402,-0.9792 0.0398,-0.9794 0.0397,-0.9792 0.0396,-0.9792 0.0396,-0.9793 0.0396,-0.9794 0.0395,-0.9794 0.04,-0.98 0.0401,-0.9799Z" fill="#e8efe2"/><path d="M0.0397,-0.9806 0.0398,-0.9806 0.0401,-0.9805 0.0402,-0.9802 0.04,-0.9801 0.0397,-0.9797 0.0395,-0.9794 0.0393,-0.9794 0.0393,-0.9795 0.0393,-0.9797 0.0388,-0.9799 0.0389,-0.9803 0.039,-0.9803 0.0391,-0.9804 0.0392,-0.9805 0.0394,-0.9805 0.0394,-0.9806 0.0397,-0.9806Z" fill="#e8efe2"/><path d="M0.0401,-0.9805 0.0398,-0.9806 0.0398,-0.9807 0.04,-0.9809 0.0405,-0.9812 0.0407,-0.9812 0.0406,-0.9808 0.0406,-0.9807 0.0401,-0.9806 0.0401,-0.9805Z" fill="#e8efe2"/><path d="M0.0413,-0.9808 0.0408,-0.9807 0.0407,-0.9807 0.0406,-0.9807 0.0406,-0.9808 0.0407,-0.9812 0.0414,-0.9812 0.0414,-0.981 0.0413,-0.9808Z" fill="#e8efe2"/><path d="M0.0417,-0.9812 0.0418,-0.9811 0.0418,-0.981 0.0419,-0.9807 0.0421,-0.9806 0.0415,-0.9804 0.0414,-0.9806 0.0414,-0.9807 0.0413,-0.9807 0.0414,-0.981 0.0414,-0.9812 0.0417,-0.9812Z" fill="#e8efe2"/><path d="M0.0421,-0.9805 0.0422,-0.9797 0.0419,-0.9798 0.0418,-0.98 0.0417,-0.98 0.0417,-0.9802 0.0415,-0.9804 0.0421,-0.9806 0.0421,-0.9805Z" fill="#e8efe2"/><path d="M0.0413,-0.98 0.0413,-0.9799 0.0413,-0.9798 0.0413,-0.9797 0.0412,-0.9798 0.0409,-0.9799 0.041,-0.98 0.041,-0.9801 0.0411,-0.9801 0.0412,-0.98 0.0413,-0.98Z" fill="#e8453c"/></g></svg>