<svg xmlns="http://www.w3.org/2000/svg" viewBox="1.953 -0.918 0.757 1.072" preserveAspectRatio="xMidYMid meet"><rect x="1.953" y="-0.918" width="0.757" height="1.072" fill="#a9d2ea"/><g stroke="#7e96a9" stroke-width="0.0027" stroke-linejoin="round"><path d="M-2.9925,-1.4517 -2.9447,-1.4388 -2.9615,-1.4253 -2.9983,-1.4431 -2.9925,-1.4517Z M-2.8997,-1.3303 -2.8901,-1.3138 -2.9224,-1.3243 -2.8997,-1.3303Z M-2.6686,-1.2432 -2.6567,-1.2354 -2.6873,-1.2093 -2.7002,-1.2276 -2.6686,-1.2432Z M-2.2695,-1.1816 -2.2791,-1.1473 -2.2873,-1.1591 -2.2869,-1.1879 -2.3059,-1.1717 -2.296,-1.1916 -2.3295,-1.2221 -2.3326,-1.2374 -2.3234,-1.2351 -2.3307,-1.2436 -2.3246,-1.2452 -2.3393,-1.2515 -2.3366,-1.2664 -2.3524,-1.2641 -2.3625,-1.2969 -2.3578,-1.2574 -2.3719,-1.2624 -2.3763,-1.2843 -2.3909,-1.2836 -2.3747,-1.2641 -2.3843,-1.2571 -2.44,-1.3014 -2.4258,-1.3114 -2.4335,-1.3173 -2.4508,-1.3069 -2.4681,-1.3212 -2.5159,-1.3177 -2.529,-1.3289 -2.5253,-1.3406 -2.5351,-1.3303 -2.5581,-1.3427 -2.5548,-1.3575 -2.589,-1.3546 -2.5943,-1.3342 -2.5824,-1.3338 -2.5913,-1.3159 -2.6075,-1.3208 -2.6347,-1.2907 -2.652,-1.2918 -2.6363,-1.309 -2.6503,-1.3093 -2.6417,-1.3424 -2.6019,-1.3481 -2.6189,-1.3585 -2.608,-1.3705 -2.6709,-1.3275 -2.6639,-1.3184 -2.6909,-1.288 -2.678,-1.2741 -2.7663,-1.1869 -2.8191,-1.1732 -2.8508,-1.1494 -2.8222,-1.1822 -2.7976,-1.1791 -2.7978,-1.1948 -2.7482,-1.2331 -2.7508,-1.2508 -2.7435,-1.2554 -2.7492,-1.2631 -2.7369,-1.287 -2.7609,-1.2694 -2.766,-1.2805 -2.759,-1.2819 -2.7718,-1.2816 -2.7742,-1.2624 -2.7988,-1.2843 -2.8299,-1.2704 -2.8212,-1.2863 -2.8348,-1.3268 -2.8267,-1.3417 -2.8374,-1.3166 -2.8608,-1.3103 -2.8859,-1.336 -2.8552,-1.3488 -2.8817,-1.3499 -2.8775,-1.3564 -2.9002,-1.376 -2.876,-1.407 -2.8695,-1.4353 -2.8499,-1.4287 -2.8088,-1.4525 -2.8185,-1.4832 -2.8081,-1.4982 -2.8416,-1.4807 -2.8997,-1.4892 -2.9135,-1.5131 -2.9,-1.5185 -2.9337,-1.5341 -2.8704,-1.5742 -2.8561,-1.5733 -2.8629,-1.558 -2.8571,-1.552 -2.8105,-1.5567 -2.8337,-1.5901 -2.7965,-1.5667 -2.911,-1.6548 -2.9009,-1.6802 -2.8543,-1.6939 -2.8253,-1.7524 -2.7934,-1.766 -2.7903,-1.7498 -2.7819,-1.7623 -2.7939,-1.7681 -2.7869,-1.7765 -2.7309,-1.8099 -2.7154,-1.7942 -2.7222,-1.7792 -2.7082,-1.7931 -2.6581,-1.7797 -2.6519,-1.7586 -2.4997,-1.7416 -2.4609,-1.7177 -2.4609,-1.3275 -2.4274,-1.3289 -2.3988,-1.2792 -2.3646,-1.3097 -2.3283,-1.2627 -2.3007,-1.2036 -2.2695,-1.1816Z M-2.8533,-1.1536 -2.8463,-1.1442 -2.878,-1.1403 -2.8533,-1.1536Z M-2.3277,-1.2167 -2.3204,-1.2128 -2.325,-1.1995 -2.3384,-1.217 -2.3277,-1.2167Z M-2.3557,-1.2279 -2.3506,-1.1919 -2.364,-1.2247 -2.3703,-1.217 -2.3647,-1.2335 -2.3557,-1.2279Z M-2.3506,-1.2544 -2.3356,-1.237 -2.3442,-1.2501 -2.3372,-1.2279 -2.3478,-1.218 -2.3548,-1.2607 -2.3506,-1.2544Z M-2.3689,-1.2571 -2.3553,-1.2498 -2.3621,-1.2416 -2.355,-1.2322 -2.3721,-1.2312 -2.3836,-1.2482 -2.3689,-1.2571Z M-2.3312,-1.1957 -2.3068,-1.1689 -2.3148,-1.1686 -2.3035,-1.1606 -2.3042,-1.146 -2.3332,-1.1785 -2.3255,-1.1826 -2.3342,-1.1838 -2.3312,-1.1957Z M-2.6602,-1.2611 -2.6526,-1.2571 -2.677,-1.2521 -2.6602,-1.2611Z M-2.9315,-1.105 -2.9512,-1.0899 -2.9315,-1.105Z M-2.9081,-1.1212 -2.9013,-1.1221 -2.9288,-1.1041 -2.9081,-1.1212Z M-3.0487,-1.0673 -3.0596,-1.0667 -3.0372,-1.0756 -3.0487,-1.0673Z M-2.7154,-0.338 -2.7236,-0.3517 -2.7197,-0.3616 -2.7018,-0.3475 -2.7154,-0.338Z M-1.3039,-0.8814 -1.2369,-0.8881 -1.2085,-0.9435 -1.1835,-0.9337 -1.1833,-0.8995 -1.1692,-0.8772 -1.1961,-0.8632 -1.2001,-0.8708 -1.2249,-0.8513 -1.2401,-0.8169 -1.2209,-0.8017 -1.246,-0.8045 -1.2483,-0.7947 -1.2914,-0.7801 -1.291,-0.7917 -1.2929,-0.7581 -1.3053,-0.7403 -1.3181,-0.7513 -1.3102,-0.7625 -1.3193,-0.7547 -1.3097,-0.7275 -1.3252,-0.6993 -1.3205,-0.7169 -1.3324,-0.7338 -1.3242,-0.7518 -1.3364,-0.7464 -1.3324,-0.72 -1.3479,-0.7271 -1.3444,-0.7378 -1.3484,-0.7313 -1.331,-0.7156 -1.3458,-0.7218 -1.3313,-0.6971 -1.3483,-0.7032 -1.3265,-0.694 -1.3182,-0.6704 -1.3256,-0.6886 -1.3233,-0.6767 -1.3392,-0.6792 -1.3219,-0.6693 -1.3294,-0.6603 -1.3446,-0.6642 -1.3341,-0.6494 -1.3511,-0.6471 -1.3601,-0.6304 -1.4102,-0.5993 -1.4217,-0.5722 -1.3971,-0.486 -1.4046,-0.4553 -1.4156,-0.4536 -1.4263,-0.4698 -1.4436,-0.4995 -1.4383,-0.5066 -1.4458,-0.5064 -1.4425,-0.5271 -1.4607,-0.5479 -1.4891,-0.5429 -1.494,-0.5552 -1.5219,-0.5562 -1.5184,-0.5608 -1.5361,-0.5539 -1.5361,-0.5633 -1.5766,-0.555 -1.5603,-0.5503 -1.5659,-0.5417 -1.5537,-0.5332 -1.56,-0.5289 -1.5736,-0.5401 -1.5745,-0.5312 -1.5882,-0.533 -1.6038,-0.5461 -1.6102,-0.5405 -1.6378,-0.5489 -1.6539,-0.5368 -1.6584,-0.5433 -1.6628,-0.5285 -1.6867,-0.5235 -1.6828,-0.5185 -1.6958,-0.5122 -1.7006,-0.4962 -1.7064,-0.4987 -1.6996,-0.4677 -1.7298,-0.479 -1.7368,-0.5005 -1.7705,-0.5449 -1.7909,-0.5443 -1.8022,-0.5293 -1.8221,-0.5407 -1.8322,-0.5624 -1.8579,-0.5853 -1.938,-0.5761 -2.0022,-0.6049 -2.0443,-0.601 -2.0684,-0.6321 -2.1056,-0.6439 -2.138,-0.7078 -2.1305,-0.7065 -2.1347,-0.7182 -2.1211,-0.7193 -2.1468,-0.7178 -2.1705,-0.7714 -2.1654,-0.7965 -2.1736,-0.8283 -2.164,-0.9118 -2.1506,-0.91 -2.1654,-0.9133 -2.1614,-0.9306 -2.1766,-0.9674 -2.1429,-0.9611 -2.1492,-0.9409 -2.1386,-0.9554 -2.1473,-0.9352 -2.1415,-0.9344 -2.1335,-0.9577 -2.1431,-0.9835 -1.6609,-0.9835 -1.657,-0.9932 -1.6514,-0.9769 -1.5973,-0.959 -1.5425,-0.9653 -1.4683,-0.9197 -1.4408,-0.89 -1.4336,-0.8465 -1.4512,-0.8125 -1.4432,-0.8017 -1.3795,-0.8281 -1.3762,-0.8467 -1.3408,-0.848 -1.3039,-0.8814Z M-1.2655,-0.7856 -1.2549,-0.7873 -1.2921,-0.7776 -1.2655,-0.7856Z M-1.6959,-0.4733 -1.6998,-0.4936 -1.6959,-0.4733Z" fill="#e8efe2"/><path d="M2.1829,0.1667 2.1848,0.1515 2.2218,0.1475 2.1829,0.1667Z" fill="#e8efe2"/><path d="M2.2101,-0.7131 2.2405,-0.7318 2.2588,-0.6973 2.2551,-0.6567 2.2084,-0.6382 2.2042,-0.656 2.2122,-0.6715 2.2019,-0.691 2.2162,-0.6947 2.2101,-0.7131Z" fill="#e8efe2"/><path d="M-3.1381,-1.6827 -3.0604,-1.6231 -3.0517,-1.6081 -3.0529,-1.5755 -3.0381,-1.5585 -3.0329,-1.5672 -3.0465,-1.5964 -2.9985,-1.5892 -2.9623,-1.5511 -2.9924,-1.5396 -2.9875,-1.5273 -3.0156,-1.5349 -3.0056,-1.5085 -3.0206,-1.5003 -3.0086,-1.4832 -3.0222,-1.4771 -3.0613,-1.4982 -3.0734,-1.526 -3.1138,-1.5273 -3.1231,-1.5498 -3.1159,-1.5658 -3.136,-1.5563 -3.1302,-1.5281 -3.1416,-1.5093 -3.1381,-1.6827Z M2.281,-0.8162 2.2763,-0.8264 2.2909,-0.8419 2.286,-0.8774 2.3012,-0.8895 2.3232,-0.8846 2.3518,-0.9502 2.3504,-0.964 2.2864,-0.9494 2.2785,-0.9801 2.2262,-1.0053 2.2,-1.0873 2.1574,-1.1109 2.096,-1.0888 2.1059,-1.0824 2.1063,-1.0653 2.0815,-1.0126 2.0572,-0.9974 1.9949,-1.018 1.9323,-0.9875 1.8956,-0.9923 1.8624,-1.0191 1.8029,-1.0161 1.7862,-1.0254 1.7822,-1.0479 1.726,-1.0696 1.709,-1.0459 1.7148,-1.0189 1.6993,-1.0036 1.6513,-1.0112 1.645,-1.026 1.6118,-1.0342 1.5258,-0.9859 1.5129,-1.0047 1.4875,-1.0004 1.4587,-1.0365 1.4219,-1.0309 1.4092,-1.0462 1.3961,-1.0318 1.3589,-1.1027 1.3348,-1.1248 1.3411,-1.1373 1.2805,-1.108 1.2865,-1.1254 1.2408,-1.1304 1.2346,-1.1637 1.2039,-1.1662 1.136,-1.1343 1.0687,-1.1248 1.0643,-1.1129 1.0739,-1.1094 1.0681,-1.1033 1.0835,-1.0951 1.0655,-1.094 1.0636,-1.0741 1.0477,-1.0642 1.0743,-1.047 1.0636,-1.0298 1.0388,-1.0241 0.995,-1.0401 0.972,-1.0265 0.9536,-1.0384 0.9516,-1.0254 0.931,-1.0515 0.8865,-1.0585 0.8488,-1.0274 0.851,-1.0088 0.8278,-1.0205 0.8144,-0.9682 0.8254,-0.9507 0.8407,-0.9499 0.8545,-0.9258 0.8472,-0.9217 0.8596,-0.9136 0.8283,-0.8983 0.8154,-0.8706 0.8283,-0.8463 0.8316,-0.854 0.8283,-0.8338 0.8477,-0.8054 0.8259,-0.7924 0.7969,-0.8214 0.6978,-0.8429 0.6397,-0.8846 0.6718,-0.9085 0.6592,-0.9224 0.6854,-0.9327 0.6667,-0.9398 0.6936,-0.9533 0.6995,-0.9993 0.6531,-1.0219 0.6212,-1.0208 0.6163,-1.0392 0.5971,-1.0454 0.6004,-1.0599 0.5903,-1.0753 0.5543,-1.069 0.5456,-1.0954 0.5709,-1.1071 0.5376,-1.1476 0.5395,-1.1717 0.4936,-1.1869 0.4824,-1.2119 0.4787,-1.2755 0.4913,-1.2952 0.4889,-1.3072 0.5266,-1.3156 0.4976,-1.3409 0.4852,-1.336 0.5505,-1.4237 0.5234,-1.4556 0.5328,-1.4691 0.5166,-1.5052 0.5252,-1.5396 0.5074,-1.5874 0.5234,-1.6227 0.5007,-1.6468 0.5021,-1.6778 0.4958,-1.6807 0.5582,-1.7329 0.5761,-1.7212 0.5601,-1.7167 0.5651,-1.7092 0.5838,-1.7067 0.5784,-1.689 0.6259,-1.6949 0.7151,-1.6245 0.7189,-1.5848 0.6746,-1.5516 0.5568,-1.5995 0.6055,-1.5464 0.6006,-1.5231 0.6116,-1.4836 0.6535,-1.4584 0.6643,-1.4695 0.6391,-1.4962 0.6437,-1.5135 0.6939,-1.4892 0.7058,-1.4974 0.695,-1.5315 0.7367,-1.5711 0.7697,-1.549 0.7754,-1.5896 0.7641,-1.6035 0.772,-1.645 0.7563,-1.6696 0.8009,-1.6605 0.8149,-1.631 0.7837,-1.6108 0.8114,-1.5834 0.8318,-1.5914 0.8355,-1.6185 0.8508,-1.6333 0.9146,-1.6544 0.939,-1.6856 0.951,-1.6851 0.9296,-1.6506 1.0308,-1.6861 1.0315,-1.6586 1.0425,-1.6544 1.0634,-1.6851 1.0502,-1.7147 1.0631,-1.7278 1.1203,-1.7117 1.1933,-1.6525 1.2067,-1.6831 1.1676,-1.7127 1.1743,-1.7739 1.1631,-1.792 1.1915,-1.8248 1.2111,-1.8984 1.2479,-1.8954 1.2708,-1.8824 1.2544,-1.8127 1.2689,-1.7856 1.2668,-1.6841 1.2844,-1.6605 1.2456,-1.5905 1.2486,-1.5781 1.2045,-1.583 1.2579,-1.5593 1.3034,-1.6236 1.2999,-1.6691 1.3111,-1.6788 1.3345,-1.6846 1.3481,-1.6601 1.3469,-1.6277 1.3774,-1.619 1.3542,-1.6264 1.3614,-1.6501 1.3552,-1.6807 1.2877,-1.6954 1.2842,-1.7253 1.2975,-1.7654 1.2757,-1.8116 1.3088,-1.8507 1.3066,-1.8913 1.3195,-1.876 1.3139,-1.811 1.3217,-1.8023 1.3792,-1.785 1.327,-1.8377 1.3647,-1.8377 1.3511,-1.849 1.3654,-1.8644 1.4505,-1.827 1.4368,-1.8017 1.434,-1.7665 1.4488,-1.7824 1.443,-1.7467 1.45,-1.74 1.4615,-1.7639 1.4512,-1.7931 1.4579,-1.8248 1.4107,-1.8708 1.4064,-1.9354 1.5165,-1.9553 1.4973,-1.9274 1.5129,-1.9074 1.4994,-1.9243 1.5284,-1.9503 1.501,-1.9827 1.5225,-1.9853 1.4973,-2.0043 1.5266,-2.0283 1.5186,-2.0391 1.6434,-2.0944 1.6207,-2.0959 1.6277,-2.1046 1.7219,-2.1148 1.7385,-2.0837 1.7424,-2.1075 1.7246,-2.1325 1.7733,-2.1296 1.7612,-2.1644 1.8153,-2.2304 1.8511,-2.2028 1.8186,-2.1799 1.875,-2.1667 1.8572,-2.1348 1.9392,-2.1506 1.9872,-2.0916 1.9808,-2.0661 1.9626,-2.0851 1.985,-2.0584 1.9708,-2.0289 1.835,-1.8877 1.935,-1.9453 1.9141,-1.9497 1.9244,-1.9635 1.9727,-1.9566 1.9808,-1.9219 1.9745,-1.8907 1.9837,-1.8789 1.9761,-1.8895 1.9878,-1.9219 1.9811,-1.9311 1.9907,-1.936 2.0673,-1.9366 2.0759,-1.9298 2.067,-1.9158 2.09,-1.8996 2.1387,-1.8936 2.1576,-1.9122 2.1541,-1.9397 2.1736,-1.9465 2.2532,-1.9074 2.2445,-1.8948 2.2558,-1.8836 2.2414,-1.8737 2.2564,-1.8679 2.2564,-1.8478 2.2293,-1.8661 2.2867,-1.7744 2.3152,-1.8388 2.3333,-1.811 2.3752,-1.8215 2.4075,-1.7947 2.4126,-1.8204 2.4431,-1.8143 2.4323,-1.8399 2.4468,-1.8535 2.4285,-1.8615 2.4623,-1.8766 2.4576,-1.8942 2.5525,-1.8679 2.5162,-1.8575 2.5215,-1.8524 2.5627,-1.8598 2.5501,-1.8393 2.544,-1.8558 2.534,-1.8259 2.5702,-1.8615 2.6093,-1.8518 2.6183,-1.8371 2.5991,-1.8265 2.6618,-1.7786 2.7698,-1.7845 2.791,-1.7618 2.7896,-1.7242 2.8084,-1.7157 2.8159,-1.6812 2.8075,-1.6634 2.8266,-1.7127 2.8615,-1.7222 2.9297,-1.7217 2.9603,-1.6754 2.9765,-1.6773 2.9845,-1.6919 2.9699,-1.7167 2.9756,-1.741 3.0704,-1.7303 3.1416,-1.6846 3.1416,-1.5093 3.1158,-1.4901 3.0871,-1.5098 3.0777,-1.5085 3.0931,-1.5007 3.0465,-1.4933 3.0728,-1.5023 3.1107,-1.4803 3.1149,-1.4489 3.1341,-1.418 3.1262,-1.4009 3.0896,-1.4184 3.017,-1.3695 2.9732,-1.3159 2.9536,-1.3381 2.9006,-1.3117 2.9034,-1.3338 2.8789,-1.3114 2.8578,-1.318 2.8267,-1.2518 2.8489,-1.2423 2.8407,-1.2244 2.8508,-1.1923 2.8421,-1.1872 2.8456,-1.2014 2.8391,-1.2004 2.8288,-1.1879 2.8225,-1.1695 2.8294,-1.1467 2.7937,-1.1298 2.7931,-1.0986 2.7658,-1.0957 2.7594,-1.0608 2.7358,-1.0373 2.715,-1.1603 2.7224,-1.2071 2.7375,-1.226 2.7372,-1.2419 2.7625,-1.2495 2.8287,-1.3335 2.8573,-1.3495 2.866,-1.3998 2.8868,-1.4074 2.8506,-1.4096 2.8465,-1.3731 2.7955,-1.3395 2.7992,-1.3535 2.7889,-1.351 2.7979,-1.3849 2.7416,-1.3772 2.6929,-1.311 2.6915,-1.2989 2.7081,-1.289 2.6412,-1.2785 2.6574,-1.29 2.6117,-1.309 2.5958,-1.2914 2.511,-1.2965 2.4789,-1.2826 2.3599,-1.1494 2.3876,-1.1427 2.3876,-1.1177 2.4028,-1.1325 2.397,-1.1272 2.4056,-1.1227 2.3955,-1.1109 2.4178,-1.123 2.4164,-1.1106 2.4201,-1.1331 2.4384,-1.1325 2.4674,-1.1033 2.4581,-1.0974 2.4695,-1.0713 2.4525,-1.0326 2.4454,-0.9685 2.3585,-0.8455 2.3241,-0.8257 2.3002,-0.8391 2.281,-0.8162Z M0.828,-2.5255 0.8496,-2.5016 0.7837,-2.4995 0.828,-2.5255Z M0.8776,-2.5343 0.9023,-2.5081 0.8446,-2.4463 0.814,-2.4669 0.8776,-2.5343Z M1.1828,-2.1148 1.0709,-2.0487 1.0215,-1.9944 0.9884,-1.9189 0.9477,-1.9219 0.9383,-1.9478 0.9798,-1.9944 0.9701,-2.0029 0.9861,-2.0249 0.976,-2.0391 1.0276,-2.0866 1.1786,-2.1729 1.2032,-2.1499 1.1828,-2.1148Z M0.9655,-1.9195 0.9849,-1.9128 0.9669,-1.8743 0.9652,-1.8393 1.0058,-1.7733 0.9376,-1.7776 0.9317,-1.7808 0.9453,-1.7947 0.8978,-1.8304 0.9184,-1.8598 0.9236,-1.8813 0.9172,-1.8871 0.9294,-1.9116 0.9655,-1.9195Z M1.6848,-2.5511 1.708,-2.5092 1.6949,-2.4995 1.6961,-2.4607 1.6383,-2.4373 1.5973,-2.4731 1.6244,-2.541 1.6848,-2.5511Z M1.7047,-2.4525 1.7108,-2.4383 1.7043,-2.4124 1.7445,-2.4213 1.7397,-2.3701 1.7286,-2.3673 1.7441,-2.3367 1.7027,-2.325 1.6244,-2.3872 1.6579,-2.4463 1.7047,-2.4525Z M1.7956,-2.3635 1.7874,-2.3259 1.8117,-2.3542 1.8385,-2.3036 1.7329,-2.2562 1.7731,-2.3729 1.7956,-2.3635Z M2.4443,-2.0851 2.4578,-2.071 2.4695,-2.1075 2.537,-2.064 2.5136,-2.0303 2.4927,-2.046 2.4948,-2.0766 2.4799,-2.0731 2.4981,-2.0256 2.4298,-2.0049 2.3904,-2.046 2.4122,-2.1053 2.4443,-2.0851Z M2.5621,-2.0528 2.6323,-2.0384 2.6014,-2.0122 2.5508,-2.0412 2.5621,-2.0528Z M3.1217,-1.7786 3.1186,-1.7936 3.1416,-1.8171 3.1416,-1.7872 3.1217,-1.7786Z M2.4916,-1.1358 2.5014,-1.0937 2.4991,-1.0645 2.5257,-0.9743 2.5128,-0.9913 2.4976,-0.9891 2.4881,-0.9507 2.5059,-0.9154 2.5033,-0.907 2.5007,-0.9204 2.4895,-0.9245 2.4798,-0.9043 2.482,-1.0442 2.4724,-1.0738 2.4752,-1.1047 2.4876,-1.108 2.4841,-1.1325 2.4916,-1.1358Z M-3.122,-1.8193 -3.098,-1.7996 -3.1416,-1.7872 -3.1416,-1.8171 -3.122,-1.8193Z M2.6032,-2.1461 2.5901,-2.1453 2.6032,-2.1461Z M1.8797,-2.2638 1.8574,-2.2646 1.8797,-2.2638Z M1.6848,-2.1177 1.6635,-2.1126 1.6848,-2.1177Z M1.6806,-2.1745 1.6628,-2.1737 1.6806,-2.1745Z M0.8973,-2.4302 0.8742,-2.4342 0.8973,-2.4302Z M1.0231,-2.5466 1.0285,-2.5233 0.9985,-2.5443 1.0231,-2.5466Z M0.8774,-1.6949 0.8536,-1.673 0.8426,-1.6875 0.8543,-1.7107 0.8774,-1.6949Z M1.106,-2.5092 1.0912,-2.5222 1.1271,-2.5647 1.1421,-2.5343 1.106,-2.5092Z M1.0116,-2.4484 0.995,-2.4846 1.0343,-2.471 1.0116,-2.4484Z M1.0851,-2.5233 1.0655,-2.4794 1.0348,-2.4952 1.0851,-2.5233Z M1.0671,-2.5365 1.0482,-2.5399 1.0746,-2.5477 1.0671,-2.5365Z M0.9341,-2.4555 0.9112,-2.4627 0.9399,-2.4638 0.9341,-2.4555Z M0.9962,-2.472 0.9725,-2.4463 0.9962,-2.472Z M1.009,-2.6054 1.0221,-2.5901 0.9681,-2.5773 1.009,-2.6054Z M0.955,-2.5556 1.0069,-2.5189 0.9437,-2.5211 0.955,-2.5556Z M1.1109,-2.6125 1.084,-2.621 1.1109,-2.6125Z M1.0175,-2.6258 1.0107,-2.6258 1.0369,-2.6392 1.0175,-2.6258Z M1.6176,-2.4056 1.5895,-2.4342 1.6371,-2.4262 1.6176,-2.4056Z M1.5982,-2.5578 1.5691,-2.5612 1.5982,-2.5578Z M2.4611,-1.9623 2.4452,-1.9737 2.4611,-1.9623Z M2.4815,-1.9559 2.5044,-1.9158 2.4381,-1.9268 2.4815,-1.9559Z M2.9531,-1.7142 2.9285,-1.7273 2.9569,-1.7283 2.9531,-1.7142Z M2.8561,-1.2691 2.8723,-1.29 2.8732,-1.2788 2.8561,-1.2691Z M2.6126,-0.8973 2.6276,-0.9116 2.6126,-0.8973Z M2.5936,-0.8893 2.5639,-0.8666 2.5817,-0.8908 2.5936,-0.8893Z M2.5518,-0.8691 2.5581,-0.8676 2.5384,-0.8506 2.5518,-0.8691Z M1.979,-1.9879 1.946,-1.9847 1.979,-1.9879Z M1.3308,-2.4017 1.3542,-2.3872 1.3308,-2.4017Z M1.3968,-2.5255 1.3785,-2.5255 1.4038,-2.5343 1.3968,-2.5255Z M1.2334,-1.9068 1.2203,-1.9056 1.2278,-1.9298 1.2502,-1.914 1.2334,-1.9068Z M1.3549,-1.8592 1.3416,-1.861 1.3678,-1.8702 1.3549,-1.8592Z M1.0551,-1.7318 1.0409,-1.7212 1.0205,-1.7493 1.0551,-1.7318Z M0.3658,-1.1628 0.3594,-1.1536 0.3939,-1.1561 0.3974,-1.1349 0.3421,-1.1379 0.3658,-1.1628Z M0.5863,-0.9088 0.6055,-0.9058 0.6189,-0.8893 0.6384,-0.891 0.5892,-0.8666 0.5857,-0.8838 0.5674,-0.8913 0.5863,-0.9088Z" fill="#e8efe2"/><path d="M2.1136,-0.3309 2.134,-0.3279 2.1384,-0.3033 2.1187,-0.2706 2.1253,-0.2499 2.1611,-0.2439 2.1564,-0.2405 2.1653,-0.2212 2.1398,-0.2452 2.1398,-0.2323 2.1255,-0.2457 2.1056,-0.2432 2.1108,-0.2585 2.1045,-0.2627 2.1021,-0.2549 2.0958,-0.2621 2.0904,-0.2877 2.1009,-0.285 2.1049,-0.3288 2.1136,-0.3309Z M2.0474,-0.1478 2.082,-0.1855 2.0857,-0.1994 2.089,-0.1843 2.0474,-0.1478Z M2.138,-0.2042 2.1495,-0.2028 2.1482,-0.1967 2.1284,-0.1832 2.1274,-0.2072 2.138,-0.2042Z M2.149,-0.1588 2.1363,-0.1722 2.1513,-0.193 2.1567,-0.1893 2.149,-0.1588Z M2.1742,-0.1992 2.1822,-0.1969 2.1822,-0.176 2.17,-0.2028 2.1742,-0.1992Z M2.1859,-0.2205 2.1946,-0.1941 2.1822,-0.1992 2.1693,-0.2212 2.1859,-0.2205Z M2.1066,-0.2375 2.1213,-0.2305 2.116,-0.2149 2.1003,-0.2362 2.1066,-0.2375Z M2.1993,-0.1634 2.2092,-0.1269 2.2024,-0.1104 2.1937,-0.1271 2.1897,-0.0989 2.1679,-0.1089 2.1679,-0.1295 2.1584,-0.1369 2.1536,-0.1297 2.1401,-0.1359 2.1286,-0.122 2.1335,-0.1392 2.1543,-0.1524 2.1607,-0.141 2.1904,-0.1579 2.1899,-0.1712 2.1993,-0.1634Z M2.1532,-0.1657 2.1649,-0.198 2.1532,-0.1657Z" fill="#e8efe2"/><path d="M2.6698,0.0832 2.6578,0.0625 2.6325,0.0449 2.6707,0.0718 2.6698,0.0832Z M2.6515,0.0751 2.6601,0.0758 2.6543,0.0954 2.6255,0.1098 2.589,0.0991 2.615,0.0965 2.6196,0.0876 2.6211,0.0965 2.6337,0.0953 2.6471,0.0853 2.6457,0.0734 2.6515,0.0751Z M2.4606,0.1599 2.4627,0.0456 2.5217,0.0669 2.5442,0.0842 2.5438,0.0944 2.5747,0.1053 2.5805,0.1165 2.5648,0.1195 2.569,0.1292 2.5932,0.1586 2.604,0.1583 2.6157,0.1756 2.6328,0.1797 2.6236,0.187 2.5791,0.1767 2.5496,0.142 2.5072,0.1306 2.5122,0.139 2.5065,0.1436 2.482,0.1436 2.5023,0.157 2.4897,0.1636 2.4606,0.1599Z M2.722,0.117 2.7112,0.1176 2.7005,0.0951 2.722,0.117Z" fill="#e8efe2"/><path d="M2.2405,-0.7318 2.2101,-0.7131 2.1879,-0.7118 2.1763,-0.7209 2.1913,-0.7333 2.1846,-0.736 2.1879,-0.7522 2.171,-0.7652 2.2117,-0.8026 2.2366,-0.7949 2.2349,-0.8089 2.2501,-0.8101 2.271,-0.8319 2.281,-0.8162 2.2647,-0.8024 2.2639,-0.7826 2.2258,-0.7561 2.2234,-0.745 2.2405,-0.7318Z" fill="#e8efe2"/><path d="M3.0215,0.7924 3.0433,0.7882 3.0407,0.8056 3.0112,0.8439 3.0206,0.8538 3.0027,0.8496 2.9887,0.8632 2.9807,0.903 2.9514,0.9222 2.9058,0.9053 2.9386,0.8588 2.9847,0.8302 3.0067,0.7803 3.0184,0.7748 3.0215,0.7924Z M3.0241,0.6513 3.0425,0.6582 3.0494,0.6925 3.0638,0.7004 3.0624,0.6847 3.0737,0.7103 3.092,0.7178 3.1161,0.7111 3.1051,0.7457 3.0906,0.7452 3.0864,0.7666 3.0597,0.8 3.048,0.793 3.0571,0.7654 3.0327,0.7475 3.0473,0.7356 3.0531,0.7136 3.0472,0.6982 3.0531,0.6977 3.0144,0.6414 3.0241,0.6513Z" fill="#e8efe2"/><path d="M1.5326,-0.9881 1.6118,-1.0342 1.645,-1.026 1.6513,-1.0112 1.6993,-1.0036 1.7148,-1.0189 1.709,-1.0459 1.726,-1.0696 1.7822,-1.0479 1.7862,-1.0254 1.8029,-1.0161 1.8624,-1.0191 1.8956,-0.9923 1.9323,-0.9875 1.9949,-1.018 2.0307,-1.0101 2.0365,-1.0058 2.0179,-0.9541 2.0682,-0.9569 2.0926,-0.9247 2.0497,-0.9212 1.9836,-0.8755 1.953,-0.8829 1.9443,-0.8659 1.9535,-0.8499 1.9268,-0.8274 1.8322,-0.7998 1.7715,-0.8219 1.6823,-0.8262 1.6642,-0.8637 1.5862,-0.8863 1.5881,-0.9252 1.5766,-0.9486 1.5355,-0.9722 1.5326,-0.9881Z" fill="#e8efe2"/><path d="M1.7474,-0.1126 1.7637,-0.1091 1.7647,-0.0986 1.7849,-0.1084 1.7994,-0.0946 1.8054,-0.0512 1.8195,-0.0243 1.8061,-0.0232 1.768,-0.0505 1.7474,-0.1126Z M2.052,-0.0728 2.0221,-0.076 1.9986,-0.0253 1.9631,-0.0272 1.9288,-0.015 1.912,-0.0323 1.9412,-0.0244 1.9415,-0.0426 1.972,-0.0552 1.9898,-0.08 2.0003,-0.0702 2.0077,-0.0856 2.0129,-0.0765 2.0145,-0.0946 2.0382,-0.1223 2.0384,-0.1156 2.0443,-0.122 2.0534,-0.1132 2.0508,-0.1028 2.0595,-0.1058 2.059,-0.0998 2.0815,-0.0939 2.064,-0.0872 2.0691,-0.0765 2.052,-0.0728Z" fill="#e8efe2"/><path d="M2.5101,-0.8598 2.5272,-0.8554 2.5372,-0.8649 2.5332,-0.8487 2.5452,-0.8422 2.5128,-0.83 2.5,-0.8092 2.4518,-0.8224 2.4635,-0.8047 2.4442,-0.7968 2.441,-0.8229 2.4503,-0.84 2.4674,-0.8395 2.4726,-0.8913 2.5101,-0.8598Z M2.2893,-0.6233 2.2986,-0.6233 2.304,-0.6091 2.2923,-0.5777 2.281,-0.57 2.2825,-0.5841 2.2792,-0.5732 2.2715,-0.5779 2.2785,-0.6072 2.2731,-0.6145 2.2749,-0.6045 2.2649,-0.6018 2.2616,-0.6157 2.2806,-0.63 2.2893,-0.6233Z M2.345,-0.6371 2.3517,-0.6279 2.3419,-0.6159 2.3323,-0.6214 2.3178,-0.6055 2.311,-0.6197 2.3044,-0.6178 2.3202,-0.6338 2.345,-0.6371Z M2.4649,-0.7944 2.478,-0.75 2.4602,-0.7213 2.4534,-0.6792 2.4586,-0.6682 2.4496,-0.6567 2.4407,-0.6509 2.4419,-0.6672 2.4243,-0.645 2.4229,-0.655 2.4119,-0.6443 2.3921,-0.6439 2.3876,-0.6539 2.3885,-0.6384 2.3684,-0.621 2.3585,-0.6319 2.3635,-0.6448 2.3517,-0.6479 2.3092,-0.6384 2.3065,-0.6283 2.285,-0.6312 2.3199,-0.6637 2.3702,-0.6646 2.3883,-0.7043 2.397,-0.7067 2.3894,-0.6986 2.3955,-0.6905 2.4141,-0.7008 2.44,-0.7376 2.4494,-0.7905 2.463,-0.7831 2.4651,-0.7907 2.4574,-0.7917 2.4649,-0.7944Z" fill="#e8efe2"/><path d="M2.015,0.1429 2.0193,0.1473 2.0096,0.1551 1.9979,0.1431 2.015,0.1429Z M1.8509,0.0292 1.8644,0.0449 1.8617,0.0536 1.8349,0.0356 1.8406,0.0274 1.8509,0.0292Z M2.1499,0.0795 2.1501,0.0932 2.1406,0.0989 2.1499,0.0795Z M2.3628,0.0113 2.3803,0.019 2.3628,0.0113Z M2.3644,0.0278 2.3892,0.0314 2.3644,0.0278Z M2.2831,0.0 2.2923,0.0051 2.2731,0.0037 2.2831,0.0Z M2.2131,0.1343 2.1956,0.1397 2.2131,0.1343Z M1.6841,-0.0914 1.7026,-0.0911 1.7544,-0.0382 1.7637,-0.0395 1.7982,-0.0101 1.7898,-0.0038 1.8094,-0.0051 1.8054,0.0101 1.8218,0.0187 1.8265,0.0454 1.8396,0.0416 1.8511,0.0552 1.8457,0.1018 1.8263,0.0965 1.8256,0.1032 1.7729,0.0554 1.7209,-0.0325 1.7052,-0.0412 1.6619,-0.0965 1.6841,-0.0914Z M2.1429,0.1508 2.0911,0.1524 2.105,0.1443 2.1349,0.1512 2.1441,0.1417 2.1429,0.1508Z M2.0946,0.1643 2.1066,0.1791 2.0762,0.1669 2.0946,0.1643Z M2.0637,0.1457 2.0792,0.1519 2.0384,0.1579 2.0448,0.1466 2.059,0.153 2.0553,0.1427 2.0637,0.1457Z M2.1797,-0.0175 2.168,-0.0066 2.0977,-0.0047 2.0954,0.0098 2.1061,0.0239 2.122,0.0145 2.1543,0.0136 2.1181,0.0328 2.1445,0.0767 2.1221,0.0832 2.1227,0.0714 2.1099,0.0615 2.1127,0.048 2.1057,0.0466 2.0988,0.0533 2.1019,0.0977 2.0867,0.0981 2.0878,0.0704 2.0731,0.0475 2.0991,-0.0169 2.1132,-0.0232 2.163,-0.0148 2.1836,-0.0295 2.1797,-0.0175Z M1.874,0.1051 1.8986,0.1191 1.9274,0.1216 1.9343,0.1123 1.9642,0.1212 1.9724,0.1341 1.9968,0.1364 2.0001,0.153 1.8836,0.1351 1.8371,0.1197 1.8514,0.1033 1.874,0.1051Z M1.9134,-0.0354 1.9288,-0.015 1.9631,-0.0272 1.9986,-0.0253 2.019,-0.0732 2.0438,-0.0758 2.0556,-0.0644 2.0431,-0.0632 2.0607,-0.0405 2.0558,-0.0354 2.0766,-0.0171 2.0579,-0.0192 2.0518,0.0134 2.0295,0.0311 2.0291,0.0547 2.0017,0.0728 1.9956,0.0566 1.9846,0.0604 1.9727,0.0512 1.9523,0.062 1.9494,0.0505 1.9244,0.0519 1.9195,0.0222 1.9069,0.0141 1.9014,-0.0063 1.9038,-0.0262 1.9134,-0.0354Z M2.2293,-0.0148 2.2461,-0.0274 2.2386,-0.0127 2.2497,-0.0038 2.2321,-0.0052 2.2415,0.0155 2.2286,0.0042 2.2241,-0.0199 2.2347,-0.0384 2.2293,-0.0148Z M2.2646,0.0501 2.2789,0.0547 2.2831,0.0674 2.2661,0.0582 2.2363,0.0552 2.2323,0.0611 2.2375,0.0501 2.2646,0.0501Z M2.2141,0.054 2.2208,0.0606 2.2155,0.0657 2.1996,0.0587 2.2141,0.054Z M2.1803,0.1567 2.181,0.1696 2.1579,0.1809 2.1591,0.1685 2.1803,0.1567Z M2.418,0.1448 2.4024,0.147 2.41,0.1325 2.422,0.1293 2.418,0.1448Z M2.4604,0.0456 2.4606,0.1599 2.4456,0.1387 2.4241,0.1443 2.4216,0.1269 2.4291,0.1258 2.419,0.1214 2.4145,0.0993 2.396,0.0865 2.3382,0.0667 2.3359,0.0533 2.3197,0.0709 2.3169,0.0575 2.3033,0.0487 2.3335,0.0457 2.3373,0.0367 2.3092,0.0391 2.3026,0.0272 2.2864,0.0241 2.3106,0.0063 2.3382,0.0129 2.3421,0.0403 2.3606,0.0589 2.4052,0.0258 2.4604,0.0456Z M1.9869,0.1244 1.9675,0.1237 1.9869,0.1244Z" fill="#e8efe2"/><path d="M1.8844,-0.3846 1.8616,-0.3934 1.8637,-0.4085 1.8375,-0.4193 1.8141,-0.404 1.7752,-0.403 1.7755,-0.378 1.7666,-0.3791 1.7642,-0.3893 1.7479,-0.384 1.7439,-0.3943 1.7308,-0.3966 1.7368,-0.4119 1.7254,-0.4163 1.7251,-0.434 1.7027,-0.43 1.7073,-0.4557 1.7219,-0.4675 1.7218,-0.5009 1.7045,-0.5193 1.6804,-0.5175 1.6856,-0.5245 1.6762,-0.5383 1.6649,-0.5301 1.6514,-0.5354 1.6054,-0.5041 1.5691,-0.5151 1.5514,-0.496 1.5467,-0.5112 1.5008,-0.5076 1.4319,-0.556 1.4156,-0.5501 1.3743,-0.5761 1.3682,-0.6012 1.3826,-0.6004 1.3778,-0.639 1.3662,-0.6454 1.3621,-0.6631 1.3296,-0.6702 1.3237,-0.6884 1.2982,-0.6991 1.3111,-0.7045 1.3062,-0.7269 1.2881,-0.7316 1.2851,-0.7504 1.3062,-0.7739 1.332,-0.7709 1.3423,-0.7863 1.4005,-0.8101 1.3992,-0.825 1.4101,-0.8367 1.4043,-0.8752 1.394,-0.8784 1.4402,-0.8846 1.4366,-0.8953 1.4491,-0.9365 1.4919,-0.9332 1.4956,-0.9656 1.5174,-0.9865 1.5326,-0.9881 1.5355,-0.9722 1.5762,-0.9491 1.5881,-0.9252 1.5862,-0.8863 1.6642,-0.8637 1.6823,-0.8262 1.7715,-0.8219 1.8322,-0.7998 1.9268,-0.8274 1.9535,-0.8499 1.9443,-0.8659 1.953,-0.8829 1.9836,-0.8755 2.0497,-0.9212 2.0921,-0.9232 2.0682,-0.9569 2.0228,-0.9494 2.0164,-0.9609 2.0365,-1.0058 2.0572,-0.9974 2.0815,-1.0126 2.1075,-1.069 2.0951,-1.0867 2.1117,-1.103 2.1574,-1.1109 2.193,-1.096 2.2262,-1.0053 2.2785,-0.9801 2.2864,-0.9494 2.3504,-0.964 2.3518,-0.9502 2.3232,-0.8846 2.3012,-0.8895 2.286,-0.8774 2.2909,-0.8419 2.2782,-0.8219 2.2672,-0.8328 2.2637,-0.8198 2.2349,-0.8089 2.2366,-0.7949 2.2117,-0.8026 2.1689,-0.7611 2.1155,-0.7345 2.1262,-0.7491 2.1166,-0.7525 2.1342,-0.7753 2.1263,-0.7852 2.0766,-0.7443 2.0556,-0.7432 2.0536,-0.7273 2.0759,-0.7189 2.0789,-0.7004 2.1075,-0.7142 2.141,-0.7048 2.1352,-0.6923 2.0975,-0.6786 2.0799,-0.6496 2.0991,-0.6374 2.1092,-0.6037 2.1269,-0.5863 2.0951,-0.5888 2.107,-0.5896 2.1256,-0.5728 2.0977,-0.5541 2.1307,-0.5467 2.1207,-0.5389 2.1288,-0.5391 2.1197,-0.5318 2.1225,-0.5151 2.1075,-0.5096 2.0951,-0.4825 2.0872,-0.4854 2.0923,-0.4766 2.0794,-0.4725 2.0878,-0.4702 2.0878,-0.4584 2.0567,-0.4407 2.0605,-0.4365 2.0328,-0.4117 1.99,-0.4034 1.9813,-0.4146 1.9818,-0.3979 1.927,-0.3814 1.9258,-0.3618 1.9178,-0.3631 1.9186,-0.384 1.9124,-0.3879 1.9038,-0.3833 1.8933,-0.3919 1.8844,-0.3846Z M1.9354,-0.3562 1.9211,-0.3277 1.8972,-0.3294 1.8963,-0.3429 1.9069,-0.3542 1.9354,-0.3562Z" fill="#e8efe2"/><path d="M2.0077,-0.0856 2.0003,-0.0702 1.9907,-0.0802 2.0077,-0.0856Z" fill="#e8efe2"/><path d="M2.426,-0.6486 2.44,-0.6296 2.4592,-0.5493 2.4853,-0.5015 2.4853,-0.4702 2.4696,-0.4298 2.4696,-0.4032 2.4749,-0.3881 2.4853,-0.3806 2.5377,-0.3675 2.5517,-0.3342 2.5534,-0.2939 2.5464,-0.2576 2.5255,-0.2271 2.2445,-0.0454 2.2148,-0.0734 2.2148,-0.0786 2.2113,-0.0769 2.2113,-0.0664 2.2096,-0.0699 2.1921,-0.0594 2.1886,-0.0646 2.1886,-0.0979 2.2026,-0.1102 2.2026,-0.1207 2.2096,-0.126 2.2096,-0.1348 2.2061,-0.1366 2.2061,-0.1489 2.2009,-0.1507 2.2044,-0.1524 2.2009,-0.1754 2.1921,-0.1825 2.1904,-0.2163 2.1852,-0.2217 2.1747,-0.2199 2.166,-0.2235 2.166,-0.2289 2.1555,-0.2396 2.1625,-0.2432 2.152,-0.2486 2.1502,-0.2414 2.145,-0.2522 2.1328,-0.2504 2.1328,-0.245 2.1276,-0.2468 2.1188,-0.2685 2.1223,-0.2811 2.131,-0.2866 2.138,-0.3012 2.1328,-0.3085 2.1345,-0.3508 2.131,-0.3638 2.1084,-0.3919 2.1101,-0.4032 2.1188,-0.4146 2.1258,-0.447 2.1293,-0.4509 2.1485,-0.4298 2.1642,-0.426 2.1869,-0.4336 2.2166,-0.4567 2.2323,-0.4799 2.2393,-0.4838 2.2497,-0.5074 2.2637,-0.5173 2.2585,-0.5173 2.2811,-0.5453 2.2846,-0.5533 2.2794,-0.5614 2.2811,-0.5696 2.2864,-0.5777 2.2916,-0.5777 2.3038,-0.6086 2.3213,-0.6066 2.3265,-0.6191 2.337,-0.6212 2.3422,-0.6149 2.3475,-0.6254 2.3597,-0.6296 2.3684,-0.6212 2.3789,-0.6359 2.3894,-0.638 2.3824,-0.6465 2.3876,-0.655 2.3894,-0.6465 2.3963,-0.6486 2.3928,-0.6443 2.412,-0.6443 2.419,-0.655 2.4243,-0.6528 2.4225,-0.6443 2.426,-0.6486Z M2.5272,-0.2396 2.5237,-0.2342 2.5272,-0.2396Z M2.2846,-0.5574 2.2881,-0.5655 2.2846,-0.5574Z M2.1677,-0.2486 2.1642,-0.2414 2.1677,-0.2378 2.1712,-0.2396 2.1677,-0.2486Z M2.1293,-0.2648 2.1258,-0.2648 2.1276,-0.2594 2.1293,-0.2648Z" fill="#e8453c" fill-opacity="0.5" stroke="#e8453c" stroke-width="0.0027"/></g></svg>