<svg xmlns="http://www.w3.org/2000/svg" viewBox="2.379 0.405 0.857 0.848" preserveAspectRatio="xMidYMid meet"><rect x="2.379" y="0.405" width="0.857" height="0.848" fill="#a9d2ea"/><g stroke="#7e96a9" stroke-width="0.0021" stroke-linejoin="round"><path d="M3.0215,0.7924 3.0433,0.7882 3.0407,0.8056 3.0112,0.8439 3.0206,0.8538 3.0027,0.8496 2.9887,0.8632 2.9807,0.903 2.9514,0.9222 2.9058,0.9053 2.9386,0.8588 2.9847,0.8302 3.0067,0.7803 3.0184,0.7748 3.0215,0.7924Z M3.0241,0.6513 3.0425,0.6582 3.0494,0.6925 3.0638,0.7004 3.0624,0.6847 3.0737,0.7103 3.092,0.7178 3.1161,0.7111 3.1051,0.7457 3.0906,0.7452 3.0864,0.7666 3.0597,0.8 3.048,0.793 3.0571,0.7654 3.0327,0.7475 3.0473,0.7356 3.0531,0.7136 3.0472,0.6982 3.0531,0.6977 3.0144,0.6414 3.0241,0.6513Z" fill="#e8efe2"/><path d="M2.499,0.2101 2.5091,0.2531 2.5215,0.251 2.5358,0.2638 2.5548,0.3375 2.5964,0.3618 2.6128,0.4021 2.6297,0.4017 2.6327,0.4214 2.6731,0.4694 2.6812,0.5227 2.6693,0.5783 2.6405,0.6228 2.6168,0.7076 2.581,0.7164 2.552,0.7342 2.5552,0.7437 2.5391,0.7233 2.5258,0.7255 2.5288,0.7158 2.5052,0.7363 2.4682,0.726 2.4396,0.7015 2.4387,0.6823 2.4255,0.6652 2.4309,0.661 2.4117,0.6659 2.4175,0.6533 2.4101,0.6352 2.4031,0.6558 2.389,0.658 2.4073,0.6228 2.4047,0.602 2.3953,0.6239 2.3675,0.6516 2.3428,0.6014 2.2888,0.5798 2.1977,0.5962 2.1684,0.6111 2.1557,0.63 2.0918,0.631 2.0522,0.655 2.0073,0.6371 2.007,0.6216 2.019,0.6147 2.0193,0.5837 1.9754,0.4737 1.9869,0.4799 1.9801,0.4625 1.9935,0.4759 1.9794,0.4365 1.99,0.3915 1.9921,0.4028 2.037,0.3685 2.1118,0.349 2.1354,0.3215 2.1351,0.3023 2.1462,0.291 2.1565,0.3107 2.1574,0.287 2.1776,0.2902 2.1712,0.2884 2.1719,0.2737 2.1827,0.2728 2.1789,0.2677 2.1879,0.267 2.1927,0.2515 2.1972,0.258 2.2,0.2465 2.2246,0.2474 2.2375,0.2603 2.2352,0.2708 2.2441,0.2607 2.2625,0.2674 2.2663,0.2618 2.2581,0.2538 2.2797,0.2187 2.3162,0.2131 2.3031,0.1964 2.3567,0.2144 2.3717,0.2078 2.3684,0.2147 2.377,0.2188 2.3831,0.2103 2.3902,0.2172 2.3817,0.233 2.3724,0.2342 2.364,0.2634 2.4304,0.3072 2.4524,0.3125 2.4681,0.2842 2.473,0.2172 2.4864,0.188 2.499,0.2101Z M2.6718,0.4654 2.6749,0.4457 2.6718,0.4654Z M2.2797,0.1999 2.2958,0.201 2.2855,0.2097 2.2756,0.1966 2.2797,0.1999Z M2.4016,0.6687 2.4106,0.671 2.3831,0.6719 2.4016,0.6687Z M2.5314,0.781 2.5538,0.7896 2.5869,0.7824 2.5827,0.8367 2.5709,0.8278 2.5634,0.8475 2.5489,0.846 2.5269,0.7956 2.5258,0.7783 2.5314,0.781Z" fill="#e8efe2"/><path d="M2.9234,0.9368 2.9042,0.9627 2.899,1.0298 2.8955,1.0326 2.5552,0.8448 2.5639,0.8472 2.5709,0.8281 2.5744,0.8328 2.5761,0.8281 2.5796,0.8305 2.5761,0.8328 2.5831,0.8376 2.5813,0.8233 2.5866,0.8092 2.5883,0.8162 2.5883,0.7836 2.5848,0.7743 2.5918,0.772 2.5866,0.772 2.5883,0.7629 2.5831,0.7561 2.6075,0.7136 2.618,0.7048 2.6215,0.67 2.6302,0.6571 2.6442,0.617 2.6616,0.5983 2.6756,0.5473 2.7751,0.5473 2.7751,0.5818 3.0089,0.6359 3.0177,0.6443 3.0264,0.6635 3.0299,0.6592 3.0264,0.6635 3.0386,0.6829 3.0351,0.6721 3.0439,0.6786 3.0456,0.6851 3.0404,0.6851 3.0456,0.696 3.0508,0.6938 3.0526,0.6982 3.0473,0.6982 3.0526,0.7136 3.0473,0.7358 3.0334,0.7425 3.0334,0.7493 3.0578,0.7652 3.0561,0.7812 3.0369,0.7859 3.0334,0.7928 3.0351,0.7836 3.0212,0.7928 3.0194,0.7812 3.0142,0.7789 3.0177,0.7743 3.0124,0.7743 3.0037,0.7836 3.002,0.7951 2.9932,0.8045 2.9845,0.8305 2.9845,0.8257 2.9531,0.8545 2.9409,0.8569 2.9234,0.8814 2.9217,0.8764 2.9199,0.8838 2.9147,0.8838 2.9182,0.8913 2.913,0.8888 2.9095,0.8938 2.9147,0.8938 2.9112,0.8963 2.9147,0.9013 2.906,0.9013 2.906,0.9063 2.913,0.9063 2.9095,0.9113 2.9234,0.9088 2.9322,0.9164 2.9234,0.9368Z" fill="#e8453c" fill-opacity="0.5" stroke="#e8453c" stroke-width="0.0021"/></g></svg>