<svg xmlns="http://www.w3.org/2000/svg" viewBox="-1.643 -0.461 0.711 0.362" preserveAspectRatio="xMidYMid meet"><rect x="-1.643" y="-0.461" width="0.711" height="0.362" fill="#a9d2ea"/><g stroke="#7e96a9" stroke-width="0.0018" stroke-linejoin="round"><path d="M-1.0475,-0.1498 -1.0446,-0.1445 -1.0598,-0.132 -1.0533,-0.1225 -1.0673,-0.117 -1.0715,-0.1039 -1.0582,-0.0855 -1.0971,-0.0627 -1.1308,-0.0748 -1.1179,-0.0436 -1.1064,-0.0388 -1.1442,-0.012 -1.1673,-0.0213 -1.173,-0.0417 -1.1844,-0.0487 -1.1748,-0.0597 -1.1844,-0.0788 -1.1777,-0.1081 -1.2118,-0.107 -1.2235,-0.1214 -1.2568,-0.123 -1.2706,-0.1597 -1.2805,-0.1611 -1.2687,-0.1903 -1.2448,-0.2085 -1.2559,-0.2033 -1.2495,-0.1871 -1.2586,-0.1722 -1.2512,-0.159 -1.2434,-0.1606 -1.2474,-0.1925 -1.2182,-0.2015 -1.2268,-0.209 -1.2217,-0.2142 -1.2153,-0.2017 -1.1938,-0.196 -1.1893,-0.1841 -1.1563,-0.1866 -1.1367,-0.1767 -1.1123,-0.1843 -1.1222,-0.1868 -1.08,-0.1886 -1.098,-0.1848 -1.0877,-0.1715 -1.061,-0.1641 -1.0755,-0.1507 -1.0475,-0.1498Z" fill="#e8efe2"/><path d="M-2.9925,-1.4517 -2.9447,-1.4388 -2.9615,-1.4253 -2.9983,-1.4431 -2.9925,-1.4517Z M-2.8997,-1.3303 -2.8901,-1.3138 -2.9224,-1.3243 -2.8997,-1.3303Z M-2.6686,-1.2432 -2.6567,-1.2354 -2.6873,-1.2093 -2.7002,-1.2276 -2.6686,-1.2432Z M-2.2695,-1.1816 -2.2791,-1.1473 -2.2873,-1.1591 -2.2869,-1.1879 -2.3059,-1.1717 -2.296,-1.1916 -2.3295,-1.2221 -2.3326,-1.2374 -2.3234,-1.2351 -2.3307,-1.2436 -2.3246,-1.2452 -2.3393,-1.2515 -2.3366,-1.2664 -2.3524,-1.2641 -2.3625,-1.2969 -2.3578,-1.2574 -2.3719,-1.2624 -2.3763,-1.2843 -2.3909,-1.2836 -2.3747,-1.2641 -2.3843,-1.2571 -2.44,-1.3014 -2.4258,-1.3114 -2.4335,-1.3173 -2.4508,-1.3069 -2.4681,-1.3212 -2.5159,-1.3177 -2.529,-1.3289 -2.5253,-1.3406 -2.5351,-1.3303 -2.5581,-1.3427 -2.5548,-1.3575 -2.589,-1.3546 -2.5943,-1.3342 -2.5824,-1.3338 -2.5913,-1.3159 -2.6075,-1.3208 -2.6347,-1.2907 -2.652,-1.2918 -2.6363,-1.309 -2.6503,-1.3093 -2.6417,-1.3424 -2.6019,-1.3481 -2.6189,-1.3585 -2.608,-1.3705 -2.6709,-1.3275 -2.6639,-1.3184 -2.6909,-1.288 -2.678,-1.2741 -2.7663,-1.1869 -2.8191,-1.1732 -2.8508,-1.1494 -2.8222,-1.1822 -2.7976,-1.1791 -2.7978,-1.1948 -2.7482,-1.2331 -2.7508,-1.2508 -2.7435,-1.2554 -2.7492,-1.2631 -2.7369,-1.287 -2.7609,-1.2694 -2.766,-1.2805 -2.759,-1.2819 -2.7718,-1.2816 -2.7742,-1.2624 -2.7988,-1.2843 -2.8299,-1.2704 -2.8212,-1.2863 -2.8348,-1.3268 -2.8267,-1.3417 -2.8374,-1.3166 -2.8608,-1.3103 -2.8859,-1.336 -2.8552,-1.3488 -2.8817,-1.3499 -2.8775,-1.3564 -2.9002,-1.376 -2.876,-1.407 -2.8695,-1.4353 -2.8499,-1.4287 -2.8088,-1.4525 -2.8185,-1.4832 -2.8081,-1.4982 -2.8416,-1.4807 -2.8997,-1.4892 -2.9135,-1.5131 -2.9,-1.5185 -2.9337,-1.5341 -2.8704,-1.5742 -2.8561,-1.5733 -2.8629,-1.558 -2.8571,-1.552 -2.8105,-1.5567 -2.8337,-1.5901 -2.7965,-1.5667 -2.911,-1.6548 -2.9009,-1.6802 -2.8543,-1.6939 -2.8253,-1.7524 -2.7934,-1.766 -2.7903,-1.7498 -2.7819,-1.7623 -2.7939,-1.7681 -2.7869,-1.7765 -2.7309,-1.8099 -2.7154,-1.7942 -2.7222,-1.7792 -2.7082,-1.7931 -2.6581,-1.7797 -2.6519,-1.7586 -2.4997,-1.7416 -2.4609,-1.7177 -2.4609,-1.3275 -2.4274,-1.3289 -2.3988,-1.2792 -2.3646,-1.3097 -2.3283,-1.2627 -2.3007,-1.2036 -2.2695,-1.1816Z M-2.8533,-1.1536 -2.8463,-1.1442 -2.878,-1.1403 -2.8533,-1.1536Z M-2.3277,-1.2167 -2.3204,-1.2128 -2.325,-1.1995 -2.3384,-1.217 -2.3277,-1.2167Z M-2.3557,-1.2279 -2.3506,-1.1919 -2.364,-1.2247 -2.3703,-1.217 -2.3647,-1.2335 -2.3557,-1.2279Z M-2.3506,-1.2544 -2.3356,-1.237 -2.3442,-1.2501 -2.3372,-1.2279 -2.3478,-1.218 -2.3548,-1.2607 -2.3506,-1.2544Z M-2.3689,-1.2571 -2.3553,-1.2498 -2.3621,-1.2416 -2.355,-1.2322 -2.3721,-1.2312 -2.3836,-1.2482 -2.3689,-1.2571Z M-2.3312,-1.1957 -2.3068,-1.1689 -2.3148,-1.1686 -2.3035,-1.1606 -2.3042,-1.146 -2.3332,-1.1785 -2.3255,-1.1826 -2.3342,-1.1838 -2.3312,-1.1957Z M-2.6602,-1.2611 -2.6526,-1.2571 -2.677,-1.2521 -2.6602,-1.2611Z M-2.9315,-1.105 -2.9512,-1.0899 -2.9315,-1.105Z M-2.9081,-1.1212 -2.9013,-1.1221 -2.9288,-1.1041 -2.9081,-1.1212Z M-3.0487,-1.0673 -3.0596,-1.0667 -3.0372,-1.0756 -3.0487,-1.0673Z M-2.7154,-0.338 -2.7236,-0.3517 -2.7197,-0.3616 -2.7018,-0.3475 -2.7154,-0.338Z M-1.3039,-0.8814 -1.2369,-0.8881 -1.2085,-0.9435 -1.1835,-0.9337 -1.1833,-0.8995 -1.1692,-0.8772 -1.1961,-0.8632 -1.2001,-0.8708 -1.2249,-0.8513 -1.2401,-0.8169 -1.2209,-0.8017 -1.246,-0.8045 -1.2483,-0.7947 -1.2914,-0.7801 -1.291,-0.7917 -1.2929,-0.7581 -1.3053,-0.7403 -1.3181,-0.7513 -1.3102,-0.7625 -1.3193,-0.7547 -1.3097,-0.7275 -1.3252,-0.6993 -1.3205,-0.7169 -1.3324,-0.7338 -1.3242,-0.7518 -1.3364,-0.7464 -1.3324,-0.72 -1.3479,-0.7271 -1.3444,-0.7378 -1.3484,-0.7313 -1.331,-0.7156 -1.3458,-0.7218 -1.3313,-0.6971 -1.3483,-0.7032 -1.3265,-0.694 -1.3182,-0.6704 -1.3256,-0.6886 -1.3233,-0.6767 -1.3392,-0.6792 -1.3219,-0.6693 -1.3294,-0.6603 -1.3446,-0.6642 -1.3341,-0.6494 -1.3511,-0.6471 -1.3601,-0.6304 -1.4102,-0.5993 -1.4217,-0.5722 -1.3971,-0.486 -1.4046,-0.4553 -1.4156,-0.4536 -1.4263,-0.4698 -1.4436,-0.4995 -1.4383,-0.5066 -1.4458,-0.5064 -1.4425,-0.5271 -1.4607,-0.5479 -1.4891,-0.5429 -1.494,-0.5552 -1.5219,-0.5562 -1.5184,-0.5608 -1.5361,-0.5539 -1.5361,-0.5633 -1.5766,-0.555 -1.5603,-0.5503 -1.5659,-0.5417 -1.5537,-0.5332 -1.56,-0.5289 -1.5736,-0.5401 -1.5745,-0.5312 -1.5882,-0.533 -1.6038,-0.5461 -1.6102,-0.5405 -1.6378,-0.5489 -1.6539,-0.5368 -1.6584,-0.5433 -1.6628,-0.5285 -1.6867,-0.5235 -1.6828,-0.5185 -1.6958,-0.5122 -1.7006,-0.4962 -1.7064,-0.4987 -1.6996,-0.4677 -1.7298,-0.479 -1.7368,-0.5005 -1.7705,-0.5449 -1.7909,-0.5443 -1.8022,-0.5293 -1.8221,-0.5407 -1.8322,-0.5624 -1.8579,-0.5853 -1.938,-0.5761 -2.0022,-0.6049 -2.0443,-0.601 -2.0684,-0.6321 -2.1056,-0.6439 -2.138,-0.7078 -2.1305,-0.7065 -2.1347,-0.7182 -2.1211,-0.7193 -2.1468,-0.7178 -2.1705,-0.7714 -2.1654,-0.7965 -2.1736,-0.8283 -2.164,-0.9118 -2.1506,-0.91 -2.1654,-0.9133 -2.1614,-0.9306 -2.1766,-0.9674 -2.1429,-0.9611 -2.1492,-0.9409 -2.1386,-0.9554 -2.1473,-0.9352 -2.1415,-0.9344 -2.1335,-0.9577 -2.1431,-0.9835 -1.6609,-0.9835 -1.657,-0.9932 -1.6514,-0.9769 -1.5973,-0.959 -1.5425,-0.9653 -1.4683,-0.9197 -1.4408,-0.89 -1.4336,-0.8465 -1.4512,-0.8125 -1.4432,-0.8017 -1.3795,-0.8281 -1.3762,-0.8467 -1.3408,-0.848 -1.3039,-0.8814Z M-1.2655,-0.7856 -1.2549,-0.7873 -1.2921,-0.7776 -1.2655,-0.7856Z M-1.6959,-0.4733 -1.6998,-0.4936 -1.6959,-0.4733Z" fill="#e8efe2"/><path d="M-0.9453,-0.0937 -0.9503,-0.0784 -0.9423,-0.0627 -0.9495,-0.0429 -0.977,-0.044 -0.9767,-0.0325 -0.9896,-0.0356 -1.0128,-0.0699 -1.0102,-0.0853 -1.0006,-0.0877 -0.9943,-0.1047 -0.9488,-0.1033 -0.9453,-0.0937Z" fill="#e8efe2"/><path d="M-1.3504,-0.1517 -1.3474,-0.1396 -1.3596,-0.1265 -1.3687,-0.1411 -1.3572,-0.1424 -1.3804,-0.1577 -1.4043,-0.1438 -1.3964,-0.1313 -1.408,-0.1265 -1.4148,-0.1383 -1.4184,-0.1336 -1.4265,-0.1426 -1.4491,-0.1461 -1.4451,-0.1682 -1.4198,-0.1538 -1.3807,-0.1673 -1.3504,-0.1517Z" fill="#e8efe2"/><path d="M-1.4514,-0.2647 -1.4628,-0.1886 -1.4964,-0.1942 -1.5301,-0.2271 -1.5177,-0.2298 -1.5142,-0.2423 -1.4963,-0.2443 -1.4834,-0.2603 -1.4514,-0.2647Z" fill="#e8efe2"/><path d="M0.1045,-1.0312 0.0878,-1.0512 0.0602,-1.0532 0.0745,-1.0512 0.0689,-1.0608 0.0833,-1.0931 0.119,-1.1077 0.1257,-1.103 0.1168,-1.0813 0.1225,-1.0738 0.1038,-1.0605 0.1045,-1.0312Z" fill="#e8efe2"/><path d="M-2.0443,-0.601 -2.0022,-0.6049 -1.938,-0.5761 -1.8579,-0.5853 -1.8322,-0.5624 -1.8221,-0.5407 -1.8022,-0.5293 -1.7909,-0.5443 -1.7705,-0.5449 -1.7368,-0.5005 -1.7298,-0.479 -1.6956,-0.4694 -1.708,-0.4055 -1.6741,-0.3345 -1.6502,-0.3226 -1.6134,-0.332 -1.5975,-0.3279 -1.5837,-0.3443 -1.5769,-0.3752 -1.5207,-0.3866 -1.5144,-0.3778 -1.5305,-0.3497 -1.5324,-0.3261 -1.5364,-0.3349 -1.5561,-0.316 -1.5881,-0.3162 -1.5881,-0.3057 -1.5954,-0.3059 -1.5787,-0.2842 -1.6012,-0.2842 -1.6099,-0.2567 -1.6471,-0.288 -1.6406,-0.2833 -1.6563,-0.2906 -1.6844,-0.2766 -1.8054,-0.3255 -1.841,-0.356 -1.8363,-0.3842 -1.8464,-0.4057 -1.8858,-0.4522 -1.9076,-0.463 -1.9073,-0.4805 -1.9576,-0.5297 -1.9731,-0.5732 -2.0059,-0.588 -1.9993,-0.5497 -1.9473,-0.484 -1.9314,-0.4382 -1.9097,-0.4218 -1.9167,-0.4111 -1.956,-0.4478 -1.9577,-0.4685 -1.975,-0.4887 -1.9827,-0.4842 -2.007,-0.5043 -1.9909,-0.5031 -1.9905,-0.5179 -2.0188,-0.5445 -2.0443,-0.601Z" fill="#e8efe2"/><path d="M-1.3484,-0.3279 -1.3301,-0.3178 -1.3474,-0.3141 -1.3673,-0.3248 -1.3484,-0.3279Z" fill="#e8efe2"/><path d="M-1.4514,-0.2647 -1.4834,-0.2603 -1.4963,-0.2443 -1.5142,-0.2423 -1.5195,-0.2287 -1.5326,-0.236 -1.5324,-0.2448 -1.5596,-0.2544 -1.5558,-0.2661 -1.5307,-0.2813 -1.483,-0.2828 -1.4514,-0.2647Z" fill="#e8efe2"/><path d="M-1.2528,-0.3512 -1.2526,-0.3202 -1.2996,-0.3266 -1.2633,-0.3299 -1.2797,-0.3536 -1.2528,-0.3512Z" fill="#e8efe2"/><path d="M-1.0601,-0.0909 -1.0715,-0.1039 -1.0673,-0.117 -1.0533,-0.1225 -1.0598,-0.132 -1.0446,-0.1445 -1.0475,-0.1498 -1.0212,-0.1295 -1.024,-0.1118 -1.0175,-0.1204 -0.9989,-0.1081 -0.9985,-0.0909 -1.0102,-0.0853 -1.0132,-0.0716 -0.9858,-0.0339 -1.0338,-0.0241 -1.047,-0.047 -1.042,-0.0765 -1.0498,-0.0791 -1.0496,-0.0916 -1.0601,-0.0909Z" fill="#e8efe2"/><path d="M-1.6099,-0.2567 -1.6012,-0.2842 -1.5787,-0.2842 -1.5954,-0.3059 -1.5881,-0.3057 -1.5881,-0.3162 -1.5561,-0.316 -1.5575,-0.281 -1.5399,-0.2781 -1.5563,-0.2578 -1.5725,-0.2421 -1.6099,-0.2567Z" fill="#e8efe2"/><path d="M0.1655,-0.8283 0.1604,-0.7947 0.1496,-0.8176 0.1655,-0.8283Z M0.133,-0.9468 0.1216,-0.9432 0.1042,-0.9116 0.1183,-0.9166 0.1248,-0.8908 0.1157,-0.8831 0.1204,-0.8652 0.1339,-0.8598 0.1307,-0.8513 0.1068,-0.8345 0.0682,-0.8463 0.0532,-0.8309 0.056,-0.8193 0.0354,-0.8174 -0.0255,-0.834 -0.0312,-0.8427 -0.0188,-0.8945 -0.0096,-0.8814 -0.0201,-0.9141 -0.036,-0.9268 -0.0384,-0.9357 -0.0304,-0.9373 -0.0752,-0.9528 -0.0817,-0.9585 -0.074,-0.9653 -0.0831,-0.9693 -0.0241,-0.9745 -0.0325,-1.002 0.0073,-0.9958 0.0033,-1.0026 0.0278,-1.0175 0.0291,-1.0351 0.044,-1.0409 0.0724,-1.0099 0.0848,-1.0145 0.0962,-0.9974 0.1419,-0.983 0.133,-0.9468Z M-0.9533,-0.0407 -0.9427,-0.0603 -0.9509,-0.0846 -0.9411,-0.1009 -0.9233,-0.0949 -0.9076,-0.076 -0.9046,-0.0811 -0.9015,-0.0709 -0.9198,-0.0412 -0.9533,-0.0407Z" fill="#e8efe2"/><path d="M-1.5596,-0.2544 -1.5312,-0.2439 -1.5327,-0.2341 -1.5725,-0.2421 -1.5596,-0.2544Z" fill="#e8efe2"/><path d="M-1.2526,-0.3202 -1.249,-0.3545 -1.221,-0.3503 -1.1928,-0.3307 -1.1989,-0.3233 -1.2397,-0.3244 -1.2469,-0.3129 -1.2526,-0.3202Z" fill="#e8efe2"/><path d="M-1.4284,-0.4157 -1.3931,-0.4106 -1.2942,-0.3595 -1.3565,-0.3538 -1.3479,-0.3683 -1.3635,-0.3705 -1.3741,-0.3861 -1.4286,-0.3977 -1.4294,-0.4066 -1.4816,-0.3911 -1.4668,-0.4064 -1.4284,-0.4157Z" fill="#e8efe2"/><path d="M-1.4409,-0.168 -1.4476,-0.1657 -1.4465,-0.1413 -1.4841,-0.1776 -1.4854,-0.168 -1.4944,-0.1737 -1.4994,-0.1914 -1.4598,-0.1918 -1.4409,-0.168Z" fill="#e8efe2"/><path d="M-1.2448,-0.2085 -1.2687,-0.1903 -1.2805,-0.1611 -1.2706,-0.1597 -1.2568,-0.123 -1.2235,-0.1214 -1.2118,-0.107 -1.1777,-0.1081 -1.1844,-0.0788 -1.1748,-0.0597 -1.1844,-0.0487 -1.173,-0.0417 -1.1673,-0.0237 -1.1764,-0.037 -1.2191,-0.0298 -1.2191,-0.0185 -1.2069,-0.0115 -1.2226,-0.0101 -1.2113,0.0208 -1.2212,0.0741 -1.2346,0.066 -1.2235,0.0464 -1.2387,0.0386 -1.273,0.0417 -1.3055,0.0035 -1.3509,-0.0068 -1.3793,-0.0283 -1.3453,-0.0683 -1.353,-0.0735 -1.3504,-0.1151 -1.3596,-0.1265 -1.3474,-0.1396 -1.3518,-0.1501 -1.3402,-0.1388 -1.342,-0.151 -1.3202,-0.1657 -1.3214,-0.1779 -1.3062,-0.1951 -1.2985,-0.1891 -1.294,-0.1989 -1.2795,-0.1985 -1.2516,-0.2185 -1.2437,-0.2171 -1.2448,-0.2085Z" fill="#e8efe2"/><path d="M-1.5561,-0.316 -1.5382,-0.3259 -1.5413,-0.2944 -1.5514,-0.281 -1.5575,-0.281 -1.5561,-0.316Z" fill="#e8efe2"/><path d="M-1.3479,-0.4683 -1.3481,-0.4811 -1.3603,-0.4878 -1.3451,-0.4805 -1.3479,-0.4683Z M-1.3699,-0.4844 -1.36,-0.4837 -1.3786,-0.4837 -1.3699,-0.4844Z" fill="#e8efe2"/><path d="M-1.1449,-0.3268 -1.1083,-0.3323 -1.0769,-0.3213 -1.042,-0.2648 -1.0332,-0.2253 -1.0507,-0.2003 -1.0647,-0.1683 -1.0751,-0.1737 -1.0786,-0.1719 -1.0769,-0.1683 -1.0821,-0.1754 -1.0873,-0.1719 -1.0978,-0.1843 -1.0804,-0.1878 -1.1153,-0.1878 -1.1222,-0.1861 -1.1135,-0.1825 -1.1205,-0.1843 -1.1327,-0.1772 -1.1467,-0.179 -1.1537,-0.1861 -1.1886,-0.1843 -1.1938,-0.1967 -1.2147,-0.2021 -1.2217,-0.2146 -1.227,-0.2092 -1.2252,-0.2039 -1.2182,-0.2056 -1.22,-0.2003 -1.2479,-0.1932 -1.2497,-0.1878 -1.2566,-0.2039 -1.2409,-0.211 -1.2514,-0.2181 -1.2793,-0.1985 -1.295,-0.1985 -1.2985,-0.1896 -1.2968,-0.1932 -1.3073,-0.195 -1.3212,-0.179 -1.3177,-0.179 -1.3195,-0.1666 -1.3265,-0.1648 -1.3404,-0.1507 -1.3491,-0.1489 -1.3579,-0.1595 -1.3858,-0.1683 -1.4155,-0.1542 -1.4224,-0.1542 -1.4277,-0.1595 -1.4277,-0.156 -1.4329,-0.156 -1.4643,-0.1985 -1.4608,-0.2039 -1.4626,-0.2199 -1.4591,-0.2235 -1.4573,-0.2181 -1.4591,-0.2342 -1.4521,-0.2522 -1.4556,-0.263 -1.4521,-0.2648 -1.4591,-0.2721 -1.4573,-0.2685 -1.4678,-0.2721 -1.4626,-0.2721 -1.4748,-0.2811 -1.501,-0.283 -1.5167,-0.2793 -1.5411,-0.3066 -1.5376,-0.3213 -1.5411,-0.3286 -1.5359,-0.3342 -1.5376,-0.3286 -1.5324,-0.3268 -1.5272,-0.3434 -1.5307,-0.3453 -1.5254,-0.3471 -1.5307,-0.349 -1.5149,-0.375 -1.5184,-0.3863 -1.4661,-0.3919 -1.4643,-0.3975 -1.4556,-0.3975 -1.4451,-0.407 -1.4277,-0.407 -1.4259,-0.4032 -1.4329,-0.4013 -1.4277,-0.3975 -1.4172,-0.3957 -1.4172,-0.3994 -1.3945,-0.3881 -1.3736,-0.3863 -1.3701,-0.375 -1.3456,-0.3657 -1.3561,-0.3545 -1.309,-0.3545 -1.2933,-0.3601 -1.2689,-0.3453 -1.2706,-0.3397 -1.2619,-0.3323 -1.2689,-0.3268 -1.2968,-0.3323 -1.3003,-0.3268 -1.2898,-0.3195 -1.2811,-0.325 -1.2549,-0.3231 -1.2462,-0.3121 -1.2409,-0.325 -1.2025,-0.3268 -1.199,-0.3231 -1.1921,-0.3305 -1.1729,-0.3268 -1.1729,-0.3195 -1.1676,-0.3176 -1.1537,-0.3176 -1.1449,-0.3268Z M-1.0402,-0.2324 -1.0367,-0.2324 -1.0402,-0.2324Z M-1.0681,-0.2612 -1.0612,-0.254 -1.0629,-0.2612 -1.0681,-0.2612Z M-1.0664,-0.2432 -1.0629,-0.2432 -1.0629,-0.2486 -1.0664,-0.2432Z M-1.0734,-0.1896 -1.0769,-0.1878 -1.0734,-0.1878 -1.0734,-0.1807 -1.0804,-0.1772 -1.0647,-0.1772 -1.0629,-0.1896 -1.0734,-0.1896Z M-1.0734,-0.2902 -1.0734,-0.2866 -1.0681,-0.2884 -1.0734,-0.2902Z M-1.0734,-0.2739 -1.0699,-0.2685 -1.0699,-0.2757 -1.0734,-0.2739Z M-1.0751,-0.2884 -1.0786,-0.2884 -1.0769,-0.283 -1.0751,-0.2884Z M-1.1153,-0.1967 -1.124,-0.1932 -1.1153,-0.1914 -1.1153,-0.1967Z M-1.2078,-0.2163 -1.2008,-0.211 -1.2008,-0.2146 -1.2078,-0.2163Z M-1.2758,-0.3342 -1.2706,-0.3323 -1.2793,-0.3379 -1.2758,-0.3342Z M-1.3614,-0.3286 -1.3666,-0.3231 -1.3614,-0.3231 -1.3579,-0.3176 -1.3474,-0.314 -1.3422,-0.3195 -1.3299,-0.3176 -1.3317,-0.3231 -1.3614,-0.3286Z M-1.4504,-0.39 -1.4486,-0.3825 -1.4416,-0.3863 -1.4434,-0.3919 -1.4504,-0.39Z M-1.5184,-0.3638 -1.5149,-0.3675 -1.5184,-0.3638Z" fill="#e8453c" fill-opacity="0.5" stroke="#e8453c" stroke-width="0.0018"/></g></svg>