<svg xmlns="http://www.w3.org/2000/svg" viewBox="2.327 0.027 0.801 0.674" preserveAspectRatio="xMidYMid meet"><rect x="2.327" y="0.027" width="0.801" height="0.674" fill="#a9d2ea"/><g stroke="#7e96a9" stroke-width="0.0020" stroke-linejoin="round"><path d="M2.7882,0.1625 2.8068,0.1729 2.7899,0.1717 2.7882,0.1625Z M2.7904,0.1494 2.7656,0.132 2.7904,0.1494Z M2.7487,0.1283 2.7306,0.1162 2.7487,0.1283Z M2.8056,0.1455 2.8164,0.1685 2.8056,0.1455Z M2.8225,0.1823 2.8339,0.19 2.8152,0.179 2.8225,0.1823Z" fill="#e8efe2"/><path d="M2.6698,0.0832 2.6578,0.0625 2.6325,0.0449 2.6707,0.0718 2.6698,0.0832Z M2.6515,0.0751 2.6601,0.0758 2.6543,0.0954 2.6255,0.1098 2.589,0.0991 2.615,0.0965 2.6196,0.0876 2.6211,0.0965 2.6337,0.0953 2.6471,0.0853 2.6457,0.0734 2.6515,0.0751Z M2.4606,0.1599 2.4627,0.0456 2.5217,0.0669 2.5442,0.0842 2.5438,0.0944 2.5747,0.1053 2.5805,0.1165 2.5648,0.1195 2.569,0.1292 2.5932,0.1586 2.604,0.1583 2.6157,0.1756 2.6328,0.1797 2.6236,0.187 2.5791,0.1767 2.5496,0.142 2.5072,0.1306 2.5122,0.139 2.5065,0.1436 2.482,0.1436 2.5023,0.157 2.4897,0.1636 2.4606,0.1599Z M2.722,0.117 2.7112,0.1176 2.7005,0.0951 2.722,0.117Z" fill="#e8efe2"/><path d="M3.0215,0.7924 3.0433,0.7882 3.0407,0.8056 3.0112,0.8439 3.0206,0.8538 3.0027,0.8496 2.9887,0.8632 2.9807,0.903 2.9514,0.9222 2.9058,0.9053 2.9386,0.8588 2.9847,0.8302 3.0067,0.7803 3.0184,0.7748 3.0215,0.7924Z M3.0241,0.6513 3.0425,0.6582 3.0494,0.6925 3.0638,0.7004 3.0624,0.6847 3.0737,0.7103 3.092,0.7178 3.1161,0.7111 3.1051,0.7457 3.0906,0.7452 3.0864,0.7666 3.0597,0.8 3.048,0.793 3.0571,0.7654 3.0327,0.7475 3.0473,0.7356 3.0531,0.7136 3.0472,0.6982 3.0531,0.6977 3.0144,0.6414 3.0241,0.6513Z" fill="#e8efe2"/><path d="M2.015,0.1429 2.0193,0.1473 2.0096,0.1551 1.9979,0.1431 2.015,0.1429Z M1.8509,0.0292 1.8644,0.0449 1.8617,0.0536 1.8349,0.0356 1.8406,0.0274 1.8509,0.0292Z M2.1499,0.0795 2.1501,0.0932 2.1406,0.0989 2.1499,0.0795Z M2.3628,0.0113 2.3803,0.019 2.3628,0.0113Z M2.3644,0.0278 2.3892,0.0314 2.3644,0.0278Z M2.2831,0.0 2.2923,0.0051 2.2731,0.0037 2.2831,0.0Z M2.2131,0.1343 2.1956,0.1397 2.2131,0.1343Z M1.6841,-0.0914 1.7026,-0.0911 1.7544,-0.0382 1.7637,-0.0395 1.7982,-0.0101 1.7898,-0.0038 1.8094,-0.0051 1.8054,0.0101 1.8218,0.0187 1.8265,0.0454 1.8396,0.0416 1.8511,0.0552 1.8457,0.1018 1.8263,0.0965 1.8256,0.1032 1.7729,0.0554 1.7209,-0.0325 1.7052,-0.0412 1.6619,-0.0965 1.6841,-0.0914Z M2.1429,0.1508 2.0911,0.1524 2.105,0.1443 2.1349,0.1512 2.1441,0.1417 2.1429,0.1508Z M2.0946,0.1643 2.1066,0.1791 2.0762,0.1669 2.0946,0.1643Z M2.0637,0.1457 2.0792,0.1519 2.0384,0.1579 2.0448,0.1466 2.059,0.153 2.0553,0.1427 2.0637,0.1457Z M2.1797,-0.0175 2.168,-0.0066 2.0977,-0.0047 2.0954,0.0098 2.1061,0.0239 2.122,0.0145 2.1543,0.0136 2.1181,0.0328 2.1445,0.0767 2.1221,0.0832 2.1227,0.0714 2.1099,0.0615 2.1127,0.048 2.1057,0.0466 2.0988,0.0533 2.1019,0.0977 2.0867,0.0981 2.0878,0.0704 2.0731,0.0475 2.0991,-0.0169 2.1132,-0.0232 2.163,-0.0148 2.1836,-0.0295 2.1797,-0.0175Z M1.874,0.1051 1.8986,0.1191 1.9274,0.1216 1.9343,0.1123 1.9642,0.1212 1.9724,0.1341 1.9968,0.1364 2.0001,0.153 1.8836,0.1351 1.8371,0.1197 1.8514,0.1033 1.874,0.1051Z M1.9134,-0.0354 1.9288,-0.015 1.9631,-0.0272 1.9986,-0.0253 2.019,-0.0732 2.0438,-0.0758 2.0556,-0.0644 2.0431,-0.0632 2.0607,-0.0405 2.0558,-0.0354 2.0766,-0.0171 2.0579,-0.0192 2.0518,0.0134 2.0295,0.0311 2.0291,0.0547 2.0017,0.0728 1.9956,0.0566 1.9846,0.0604 1.9727,0.0512 1.9523,0.062 1.9494,0.0505 1.9244,0.0519 1.9195,0.0222 1.9069,0.0141 1.9014,-0.0063 1.9038,-0.0262 1.9134,-0.0354Z M2.2293,-0.0148 2.2461,-0.0274 2.2386,-0.0127 2.2497,-0.0038 2.2321,-0.0052 2.2415,0.0155 2.2286,0.0042 2.2241,-0.0199 2.2347,-0.0384 2.2293,-0.0148Z M2.2646,0.0501 2.2789,0.0547 2.2831,0.0674 2.2661,0.0582 2.2363,0.0552 2.2323,0.0611 2.2375,0.0501 2.2646,0.0501Z M2.2141,0.054 2.2208,0.0606 2.2155,0.0657 2.1996,0.0587 2.2141,0.054Z M2.1803,0.1567 2.181,0.1696 2.1579,0.1809 2.1591,0.1685 2.1803,0.1567Z M2.418,0.1448 2.4024,0.147 2.41,0.1325 2.422,0.1293 2.418,0.1448Z M2.4604,0.0456 2.4606,0.1599 2.4456,0.1387 2.4241,0.1443 2.4216,0.1269 2.4291,0.1258 2.419,0.1214 2.4145,0.0993 2.396,0.0865 2.3382,0.0667 2.3359,0.0533 2.3197,0.0709 2.3169,0.0575 2.3033,0.0487 2.3335,0.0457 2.3373,0.0367 2.3092,0.0391 2.3026,0.0272 2.2864,0.0241 2.3106,0.0063 2.3382,0.0129 2.3421,0.0403 2.3606,0.0589 2.4052,0.0258 2.4604,0.0456Z M1.9869,0.1244 1.9675,0.1237 1.9869,0.1244Z" fill="#e8efe2"/><path d="M3.1416,0.286 3.1339,0.2946 3.1404,0.2964 3.1154,0.2973 3.1416,0.286Z M3.1116,0.3079 3.1184,0.3209 3.0948,0.3209 3.098,0.311 3.1116,0.3079Z" fill="#e8efe2"/><path d="M2.499,0.2101 2.5091,0.2531 2.5215,0.251 2.5358,0.2638 2.5548,0.3375 2.5964,0.3618 2.6128,0.4021 2.6297,0.4017 2.6327,0.4214 2.6731,0.4694 2.6812,0.5227 2.6693,0.5783 2.6405,0.6228 2.6168,0.7076 2.581,0.7164 2.552,0.7342 2.5552,0.7437 2.5391,0.7233 2.5258,0.7255 2.5288,0.7158 2.5052,0.7363 2.4682,0.726 2.4396,0.7015 2.4387,0.6823 2.4255,0.6652 2.4309,0.661 2.4117,0.6659 2.4175,0.6533 2.4101,0.6352 2.4031,0.6558 2.389,0.658 2.4073,0.6228 2.4047,0.602 2.3953,0.6239 2.3675,0.6516 2.3428,0.6014 2.2888,0.5798 2.1977,0.5962 2.1684,0.6111 2.1557,0.63 2.0918,0.631 2.0522,0.655 2.0073,0.6371 2.007,0.6216 2.019,0.6147 2.0193,0.5837 1.9754,0.4737 1.9869,0.4799 1.9801,0.4625 1.9935,0.4759 1.9794,0.4365 1.99,0.3915 1.9921,0.4028 2.037,0.3685 2.1118,0.349 2.1354,0.3215 2.1351,0.3023 2.1462,0.291 2.1565,0.3107 2.1574,0.287 2.1776,0.2902 2.1712,0.2884 2.1719,0.2737 2.1827,0.2728 2.1789,0.2677 2.1879,0.267 2.1927,0.2515 2.1972,0.258 2.2,0.2465 2.2246,0.2474 2.2375,0.2603 2.2352,0.2708 2.2441,0.2607 2.2625,0.2674 2.2663,0.2618 2.2581,0.2538 2.2797,0.2187 2.3162,0.2131 2.3031,0.1964 2.3567,0.2144 2.3717,0.2078 2.3684,0.2147 2.377,0.2188 2.3831,0.2103 2.3902,0.2172 2.3817,0.233 2.3724,0.2342 2.364,0.2634 2.4304,0.3072 2.4524,0.3125 2.4681,0.2842 2.473,0.2172 2.4864,0.188 2.499,0.2101Z M2.6718,0.4654 2.6749,0.4457 2.6718,0.4654Z M2.2797,0.1999 2.2958,0.201 2.2855,0.2097 2.2756,0.1966 2.2797,0.1999Z M2.4016,0.6687 2.4106,0.671 2.3831,0.6719 2.4016,0.6687Z M2.5314,0.781 2.5538,0.7896 2.5869,0.7824 2.5827,0.8367 2.5709,0.8278 2.5634,0.8475 2.5489,0.846 2.5269,0.7956 2.5258,0.7783 2.5314,0.781Z" fill="#e8efe2"/><path d="M2.9583,0.349 2.9636,0.362 2.9217,0.4032 2.9234,0.407 2.7751,0.5293 2.7751,0.5473 2.6756,0.5473 2.6808,0.5133 2.6721,0.4936 2.6738,0.4702 2.6686,0.4586 2.6477,0.4317 2.632,0.4222 2.6302,0.4013 2.6267,0.4051 2.618,0.3975 2.618,0.4051 2.611,0.3994 2.6093,0.3863 2.5953,0.3675 2.5988,0.3657 2.5936,0.3582 2.5552,0.3379 2.5482,0.325 2.5464,0.2993 2.5377,0.2902 2.536,0.263 2.5237,0.2558 2.522,0.2504 2.5133,0.2558 2.5098,0.254 2.5063,0.2468 2.5045,0.2271 2.4923,0.1985 2.4976,0.1595 2.5028,0.156 2.5587,0.156 2.5796,0.1772 2.6128,0.1807 2.618,0.1861 2.6302,0.1861 2.6407,0.1932 2.6738,0.1967 2.6773,0.2039 2.7925,0.2021 2.803,0.2074 2.8327,0.1878 2.9182,0.1737 2.9217,0.2522 2.9339,0.263 2.9356,0.2848 2.9304,0.2866 2.9356,0.2884 2.9374,0.2957 2.9339,0.2939 2.9391,0.3121 2.9356,0.314 2.9514,0.3305 2.9531,0.3471 2.9583,0.349Z M2.9322,0.3863 2.9322,0.3806 2.9287,0.3825 2.9322,0.3863Z M2.9269,0.2739 2.9322,0.2703 2.9269,0.2739Z M2.9182,0.2848 2.9217,0.2939 2.9287,0.292 2.9199,0.2811 2.9182,0.2848Z M2.9182,0.3694 2.9147,0.3731 2.9217,0.3788 2.9182,0.3694Z M2.9112,0.2757 2.9182,0.2739 2.9164,0.263 2.9112,0.2685 2.9077,0.2576 2.9077,0.2721 2.9112,0.2757Z M2.8641,0.3582 2.878,0.3806 2.906,0.3994 2.9147,0.3994 2.8868,0.3769 2.885,0.3713 2.8641,0.3582Z M2.8972,0.1896 2.9007,0.1878 2.8938,0.1896 2.8972,0.1896Z M2.6704,0.4605 2.6721,0.4663 2.6773,0.4509 2.6756,0.4451 2.6721,0.447 2.6704,0.4605Z M2.6389,0.426 2.6354,0.4222 2.6389,0.426Z" fill="#e8453c" fill-opacity="0.5" stroke="#e8453c" stroke-width="0.0020"/></g></svg>