<svg xmlns="http://www.w3.org/2000/svg" viewBox="2.007 -0.703 0.350 0.352" preserveAspectRatio="xMidYMid meet"><rect x="2.007" y="-0.703" width="0.350" height="0.352" fill="#a9d2ea"/><g stroke="#7e96a9" stroke-width="0.0009" stroke-linejoin="round"><path d="M-2.9925,-1.4517 -2.9447,-1.4388 -2.9615,-1.4253 -2.9983,-1.4431 -2.9925,-1.4517Z M-2.8997,-1.3303 -2.8901,-1.3138 -2.9224,-1.3243 -2.8997,-1.3303Z M-2.6686,-1.2432 -2.6567,-1.2354 -2.6873,-1.2093 -2.7002,-1.2276 -2.6686,-1.2432Z M-2.2695,-1.1816 -2.2791,-1.1473 -2.2873,-1.1591 -2.2869,-1.1879 -2.3059,-1.1717 -2.296,-1.1916 -2.3295,-1.2221 -2.3326,-1.2374 -2.3234,-1.2351 -2.3307,-1.2436 -2.3246,-1.2452 -2.3393,-1.2515 -2.3366,-1.2664 -2.3524,-1.2641 -2.3625,-1.2969 -2.3578,-1.2574 -2.3719,-1.2624 -2.3763,-1.2843 -2.3909,-1.2836 -2.3747,-1.2641 -2.3843,-1.2571 -2.44,-1.3014 -2.4258,-1.3114 -2.4335,-1.3173 -2.4508,-1.3069 -2.4681,-1.3212 -2.5159,-1.3177 -2.529,-1.3289 -2.5253,-1.3406 -2.5351,-1.3303 -2.5581,-1.3427 -2.5548,-1.3575 -2.589,-1.3546 -2.5943,-1.3342 -2.5824,-1.3338 -2.5913,-1.3159 -2.6075,-1.3208 -2.6347,-1.2907 -2.652,-1.2918 -2.6363,-1.309 -2.6503,-1.3093 -2.6417,-1.3424 -2.6019,-1.3481 -2.6189,-1.3585 -2.608,-1.3705 -2.6709,-1.3275 -2.6639,-1.3184 -2.6909,-1.288 -2.678,-1.2741 -2.7663,-1.1869 -2.8191,-1.1732 -2.8508,-1.1494 -2.8222,-1.1822 -2.7976,-1.1791 -2.7978,-1.1948 -2.7482,-1.2331 -2.7508,-1.2508 -2.7435,-1.2554 -2.7492,-1.2631 -2.7369,-1.287 -2.7609,-1.2694 -2.766,-1.2805 -2.759,-1.2819 -2.7718,-1.2816 -2.7742,-1.2624 -2.7988,-1.2843 -2.8299,-1.2704 -2.8212,-1.2863 -2.8348,-1.3268 -2.8267,-1.3417 -2.8374,-1.3166 -2.8608,-1.3103 -2.8859,-1.336 -2.8552,-1.3488 -2.8817,-1.3499 -2.8775,-1.3564 -2.9002,-1.376 -2.876,-1.407 -2.8695,-1.4353 -2.8499,-1.4287 -2.8088,-1.4525 -2.8185,-1.4832 -2.8081,-1.4982 -2.8416,-1.4807 -2.8997,-1.4892 -2.9135,-1.5131 -2.9,-1.5185 -2.9337,-1.5341 -2.8704,-1.5742 -2.8561,-1.5733 -2.8629,-1.558 -2.8571,-1.552 -2.8105,-1.5567 -2.8337,-1.5901 -2.7965,-1.5667 -2.911,-1.6548 -2.9009,-1.6802 -2.8543,-1.6939 -2.8253,-1.7524 -2.7934,-1.766 -2.7903,-1.7498 -2.7819,-1.7623 -2.7939,-1.7681 -2.7869,-1.7765 -2.7309,-1.8099 -2.7154,-1.7942 -2.7222,-1.7792 -2.7082,-1.7931 -2.6581,-1.7797 -2.6519,-1.7586 -2.4997,-1.7416 -2.4609,-1.7177 -2.4609,-1.3275 -2.4274,-1.3289 -2.3988,-1.2792 -2.3646,-1.3097 -2.3283,-1.2627 -2.3007,-1.2036 -2.2695,-1.1816Z M-2.8533,-1.1536 -2.8463,-1.1442 -2.878,-1.1403 -2.8533,-1.1536Z M-2.3277,-1.2167 -2.3204,-1.2128 -2.325,-1.1995 -2.3384,-1.217 -2.3277,-1.2167Z M-2.3557,-1.2279 -2.3506,-1.1919 -2.364,-1.2247 -2.3703,-1.217 -2.3647,-1.2335 -2.3557,-1.2279Z M-2.3506,-1.2544 -2.3356,-1.237 -2.3442,-1.2501 -2.3372,-1.2279 -2.3478,-1.218 -2.3548,-1.2607 -2.3506,-1.2544Z M-2.3689,-1.2571 -2.3553,-1.2498 -2.3621,-1.2416 -2.355,-1.2322 -2.3721,-1.2312 -2.3836,-1.2482 -2.3689,-1.2571Z M-2.3312,-1.1957 -2.3068,-1.1689 -2.3148,-1.1686 -2.3035,-1.1606 -2.3042,-1.146 -2.3332,-1.1785 -2.3255,-1.1826 -2.3342,-1.1838 -2.3312,-1.1957Z M-2.6602,-1.2611 -2.6526,-1.2571 -2.677,-1.2521 -2.6602,-1.2611Z M-2.9315,-1.105 -2.9512,-1.0899 -2.9315,-1.105Z M-2.9081,-1.1212 -2.9013,-1.1221 -2.9288,-1.1041 -2.9081,-1.1212Z M-3.0487,-1.0673 -3.0596,-1.0667 -3.0372,-1.0756 -3.0487,-1.0673Z M-2.7154,-0.338 -2.7236,-0.3517 -2.7197,-0.3616 -2.7018,-0.3475 -2.7154,-0.338Z M-1.3039,-0.8814 -1.2369,-0.8881 -1.2085,-0.9435 -1.1835,-0.9337 -1.1833,-0.8995 -1.1692,-0.8772 -1.1961,-0.8632 -1.2001,-0.8708 -1.2249,-0.8513 -1.2401,-0.8169 -1.2209,-0.8017 -1.246,-0.8045 -1.2483,-0.7947 -1.2914,-0.7801 -1.291,-0.7917 -1.2929,-0.7581 -1.3053,-0.7403 -1.3181,-0.7513 -1.3102,-0.7625 -1.3193,-0.7547 -1.3097,-0.7275 -1.3252,-0.6993 -1.3205,-0.7169 -1.3324,-0.7338 -1.3242,-0.7518 -1.3364,-0.7464 -1.3324,-0.72 -1.3479,-0.7271 -1.3444,-0.7378 -1.3484,-0.7313 -1.331,-0.7156 -1.3458,-0.7218 -1.3313,-0.6971 -1.3483,-0.7032 -1.3265,-0.694 -1.3182,-0.6704 -1.3256,-0.6886 -1.3233,-0.6767 -1.3392,-0.6792 -1.3219,-0.6693 -1.3294,-0.6603 -1.3446,-0.6642 -1.3341,-0.6494 -1.3511,-0.6471 -1.3601,-0.6304 -1.4102,-0.5993 -1.4217,-0.5722 -1.3971,-0.486 -1.4046,-0.4553 -1.4156,-0.4536 -1.4263,-0.4698 -1.4436,-0.4995 -1.4383,-0.5066 -1.4458,-0.5064 -1.4425,-0.5271 -1.4607,-0.5479 -1.4891,-0.5429 -1.494,-0.5552 -1.5219,-0.5562 -1.5184,-0.5608 -1.5361,-0.5539 -1.5361,-0.5633 -1.5766,-0.555 -1.5603,-0.5503 -1.5659,-0.5417 -1.5537,-0.5332 -1.56,-0.5289 -1.5736,-0.5401 -1.5745,-0.5312 -1.5882,-0.533 -1.6038,-0.5461 -1.6102,-0.5405 -1.6378,-0.5489 -1.6539,-0.5368 -1.6584,-0.5433 -1.6628,-0.5285 -1.6867,-0.5235 -1.6828,-0.5185 -1.6958,-0.5122 -1.7006,-0.4962 -1.7064,-0.4987 -1.6996,-0.4677 -1.7298,-0.479 -1.7368,-0.5005 -1.7705,-0.5449 -1.7909,-0.5443 -1.8022,-0.5293 -1.8221,-0.5407 -1.8322,-0.5624 -1.8579,-0.5853 -1.938,-0.5761 -2.0022,-0.6049 -2.0443,-0.601 -2.0684,-0.6321 -2.1056,-0.6439 -2.138,-0.7078 -2.1305,-0.7065 -2.1347,-0.7182 -2.1211,-0.7193 -2.1468,-0.7178 -2.1705,-0.7714 -2.1654,-0.7965 -2.1736,-0.8283 -2.164,-0.9118 -2.1506,-0.91 -2.1654,-0.9133 -2.1614,-0.9306 -2.1766,-0.9674 -2.1429,-0.9611 -2.1492,-0.9409 -2.1386,-0.9554 -2.1473,-0.9352 -2.1415,-0.9344 -2.1335,-0.9577 -2.1431,-0.9835 -1.6609,-0.9835 -1.657,-0.9932 -1.6514,-0.9769 -1.5973,-0.959 -1.5425,-0.9653 -1.4683,-0.9197 -1.4408,-0.89 -1.4336,-0.8465 -1.4512,-0.8125 -1.4432,-0.8017 -1.3795,-0.8281 -1.3762,-0.8467 -1.3408,-0.848 -1.3039,-0.8814Z M-1.2655,-0.7856 -1.2549,-0.7873 -1.2921,-0.7776 -1.2655,-0.7856Z M-1.6959,-0.4733 -1.6998,-0.4936 -1.6959,-0.4733Z" fill="#e8efe2"/><path d="M2.2101,-0.7131 2.2405,-0.7318 2.2588,-0.6973 2.2551,-0.6567 2.2084,-0.6382 2.2042,-0.656 2.2122,-0.6715 2.2019,-0.691 2.2162,-0.6947 2.2101,-0.7131Z" fill="#e8efe2"/><path d="M2.1136,-0.3309 2.134,-0.3279 2.1384,-0.3033 2.1187,-0.2706 2.1253,-0.2499 2.1611,-0.2439 2.1564,-0.2405 2.1653,-0.2212 2.1398,-0.2452 2.1398,-0.2323 2.1255,-0.2457 2.1056,-0.2432 2.1108,-0.2585 2.1045,-0.2627 2.1021,-0.2549 2.0958,-0.2621 2.0904,-0.2877 2.1009,-0.285 2.1049,-0.3288 2.1136,-0.3309Z M2.0474,-0.1478 2.082,-0.1855 2.0857,-0.1994 2.089,-0.1843 2.0474,-0.1478Z M2.138,-0.2042 2.1495,-0.2028 2.1482,-0.1967 2.1284,-0.1832 2.1274,-0.2072 2.138,-0.2042Z M2.149,-0.1588 2.1363,-0.1722 2.1513,-0.193 2.1567,-0.1893 2.149,-0.1588Z M2.1742,-0.1992 2.1822,-0.1969 2.1822,-0.176 2.17,-0.2028 2.1742,-0.1992Z M2.1859,-0.2205 2.1946,-0.1941 2.1822,-0.1992 2.1693,-0.2212 2.1859,-0.2205Z M2.1066,-0.2375 2.1213,-0.2305 2.116,-0.2149 2.1003,-0.2362 2.1066,-0.2375Z M2.1993,-0.1634 2.2092,-0.1269 2.2024,-0.1104 2.1937,-0.1271 2.1897,-0.0989 2.1679,-0.1089 2.1679,-0.1295 2.1584,-0.1369 2.1536,-0.1297 2.1401,-0.1359 2.1286,-0.122 2.1335,-0.1392 2.1543,-0.1524 2.1607,-0.141 2.1904,-0.1579 2.1899,-0.1712 2.1993,-0.1634Z M2.1532,-0.1657 2.1649,-0.198 2.1532,-0.1657Z" fill="#e8efe2"/><path d="M2.5101,-0.8598 2.5272,-0.8554 2.5372,-0.8649 2.5332,-0.8487 2.5452,-0.8422 2.5128,-0.83 2.5,-0.8092 2.4518,-0.8224 2.4635,-0.8047 2.4442,-0.7968 2.441,-0.8229 2.4503,-0.84 2.4674,-0.8395 2.4726,-0.8913 2.5101,-0.8598Z M2.2893,-0.6233 2.2986,-0.6233 2.304,-0.6091 2.2923,-0.5777 2.281,-0.57 2.2825,-0.5841 2.2792,-0.5732 2.2715,-0.5779 2.2785,-0.6072 2.2731,-0.6145 2.2749,-0.6045 2.2649,-0.6018 2.2616,-0.6157 2.2806,-0.63 2.2893,-0.6233Z M2.345,-0.6371 2.3517,-0.6279 2.3419,-0.6159 2.3323,-0.6214 2.3178,-0.6055 2.311,-0.6197 2.3044,-0.6178 2.3202,-0.6338 2.345,-0.6371Z M2.4649,-0.7944 2.478,-0.75 2.4602,-0.7213 2.4534,-0.6792 2.4586,-0.6682 2.4496,-0.6567 2.4407,-0.6509 2.4419,-0.6672 2.4243,-0.645 2.4229,-0.655 2.4119,-0.6443 2.3921,-0.6439 2.3876,-0.6539 2.3885,-0.6384 2.3684,-0.621 2.3585,-0.6319 2.3635,-0.6448 2.3517,-0.6479 2.3092,-0.6384 2.3065,-0.6283 2.285,-0.6312 2.3199,-0.6637 2.3702,-0.6646 2.3883,-0.7043 2.397,-0.7067 2.3894,-0.6986 2.3955,-0.6905 2.4141,-0.7008 2.44,-0.7376 2.4494,-0.7905 2.463,-0.7831 2.4651,-0.7907 2.4574,-0.7917 2.4649,-0.7944Z" fill="#e8efe2"/><path d="M1.8844,-0.3846 1.8616,-0.3934 1.8637,-0.4085 1.8375,-0.4193 1.8141,-0.404 1.7752,-0.403 1.7755,-0.378 1.7666,-0.3791 1.7642,-0.3893 1.7479,-0.384 1.7439,-0.3943 1.7308,-0.3966 1.7368,-0.4119 1.7254,-0.4163 1.7251,-0.434 1.7027,-0.43 1.7073,-0.4557 1.7219,-0.4675 1.7218,-0.5009 1.7045,-0.5193 1.6804,-0.5175 1.6856,-0.5245 1.6762,-0.5383 1.6649,-0.5301 1.6514,-0.5354 1.6054,-0.5041 1.5691,-0.5151 1.5514,-0.496 1.5467,-0.5112 1.5008,-0.5076 1.4319,-0.556 1.4156,-0.5501 1.3743,-0.5761 1.3682,-0.6012 1.3826,-0.6004 1.3778,-0.639 1.3662,-0.6454 1.3621,-0.6631 1.3296,-0.6702 1.3237,-0.6884 1.2982,-0.6991 1.3111,-0.7045 1.3062,-0.7269 1.2881,-0.7316 1.2851,-0.7504 1.3062,-0.7739 1.332,-0.7709 1.3423,-0.7863 1.4005,-0.8101 1.3992,-0.825 1.4101,-0.8367 1.4043,-0.8752 1.394,-0.8784 1.4402,-0.8846 1.4366,-0.8953 1.4491,-0.9365 1.4919,-0.9332 1.4956,-0.9656 1.5174,-0.9865 1.5326,-0.9881 1.5355,-0.9722 1.5762,-0.9491 1.5881,-0.9252 1.5862,-0.8863 1.6642,-0.8637 1.6823,-0.8262 1.7715,-0.8219 1.8322,-0.7998 1.9268,-0.8274 1.9535,-0.8499 1.9443,-0.8659 1.953,-0.8829 1.9836,-0.8755 2.0497,-0.9212 2.0921,-0.9232 2.0682,-0.9569 2.0228,-0.9494 2.0164,-0.9609 2.0365,-1.0058 2.0572,-0.9974 2.0815,-1.0126 2.1075,-1.069 2.0951,-1.0867 2.1117,-1.103 2.1574,-1.1109 2.193,-1.096 2.2262,-1.0053 2.2785,-0.9801 2.2864,-0.9494 2.3504,-0.964 2.3518,-0.9502 2.3232,-0.8846 2.3012,-0.8895 2.286,-0.8774 2.2909,-0.8419 2.2782,-0.8219 2.2672,-0.8328 2.2637,-0.8198 2.2349,-0.8089 2.2366,-0.7949 2.2117,-0.8026 2.1689,-0.7611 2.1155,-0.7345 2.1262,-0.7491 2.1166,-0.7525 2.1342,-0.7753 2.1263,-0.7852 2.0766,-0.7443 2.0556,-0.7432 2.0536,-0.7273 2.0759,-0.7189 2.0789,-0.7004 2.1075,-0.7142 2.141,-0.7048 2.1352,-0.6923 2.0975,-0.6786 2.0799,-0.6496 2.0991,-0.6374 2.1092,-0.6037 2.1269,-0.5863 2.0951,-0.5888 2.107,-0.5896 2.1256,-0.5728 2.0977,-0.5541 2.1307,-0.5467 2.1207,-0.5389 2.1288,-0.5391 2.1197,-0.5318 2.1225,-0.5151 2.1075,-0.5096 2.0951,-0.4825 2.0872,-0.4854 2.0923,-0.4766 2.0794,-0.4725 2.0878,-0.4702 2.0878,-0.4584 2.0567,-0.4407 2.0605,-0.4365 2.0328,-0.4117 1.99,-0.4034 1.9813,-0.4146 1.9818,-0.3979 1.927,-0.3814 1.9258,-0.3618 1.9178,-0.3631 1.9186,-0.384 1.9124,-0.3879 1.9038,-0.3833 1.8933,-0.3919 1.8844,-0.3846Z M1.9354,-0.3562 1.9211,-0.3277 1.8972,-0.3294 1.8963,-0.3429 1.9069,-0.3542 1.9354,-0.3562Z" fill="#e8efe2"/><path d="M2.2288,-0.4722 2.2166,-0.4567 2.1869,-0.4336 2.1642,-0.426 2.1485,-0.4298 2.1223,-0.4567 2.1136,-0.4528 2.0787,-0.4586 2.0874,-0.4586 2.0874,-0.4702 2.0822,-0.4683 2.0787,-0.4722 2.0926,-0.476 2.0874,-0.4858 2.0944,-0.4819 2.1066,-0.5015 2.1066,-0.5094 2.1118,-0.5094 2.1136,-0.5153 2.1223,-0.5153 2.1206,-0.5233 2.1241,-0.5273 2.1206,-0.5273 2.1241,-0.5293 2.1188,-0.5312 2.1241,-0.5352 2.1276,-0.5312 2.1293,-0.5393 2.1206,-0.5393 2.1293,-0.5493 2.1345,-0.5473 2.1345,-0.5513 2.1293,-0.5513 2.1258,-0.59 2.2026,-0.617 2.2462,-0.5983 2.2637,-0.6107 2.2654,-0.6024 2.2742,-0.6045 2.2707,-0.6128 2.2742,-0.6149 2.2794,-0.6004 2.2724,-0.5921 2.2742,-0.5777 2.2707,-0.5777 2.2794,-0.5736 2.2777,-0.5798 2.2829,-0.5839 2.2794,-0.5614 2.2846,-0.5533 2.255,-0.5153 2.2393,-0.4878 2.2323,-0.4838 2.2288,-0.4722Z M2.2759,-0.5554 2.2811,-0.5574 2.2777,-0.5594 2.2759,-0.5554Z M2.2689,-0.5942 2.2724,-0.6004 2.2689,-0.6004 2.2689,-0.5942Z" fill="#e8453c" fill-opacity="0.5" stroke="#e8453c" stroke-width="0.0009"/></g></svg>