<svg xmlns="http://www.w3.org/2000/svg" viewBox="-4.398 1.254 8.796 0.751" preserveAspectRatio="xMidYMid meet"><rect x="-4.398" y="1.254" width="8.796" height="0.751" fill="#a9d2ea"/><g stroke="#7e96a9" stroke-width="0.0220" stroke-linejoin="round"><path d="M-1.0071,1.389 -1.0193,1.3853 -1.0297,1.3964 -1.0263,1.4002 -1.0385,1.4077 -1.0612,1.4077 -1.0873,1.423 -1.1083,1.4779 -1.1222,1.4941 -1.1135,1.4982 -1.1188,1.5189 -1.1153,1.5315 -1.1275,1.5357 -1.1292,1.5443 -1.1257,1.5485 -1.1449,1.5528 -1.1484,1.579 -1.1589,1.5746 -1.1606,1.6058 -1.1676,1.6058 -1.1694,1.5879 -1.1851,1.5968 -1.1816,1.5746 -1.1921,1.5834 -1.2287,1.6759 -1.6877,1.8598 -1.693,1.8541 -1.6773,1.8371 -1.6947,1.8371 -1.6982,1.8541 -1.7034,1.8371 -1.7139,1.8484 -1.7139,1.8315 -1.7331,1.8427 -1.7471,1.8315 -1.782,1.8427 -3.1416,1.8371 -3.1416,1.3345 -0.8011,1.3345 -0.7889,1.3417 -0.7959,1.3345 3.1416,1.3345 3.1416,1.8371 2.9793,1.8371 2.9828,1.8371 2.974,1.8094 2.9671,1.8204 2.9356,1.7985 2.9252,1.777 2.8693,1.7612 2.8501,1.7665 2.8397,1.7508 2.8274,1.756 2.8309,1.7877 2.817,1.777 2.789,1.7102 2.714,1.6856 2.6878,1.652 2.6843,1.652 2.6826,1.6711 2.6721,1.6807 2.6616,1.6711 2.6372,1.6759 2.6372,1.6567 2.5674,1.6567 2.5621,1.652 2.5639,1.6379 2.5482,1.6195 2.5133,1.6333 2.5237,1.5923 2.4138,1.5746 2.3632,1.5528 2.3457,1.5702 2.3283,1.5528 2.1886,1.5658 2.1782,1.579 2.1642,1.5746 2.0787,1.6103 2.0752,1.6058 2.1014,1.5923 2.0717,1.6013 2.0368,1.5923 1.9879,1.6103 1.9897,1.6013 2.0176,1.5834 1.9007,1.4659 1.7366,1.4345 1.6162,1.4384 1.4905,1.5106 1.4608,1.6103 1.4539,1.6195 1.3806,1.6473 1.2113,1.6241 1.1886,1.6333 1.1153,1.6149 1.035,1.6149 1.0088,1.5923 0.9809,1.6058 0.9739,1.6013 0.9861,1.5879 0.9791,1.5746 0.9983,1.5746 0.9687,1.5485 0.925,1.5443 0.8779,1.5658 0.8762,1.5746 0.8831,1.6013 0.8587,1.5879 0.8465,1.5923 0.8482,1.6013 0.8587,1.6013 0.8482,1.6149 0.8447,1.6379 0.8412,1.6241 0.8221,1.6195 0.8273,1.6103 0.8116,1.6058 0.8063,1.6241 0.747,1.6426 0.74,1.6567 0.7121,1.6711 0.5777,1.6711 0.569,1.6807 0.576,1.7102 0.569,1.7354 0.5236,1.7508 0.4695,1.7877 0.4398,1.7877 0.4259,1.7718 0.4224,1.756 0.4014,1.777 0.3892,1.7718 0.391,1.7612 0.3787,1.7508 0.3683,1.777 0.3368,1.7824 0.3316,1.7718 0.3351,1.7508 0.3316,1.7457 0.3176,1.7612 0.3002,1.7612 0.2862,1.7405 0.2758,1.7508 0.2199,1.7405 0.2251,1.7457 0.2042,1.777 0.1588,1.7457 0.1484,1.7612 0.1344,1.756 0.0332,1.7877 -0.0087,1.8259 -0.0157,1.8039 -0.1065,1.8039 -0.0977,1.7824 -0.0995,1.7718 -0.1361,1.777 -0.1326,1.7931 -0.1344,1.8149 -0.1484,1.8259 -0.1763,1.7824 -0.1815,1.7877 -0.1745,1.7931 -1.0664,1.7931 -1.0699,1.7824 -1.0821,1.7824 -1.0821,1.7718 -1.0734,1.7612 -1.0891,1.756 -1.0804,1.7457 -1.1083,1.6856 -1.1048,1.6759 -1.1135,1.6663 -1.0978,1.6567 -1.1205,1.6663 -1.1188,1.6759 -1.138,1.6663 -1.1345,1.6567 -1.1432,1.652 -1.131,1.6426 -1.1449,1.6426 -1.1432,1.6103 -1.131,1.6058 -1.1345,1.6013 -1.131,1.6013 -1.1292,1.5834 -1.1135,1.5879 -1.1188,1.579 -1.11,1.5572 -1.0943,1.579 -1.0908,1.579 -1.0943,1.5572 -1.0786,1.5658 -1.0716,1.5528 -1.0629,1.5615 -1.0647,1.5528 -1.0577,1.5443 -1.0716,1.5528 -1.0873,1.5443 -1.0786,1.5315 -1.0838,1.5189 -1.0751,1.5147 -1.0769,1.5065 -1.0664,1.5065 -1.0472,1.4819 -1.0402,1.4901 -1.0385,1.4779 -1.0263,1.486 -1.0297,1.4739 -1.0175,1.458 -1.0053,1.4462 -0.9913,1.4501 -0.9983,1.4345 -0.9634,1.4423 -0.946,1.3633 -0.9669,1.356 -0.9617,1.3596 -1.0071,1.389Z M2.8746,1.6195 2.878,1.6149 2.8763,1.6058 2.8746,1.6195Z M2.8327,1.5615 2.8379,1.5702 2.8327,1.5615Z M0.8447,1.579 0.8517,1.5834 0.8447,1.579Z M0.4608,1.7405 0.4538,1.7457 0.4538,1.756 0.4695,1.756 0.466,1.7405 0.4608,1.7405Z M0.2775,1.7202 0.2723,1.7303 0.2827,1.7405 0.2845,1.7253 0.2897,1.7253 0.2775,1.7202Z M0.0716,1.7508 0.0733,1.7612 0.0803,1.756 0.0716,1.7508Z M0.0559,1.756 0.0454,1.7665 0.0559,1.7665 0.0559,1.756Z M0.0244,1.7354 0.0157,1.7405 0.0209,1.756 0.0244,1.7354Z M-0.0628,1.7718 -0.0489,1.7877 -0.0489,1.7985 -0.0367,1.7824 -0.0628,1.7718Z M-0.0611,1.7612 -0.0471,1.7612 -0.0471,1.7508 -0.0611,1.7612Z M-0.0559,1.7931 -0.0593,1.7931 -0.0524,1.7985 -0.0559,1.7931Z M-0.1082,1.7665 -0.103,1.7665 -0.103,1.756 -0.1117,1.7612 -0.1082,1.7665Z M-0.9809,1.4423 -0.9774,1.4501 -0.9721,1.4462 -0.9809,1.4423Z M-0.9948,1.4819 -1.0018,1.486 -0.9948,1.4819Z M-1.0088,1.4619 -1.0175,1.4619 -1.0193,1.4699 -1.0123,1.4739 -1.0175,1.4779 -1.0001,1.4819 -0.9983,1.4699 -1.0088,1.4699 -1.0088,1.4619Z M-1.0559,1.7665 -1.0647,1.7665 -1.0559,1.7665Z M-1.0612,1.7877 -1.0559,1.7877 -1.0612,1.7877Z M-1.0856,1.7152 -1.0821,1.7202 -1.0786,1.7052 -1.0926,1.6954 -1.0856,1.7152Z M-1.1467,1.5315 -1.1519,1.5315 -1.1554,1.5443 -1.1467,1.5315Z M-1.1659,1.5528 -1.1676,1.5615 -1.1624,1.5572 -1.1659,1.5528Z M-1.1781,1.5879 -1.1746,1.5834 -1.1781,1.5879Z" fill="#e8453c" fill-opacity="0.5" stroke="#e8453c" stroke-width="0.0220"/></g></svg>