<svg xmlns="http://www.w3.org/2000/svg" viewBox="-0.553 -0.657 4.347 3.606" preserveAspectRatio="xMidYMid meet"><rect x="-0.553" y="-0.657" width="4.347" height="3.606" fill="#a9d2ea"/><g stroke="#7e96a9" stroke-width="0.0109" stroke-linejoin="round"><path d="M0.5461,0.4013 0.4889,0.3853 0.4831,0.3657 0.4568,0.3478 0.4409,0.3156 0.4716,0.3187 0.5189,0.2764 0.5751,0.2959 0.5758,0.356 0.566,0.3806 0.5461,0.4013Z" fill="#e8efe2"/><path d="M0.5306,0.2764 0.5056,0.282 0.4674,0.3202 0.4081,0.3129 0.3847,0.2877 0.3836,0.2289 0.4182,0.2287 0.4184,0.1909 0.4255,0.2006 0.4414,0.1969 0.4543,0.209 0.474,0.2035 0.5063,0.2355 0.5198,0.2368 0.5201,0.2138 0.5072,0.2172 0.4953,0.2033 0.4957,0.1616 0.5044,0.1487 0.5367,0.1434 0.5794,0.1689 0.5875,0.1859 0.5805,0.1912 0.5849,0.2172 0.5702,0.2394 0.5794,0.247 0.5276,0.2647 0.5306,0.2764Z" fill="#e8efe2"/><path d="M0.9266,-0.2948 0.9006,-0.271 0.7725,-0.2224 0.759,-0.2235 0.7446,-0.269 0.7566,-0.3101 0.8227,-0.3002 0.8407,-0.3224 0.8681,-0.3323 0.9072,-0.3379 0.9266,-0.2948Z M0.9383,-0.2224 0.9514,-0.2208 0.9306,-0.2205 0.9383,-0.2224Z" fill="#e8efe2"/><path d="M1.8844,-0.3846 1.8619,-0.375 1.8434,-0.3373 1.8993,-0.2717 1.9101,-0.2217 1.9022,-0.1992 1.872,-0.1825 1.8628,-0.185 1.8605,-0.1729 1.8525,-0.1793 1.8595,-0.1683 1.8471,-0.1754 1.853,-0.1648 1.8286,-0.1507 1.8342,-0.1745 1.8226,-0.1827 1.8335,-0.1916 1.8528,-0.1894 1.8474,-0.2046 1.8764,-0.2174 1.8788,-0.2695 1.8352,-0.3314 1.8132,-0.3434 1.8314,-0.3567 1.8253,-0.3685 1.7994,-0.373 1.7968,-0.3878 1.7825,-0.4009 1.7884,-0.4079 1.8141,-0.404 1.8375,-0.4193 1.8637,-0.4085 1.8616,-0.3934 1.8844,-0.3846Z" fill="#e8efe2"/><path d="M-2.9925,-1.4517 -2.9447,-1.4388 -2.9615,-1.4253 -2.9983,-1.4431 -2.9925,-1.4517Z M-2.8997,-1.3303 -2.8901,-1.3138 -2.9224,-1.3243 -2.8997,-1.3303Z M-2.6686,-1.2432 -2.6567,-1.2354 -2.6873,-1.2093 -2.7002,-1.2276 -2.6686,-1.2432Z M-2.2695,-1.1816 -2.2791,-1.1473 -2.2873,-1.1591 -2.2869,-1.1879 -2.3059,-1.1717 -2.296,-1.1916 -2.3295,-1.2221 -2.3326,-1.2374 -2.3234,-1.2351 -2.3307,-1.2436 -2.3246,-1.2452 -2.3393,-1.2515 -2.3366,-1.2664 -2.3524,-1.2641 -2.3625,-1.2969 -2.3578,-1.2574 -2.3719,-1.2624 -2.3763,-1.2843 -2.3909,-1.2836 -2.3747,-1.2641 -2.3843,-1.2571 -2.44,-1.3014 -2.4258,-1.3114 -2.4335,-1.3173 -2.4508,-1.3069 -2.4681,-1.3212 -2.5159,-1.3177 -2.529,-1.3289 -2.5253,-1.3406 -2.5351,-1.3303 -2.5581,-1.3427 -2.5548,-1.3575 -2.589,-1.3546 -2.5943,-1.3342 -2.5824,-1.3338 -2.5913,-1.3159 -2.6075,-1.3208 -2.6347,-1.2907 -2.652,-1.2918 -2.6363,-1.309 -2.6503,-1.3093 -2.6417,-1.3424 -2.6019,-1.3481 -2.6189,-1.3585 -2.608,-1.3705 -2.6709,-1.3275 -2.6639,-1.3184 -2.6909,-1.288 -2.678,-1.2741 -2.7663,-1.1869 -2.8191,-1.1732 -2.8508,-1.1494 -2.8222,-1.1822 -2.7976,-1.1791 -2.7978,-1.1948 -2.7482,-1.2331 -2.7508,-1.2508 -2.7435,-1.2554 -2.7492,-1.2631 -2.7369,-1.287 -2.7609,-1.2694 -2.766,-1.2805 -2.759,-1.2819 -2.7718,-1.2816 -2.7742,-1.2624 -2.7988,-1.2843 -2.8299,-1.2704 -2.8212,-1.2863 -2.8348,-1.3268 -2.8267,-1.3417 -2.8374,-1.3166 -2.8608,-1.3103 -2.8859,-1.336 -2.8552,-1.3488 -2.8817,-1.3499 -2.8775,-1.3564 -2.9002,-1.376 -2.876,-1.407 -2.8695,-1.4353 -2.8499,-1.4287 -2.8088,-1.4525 -2.8185,-1.4832 -2.8081,-1.4982 -2.8416,-1.4807 -2.8997,-1.4892 -2.9135,-1.5131 -2.9,-1.5185 -2.9337,-1.5341 -2.8704,-1.5742 -2.8561,-1.5733 -2.8629,-1.558 -2.8571,-1.552 -2.8105,-1.5567 -2.8337,-1.5901 -2.7965,-1.5667 -2.911,-1.6548 -2.9009,-1.6802 -2.8543,-1.6939 -2.8253,-1.7524 -2.7934,-1.766 -2.7903,-1.7498 -2.7819,-1.7623 -2.7939,-1.7681 -2.7869,-1.7765 -2.7309,-1.8099 -2.7154,-1.7942 -2.7222,-1.7792 -2.7082,-1.7931 -2.6581,-1.7797 -2.6519,-1.7586 -2.4997,-1.7416 -2.4609,-1.7177 -2.4609,-1.3275 -2.4274,-1.3289 -2.3988,-1.2792 -2.3646,-1.3097 -2.3283,-1.2627 -2.3007,-1.2036 -2.2695,-1.1816Z M-2.8533,-1.1536 -2.8463,-1.1442 -2.878,-1.1403 -2.8533,-1.1536Z M-2.3277,-1.2167 -2.3204,-1.2128 -2.325,-1.1995 -2.3384,-1.217 -2.3277,-1.2167Z M-2.3557,-1.2279 -2.3506,-1.1919 -2.364,-1.2247 -2.3703,-1.217 -2.3647,-1.2335 -2.3557,-1.2279Z M-2.3506,-1.2544 -2.3356,-1.237 -2.3442,-1.2501 -2.3372,-1.2279 -2.3478,-1.218 -2.3548,-1.2607 -2.3506,-1.2544Z M-2.3689,-1.2571 -2.3553,-1.2498 -2.3621,-1.2416 -2.355,-1.2322 -2.3721,-1.2312 -2.3836,-1.2482 -2.3689,-1.2571Z M-2.3312,-1.1957 -2.3068,-1.1689 -2.3148,-1.1686 -2.3035,-1.1606 -2.3042,-1.146 -2.3332,-1.1785 -2.3255,-1.1826 -2.3342,-1.1838 -2.3312,-1.1957Z M-2.6602,-1.2611 -2.6526,-1.2571 -2.677,-1.2521 -2.6602,-1.2611Z M-2.9315,-1.105 -2.9512,-1.0899 -2.9315,-1.105Z M-2.9081,-1.1212 -2.9013,-1.1221 -2.9288,-1.1041 -2.9081,-1.1212Z M-3.0487,-1.0673 -3.0596,-1.0667 -3.0372,-1.0756 -3.0487,-1.0673Z M-2.7154,-0.338 -2.7236,-0.3517 -2.7197,-0.3616 -2.7018,-0.3475 -2.7154,-0.338Z M-1.3039,-0.8814 -1.2369,-0.8881 -1.2085,-0.9435 -1.1835,-0.9337 -1.1833,-0.8995 -1.1692,-0.8772 -1.1961,-0.8632 -1.2001,-0.8708 -1.2249,-0.8513 -1.2401,-0.8169 -1.2209,-0.8017 -1.246,-0.8045 -1.2483,-0.7947 -1.2914,-0.7801 -1.291,-0.7917 -1.2929,-0.7581 -1.3053,-0.7403 -1.3181,-0.7513 -1.3102,-0.7625 -1.3193,-0.7547 -1.3097,-0.7275 -1.3252,-0.6993 -1.3205,-0.7169 -1.3324,-0.7338 -1.3242,-0.7518 -1.3364,-0.7464 -1.3324,-0.72 -1.3479,-0.7271 -1.3444,-0.7378 -1.3484,-0.7313 -1.331,-0.7156 -1.3458,-0.7218 -1.3313,-0.6971 -1.3483,-0.7032 -1.3265,-0.694 -1.3182,-0.6704 -1.3256,-0.6886 -1.3233,-0.6767 -1.3392,-0.6792 -1.3219,-0.6693 -1.3294,-0.6603 -1.3446,-0.6642 -1.3341,-0.6494 -1.3511,-0.6471 -1.3601,-0.6304 -1.4102,-0.5993 -1.4217,-0.5722 -1.3971,-0.486 -1.4046,-0.4553 -1.4156,-0.4536 -1.4263,-0.4698 -1.4436,-0.4995 -1.4383,-0.5066 -1.4458,-0.5064 -1.4425,-0.5271 -1.4607,-0.5479 -1.4891,-0.5429 -1.494,-0.5552 -1.5219,-0.5562 -1.5184,-0.5608 -1.5361,-0.5539 -1.5361,-0.5633 -1.5766,-0.555 -1.5603,-0.5503 -1.5659,-0.5417 -1.5537,-0.5332 -1.56,-0.5289 -1.5736,-0.5401 -1.5745,-0.5312 -1.5882,-0.533 -1.6038,-0.5461 -1.6102,-0.5405 -1.6378,-0.5489 -1.6539,-0.5368 -1.6584,-0.5433 -1.6628,-0.5285 -1.6867,-0.5235 -1.6828,-0.5185 -1.6958,-0.5122 -1.7006,-0.4962 -1.7064,-0.4987 -1.6996,-0.4677 -1.7298,-0.479 -1.7368,-0.5005 -1.7705,-0.5449 -1.7909,-0.5443 -1.8022,-0.5293 -1.8221,-0.5407 -1.8322,-0.5624 -1.8579,-0.5853 -1.938,-0.5761 -2.0022,-0.6049 -2.0443,-0.601 -2.0684,-0.6321 -2.1056,-0.6439 -2.138,-0.7078 -2.1305,-0.7065 -2.1347,-0.7182 -2.1211,-0.7193 -2.1468,-0.7178 -2.1705,-0.7714 -2.1654,-0.7965 -2.1736,-0.8283 -2.164,-0.9118 -2.1506,-0.91 -2.1654,-0.9133 -2.1614,-0.9306 -2.1766,-0.9674 -2.1429,-0.9611 -2.1492,-0.9409 -2.1386,-0.9554 -2.1473,-0.9352 -2.1415,-0.9344 -2.1335,-0.9577 -2.1431,-0.9835 -1.6609,-0.9835 -1.657,-0.9932 -1.6514,-0.9769 -1.5973,-0.959 -1.5425,-0.9653 -1.4683,-0.9197 -1.4408,-0.89 -1.4336,-0.8465 -1.4512,-0.8125 -1.4432,-0.8017 -1.3795,-0.8281 -1.3762,-0.8467 -1.3408,-0.848 -1.3039,-0.8814Z M-1.2655,-0.7856 -1.2549,-0.7873 -1.2921,-0.7776 -1.2655,-0.7856Z M-1.6959,-0.4733 -1.6998,-0.4936 -1.6959,-0.4733Z" fill="#e8efe2"/><path d="M0.9826,-0.4634 0.9842,-0.4505 0.9742,-0.4491 0.9772,-0.4328 0.9681,-0.4305 0.962,-0.4055 0.9173,-0.4113 0.9001,-0.4342 0.9406,-0.4332 0.9788,-0.4714 0.9826,-0.4634Z" fill="#e8efe2"/><path d="M0.5917,0.0175 0.5163,0.0243 0.5226,-0.0143 0.5454,-0.0356 0.5363,-0.0429 0.5437,-0.0662 0.5609,-0.0615 0.5931,-0.0737 0.6011,-0.0637 0.6105,-0.03 0.5924,-0.003 0.5917,0.0175Z" fill="#e8efe2"/><path d="M0.977,-0.7933 0.9952,-0.7919 0.9941,-0.8059 1.0128,-0.8207 1.0203,-0.816 1.0149,-0.824 1.0226,-0.8276 1.047,-0.8141 1.0488,-0.7951 1.0804,-0.7879 1.0905,-0.7625 1.1128,-0.7439 1.1626,-0.7178 1.161,-0.7037 1.1479,-0.7085 1.1313,-0.6988 1.1259,-0.6816 1.0875,-0.6565 1.0692,-0.6661 1.0667,-0.6881 0.9982,-0.7229 0.9666,-0.7191 0.9409,-0.7034 0.9402,-0.7392 0.9278,-0.7461 0.9336,-0.7609 0.9257,-0.7577 0.9203,-0.772 0.924,-0.7868 0.9402,-0.7778 0.955,-0.7861 0.939,-0.812 0.9245,-0.8087 0.9224,-0.7905 0.9161,-0.804 0.9446,-0.8172 0.977,-0.7933Z" fill="#e8efe2"/><path d="M0.2007,-0.6145 0.2007,-0.5985 0.1792,-0.5835 0.1784,-0.5651 0.1662,-0.5539 0.1574,-0.5923 0.1309,-0.6281 0.144,-0.6471 0.1433,-0.6855 0.1497,-0.6947 0.1691,-0.7034 0.1817,-0.6901 0.1929,-0.6975 0.1829,-0.6782 0.1941,-0.658 0.1752,-0.6346 0.2007,-0.6145Z" fill="#e8efe2"/><path d="M0.0157,-0.193 0.0133,-0.1823 0.0279,-0.1586 0.0311,-0.11 0.0208,-0.1065 0.0093,-0.1198 0.0093,-0.1648 -0.0016,-0.1873 -0.0012,-0.1953 0.0157,-0.193Z" fill="#e8efe2"/><path d="M2.1829,0.1667 2.1848,0.1515 2.2218,0.1475 2.1829,0.1667Z" fill="#e8efe2"/><path d="M1.7474,-0.3623 1.7542,-0.348 1.7664,-0.348 1.7612,-0.3118 1.782,-0.3233 1.7921,-0.3162 1.8028,-0.327 1.8143,-0.3253 1.8438,-0.2768 1.8338,-0.251 1.8073,-0.2544 1.7858,-0.2385 1.7961,-0.2056 1.7774,-0.2224 1.761,-0.2226 1.7612,-0.2371 1.7457,-0.2351 1.7307,-0.1706 1.7322,-0.1625 1.7425,-0.1629 1.7527,-0.1258 1.782,-0.1091 1.7654,-0.0986 1.7637,-0.1091 1.7474,-0.1126 1.7146,-0.1475 1.7237,-0.1871 1.7385,-0.2071 1.7303,-0.2418 1.7139,-0.2645 1.726,-0.2893 1.6994,-0.329 1.7061,-0.3303 1.7113,-0.3521 1.7474,-0.3623Z" fill="#e8efe2"/><path d="M0.5746,0.165 0.5405,0.1498 0.5156,0.1104 0.5131,0.0777 0.5377,0.0559 0.5309,0.0492 0.539,0.0374 0.5327,0.0185 0.5931,0.0175 0.6569,0.0533 0.6564,0.0611 0.6845,0.0819 0.6772,0.1061 0.6903,0.1228 0.6859,0.1478 0.6934,0.1754 0.7062,0.1836 0.6552,0.2053 0.6102,0.2035 0.599,0.1706 0.5746,0.165Z" fill="#e8efe2"/><path d="M0.6264,-0.6726 0.6395,-0.6792 0.6398,-0.6916 0.7393,-0.6984 0.7208,-0.6825 0.7154,-0.6407 0.6426,-0.5966 0.6247,-0.6051 0.6278,-0.626 0.6384,-0.6363 0.628,-0.645 0.6264,-0.6726Z" fill="#e8efe2"/><path d="M0.5576,0.4694 0.5578,0.4958 0.5421,0.4919 0.5426,0.4698 0.5576,0.4694Z" fill="#e8efe2"/><path d="M0.5931,-0.0737 0.5845,-0.0657 0.5383,-0.0609 0.5157,-0.0811 0.4901,-0.0772 0.4601,-0.1162 0.4225,-0.1466 0.4367,-0.1797 0.4513,-0.1827 0.4634,-0.1671 0.4896,-0.1636 0.5034,-0.1636 0.5236,-0.1804 0.5437,-0.1714 0.566,-0.1951 0.5597,-0.2112 0.5794,-0.2149 0.5782,-0.1887 0.5918,-0.1786 0.5952,-0.1521 0.576,-0.1383 0.6058,-0.1165 0.6156,-0.096 0.5931,-0.0737Z" fill="#e8efe2"/><path d="M0.5948,-0.1659 0.5782,-0.1887 0.5794,-0.2149 0.5711,-0.2149 0.5597,-0.2112 0.566,-0.1951 0.5437,-0.1714 0.5236,-0.1804 0.5034,-0.1636 0.4653,-0.1662 0.4503,-0.1829 0.4367,-0.1797 0.4281,-0.1558 0.4109,-0.1545 0.4128,-0.1722 0.3901,-0.2228 0.381,-0.2251 0.4002,-0.2744 0.4184,-0.2777 0.4185,-0.3564 0.436,-0.3564 0.436,-0.3938 0.6435,-0.3938 0.654,-0.3345 0.6739,-0.3196 0.6459,-0.3023 0.6306,-0.2246 0.6128,-0.2078 0.6096,-0.1907 0.5993,-0.1871 0.5948,-0.1659Z" fill="#e8efe2"/><path d="M1.3959,-0.1721 1.4087,-0.1643 1.4289,-0.1276 1.4249,-0.1125 1.4088,-0.1046 1.398,-0.1075 1.3938,-0.1195 1.3912,-0.1433 1.3978,-0.168 1.4038,-0.1662 1.3959,-0.1721Z" fill="#e8efe2"/><path d="M0.055,-0.7581 0.0604,-0.7561 0.0536,-0.747 0.0414,-0.7531 0.055,-0.7581Z M-0.0312,-0.8427 -0.0007,-0.8255 0.056,-0.8193 0.0567,-0.8078 0.0124,-0.7817 -0.0058,-0.752 0.0035,-0.7349 -0.0368,-0.6912 -0.0763,-0.6899 -0.0983,-0.6749 -0.1086,-0.694 -0.1293,-0.6999 -0.1222,-0.7416 -0.1316,-0.7552 -0.1229,-0.7563 -0.1208,-0.7868 -0.1084,-0.7982 -0.1155,-0.8078 -0.1545,-0.8075 -0.1602,-0.8369 -0.1344,-0.8511 -0.0312,-0.8427Z" fill="#e8efe2"/><path d="M2.2101,-0.7131 2.2405,-0.7318 2.2588,-0.6973 2.2551,-0.6567 2.2084,-0.6382 2.2042,-0.656 2.2122,-0.6715 2.2019,-0.691 2.2162,-0.6947 2.2101,-0.7131Z" fill="#e8efe2"/><path d="M0.5124,0.3973 0.5461,0.4013 0.558,0.439 0.5576,0.4694 0.5447,0.4671 0.5377,0.4856 0.554,0.4958 0.5583,0.4862 0.574,0.4868 0.5651,0.5193 0.5287,0.569 0.4862,0.6118 0.4463,0.6325 0.3936,0.6319 0.3494,0.6484 0.3272,0.6333 0.3222,0.639 0.3115,0.6072 0.3199,0.6004 0.3178,0.5847 0.2871,0.5217 0.2955,0.5108 0.3046,0.5233 0.336,0.5273 0.3487,0.5183 0.3487,0.4466 0.3629,0.4687 0.3611,0.4862 0.3786,0.4866 0.4018,0.457 0.444,0.4646 0.4739,0.4225 0.5124,0.3973Z M0.5016,0.5513 0.513,0.5346 0.4997,0.5209 0.4721,0.5425 0.4843,0.5614 0.5016,0.5513Z" fill="#e8efe2"/><path d="M0.7248,0.0297 0.7152,0.0152 0.7152,-0.0496 0.7334,-0.0723 0.7844,-0.0858 0.8374,-0.1401 0.8542,-0.1657 0.8542,-0.1978 0.8945,-0.208 0.8906,-0.1832 0.8968,-0.1823 0.8889,-0.1815 0.8872,-0.1653 0.8374,-0.0786 0.7587,-0.0108 0.7248,0.0297Z" fill="#e8efe2"/><path d="M2.7882,0.1625 2.8068,0.1729 2.7899,0.1717 2.7882,0.1625Z M2.7904,0.1494 2.7656,0.132 2.7904,0.1494Z M2.7487,0.1283 2.7306,0.1162 2.7487,0.1283Z M2.8056,0.1455 2.8164,0.1685 2.8056,0.1455Z M2.8225,0.1823 2.8339,0.19 2.8152,0.179 2.8225,0.1823Z" fill="#e8efe2"/><path d="M-0.1794,-0.1487 -0.2009,-0.1209 -0.2243,-0.1369 -0.232,-0.1586 -0.2169,-0.1737 -0.1967,-0.1754 -0.1864,-0.1629 -0.1869,-0.1461 -0.1794,-0.1487Z" fill="#e8efe2"/><path d="M-0.2143,-0.2614 -0.1988,-0.2181 -0.2653,-0.2231 -0.2916,-0.2172 -0.2906,-0.2316 -0.2417,-0.2375 -0.289,-0.2394 -0.3061,-0.2605 -0.2834,-0.2926 -0.2616,-0.2953 -0.2358,-0.2855 -0.2143,-0.2614Z" fill="#e8efe2"/><path d="M0.9072,-0.3379 0.8559,-0.3301 0.8227,-0.3002 0.7578,-0.3107 0.747,-0.2897 0.7114,-0.3519 0.6856,-0.3745 0.6713,-0.4262 0.6552,-0.4372 0.614,-0.51 0.6042,-0.5106 0.61,-0.5362 0.6295,-0.5332 0.6543,-0.5495 0.6629,-0.5594 0.6451,-0.5796 0.6833,-0.5925 0.7343,-0.5712 0.78,-0.5332 0.8454,-0.5201 0.8753,-0.4831 0.8741,-0.4694 0.8877,-0.4447 0.8973,-0.4426 0.9173,-0.4113 0.9632,-0.407 0.9711,-0.3938 0.9596,-0.3564 0.9072,-0.3379Z" fill="#e8efe2"/><path d="M0.5163,0.0243 0.5325,0.0187 0.5381,0.0409 0.5047,0.0468 0.5163,0.0243Z" fill="#e8efe2"/><path d="M0.8948,-0.4434 0.8877,-0.4447 0.8858,-0.4586 0.8947,-0.4731 0.9008,-0.4518 0.8948,-0.4434Z" fill="#e8efe2"/><path d="M-0.1532,-0.8078 -0.1155,-0.8078 -0.1084,-0.7982 -0.1208,-0.7868 -0.1229,-0.7563 -0.1316,-0.7552 -0.1215,-0.7222 -0.1367,-0.6962 -0.1571,-0.6966 -0.1513,-0.7273 -0.1614,-0.7327 -0.1534,-0.7421 -0.1653,-0.7342 -0.1515,-0.7801 -0.1532,-0.8078Z" fill="#e8efe2"/><path d="M2.1136,-0.3309 2.134,-0.3279 2.1384,-0.3033 2.1187,-0.2706 2.1253,-0.2499 2.1611,-0.2439 2.1564,-0.2405 2.1653,-0.2212 2.1398,-0.2452 2.1398,-0.2323 2.1255,-0.2457 2.1056,-0.2432 2.1108,-0.2585 2.1045,-0.2627 2.1021,-0.2549 2.0958,-0.2621 2.0904,-0.2877 2.1009,-0.285 2.1049,-0.3288 2.1136,-0.3309Z M2.0474,-0.1478 2.082,-0.1855 2.0857,-0.1994 2.089,-0.1843 2.0474,-0.1478Z M2.138,-0.2042 2.1495,-0.2028 2.1482,-0.1967 2.1284,-0.1832 2.1274,-0.2072 2.138,-0.2042Z M2.149,-0.1588 2.1363,-0.1722 2.1513,-0.193 2.1567,-0.1893 2.149,-0.1588Z M2.1742,-0.1992 2.1822,-0.1969 2.1822,-0.176 2.17,-0.2028 2.1742,-0.1992Z M2.1859,-0.2205 2.1946,-0.1941 2.1822,-0.1992 2.1693,-0.2212 2.1859,-0.2205Z M2.1066,-0.2375 2.1213,-0.2305 2.116,-0.2149 2.1003,-0.2362 2.1066,-0.2375Z M2.1993,-0.1634 2.2092,-0.1269 2.2024,-0.1104 2.1937,-0.1271 2.1897,-0.0989 2.1679,-0.1089 2.1679,-0.1295 2.1584,-0.1369 2.1536,-0.1297 2.1401,-0.1359 2.1286,-0.122 2.1335,-0.1392 2.1543,-0.1524 2.1607,-0.141 2.1904,-0.1579 2.1899,-0.1712 2.1993,-0.1634Z M2.1532,-0.1657 2.1649,-0.198 2.1532,-0.1657Z" fill="#e8efe2"/><path d="M2.6698,0.0832 2.6578,0.0625 2.6325,0.0449 2.6707,0.0718 2.6698,0.0832Z M2.6515,0.0751 2.6601,0.0758 2.6543,0.0954 2.6255,0.1098 2.589,0.0991 2.615,0.0965 2.6196,0.0876 2.6211,0.0965 2.6337,0.0953 2.6471,0.0853 2.6457,0.0734 2.6515,0.0751Z M2.4606,0.1599 2.4627,0.0456 2.5217,0.0669 2.5442,0.0842 2.5438,0.0944 2.5747,0.1053 2.5805,0.1165 2.5648,0.1195 2.569,0.1292 2.5932,0.1586 2.604,0.1583 2.6157,0.1756 2.6328,0.1797 2.6236,0.187 2.5791,0.1767 2.5496,0.142 2.5072,0.1306 2.5122,0.139 2.5065,0.1436 2.482,0.1436 2.5023,0.157 2.4897,0.1636 2.4606,0.1599Z M2.722,0.117 2.7112,0.1176 2.7005,0.0951 2.722,0.117Z" fill="#e8efe2"/><path d="M1.3399,-0.667 1.3448,-0.6552 1.3367,-0.6473 1.2908,-0.6454 1.2915,-0.6147 1.3148,-0.5958 1.3008,-0.5853 1.3025,-0.5702 1.2544,-0.5086 1.2357,-0.5037 1.2287,-0.51 1.2137,-0.4921 1.2399,-0.4393 1.2001,-0.4376 1.1889,-0.4269 1.1781,-0.4305 1.1594,-0.4621 1.0746,-0.4545 1.0793,-0.4747 1.1023,-0.4829 1.105,-0.4921 1.0952,-0.495 1.0954,-0.5141 1.0802,-0.5203 1.0619,-0.5465 1.1188,-0.5371 1.1559,-0.5467 1.1664,-0.5749 1.2092,-0.5888 1.213,-0.6111 1.2263,-0.6168 1.2198,-0.6319 1.2401,-0.6327 1.25,-0.6567 1.2425,-0.6751 1.2594,-0.6894 1.3116,-0.6953 1.3399,-0.667Z" fill="#e8efe2"/><path d="M0.9266,-0.2948 0.9072,-0.3379 0.9596,-0.3564 0.9711,-0.3938 0.9634,-0.4132 0.9681,-0.4305 0.9772,-0.4328 0.9742,-0.4491 0.9842,-0.4505 0.9969,-0.4313 1.0257,-0.4225 1.0437,-0.3979 1.0205,-0.364 1.0098,-0.3608 1.009,-0.3382 0.9683,-0.3165 0.961,-0.3019 0.9266,-0.2948Z" fill="#e8efe2"/><path d="M0.2375,-0.2414 0.2545,-0.2026 0.2391,-0.1909 0.199,-0.1142 0.177,-0.1225 0.1447,-0.0797 0.1236,-0.0825 0.1208,-0.0767 0.1182,-0.0825 0.1197,-0.0763 0.1077,-0.0748 0.0976,-0.0812 0.0953,-0.0981 0.0773,-0.1111 0.0473,-0.1114 0.0483,-0.1586 0.066,-0.1832 0.0637,-0.2205 0.0771,-0.2405 0.0958,-0.2445 0.1211,-0.229 0.1367,-0.235 0.1679,-0.2255 0.1829,-0.2348 0.2175,-0.2305 0.2375,-0.2414Z" fill="#e8efe2"/><path d="M0.2375,-0.2414 0.2175,-0.2305 0.1829,-0.2348 0.1679,-0.2255 0.0813,-0.242 0.0637,-0.2205 0.0628,-0.2056 0.0503,-0.2176 0.0417,-0.2092 0.0367,-0.2235 0.0176,-0.2292 0.0209,-0.2353 0.0028,-0.2558 0.004,-0.2641 0.0227,-0.2697 0.0611,-0.2714 0.073,-0.2935 0.0738,-0.3404 0.1019,-0.3467 0.2089,-0.4225 0.2478,-0.4055 0.2615,-0.4127 0.2649,-0.3848 0.2786,-0.3629 0.27,-0.2995 0.2347,-0.2537 0.2375,-0.2414Z" fill="#e8efe2"/><path d="M3.0215,0.7924 3.0433,0.7882 3.0407,0.8056 3.0112,0.8439 3.0206,0.8538 3.0027,0.8496 2.9887,0.8632 2.9807,0.903 2.9514,0.9222 2.9058,0.9053 2.9386,0.8588 2.9847,0.8302 3.0067,0.7803 3.0184,0.7748 3.0215,0.7924Z M3.0241,0.6513 3.0425,0.6582 3.0494,0.6925 3.0638,0.7004 3.0624,0.6847 3.0737,0.7103 3.092,0.7178 3.1161,0.7111 3.1051,0.7457 3.0906,0.7452 3.0864,0.7666 3.0597,0.8 3.048,0.793 3.0571,0.7654 3.0327,0.7475 3.0473,0.7356 3.0531,0.7136 3.0472,0.6982 3.0531,0.6977 3.0144,0.6414 3.0241,0.6513Z" fill="#e8efe2"/><path d="M0.1045,-1.0312 0.0878,-1.0512 0.0602,-1.0532 0.0745,-1.0512 0.0689,-1.0608 0.0833,-1.0931 0.119,-1.1077 0.1257,-1.103 0.1168,-1.0813 0.1225,-1.0738 0.1038,-1.0605 0.1045,-1.0312Z" fill="#e8efe2"/><path d="M1.5378,-0.5068 1.5368,-0.4786 1.5235,-0.4772 1.4877,-0.4848 1.4676,-0.4993 1.4439,-0.4999 1.3971,-0.5267 1.4069,-0.5485 1.4249,-0.5572 1.5008,-0.5076 1.5378,-0.5068Z" fill="#e8efe2"/><path d="M0.4081,0.3129 0.4409,0.3156 0.4119,0.3279 0.4053,0.3195 0.366,0.3253 0.366,0.3938 0.3487,0.3938 0.3487,0.5183 0.3159,0.5267 0.2978,0.51 0.2871,0.5217 0.2669,0.495 0.2524,0.4023 0.2056,0.3195 0.2049,0.3057 0.23,0.3006 0.2447,0.3086 0.3211,0.3085 0.3622,0.3198 0.4081,0.3129Z" fill="#e8efe2"/><path d="M0.5461,0.4013 0.566,0.3806 0.5758,0.356 0.5751,0.2959 0.5313,0.283 0.5276,0.2647 0.5794,0.247 0.5871,0.2571 0.6,0.2544 0.5978,0.281 0.6156,0.3033 0.6264,0.2629 0.6032,0.2353 0.6042,0.2042 0.6552,0.2053 0.7062,0.1836 0.7079,0.2733 0.6953,0.291 0.6048,0.3508 0.6203,0.3994 0.6194,0.433 0.5723,0.4632 0.574,0.4868 0.5604,0.4866 0.5583,0.4405 0.5461,0.4013Z" fill="#e8efe2"/><path d="M-0.0387,-0.655 -0.0215,-0.5923 -0.0658,-0.5837 -0.0646,-0.5683 -0.1443,-0.5289 -0.1515,-0.5231 -0.1534,-0.4921 -0.1988,-0.4874 -0.2169,-0.4476 -0.2424,-0.4258 -0.2574,-0.3844 -0.2967,-0.3829 -0.2515,-0.4751 -0.226,-0.5076 -0.2016,-0.5155 -0.178,-0.5368 -0.1614,-0.6018 -0.1204,-0.631 -0.1033,-0.6698 -0.0922,-0.6721 -0.0808,-0.6573 -0.0387,-0.655Z" fill="#e8efe2"/><path d="M-0.2143,-0.2614 -0.2536,-0.295 -0.2834,-0.2926 -0.2887,-0.2801 -0.2801,-0.3235 -0.2882,-0.3445 -0.2829,-0.3607 -0.2946,-0.3767 -0.2976,-0.3715 -0.296,-0.3812 -0.2272,-0.3812 -0.2295,-0.4093 -0.2098,-0.4216 -0.2098,-0.4702 -0.1515,-0.4702 -0.1515,-0.4954 -0.0841,-0.4509 -0.115,-0.4507 -0.0962,-0.2739 -0.1632,-0.2771 -0.1911,-0.2676 -0.2007,-0.2764 -0.2143,-0.2614Z" fill="#e8efe2"/><path d="M-0.1988,-0.2181 -0.2143,-0.2614 -0.2007,-0.2764 -0.1911,-0.2676 -0.1632,-0.2771 -0.0962,-0.2739 -0.115,-0.4507 -0.0841,-0.4509 0.0305,-0.3625 0.0546,-0.3536 0.0545,-0.3397 0.0738,-0.3404 0.073,-0.2935 0.0611,-0.2714 -0.0117,-0.2661 -0.0452,-0.251 -0.0576,-0.2339 -0.0756,-0.231 -0.0773,-0.2171 -0.0923,-0.208 -0.0963,-0.1831 -0.1052,-0.1788 -0.1093,-0.1882 -0.1225,-0.1779 -0.1395,-0.1783 -0.1592,-0.219 -0.1864,-0.2092 -0.1988,-0.2181Z" fill="#e8efe2"/><path d="M1.7474,-0.1126 1.7637,-0.1091 1.7647,-0.0986 1.7849,-0.1084 1.7994,-0.0946 1.8054,-0.0512 1.8195,-0.0243 1.8061,-0.0232 1.768,-0.0505 1.7474,-0.1126Z M2.052,-0.0728 2.0221,-0.076 1.9986,-0.0253 1.9631,-0.0272 1.9288,-0.015 1.912,-0.0323 1.9412,-0.0244 1.9415,-0.0426 1.972,-0.0552 1.9898,-0.08 2.0003,-0.0702 2.0077,-0.0856 2.0129,-0.0765 2.0145,-0.0946 2.0382,-0.1223 2.0384,-0.1156 2.0443,-0.122 2.0534,-0.1132 2.0508,-0.1028 2.0595,-0.1058 2.059,-0.0998 2.0815,-0.0939 2.064,-0.0872 2.0691,-0.0765 2.052,-0.0728Z" fill="#e8efe2"/><path d="M0.5794,0.247 0.5702,0.2394 0.5849,0.2172 0.5805,0.1912 0.5875,0.1852 0.5749,0.1648 0.6025,0.176 0.6102,0.2035 0.5997,0.2138 0.6032,0.2353 0.6264,0.2629 0.6156,0.3033 0.5978,0.281 0.6023,0.2576 0.5871,0.2571 0.5794,0.247Z" fill="#e8efe2"/><path d="M0.8646,0.2187 0.881,0.2719 0.8763,0.2822 0.8667,0.2742 0.8687,0.2979 0.8234,0.4468 0.7891,0.4619 0.7686,0.4509 0.755,0.4009 0.7749,0.3549 0.7676,0.3083 0.7756,0.2873 0.8098,0.2815 0.8264,0.2607 0.8371,0.2589 0.836,0.242 0.8517,0.2337 0.8517,0.2188 0.8589,0.2124 0.8646,0.2187Z" fill="#e8efe2"/><path d="M0.1662,-0.5539 0.1784,-0.5651 0.1792,-0.5835 0.2007,-0.5985 0.2007,-0.6145 0.2649,-0.5981 0.2763,-0.5769 0.3337,-0.5548 0.351,-0.5687 0.3496,-0.5923 0.3676,-0.6062 0.3873,-0.6091 0.4065,-0.5944 0.4355,-0.589 0.436,-0.3564 0.4185,-0.3564 0.4185,-0.3471 0.2789,-0.4212 0.2478,-0.4055 0.2089,-0.4225 0.2009,-0.4376 0.1803,-0.4418 0.1644,-0.4731 0.1721,-0.4809 0.1731,-0.5052 0.1662,-0.5539Z" fill="#e8efe2"/><path d="M-0.2009,-0.1209 -0.1794,-0.1487 -0.1686,-0.1484 -0.1651,-0.1299 -0.1552,-0.1271 -0.1497,-0.1344 -0.1499,-0.1135 -0.13,-0.1021 -0.1316,-0.076 -0.2009,-0.1209Z" fill="#e8efe2"/><path d="M0.5016,0.5513 0.4843,0.5614 0.4721,0.5425 0.4997,0.5209 0.513,0.5346 0.5016,0.5513Z" fill="#e8efe2"/><path d="M0.628,-0.645 0.6377,-0.6344 0.6128,-0.6124 0.628,-0.645Z" fill="#e8efe2"/><path d="M1.7825,-0.4009 1.7968,-0.3878 1.7994,-0.373 1.8253,-0.3685 1.8314,-0.3567 1.8132,-0.3434 1.8347,-0.332 1.8745,-0.2837 1.8747,-0.2569 1.8541,-0.2555 1.8513,-0.2454 1.8375,-0.2497 1.8438,-0.2768 1.8143,-0.3253 1.8028,-0.327 1.7921,-0.3162 1.782,-0.3233 1.7612,-0.3118 1.7664,-0.348 1.7527,-0.3497 1.7485,-0.3674 1.7652,-0.3857 1.7767,-0.3789 1.7719,-0.3985 1.7825,-0.4009Z" fill="#e8efe2"/><path d="M0.8454,-0.5201 0.8121,-0.5312 0.8229,-0.5493 0.8334,-0.5509 0.8402,-0.5407 0.8329,-0.5371 0.8454,-0.5201Z" fill="#e8efe2"/><path d="M0.5917,0.0175 0.5924,-0.003 0.6105,-0.03 0.5931,-0.0737 0.6156,-0.096 0.6287,-0.0781 0.6648,-0.0637 0.6901,-0.0606 0.7116,-0.0746 0.7309,-0.0695 0.7149,-0.0491 0.7152,0.0152 0.7248,0.0297 0.702,0.047 0.6873,0.0809 0.659,0.0636 0.6569,0.0533 0.5917,0.0175Z" fill="#e8efe2"/><path d="M0.6247,-0.6051 0.6426,-0.5966 0.6767,-0.6184 0.6857,-0.595 0.6451,-0.5796 0.6629,-0.5594 0.6287,-0.533 0.61,-0.5362 0.6247,-0.6051Z" fill="#e8efe2"/><path d="M2.5101,-0.8598 2.5272,-0.8554 2.5372,-0.8649 2.5332,-0.8487 2.5452,-0.8422 2.5128,-0.83 2.5,-0.8092 2.4518,-0.8224 2.4635,-0.8047 2.4442,-0.7968 2.441,-0.8229 2.4503,-0.84 2.4674,-0.8395 2.4726,-0.8913 2.5101,-0.8598Z M2.2893,-0.6233 2.2986,-0.6233 2.304,-0.6091 2.2923,-0.5777 2.281,-0.57 2.2825,-0.5841 2.2792,-0.5732 2.2715,-0.5779 2.2785,-0.6072 2.2731,-0.6145 2.2749,-0.6045 2.2649,-0.6018 2.2616,-0.6157 2.2806,-0.63 2.2893,-0.6233Z M2.345,-0.6371 2.3517,-0.6279 2.3419,-0.6159 2.3323,-0.6214 2.3178,-0.6055 2.311,-0.6197 2.3044,-0.6178 2.3202,-0.6338 2.345,-0.6371Z M2.4649,-0.7944 2.478,-0.75 2.4602,-0.7213 2.4534,-0.6792 2.4586,-0.6682 2.4496,-0.6567 2.4407,-0.6509 2.4419,-0.6672 2.4243,-0.645 2.4229,-0.655 2.4119,-0.6443 2.3921,-0.6439 2.3876,-0.6539 2.3885,-0.6384 2.3684,-0.621 2.3585,-0.6319 2.3635,-0.6448 2.3517,-0.6479 2.3092,-0.6384 2.3065,-0.6283 2.285,-0.6312 2.3199,-0.6637 2.3702,-0.6646 2.3883,-0.7043 2.397,-0.7067 2.3894,-0.6986 2.3955,-0.6905 2.4141,-0.7008 2.44,-0.7376 2.4494,-0.7905 2.463,-0.7831 2.4651,-0.7907 2.4574,-0.7917 2.4649,-0.7944Z" fill="#e8efe2"/><path d="M0.6255,-0.6195 0.6247,-0.6051 0.6102,-0.5933 0.6088,-0.5771 0.6187,-0.5794 0.6091,-0.5389 0.5978,-0.5738 0.6128,-0.6124 0.6255,-0.6195Z" fill="#e8efe2"/><path d="M0.7393,-0.6984 0.7807,-0.6997 0.7917,-0.6747 0.8076,-0.6693 0.7924,-0.631 0.8048,-0.6099 0.8268,-0.5987 0.8348,-0.5857 0.8322,-0.5696 0.8474,-0.5485 0.8241,-0.5501 0.8091,-0.5305 0.7805,-0.533 0.7343,-0.5712 0.6833,-0.5925 0.6767,-0.6184 0.7154,-0.6407 0.7208,-0.6825 0.7393,-0.6984Z" fill="#e8efe2"/><path d="M0.9409,-0.7034 0.9666,-0.7191 0.9982,-0.7229 1.0676,-0.6866 1.057,-0.612 1.0615,-0.5798 1.0762,-0.5773 1.0788,-0.5677 1.0619,-0.5465 1.0802,-0.5203 1.0954,-0.5141 1.0952,-0.495 1.105,-0.4921 1.1023,-0.4829 1.0793,-0.4747 1.0749,-0.4547 1.0006,-0.4661 0.9901,-0.4923 0.9557,-0.4801 0.9374,-0.4844 0.895,-0.512 0.8739,-0.5533 0.8648,-0.5499 0.8552,-0.5596 0.8453,-0.5501 0.8268,-0.5987 0.8048,-0.6099 0.7924,-0.631 0.8076,-0.6693 0.7863,-0.6844 0.7718,-0.7153 0.7683,-0.7488 0.7782,-0.7577 0.8058,-0.7374 0.8378,-0.7556 0.8433,-0.7493 0.8378,-0.7369 0.8529,-0.7278 0.8566,-0.7107 0.8922,-0.6903 0.942,-0.6921 0.9409,-0.7034Z" fill="#e8efe2"/><path d="M2.015,0.1429 2.0193,0.1473 2.0096,0.1551 1.9979,0.1431 2.015,0.1429Z M1.8509,0.0292 1.8644,0.0449 1.8617,0.0536 1.8349,0.0356 1.8406,0.0274 1.8509,0.0292Z M2.1499,0.0795 2.1501,0.0932 2.1406,0.0989 2.1499,0.0795Z M2.3628,0.0113 2.3803,0.019 2.3628,0.0113Z M2.3644,0.0278 2.3892,0.0314 2.3644,0.0278Z M2.2831,0.0 2.2923,0.0051 2.2731,0.0037 2.2831,0.0Z M2.2131,0.1343 2.1956,0.1397 2.2131,0.1343Z M1.6841,-0.0914 1.7026,-0.0911 1.7544,-0.0382 1.7637,-0.0395 1.7982,-0.0101 1.7898,-0.0038 1.8094,-0.0051 1.8054,0.0101 1.8218,0.0187 1.8265,0.0454 1.8396,0.0416 1.8511,0.0552 1.8457,0.1018 1.8263,0.0965 1.8256,0.1032 1.7729,0.0554 1.7209,-0.0325 1.7052,-0.0412 1.6619,-0.0965 1.6841,-0.0914Z M2.1429,0.1508 2.0911,0.1524 2.105,0.1443 2.1349,0.1512 2.1441,0.1417 2.1429,0.1508Z M2.0946,0.1643 2.1066,0.1791 2.0762,0.1669 2.0946,0.1643Z M2.0637,0.1457 2.0792,0.1519 2.0384,0.1579 2.0448,0.1466 2.059,0.153 2.0553,0.1427 2.0637,0.1457Z M2.1797,-0.0175 2.168,-0.0066 2.0977,-0.0047 2.0954,0.0098 2.1061,0.0239 2.122,0.0145 2.1543,0.0136 2.1181,0.0328 2.1445,0.0767 2.1221,0.0832 2.1227,0.0714 2.1099,0.0615 2.1127,0.048 2.1057,0.0466 2.0988,0.0533 2.1019,0.0977 2.0867,0.0981 2.0878,0.0704 2.0731,0.0475 2.0991,-0.0169 2.1132,-0.0232 2.163,-0.0148 2.1836,-0.0295 2.1797,-0.0175Z M1.874,0.1051 1.8986,0.1191 1.9274,0.1216 1.9343,0.1123 1.9642,0.1212 1.9724,0.1341 1.9968,0.1364 2.0001,0.153 1.8836,0.1351 1.8371,0.1197 1.8514,0.1033 1.874,0.1051Z M1.9134,-0.0354 1.9288,-0.015 1.9631,-0.0272 1.9986,-0.0253 2.019,-0.0732 2.0438,-0.0758 2.0556,-0.0644 2.0431,-0.0632 2.0607,-0.0405 2.0558,-0.0354 2.0766,-0.0171 2.0579,-0.0192 2.0518,0.0134 2.0295,0.0311 2.0291,0.0547 2.0017,0.0728 1.9956,0.0566 1.9846,0.0604 1.9727,0.0512 1.9523,0.062 1.9494,0.0505 1.9244,0.0519 1.9195,0.0222 1.9069,0.0141 1.9014,-0.0063 1.9038,-0.0262 1.9134,-0.0354Z M2.2293,-0.0148 2.2461,-0.0274 2.2386,-0.0127 2.2497,-0.0038 2.2321,-0.0052 2.2415,0.0155 2.2286,0.0042 2.2241,-0.0199 2.2347,-0.0384 2.2293,-0.0148Z M2.2646,0.0501 2.2789,0.0547 2.2831,0.0674 2.2661,0.0582 2.2363,0.0552 2.2323,0.0611 2.2375,0.0501 2.2646,0.0501Z M2.2141,0.054 2.2208,0.0606 2.2155,0.0657 2.1996,0.0587 2.2141,0.054Z M2.1803,0.1567 2.181,0.1696 2.1579,0.1809 2.1591,0.1685 2.1803,0.1567Z M2.418,0.1448 2.4024,0.147 2.41,0.1325 2.422,0.1293 2.418,0.1448Z M2.4604,0.0456 2.4606,0.1599 2.4456,0.1387 2.4241,0.1443 2.4216,0.1269 2.4291,0.1258 2.419,0.1214 2.4145,0.0993 2.396,0.0865 2.3382,0.0667 2.3359,0.0533 2.3197,0.0709 2.3169,0.0575 2.3033,0.0487 2.3335,0.0457 2.3373,0.0367 2.3092,0.0391 2.3026,0.0272 2.2864,0.0241 2.3106,0.0063 2.3382,0.0129 2.3421,0.0403 2.3606,0.0589 2.4052,0.0258 2.4604,0.0456Z M1.9869,0.1244 1.9675,0.1237 1.9869,0.1244Z" fill="#e8efe2"/><path d="M1.1898,-0.429 1.2001,-0.4376 1.2399,-0.4393 1.2137,-0.4921 1.2287,-0.51 1.2357,-0.5037 1.2544,-0.5086 1.3025,-0.5702 1.3013,-0.5863 1.3146,-0.5946 1.2915,-0.6147 1.2908,-0.6454 1.3214,-0.6422 1.3579,-0.6635 1.3785,-0.6371 1.3826,-0.6004 1.3682,-0.6012 1.3743,-0.5761 1.4135,-0.5541 1.3975,-0.5259 1.4439,-0.4999 1.5359,-0.4776 1.5383,-0.5084 1.5499,-0.5096 1.556,-0.4862 1.6057,-0.4868 1.5992,-0.5047 1.6153,-0.507 1.6514,-0.5354 1.6649,-0.5301 1.6762,-0.5383 1.6856,-0.5245 1.6804,-0.5175 1.6986,-0.5137 1.6909,-0.5013 1.6947,-0.4921 1.6788,-0.4948 1.6603,-0.4819 1.6429,-0.4294 1.6289,-0.4328 1.6216,-0.3936 1.6157,-0.3934 1.6101,-0.4256 1.5991,-0.4123 1.5912,-0.4237 1.6139,-0.4497 1.5678,-0.4565 1.565,-0.4743 1.5423,-0.4811 1.5373,-0.4681 1.5525,-0.4559 1.5362,-0.4438 1.5485,-0.4369 1.5542,-0.3872 1.5471,-0.396 1.538,-0.387 1.5348,-0.4007 1.535,-0.3906 1.516,-0.3795 1.5141,-0.3621 1.4879,-0.3519 1.4357,-0.2931 1.4013,-0.2777 1.3935,-0.1811 1.3778,-0.1678 1.386,-0.1611 1.3687,-0.1597 1.353,-0.1415 1.336,-0.156 1.28,-0.2913 1.2683,-0.3532 1.2673,-0.3836 1.276,-0.3891 1.2661,-0.3881 1.2708,-0.3981 1.2598,-0.3989 1.258,-0.3791 1.2343,-0.3702 1.2038,-0.3992 1.2249,-0.4045 1.2303,-0.4144 1.2085,-0.4098 1.1942,-0.4235 1.2004,-0.4288 1.1898,-0.429Z M1.6183,-0.2028 1.6242,-0.2387 1.6183,-0.2028Z" fill="#e8efe2"/><path d="M-0.2916,-0.2172 -0.2386,-0.2196 -0.2396,-0.2064 -0.2625,-0.1921 -0.2702,-0.2005 -0.263,-0.2039 -0.2705,-0.206 -0.2632,-0.2105 -0.2761,-0.2067 -0.2916,-0.2172Z" fill="#e8efe2"/><path d="M-0.1794,-0.1487 -0.1869,-0.1461 -0.1864,-0.1629 -0.1957,-0.1751 -0.2169,-0.1737 -0.232,-0.1586 -0.2389,-0.1742 -0.2627,-0.1902 -0.2562,-0.2023 -0.2396,-0.2064 -0.2396,-0.223 -0.2,-0.2185 -0.1869,-0.2092 -0.1578,-0.2181 -0.1391,-0.1795 -0.134,-0.1473 -0.1438,-0.1482 -0.1436,-0.1323 -0.1592,-0.1263 -0.1662,-0.1463 -0.1794,-0.1487Z" fill="#e8efe2"/><path d="M0.4088,-0.7394 0.429,-0.7184 0.3992,-0.7374 0.4088,-0.7394Z M0.4163,-0.6644 0.4594,-0.6597 0.4328,-0.6513 0.4117,-0.6584 0.4163,-0.6644Z M0.4594,-0.8026 0.4646,-0.7951 0.4557,-0.7801 0.4147,-0.7801 0.4248,-0.7663 0.4142,-0.7704 0.418,-0.7622 0.395,-0.7743 0.4072,-0.7441 0.3939,-0.7374 0.4184,-0.724 0.4199,-0.7116 0.4102,-0.7187 0.4021,-0.7153 0.41,-0.7056 0.3967,-0.7078 0.4042,-0.684 0.3794,-0.6929 0.3686,-0.7156 0.3735,-0.7224 0.4046,-0.7209 0.3697,-0.7258 0.3625,-0.7374 0.3686,-0.741 0.3543,-0.7477 0.3491,-0.7563 0.3658,-0.7824 0.4199,-0.7982 0.4524,-0.793 0.4594,-0.8026Z" fill="#e8efe2"/><path d="M-0.0012,-0.1953 0.012,-0.1463 0.0093,-0.1198 0.0208,-0.1065 -0.0349,-0.0832 -0.0543,-0.089 -0.048,-0.0949 -0.0565,-0.1191 -0.0438,-0.1438 -0.0494,-0.1932 -0.0012,-0.1953Z" fill="#e8efe2"/><path d="M-0.289,-0.2394 -0.2621,-0.2434 -0.2414,-0.2362 -0.2644,-0.2389 -0.2925,-0.2299 -0.2909,-0.2373 -0.2693,-0.2373 -0.289,-0.2394Z" fill="#e8efe2"/><path d="M0.232,-0.0377 0.2302,-0.0223 0.2475,-0.0239 0.2519,-0.0157 0.2419,0.0035 0.2525,0.0099 0.251,0.033 0.2442,0.0435 0.2204,0.0319 0.2173,0.0407 0.2026,0.0409 0.2073,0.0641 0.1943,0.0685 0.1679,0.0414 0.1518,0.0103 0.1623,0.0061 0.1632,-0.0059 0.1745,-0.0033 0.1627,-0.0096 0.1674,-0.018 0.1979,-0.0175 0.1981,-0.0402 0.232,-0.0377Z" fill="#e8efe2"/><path d="M0.1655,-0.8283 0.1604,-0.7947 0.1496,-0.8176 0.1655,-0.8283Z M0.133,-0.9468 0.1216,-0.9432 0.1042,-0.9116 0.1183,-0.9166 0.1248,-0.8908 0.1157,-0.8831 0.1204,-0.8652 0.1339,-0.8598 0.1307,-0.8513 0.1068,-0.8345 0.0682,-0.8463 0.0532,-0.8309 0.056,-0.8193 0.0354,-0.8174 -0.0255,-0.834 -0.0312,-0.8427 -0.0188,-0.8945 -0.0096,-0.8814 -0.0201,-0.9141 -0.036,-0.9268 -0.0384,-0.9357 -0.0304,-0.9373 -0.0752,-0.9528 -0.0817,-0.9585 -0.074,-0.9653 -0.0831,-0.9693 -0.0241,-0.9745 -0.0325,-1.002 0.0073,-0.9958 0.0033,-1.0026 0.0278,-1.0175 0.0291,-1.0351 0.044,-1.0409 0.0724,-1.0099 0.0848,-1.0145 0.0962,-0.9974 0.1419,-0.983 0.133,-0.9468Z M-0.9533,-0.0407 -0.9427,-0.0603 -0.9509,-0.0846 -0.9411,-0.1009 -0.9233,-0.0949 -0.9076,-0.076 -0.9046,-0.0811 -0.9015,-0.0709 -0.9198,-0.0412 -0.9533,-0.0407Z" fill="#e8efe2"/><path d="M3.1416,0.286 3.1339,0.2946 3.1404,0.2964 3.1154,0.2973 3.1416,0.286Z M3.1116,0.3079 3.1184,0.3209 3.0948,0.3209 3.098,0.311 3.1116,0.3079Z" fill="#e8efe2"/><path d="M0.6156,-0.096 0.6058,-0.1165 0.5761,-0.1392 0.595,-0.1503 0.5983,-0.1848 0.6306,-0.2246 0.6374,-0.2515 0.6554,-0.2493 0.6611,-0.2621 0.7124,-0.2488 0.7397,-0.2194 0.7295,-0.1928 0.7491,-0.1932 0.7477,-0.179 0.7676,-0.1579 0.8374,-0.1401 0.7844,-0.0858 0.7599,-0.0846 0.7309,-0.0695 0.7116,-0.0746 0.6892,-0.0604 0.6287,-0.0781 0.6156,-0.096Z" fill="#e8efe2"/><path d="M0.6374,-0.2515 0.6459,-0.3023 0.6739,-0.3196 0.6945,-0.267 0.6957,-0.2733 0.7187,-0.258 0.7526,-0.2237 0.7397,-0.2194 0.7006,-0.2551 0.6707,-0.2546 0.6611,-0.2621 0.6554,-0.2493 0.6374,-0.2515Z" fill="#e8efe2"/><path d="M0.1977,-0.0379 0.1979,-0.0175 0.1639,-0.0199 0.171,-0.0402 0.1977,-0.0379Z" fill="#e8efe2"/><path d="M0.6435,-0.3938 0.436,-0.3938 0.4337,-0.5763 0.4519,-0.5822 0.5074,-0.5661 0.5424,-0.5818 0.5566,-0.5806 0.5603,-0.5714 0.5969,-0.5761 0.6091,-0.5389 0.5973,-0.5047 0.5685,-0.5487 0.5648,-0.5419 0.6245,-0.4305 0.6231,-0.4117 0.6435,-0.3938Z" fill="#e8efe2"/><path d="M0.7549,-0.2021 0.7491,-0.1932 0.7295,-0.1928 0.7409,-0.2203 0.7526,-0.2237 0.7571,-0.2126 0.7421,-0.2033 0.7549,-0.2021Z" fill="#e8efe2"/><path d="M0.5709,-0.6565 0.5943,-0.6526 0.5761,-0.6437 0.5641,-0.6518 0.5709,-0.6565Z" fill="#e8efe2"/><path d="M-0.1395,-0.1783 -0.1225,-0.1779 -0.1091,-0.1882 -0.1068,-0.179 -0.097,-0.1832 -0.0808,-0.1703 -0.0562,-0.1737 -0.0471,-0.1662 -0.0438,-0.1438 -0.0565,-0.1191 -0.0492,-0.09 -0.0922,-0.0911 -0.1316,-0.076 -0.13,-0.1021 -0.1501,-0.1139 -0.1438,-0.1482 -0.134,-0.1473 -0.1395,-0.1783Z" fill="#e8efe2"/><path d="M0.5367,0.1434 0.5044,0.1487 0.4957,0.1616 0.4971,0.2076 0.5072,0.2172 0.5201,0.2138 0.5198,0.2368 0.5081,0.236 0.474,0.2035 0.4543,0.209 0.4414,0.1969 0.4255,0.2006 0.4184,0.1909 0.3889,0.1966 0.3801,0.1279 0.347,0.1223 0.3375,0.1396 0.3068,0.1418 0.2868,0.1032 0.2131,0.1007 0.2285,0.0804 0.234,0.0846 0.2506,0.0751 0.2567,0.0853 0.2791,0.0658 0.2831,0.0381 0.3098,0.0096 0.3245,-0.076 0.3328,-0.0855 0.3437,-0.0895 0.3588,-0.0779 0.3913,-0.0721 0.399,-0.0825 0.4732,-0.0909 0.492,-0.076 0.518,-0.0802 0.5393,-0.0604 0.5363,-0.0429 0.5458,-0.0375 0.5226,-0.0143 0.5163,0.0243 0.5037,0.0428 0.5156,0.1104 0.5367,0.1434Z" fill="#e8efe2"/><path d="M0.1943,0.0685 0.2073,0.0641 0.2026,0.0409 0.2173,0.0407 0.2204,0.0319 0.2442,0.0435 0.251,0.033 0.2525,0.0099 0.2419,0.0035 0.2519,-0.0157 0.2475,-0.0239 0.2302,-0.0223 0.232,-0.0377 0.2803,-0.0293 0.2899,-0.0613 0.3229,-0.0629 0.3098,0.0096 0.2831,0.0381 0.277,0.0686 0.2567,0.0853 0.2499,0.0751 0.234,0.0846 0.2234,0.0774 0.2098,0.0874 0.1943,0.0685Z" fill="#e8efe2"/><path d="M1.8844,-0.3846 1.8616,-0.3934 1.8637,-0.4085 1.8375,-0.4193 1.8141,-0.404 1.7752,-0.403 1.7755,-0.378 1.7666,-0.3791 1.7642,-0.3893 1.7479,-0.384 1.7439,-0.3943 1.7308,-0.3966 1.7368,-0.4119 1.7254,-0.4163 1.7251,-0.434 1.7027,-0.43 1.7073,-0.4557 1.7219,-0.4675 1.7218,-0.5009 1.7045,-0.5193 1.6804,-0.5175 1.6856,-0.5245 1.6762,-0.5383 1.6649,-0.5301 1.6514,-0.5354 1.6054,-0.5041 1.5691,-0.5151 1.5514,-0.496 1.5467,-0.5112 1.5008,-0.5076 1.4319,-0.556 1.4156,-0.5501 1.3743,-0.5761 1.3682,-0.6012 1.3826,-0.6004 1.3778,-0.639 1.3662,-0.6454 1.3621,-0.6631 1.3296,-0.6702 1.3237,-0.6884 1.2982,-0.6991 1.3111,-0.7045 1.3062,-0.7269 1.2881,-0.7316 1.2851,-0.7504 1.3062,-0.7739 1.332,-0.7709 1.3423,-0.7863 1.4005,-0.8101 1.3992,-0.825 1.4101,-0.8367 1.4043,-0.8752 1.394,-0.8784 1.4402,-0.8846 1.4366,-0.8953 1.4491,-0.9365 1.4919,-0.9332 1.4956,-0.9656 1.5174,-0.9865 1.5326,-0.9881 1.5355,-0.9722 1.5762,-0.9491 1.5881,-0.9252 1.5862,-0.8863 1.6642,-0.8637 1.6823,-0.8262 1.7715,-0.8219 1.8322,-0.7998 1.9268,-0.8274 1.9535,-0.8499 1.9443,-0.8659 1.953,-0.8829 1.9836,-0.8755 2.0497,-0.9212 2.0921,-0.9232 2.0682,-0.9569 2.0228,-0.9494 2.0164,-0.9609 2.0365,-1.0058 2.0572,-0.9974 2.0815,-1.0126 2.1075,-1.069 2.0951,-1.0867 2.1117,-1.103 2.1574,-1.1109 2.193,-1.096 2.2262,-1.0053 2.2785,-0.9801 2.2864,-0.9494 2.3504,-0.964 2.3518,-0.9502 2.3232,-0.8846 2.3012,-0.8895 2.286,-0.8774 2.2909,-0.8419 2.2782,-0.8219 2.2672,-0.8328 2.2637,-0.8198 2.2349,-0.8089 2.2366,-0.7949 2.2117,-0.8026 2.1689,-0.7611 2.1155,-0.7345 2.1262,-0.7491 2.1166,-0.7525 2.1342,-0.7753 2.1263,-0.7852 2.0766,-0.7443 2.0556,-0.7432 2.0536,-0.7273 2.0759,-0.7189 2.0789,-0.7004 2.1075,-0.7142 2.141,-0.7048 2.1352,-0.6923 2.0975,-0.6786 2.0799,-0.6496 2.0991,-0.6374 2.1092,-0.6037 2.1269,-0.5863 2.0951,-0.5888 2.107,-0.5896 2.1256,-0.5728 2.0977,-0.5541 2.1307,-0.5467 2.1207,-0.5389 2.1288,-0.5391 2.1197,-0.5318 2.1225,-0.5151 2.1075,-0.5096 2.0951,-0.4825 2.0872,-0.4854 2.0923,-0.4766 2.0794,-0.4725 2.0878,-0.4702 2.0878,-0.4584 2.0567,-0.4407 2.0605,-0.4365 2.0328,-0.4117 1.99,-0.4034 1.9813,-0.4146 1.9818,-0.3979 1.927,-0.3814 1.9258,-0.3618 1.9178,-0.3631 1.9186,-0.384 1.9124,-0.3879 1.9038,-0.3833 1.8933,-0.3919 1.8844,-0.3846Z M1.9354,-0.3562 1.9211,-0.3277 1.8972,-0.3294 1.8963,-0.3429 1.9069,-0.3542 1.9354,-0.3562Z" fill="#e8efe2"/><path d="M0.4185,-0.3471 0.4184,-0.2777 0.4002,-0.2744 0.381,-0.2251 0.3901,-0.2228 0.399,-0.1918 0.38,-0.1868 0.355,-0.16 0.3309,-0.1567 0.3245,-0.1411 0.2702,-0.1316 0.244,-0.1699 0.2731,-0.1756 0.2592,-0.2199 0.2347,-0.2537 0.27,-0.2995 0.2786,-0.3629 0.2649,-0.3848 0.2615,-0.4127 0.2789,-0.4212 0.4185,-0.3471Z" fill="#e8efe2"/><path d="M0.4215,-0.1519 0.4782,-0.0893 0.4456,-0.0928 0.399,-0.0825 0.3913,-0.0721 0.3403,-0.0897 0.3245,-0.076 0.3248,-0.0608 0.2909,-0.0618 0.2824,-0.0396 0.2571,-0.0804 0.252,-0.1065 0.2702,-0.1316 0.3245,-0.1411 0.3297,-0.1558 0.3601,-0.163 0.3847,-0.19 0.399,-0.1918 0.4128,-0.1722 0.4109,-0.1545 0.4215,-0.1519Z" fill="#e8efe2"/><path d="M0.1494,-0.0832 0.1581,-0.1051 0.177,-0.1225 0.1946,-0.1126 0.2012,-0.1165 0.2391,-0.1909 0.2545,-0.2026 0.2454,-0.2303 0.2534,-0.2285 0.2731,-0.1756 0.244,-0.1699 0.2716,-0.1355 0.2519,-0.1056 0.2628,-0.069 0.2803,-0.0508 0.2817,-0.03 0.2545,-0.0384 0.1723,-0.0386 0.1691,-0.0709 0.1571,-0.0714 0.1494,-0.0832Z" fill="#e8efe2"/><path d="M1.8766,-0.2596 1.8769,-0.2187 1.8474,-0.2046 1.8528,-0.1894 1.8335,-0.1916 1.8226,-0.1827 1.808,-0.1852 1.8069,-0.1958 1.8003,-0.1916 1.7858,-0.2385 1.7982,-0.2513 1.8288,-0.2546 1.8513,-0.2454 1.8541,-0.2555 1.8766,-0.2596Z" fill="#e8efe2"/><path d="M1.7474,-0.3623 1.7113,-0.3521 1.7061,-0.3303 1.6994,-0.329 1.726,-0.2893 1.7139,-0.2645 1.7303,-0.2418 1.7385,-0.2071 1.7202,-0.176 1.7258,-0.206 1.7071,-0.2623 1.7057,-0.2933 1.6904,-0.3085 1.689,-0.2959 1.6788,-0.297 1.6811,-0.291 1.6649,-0.2779 1.6642,-0.2848 1.6521,-0.2811 1.6528,-0.2922 1.6444,-0.2833 1.6509,-0.3116 1.6413,-0.3432 1.6394,-0.336 1.6317,-0.3447 1.6406,-0.346 1.6254,-0.3538 1.6088,-0.3804 1.6162,-0.3801 1.6157,-0.3934 1.6258,-0.3981 1.6289,-0.4328 1.6429,-0.4294 1.6603,-0.4819 1.6788,-0.4948 1.6947,-0.4921 1.6909,-0.5013 1.7024,-0.5195 1.7218,-0.5009 1.7233,-0.4856 1.7219,-0.4675 1.7031,-0.4465 1.7027,-0.43 1.7251,-0.434 1.7254,-0.4163 1.7368,-0.4119 1.7308,-0.3966 1.7439,-0.3943 1.749,-0.3836 1.7651,-0.3889 1.7474,-0.3623Z" fill="#e8efe2"/><path d="M0.5332,0.0419 0.5374,0.0571 0.5131,0.0777 0.5072,0.0454 0.5332,0.0419Z" fill="#e8efe2"/><path d="M0.0157,-0.193 -0.0494,-0.1932 -0.0483,-0.1652 -0.0562,-0.1737 -0.0808,-0.1703 -0.0963,-0.1831 -0.0923,-0.208 -0.0773,-0.2171 -0.0724,-0.2344 -0.0576,-0.2339 -0.0452,-0.251 -0.0117,-0.2661 0.0038,-0.2632 0.0075,-0.2463 0.0209,-0.2353 0.0173,-0.2296 0.0386,-0.2206 0.04,-0.2055 0.0157,-0.193Z" fill="#e8efe2"/><path d="M2.0077,-0.0856 2.0003,-0.0702 1.9907,-0.0802 2.0077,-0.0856Z" fill="#e8efe2"/><path d="M0.4409,0.3156 0.4568,0.3478 0.4831,0.3657 0.4882,0.3846 0.5124,0.3973 0.4739,0.4225 0.444,0.4646 0.4025,0.4569 0.3841,0.4827 0.362,0.4868 0.3629,0.4687 0.3487,0.4466 0.3487,0.3938 0.366,0.3938 0.366,0.3253 0.4053,0.3195 0.4119,0.3279 0.4409,0.3156Z" fill="#e8efe2"/><path d="M1.5992,-0.5047 1.6066,-0.4872 1.5666,-0.4838 1.5488,-0.4932 1.5704,-0.5155 1.5992,-0.5047Z" fill="#e8efe2"/><path d="M0.0283,-0.1088 0.0279,-0.1586 0.0138,-0.188 0.0503,-0.2176 0.0628,-0.2056 0.0668,-0.1862 0.0483,-0.1586 0.0473,-0.1114 0.0283,-0.1088Z" fill="#e8efe2"/><path d="M1.5542,-0.3955 1.5485,-0.4369 1.5362,-0.4438 1.5525,-0.4559 1.5373,-0.4681 1.5432,-0.4813 1.565,-0.4743 1.5678,-0.4565 1.6143,-0.449 1.591,-0.4252 1.5991,-0.4123 1.6101,-0.4256 1.6167,-0.3816 1.6094,-0.3818 1.6113,-0.3711 1.6033,-0.4004 1.5966,-0.4104 1.5874,-0.4051 1.5813,-0.4239 1.5748,-0.3906 1.5706,-0.4026 1.5633,-0.3894 1.5617,-0.399 1.5595,-0.3885 1.5542,-0.3955Z" fill="#e8efe2"/><path d="M2.499,0.2101 2.5091,0.2531 2.5215,0.251 2.5358,0.2638 2.5548,0.3375 2.5964,0.3618 2.6128,0.4021 2.6297,0.4017 2.6327,0.4214 2.6731,0.4694 2.6812,0.5227 2.6693,0.5783 2.6405,0.6228 2.6168,0.7076 2.581,0.7164 2.552,0.7342 2.5552,0.7437 2.5391,0.7233 2.5258,0.7255 2.5288,0.7158 2.5052,0.7363 2.4682,0.726 2.4396,0.7015 2.4387,0.6823 2.4255,0.6652 2.4309,0.661 2.4117,0.6659 2.4175,0.6533 2.4101,0.6352 2.4031,0.6558 2.389,0.658 2.4073,0.6228 2.4047,0.602 2.3953,0.6239 2.3675,0.6516 2.3428,0.6014 2.2888,0.5798 2.1977,0.5962 2.1684,0.6111 2.1557,0.63 2.0918,0.631 2.0522,0.655 2.0073,0.6371 2.007,0.6216 2.019,0.6147 2.0193,0.5837 1.9754,0.4737 1.9869,0.4799 1.9801,0.4625 1.9935,0.4759 1.9794,0.4365 1.99,0.3915 1.9921,0.4028 2.037,0.3685 2.1118,0.349 2.1354,0.3215 2.1351,0.3023 2.1462,0.291 2.1565,0.3107 2.1574,0.287 2.1776,0.2902 2.1712,0.2884 2.1719,0.2737 2.1827,0.2728 2.1789,0.2677 2.1879,0.267 2.1927,0.2515 2.1972,0.258 2.2,0.2465 2.2246,0.2474 2.2375,0.2603 2.2352,0.2708 2.2441,0.2607 2.2625,0.2674 2.2663,0.2618 2.2581,0.2538 2.2797,0.2187 2.3162,0.2131 2.3031,0.1964 2.3567,0.2144 2.3717,0.2078 2.3684,0.2147 2.377,0.2188 2.3831,0.2103 2.3902,0.2172 2.3817,0.233 2.3724,0.2342 2.364,0.2634 2.4304,0.3072 2.4524,0.3125 2.4681,0.2842 2.473,0.2172 2.4864,0.188 2.499,0.2101Z M2.6718,0.4654 2.6749,0.4457 2.6718,0.4654Z M2.2797,0.1999 2.2958,0.201 2.2855,0.2097 2.2756,0.1966 2.2797,0.1999Z M2.4016,0.6687 2.4106,0.671 2.3831,0.6719 2.4016,0.6687Z M2.5314,0.781 2.5538,0.7896 2.5869,0.7824 2.5827,0.8367 2.5709,0.8278 2.5634,0.8475 2.5489,0.846 2.5269,0.7956 2.5258,0.7783 2.5314,0.781Z" fill="#e8efe2"/><path d="M0.2281,0.0809 0.2131,0.1007 0.2098,0.0874 0.2281,0.0809Z M0.4184,0.1909 0.4182,0.2287 0.3836,0.2289 0.3847,0.2877 0.4081,0.3129 0.3622,0.3198 0.3211,0.3085 0.2447,0.3086 0.23,0.3006 0.2049,0.3057 0.219,0.2368 0.2374,0.2162 0.2417,0.1941 0.2269,0.1586 0.2335,0.1466 0.2147,0.1065 0.2868,0.1032 0.3068,0.1418 0.3375,0.1396 0.347,0.1223 0.3801,0.1279 0.388,0.1953 0.4184,0.1909Z" fill="#e8efe2"/><path d="M0.1497,-0.6947 0.1433,-0.6855 0.144,-0.6471 0.1309,-0.6281 0.1578,-0.5915 0.1712,-0.5328 0.1724,-0.4825 0.1644,-0.4731 0.1791,-0.443 0.2009,-0.4376 0.2089,-0.4225 0.1019,-0.3467 0.0569,-0.338 0.0546,-0.3536 0.0305,-0.3625 0.0201,-0.3769 -0.1515,-0.4954 -0.1515,-0.5231 -0.1443,-0.5289 -0.0646,-0.5683 -0.0658,-0.5837 -0.0215,-0.5923 -0.0387,-0.655 0.022,-0.6855 0.1497,-0.6947Z" fill="#e8efe2"/><path d="M1.161,-0.7037 1.2095,-0.6986 1.2371,-0.7282 1.2493,-0.716 1.2519,-0.689 1.2807,-0.7061 1.3071,-0.701 1.2432,-0.6769 1.25,-0.6567 1.2401,-0.6327 1.2198,-0.6319 1.2263,-0.6168 1.213,-0.6111 1.2092,-0.5888 1.1664,-0.5749 1.1551,-0.5461 1.1188,-0.5371 1.0619,-0.5465 1.0788,-0.5677 1.0762,-0.5773 1.0615,-0.5798 1.057,-0.612 1.0633,-0.6214 1.0557,-0.6336 1.0692,-0.6661 1.0928,-0.6577 1.1259,-0.6816 1.1313,-0.6988 1.1479,-0.7085 1.161,-0.7037Z" fill="#e8efe2"/><path d="M2.899,1.3345 0.3421,1.3345 0.3421,0.6486 0.363,0.6401 0.3805,0.6401 0.3944,0.6317 0.4328,0.6359 0.4468,0.6317 0.4503,0.6254 0.4608,0.6275 0.4869,0.6128 0.5288,0.5696 0.5463,0.5373 0.5655,0.5193 0.5742,0.4819 0.7941,0.4625 0.8238,0.447 0.8622,0.325 0.8622,0.3048 0.8692,0.2975 0.8692,0.2866 0.8779,0.2811 0.8814,0.2721 0.8709,0.2289 0.8604,0.211 0.8535,0.2074 0.7086,0.1878 0.7069,0.1825 0.6929,0.1754 0.6859,0.1471 0.6894,0.1207 0.6807,0.1137 0.6772,0.1032 0.7016,0.0471 0.7138,0.0402 0.7138,0.0349 0.7226,0.0332 0.7627,-0.0157 0.8046,-0.0436 0.8378,-0.0786 0.8849,-0.1613 0.8901,-0.1825 0.8971,-0.1825 1.2758,0.0122 1.3998,-0.1067 1.405,-0.1032 1.4207,-0.1084 1.4277,-0.1154 1.4294,-0.126 1.6616,-0.0961 1.665,-0.0856 1.6825,-0.0664 1.693,-0.0629 1.7052,-0.0419 1.7209,-0.0332 1.7314,-0.0052 1.7506,0.014 1.7645,0.0454 1.789,0.0734 1.8117,0.0874 1.8343,0.1154 1.8378,0.1137 1.8361,0.119 1.8535,0.1207 1.8588,0.1242 1.8588,0.1295 1.8884,0.1366 1.9076,0.1348 1.9426,0.1454 1.9775,0.1454 2.0089,0.156 2.0455,0.1595 2.0665,0.1524 2.0769,0.1701 2.0892,0.1719 2.1014,0.1807 2.1066,0.179 2.1171,0.1896 2.1433,0.1896 2.2148,0.2414 2.2096,0.2504 2.2009,0.2468 2.1974,0.2576 2.1921,0.2522 2.1852,0.2594 2.1886,0.2666 2.1817,0.2648 2.1782,0.2685 2.1834,0.2703 2.1817,0.2739 2.1782,0.2703 2.1712,0.2739 2.1729,0.283 2.1747,0.2793 2.1712,0.2884 2.1782,0.2902 2.1572,0.2866 2.1555,0.292 2.1625,0.2993 2.1607,0.303 2.1572,0.3012 2.1572,0.3103 2.145,0.2902 2.131,0.3085 2.1345,0.3231 2.1258,0.3286 2.1101,0.3508 2.0787,0.3564 2.0735,0.362 2.049,0.3694 2.0385,0.3675 2.0019,0.39 1.9932,0.4032 1.9897,0.3919 1.9844,0.4051 1.9862,0.4203 1.9792,0.4336 1.9792,0.4644 1.9879,0.476 1.9862,0.4819 1.9827,0.4819 1.9792,0.4722 1.9757,0.4741 1.9897,0.4956 1.9914,0.5094 2.0071,0.5373 2.0071,0.638 2.0176,0.6401 2.0333,0.6528 2.0595,0.6528 2.5621,0.8472 2.8972,1.0326 2.899,1.3345Z M1.9705,0.4625 1.9757,0.4722 1.9705,0.4625Z M1.782,0.0944 1.7872,0.0961 1.782,0.0944Z M1.7488,0.0489 1.7541,0.0576 1.7541,0.0524 1.7488,0.0489Z M1.7453,0.0489 1.7488,0.0471 1.7453,0.0436 1.7453,0.0489Z M1.7383,0.0349 1.7366,0.0384 1.7418,0.0419 1.7383,0.0349Z M1.7261,0.0297 1.7331,0.0297 1.7261,0.0157 1.7209,0.0209 1.7261,0.0297Z M1.7174,0.0 1.7174,0.0105 1.7174,0.0Z M1.7017,-0.0262 1.6947,-0.0244 1.7087,-0.0105 1.7087,-0.0175 1.7017,-0.0262Z M1.6738,-0.0506 1.6703,-0.0489 1.6738,-0.0454 1.6842,-0.0419 1.6738,-0.0506Z M1.2811,1.0977 1.2881,1.0977 1.2811,1.0977Z M1.2008,1.0026 1.2078,0.9972 1.2252,1.0026 1.2252,0.9972 1.2165,0.9945 1.2287,0.9945 1.2322,0.9891 1.213,0.9918 1.2113,0.9865 1.2147,0.9838 1.206,0.9865 1.2043,0.9759 1.2008,0.9785 1.2008,1.0026Z M1.0018,0.3657 1.0071,0.3657 1.0071,0.3564 1.0018,0.3601 1.0018,0.3657Z M0.9704,0.3731 0.9634,0.3769 0.9721,0.3825 0.9739,0.3769 0.9704,0.3731Z M0.6946,0.1348 0.6912,0.1401 0.6946,0.1348Z M0.6964,0.0856 0.6929,0.0856 0.6912,0.0944 0.6964,0.0926 0.6964,0.0856Z M0.6859,0.1102 0.6912,0.1119 0.6859,0.0996 0.6859,0.1102Z" fill="#e8453c" fill-opacity="0.5" stroke="#e8453c" stroke-width="0.0109"/></g></svg>