<svg xmlns="http://www.w3.org/2000/svg" viewBox="-2.182 -0.997 1.021 0.565" preserveAspectRatio="xMidYMid meet"><rect x="-2.182" y="-0.997" width="1.021" height="0.565" fill="#a9d2ea"/><g stroke="#7e96a9" stroke-width="0.0026" stroke-linejoin="round"><path d="M-1.5247,-0.6528 -1.4942,-0.6524 -1.4816,-0.5954 -1.486,-0.5867 -1.4835,-0.5696 -1.5289,-0.5696 -1.5249,-0.558 -1.53,-0.5544 -1.5361,-0.5633 -1.5427,-0.5568 -1.5441,-0.588 -1.5394,-0.6528 -1.5247,-0.6528Z" fill="#e8efe2"/><path d="M-1.9031,-0.696 -1.9033,-0.5763 -1.9385,-0.5763 -2.004,-0.6001 -1.9979,-0.6074 -2.0024,-0.6193 -1.9991,-0.6302 -1.9921,-0.6382 -2.0007,-0.6503 -2.0026,-0.6764 -1.9923,-0.6749 -1.9905,-0.696 -1.9031,-0.696Z" fill="#e8efe2"/><path d="M-1.6488,-0.6851 -1.5734,-0.6851 -1.5774,-0.6743 -1.5666,-0.6702 -1.5874,-0.6346 -1.5912,-0.6107 -1.6413,-0.6111 -1.6413,-0.6222 -1.649,-0.6241 -1.6488,-0.6851Z" fill="#e8efe2"/><path d="M-2.1508,-0.8094 -2.0944,-0.8092 -2.0944,-0.7403 -2.0007,-0.6528 -1.9921,-0.6382 -2.0024,-0.6193 -1.9988,-0.6057 -2.0443,-0.6012 -2.0502,-0.617 -2.0694,-0.6325 -2.1057,-0.6439 -2.1054,-0.655 -2.1276,-0.6812 -2.1281,-0.6956 -2.1366,-0.7012 -2.1365,-0.7213 -2.1457,-0.7187 -2.1705,-0.7688 -2.1679,-0.8092 -2.1508,-0.8094Z" fill="#e8efe2"/><path d="M-1.8836,-0.7859 -1.7811,-0.7859 -1.7809,-0.6958 -1.9031,-0.696 -1.9033,-0.7859 -1.8836,-0.7859Z" fill="#e8efe2"/><path d="M-1.275,-0.8101 -1.2531,-0.8096 -1.2531,-0.7954 -1.2856,-0.7856 -1.2826,-0.8103 -1.275,-0.8101Z" fill="#e8efe2"/><path d="M-1.4923,-0.5696 -1.4341,-0.5566 -1.4303,-0.5661 -1.4214,-0.5637 -1.3968,-0.4858 -1.405,-0.4547 -1.4151,-0.4532 -1.4198,-0.4667 -1.4256,-0.4671 -1.4322,-0.4874 -1.4355,-0.485 -1.4432,-0.4984 -1.438,-0.5062 -1.446,-0.5072 -1.4423,-0.5271 -1.4598,-0.5471 -1.4664,-0.5513 -1.4889,-0.5433 -1.5062,-0.5566 -1.5275,-0.555 -1.5289,-0.5696 -1.4923,-0.5696Z" fill="#e8efe2"/><path d="M-1.4505,-0.6528 -1.4546,-0.646 -1.4223,-0.6109 -1.4118,-0.5907 -1.4214,-0.5637 -1.4303,-0.5661 -1.432,-0.5566 -1.4813,-0.5637 -1.4854,-0.5753 -1.4816,-0.5954 -1.4942,-0.6524 -1.4505,-0.6528Z" fill="#e8efe2"/><path d="M-2.0255,-0.9838 -2.0255,-0.9569 -2.0197,-0.9424 -1.9953,-0.9227 -1.9993,-0.8953 -1.9864,-0.8963 -1.9703,-0.8664 -1.9441,-0.8755 -1.9382,-0.8686 -1.9382,-0.8092 -2.0426,-0.8092 -2.0403,-0.8608 -2.0462,-0.8664 -2.0326,-0.8968 -2.0431,-0.9148 -2.0426,-0.9838 -2.0255,-0.9838Z" fill="#e8efe2"/><path d="M-1.582,-0.8212 -1.5324,-0.8207 -1.5275,-0.8024 -1.5272,-0.7354 -1.5455,-0.6975 -1.5584,-0.6958 -1.5624,-0.7111 -1.5771,-0.7229 -1.5727,-0.7369 -1.5811,-0.7374 -1.5968,-0.7636 -1.5876,-0.784 -1.5891,-0.7954 -1.5739,-0.8047 -1.582,-0.8212Z" fill="#e8efe2"/><path d="M-1.5008,-0.8035 -1.4802,-0.8035 -1.4802,-0.7356 -1.491,-0.7342 -1.5017,-0.7171 -1.5062,-0.7218 -1.5364,-0.7136 -1.5272,-0.7354 -1.5275,-0.8024 -1.5008,-0.8035Z" fill="#e8efe2"/><path d="M-1.5947,-0.8448 -1.5895,-0.8269 -1.5732,-0.8092 -1.5767,-0.7996 -1.5891,-0.7954 -1.5876,-0.784 -1.5956,-0.7716 -1.601,-0.7771 -1.6715,-0.7764 -1.6865,-0.8259 -1.6834,-0.8448 -1.5947,-0.8448Z" fill="#e8efe2"/><path d="M-1.7787,-0.7629 -1.656,-0.759 -1.66,-0.7525 -1.6513,-0.7439 -1.6514,-0.696 -1.7809,-0.6958 -1.7787,-0.7629Z" fill="#e8efe2"/><path d="M-1.4643,-0.7351 -1.4467,-0.7349 -1.4306,-0.7078 -1.4607,-0.6868 -1.5607,-0.6851 -1.5539,-0.7006 -1.5432,-0.6993 -1.5347,-0.7156 -1.5207,-0.7133 -1.5062,-0.7218 -1.5017,-0.7171 -1.491,-0.7342 -1.4802,-0.7356 -1.4804,-0.7425 -1.4643,-0.7351Z" fill="#e8efe2"/><path d="M-1.6338,-0.6111 -1.5912,-0.6107 -1.5881,-0.5946 -1.5994,-0.5696 -1.5664,-0.5696 -1.5624,-0.5529 -1.568,-0.5483 -1.5584,-0.5469 -1.5656,-0.5395 -1.5533,-0.5328 -1.5593,-0.5301 -1.5682,-0.5389 -1.5725,-0.5322 -1.5848,-0.531 -1.6038,-0.5461 -1.6111,-0.5401 -1.6378,-0.5431 -1.6326,-0.5726 -1.6413,-0.5898 -1.6413,-0.6111 -1.6338,-0.6111Z" fill="#e8efe2"/><path d="M-1.2339,-0.8343 -1.2387,-0.841 -1.2406,-0.8888 -1.2263,-0.9035 -1.2217,-0.9237 -1.2083,-0.9435 -1.2025,-0.9362 -1.186,-0.9368 -1.1833,-0.8983 -1.169,-0.8764 -1.1938,-0.863 -1.2039,-0.8674 -1.2055,-0.8579 -1.2223,-0.8533 -1.2339,-0.8343Z" fill="#e8efe2"/><path d="M-1.3872,-0.7565 -1.3228,-0.7565 -1.321,-0.7282 -1.3099,-0.728 -1.3132,-0.7187 -1.3245,-0.716 -1.3238,-0.7226 -1.331,-0.7251 -1.3313,-0.7437 -1.3259,-0.7529 -1.3362,-0.7351 -1.3327,-0.7193 -1.3476,-0.726 -1.3423,-0.738 -1.3584,-0.7538 -1.3748,-0.7536 -1.3874,-0.745 -1.3872,-0.7565Z" fill="#e8efe2"/><path d="M-1.2378,-0.8302 -1.239,-0.8155 -1.2219,-0.8014 -1.2413,-0.7975 -1.2458,-0.8096 -1.283,-0.8113 -1.2788,-0.8269 -1.2378,-0.8302Z" fill="#e8efe2"/><path d="M-1.4565,-0.8028 -1.5153,-0.8035 -1.5055,-0.8195 -1.5102,-0.847 -1.5053,-0.8737 -1.4942,-0.8846 -1.4926,-0.8752 -1.4825,-0.9003 -1.4542,-0.8848 -1.4544,-0.8652 -1.4645,-0.8489 -1.4472,-0.8586 -1.4423,-0.8533 -1.4402,-0.8236 -1.4451,-0.8245 -1.4565,-0.8028Z M-1.5287,-0.8838 -1.5376,-0.9043 -1.5781,-0.9207 -1.539,-0.9435 -1.5352,-0.9414 -1.5436,-0.9263 -1.5341,-0.9293 -1.5132,-0.9174 -1.4846,-0.9255 -1.4841,-0.9184 -1.4683,-0.9197 -1.4659,-0.907 -1.457,-0.906 -1.5146,-0.9028 -1.5287,-0.8838Z M-1.55,-0.9569 -1.5567,-0.953 -1.5455,-0.9619 -1.55,-0.9569Z" fill="#e8efe2"/><path d="M-1.6059,-0.9242 -1.6108,-0.9232 -1.6108,-0.9083 -1.6209,-0.8993 -1.6169,-0.8923 -1.6198,-0.8752 -1.5958,-0.8567 -1.5921,-0.8448 -1.6834,-0.8448 -1.6834,-0.8888 -1.6905,-0.8963 -1.686,-0.9146 -1.697,-0.9838 -1.6607,-0.9838 -1.6574,-0.9937 -1.6509,-0.9764 -1.6228,-0.9737 -1.5982,-0.9585 -1.5855,-0.9637 -1.5642,-0.9577 -1.5837,-0.9479 -1.6059,-0.9242Z" fill="#e8efe2"/><path d="M-1.5441,-0.6528 -1.5376,-0.6505 -1.5427,-0.5568 -1.5624,-0.5529 -1.5664,-0.5696 -1.5994,-0.5696 -1.5881,-0.5946 -1.5923,-0.6224 -1.5762,-0.6528 -1.5441,-0.6528Z" fill="#e8efe2"/><path d="M-1.6027,-0.7769 -1.5956,-0.7716 -1.5947,-0.7568 -1.5823,-0.7387 -1.5727,-0.7369 -1.5771,-0.7229 -1.5624,-0.7111 -1.5556,-0.6956 -1.5661,-0.6743 -1.5774,-0.6743 -1.5734,-0.6851 -1.6514,-0.6851 -1.6513,-0.7439 -1.66,-0.7525 -1.656,-0.759 -1.6715,-0.7764 -1.6027,-0.7769Z" fill="#e8efe2"/><path d="M-1.816,-0.9838 -1.8158,-0.8814 -1.9382,-0.8814 -1.9382,-0.8686 -1.9441,-0.8755 -1.9703,-0.8664 -1.9864,-0.8963 -1.9993,-0.8953 -1.9953,-0.9227 -2.0197,-0.9424 -2.0255,-0.9569 -2.0255,-0.9838 -1.816,-0.9838Z" fill="#e8efe2"/><path d="M-1.8033,-0.8328 -1.7191,-0.8328 -1.6876,-0.8247 -1.6635,-0.7629 -1.7811,-0.7629 -1.7811,-0.7859 -1.816,-0.7859 -1.816,-0.8328 -1.8033,-0.8328Z" fill="#e8efe2"/><path d="M-2.0426,-0.8092 -1.9904,-0.8092 -1.9905,-0.6786 -2.0026,-0.6764 -2.0007,-0.6528 -2.0944,-0.7403 -2.0944,-0.8092 -2.0426,-0.8092Z" fill="#e8efe2"/><path d="M-1.2406,-0.8888 -1.2387,-0.841 -1.2339,-0.8343 -1.2444,-0.8257 -1.2647,-0.8264 -1.2572,-0.8647 -1.2406,-0.8888Z" fill="#e8efe2"/><path d="M-1.2957,-0.7891 -1.2898,-0.7859 -1.2963,-0.7741 -1.2915,-0.7723 -1.2933,-0.7575 -1.3055,-0.7401 -1.3188,-0.7545 -1.305,-0.7679 -1.3125,-0.7762 -1.3113,-0.7852 -1.3038,-0.7942 -1.2957,-0.7891Z" fill="#e8efe2"/><path d="M-1.8748,-0.696 -1.7977,-0.696 -1.7989,-0.59 -1.8609,-0.59 -1.8593,-0.5857 -1.8886,-0.5857 -1.8886,-0.5763 -1.9033,-0.5763 -1.9031,-0.696 -1.8748,-0.696Z" fill="#e8efe2"/><path d="M-1.28,-0.8816 -1.2788,-0.8269 -1.2825,-0.7907 -1.2868,-0.7882 -1.2584,-0.7856 -1.2905,-0.7753 -1.2898,-0.7859 -1.3153,-0.8092 -1.3921,-0.8092 -1.3921,-0.8155 -1.3762,-0.8276 -1.38,-0.8391 -1.3387,-0.841 -1.3306,-0.8455 -1.3319,-0.8618 -1.3139,-0.8777 -1.28,-0.8816Z" fill="#e8efe2"/><path d="M-1.4134,-0.6864 -1.3242,-0.6862 -1.3221,-0.6775 -1.3381,-0.673 -1.3226,-0.673 -1.3216,-0.6678 -1.3348,-0.6595 -1.3313,-0.6516 -1.335,-0.6456 -1.3537,-0.6405 -1.3608,-0.6285 -1.3708,-0.6285 -1.3907,-0.6486 -1.4102,-0.649 -1.4144,-0.656 -1.4717,-0.6526 -1.4621,-0.6648 -1.4319,-0.6769 -1.4256,-0.6871 -1.4134,-0.6864Z" fill="#e8efe2"/><path d="M-1.697,-0.9838 -1.6853,-0.9045 -1.816,-0.9048 -1.816,-0.9838 -1.697,-0.9838Z" fill="#e8efe2"/><path d="M-1.4053,-0.8087 -1.4107,-0.7563 -1.4293,-0.7374 -1.4319,-0.741 -1.4369,-0.728 -1.4804,-0.7425 -1.4802,-0.8019 -1.4565,-0.8028 -1.4395,-0.7947 -1.4053,-0.8087Z" fill="#e8efe2"/><path d="M-1.7469,-0.696 -1.6514,-0.696 -1.649,-0.6241 -1.6619,-0.6308 -1.6959,-0.6262 -1.7401,-0.6397 -1.7453,-0.6435 -1.7453,-0.6851 -1.7977,-0.6851 -1.7977,-0.696 -1.7469,-0.696Z" fill="#e8efe2"/><path d="M-2.1504,-0.9106 -2.1337,-0.895 -2.0768,-0.9063 -2.0406,-0.906 -2.0342,-0.9 -2.0462,-0.8664 -2.0403,-0.8608 -2.0426,-0.8092 -2.1679,-0.8092 -2.1738,-0.829 -2.1633,-0.909 -2.1504,-0.9106Z" fill="#e8efe2"/><path d="M-1.3921,-0.8151 -1.3921,-0.8092 -1.3153,-0.8092 -1.3038,-0.7942 -1.3127,-0.7787 -1.305,-0.7679 -1.3228,-0.7565 -1.4053,-0.7565 -1.4053,-0.8087 -1.3921,-0.8151Z" fill="#e8efe2"/><path d="M-1.2484,-0.8096 -1.243,-0.8024 -1.2542,-0.7933 -1.2531,-0.8094 -1.2484,-0.8096Z" fill="#e8efe2"/><path d="M-1.4444,-0.6543 -1.4144,-0.656 -1.4102,-0.649 -1.3907,-0.6486 -1.3708,-0.6285 -1.4118,-0.5907 -1.4223,-0.6109 -1.4546,-0.646 -1.4444,-0.6543Z" fill="#e8efe2"/><path d="M-1.816,-0.9048 -1.6853,-0.9045 -1.6905,-0.8963 -1.6834,-0.8888 -1.6834,-0.8207 -1.7191,-0.8328 -1.816,-0.8328 -1.816,-0.9048Z" fill="#e8efe2"/><path d="M-1.5368,-0.6851 -1.4256,-0.6871 -1.4319,-0.6769 -1.4621,-0.6648 -1.4717,-0.6526 -1.5762,-0.6528 -1.5628,-0.6851 -1.5368,-0.6851Z" fill="#e8efe2"/><path d="M-1.7769,-0.6851 -1.7453,-0.6851 -1.7453,-0.6435 -1.7401,-0.6397 -1.6959,-0.6262 -1.6619,-0.6308 -1.6413,-0.6222 -1.6413,-0.5898 -1.6326,-0.5726 -1.6378,-0.5431 -1.6497,-0.5403 -1.6535,-0.5451 -1.6647,-0.5267 -1.687,-0.5233 -1.6825,-0.5181 -1.689,-0.5175 -1.7024,-0.4942 -1.6968,-0.47 -1.7284,-0.4782 -1.7363,-0.4991 -1.7699,-0.5443 -1.7862,-0.5467 -1.8026,-0.5289 -1.824,-0.5421 -1.8328,-0.5633 -1.8612,-0.588 -1.7989,-0.59 -1.7984,-0.6851 -1.7769,-0.6851Z" fill="#e8efe2"/><path d="M-1.9576,-0.8092 -1.9382,-0.8092 -1.9382,-0.7859 -1.9033,-0.7859 -1.9031,-0.696 -1.9905,-0.696 -1.9904,-0.8092 -1.9576,-0.8092Z" fill="#e8efe2"/><path d="M-1.2479,-0.8816 -1.2633,-0.8465 -1.2647,-0.8264 -1.2788,-0.8269 -1.28,-0.8816 -1.2479,-0.8816Z" fill="#e8efe2"/><path d="M-1.316,-0.7182 -1.3259,-0.6986 -1.3254,-0.7083 -1.316,-0.7182Z M-1.3675,-0.7507 -1.346,-0.7387 -1.3488,-0.7255 -1.3306,-0.7156 -1.3312,-0.6977 -1.3381,-0.6975 -1.3263,-0.6942 -1.3242,-0.6862 -1.4603,-0.6873 -1.4306,-0.7078 -1.4256,-0.7004 -1.4015,-0.7072 -1.3902,-0.7311 -1.3842,-0.7271 -1.3675,-0.7507Z" fill="#e8efe2"/><path d="M-2.0426,-0.9838 -2.0406,-0.906 -2.1426,-0.8978 -2.145,-0.9083 -2.1654,-0.9146 -2.1625,-0.9199 -2.1766,-0.9622 -2.1747,-0.9674 -2.1433,-0.9598 -2.1366,-0.9398 -2.1333,-0.9582 -2.1426,-0.9838 -2.0426,-0.9838Z M-2.1473,-0.9727 -2.1434,-0.9685 -2.1473,-0.9727Z" fill="#e8efe2"/><path d="M-1.4053,-0.7776 -1.4053,-0.7565 -1.3872,-0.7565 -1.3874,-0.745 -1.3643,-0.7559 -1.3565,-0.7475 -1.3584,-0.7432 -1.3675,-0.7507 -1.3842,-0.7271 -1.3902,-0.7311 -1.4015,-0.7072 -1.4256,-0.7004 -1.4399,-0.7164 -1.4415,-0.7273 -1.4107,-0.7563 -1.4053,-0.7776Z" fill="#e8efe2"/><path d="M-1.5781,-0.9207 -1.5321,-0.8983 -1.534,-0.8903 -1.5287,-0.8838 -1.5366,-0.8706 -1.519,-0.8868 -1.5314,-0.854 -1.5324,-0.8207 -1.582,-0.8212 -1.5895,-0.8269 -1.5958,-0.8567 -1.6198,-0.8752 -1.6169,-0.8923 -1.6209,-0.8993 -1.6108,-0.9083 -1.6108,-0.9232 -1.5855,-0.9306 -1.5781,-0.9207Z" fill="#e8efe2"/><path d="M-1.9038,-0.8814 -1.8162,-0.8814 -1.816,-0.7859 -1.9382,-0.7859 -1.9382,-0.8814 -1.9038,-0.8814Z" fill="#e8efe2"/><path d="M-1.3162,-0.7584 -1.3196,-0.7543 -1.3193,-0.7507 -1.316,-0.7419 -1.3106,-0.7358 -1.3099,-0.728 -1.321,-0.7282 -1.3228,-0.7565 -1.3198,-0.759 -1.3162,-0.7584Z" fill="#e8453c"/></g></svg>