<svg xmlns="http://www.w3.org/2000/svg" viewBox="0.620 0.124 0.698 0.531" preserveAspectRatio="xMidYMid meet"><rect x="0.620" y="0.124" width="0.698" height="0.531" fill="#a9d2ea"/><g stroke="#7e96a9" stroke-width="0.0017" stroke-linejoin="round"><path d="M0.5746,0.165 0.5405,0.1498 0.5156,0.1104 0.5131,0.0777 0.5377,0.0559 0.5309,0.0492 0.539,0.0374 0.5327,0.0185 0.5931,0.0175 0.6569,0.0533 0.6564,0.0611 0.6845,0.0819 0.6772,0.1061 0.6903,0.1228 0.6859,0.1478 0.6934,0.1754 0.7062,0.1836 0.6552,0.2053 0.6102,0.2035 0.599,0.1706 0.5746,0.165Z" fill="#e8efe2"/><path d="M0.5124,0.3973 0.5461,0.4013 0.558,0.439 0.5576,0.4694 0.5447,0.4671 0.5377,0.4856 0.554,0.4958 0.5583,0.4862 0.574,0.4868 0.5651,0.5193 0.5287,0.569 0.4862,0.6118 0.4463,0.6325 0.3936,0.6319 0.3494,0.6484 0.3272,0.6333 0.3222,0.639 0.3115,0.6072 0.3199,0.6004 0.3178,0.5847 0.2871,0.5217 0.2955,0.5108 0.3046,0.5233 0.336,0.5273 0.3487,0.5183 0.3487,0.4466 0.3629,0.4687 0.3611,0.4862 0.3786,0.4866 0.4018,0.457 0.444,0.4646 0.4739,0.4225 0.5124,0.3973Z M0.5016,0.5513 0.513,0.5346 0.4997,0.5209 0.4721,0.5425 0.4843,0.5614 0.5016,0.5513Z" fill="#e8efe2"/><path d="M3.0215,0.7924 3.0433,0.7882 3.0407,0.8056 3.0112,0.8439 3.0206,0.8538 3.0027,0.8496 2.9887,0.8632 2.9807,0.903 2.9514,0.9222 2.9058,0.9053 2.9386,0.8588 2.9847,0.8302 3.0067,0.7803 3.0184,0.7748 3.0215,0.7924Z M3.0241,0.6513 3.0425,0.6582 3.0494,0.6925 3.0638,0.7004 3.0624,0.6847 3.0737,0.7103 3.092,0.7178 3.1161,0.7111 3.1051,0.7457 3.0906,0.7452 3.0864,0.7666 3.0597,0.8 3.048,0.793 3.0571,0.7654 3.0327,0.7475 3.0473,0.7356 3.0531,0.7136 3.0472,0.6982 3.0531,0.6977 3.0144,0.6414 3.0241,0.6513Z" fill="#e8efe2"/><path d="M0.5461,0.4013 0.566,0.3806 0.5758,0.356 0.5751,0.2959 0.5313,0.283 0.5276,0.2647 0.5794,0.247 0.5871,0.2571 0.6,0.2544 0.5978,0.281 0.6156,0.3033 0.6264,0.2629 0.6032,0.2353 0.6042,0.2042 0.6552,0.2053 0.7062,0.1836 0.7079,0.2733 0.6953,0.291 0.6048,0.3508 0.6203,0.3994 0.6194,0.433 0.5723,0.4632 0.574,0.4868 0.5604,0.4866 0.5583,0.4405 0.5461,0.4013Z" fill="#e8efe2"/><path d="M0.5794,0.247 0.5702,0.2394 0.5849,0.2172 0.5805,0.1912 0.5875,0.1852 0.5749,0.1648 0.6025,0.176 0.6102,0.2035 0.5997,0.2138 0.6032,0.2353 0.6264,0.2629 0.6156,0.3033 0.5978,0.281 0.6023,0.2576 0.5871,0.2571 0.5794,0.247Z" fill="#e8efe2"/><path d="M0.8646,0.2187 0.881,0.2719 0.8763,0.2822 0.8667,0.2742 0.8687,0.2979 0.8234,0.4468 0.7891,0.4619 0.7686,0.4509 0.755,0.4009 0.7749,0.3549 0.7676,0.3083 0.7756,0.2873 0.8098,0.2815 0.8264,0.2607 0.8371,0.2589 0.836,0.242 0.8517,0.2337 0.8517,0.2188 0.8589,0.2124 0.8646,0.2187Z" fill="#e8efe2"/><path d="M0.1655,-0.8283 0.1604,-0.7947 0.1496,-0.8176 0.1655,-0.8283Z M0.133,-0.9468 0.1216,-0.9432 0.1042,-0.9116 0.1183,-0.9166 0.1248,-0.8908 0.1157,-0.8831 0.1204,-0.8652 0.1339,-0.8598 0.1307,-0.8513 0.1068,-0.8345 0.0682,-0.8463 0.0532,-0.8309 0.056,-0.8193 0.0354,-0.8174 -0.0255,-0.834 -0.0312,-0.8427 -0.0188,-0.8945 -0.0096,-0.8814 -0.0201,-0.9141 -0.036,-0.9268 -0.0384,-0.9357 -0.0304,-0.9373 -0.0752,-0.9528 -0.0817,-0.9585 -0.074,-0.9653 -0.0831,-0.9693 -0.0241,-0.9745 -0.0325,-1.002 0.0073,-0.9958 0.0033,-1.0026 0.0278,-1.0175 0.0291,-1.0351 0.044,-1.0409 0.0724,-1.0099 0.0848,-1.0145 0.0962,-0.9974 0.1419,-0.983 0.133,-0.9468Z M-0.9533,-0.0407 -0.9427,-0.0603 -0.9509,-0.0846 -0.9411,-0.1009 -0.9233,-0.0949 -0.9076,-0.076 -0.9046,-0.0811 -0.9015,-0.0709 -0.9198,-0.0412 -0.9533,-0.0407Z" fill="#e8efe2"/><path d="M3.1416,0.286 3.1339,0.2946 3.1404,0.2964 3.1154,0.2973 3.1416,0.286Z M3.1116,0.3079 3.1184,0.3209 3.0948,0.3209 3.098,0.311 3.1116,0.3079Z" fill="#e8efe2"/><circle cx="0.969" cy="0.377" r="0.013" fill="#e8453c" stroke="#fff" stroke-width="0.0017"/></g></svg>