<svg xmlns="http://www.w3.org/2000/svg" viewBox="-1.393 -0.021 0.553 0.342" preserveAspectRatio="xMidYMid meet"><rect x="-1.393" y="-0.021" width="0.553" height="0.342" fill="#a9d2ea"/><g stroke="#7e96a9" stroke-width="0.0014" stroke-linejoin="round"><path d="M-1.0475,-0.1498 -1.0446,-0.1445 -1.0598,-0.132 -1.0533,-0.1225 -1.0673,-0.117 -1.0715,-0.1039 -1.0582,-0.0855 -1.0971,-0.0627 -1.1308,-0.0748 -1.1179,-0.0436 -1.1064,-0.0388 -1.1442,-0.012 -1.1673,-0.0213 -1.173,-0.0417 -1.1844,-0.0487 -1.1748,-0.0597 -1.1844,-0.0788 -1.1777,-0.1081 -1.2118,-0.107 -1.2235,-0.1214 -1.2568,-0.123 -1.2706,-0.1597 -1.2805,-0.1611 -1.2687,-0.1903 -1.2448,-0.2085 -1.2559,-0.2033 -1.2495,-0.1871 -1.2586,-0.1722 -1.2512,-0.159 -1.2434,-0.1606 -1.2474,-0.1925 -1.2182,-0.2015 -1.2268,-0.209 -1.2217,-0.2142 -1.2153,-0.2017 -1.1938,-0.196 -1.1893,-0.1841 -1.1563,-0.1866 -1.1367,-0.1767 -1.1123,-0.1843 -1.1222,-0.1868 -1.08,-0.1886 -1.098,-0.1848 -1.0877,-0.1715 -1.061,-0.1641 -1.0755,-0.1507 -1.0475,-0.1498Z" fill="#e8efe2"/><path d="M-1.2212,0.0741 -1.2357,0.0728 -1.2722,0.0895 -1.2765,0.1132 -1.2915,0.1323 -1.2736,0.1576 -1.2778,0.165 -1.2633,0.1667 -1.2598,0.1754 -1.2312,0.1655 -1.2329,0.1934 -1.2144,0.1923 -1.1989,0.2199 -1.2116,0.2757 -1.2015,0.2891 -1.2291,0.3259 -1.3252,0.2582 -1.3746,0.151 -1.3961,0.1184 -1.4162,0.106 -1.4116,0.0986 -1.4197,0.0816 -1.4018,0.0592 -1.4046,0.0774 -1.3793,0.0869 -1.3675,0.0594 -1.3189,0.0267 -1.3135,0.0098 -1.32,0.0021 -1.3128,0.0007 -1.273,0.0417 -1.2387,0.0386 -1.2235,0.0464 -1.2346,0.066 -1.2212,0.0741Z" fill="#e8efe2"/><path d="M3.0215,0.7924 3.0433,0.7882 3.0407,0.8056 3.0112,0.8439 3.0206,0.8538 3.0027,0.8496 2.9887,0.8632 2.9807,0.903 2.9514,0.9222 2.9058,0.9053 2.9386,0.8588 2.9847,0.8302 3.0067,0.7803 3.0184,0.7748 3.0215,0.7924Z M3.0241,0.6513 3.0425,0.6582 3.0494,0.6925 3.0638,0.7004 3.0624,0.6847 3.0737,0.7103 3.092,0.7178 3.1161,0.7111 3.1051,0.7457 3.0906,0.7452 3.0864,0.7666 3.0597,0.8 3.048,0.793 3.0571,0.7654 3.0327,0.7475 3.0473,0.7356 3.0531,0.7136 3.0472,0.6982 3.0531,0.6977 3.0144,0.6414 3.0241,0.6513Z" fill="#e8efe2"/><path d="M-1.0601,-0.0909 -1.0715,-0.1039 -1.0673,-0.117 -1.0533,-0.1225 -1.0598,-0.132 -1.0446,-0.1445 -1.0475,-0.1498 -1.0212,-0.1295 -1.024,-0.1118 -1.0175,-0.1204 -0.9989,-0.1081 -0.9985,-0.0909 -1.0102,-0.0853 -1.0132,-0.0716 -0.9858,-0.0339 -1.0338,-0.0241 -1.047,-0.047 -1.042,-0.0765 -1.0498,-0.0791 -1.0496,-0.0916 -1.0601,-0.0909Z" fill="#e8efe2"/><path d="M0.1655,-0.8283 0.1604,-0.7947 0.1496,-0.8176 0.1655,-0.8283Z M0.133,-0.9468 0.1216,-0.9432 0.1042,-0.9116 0.1183,-0.9166 0.1248,-0.8908 0.1157,-0.8831 0.1204,-0.8652 0.1339,-0.8598 0.1307,-0.8513 0.1068,-0.8345 0.0682,-0.8463 0.0532,-0.8309 0.056,-0.8193 0.0354,-0.8174 -0.0255,-0.834 -0.0312,-0.8427 -0.0188,-0.8945 -0.0096,-0.8814 -0.0201,-0.9141 -0.036,-0.9268 -0.0384,-0.9357 -0.0304,-0.9373 -0.0752,-0.9528 -0.0817,-0.9585 -0.074,-0.9653 -0.0831,-0.9693 -0.0241,-0.9745 -0.0325,-1.002 0.0073,-0.9958 0.0033,-1.0026 0.0278,-1.0175 0.0291,-1.0351 0.044,-1.0409 0.0724,-1.0099 0.0848,-1.0145 0.0962,-0.9974 0.1419,-0.983 0.133,-0.9468Z M-0.9533,-0.0407 -0.9427,-0.0603 -0.9509,-0.0846 -0.9411,-0.1009 -0.9233,-0.0949 -0.9076,-0.076 -0.9046,-0.0811 -0.9015,-0.0709 -0.9198,-0.0412 -0.9533,-0.0407Z" fill="#e8efe2"/><path d="M3.1416,0.286 3.1339,0.2946 3.1404,0.2964 3.1154,0.2973 3.1416,0.286Z M3.1116,0.3079 3.1184,0.3209 3.0948,0.3209 3.098,0.311 3.1116,0.3079Z" fill="#e8efe2"/><path d="M-1.3139,0.0019 -1.32,0.0021 -1.3135,0.0098 -1.3189,0.0267 -1.3675,0.0594 -1.3793,0.0869 -1.4046,0.0774 -1.3916,0.045 -1.3935,0.0361 -1.4012,0.0473 -1.4125,0.0396 -1.412,0.0189 -1.4012,0.0108 -1.397,-0.0145 -1.3764,-0.0255 -1.3509,-0.0068 -1.3319,-0.0079 -1.3139,0.0019Z M-1.593,-0.0005 -1.5848,0.0131 -1.5905,0.0178 -1.597,0.015 -1.5903,0.0098 -1.5987,0.0 -1.593,-0.0005Z" fill="#e8efe2"/><path d="M-1.2448,-0.2085 -1.2687,-0.1903 -1.2805,-0.1611 -1.2706,-0.1597 -1.2568,-0.123 -1.2235,-0.1214 -1.2118,-0.107 -1.1777,-0.1081 -1.1844,-0.0788 -1.1748,-0.0597 -1.1844,-0.0487 -1.173,-0.0417 -1.1673,-0.0237 -1.1764,-0.037 -1.2191,-0.0298 -1.2191,-0.0185 -1.2069,-0.0115 -1.2226,-0.0101 -1.2113,0.0208 -1.2212,0.0741 -1.2346,0.066 -1.2235,0.0464 -1.2387,0.0386 -1.273,0.0417 -1.3055,0.0035 -1.3509,-0.0068 -1.3793,-0.0283 -1.3453,-0.0683 -1.353,-0.0735 -1.3504,-0.1151 -1.3596,-0.1265 -1.3474,-0.1396 -1.3518,-0.1501 -1.3402,-0.1388 -1.342,-0.151 -1.3202,-0.1657 -1.3214,-0.1779 -1.3062,-0.1951 -1.2985,-0.1891 -1.294,-0.1989 -1.2795,-0.1985 -1.2516,-0.2185 -1.2437,-0.2171 -1.2448,-0.2085Z" fill="#e8efe2"/><path d="M-1.2291,0.3259 -1.2132,0.3105 -1.2058,0.3204 -1.1847,0.4093 -1.1695,0.4127 -1.1757,0.4323 -1.1957,0.4438 -1.1924,0.4891 -1.2158,0.5175 -1.2189,0.5529 -1.2308,0.5726 -1.2191,0.6363 -1.2315,0.6582 -1.2287,0.6756 -1.2425,0.6925 -1.2366,0.73 -1.2518,0.7547 -1.2523,0.8103 -1.2591,0.8229 -1.2535,0.8662 -1.242,0.8706 -1.2577,0.8757 -1.2453,0.8871 -1.2523,0.8958 -1.2514,0.9227 -1.2673,0.9782 -1.2842,0.9993 -1.2767,1.0309 -1.2626,1.0293 -1.2638,1.0532 -1.2552,1.0659 -1.1949,1.0744 -1.2357,1.0882 -1.2444,1.1206 -1.2638,1.105 -1.253,1.1088 -1.2432,1.0893 -1.2662,1.1082 -1.275,1.1018 -1.2694,1.0879 -1.2481,1.0836 -1.269,1.0816 -1.2762,1.0969 -1.2854,1.0902 -1.2762,1.0801 -1.2917,1.0844 -1.2968,1.0696 -1.2657,1.0736 -1.2699,1.054 -1.2771,1.0507 -1.2671,1.0605 -1.2832,1.0673 -1.295,1.0571 -1.2905,1.0456 -1.3106,1.0293 -1.3027,1.0205 -1.2882,1.0365 -1.2854,1.0241 -1.2912,1.0334 -1.3025,1.0159 -1.2888,1.0001 -1.2903,0.9843 -1.298,0.9945 -1.2917,0.97 -1.3017,0.9575 -1.2807,0.9622 -1.2867,0.9486 -1.3022,0.9512 -1.2938,0.9468 -1.2999,0.9427 -1.297,0.9263 -1.3214,0.9242 -1.2908,0.8913 -1.2984,0.9118 -1.287,0.9015 -1.2889,0.9207 -1.2868,0.8933 -1.2729,0.8925 -1.2811,0.8838 -1.2685,0.8713 -1.2788,0.861 -1.2704,0.8162 -1.2638,0.8184 -1.2709,0.8071 -1.2622,0.7975 -1.287,0.8031 -1.2912,0.7852 -1.2781,0.7452 -1.2856,0.7034 -1.2605,0.655 -1.247,0.6037 -1.2483,0.5279 -1.2331,0.4766 -1.2231,0.3818 -1.2291,0.3259Z M-1.1978,1.0847 -1.1982,1.1497 -1.2549,1.1421 -1.2271,1.14 -1.2367,1.1274 -1.231,1.1132 -1.2312,1.1283 -1.2086,1.1409 -1.2243,1.1209 -1.2111,1.1056 -1.2275,1.1059 -1.2284,1.0876 -1.1978,1.0847Z M-1.1708,1.1588 -1.1921,1.1536 -1.1708,1.1588Z M-1.2875,0.8412 -1.2984,0.8383 -1.2922,0.8045 -1.2814,0.8136 -1.2875,0.8412Z M-1.2999,0.9878 -1.3018,1.011 -1.3041,0.995 -1.3186,1.005 -1.3073,0.9766 -1.2999,0.9878Z M-1.2984,1.0925 -1.2765,1.105 -1.3039,1.0876 -1.2984,1.0925Z M-1.2727,1.1088 -1.2603,1.1185 -1.2718,1.128 -1.2889,1.1109 -1.2727,1.1088Z M-1.2165,1.1518 -1.1949,1.153 -1.1877,1.1739 -1.2214,1.1588 -1.2165,1.1518Z M-1.246,1.1251 -1.2392,1.1316 -1.2603,1.1257 -1.246,1.1251Z M-1.287,0.8664 -1.2872,0.8881 -1.2933,0.8895 -1.3024,0.8728 -1.2914,0.8603 -1.287,0.8664Z M-1.239,1.1503 -1.2266,1.1564 -1.2469,1.1509 -1.239,1.1503Z" fill="#e8efe2"/><path d="M-1.1673,-0.0213 -1.1427,-0.012 -1.1071,-0.0377 -1.1179,-0.0436 -1.1308,-0.0748 -1.0971,-0.0627 -1.0945,-0.0702 -1.0647,-0.0793 -1.0585,-0.0912 -1.047,-0.0888 -1.0498,-0.0791 -1.0393,-0.0686 -1.0472,-0.0484 -1.043,-0.0332 -1.0273,-0.0209 -0.9969,-0.0351 -0.9767,-0.0325 -0.977,-0.044 -0.9243,-0.0381 -0.8981,-0.0753 -0.8709,-0.0202 -0.9072,0.0239 -0.9191,0.0271 -0.8882,0.0164 -0.8796,0.0353 -0.8606,0.0302 -0.8664,0.0464 -0.8399,0.0129 -0.825,0.0113 -0.7793,0.0305 -0.7805,0.0559 -0.772,0.0431 -0.7713,0.0491 -0.7571,0.0416 -0.6974,0.0499 -0.6487,0.0858 -0.6205,0.0897 -0.6151,0.0974 -0.6103,0.1473 -0.6674,0.226 -0.6781,0.2251 -0.6833,0.314 -0.7156,0.3938 -0.7337,0.4117 -0.7791,0.4138 -0.8412,0.459 -0.8505,0.458 -0.8447,0.4625 -0.8517,0.5209 -0.9083,0.5923 -0.8828,0.5582 -0.8954,0.5499 -0.895,0.5645 -0.9315,0.6262 -0.9273,0.6053 -0.9383,0.5913 -0.9704,0.5665 -0.9774,0.5712 -0.9919,0.5515 -1.0055,0.5531 -0.9727,0.5133 -0.9397,0.4921 -0.9367,0.4747 -0.9427,0.4621 -0.9533,0.4621 -0.9467,0.4327 -0.9673,0.4307 -0.9739,0.4004 -1.0121,0.3947 -1.0146,0.3516 -1.0036,0.3233 -1.0193,0.3054 -1.0184,0.288 -1.0503,0.2879 -1.0561,0.243 -1.1343,0.2106 -1.1414,0.1703 -1.1976,0.1951 -1.2329,0.1934 -1.2312,0.1655 -1.2598,0.1754 -1.2633,0.1667 -1.2778,0.165 -1.2736,0.1576 -1.2915,0.1323 -1.2765,0.1132 -1.2722,0.0895 -1.2357,0.0728 -1.2212,0.0751 -1.2113,0.0208 -1.2226,-0.0101 -1.2069,-0.0115 -1.2191,-0.0185 -1.2191,-0.0298 -1.1764,-0.037 -1.1673,-0.0213Z M-0.8662,0.004 -0.8446,0.0052 -0.8522,0.0243 -0.8816,0.0312 -0.884,0.0047 -0.8662,0.004Z" fill="#e8efe2"/><path d="M-1.2132,0.3105 -1.2015,0.2891 -1.2116,0.2757 -1.1989,0.2199 -1.2144,0.1923 -1.1976,0.1951 -1.1414,0.1703 -1.1343,0.2106 -1.0561,0.243 -1.0503,0.2879 -1.0184,0.288 -1.0193,0.3054 -1.0036,0.3233 -1.0139,0.3592 -1.0313,0.3432 -1.0779,0.3499 -1.0934,0.3981 -1.1156,0.3943 -1.1228,0.4094 -1.1277,0.3981 -1.1558,0.39 -1.1818,0.4106 -1.2001,0.3642 -1.1949,0.3458 -1.2132,0.3105Z" fill="#e8efe2"/><path d="M-0.9191,0.0271 -0.9397,0.0342 -0.9435,0.0396 -0.9507,0.0426 -0.9536,0.0422 -0.9563,0.037 -0.9625,0.0381 -0.9716,0.0337 -0.9797,0.0363 -0.988,0.0447 -1.0037,0.0419 -1.0163,0.0559 -1.0264,0.0585 -1.0444,0.054 -1.0802,0.069 -1.0889,0.065 -1.1022,0.0711 -1.1221,0.0634 -1.1428,0.0457 -1.1612,0.0424 -1.1643,0.047 -1.176,0.0457 -1.1823,0.0496 -1.1866,0.0582 -1.2104,0.062 -1.2141,0.0751 -1.2209,0.0749 -1.2277,0.0665 -1.2402,0.0697 -1.2483,0.0669 -1.253,0.0587 -1.2741,0.0611 -1.2772,0.0636 -1.2774,0.0716 -1.2805,0.0721 -1.2826,0.0776 M-1.2509,0.271 -1.2472,0.2592 -1.2488,0.2506 -1.2551,0.2434 -1.2779,0.2364 -1.2921,0.214 -1.2921,0.206 -1.2961,0.1966 -1.2867,0.1966 -1.2872,0.1894 -1.2921,0.1825 -1.2908,0.1729 -1.2982,0.1643 -1.301,0.1551 -1.2963,0.1485 -1.3003,0.148 -1.3025,0.1406 -1.3081,0.138 -1.3086,0.1302 -1.3139,0.1253 -1.3104,0.1181 -1.3121,0.1077 -1.297,0.1003 -1.2924,0.0879 -1.2865,0.0855 -1.2826,0.0776" fill="none" stroke="#e8453c" stroke-width="0.0048" stroke-linecap="round"/></g></svg>