<svg xmlns="http://www.w3.org/2000/svg" viewBox="1.657 -0.682 0.230 0.584" preserveAspectRatio="xMidYMid meet"><rect x="1.657" y="-0.682" width="0.230" height="0.584" fill="#a9d2ea"/><g stroke="#7e96a9" stroke-width="0.0015" stroke-linejoin="round"><path d="M1.8844,-0.3846 1.8619,-0.375 1.8434,-0.3373 1.8993,-0.2717 1.9101,-0.2217 1.9022,-0.1992 1.872,-0.1825 1.8628,-0.185 1.8605,-0.1729 1.8525,-0.1793 1.8595,-0.1683 1.8471,-0.1754 1.853,-0.1648 1.8286,-0.1507 1.8342,-0.1745 1.8226,-0.1827 1.8335,-0.1916 1.8528,-0.1894 1.8474,-0.2046 1.8764,-0.2174 1.8788,-0.2695 1.8352,-0.3314 1.8132,-0.3434 1.8314,-0.3567 1.8253,-0.3685 1.7994,-0.373 1.7968,-0.3878 1.7825,-0.4009 1.7884,-0.4079 1.8141,-0.404 1.8375,-0.4193 1.8637,-0.4085 1.8616,-0.3934 1.8844,-0.3846Z" fill="#e8efe2"/><path d="M-2.9925,-1.4517 -2.9447,-1.4388 -2.9615,-1.4253 -2.9983,-1.4431 -2.9925,-1.4517Z M-2.8997,-1.3303 -2.8901,-1.3138 -2.9224,-1.3243 -2.8997,-1.3303Z M-2.6686,-1.2432 -2.6567,-1.2354 -2.6873,-1.2093 -2.7002,-1.2276 -2.6686,-1.2432Z M-2.2695,-1.1816 -2.2791,-1.1473 -2.2873,-1.1591 -2.2869,-1.1879 -2.3059,-1.1717 -2.296,-1.1916 -2.3295,-1.2221 -2.3326,-1.2374 -2.3234,-1.2351 -2.3307,-1.2436 -2.3246,-1.2452 -2.3393,-1.2515 -2.3366,-1.2664 -2.3524,-1.2641 -2.3625,-1.2969 -2.3578,-1.2574 -2.3719,-1.2624 -2.3763,-1.2843 -2.3909,-1.2836 -2.3747,-1.2641 -2.3843,-1.2571 -2.44,-1.3014 -2.4258,-1.3114 -2.4335,-1.3173 -2.4508,-1.3069 -2.4681,-1.3212 -2.5159,-1.3177 -2.529,-1.3289 -2.5253,-1.3406 -2.5351,-1.3303 -2.5581,-1.3427 -2.5548,-1.3575 -2.589,-1.3546 -2.5943,-1.3342 -2.5824,-1.3338 -2.5913,-1.3159 -2.6075,-1.3208 -2.6347,-1.2907 -2.652,-1.2918 -2.6363,-1.309 -2.6503,-1.3093 -2.6417,-1.3424 -2.6019,-1.3481 -2.6189,-1.3585 -2.608,-1.3705 -2.6709,-1.3275 -2.6639,-1.3184 -2.6909,-1.288 -2.678,-1.2741 -2.7663,-1.1869 -2.8191,-1.1732 -2.8508,-1.1494 -2.8222,-1.1822 -2.7976,-1.1791 -2.7978,-1.1948 -2.7482,-1.2331 -2.7508,-1.2508 -2.7435,-1.2554 -2.7492,-1.2631 -2.7369,-1.287 -2.7609,-1.2694 -2.766,-1.2805 -2.759,-1.2819 -2.7718,-1.2816 -2.7742,-1.2624 -2.7988,-1.2843 -2.8299,-1.2704 -2.8212,-1.2863 -2.8348,-1.3268 -2.8267,-1.3417 -2.8374,-1.3166 -2.8608,-1.3103 -2.8859,-1.336 -2.8552,-1.3488 -2.8817,-1.3499 -2.8775,-1.3564 -2.9002,-1.376 -2.876,-1.407 -2.8695,-1.4353 -2.8499,-1.4287 -2.8088,-1.4525 -2.8185,-1.4832 -2.8081,-1.4982 -2.8416,-1.4807 -2.8997,-1.4892 -2.9135,-1.5131 -2.9,-1.5185 -2.9337,-1.5341 -2.8704,-1.5742 -2.8561,-1.5733 -2.8629,-1.558 -2.8571,-1.552 -2.8105,-1.5567 -2.8337,-1.5901 -2.7965,-1.5667 -2.911,-1.6548 -2.9009,-1.6802 -2.8543,-1.6939 -2.8253,-1.7524 -2.7934,-1.766 -2.7903,-1.7498 -2.7819,-1.7623 -2.7939,-1.7681 -2.7869,-1.7765 -2.7309,-1.8099 -2.7154,-1.7942 -2.7222,-1.7792 -2.7082,-1.7931 -2.6581,-1.7797 -2.6519,-1.7586 -2.4997,-1.7416 -2.4609,-1.7177 -2.4609,-1.3275 -2.4274,-1.3289 -2.3988,-1.2792 -2.3646,-1.3097 -2.3283,-1.2627 -2.3007,-1.2036 -2.2695,-1.1816Z M-2.8533,-1.1536 -2.8463,-1.1442 -2.878,-1.1403 -2.8533,-1.1536Z M-2.3277,-1.2167 -2.3204,-1.2128 -2.325,-1.1995 -2.3384,-1.217 -2.3277,-1.2167Z M-2.3557,-1.2279 -2.3506,-1.1919 -2.364,-1.2247 -2.3703,-1.217 -2.3647,-1.2335 -2.3557,-1.2279Z M-2.3506,-1.2544 -2.3356,-1.237 -2.3442,-1.2501 -2.3372,-1.2279 -2.3478,-1.218 -2.3548,-1.2607 -2.3506,-1.2544Z M-2.3689,-1.2571 -2.3553,-1.2498 -2.3621,-1.2416 -2.355,-1.2322 -2.3721,-1.2312 -2.3836,-1.2482 -2.3689,-1.2571Z M-2.3312,-1.1957 -2.3068,-1.1689 -2.3148,-1.1686 -2.3035,-1.1606 -2.3042,-1.146 -2.3332,-1.1785 -2.3255,-1.1826 -2.3342,-1.1838 -2.3312,-1.1957Z M-2.6602,-1.2611 -2.6526,-1.2571 -2.677,-1.2521 -2.6602,-1.2611Z M-2.9315,-1.105 -2.9512,-1.0899 -2.9315,-1.105Z M-2.9081,-1.1212 -2.9013,-1.1221 -2.9288,-1.1041 -2.9081,-1.1212Z M-3.0487,-1.0673 -3.0596,-1.0667 -3.0372,-1.0756 -3.0487,-1.0673Z M-2.7154,-0.338 -2.7236,-0.3517 -2.7197,-0.3616 -2.7018,-0.3475 -2.7154,-0.338Z M-1.3039,-0.8814 -1.2369,-0.8881 -1.2085,-0.9435 -1.1835,-0.9337 -1.1833,-0.8995 -1.1692,-0.8772 -1.1961,-0.8632 -1.2001,-0.8708 -1.2249,-0.8513 -1.2401,-0.8169 -1.2209,-0.8017 -1.246,-0.8045 -1.2483,-0.7947 -1.2914,-0.7801 -1.291,-0.7917 -1.2929,-0.7581 -1.3053,-0.7403 -1.3181,-0.7513 -1.3102,-0.7625 -1.3193,-0.7547 -1.3097,-0.7275 -1.3252,-0.6993 -1.3205,-0.7169 -1.3324,-0.7338 -1.3242,-0.7518 -1.3364,-0.7464 -1.3324,-0.72 -1.3479,-0.7271 -1.3444,-0.7378 -1.3484,-0.7313 -1.331,-0.7156 -1.3458,-0.7218 -1.3313,-0.6971 -1.3483,-0.7032 -1.3265,-0.694 -1.3182,-0.6704 -1.3256,-0.6886 -1.3233,-0.6767 -1.3392,-0.6792 -1.3219,-0.6693 -1.3294,-0.6603 -1.3446,-0.6642 -1.3341,-0.6494 -1.3511,-0.6471 -1.3601,-0.6304 -1.4102,-0.5993 -1.4217,-0.5722 -1.3971,-0.486 -1.4046,-0.4553 -1.4156,-0.4536 -1.4263,-0.4698 -1.4436,-0.4995 -1.4383,-0.5066 -1.4458,-0.5064 -1.4425,-0.5271 -1.4607,-0.5479 -1.4891,-0.5429 -1.494,-0.5552 -1.5219,-0.5562 -1.5184,-0.5608 -1.5361,-0.5539 -1.5361,-0.5633 -1.5766,-0.555 -1.5603,-0.5503 -1.5659,-0.5417 -1.5537,-0.5332 -1.56,-0.5289 -1.5736,-0.5401 -1.5745,-0.5312 -1.5882,-0.533 -1.6038,-0.5461 -1.6102,-0.5405 -1.6378,-0.5489 -1.6539,-0.5368 -1.6584,-0.5433 -1.6628,-0.5285 -1.6867,-0.5235 -1.6828,-0.5185 -1.6958,-0.5122 -1.7006,-0.4962 -1.7064,-0.4987 -1.6996,-0.4677 -1.7298,-0.479 -1.7368,-0.5005 -1.7705,-0.5449 -1.7909,-0.5443 -1.8022,-0.5293 -1.8221,-0.5407 -1.8322,-0.5624 -1.8579,-0.5853 -1.938,-0.5761 -2.0022,-0.6049 -2.0443,-0.601 -2.0684,-0.6321 -2.1056,-0.6439 -2.138,-0.7078 -2.1305,-0.7065 -2.1347,-0.7182 -2.1211,-0.7193 -2.1468,-0.7178 -2.1705,-0.7714 -2.1654,-0.7965 -2.1736,-0.8283 -2.164,-0.9118 -2.1506,-0.91 -2.1654,-0.9133 -2.1614,-0.9306 -2.1766,-0.9674 -2.1429,-0.9611 -2.1492,-0.9409 -2.1386,-0.9554 -2.1473,-0.9352 -2.1415,-0.9344 -2.1335,-0.9577 -2.1431,-0.9835 -1.6609,-0.9835 -1.657,-0.9932 -1.6514,-0.9769 -1.5973,-0.959 -1.5425,-0.9653 -1.4683,-0.9197 -1.4408,-0.89 -1.4336,-0.8465 -1.4512,-0.8125 -1.4432,-0.8017 -1.3795,-0.8281 -1.3762,-0.8467 -1.3408,-0.848 -1.3039,-0.8814Z M-1.2655,-0.7856 -1.2549,-0.7873 -1.2921,-0.7776 -1.2655,-0.7856Z M-1.6959,-0.4733 -1.6998,-0.4936 -1.6959,-0.4733Z" fill="#e8efe2"/><path d="M1.7474,-0.3623 1.7542,-0.348 1.7664,-0.348 1.7612,-0.3118 1.782,-0.3233 1.7921,-0.3162 1.8028,-0.327 1.8143,-0.3253 1.8438,-0.2768 1.8338,-0.251 1.8073,-0.2544 1.7858,-0.2385 1.7961,-0.2056 1.7774,-0.2224 1.761,-0.2226 1.7612,-0.2371 1.7457,-0.2351 1.7307,-0.1706 1.7322,-0.1625 1.7425,-0.1629 1.7527,-0.1258 1.782,-0.1091 1.7654,-0.0986 1.7637,-0.1091 1.7474,-0.1126 1.7146,-0.1475 1.7237,-0.1871 1.7385,-0.2071 1.7303,-0.2418 1.7139,-0.2645 1.726,-0.2893 1.6994,-0.329 1.7061,-0.3303 1.7113,-0.3521 1.7474,-0.3623Z" fill="#e8efe2"/><path d="M1.7474,-0.1126 1.7637,-0.1091 1.7647,-0.0986 1.7849,-0.1084 1.7994,-0.0946 1.8054,-0.0512 1.8195,-0.0243 1.8061,-0.0232 1.768,-0.0505 1.7474,-0.1126Z M2.052,-0.0728 2.0221,-0.076 1.9986,-0.0253 1.9631,-0.0272 1.9288,-0.015 1.912,-0.0323 1.9412,-0.0244 1.9415,-0.0426 1.972,-0.0552 1.9898,-0.08 2.0003,-0.0702 2.0077,-0.0856 2.0129,-0.0765 2.0145,-0.0946 2.0382,-0.1223 2.0384,-0.1156 2.0443,-0.122 2.0534,-0.1132 2.0508,-0.1028 2.0595,-0.1058 2.059,-0.0998 2.0815,-0.0939 2.064,-0.0872 2.0691,-0.0765 2.052,-0.0728Z" fill="#e8efe2"/><path d="M1.7825,-0.4009 1.7968,-0.3878 1.7994,-0.373 1.8253,-0.3685 1.8314,-0.3567 1.8132,-0.3434 1.8347,-0.332 1.8745,-0.2837 1.8747,-0.2569 1.8541,-0.2555 1.8513,-0.2454 1.8375,-0.2497 1.8438,-0.2768 1.8143,-0.3253 1.8028,-0.327 1.7921,-0.3162 1.782,-0.3233 1.7612,-0.3118 1.7664,-0.348 1.7527,-0.3497 1.7485,-0.3674 1.7652,-0.3857 1.7767,-0.3789 1.7719,-0.3985 1.7825,-0.4009Z" fill="#e8efe2"/><path d="M2.015,0.1429 2.0193,0.1473 2.0096,0.1551 1.9979,0.1431 2.015,0.1429Z M1.8509,0.0292 1.8644,0.0449 1.8617,0.0536 1.8349,0.0356 1.8406,0.0274 1.8509,0.0292Z M2.1499,0.0795 2.1501,0.0932 2.1406,0.0989 2.1499,0.0795Z M2.3628,0.0113 2.3803,0.019 2.3628,0.0113Z M2.3644,0.0278 2.3892,0.0314 2.3644,0.0278Z M2.2831,0.0 2.2923,0.0051 2.2731,0.0037 2.2831,0.0Z M2.2131,0.1343 2.1956,0.1397 2.2131,0.1343Z M1.6841,-0.0914 1.7026,-0.0911 1.7544,-0.0382 1.7637,-0.0395 1.7982,-0.0101 1.7898,-0.0038 1.8094,-0.0051 1.8054,0.0101 1.8218,0.0187 1.8265,0.0454 1.8396,0.0416 1.8511,0.0552 1.8457,0.1018 1.8263,0.0965 1.8256,0.1032 1.7729,0.0554 1.7209,-0.0325 1.7052,-0.0412 1.6619,-0.0965 1.6841,-0.0914Z M2.1429,0.1508 2.0911,0.1524 2.105,0.1443 2.1349,0.1512 2.1441,0.1417 2.1429,0.1508Z M2.0946,0.1643 2.1066,0.1791 2.0762,0.1669 2.0946,0.1643Z M2.0637,0.1457 2.0792,0.1519 2.0384,0.1579 2.0448,0.1466 2.059,0.153 2.0553,0.1427 2.0637,0.1457Z M2.1797,-0.0175 2.168,-0.0066 2.0977,-0.0047 2.0954,0.0098 2.1061,0.0239 2.122,0.0145 2.1543,0.0136 2.1181,0.0328 2.1445,0.0767 2.1221,0.0832 2.1227,0.0714 2.1099,0.0615 2.1127,0.048 2.1057,0.0466 2.0988,0.0533 2.1019,0.0977 2.0867,0.0981 2.0878,0.0704 2.0731,0.0475 2.0991,-0.0169 2.1132,-0.0232 2.163,-0.0148 2.1836,-0.0295 2.1797,-0.0175Z M1.874,0.1051 1.8986,0.1191 1.9274,0.1216 1.9343,0.1123 1.9642,0.1212 1.9724,0.1341 1.9968,0.1364 2.0001,0.153 1.8836,0.1351 1.8371,0.1197 1.8514,0.1033 1.874,0.1051Z M1.9134,-0.0354 1.9288,-0.015 1.9631,-0.0272 1.9986,-0.0253 2.019,-0.0732 2.0438,-0.0758 2.0556,-0.0644 2.0431,-0.0632 2.0607,-0.0405 2.0558,-0.0354 2.0766,-0.0171 2.0579,-0.0192 2.0518,0.0134 2.0295,0.0311 2.0291,0.0547 2.0017,0.0728 1.9956,0.0566 1.9846,0.0604 1.9727,0.0512 1.9523,0.062 1.9494,0.0505 1.9244,0.0519 1.9195,0.0222 1.9069,0.0141 1.9014,-0.0063 1.9038,-0.0262 1.9134,-0.0354Z M2.2293,-0.0148 2.2461,-0.0274 2.2386,-0.0127 2.2497,-0.0038 2.2321,-0.0052 2.2415,0.0155 2.2286,0.0042 2.2241,-0.0199 2.2347,-0.0384 2.2293,-0.0148Z M2.2646,0.0501 2.2789,0.0547 2.2831,0.0674 2.2661,0.0582 2.2363,0.0552 2.2323,0.0611 2.2375,0.0501 2.2646,0.0501Z M2.2141,0.054 2.2208,0.0606 2.2155,0.0657 2.1996,0.0587 2.2141,0.054Z M2.1803,0.1567 2.181,0.1696 2.1579,0.1809 2.1591,0.1685 2.1803,0.1567Z M2.418,0.1448 2.4024,0.147 2.41,0.1325 2.422,0.1293 2.418,0.1448Z M2.4604,0.0456 2.4606,0.1599 2.4456,0.1387 2.4241,0.1443 2.4216,0.1269 2.4291,0.1258 2.419,0.1214 2.4145,0.0993 2.396,0.0865 2.3382,0.0667 2.3359,0.0533 2.3197,0.0709 2.3169,0.0575 2.3033,0.0487 2.3335,0.0457 2.3373,0.0367 2.3092,0.0391 2.3026,0.0272 2.2864,0.0241 2.3106,0.0063 2.3382,0.0129 2.3421,0.0403 2.3606,0.0589 2.4052,0.0258 2.4604,0.0456Z M1.9869,0.1244 1.9675,0.1237 1.9869,0.1244Z" fill="#e8efe2"/><path d="M1.1898,-0.429 1.2001,-0.4376 1.2399,-0.4393 1.2137,-0.4921 1.2287,-0.51 1.2357,-0.5037 1.2544,-0.5086 1.3025,-0.5702 1.3013,-0.5863 1.3146,-0.5946 1.2915,-0.6147 1.2908,-0.6454 1.3214,-0.6422 1.3579,-0.6635 1.3785,-0.6371 1.3826,-0.6004 1.3682,-0.6012 1.3743,-0.5761 1.4135,-0.5541 1.3975,-0.5259 1.4439,-0.4999 1.5359,-0.4776 1.5383,-0.5084 1.5499,-0.5096 1.556,-0.4862 1.6057,-0.4868 1.5992,-0.5047 1.6153,-0.507 1.6514,-0.5354 1.6649,-0.5301 1.6762,-0.5383 1.6856,-0.5245 1.6804,-0.5175 1.6986,-0.5137 1.6909,-0.5013 1.6947,-0.4921 1.6788,-0.4948 1.6603,-0.4819 1.6429,-0.4294 1.6289,-0.4328 1.6216,-0.3936 1.6157,-0.3934 1.6101,-0.4256 1.5991,-0.4123 1.5912,-0.4237 1.6139,-0.4497 1.5678,-0.4565 1.565,-0.4743 1.5423,-0.4811 1.5373,-0.4681 1.5525,-0.4559 1.5362,-0.4438 1.5485,-0.4369 1.5542,-0.3872 1.5471,-0.396 1.538,-0.387 1.5348,-0.4007 1.535,-0.3906 1.516,-0.3795 1.5141,-0.3621 1.4879,-0.3519 1.4357,-0.2931 1.4013,-0.2777 1.3935,-0.1811 1.3778,-0.1678 1.386,-0.1611 1.3687,-0.1597 1.353,-0.1415 1.336,-0.156 1.28,-0.2913 1.2683,-0.3532 1.2673,-0.3836 1.276,-0.3891 1.2661,-0.3881 1.2708,-0.3981 1.2598,-0.3989 1.258,-0.3791 1.2343,-0.3702 1.2038,-0.3992 1.2249,-0.4045 1.2303,-0.4144 1.2085,-0.4098 1.1942,-0.4235 1.2004,-0.4288 1.1898,-0.429Z M1.6183,-0.2028 1.6242,-0.2387 1.6183,-0.2028Z" fill="#e8efe2"/><path d="M1.8844,-0.3846 1.8616,-0.3934 1.8637,-0.4085 1.8375,-0.4193 1.8141,-0.404 1.7752,-0.403 1.7755,-0.378 1.7666,-0.3791 1.7642,-0.3893 1.7479,-0.384 1.7439,-0.3943 1.7308,-0.3966 1.7368,-0.4119 1.7254,-0.4163 1.7251,-0.434 1.7027,-0.43 1.7073,-0.4557 1.7219,-0.4675 1.7218,-0.5009 1.7045,-0.5193 1.6804,-0.5175 1.6856,-0.5245 1.6762,-0.5383 1.6649,-0.5301 1.6514,-0.5354 1.6054,-0.5041 1.5691,-0.5151 1.5514,-0.496 1.5467,-0.5112 1.5008,-0.5076 1.4319,-0.556 1.4156,-0.5501 1.3743,-0.5761 1.3682,-0.6012 1.3826,-0.6004 1.3778,-0.639 1.3662,-0.6454 1.3621,-0.6631 1.3296,-0.6702 1.3237,-0.6884 1.2982,-0.6991 1.3111,-0.7045 1.3062,-0.7269 1.2881,-0.7316 1.2851,-0.7504 1.3062,-0.7739 1.332,-0.7709 1.3423,-0.7863 1.4005,-0.8101 1.3992,-0.825 1.4101,-0.8367 1.4043,-0.8752 1.394,-0.8784 1.4402,-0.8846 1.4366,-0.8953 1.4491,-0.9365 1.4919,-0.9332 1.4956,-0.9656 1.5174,-0.9865 1.5326,-0.9881 1.5355,-0.9722 1.5762,-0.9491 1.5881,-0.9252 1.5862,-0.8863 1.6642,-0.8637 1.6823,-0.8262 1.7715,-0.8219 1.8322,-0.7998 1.9268,-0.8274 1.9535,-0.8499 1.9443,-0.8659 1.953,-0.8829 1.9836,-0.8755 2.0497,-0.9212 2.0921,-0.9232 2.0682,-0.9569 2.0228,-0.9494 2.0164,-0.9609 2.0365,-1.0058 2.0572,-0.9974 2.0815,-1.0126 2.1075,-1.069 2.0951,-1.0867 2.1117,-1.103 2.1574,-1.1109 2.193,-1.096 2.2262,-1.0053 2.2785,-0.9801 2.2864,-0.9494 2.3504,-0.964 2.3518,-0.9502 2.3232,-0.8846 2.3012,-0.8895 2.286,-0.8774 2.2909,-0.8419 2.2782,-0.8219 2.2672,-0.8328 2.2637,-0.8198 2.2349,-0.8089 2.2366,-0.7949 2.2117,-0.8026 2.1689,-0.7611 2.1155,-0.7345 2.1262,-0.7491 2.1166,-0.7525 2.1342,-0.7753 2.1263,-0.7852 2.0766,-0.7443 2.0556,-0.7432 2.0536,-0.7273 2.0759,-0.7189 2.0789,-0.7004 2.1075,-0.7142 2.141,-0.7048 2.1352,-0.6923 2.0975,-0.6786 2.0799,-0.6496 2.0991,-0.6374 2.1092,-0.6037 2.1269,-0.5863 2.0951,-0.5888 2.107,-0.5896 2.1256,-0.5728 2.0977,-0.5541 2.1307,-0.5467 2.1207,-0.5389 2.1288,-0.5391 2.1197,-0.5318 2.1225,-0.5151 2.1075,-0.5096 2.0951,-0.4825 2.0872,-0.4854 2.0923,-0.4766 2.0794,-0.4725 2.0878,-0.4702 2.0878,-0.4584 2.0567,-0.4407 2.0605,-0.4365 2.0328,-0.4117 1.99,-0.4034 1.9813,-0.4146 1.9818,-0.3979 1.927,-0.3814 1.9258,-0.3618 1.9178,-0.3631 1.9186,-0.384 1.9124,-0.3879 1.9038,-0.3833 1.8933,-0.3919 1.8844,-0.3846Z M1.9354,-0.3562 1.9211,-0.3277 1.8972,-0.3294 1.8963,-0.3429 1.9069,-0.3542 1.9354,-0.3562Z" fill="#e8efe2"/><path d="M1.8766,-0.2596 1.8769,-0.2187 1.8474,-0.2046 1.8528,-0.1894 1.8335,-0.1916 1.8226,-0.1827 1.808,-0.1852 1.8069,-0.1958 1.8003,-0.1916 1.7858,-0.2385 1.7982,-0.2513 1.8288,-0.2546 1.8513,-0.2454 1.8541,-0.2555 1.8766,-0.2596Z" fill="#e8efe2"/><path d="M1.7474,-0.3623 1.7113,-0.3521 1.7061,-0.3303 1.6994,-0.329 1.726,-0.2893 1.7139,-0.2645 1.7303,-0.2418 1.7385,-0.2071 1.7202,-0.176 1.7258,-0.206 1.7071,-0.2623 1.7057,-0.2933 1.6904,-0.3085 1.689,-0.2959 1.6788,-0.297 1.6811,-0.291 1.6649,-0.2779 1.6642,-0.2848 1.6521,-0.2811 1.6528,-0.2922 1.6444,-0.2833 1.6509,-0.3116 1.6413,-0.3432 1.6394,-0.336 1.6317,-0.3447 1.6406,-0.346 1.6254,-0.3538 1.6088,-0.3804 1.6162,-0.3801 1.6157,-0.3934 1.6258,-0.3981 1.6289,-0.4328 1.6429,-0.4294 1.6603,-0.4819 1.6788,-0.4948 1.6947,-0.4921 1.6909,-0.5013 1.7024,-0.5195 1.7218,-0.5009 1.7233,-0.4856 1.7219,-0.4675 1.7031,-0.4465 1.7027,-0.43 1.7251,-0.434 1.7254,-0.4163 1.7368,-0.4119 1.7308,-0.3966 1.7439,-0.3943 1.749,-0.3836 1.7651,-0.3889 1.7474,-0.3623Z" fill="#e8efe2"/><path d="M1.6919,-0.5894 1.6996,-0.5651 1.7212,-0.5318 1.731,-0.4911 1.7303,-0.4706 1.7338,-0.457 1.7443,-0.4463 1.7511,-0.4461 1.7542,-0.442 1.7546,-0.4357 1.7466,-0.418 1.7588,-0.3947 1.7657,-0.3898 1.7642,-0.3838 1.7548,-0.3748 1.7562,-0.3724 1.7497,-0.37 1.7472,-0.3612 1.7509,-0.3636 1.7567,-0.3532 1.7712,-0.353 1.7843,-0.3566 1.7771,-0.349 1.7773,-0.3323 1.7699,-0.3217 1.7726,-0.3162 M1.8317,-0.2037 1.8343,-0.191 1.8471,-0.1754 M1.8317,-0.2037 1.8373,-0.1996 1.8363,-0.1912 1.8392,-0.1868 1.8525,-0.1793 M1.7726,-0.3162 1.782,-0.3233 1.7918,-0.3162 1.7993,-0.322 M1.7993,-0.322 1.8028,-0.327 1.8143,-0.3253 1.8281,-0.3096 1.8295,-0.2915 1.8434,-0.2775 1.8417,-0.2708 1.8485,-0.2638 1.8471,-0.2497 1.8504,-0.2414 1.8497,-0.2162 1.8438,-0.216 1.8394,-0.2099 1.8326,-0.2078 1.8317,-0.2037" fill="none" stroke="#e8453c" stroke-width="0.0051" stroke-linecap="round"/></g></svg>