<svg xmlns="http://www.w3.org/2000/svg" viewBox="-2.031 -1.015 0.534 0.328" preserveAspectRatio="xMidYMid meet"><rect x="-2.031" y="-1.015" width="0.534" height="0.328" fill="#a9d2ea"/><g stroke="#7e96a9" stroke-width="0.0013" stroke-linejoin="round"><path d="M-2.9925,-1.4517 -2.9447,-1.4388 -2.9615,-1.4253 -2.9983,-1.4431 -2.9925,-1.4517Z M-2.8997,-1.3303 -2.8901,-1.3138 -2.9224,-1.3243 -2.8997,-1.3303Z M-2.6686,-1.2432 -2.6567,-1.2354 -2.6873,-1.2093 -2.7002,-1.2276 -2.6686,-1.2432Z M-2.2695,-1.1816 -2.2791,-1.1473 -2.2873,-1.1591 -2.2869,-1.1879 -2.3059,-1.1717 -2.296,-1.1916 -2.3295,-1.2221 -2.3326,-1.2374 -2.3234,-1.2351 -2.3307,-1.2436 -2.3246,-1.2452 -2.3393,-1.2515 -2.3366,-1.2664 -2.3524,-1.2641 -2.3625,-1.2969 -2.3578,-1.2574 -2.3719,-1.2624 -2.3763,-1.2843 -2.3909,-1.2836 -2.3747,-1.2641 -2.3843,-1.2571 -2.44,-1.3014 -2.4258,-1.3114 -2.4335,-1.3173 -2.4508,-1.3069 -2.4681,-1.3212 -2.5159,-1.3177 -2.529,-1.3289 -2.5253,-1.3406 -2.5351,-1.3303 -2.5581,-1.3427 -2.5548,-1.3575 -2.589,-1.3546 -2.5943,-1.3342 -2.5824,-1.3338 -2.5913,-1.3159 -2.6075,-1.3208 -2.6347,-1.2907 -2.652,-1.2918 -2.6363,-1.309 -2.6503,-1.3093 -2.6417,-1.3424 -2.6019,-1.3481 -2.6189,-1.3585 -2.608,-1.3705 -2.6709,-1.3275 -2.6639,-1.3184 -2.6909,-1.288 -2.678,-1.2741 -2.7663,-1.1869 -2.8191,-1.1732 -2.8508,-1.1494 -2.8222,-1.1822 -2.7976,-1.1791 -2.7978,-1.1948 -2.7482,-1.2331 -2.7508,-1.2508 -2.7435,-1.2554 -2.7492,-1.2631 -2.7369,-1.287 -2.7609,-1.2694 -2.766,-1.2805 -2.759,-1.2819 -2.7718,-1.2816 -2.7742,-1.2624 -2.7988,-1.2843 -2.8299,-1.2704 -2.8212,-1.2863 -2.8348,-1.3268 -2.8267,-1.3417 -2.8374,-1.3166 -2.8608,-1.3103 -2.8859,-1.336 -2.8552,-1.3488 -2.8817,-1.3499 -2.8775,-1.3564 -2.9002,-1.376 -2.876,-1.407 -2.8695,-1.4353 -2.8499,-1.4287 -2.8088,-1.4525 -2.8185,-1.4832 -2.8081,-1.4982 -2.8416,-1.4807 -2.8997,-1.4892 -2.9135,-1.5131 -2.9,-1.5185 -2.9337,-1.5341 -2.8704,-1.5742 -2.8561,-1.5733 -2.8629,-1.558 -2.8571,-1.552 -2.8105,-1.5567 -2.8337,-1.5901 -2.7965,-1.5667 -2.911,-1.6548 -2.9009,-1.6802 -2.8543,-1.6939 -2.8253,-1.7524 -2.7934,-1.766 -2.7903,-1.7498 -2.7819,-1.7623 -2.7939,-1.7681 -2.7869,-1.7765 -2.7309,-1.8099 -2.7154,-1.7942 -2.7222,-1.7792 -2.7082,-1.7931 -2.6581,-1.7797 -2.6519,-1.7586 -2.4997,-1.7416 -2.4609,-1.7177 -2.4609,-1.3275 -2.4274,-1.3289 -2.3988,-1.2792 -2.3646,-1.3097 -2.3283,-1.2627 -2.3007,-1.2036 -2.2695,-1.1816Z M-2.8533,-1.1536 -2.8463,-1.1442 -2.878,-1.1403 -2.8533,-1.1536Z M-2.3277,-1.2167 -2.3204,-1.2128 -2.325,-1.1995 -2.3384,-1.217 -2.3277,-1.2167Z M-2.3557,-1.2279 -2.3506,-1.1919 -2.364,-1.2247 -2.3703,-1.217 -2.3647,-1.2335 -2.3557,-1.2279Z M-2.3506,-1.2544 -2.3356,-1.237 -2.3442,-1.2501 -2.3372,-1.2279 -2.3478,-1.218 -2.3548,-1.2607 -2.3506,-1.2544Z M-2.3689,-1.2571 -2.3553,-1.2498 -2.3621,-1.2416 -2.355,-1.2322 -2.3721,-1.2312 -2.3836,-1.2482 -2.3689,-1.2571Z M-2.3312,-1.1957 -2.3068,-1.1689 -2.3148,-1.1686 -2.3035,-1.1606 -2.3042,-1.146 -2.3332,-1.1785 -2.3255,-1.1826 -2.3342,-1.1838 -2.3312,-1.1957Z M-2.6602,-1.2611 -2.6526,-1.2571 -2.677,-1.2521 -2.6602,-1.2611Z M-2.9315,-1.105 -2.9512,-1.0899 -2.9315,-1.105Z M-2.9081,-1.1212 -2.9013,-1.1221 -2.9288,-1.1041 -2.9081,-1.1212Z M-3.0487,-1.0673 -3.0596,-1.0667 -3.0372,-1.0756 -3.0487,-1.0673Z M-2.7154,-0.338 -2.7236,-0.3517 -2.7197,-0.3616 -2.7018,-0.3475 -2.7154,-0.338Z M-1.3039,-0.8814 -1.2369,-0.8881 -1.2085,-0.9435 -1.1835,-0.9337 -1.1833,-0.8995 -1.1692,-0.8772 -1.1961,-0.8632 -1.2001,-0.8708 -1.2249,-0.8513 -1.2401,-0.8169 -1.2209,-0.8017 -1.246,-0.8045 -1.2483,-0.7947 -1.2914,-0.7801 -1.291,-0.7917 -1.2929,-0.7581 -1.3053,-0.7403 -1.3181,-0.7513 -1.3102,-0.7625 -1.3193,-0.7547 -1.3097,-0.7275 -1.3252,-0.6993 -1.3205,-0.7169 -1.3324,-0.7338 -1.3242,-0.7518 -1.3364,-0.7464 -1.3324,-0.72 -1.3479,-0.7271 -1.3444,-0.7378 -1.3484,-0.7313 -1.331,-0.7156 -1.3458,-0.7218 -1.3313,-0.6971 -1.3483,-0.7032 -1.3265,-0.694 -1.3182,-0.6704 -1.3256,-0.6886 -1.3233,-0.6767 -1.3392,-0.6792 -1.3219,-0.6693 -1.3294,-0.6603 -1.3446,-0.6642 -1.3341,-0.6494 -1.3511,-0.6471 -1.3601,-0.6304 -1.4102,-0.5993 -1.4217,-0.5722 -1.3971,-0.486 -1.4046,-0.4553 -1.4156,-0.4536 -1.4263,-0.4698 -1.4436,-0.4995 -1.4383,-0.5066 -1.4458,-0.5064 -1.4425,-0.5271 -1.4607,-0.5479 -1.4891,-0.5429 -1.494,-0.5552 -1.5219,-0.5562 -1.5184,-0.5608 -1.5361,-0.5539 -1.5361,-0.5633 -1.5766,-0.555 -1.5603,-0.5503 -1.5659,-0.5417 -1.5537,-0.5332 -1.56,-0.5289 -1.5736,-0.5401 -1.5745,-0.5312 -1.5882,-0.533 -1.6038,-0.5461 -1.6102,-0.5405 -1.6378,-0.5489 -1.6539,-0.5368 -1.6584,-0.5433 -1.6628,-0.5285 -1.6867,-0.5235 -1.6828,-0.5185 -1.6958,-0.5122 -1.7006,-0.4962 -1.7064,-0.4987 -1.6996,-0.4677 -1.7298,-0.479 -1.7368,-0.5005 -1.7705,-0.5449 -1.7909,-0.5443 -1.8022,-0.5293 -1.8221,-0.5407 -1.8322,-0.5624 -1.8579,-0.5853 -1.938,-0.5761 -2.0022,-0.6049 -2.0443,-0.601 -2.0684,-0.6321 -2.1056,-0.6439 -2.138,-0.7078 -2.1305,-0.7065 -2.1347,-0.7182 -2.1211,-0.7193 -2.1468,-0.7178 -2.1705,-0.7714 -2.1654,-0.7965 -2.1736,-0.8283 -2.164,-0.9118 -2.1506,-0.91 -2.1654,-0.9133 -2.1614,-0.9306 -2.1766,-0.9674 -2.1429,-0.9611 -2.1492,-0.9409 -2.1386,-0.9554 -2.1473,-0.9352 -2.1415,-0.9344 -2.1335,-0.9577 -2.1431,-0.9835 -1.6609,-0.9835 -1.657,-0.9932 -1.6514,-0.9769 -1.5973,-0.959 -1.5425,-0.9653 -1.4683,-0.9197 -1.4408,-0.89 -1.4336,-0.8465 -1.4512,-0.8125 -1.4432,-0.8017 -1.3795,-0.8281 -1.3762,-0.8467 -1.3408,-0.848 -1.3039,-0.8814Z M-1.2655,-0.7856 -1.2549,-0.7873 -1.2921,-0.7776 -1.2655,-0.7856Z M-1.6959,-0.4733 -1.6998,-0.4936 -1.6959,-0.4733Z" fill="#e8efe2"/><path d="M-3.1381,-1.6827 -3.0604,-1.6231 -3.0517,-1.6081 -3.0529,-1.5755 -3.0381,-1.5585 -3.0329,-1.5672 -3.0465,-1.5964 -2.9985,-1.5892 -2.9623,-1.5511 -2.9924,-1.5396 -2.9875,-1.5273 -3.0156,-1.5349 -3.0056,-1.5085 -3.0206,-1.5003 -3.0086,-1.4832 -3.0222,-1.4771 -3.0613,-1.4982 -3.0734,-1.526 -3.1138,-1.5273 -3.1231,-1.5498 -3.1159,-1.5658 -3.136,-1.5563 -3.1302,-1.5281 -3.1416,-1.5093 -3.1381,-1.6827Z M2.281,-0.8162 2.2763,-0.8264 2.2909,-0.8419 2.286,-0.8774 2.3012,-0.8895 2.3232,-0.8846 2.3518,-0.9502 2.3504,-0.964 2.2864,-0.9494 2.2785,-0.9801 2.2262,-1.0053 2.2,-1.0873 2.1574,-1.1109 2.096,-1.0888 2.1059,-1.0824 2.1063,-1.0653 2.0815,-1.0126 2.0572,-0.9974 1.9949,-1.018 1.9323,-0.9875 1.8956,-0.9923 1.8624,-1.0191 1.8029,-1.0161 1.7862,-1.0254 1.7822,-1.0479 1.726,-1.0696 1.709,-1.0459 1.7148,-1.0189 1.6993,-1.0036 1.6513,-1.0112 1.645,-1.026 1.6118,-1.0342 1.5258,-0.9859 1.5129,-1.0047 1.4875,-1.0004 1.4587,-1.0365 1.4219,-1.0309 1.4092,-1.0462 1.3961,-1.0318 1.3589,-1.1027 1.3348,-1.1248 1.3411,-1.1373 1.2805,-1.108 1.2865,-1.1254 1.2408,-1.1304 1.2346,-1.1637 1.2039,-1.1662 1.136,-1.1343 1.0687,-1.1248 1.0643,-1.1129 1.0739,-1.1094 1.0681,-1.1033 1.0835,-1.0951 1.0655,-1.094 1.0636,-1.0741 1.0477,-1.0642 1.0743,-1.047 1.0636,-1.0298 1.0388,-1.0241 0.995,-1.0401 0.972,-1.0265 0.9536,-1.0384 0.9516,-1.0254 0.931,-1.0515 0.8865,-1.0585 0.8488,-1.0274 0.851,-1.0088 0.8278,-1.0205 0.8144,-0.9682 0.8254,-0.9507 0.8407,-0.9499 0.8545,-0.9258 0.8472,-0.9217 0.8596,-0.9136 0.8283,-0.8983 0.8154,-0.8706 0.8283,-0.8463 0.8316,-0.854 0.8283,-0.8338 0.8477,-0.8054 0.8259,-0.7924 0.7969,-0.8214 0.6978,-0.8429 0.6397,-0.8846 0.6718,-0.9085 0.6592,-0.9224 0.6854,-0.9327 0.6667,-0.9398 0.6936,-0.9533 0.6995,-0.9993 0.6531,-1.0219 0.6212,-1.0208 0.6163,-1.0392 0.5971,-1.0454 0.6004,-1.0599 0.5903,-1.0753 0.5543,-1.069 0.5456,-1.0954 0.5709,-1.1071 0.5376,-1.1476 0.5395,-1.1717 0.4936,-1.1869 0.4824,-1.2119 0.4787,-1.2755 0.4913,-1.2952 0.4889,-1.3072 0.5266,-1.3156 0.4976,-1.3409 0.4852,-1.336 0.5505,-1.4237 0.5234,-1.4556 0.5328,-1.4691 0.5166,-1.5052 0.5252,-1.5396 0.5074,-1.5874 0.5234,-1.6227 0.5007,-1.6468 0.5021,-1.6778 0.4958,-1.6807 0.5582,-1.7329 0.5761,-1.7212 0.5601,-1.7167 0.5651,-1.7092 0.5838,-1.7067 0.5784,-1.689 0.6259,-1.6949 0.7151,-1.6245 0.7189,-1.5848 0.6746,-1.5516 0.5568,-1.5995 0.6055,-1.5464 0.6006,-1.5231 0.6116,-1.4836 0.6535,-1.4584 0.6643,-1.4695 0.6391,-1.4962 0.6437,-1.5135 0.6939,-1.4892 0.7058,-1.4974 0.695,-1.5315 0.7367,-1.5711 0.7697,-1.549 0.7754,-1.5896 0.7641,-1.6035 0.772,-1.645 0.7563,-1.6696 0.8009,-1.6605 0.8149,-1.631 0.7837,-1.6108 0.8114,-1.5834 0.8318,-1.5914 0.8355,-1.6185 0.8508,-1.6333 0.9146,-1.6544 0.939,-1.6856 0.951,-1.6851 0.9296,-1.6506 1.0308,-1.6861 1.0315,-1.6586 1.0425,-1.6544 1.0634,-1.6851 1.0502,-1.7147 1.0631,-1.7278 1.1203,-1.7117 1.1933,-1.6525 1.2067,-1.6831 1.1676,-1.7127 1.1743,-1.7739 1.1631,-1.792 1.1915,-1.8248 1.2111,-1.8984 1.2479,-1.8954 1.2708,-1.8824 1.2544,-1.8127 1.2689,-1.7856 1.2668,-1.6841 1.2844,-1.6605 1.2456,-1.5905 1.2486,-1.5781 1.2045,-1.583 1.2579,-1.5593 1.3034,-1.6236 1.2999,-1.6691 1.3111,-1.6788 1.3345,-1.6846 1.3481,-1.6601 1.3469,-1.6277 1.3774,-1.619 1.3542,-1.6264 1.3614,-1.6501 1.3552,-1.6807 1.2877,-1.6954 1.2842,-1.7253 1.2975,-1.7654 1.2757,-1.8116 1.3088,-1.8507 1.3066,-1.8913 1.3195,-1.876 1.3139,-1.811 1.3217,-1.8023 1.3792,-1.785 1.327,-1.8377 1.3647,-1.8377 1.3511,-1.849 1.3654,-1.8644 1.4505,-1.827 1.4368,-1.8017 1.434,-1.7665 1.4488,-1.7824 1.443,-1.7467 1.45,-1.74 1.4615,-1.7639 1.4512,-1.7931 1.4579,-1.8248 1.4107,-1.8708 1.4064,-1.9354 1.5165,-1.9553 1.4973,-1.9274 1.5129,-1.9074 1.4994,-1.9243 1.5284,-1.9503 1.501,-1.9827 1.5225,-1.9853 1.4973,-2.0043 1.5266,-2.0283 1.5186,-2.0391 1.6434,-2.0944 1.6207,-2.0959 1.6277,-2.1046 1.7219,-2.1148 1.7385,-2.0837 1.7424,-2.1075 1.7246,-2.1325 1.7733,-2.1296 1.7612,-2.1644 1.8153,-2.2304 1.8511,-2.2028 1.8186,-2.1799 1.875,-2.1667 1.8572,-2.1348 1.9392,-2.1506 1.9872,-2.0916 1.9808,-2.0661 1.9626,-2.0851 1.985,-2.0584 1.9708,-2.0289 1.835,-1.8877 1.935,-1.9453 1.9141,-1.9497 1.9244,-1.9635 1.9727,-1.9566 1.9808,-1.9219 1.9745,-1.8907 1.9837,-1.8789 1.9761,-1.8895 1.9878,-1.9219 1.9811,-1.9311 1.9907,-1.936 2.0673,-1.9366 2.0759,-1.9298 2.067,-1.9158 2.09,-1.8996 2.1387,-1.8936 2.1576,-1.9122 2.1541,-1.9397 2.1736,-1.9465 2.2532,-1.9074 2.2445,-1.8948 2.2558,-1.8836 2.2414,-1.8737 2.2564,-1.8679 2.2564,-1.8478 2.2293,-1.8661 2.2867,-1.7744 2.3152,-1.8388 2.3333,-1.811 2.3752,-1.8215 2.4075,-1.7947 2.4126,-1.8204 2.4431,-1.8143 2.4323,-1.8399 2.4468,-1.8535 2.4285,-1.8615 2.4623,-1.8766 2.4576,-1.8942 2.5525,-1.8679 2.5162,-1.8575 2.5215,-1.8524 2.5627,-1.8598 2.5501,-1.8393 2.544,-1.8558 2.534,-1.8259 2.5702,-1.8615 2.6093,-1.8518 2.6183,-1.8371 2.5991,-1.8265 2.6618,-1.7786 2.7698,-1.7845 2.791,-1.7618 2.7896,-1.7242 2.8084,-1.7157 2.8159,-1.6812 2.8075,-1.6634 2.8266,-1.7127 2.8615,-1.7222 2.9297,-1.7217 2.9603,-1.6754 2.9765,-1.6773 2.9845,-1.6919 2.9699,-1.7167 2.9756,-1.741 3.0704,-1.7303 3.1416,-1.6846 3.1416,-1.5093 3.1158,-1.4901 3.0871,-1.5098 3.0777,-1.5085 3.0931,-1.5007 3.0465,-1.4933 3.0728,-1.5023 3.1107,-1.4803 3.1149,-1.4489 3.1341,-1.418 3.1262,-1.4009 3.0896,-1.4184 3.017,-1.3695 2.9732,-1.3159 2.9536,-1.3381 2.9006,-1.3117 2.9034,-1.3338 2.8789,-1.3114 2.8578,-1.318 2.8267,-1.2518 2.8489,-1.2423 2.8407,-1.2244 2.8508,-1.1923 2.8421,-1.1872 2.8456,-1.2014 2.8391,-1.2004 2.8288,-1.1879 2.8225,-1.1695 2.8294,-1.1467 2.7937,-1.1298 2.7931,-1.0986 2.7658,-1.0957 2.7594,-1.0608 2.7358,-1.0373 2.715,-1.1603 2.7224,-1.2071 2.7375,-1.226 2.7372,-1.2419 2.7625,-1.2495 2.8287,-1.3335 2.8573,-1.3495 2.866,-1.3998 2.8868,-1.4074 2.8506,-1.4096 2.8465,-1.3731 2.7955,-1.3395 2.7992,-1.3535 2.7889,-1.351 2.7979,-1.3849 2.7416,-1.3772 2.6929,-1.311 2.6915,-1.2989 2.7081,-1.289 2.6412,-1.2785 2.6574,-1.29 2.6117,-1.309 2.5958,-1.2914 2.511,-1.2965 2.4789,-1.2826 2.3599,-1.1494 2.3876,-1.1427 2.3876,-1.1177 2.4028,-1.1325 2.397,-1.1272 2.4056,-1.1227 2.3955,-1.1109 2.4178,-1.123 2.4164,-1.1106 2.4201,-1.1331 2.4384,-1.1325 2.4674,-1.1033 2.4581,-1.0974 2.4695,-1.0713 2.4525,-1.0326 2.4454,-0.9685 2.3585,-0.8455 2.3241,-0.8257 2.3002,-0.8391 2.281,-0.8162Z M0.828,-2.5255 0.8496,-2.5016 0.7837,-2.4995 0.828,-2.5255Z M0.8776,-2.5343 0.9023,-2.5081 0.8446,-2.4463 0.814,-2.4669 0.8776,-2.5343Z M1.1828,-2.1148 1.0709,-2.0487 1.0215,-1.9944 0.9884,-1.9189 0.9477,-1.9219 0.9383,-1.9478 0.9798,-1.9944 0.9701,-2.0029 0.9861,-2.0249 0.976,-2.0391 1.0276,-2.0866 1.1786,-2.1729 1.2032,-2.1499 1.1828,-2.1148Z M0.9655,-1.9195 0.9849,-1.9128 0.9669,-1.8743 0.9652,-1.8393 1.0058,-1.7733 0.9376,-1.7776 0.9317,-1.7808 0.9453,-1.7947 0.8978,-1.8304 0.9184,-1.8598 0.9236,-1.8813 0.9172,-1.8871 0.9294,-1.9116 0.9655,-1.9195Z M1.6848,-2.5511 1.708,-2.5092 1.6949,-2.4995 1.6961,-2.4607 1.6383,-2.4373 1.5973,-2.4731 1.6244,-2.541 1.6848,-2.5511Z M1.7047,-2.4525 1.7108,-2.4383 1.7043,-2.4124 1.7445,-2.4213 1.7397,-2.3701 1.7286,-2.3673 1.7441,-2.3367 1.7027,-2.325 1.6244,-2.3872 1.6579,-2.4463 1.7047,-2.4525Z M1.7956,-2.3635 1.7874,-2.3259 1.8117,-2.3542 1.8385,-2.3036 1.7329,-2.2562 1.7731,-2.3729 1.7956,-2.3635Z M2.4443,-2.0851 2.4578,-2.071 2.4695,-2.1075 2.537,-2.064 2.5136,-2.0303 2.4927,-2.046 2.4948,-2.0766 2.4799,-2.0731 2.4981,-2.0256 2.4298,-2.0049 2.3904,-2.046 2.4122,-2.1053 2.4443,-2.0851Z M2.5621,-2.0528 2.6323,-2.0384 2.6014,-2.0122 2.5508,-2.0412 2.5621,-2.0528Z M3.1217,-1.7786 3.1186,-1.7936 3.1416,-1.8171 3.1416,-1.7872 3.1217,-1.7786Z M2.4916,-1.1358 2.5014,-1.0937 2.4991,-1.0645 2.5257,-0.9743 2.5128,-0.9913 2.4976,-0.9891 2.4881,-0.9507 2.5059,-0.9154 2.5033,-0.907 2.5007,-0.9204 2.4895,-0.9245 2.4798,-0.9043 2.482,-1.0442 2.4724,-1.0738 2.4752,-1.1047 2.4876,-1.108 2.4841,-1.1325 2.4916,-1.1358Z M-3.122,-1.8193 -3.098,-1.7996 -3.1416,-1.7872 -3.1416,-1.8171 -3.122,-1.8193Z M2.6032,-2.1461 2.5901,-2.1453 2.6032,-2.1461Z M1.8797,-2.2638 1.8574,-2.2646 1.8797,-2.2638Z M1.6848,-2.1177 1.6635,-2.1126 1.6848,-2.1177Z M1.6806,-2.1745 1.6628,-2.1737 1.6806,-2.1745Z M0.8973,-2.4302 0.8742,-2.4342 0.8973,-2.4302Z M1.0231,-2.5466 1.0285,-2.5233 0.9985,-2.5443 1.0231,-2.5466Z M0.8774,-1.6949 0.8536,-1.673 0.8426,-1.6875 0.8543,-1.7107 0.8774,-1.6949Z M1.106,-2.5092 1.0912,-2.5222 1.1271,-2.5647 1.1421,-2.5343 1.106,-2.5092Z M1.0116,-2.4484 0.995,-2.4846 1.0343,-2.471 1.0116,-2.4484Z M1.0851,-2.5233 1.0655,-2.4794 1.0348,-2.4952 1.0851,-2.5233Z M1.0671,-2.5365 1.0482,-2.5399 1.0746,-2.5477 1.0671,-2.5365Z M0.9341,-2.4555 0.9112,-2.4627 0.9399,-2.4638 0.9341,-2.4555Z M0.9962,-2.472 0.9725,-2.4463 0.9962,-2.472Z M1.009,-2.6054 1.0221,-2.5901 0.9681,-2.5773 1.009,-2.6054Z M0.955,-2.5556 1.0069,-2.5189 0.9437,-2.5211 0.955,-2.5556Z M1.1109,-2.6125 1.084,-2.621 1.1109,-2.6125Z M1.0175,-2.6258 1.0107,-2.6258 1.0369,-2.6392 1.0175,-2.6258Z M1.6176,-2.4056 1.5895,-2.4342 1.6371,-2.4262 1.6176,-2.4056Z M1.5982,-2.5578 1.5691,-2.5612 1.5982,-2.5578Z M2.4611,-1.9623 2.4452,-1.9737 2.4611,-1.9623Z M2.4815,-1.9559 2.5044,-1.9158 2.4381,-1.9268 2.4815,-1.9559Z M2.9531,-1.7142 2.9285,-1.7273 2.9569,-1.7283 2.9531,-1.7142Z M2.8561,-1.2691 2.8723,-1.29 2.8732,-1.2788 2.8561,-1.2691Z M2.6126,-0.8973 2.6276,-0.9116 2.6126,-0.8973Z M2.5936,-0.8893 2.5639,-0.8666 2.5817,-0.8908 2.5936,-0.8893Z M2.5518,-0.8691 2.5581,-0.8676 2.5384,-0.8506 2.5518,-0.8691Z M1.979,-1.9879 1.946,-1.9847 1.979,-1.9879Z M1.3308,-2.4017 1.3542,-2.3872 1.3308,-2.4017Z M1.3968,-2.5255 1.3785,-2.5255 1.4038,-2.5343 1.3968,-2.5255Z M1.2334,-1.9068 1.2203,-1.9056 1.2278,-1.9298 1.2502,-1.914 1.2334,-1.9068Z M1.3549,-1.8592 1.3416,-1.861 1.3678,-1.8702 1.3549,-1.8592Z M1.0551,-1.7318 1.0409,-1.7212 1.0205,-1.7493 1.0551,-1.7318Z M0.3658,-1.1628 0.3594,-1.1536 0.3939,-1.1561 0.3974,-1.1349 0.3421,-1.1379 0.3658,-1.1628Z M0.5863,-0.9088 0.6055,-0.9058 0.6189,-0.8893 0.6384,-0.891 0.5892,-0.8666 0.5857,-0.8838 0.5674,-0.8913 0.5863,-0.9088Z" fill="#e8efe2"/><path d="M-2.3154,-1.128 -2.3068,-1.123 -2.3119,-1.1138 -2.2981,-1.1283 -2.3031,-1.1039 -2.3169,-1.1039 -2.3113,-1.105 -2.323,-1.1245 -2.3154,-1.128Z M-2.2995,-1.1006 -2.3033,-1.0914 -2.2902,-1.0704 -2.3134,-1.0989 -2.2995,-1.1006Z M-2.2201,-1.0282 -2.19,-1.0194 -2.1516,-0.9695 -2.182,-0.9761 -2.1783,-0.9894 -2.1911,-0.9825 -2.2087,-0.995 -2.2014,-1.0018 -2.2316,-1.0142 -2.2248,-1.0265 -2.2401,-1.0309 -2.2201,-1.0282Z M-2.2695,-1.1816 -2.3007,-1.2036 -2.3283,-1.2627 -2.3646,-1.3097 -2.3988,-1.2792 -2.4274,-1.3289 -2.4609,-1.3275 -2.4609,-1.7177 -2.3607,-1.6701 -2.3721,-1.6909 -2.3459,-1.7192 -2.3366,-1.7107 -2.3417,-1.6978 -2.2609,-1.741 -2.3159,-1.6983 -2.3248,-1.673 -2.3002,-1.7067 -2.2859,-1.6958 -2.2489,-1.7227 -2.2284,-1.7488 -2.2338,-1.7649 -2.1944,-1.7042 -2.174,-1.7431 -2.1663,-1.7197 -2.1701,-1.7032 -2.1248,-1.7253 -1.989,-1.6567 -2.0146,-1.6342 -2.0094,-1.6296 -1.9211,-1.6375 -1.8848,-1.604 -1.8937,-1.5964 -1.8726,-1.5658 -1.8806,-1.5905 -1.8703,-1.587 -1.8843,-1.6296 -1.8457,-1.6658 -1.8975,-1.652 -1.8911,-1.6663 -1.8504,-1.6812 -1.8237,-1.6407 -1.7724,-1.6236 -1.7176,-1.6291 -1.7214,-1.6412 -1.7008,-1.6204 -1.6954,-1.6287 -1.7218,-1.6548 -1.7001,-1.6615 -1.683,-1.6525 -1.6881,-1.6398 -1.675,-1.6496 -1.682,-1.6153 -1.6654,-1.5928 -1.6828,-1.5941 -1.6719,-1.5755 -1.6762,-1.5896 -1.6626,-1.604 -1.6656,-1.6403 -1.631,-1.6672 -1.638,-1.6856 -1.6511,-1.6759 -1.6324,-1.7092 -1.6851,-1.7462 -1.6734,-1.7639 -1.6851,-1.7776 -1.6834,-1.8007 -1.6513,-1.8422 -1.598,-1.7446 -1.6113,-1.7477 -1.6054,-1.7375 -1.6212,-1.7187 -1.5787,-1.7092 -1.5924,-1.6998 -1.5743,-1.6501 -1.5582,-1.6983 -1.5397,-1.6817 -1.5326,-1.6544 -1.5413,-1.6356 -1.524,-1.5999 -1.4956,-1.6696 -1.4813,-1.6744 -1.4924,-1.7278 -1.4376,-1.7172 -1.4443,-1.7097 -1.4203,-1.6949 -1.4305,-1.6797 -1.4181,-1.673 -1.4408,-1.6601 -1.4188,-1.6149 -1.4219,-1.5955 -1.4558,-1.5645 -1.4854,-1.5883 -1.4638,-1.5576 -1.5134,-1.5711 -1.5003,-1.5537 -1.5263,-1.5206 -1.5958,-1.5464 -1.519,-1.5147 -1.5378,-1.4731 -1.5715,-1.4715 -1.5849,-1.4493 -1.6354,-1.4719 -1.5832,-1.4384 -1.612,-1.4199 -1.6047,-1.4108 -1.6153,-1.4096 -1.615,-1.3953 -1.6268,-1.4024 -1.6216,-1.3972 -1.6539,-1.3345 -1.6574,-1.2849 -1.6464,-1.2591 -1.6427,-1.2738 -1.6263,-1.2735 -1.6132,-1.227 -1.6197,-1.2141 -1.5811,-1.2237 -1.4954,-1.1726 -1.49,-1.1567 -1.438,-1.1564 -1.4282,-1.0724 -1.4078,-1.0594 -1.4039,-1.049 -1.4111,-1.0415 -1.398,-1.0459 -1.3849,-1.0315 -1.3909,-1.0479 -1.3847,-1.0557 -1.3771,-1.0437 -1.3692,-1.0736 -1.379,-1.1248 -1.3912,-1.1442 -1.3575,-1.1631 -1.3357,-1.2008 -1.342,-1.2413 -1.3704,-1.2718 -1.349,-1.3177 -1.3544,-1.3463 -1.3645,-1.3459 -1.3528,-1.3727 -1.3636,-1.3994 -1.3504,-1.4104 -1.3025,-1.3935 -1.2865,-1.4066 -1.2465,-1.3582 -1.213,-1.3538 -1.216,-1.3198 -1.2331,-1.318 -1.217,-1.3142 -1.2102,-1.2928 -1.2243,-1.2745 -1.194,-1.2751 -1.1931,-1.2544 -1.205,-1.2459 -1.1872,-1.2654 -1.1812,-1.2488 -1.1582,-1.2755 -1.1519,-1.2634 -1.1428,-1.2986 -1.1352,-1.2959 -1.142,-1.3093 -1.1257,-1.3264 -1.1304,-1.3173 -1.1069,-1.289 -1.1165,-1.2843 -1.0973,-1.2714 -1.109,-1.2601 -1.0924,-1.2647 -1.1041,-1.2495 -1.0814,-1.2462 -1.0908,-1.2325 -1.0704,-1.217 -1.0739,-1.2055 -1.0908,-1.2103 -1.0531,-1.1782 -1.058,-1.1561 -1.043,-1.1637 -1.0374,-1.1597 -1.0444,-1.1485 -1.0343,-1.1603 -1.0018,-1.1418 -1.0542,-1.1138 -1.053,-1.1027 -1.0022,-1.1289 -1.0006,-1.1085 -0.9865,-1.1174 -0.9769,-1.1085 -0.9739,-1.0844 -0.983,-1.0816 -0.9716,-1.0716 -0.9945,-1.0509 -1.0212,-1.0465 -1.0486,-1.0175 -1.1606,-1.0164 -1.216,-0.9627 -1.2395,-0.9695 -1.2179,-0.9601 -1.2439,-0.9265 -1.2971,-0.8945 -1.291,-0.89 -1.3408,-0.848 -1.3762,-0.8467 -1.3795,-0.8281 -1.4432,-0.8017 -1.4512,-0.8125 -1.4336,-0.8465 -1.4408,-0.89 -1.4683,-0.9197 -1.5425,-0.9653 -1.5973,-0.959 -1.6514,-0.9769 -1.6609,-0.9937 -1.6609,-0.9835 -2.1482,-0.9833 -2.1501,-1.002 -2.1647,-0.9999 -2.1569,-1.002 -2.1612,-1.0145 -2.1691,-1.0045 -2.1778,-1.0112 -2.1792,-1.0345 -2.1939,-1.0232 -2.207,-1.0257 -2.1974,-1.0298 -2.208,-1.0293 -2.2082,-1.0398 -2.229,-1.0423 -2.2112,-1.0577 -2.229,-1.0518 -2.2305,-1.0716 -2.2115,-1.0679 -2.2202,-1.0804 -2.2169,-1.0902 -2.2358,-1.0602 -2.2349,-1.0922 -2.2544,-1.1103 -2.2328,-1.1027 -2.2459,-1.1109 -2.2433,-1.12 -2.2612,-1.1021 -2.2749,-1.1159 -2.2625,-1.131 -2.2764,-1.1367 -2.2612,-1.1683 -2.2698,-1.1561 -2.2695,-1.1816Z M-1.9167,-2.3089 -1.9085,-2.2843 -1.9773,-2.2809 -1.9167,-2.3089Z M-1.9279,-2.2612 -1.9132,-2.2579 -1.935,-2.2386 -1.9234,-2.2133 -1.9539,-2.1988 -1.9771,-2.237 -1.9279,-2.2612Z M-2.0167,-2.2004 -2.0303,-2.183 -2.0242,-2.1483 -2.046,-2.1177 -2.0593,-2.1273 -2.0574,-2.1575 -2.0928,-2.0873 -2.145,-2.1067 -2.0785,-2.1965 -2.0167,-2.2004Z M-1.89,-2.1017 -1.841,-2.0759 -1.8668,-2.0236 -1.9726,-1.9879 -1.9963,-2.0056 -1.9378,-2.0432 -2.0525,-2.046 -2.0096,-2.0745 -2.0448,-2.0717 -2.007,-2.0901 -2.0361,-2.0944 -2.0033,-2.1097 -2.0216,-2.1192 -2.0071,-2.134 -1.9026,-2.0626 -1.9253,-2.1266 -1.8994,-2.1583 -1.89,-2.1017Z M-1.9988,-1.8766 -1.9734,-1.9008 -1.942,-1.8836 -1.9492,-1.8598 -1.92,-1.8996 -1.8813,-1.822 -1.8729,-1.8365 -1.8891,-1.9098 -1.8584,-1.9128 -1.8399,-1.8883 -1.8219,-1.8193 -1.824,-1.7909 -1.7612,-1.7258 -1.8052,-1.7187 -1.7998,-1.6954 -1.7829,-1.7097 -1.7766,-1.6944 -1.7959,-1.6768 -1.8616,-1.7072 -1.9106,-1.6701 -1.9745,-1.661 -1.9843,-1.6954 -2.0335,-1.7062 -2.0455,-1.738 -1.9483,-1.7514 -2.0523,-1.7681 -2.0661,-1.7861 -2.0124,-1.8143 -2.0768,-1.8293 -2.0659,-1.8731 -2.0345,-1.9038 -1.9933,-1.9189 -1.9988,-1.8766Z M-2.0899,-1.9692 -2.0509,-1.9769 -2.0139,-1.9311 -2.0762,-1.8819 -2.0975,-1.8547 -2.1052,-1.8154 -2.144,-1.7931 -2.1965,-1.8416 -2.1607,-1.9478 -2.1764,-1.9847 -2.1206,-1.9977 -2.0899,-1.9692Z M-1.2128,-2.7971 -1.0683,-2.7039 -1.1989,-2.575 -1.1306,-2.5983 -1.2577,-2.4484 -1.2315,-2.4433 -1.246,-2.4124 -1.3422,-2.3882 -1.3008,-2.345 -1.3715,-2.3477 -1.299,-2.3151 -1.3338,-2.2965 -1.3123,-2.2809 -1.3615,-2.2486 -1.3699,-2.2012 -1.4322,-2.1957 -1.3614,-2.1605 -1.4102,-2.1097 -1.4404,-2.1506 -1.4352,-2.1318 -1.5633,-2.1333 -1.5457,-2.1776 -1.5151,-2.1862 -1.5375,-2.2296 -1.5317,-2.2395 -1.479,-2.2004 -1.4416,-2.252 -1.4811,-2.2117 -1.4931,-2.2469 -1.4699,-2.268 -1.482,-2.2732 -1.4797,-2.2983 -1.4938,-2.2621 -1.528,-2.268 -1.5151,-2.3196 -1.4268,-2.3386 -1.4732,-2.3404 -1.4587,-2.345 -1.5083,-2.4213 -1.5097,-2.4627 -1.4046,-2.3978 -1.3984,-2.4036 -1.4484,-2.4689 -1.3415,-2.5266 -1.3739,-2.5365 -1.342,-2.5912 -1.4139,-2.5038 -1.4861,-2.4899 -1.5118,-2.5016 -1.4537,-2.559 -1.5308,-2.5048 -1.5579,-2.5321 -1.4825,-2.575 -1.5642,-2.5454 -1.5704,-2.5556 -1.5289,-2.603 -1.6001,-2.6161 -1.4842,-2.6578 -1.5118,-2.6883 -1.4818,-2.7184 -1.3861,-2.6417 -1.439,-2.7118 -1.3744,-2.7494 -1.3943,-2.7857 -1.3266,-2.7304 -1.3189,-2.7399 -1.346,-2.7957 -1.2128,-2.7971Z M-1.6664,-2.2353 -1.6254,-2.2247 -1.6804,-2.2222 -1.6664,-2.2353Z M-1.6326,-2.0296 -1.6331,-2.0056 -1.6528,-2.0036 -1.686,-2.0316 -1.656,-2.071 -1.6326,-2.0296Z M-1.7453,-1.9591 -1.6949,-1.949 -1.7179,-1.8984 -1.6849,-1.883 -1.6862,-1.8332 -1.716,-1.8343 -1.7139,-1.8116 -1.724,-1.8045 -1.7926,-1.8866 -1.7476,-1.8954 -1.7548,-1.9128 -1.7424,-1.9134 -1.7719,-1.9317 -1.7544,-1.928 -1.7626,-1.9478 -1.7453,-1.9591Z M-1.4821,-1.5172 -1.4748,-1.5256 -1.432,-1.4917 -1.4293,-1.4667 -1.4008,-1.458 -1.4146,-1.4446 -1.4519,-1.4723 -1.4903,-1.4314 -1.4975,-1.4544 -1.5216,-1.4501 -1.5053,-1.4715 -1.4977,-1.5413 -1.4821,-1.5172Z M-1.7052,-2.1318 -1.7085,-2.0802 -1.6989,-2.0563 -1.7102,-2.031 -1.7581,-2.0515 -1.7312,-2.0759 -1.7942,-2.0689 -1.7623,-2.083 -1.7827,-2.1177 -1.7778,-2.1296 -1.7431,-2.0916 -1.7472,-2.106 -1.7373,-2.1082 -1.7609,-2.1325 -1.7052,-2.1318Z M-1.8052,-2.3701 -1.7455,-2.316 -1.7279,-2.2528 -1.824,-2.2774 -1.8326,-2.2974 -1.8041,-2.3169 -1.8427,-2.3505 -1.8052,-2.3701Z M-1.6038,-2.5567 -1.5509,-2.4535 -1.5301,-2.4741 -1.5345,-2.4463 -1.5181,-2.4252 -1.5237,-2.3949 -1.4842,-2.3663 -1.5293,-2.3115 -1.5366,-2.3404 -1.5355,-2.2992 -1.5483,-2.3045 -1.5497,-2.2689 -1.5715,-2.3053 -1.5619,-2.2672 -1.5954,-2.2689 -1.6436,-2.3377 -1.5935,-2.3748 -1.6598,-2.3673 -1.6708,-2.3796 -1.6476,-2.4104 -1.6731,-2.4036 -1.689,-2.4504 -1.6451,-2.4555 -1.6823,-2.47 -1.6677,-2.4741 -1.6743,-2.5113 -1.6394,-2.4942 -1.667,-2.5266 -1.6273,-2.5567 -1.6438,-2.5808 -1.6038,-2.5567Z M-1.6457,-2.1652 -1.6268,-2.1529 -1.6324,-2.1303 -1.5978,-2.1483 -1.5582,-2.1192 -1.5954,-2.1133 -1.5519,-2.0584 -1.4338,-2.0851 -1.3903,-2.0584 -1.4029,-2.0296 -1.3858,-2.0222 -1.4301,-1.9925 -1.4577,-2.0209 -1.4736,-1.9951 -1.5972,-2.0043 -1.6125,-2.0453 -1.6081,-2.083 -1.6247,-2.1229 -1.6628,-2.1163 -1.6912,-2.1529 -1.6457,-2.1652Z M-1.679,-2.2983 -1.6568,-2.2595 -1.6928,-2.237 -1.7045,-2.2604 -1.6919,-2.2655 -1.7164,-2.3178 -1.679,-2.2983Z M-1.6261,-1.9724 -1.5769,-1.9541 -1.6078,-1.886 -1.6443,-1.8866 -1.6326,-1.8679 -1.6614,-1.8444 -1.6691,-1.9434 -1.6261,-1.9724Z M-1.7006,-1.7172 -1.6628,-1.6773 -1.686,-1.6596 -1.7376,-1.687 -1.7111,-1.7082 -1.7139,-1.7253 -1.7006,-1.7172Z M-1.0666,-0.9048 -1.0601,-0.9 -1.0524,-0.9141 -1.0442,-0.9055 -1.0725,-0.8993 -1.0557,-0.9319 -1.0557,-0.9131 -1.0666,-0.9048Z M-1.1715,-0.8856 -1.1833,-0.8995 -1.1835,-0.9337 -1.2085,-0.9435 -1.2369,-0.8881 -1.3039,-0.8814 -1.2308,-0.9324 -1.2011,-0.9672 -1.1435,-0.991 -1.127,-0.9865 -1.1214,-0.9719 -1.139,-0.958 -1.1641,-0.958 -1.1292,-0.9502 -1.14,-0.9342 -1.1315,-0.9332 -1.1264,-0.9123 -1.0952,-0.8975 -1.0814,-0.903 -1.0652,-0.8885 -1.1221,-0.8703 -1.1423,-0.8453 -1.1542,-0.8523 -1.1542,-0.8684 -1.1249,-0.8898 -1.1195,-0.8819 -1.106,-0.8903 -1.1322,-0.89 -1.1224,-0.9023 -1.128,-0.905 -1.1498,-0.8868 -1.1715,-0.8856Z M-0.968,-1.0532 -0.9779,-1.0473 -0.9739,-1.039 -0.9917,-1.0001 -0.9805,-1.0137 -0.9687,-1.0101 -0.9798,-1.0004 -0.9639,-0.9974 -0.966,-0.9859 -0.9512,-0.998 -0.9358,-0.9923 -0.9444,-0.9677 -0.9257,-0.9748 -0.9402,-0.958 -0.9367,-0.9484 -0.9229,-0.9609 -0.9255,-0.9245 -0.9353,-0.9224 -0.9355,-0.9355 -0.9447,-0.9275 -0.9399,-0.9429 -0.9458,-0.9538 -0.9737,-0.9283 -0.9561,-0.9486 -1.0343,-0.9479 -1.0181,-0.9711 -1.0327,-0.9722 -1.0121,-0.9835 -1.016,-0.9942 -0.9955,-1.0384 -0.968,-1.0532Z M-1.5113,-1.7882 -1.4804,-1.7893 -1.4783,-1.822 -1.4994,-1.8422 -1.471,-1.845 -1.4949,-1.8842 -1.4708,-1.8913 -1.4914,-1.9074 -1.4244,-1.9434 -1.401,-1.886 -1.4177,-1.8604 -1.4069,-1.8685 -1.4125,-1.8377 -1.3933,-1.8685 -1.3717,-1.836 -1.3736,-1.8627 -1.353,-1.8529 -1.3687,-1.8754 -1.3484,-1.8854 -1.3102,-1.861 -1.3247,-1.8265 -1.2963,-1.845 -1.3125,-1.8265 -1.3038,-1.8248 -1.309,-1.7996 -1.2893,-1.8298 -1.295,-1.8094 -1.2504,-1.816 -1.2425,-1.8028 -1.2676,-1.7786 -1.2334,-1.7904 -1.2547,-1.7576 -1.2448,-1.7628 -1.2467,-1.7421 -1.2277,-1.7765 -1.1956,-1.767 -1.2228,-1.7375 -1.1844,-1.7498 -1.1727,-1.7232 -1.2086,-1.7107 -1.1638,-1.6983 -1.2099,-1.6788 -1.1643,-1.6591 -1.1676,-1.6407 -1.1556,-1.6511 -1.1612,-1.631 -1.1509,-1.6412 -1.1414,-1.6227 -1.1341,-1.6398 -1.1144,-1.6181 -1.1292,-1.6081 -1.1233,-1.604 -1.1003,-1.6031 -1.1118,-1.5843 -1.0842,-1.5946 -1.0699,-1.5768 -1.0917,-1.5663 -1.0819,-1.5503 -1.0929,-1.5494 -1.0936,-1.5332 -1.1076,-1.5421 -1.1102,-1.5036 -1.1414,-1.5383 -1.1249,-1.5624 -1.149,-1.5485 -1.1692,-1.5759 -1.1846,-1.5698 -1.1755,-1.5455 -1.1999,-1.5572 -1.1638,-1.4986 -1.142,-1.4954 -1.1357,-1.4836 -1.1446,-1.4775 -1.1242,-1.4544 -1.1273,-1.4361 -1.1378,-1.4564 -1.1287,-1.4237 -1.1364,-1.4127 -1.1849,-1.4552 -1.1819,-1.4431 -1.2027,-1.454 -1.1516,-1.3968 -1.1575,-1.3842 -1.2453,-1.4295 -1.2565,-1.4431 -1.2458,-1.4493 -1.2654,-1.4588 -1.2788,-1.4892 -1.3041,-1.4995 -1.3036,-1.486 -1.3415,-1.4755 -1.3643,-1.4909 -1.3497,-1.5252 -1.3169,-1.4999 -1.323,-1.5189 -1.2837,-1.5269 -1.2989,-1.5559 -1.2605,-1.6035 -1.2884,-1.6706 -1.2989,-1.6653 -1.3064,-1.689 -1.3367,-1.6711 -1.3203,-1.6958 -1.38,-1.7665 -1.386,-1.756 -1.3755,-1.7446 -1.3804,-1.7318 -1.4251,-1.74 -1.4123,-1.7217 -1.4971,-1.7375 -1.508,-1.7597 -1.5341,-1.7482 -1.5614,-1.7909 -1.5209,-1.7882 -1.5654,-1.8105 -1.5713,-1.8399 -1.5574,-1.9074 -1.5389,-1.9372 -1.4837,-1.9484 -1.5127,-1.8866 -1.5048,-1.8371 -1.4839,-1.8066 -1.5113,-1.7882Z M-1.0786,-0.9862 -1.1256,-1.0077 -1.0786,-0.9862Z M-1.1137,-0.9181 -1.0825,-0.9169 -1.0961,-0.9055 -1.124,-0.9237 -1.1168,-0.9332 -1.1137,-0.9181Z M-1.4312,-1.4249 -1.449,-1.3968 -1.4645,-1.4051 -1.4553,-1.423 -1.4312,-1.4249Z M-1.3884,-1.4043 -1.3835,-1.3961 -1.3905,-1.3757 -1.401,-1.3823 -1.3884,-1.4043Z M-1.3209,-1.653 -1.31,-1.6445 -1.3144,-1.6103 -1.3429,-1.6035 -1.3493,-1.6245 -1.3209,-1.653Z M-1.3882,-1.9403 -1.3505,-1.9335 -1.328,-1.8936 -1.3875,-1.8866 -1.4113,-1.9366 -1.3882,-1.9403Z M-1.409,-1.0876 -1.4319,-1.0963 -1.4162,-1.1009 -1.409,-1.0876Z M-1.3778,-1.1935 -1.3964,-1.1822 -1.3868,-1.202 -1.3882,-1.1907 -1.3835,-1.2039 -1.3778,-1.1935Z M-1.5678,-2.1933 -1.5914,-2.2165 -1.5678,-2.1933Z M-1.8249,-2.183 -1.8513,-2.2304 -1.8249,-2.183Z M-1.7242,-2.4342 -1.7476,-2.4362 -1.7242,-2.4342Z M-1.8377,-1.896 -1.8666,-1.9317 -1.8254,-1.936 -1.8377,-1.896Z M-1.7843,-2.098 -1.8223,-2.1053 -1.7843,-2.098Z M-1.8155,-2.14 -1.7982,-2.1288 -1.8256,-2.14 -1.8155,-2.14Z M-2.0652,-2.0675 -2.0837,-2.0703 -2.0509,-2.1046 -2.0652,-2.0675Z M-1.9867,-2.232 -2.0077,-2.2503 -1.9867,-2.232Z M-1.2849,-1.6277 -1.3046,-1.6389 -1.2849,-1.6277Z M-1.3593,-1.445 -1.3532,-1.4357 -1.3708,-1.4431 -1.3593,-1.445Z M-1.7151,-1.9541 -1.7352,-1.9559 -1.7045,-1.9667 -1.7151,-1.9541Z M-1.3863,-1.7248 -1.4101,-1.7197 -1.3863,-1.7248Z M-1.3825,-1.6783 -1.3654,-1.7008 -1.3825,-1.6783Z M-1.4614,-1.54 -1.4526,-1.5357 -1.4743,-1.5524 -1.4614,-1.54Z M-1.7668,-2.14 -1.7734,-2.1415 -1.75,-2.1514 -1.7668,-2.14Z M-1.7748,-2.2279 -1.7886,-2.2395 -1.7628,-2.2312 -1.7748,-2.2279Z M-1.6769,-2.0626 -1.6933,-2.0598 -1.6769,-2.0626Z M-1.982,-2.1521 -2.0043,-2.156 -1.982,-2.1521Z M-1.8172,-2.0303 -1.8307,-2.0378 -1.8089,-2.0405 -1.8172,-2.0303Z" fill="#e8efe2"/><path d="M-1.7342,-0.8567 -1.7356,-0.8489 -1.7333,-0.8451 -1.7202,-0.8343 M-1.9464,-0.9154 -1.9495,-0.923 M-1.7589,-0.9242 -1.7553,-0.9191 -1.756,-0.9113 -1.7506,-0.8893 -1.753,-0.8777 -1.7575,-0.876 -1.7521,-0.8674 M-1.7698,-0.9447 -1.783,-0.9471 -1.7954,-0.9611 -1.8111,-0.9582 M-1.8572,-0.958 -1.8654,-0.9499 -1.883,-0.9445 -1.8884,-0.9471 M-1.7202,-0.8343 -1.7097,-0.8283 -1.6972,-0.8295 -1.6834,-0.8212 -1.6736,-0.7933 -1.6725,-0.7785 -1.6643,-0.7631 -1.6568,-0.7597 -1.6591,-0.7518 -1.6542,-0.7446 -1.6411,-0.7437 -1.6251,-0.7484 -1.6211,-0.7446 -1.6216,-0.741 -1.6078,-0.7311 -1.5958,-0.7338 -1.586,-0.7309 -1.5731,-0.7363 M-1.7521,-0.8676 -1.7342,-0.8567 M-1.9495,-0.923 -1.9541,-0.9342 -1.9228,-0.9585 -1.9179,-0.9512 -1.9012,-0.9523 -1.8883,-0.9471 M-1.7698,-0.9447 -1.7691,-0.9404 -1.7624,-0.9375 -1.7589,-0.9242 M-1.8572,-0.958 -1.8282,-0.9614 -1.8111,-0.9582" fill="none" stroke="#e8453c" stroke-width="0.0047" stroke-linecap="round"/></g></svg>