<svg xmlns="http://www.w3.org/2000/svg" viewBox="2.396 0.508 0.225 0.232" preserveAspectRatio="xMidYMid meet"><rect x="2.396" y="0.508" width="0.225" height="0.232" fill="#a9d2ea"/><g stroke="#7e96a9" stroke-width="0.0006" stroke-linejoin="round"><path d="M3.0215,0.7924 3.0433,0.7882 3.0407,0.8056 3.0112,0.8439 3.0206,0.8538 3.0027,0.8496 2.9887,0.8632 2.9807,0.903 2.9514,0.9222 2.9058,0.9053 2.9386,0.8588 2.9847,0.8302 3.0067,0.7803 3.0184,0.7748 3.0215,0.7924Z M3.0241,0.6513 3.0425,0.6582 3.0494,0.6925 3.0638,0.7004 3.0624,0.6847 3.0737,0.7103 3.092,0.7178 3.1161,0.7111 3.1051,0.7457 3.0906,0.7452 3.0864,0.7666 3.0597,0.8 3.048,0.793 3.0571,0.7654 3.0327,0.7475 3.0473,0.7356 3.0531,0.7136 3.0472,0.6982 3.0531,0.6977 3.0144,0.6414 3.0241,0.6513Z" fill="#e8efe2"/><path d="M2.499,0.2101 2.5091,0.2531 2.5215,0.251 2.5358,0.2638 2.5548,0.3375 2.5964,0.3618 2.6128,0.4021 2.6297,0.4017 2.6327,0.4214 2.6731,0.4694 2.6812,0.5227 2.6693,0.5783 2.6405,0.6228 2.6168,0.7076 2.581,0.7164 2.552,0.7342 2.5552,0.7437 2.5391,0.7233 2.5258,0.7255 2.5288,0.7158 2.5052,0.7363 2.4682,0.726 2.4396,0.7015 2.4387,0.6823 2.4255,0.6652 2.4309,0.661 2.4117,0.6659 2.4175,0.6533 2.4101,0.6352 2.4031,0.6558 2.389,0.658 2.4073,0.6228 2.4047,0.602 2.3953,0.6239 2.3675,0.6516 2.3428,0.6014 2.2888,0.5798 2.1977,0.5962 2.1684,0.6111 2.1557,0.63 2.0918,0.631 2.0522,0.655 2.0073,0.6371 2.007,0.6216 2.019,0.6147 2.0193,0.5837 1.9754,0.4737 1.9869,0.4799 1.9801,0.4625 1.9935,0.4759 1.9794,0.4365 1.99,0.3915 1.9921,0.4028 2.037,0.3685 2.1118,0.349 2.1354,0.3215 2.1351,0.3023 2.1462,0.291 2.1565,0.3107 2.1574,0.287 2.1776,0.2902 2.1712,0.2884 2.1719,0.2737 2.1827,0.2728 2.1789,0.2677 2.1879,0.267 2.1927,0.2515 2.1972,0.258 2.2,0.2465 2.2246,0.2474 2.2375,0.2603 2.2352,0.2708 2.2441,0.2607 2.2625,0.2674 2.2663,0.2618 2.2581,0.2538 2.2797,0.2187 2.3162,0.2131 2.3031,0.1964 2.3567,0.2144 2.3717,0.2078 2.3684,0.2147 2.377,0.2188 2.3831,0.2103 2.3902,0.2172 2.3817,0.233 2.3724,0.2342 2.364,0.2634 2.4304,0.3072 2.4524,0.3125 2.4681,0.2842 2.473,0.2172 2.4864,0.188 2.499,0.2101Z M2.6718,0.4654 2.6749,0.4457 2.6718,0.4654Z M2.2797,0.1999 2.2958,0.201 2.2855,0.2097 2.2756,0.1966 2.2797,0.1999Z M2.4016,0.6687 2.4106,0.671 2.3831,0.6719 2.4016,0.6687Z M2.5314,0.781 2.5538,0.7896 2.5869,0.7824 2.5827,0.8367 2.5709,0.8278 2.5634,0.8475 2.5489,0.846 2.5269,0.7956 2.5258,0.7783 2.5314,0.781Z" fill="#e8efe2"/><path d="M2.5663,0.6767 2.5703,0.6754 M2.5487,0.6745 2.552,0.6756 M2.5728,0.5517 2.5597,0.5479 2.5489,0.5489 2.5136,0.5763 2.503,0.5814 2.4853,0.6004 2.4841,0.6136 2.4883,0.6197 2.4784,0.6289 2.4771,0.6342 M2.5833,0.6953 2.5866,0.6877 2.5826,0.6754 2.5703,0.6754 M2.5663,0.6767 2.552,0.6756 M2.5487,0.6745 2.5382,0.6706 2.525,0.6762 2.5028,0.6565 2.5016,0.6484 2.4918,0.6441 2.4883,0.6482 2.4812,0.6352 2.4691,0.6355 2.46,0.6317 2.4534,0.6407 2.4391,0.6327 2.4368,0.6496 2.4311,0.6524 2.4335,0.6592 2.4312,0.6614" fill="none" stroke="#e8453c" stroke-width="0.0020" stroke-linecap="round"/></g></svg>