<svg xmlns="http://www.w3.org/2000/svg" viewBox="-1.111 0.182 0.353 0.536" preserveAspectRatio="xMidYMid meet"><rect x="-1.111" y="0.182" width="0.353" height="0.536" fill="#a9d2ea"/><g stroke="#7e96a9" stroke-width="0.0013" stroke-linejoin="round"><path d="M-0.9315,0.6262 -0.9582,0.6513 -1.01,0.6412 -1.02,0.6258 -1.0062,0.5539 -0.9919,0.5515 -0.9774,0.5712 -0.9704,0.5665 -0.9383,0.5913 -0.9273,0.6053 -0.9315,0.6262Z" fill="#e8efe2"/><path d="M-1.0151,0.3594 -1.0116,0.3958 -0.9748,0.3996 -0.9673,0.4307 -0.9467,0.4327 -0.9557,0.4805 -0.9723,0.4978 -1.0228,0.4958 -1.006,0.4572 -1.0652,0.4271 -1.0931,0.3992 -1.0779,0.3499 -1.0313,0.3432 -1.0151,0.3594Z" fill="#e8efe2"/><path d="M3.0215,0.7924 3.0433,0.7882 3.0407,0.8056 3.0112,0.8439 3.0206,0.8538 3.0027,0.8496 2.9887,0.8632 2.9807,0.903 2.9514,0.9222 2.9058,0.9053 2.9386,0.8588 2.9847,0.8302 3.0067,0.7803 3.0184,0.7748 3.0215,0.7924Z M3.0241,0.6513 3.0425,0.6582 3.0494,0.6925 3.0638,0.7004 3.0624,0.6847 3.0737,0.7103 3.092,0.7178 3.1161,0.7111 3.1051,0.7457 3.0906,0.7452 3.0864,0.7666 3.0597,0.8 3.048,0.793 3.0571,0.7654 3.0327,0.7475 3.0473,0.7356 3.0531,0.7136 3.0472,0.6982 3.0531,0.6977 3.0144,0.6414 3.0241,0.6513Z" fill="#e8efe2"/><path d="M0.1655,-0.8283 0.1604,-0.7947 0.1496,-0.8176 0.1655,-0.8283Z M0.133,-0.9468 0.1216,-0.9432 0.1042,-0.9116 0.1183,-0.9166 0.1248,-0.8908 0.1157,-0.8831 0.1204,-0.8652 0.1339,-0.8598 0.1307,-0.8513 0.1068,-0.8345 0.0682,-0.8463 0.0532,-0.8309 0.056,-0.8193 0.0354,-0.8174 -0.0255,-0.834 -0.0312,-0.8427 -0.0188,-0.8945 -0.0096,-0.8814 -0.0201,-0.9141 -0.036,-0.9268 -0.0384,-0.9357 -0.0304,-0.9373 -0.0752,-0.9528 -0.0817,-0.9585 -0.074,-0.9653 -0.0831,-0.9693 -0.0241,-0.9745 -0.0325,-1.002 0.0073,-0.9958 0.0033,-1.0026 0.0278,-1.0175 0.0291,-1.0351 0.044,-1.0409 0.0724,-1.0099 0.0848,-1.0145 0.0962,-0.9974 0.1419,-0.983 0.133,-0.9468Z M-0.9533,-0.0407 -0.9427,-0.0603 -0.9509,-0.0846 -0.9411,-0.1009 -0.9233,-0.0949 -0.9076,-0.076 -0.9046,-0.0811 -0.9015,-0.0709 -0.9198,-0.0412 -0.9533,-0.0407Z" fill="#e8efe2"/><path d="M3.1416,0.286 3.1339,0.2946 3.1404,0.2964 3.1154,0.2973 3.1416,0.286Z M3.1116,0.3079 3.1184,0.3209 3.0948,0.3209 3.098,0.311 3.1116,0.3079Z" fill="#e8efe2"/><path d="M-1.1673,-0.0213 -1.1427,-0.012 -1.1071,-0.0377 -1.1179,-0.0436 -1.1308,-0.0748 -1.0971,-0.0627 -1.0945,-0.0702 -1.0647,-0.0793 -1.0585,-0.0912 -1.047,-0.0888 -1.0498,-0.0791 -1.0393,-0.0686 -1.0472,-0.0484 -1.043,-0.0332 -1.0273,-0.0209 -0.9969,-0.0351 -0.9767,-0.0325 -0.977,-0.044 -0.9243,-0.0381 -0.8981,-0.0753 -0.8709,-0.0202 -0.9072,0.0239 -0.9191,0.0271 -0.8882,0.0164 -0.8796,0.0353 -0.8606,0.0302 -0.8664,0.0464 -0.8399,0.0129 -0.825,0.0113 -0.7793,0.0305 -0.7805,0.0559 -0.772,0.0431 -0.7713,0.0491 -0.7571,0.0416 -0.6974,0.0499 -0.6487,0.0858 -0.6205,0.0897 -0.6151,0.0974 -0.6103,0.1473 -0.6674,0.226 -0.6781,0.2251 -0.6833,0.314 -0.7156,0.3938 -0.7337,0.4117 -0.7791,0.4138 -0.8412,0.459 -0.8505,0.458 -0.8447,0.4625 -0.8517,0.5209 -0.9083,0.5923 -0.8828,0.5582 -0.8954,0.5499 -0.895,0.5645 -0.9315,0.6262 -0.9273,0.6053 -0.9383,0.5913 -0.9704,0.5665 -0.9774,0.5712 -0.9919,0.5515 -1.0055,0.5531 -0.9727,0.5133 -0.9397,0.4921 -0.9367,0.4747 -0.9427,0.4621 -0.9533,0.4621 -0.9467,0.4327 -0.9673,0.4307 -0.9739,0.4004 -1.0121,0.3947 -1.0146,0.3516 -1.0036,0.3233 -1.0193,0.3054 -1.0184,0.288 -1.0503,0.2879 -1.0561,0.243 -1.1343,0.2106 -1.1414,0.1703 -1.1976,0.1951 -1.2329,0.1934 -1.2312,0.1655 -1.2598,0.1754 -1.2633,0.1667 -1.2778,0.165 -1.2736,0.1576 -1.2915,0.1323 -1.2765,0.1132 -1.2722,0.0895 -1.2357,0.0728 -1.2212,0.0751 -1.2113,0.0208 -1.2226,-0.0101 -1.2069,-0.0115 -1.2191,-0.0185 -1.2191,-0.0298 -1.1764,-0.037 -1.1673,-0.0213Z M-0.8662,0.004 -0.8446,0.0052 -0.8522,0.0243 -0.8816,0.0312 -0.884,0.0047 -0.8662,0.004Z" fill="#e8efe2"/><path d="M-1.2132,0.3105 -1.2015,0.2891 -1.2116,0.2757 -1.1989,0.2199 -1.2144,0.1923 -1.1976,0.1951 -1.1414,0.1703 -1.1343,0.2106 -1.0561,0.243 -1.0503,0.2879 -1.0184,0.288 -1.0193,0.3054 -1.0036,0.3233 -1.0139,0.3592 -1.0313,0.3432 -1.0779,0.3499 -1.0934,0.3981 -1.1156,0.3943 -1.1228,0.4094 -1.1277,0.3981 -1.1558,0.39 -1.1818,0.4106 -1.2001,0.3642 -1.1949,0.3458 -1.2132,0.3105Z" fill="#e8efe2"/><path d="M-1.0055,0.5531 -1.0215,0.638 -0.9978,0.6605 -1.0015,0.6721 -0.99,0.6827 -0.9901,0.6951 -1.0154,0.7278 -1.0879,0.7358 -1.0891,0.7833 -1.1104,0.7896 -1.1357,0.7815 -1.1343,0.8115 -1.1243,0.8193 -1.1135,0.8118 -1.1104,0.8257 -1.1339,0.825 -1.1226,0.8321 -1.1388,0.8465 -1.1456,0.8816 -1.1683,0.8878 -1.1798,0.9075 -1.1655,0.9319 -1.1493,0.9357 -1.1559,0.953 -1.1486,0.9559 -1.1776,0.9825 -1.1853,1.0101 -1.2039,1.0107 -1.1942,1.015 -1.2106,1.039 -1.2053,1.0535 -1.2125,1.0543 -1.1936,1.075 -1.2561,1.065 -1.2638,1.0532 -1.2626,1.0293 -1.2767,1.0309 -1.2842,0.9993 -1.2673,0.9782 -1.2514,0.9227 -1.2523,0.8958 -1.2453,0.8871 -1.2577,0.8757 -1.242,0.8706 -1.2535,0.8662 -1.2523,0.8386 -1.2593,0.8326 -1.2523,0.8103 -1.2554,0.7787 -1.2467,0.7401 -1.2367,0.7313 -1.2425,0.6925 -1.2287,0.6756 -1.2315,0.6582 -1.2191,0.6363 -1.232,0.5812 -1.2189,0.5529 -1.2158,0.5175 -1.1924,0.4891 -1.1957,0.4438 -1.1757,0.4323 -1.1727,0.4093 -1.1558,0.39 -1.1277,0.3981 -1.1228,0.4094 -1.1156,0.3943 -1.0966,0.3938 -1.0652,0.4271 -1.006,0.4572 -1.0228,0.4958 -0.9723,0.4978 -0.957,0.4829 -0.9533,0.4621 -0.9406,0.4638 -0.9397,0.4921 -0.9727,0.5133 -1.0055,0.5531Z M-1.1982,1.1497 -1.1978,1.0847 -1.1954,1.1024 -1.1744,1.1257 -1.1376,1.1445 -1.1982,1.1497Z" fill="#e8efe2"/><path d="M-0.8812,0.3382 -0.877,0.3321 -0.869,0.3307 M-0.8418,0.3257 -0.8571,0.3266 M-0.8282,0.3226 -0.8381,0.3274 M-0.9531,0.4592 -0.9472,0.433 M-0.9065,0.3829 -0.9146,0.3951 -0.9243,0.4023 M-0.8901,0.3503 -0.8899,0.3582 -0.8971,0.3646 M-0.8083,0.341 -0.8151,0.3259 -0.8259,0.3209 -0.8282,0.3226 M-0.8381,0.3274 -0.8418,0.3257 M-0.8571,0.3266 -0.8611,0.3301 -0.869,0.3307 M-1.0329,0.6277 -1.0198,0.6314 M-1.054,0.6143 -1.0329,0.6277 M-1.054,0.6143 -1.0413,0.6174 -1.0329,0.6277 M-1.0228,0.4958 -1.0276,0.4997 -1.0273,0.5088 -1.0313,0.5151 -1.0334,0.5299 -1.0397,0.536 -1.0411,0.5639 -1.0524,0.5808 -1.0589,0.5853 -1.0601,0.6035 -1.054,0.6143 M-0.9531,0.4592 -0.9557,0.4805 -0.9624,0.4883 -0.9674,0.4899 -0.9723,0.4978 -0.9802,0.496 -0.9851,0.5005 -1.0228,0.4958 M-0.9388,0.4189 -0.9472,0.433 -0.9437,0.4317 -0.9388,0.4189 M-0.9243,0.4023 -0.9334,0.4098 -0.9388,0.4189 M-0.8971,0.3646 -0.9065,0.3829 M-0.8812,0.3382 -0.8865,0.3423 -0.8901,0.3503 M-0.9613,0.2526 -0.9804,0.2591 -0.9861,0.2656 -0.9755,0.2842 -0.9765,0.2886 -0.984,0.2931 -0.9912,0.3083 -1.0013,0.3173 -1.002,0.3286 -1.0069,0.3364 -1.0008,0.3397 -1.0002,0.3443 -1.0029,0.3499 -1.0149,0.3597 -1.0091,0.3752 -1.0119,0.3955 -1.0086,0.4049 -1.0105,0.4079 -1.0032,0.4193 -0.9961,0.4409 -0.9987,0.4505 -1.006,0.4555 -1.0048,0.4611 -1.0142,0.4737 -1.0156,0.4825 -1.0231,0.4923 -1.0228,0.4958" fill="none" stroke="#e8453c" stroke-width="0.0047" stroke-linecap="round"/></g></svg>