<svg xmlns="http://www.w3.org/2000/svg" viewBox="0.032 -1.293 0.648 2.039" preserveAspectRatio="xMidYMid meet"><rect x="0.032" y="-1.293" width="0.648" height="2.039" fill="#a9d2ea"/><g stroke="#7e96a9" stroke-width="0.0051" stroke-linejoin="round"><path d="M0.5461,0.4013 0.4889,0.3853 0.4831,0.3657 0.4568,0.3478 0.4409,0.3156 0.4716,0.3187 0.5189,0.2764 0.5751,0.2959 0.5758,0.356 0.566,0.3806 0.5461,0.4013Z" fill="#e8efe2"/><path d="M0.5306,0.2764 0.5056,0.282 0.4674,0.3202 0.4081,0.3129 0.3847,0.2877 0.3836,0.2289 0.4182,0.2287 0.4184,0.1909 0.4255,0.2006 0.4414,0.1969 0.4543,0.209 0.474,0.2035 0.5063,0.2355 0.5198,0.2368 0.5201,0.2138 0.5072,0.2172 0.4953,0.2033 0.4957,0.1616 0.5044,0.1487 0.5367,0.1434 0.5794,0.1689 0.5875,0.1859 0.5805,0.1912 0.5849,0.2172 0.5702,0.2394 0.5794,0.247 0.5276,0.2647 0.5306,0.2764Z" fill="#e8efe2"/><path d="M-2.9925,-1.4517 -2.9447,-1.4388 -2.9615,-1.4253 -2.9983,-1.4431 -2.9925,-1.4517Z M-2.8997,-1.3303 -2.8901,-1.3138 -2.9224,-1.3243 -2.8997,-1.3303Z M-2.6686,-1.2432 -2.6567,-1.2354 -2.6873,-1.2093 -2.7002,-1.2276 -2.6686,-1.2432Z M-2.2695,-1.1816 -2.2791,-1.1473 -2.2873,-1.1591 -2.2869,-1.1879 -2.3059,-1.1717 -2.296,-1.1916 -2.3295,-1.2221 -2.3326,-1.2374 -2.3234,-1.2351 -2.3307,-1.2436 -2.3246,-1.2452 -2.3393,-1.2515 -2.3366,-1.2664 -2.3524,-1.2641 -2.3625,-1.2969 -2.3578,-1.2574 -2.3719,-1.2624 -2.3763,-1.2843 -2.3909,-1.2836 -2.3747,-1.2641 -2.3843,-1.2571 -2.44,-1.3014 -2.4258,-1.3114 -2.4335,-1.3173 -2.4508,-1.3069 -2.4681,-1.3212 -2.5159,-1.3177 -2.529,-1.3289 -2.5253,-1.3406 -2.5351,-1.3303 -2.5581,-1.3427 -2.5548,-1.3575 -2.589,-1.3546 -2.5943,-1.3342 -2.5824,-1.3338 -2.5913,-1.3159 -2.6075,-1.3208 -2.6347,-1.2907 -2.652,-1.2918 -2.6363,-1.309 -2.6503,-1.3093 -2.6417,-1.3424 -2.6019,-1.3481 -2.6189,-1.3585 -2.608,-1.3705 -2.6709,-1.3275 -2.6639,-1.3184 -2.6909,-1.288 -2.678,-1.2741 -2.7663,-1.1869 -2.8191,-1.1732 -2.8508,-1.1494 -2.8222,-1.1822 -2.7976,-1.1791 -2.7978,-1.1948 -2.7482,-1.2331 -2.7508,-1.2508 -2.7435,-1.2554 -2.7492,-1.2631 -2.7369,-1.287 -2.7609,-1.2694 -2.766,-1.2805 -2.759,-1.2819 -2.7718,-1.2816 -2.7742,-1.2624 -2.7988,-1.2843 -2.8299,-1.2704 -2.8212,-1.2863 -2.8348,-1.3268 -2.8267,-1.3417 -2.8374,-1.3166 -2.8608,-1.3103 -2.8859,-1.336 -2.8552,-1.3488 -2.8817,-1.3499 -2.8775,-1.3564 -2.9002,-1.376 -2.876,-1.407 -2.8695,-1.4353 -2.8499,-1.4287 -2.8088,-1.4525 -2.8185,-1.4832 -2.8081,-1.4982 -2.8416,-1.4807 -2.8997,-1.4892 -2.9135,-1.5131 -2.9,-1.5185 -2.9337,-1.5341 -2.8704,-1.5742 -2.8561,-1.5733 -2.8629,-1.558 -2.8571,-1.552 -2.8105,-1.5567 -2.8337,-1.5901 -2.7965,-1.5667 -2.911,-1.6548 -2.9009,-1.6802 -2.8543,-1.6939 -2.8253,-1.7524 -2.7934,-1.766 -2.7903,-1.7498 -2.7819,-1.7623 -2.7939,-1.7681 -2.7869,-1.7765 -2.7309,-1.8099 -2.7154,-1.7942 -2.7222,-1.7792 -2.7082,-1.7931 -2.6581,-1.7797 -2.6519,-1.7586 -2.4997,-1.7416 -2.4609,-1.7177 -2.4609,-1.3275 -2.4274,-1.3289 -2.3988,-1.2792 -2.3646,-1.3097 -2.3283,-1.2627 -2.3007,-1.2036 -2.2695,-1.1816Z M-2.8533,-1.1536 -2.8463,-1.1442 -2.878,-1.1403 -2.8533,-1.1536Z M-2.3277,-1.2167 -2.3204,-1.2128 -2.325,-1.1995 -2.3384,-1.217 -2.3277,-1.2167Z M-2.3557,-1.2279 -2.3506,-1.1919 -2.364,-1.2247 -2.3703,-1.217 -2.3647,-1.2335 -2.3557,-1.2279Z M-2.3506,-1.2544 -2.3356,-1.237 -2.3442,-1.2501 -2.3372,-1.2279 -2.3478,-1.218 -2.3548,-1.2607 -2.3506,-1.2544Z M-2.3689,-1.2571 -2.3553,-1.2498 -2.3621,-1.2416 -2.355,-1.2322 -2.3721,-1.2312 -2.3836,-1.2482 -2.3689,-1.2571Z M-2.3312,-1.1957 -2.3068,-1.1689 -2.3148,-1.1686 -2.3035,-1.1606 -2.3042,-1.146 -2.3332,-1.1785 -2.3255,-1.1826 -2.3342,-1.1838 -2.3312,-1.1957Z M-2.6602,-1.2611 -2.6526,-1.2571 -2.677,-1.2521 -2.6602,-1.2611Z M-2.9315,-1.105 -2.9512,-1.0899 -2.9315,-1.105Z M-2.9081,-1.1212 -2.9013,-1.1221 -2.9288,-1.1041 -2.9081,-1.1212Z M-3.0487,-1.0673 -3.0596,-1.0667 -3.0372,-1.0756 -3.0487,-1.0673Z M-2.7154,-0.338 -2.7236,-0.3517 -2.7197,-0.3616 -2.7018,-0.3475 -2.7154,-0.338Z M-1.3039,-0.8814 -1.2369,-0.8881 -1.2085,-0.9435 -1.1835,-0.9337 -1.1833,-0.8995 -1.1692,-0.8772 -1.1961,-0.8632 -1.2001,-0.8708 -1.2249,-0.8513 -1.2401,-0.8169 -1.2209,-0.8017 -1.246,-0.8045 -1.2483,-0.7947 -1.2914,-0.7801 -1.291,-0.7917 -1.2929,-0.7581 -1.3053,-0.7403 -1.3181,-0.7513 -1.3102,-0.7625 -1.3193,-0.7547 -1.3097,-0.7275 -1.3252,-0.6993 -1.3205,-0.7169 -1.3324,-0.7338 -1.3242,-0.7518 -1.3364,-0.7464 -1.3324,-0.72 -1.3479,-0.7271 -1.3444,-0.7378 -1.3484,-0.7313 -1.331,-0.7156 -1.3458,-0.7218 -1.3313,-0.6971 -1.3483,-0.7032 -1.3265,-0.694 -1.3182,-0.6704 -1.3256,-0.6886 -1.3233,-0.6767 -1.3392,-0.6792 -1.3219,-0.6693 -1.3294,-0.6603 -1.3446,-0.6642 -1.3341,-0.6494 -1.3511,-0.6471 -1.3601,-0.6304 -1.4102,-0.5993 -1.4217,-0.5722 -1.3971,-0.486 -1.4046,-0.4553 -1.4156,-0.4536 -1.4263,-0.4698 -1.4436,-0.4995 -1.4383,-0.5066 -1.4458,-0.5064 -1.4425,-0.5271 -1.4607,-0.5479 -1.4891,-0.5429 -1.494,-0.5552 -1.5219,-0.5562 -1.5184,-0.5608 -1.5361,-0.5539 -1.5361,-0.5633 -1.5766,-0.555 -1.5603,-0.5503 -1.5659,-0.5417 -1.5537,-0.5332 -1.56,-0.5289 -1.5736,-0.5401 -1.5745,-0.5312 -1.5882,-0.533 -1.6038,-0.5461 -1.6102,-0.5405 -1.6378,-0.5489 -1.6539,-0.5368 -1.6584,-0.5433 -1.6628,-0.5285 -1.6867,-0.5235 -1.6828,-0.5185 -1.6958,-0.5122 -1.7006,-0.4962 -1.7064,-0.4987 -1.6996,-0.4677 -1.7298,-0.479 -1.7368,-0.5005 -1.7705,-0.5449 -1.7909,-0.5443 -1.8022,-0.5293 -1.8221,-0.5407 -1.8322,-0.5624 -1.8579,-0.5853 -1.938,-0.5761 -2.0022,-0.6049 -2.0443,-0.601 -2.0684,-0.6321 -2.1056,-0.6439 -2.138,-0.7078 -2.1305,-0.7065 -2.1347,-0.7182 -2.1211,-0.7193 -2.1468,-0.7178 -2.1705,-0.7714 -2.1654,-0.7965 -2.1736,-0.8283 -2.164,-0.9118 -2.1506,-0.91 -2.1654,-0.9133 -2.1614,-0.9306 -2.1766,-0.9674 -2.1429,-0.9611 -2.1492,-0.9409 -2.1386,-0.9554 -2.1473,-0.9352 -2.1415,-0.9344 -2.1335,-0.9577 -2.1431,-0.9835 -1.6609,-0.9835 -1.657,-0.9932 -1.6514,-0.9769 -1.5973,-0.959 -1.5425,-0.9653 -1.4683,-0.9197 -1.4408,-0.89 -1.4336,-0.8465 -1.4512,-0.8125 -1.4432,-0.8017 -1.3795,-0.8281 -1.3762,-0.8467 -1.3408,-0.848 -1.3039,-0.8814Z M-1.2655,-0.7856 -1.2549,-0.7873 -1.2921,-0.7776 -1.2655,-0.7856Z M-1.6959,-0.4733 -1.6998,-0.4936 -1.6959,-0.4733Z" fill="#e8efe2"/><path d="M0.6669,-0.9339 0.611,-0.909 0.6149,-0.9174 0.61,-0.8995 0.5555,-0.9133 0.5507,-0.9202 0.5686,-0.9219 0.5543,-0.937 0.5562,-0.9227 0.5376,-0.9202 0.5171,-0.8993 0.5185,-0.8878 0.502,-0.8871 0.4924,-0.8925 0.5054,-0.9179 0.5259,-0.9169 0.5084,-0.9564 0.4808,-0.97 0.4344,-0.9502 0.3993,-0.9562 0.3864,-0.9724 0.3986,-0.9849 0.3964,-1.0001 0.4204,-1.0252 0.4121,-1.0552 0.4252,-1.0625 0.533,-1.0456 0.5407,-1.0676 0.5889,-1.0758 0.6004,-1.0599 0.5971,-1.0454 0.6163,-1.0392 0.6212,-1.0208 0.6531,-1.0219 0.6995,-0.9993 0.6943,-0.9546 0.6775,-0.9533 0.6669,-0.9339Z" fill="#e8efe2"/><path d="M0.5917,0.0175 0.5163,0.0243 0.5226,-0.0143 0.5454,-0.0356 0.5363,-0.0429 0.5437,-0.0662 0.5609,-0.0615 0.5931,-0.0737 0.6011,-0.0637 0.6105,-0.03 0.5924,-0.003 0.5917,0.0175Z" fill="#e8efe2"/><path d="M0.7245,-0.7979 0.7468,-0.7989 0.7615,-0.7842 0.7622,-0.7659 0.7823,-0.755 0.7683,-0.7488 0.7814,-0.6991 0.7465,-0.7041 0.687,-0.689 0.6398,-0.6916 0.6309,-0.6706 0.6292,-0.694 0.5723,-0.6751 0.5348,-0.6931 0.5315,-0.6801 0.5182,-0.6777 0.5056,-0.6899 0.4791,-0.6897 0.4929,-0.6966 0.4758,-0.6956 0.4753,-0.7175 0.4588,-0.7242 0.4615,-0.7322 0.4737,-0.728 0.4671,-0.7338 0.4695,-0.7527 0.4557,-0.7509 0.4569,-0.7627 0.5208,-0.7799 0.5088,-0.791 0.5454,-0.7884 0.5808,-0.8092 0.611,-0.8106 0.6699,-0.784 0.7028,-0.7849 0.7245,-0.7979Z M0.4889,-0.8085 0.5054,-0.7861 0.48,-0.7852 0.4573,-0.7647 0.4676,-0.7773 0.4545,-0.7796 0.4646,-0.7951 0.4595,-0.8038 0.4889,-0.8085Z" fill="#e8efe2"/><path d="M0.2007,-0.6145 0.2007,-0.5985 0.1792,-0.5835 0.1784,-0.5651 0.1662,-0.5539 0.1574,-0.5923 0.1309,-0.6281 0.144,-0.6471 0.1433,-0.6855 0.1497,-0.6947 0.1691,-0.7034 0.1817,-0.6901 0.1929,-0.6975 0.1829,-0.6782 0.1941,-0.658 0.1752,-0.6346 0.2007,-0.6145Z" fill="#e8efe2"/><path d="M0.5746,0.165 0.5405,0.1498 0.5156,0.1104 0.5131,0.0777 0.5377,0.0559 0.5309,0.0492 0.539,0.0374 0.5327,0.0185 0.5931,0.0175 0.6569,0.0533 0.6564,0.0611 0.6845,0.0819 0.6772,0.1061 0.6903,0.1228 0.6859,0.1478 0.6934,0.1754 0.7062,0.1836 0.6552,0.2053 0.6102,0.2035 0.599,0.1706 0.5746,0.165Z" fill="#e8efe2"/><path d="M0.6264,-0.6726 0.6395,-0.6792 0.6398,-0.6916 0.7393,-0.6984 0.7208,-0.6825 0.7154,-0.6407 0.6426,-0.5966 0.6247,-0.6051 0.6278,-0.626 0.6384,-0.6363 0.628,-0.645 0.6264,-0.6726Z" fill="#e8efe2"/><path d="M0.1662,-0.945 0.1656,-0.9332 0.1824,-0.9291 0.1768,-0.9123 0.1623,-0.9189 0.1562,-0.902 0.147,-0.9176 0.136,-0.9043 0.1232,-0.9038 0.118,-0.9169 0.1042,-0.91 0.123,-0.9442 0.1662,-0.945Z" fill="#e8efe2"/><path d="M0.333,-1.2439 0.3168,-1.2141 0.3166,-1.2348 0.333,-1.2439Z M0.2885,-1.1941 0.2988,-1.227 0.2885,-1.1941Z M0.1988,-1.2839 0.218,-1.3208 0.2145,-1.3524 0.2248,-1.3651 0.2122,-1.3786 0.2094,-1.438 0.2215,-1.4643 0.2468,-1.4727 0.2382,-1.4892 0.2527,-1.5189 0.2538,-1.5541 0.2862,-1.5946 0.2826,-1.6153 0.3128,-1.6361 0.317,-1.6629 0.3501,-1.6563 0.3512,-1.6865 0.4126,-1.6356 0.4093,-1.6131 0.4187,-1.5839 0.4136,-1.5593 0.4217,-1.5404 0.391,-1.5426 0.3737,-1.5197 0.369,-1.4986 0.3756,-1.4844 0.3623,-1.4607 0.3039,-1.4081 0.3011,-1.3417 0.3314,-1.311 0.3135,-1.2948 0.325,-1.2938 0.3192,-1.2863 0.2829,-1.2704 0.2953,-1.2654 0.2793,-1.1919 0.2567,-1.1891 0.2473,-1.1665 0.225,-1.1668 0.2176,-1.1941 0.2248,-1.2046 0.1963,-1.2614 0.1988,-1.2839Z" fill="#e8efe2"/><path d="M0.5576,0.4694 0.5578,0.4958 0.5421,0.4919 0.5426,0.4698 0.5576,0.4694Z" fill="#e8efe2"/><path d="M0.5931,-0.0737 0.5845,-0.0657 0.5383,-0.0609 0.5157,-0.0811 0.4901,-0.0772 0.4601,-0.1162 0.4225,-0.1466 0.4367,-0.1797 0.4513,-0.1827 0.4634,-0.1671 0.4896,-0.1636 0.5034,-0.1636 0.5236,-0.1804 0.5437,-0.1714 0.566,-0.1951 0.5597,-0.2112 0.5794,-0.2149 0.5782,-0.1887 0.5918,-0.1786 0.5952,-0.1521 0.576,-0.1383 0.6058,-0.1165 0.6156,-0.096 0.5931,-0.0737Z" fill="#e8efe2"/><path d="M0.5948,-0.1659 0.5782,-0.1887 0.5794,-0.2149 0.5711,-0.2149 0.5597,-0.2112 0.566,-0.1951 0.5437,-0.1714 0.5236,-0.1804 0.5034,-0.1636 0.4653,-0.1662 0.4503,-0.1829 0.4367,-0.1797 0.4281,-0.1558 0.4109,-0.1545 0.4128,-0.1722 0.3901,-0.2228 0.381,-0.2251 0.4002,-0.2744 0.4184,-0.2777 0.4185,-0.3564 0.436,-0.3564 0.436,-0.3938 0.6435,-0.3938 0.654,-0.3345 0.6739,-0.3196 0.6459,-0.3023 0.6306,-0.2246 0.6128,-0.2078 0.6096,-0.1907 0.5993,-0.1871 0.5948,-0.1659Z" fill="#e8efe2"/><path d="M0.055,-0.7581 0.0604,-0.7561 0.0536,-0.747 0.0414,-0.7531 0.055,-0.7581Z M-0.0312,-0.8427 -0.0007,-0.8255 0.056,-0.8193 0.0567,-0.8078 0.0124,-0.7817 -0.0058,-0.752 0.0035,-0.7349 -0.0368,-0.6912 -0.0763,-0.6899 -0.0983,-0.6749 -0.1086,-0.694 -0.1293,-0.6999 -0.1222,-0.7416 -0.1316,-0.7552 -0.1229,-0.7563 -0.1208,-0.7868 -0.1084,-0.7982 -0.1155,-0.8078 -0.1545,-0.8075 -0.1602,-0.8369 -0.1344,-0.8511 -0.0312,-0.8427Z" fill="#e8efe2"/><path d="M0.5124,0.3973 0.5461,0.4013 0.558,0.439 0.5576,0.4694 0.5447,0.4671 0.5377,0.4856 0.554,0.4958 0.5583,0.4862 0.574,0.4868 0.5651,0.5193 0.5287,0.569 0.4862,0.6118 0.4463,0.6325 0.3936,0.6319 0.3494,0.6484 0.3272,0.6333 0.3222,0.639 0.3115,0.6072 0.3199,0.6004 0.3178,0.5847 0.2871,0.5217 0.2955,0.5108 0.3046,0.5233 0.336,0.5273 0.3487,0.5183 0.3487,0.4466 0.3629,0.4687 0.3611,0.4862 0.3786,0.4866 0.4018,0.457 0.444,0.4646 0.4739,0.4225 0.5124,0.3973Z M0.5016,0.5513 0.513,0.5346 0.4997,0.5209 0.4721,0.5425 0.4843,0.5614 0.5016,0.5513Z" fill="#e8efe2"/><path d="M0.3934,-0.9857 0.3859,-0.9677 0.3576,-0.9714 0.3267,-0.952 0.3079,-0.9525 0.2943,-0.969 0.3393,-0.9999 0.3456,-0.9889 0.3726,-0.9953 0.3934,-0.9857Z" fill="#e8efe2"/><path d="M0.2883,-0.9189 0.273,-0.9113 0.266,-0.8923 0.2377,-0.8933 0.2335,-0.9128 0.2808,-0.9281 0.2883,-0.9189Z" fill="#e8efe2"/><path d="M0.3728,-0.8772 0.3965,-0.8718 0.3904,-0.8516 0.4011,-0.8374 0.3913,-0.8169 0.3763,-0.8151 0.3796,-0.825 0.363,-0.8391 0.355,-0.8288 0.3355,-0.8436 0.3417,-0.8579 0.3316,-0.8789 0.3386,-0.8866 0.3288,-0.9023 0.3527,-0.9095 0.3751,-0.8851 0.3728,-0.8772Z" fill="#e8efe2"/><path d="M0.9072,-0.3379 0.8559,-0.3301 0.8227,-0.3002 0.7578,-0.3107 0.747,-0.2897 0.7114,-0.3519 0.6856,-0.3745 0.6713,-0.4262 0.6552,-0.4372 0.614,-0.51 0.6042,-0.5106 0.61,-0.5362 0.6295,-0.5332 0.6543,-0.5495 0.6629,-0.5594 0.6451,-0.5796 0.6833,-0.5925 0.7343,-0.5712 0.78,-0.5332 0.8454,-0.5201 0.8753,-0.4831 0.8741,-0.4694 0.8877,-0.4447 0.8973,-0.4426 0.9173,-0.4113 0.9632,-0.407 0.9711,-0.3938 0.9596,-0.3564 0.9072,-0.3379Z" fill="#e8efe2"/><path d="M0.5163,0.0243 0.5325,0.0187 0.5381,0.0409 0.5047,0.0468 0.5163,0.0243Z" fill="#e8efe2"/><path d="M-3.1381,-1.6827 -3.0604,-1.6231 -3.0517,-1.6081 -3.0529,-1.5755 -3.0381,-1.5585 -3.0329,-1.5672 -3.0465,-1.5964 -2.9985,-1.5892 -2.9623,-1.5511 -2.9924,-1.5396 -2.9875,-1.5273 -3.0156,-1.5349 -3.0056,-1.5085 -3.0206,-1.5003 -3.0086,-1.4832 -3.0222,-1.4771 -3.0613,-1.4982 -3.0734,-1.526 -3.1138,-1.5273 -3.1231,-1.5498 -3.1159,-1.5658 -3.136,-1.5563 -3.1302,-1.5281 -3.1416,-1.5093 -3.1381,-1.6827Z M2.281,-0.8162 2.2763,-0.8264 2.2909,-0.8419 2.286,-0.8774 2.3012,-0.8895 2.3232,-0.8846 2.3518,-0.9502 2.3504,-0.964 2.2864,-0.9494 2.2785,-0.9801 2.2262,-1.0053 2.2,-1.0873 2.1574,-1.1109 2.096,-1.0888 2.1059,-1.0824 2.1063,-1.0653 2.0815,-1.0126 2.0572,-0.9974 1.9949,-1.018 1.9323,-0.9875 1.8956,-0.9923 1.8624,-1.0191 1.8029,-1.0161 1.7862,-1.0254 1.7822,-1.0479 1.726,-1.0696 1.709,-1.0459 1.7148,-1.0189 1.6993,-1.0036 1.6513,-1.0112 1.645,-1.026 1.6118,-1.0342 1.5258,-0.9859 1.5129,-1.0047 1.4875,-1.0004 1.4587,-1.0365 1.4219,-1.0309 1.4092,-1.0462 1.3961,-1.0318 1.3589,-1.1027 1.3348,-1.1248 1.3411,-1.1373 1.2805,-1.108 1.2865,-1.1254 1.2408,-1.1304 1.2346,-1.1637 1.2039,-1.1662 1.136,-1.1343 1.0687,-1.1248 1.0643,-1.1129 1.0739,-1.1094 1.0681,-1.1033 1.0835,-1.0951 1.0655,-1.094 1.0636,-1.0741 1.0477,-1.0642 1.0743,-1.047 1.0636,-1.0298 1.0388,-1.0241 0.995,-1.0401 0.972,-1.0265 0.9536,-1.0384 0.9516,-1.0254 0.931,-1.0515 0.8865,-1.0585 0.8488,-1.0274 0.851,-1.0088 0.8278,-1.0205 0.8144,-0.9682 0.8254,-0.9507 0.8407,-0.9499 0.8545,-0.9258 0.8472,-0.9217 0.8596,-0.9136 0.8283,-0.8983 0.8154,-0.8706 0.8283,-0.8463 0.8316,-0.854 0.8283,-0.8338 0.8477,-0.8054 0.8259,-0.7924 0.7969,-0.8214 0.6978,-0.8429 0.6397,-0.8846 0.6718,-0.9085 0.6592,-0.9224 0.6854,-0.9327 0.6667,-0.9398 0.6936,-0.9533 0.6995,-0.9993 0.6531,-1.0219 0.6212,-1.0208 0.6163,-1.0392 0.5971,-1.0454 0.6004,-1.0599 0.5903,-1.0753 0.5543,-1.069 0.5456,-1.0954 0.5709,-1.1071 0.5376,-1.1476 0.5395,-1.1717 0.4936,-1.1869 0.4824,-1.2119 0.4787,-1.2755 0.4913,-1.2952 0.4889,-1.3072 0.5266,-1.3156 0.4976,-1.3409 0.4852,-1.336 0.5505,-1.4237 0.5234,-1.4556 0.5328,-1.4691 0.5166,-1.5052 0.5252,-1.5396 0.5074,-1.5874 0.5234,-1.6227 0.5007,-1.6468 0.5021,-1.6778 0.4958,-1.6807 0.5582,-1.7329 0.5761,-1.7212 0.5601,-1.7167 0.5651,-1.7092 0.5838,-1.7067 0.5784,-1.689 0.6259,-1.6949 0.7151,-1.6245 0.7189,-1.5848 0.6746,-1.5516 0.5568,-1.5995 0.6055,-1.5464 0.6006,-1.5231 0.6116,-1.4836 0.6535,-1.4584 0.6643,-1.4695 0.6391,-1.4962 0.6437,-1.5135 0.6939,-1.4892 0.7058,-1.4974 0.695,-1.5315 0.7367,-1.5711 0.7697,-1.549 0.7754,-1.5896 0.7641,-1.6035 0.772,-1.645 0.7563,-1.6696 0.8009,-1.6605 0.8149,-1.631 0.7837,-1.6108 0.8114,-1.5834 0.8318,-1.5914 0.8355,-1.6185 0.8508,-1.6333 0.9146,-1.6544 0.939,-1.6856 0.951,-1.6851 0.9296,-1.6506 1.0308,-1.6861 1.0315,-1.6586 1.0425,-1.6544 1.0634,-1.6851 1.0502,-1.7147 1.0631,-1.7278 1.1203,-1.7117 1.1933,-1.6525 1.2067,-1.6831 1.1676,-1.7127 1.1743,-1.7739 1.1631,-1.792 1.1915,-1.8248 1.2111,-1.8984 1.2479,-1.8954 1.2708,-1.8824 1.2544,-1.8127 1.2689,-1.7856 1.2668,-1.6841 1.2844,-1.6605 1.2456,-1.5905 1.2486,-1.5781 1.2045,-1.583 1.2579,-1.5593 1.3034,-1.6236 1.2999,-1.6691 1.3111,-1.6788 1.3345,-1.6846 1.3481,-1.6601 1.3469,-1.6277 1.3774,-1.619 1.3542,-1.6264 1.3614,-1.6501 1.3552,-1.6807 1.2877,-1.6954 1.2842,-1.7253 1.2975,-1.7654 1.2757,-1.8116 1.3088,-1.8507 1.3066,-1.8913 1.3195,-1.876 1.3139,-1.811 1.3217,-1.8023 1.3792,-1.785 1.327,-1.8377 1.3647,-1.8377 1.3511,-1.849 1.3654,-1.8644 1.4505,-1.827 1.4368,-1.8017 1.434,-1.7665 1.4488,-1.7824 1.443,-1.7467 1.45,-1.74 1.4615,-1.7639 1.4512,-1.7931 1.4579,-1.8248 1.4107,-1.8708 1.4064,-1.9354 1.5165,-1.9553 1.4973,-1.9274 1.5129,-1.9074 1.4994,-1.9243 1.5284,-1.9503 1.501,-1.9827 1.5225,-1.9853 1.4973,-2.0043 1.5266,-2.0283 1.5186,-2.0391 1.6434,-2.0944 1.6207,-2.0959 1.6277,-2.1046 1.7219,-2.1148 1.7385,-2.0837 1.7424,-2.1075 1.7246,-2.1325 1.7733,-2.1296 1.7612,-2.1644 1.8153,-2.2304 1.8511,-2.2028 1.8186,-2.1799 1.875,-2.1667 1.8572,-2.1348 1.9392,-2.1506 1.9872,-2.0916 1.9808,-2.0661 1.9626,-2.0851 1.985,-2.0584 1.9708,-2.0289 1.835,-1.8877 1.935,-1.9453 1.9141,-1.9497 1.9244,-1.9635 1.9727,-1.9566 1.9808,-1.9219 1.9745,-1.8907 1.9837,-1.8789 1.9761,-1.8895 1.9878,-1.9219 1.9811,-1.9311 1.9907,-1.936 2.0673,-1.9366 2.0759,-1.9298 2.067,-1.9158 2.09,-1.8996 2.1387,-1.8936 2.1576,-1.9122 2.1541,-1.9397 2.1736,-1.9465 2.2532,-1.9074 2.2445,-1.8948 2.2558,-1.8836 2.2414,-1.8737 2.2564,-1.8679 2.2564,-1.8478 2.2293,-1.8661 2.2867,-1.7744 2.3152,-1.8388 2.3333,-1.811 2.3752,-1.8215 2.4075,-1.7947 2.4126,-1.8204 2.4431,-1.8143 2.4323,-1.8399 2.4468,-1.8535 2.4285,-1.8615 2.4623,-1.8766 2.4576,-1.8942 2.5525,-1.8679 2.5162,-1.8575 2.5215,-1.8524 2.5627,-1.8598 2.5501,-1.8393 2.544,-1.8558 2.534,-1.8259 2.5702,-1.8615 2.6093,-1.8518 2.6183,-1.8371 2.5991,-1.8265 2.6618,-1.7786 2.7698,-1.7845 2.791,-1.7618 2.7896,-1.7242 2.8084,-1.7157 2.8159,-1.6812 2.8075,-1.6634 2.8266,-1.7127 2.8615,-1.7222 2.9297,-1.7217 2.9603,-1.6754 2.9765,-1.6773 2.9845,-1.6919 2.9699,-1.7167 2.9756,-1.741 3.0704,-1.7303 3.1416,-1.6846 3.1416,-1.5093 3.1158,-1.4901 3.0871,-1.5098 3.0777,-1.5085 3.0931,-1.5007 3.0465,-1.4933 3.0728,-1.5023 3.1107,-1.4803 3.1149,-1.4489 3.1341,-1.418 3.1262,-1.4009 3.0896,-1.4184 3.017,-1.3695 2.9732,-1.3159 2.9536,-1.3381 2.9006,-1.3117 2.9034,-1.3338 2.8789,-1.3114 2.8578,-1.318 2.8267,-1.2518 2.8489,-1.2423 2.8407,-1.2244 2.8508,-1.1923 2.8421,-1.1872 2.8456,-1.2014 2.8391,-1.2004 2.8288,-1.1879 2.8225,-1.1695 2.8294,-1.1467 2.7937,-1.1298 2.7931,-1.0986 2.7658,-1.0957 2.7594,-1.0608 2.7358,-1.0373 2.715,-1.1603 2.7224,-1.2071 2.7375,-1.226 2.7372,-1.2419 2.7625,-1.2495 2.8287,-1.3335 2.8573,-1.3495 2.866,-1.3998 2.8868,-1.4074 2.8506,-1.4096 2.8465,-1.3731 2.7955,-1.3395 2.7992,-1.3535 2.7889,-1.351 2.7979,-1.3849 2.7416,-1.3772 2.6929,-1.311 2.6915,-1.2989 2.7081,-1.289 2.6412,-1.2785 2.6574,-1.29 2.6117,-1.309 2.5958,-1.2914 2.511,-1.2965 2.4789,-1.2826 2.3599,-1.1494 2.3876,-1.1427 2.3876,-1.1177 2.4028,-1.1325 2.397,-1.1272 2.4056,-1.1227 2.3955,-1.1109 2.4178,-1.123 2.4164,-1.1106 2.4201,-1.1331 2.4384,-1.1325 2.4674,-1.1033 2.4581,-1.0974 2.4695,-1.0713 2.4525,-1.0326 2.4454,-0.9685 2.3585,-0.8455 2.3241,-0.8257 2.3002,-0.8391 2.281,-0.8162Z M0.828,-2.5255 0.8496,-2.5016 0.7837,-2.4995 0.828,-2.5255Z M0.8776,-2.5343 0.9023,-2.5081 0.8446,-2.4463 0.814,-2.4669 0.8776,-2.5343Z M1.1828,-2.1148 1.0709,-2.0487 1.0215,-1.9944 0.9884,-1.9189 0.9477,-1.9219 0.9383,-1.9478 0.9798,-1.9944 0.9701,-2.0029 0.9861,-2.0249 0.976,-2.0391 1.0276,-2.0866 1.1786,-2.1729 1.2032,-2.1499 1.1828,-2.1148Z M0.9655,-1.9195 0.9849,-1.9128 0.9669,-1.8743 0.9652,-1.8393 1.0058,-1.7733 0.9376,-1.7776 0.9317,-1.7808 0.9453,-1.7947 0.8978,-1.8304 0.9184,-1.8598 0.9236,-1.8813 0.9172,-1.8871 0.9294,-1.9116 0.9655,-1.9195Z M1.6848,-2.5511 1.708,-2.5092 1.6949,-2.4995 1.6961,-2.4607 1.6383,-2.4373 1.5973,-2.4731 1.6244,-2.541 1.6848,-2.5511Z M1.7047,-2.4525 1.7108,-2.4383 1.7043,-2.4124 1.7445,-2.4213 1.7397,-2.3701 1.7286,-2.3673 1.7441,-2.3367 1.7027,-2.325 1.6244,-2.3872 1.6579,-2.4463 1.7047,-2.4525Z M1.7956,-2.3635 1.7874,-2.3259 1.8117,-2.3542 1.8385,-2.3036 1.7329,-2.2562 1.7731,-2.3729 1.7956,-2.3635Z M2.4443,-2.0851 2.4578,-2.071 2.4695,-2.1075 2.537,-2.064 2.5136,-2.0303 2.4927,-2.046 2.4948,-2.0766 2.4799,-2.0731 2.4981,-2.0256 2.4298,-2.0049 2.3904,-2.046 2.4122,-2.1053 2.4443,-2.0851Z M2.5621,-2.0528 2.6323,-2.0384 2.6014,-2.0122 2.5508,-2.0412 2.5621,-2.0528Z M3.1217,-1.7786 3.1186,-1.7936 3.1416,-1.8171 3.1416,-1.7872 3.1217,-1.7786Z M2.4916,-1.1358 2.5014,-1.0937 2.4991,-1.0645 2.5257,-0.9743 2.5128,-0.9913 2.4976,-0.9891 2.4881,-0.9507 2.5059,-0.9154 2.5033,-0.907 2.5007,-0.9204 2.4895,-0.9245 2.4798,-0.9043 2.482,-1.0442 2.4724,-1.0738 2.4752,-1.1047 2.4876,-1.108 2.4841,-1.1325 2.4916,-1.1358Z M-3.122,-1.8193 -3.098,-1.7996 -3.1416,-1.7872 -3.1416,-1.8171 -3.122,-1.8193Z M2.6032,-2.1461 2.5901,-2.1453 2.6032,-2.1461Z M1.8797,-2.2638 1.8574,-2.2646 1.8797,-2.2638Z M1.6848,-2.1177 1.6635,-2.1126 1.6848,-2.1177Z M1.6806,-2.1745 1.6628,-2.1737 1.6806,-2.1745Z M0.8973,-2.4302 0.8742,-2.4342 0.8973,-2.4302Z M1.0231,-2.5466 1.0285,-2.5233 0.9985,-2.5443 1.0231,-2.5466Z M0.8774,-1.6949 0.8536,-1.673 0.8426,-1.6875 0.8543,-1.7107 0.8774,-1.6949Z M1.106,-2.5092 1.0912,-2.5222 1.1271,-2.5647 1.1421,-2.5343 1.106,-2.5092Z M1.0116,-2.4484 0.995,-2.4846 1.0343,-2.471 1.0116,-2.4484Z M1.0851,-2.5233 1.0655,-2.4794 1.0348,-2.4952 1.0851,-2.5233Z M1.0671,-2.5365 1.0482,-2.5399 1.0746,-2.5477 1.0671,-2.5365Z M0.9341,-2.4555 0.9112,-2.4627 0.9399,-2.4638 0.9341,-2.4555Z M0.9962,-2.472 0.9725,-2.4463 0.9962,-2.472Z M1.009,-2.6054 1.0221,-2.5901 0.9681,-2.5773 1.009,-2.6054Z M0.955,-2.5556 1.0069,-2.5189 0.9437,-2.5211 0.955,-2.5556Z M1.1109,-2.6125 1.084,-2.621 1.1109,-2.6125Z M1.0175,-2.6258 1.0107,-2.6258 1.0369,-2.6392 1.0175,-2.6258Z M1.6176,-2.4056 1.5895,-2.4342 1.6371,-2.4262 1.6176,-2.4056Z M1.5982,-2.5578 1.5691,-2.5612 1.5982,-2.5578Z M2.4611,-1.9623 2.4452,-1.9737 2.4611,-1.9623Z M2.4815,-1.9559 2.5044,-1.9158 2.4381,-1.9268 2.4815,-1.9559Z M2.9531,-1.7142 2.9285,-1.7273 2.9569,-1.7283 2.9531,-1.7142Z M2.8561,-1.2691 2.8723,-1.29 2.8732,-1.2788 2.8561,-1.2691Z M2.6126,-0.8973 2.6276,-0.9116 2.6126,-0.8973Z M2.5936,-0.8893 2.5639,-0.8666 2.5817,-0.8908 2.5936,-0.8893Z M2.5518,-0.8691 2.5581,-0.8676 2.5384,-0.8506 2.5518,-0.8691Z M1.979,-1.9879 1.946,-1.9847 1.979,-1.9879Z M1.3308,-2.4017 1.3542,-2.3872 1.3308,-2.4017Z M1.3968,-2.5255 1.3785,-2.5255 1.4038,-2.5343 1.3968,-2.5255Z M1.2334,-1.9068 1.2203,-1.9056 1.2278,-1.9298 1.2502,-1.914 1.2334,-1.9068Z M1.3549,-1.8592 1.3416,-1.861 1.3678,-1.8702 1.3549,-1.8592Z M1.0551,-1.7318 1.0409,-1.7212 1.0205,-1.7493 1.0551,-1.7318Z M0.3658,-1.1628 0.3594,-1.1536 0.3939,-1.1561 0.3974,-1.1349 0.3421,-1.1379 0.3658,-1.1628Z M0.5863,-0.9088 0.6055,-0.9058 0.6189,-0.8893 0.6384,-0.891 0.5892,-0.8666 0.5857,-0.8838 0.5674,-0.8913 0.5863,-0.9088Z" fill="#e8efe2"/><path d="M0.4924,-0.8925 0.5185,-0.8878 0.5159,-0.8774 0.5042,-0.8794 0.499,-0.8506 0.4728,-0.861 0.4451,-0.8489 0.4,-0.8528 0.3965,-0.8718 0.3728,-0.8772 0.3751,-0.8851 0.3533,-0.909 0.3691,-0.9138 0.384,-0.9447 0.4039,-0.9598 0.436,-0.9502 0.4676,-0.9643 0.4899,-0.9311 0.4924,-0.8925Z" fill="#e8efe2"/><path d="M0.4121,-1.0526 0.4204,-1.0252 0.3953,-0.9983 0.3981,-0.9843 0.3311,-0.9945 0.3089,-1.0191 0.2904,-1.0134 0.2841,-1.0287 0.2585,-1.0342 0.2552,-1.0813 0.2466,-1.0914 0.2541,-1.1188 0.2478,-1.1218 0.3157,-1.1494 0.3313,-1.1346 0.4011,-1.1352 0.417,-1.0957 0.4046,-1.075 0.4121,-1.0526Z" fill="#e8efe2"/><path d="M0.3599,-1.6875 0.3512,-1.6865 0.3485,-1.6548 0.3194,-1.6644 0.3128,-1.6361 0.2929,-1.6333 0.2702,-1.5619 0.2538,-1.5541 0.2527,-1.5189 0.2382,-1.4892 0.2468,-1.4727 0.2126,-1.4501 0.2122,-1.3786 0.2248,-1.3651 0.2145,-1.3524 0.218,-1.3208 0.2039,-1.3027 0.2032,-1.2802 0.189,-1.2887 0.185,-1.3086 0.1777,-1.2829 0.1222,-1.2498 0.0963,-1.2735 0.111,-1.2826 0.1028,-1.286 0.1121,-1.3014 0.0902,-1.288 0.0925,-1.3045 0.1222,-1.3349 0.0899,-1.3045 0.0993,-1.3212 0.0897,-1.3328 0.0986,-1.3413 0.0915,-1.337 0.0874,-1.3538 0.1326,-1.36 0.0892,-1.3593 0.086,-1.3845 0.1175,-1.3842 0.0897,-1.3949 0.1414,-1.4165 0.1175,-1.4161 0.1321,-1.4306 0.1504,-1.421 0.1424,-1.433 0.1497,-1.4501 0.1878,-1.4446 0.2,-1.4659 0.167,-1.4544 0.2005,-1.5056 0.2255,-1.5206 0.2117,-1.5181 0.2231,-1.5528 0.2449,-1.5615 0.229,-1.5585 0.2306,-1.5764 0.2738,-1.6158 0.2583,-1.6291 0.3063,-1.6582 0.2882,-1.6629 0.3187,-1.7087 0.3437,-1.7253 0.3428,-1.7062 0.3547,-1.7329 0.3499,-1.7018 0.362,-1.7112 0.3599,-1.7308 0.3834,-1.7268 0.3759,-1.7488 0.4075,-1.7344 0.4321,-1.7882 0.4499,-1.7781 0.437,-1.741 0.4627,-1.7829 0.4641,-1.7565 0.4711,-1.7618 0.4817,-1.7925 0.4955,-1.7866 0.4869,-1.7707 0.4934,-1.7702 0.492,-1.7482 0.5032,-1.7802 0.5404,-1.7529 0.5023,-1.7431 0.5397,-1.7177 0.5056,-1.6865 0.5086,-1.7187 0.4868,-1.7385 0.463,-1.7313 0.4353,-1.6658 0.3911,-1.672 0.3773,-1.6988 0.3599,-1.6875Z M0.4091,-1.7781 0.3838,-1.7696 0.4091,-1.7781Z M0.2655,-1.6827 0.2656,-1.6672 0.2508,-1.6715 0.2655,-1.6827Z M0.3362,-1.739 0.3423,-1.7364 0.3152,-1.7152 0.3362,-1.739Z M0.3054,-1.7152 0.3156,-1.7052 0.2934,-1.689 0.3054,-1.7152Z M0.2751,-1.6644 0.2889,-1.672 0.2489,-1.6468 0.2815,-1.6988 0.2751,-1.6644Z M-0.1562,-1.7792 -0.1393,-1.7942 -0.1562,-1.7792Z M0.5678,-2.4484 0.5494,-2.4474 0.587,-2.4586 0.5678,-2.4484Z M0.3772,-2.3045 0.4346,-2.2329 0.3979,-2.1941 0.3674,-2.2068 0.3779,-2.2461 0.3531,-2.2939 0.3772,-2.3045Z M0.3648,-2.4617 0.389,-2.4413 0.4016,-2.4846 0.4747,-2.4272 0.418,-2.3579 0.3128,-2.4504 0.3648,-2.4617Z M0.293,-2.4272 0.3733,-2.3169 0.3342,-2.2852 0.2915,-2.14 0.2443,-2.2125 0.2951,-2.2444 0.2388,-2.2553 0.2997,-2.2887 0.2871,-2.2957 0.2929,-2.3098 0.2295,-2.2732 0.1984,-2.3358 0.2164,-2.3358 0.1957,-2.3524 0.1864,-2.4124 0.2389,-2.4223 0.2192,-2.3939 0.2449,-2.372 0.2588,-2.4134 0.2852,-2.3386 0.2763,-2.4075 0.293,-2.4272Z M0.1963,-2.3053 0.2115,-2.2723 0.1843,-2.3313 0.1963,-2.3053Z M0.507,-2.3322 0.5184,-2.3313 0.4868,-2.3268 0.507,-2.3322Z" fill="#e8efe2"/><path d="M0.2375,-0.2414 0.2545,-0.2026 0.2391,-0.1909 0.199,-0.1142 0.177,-0.1225 0.1447,-0.0797 0.1236,-0.0825 0.1208,-0.0767 0.1182,-0.0825 0.1197,-0.0763 0.1077,-0.0748 0.0976,-0.0812 0.0953,-0.0981 0.0773,-0.1111 0.0473,-0.1114 0.0483,-0.1586 0.066,-0.1832 0.0637,-0.2205 0.0771,-0.2405 0.0958,-0.2445 0.1211,-0.229 0.1367,-0.235 0.1679,-0.2255 0.1829,-0.2348 0.2175,-0.2305 0.2375,-0.2414Z" fill="#e8efe2"/><path d="M0.2375,-0.2414 0.2175,-0.2305 0.1829,-0.2348 0.1679,-0.2255 0.0813,-0.242 0.0637,-0.2205 0.0628,-0.2056 0.0503,-0.2176 0.0417,-0.2092 0.0367,-0.2235 0.0176,-0.2292 0.0209,-0.2353 0.0028,-0.2558 0.004,-0.2641 0.0227,-0.2697 0.0611,-0.2714 0.073,-0.2935 0.0738,-0.3404 0.1019,-0.3467 0.2089,-0.4225 0.2478,-0.4055 0.2615,-0.4127 0.2649,-0.3848 0.2786,-0.3629 0.27,-0.2995 0.2347,-0.2537 0.2375,-0.2414Z" fill="#e8efe2"/><path d="M3.0215,0.7924 3.0433,0.7882 3.0407,0.8056 3.0112,0.8439 3.0206,0.8538 3.0027,0.8496 2.9887,0.8632 2.9807,0.903 2.9514,0.9222 2.9058,0.9053 2.9386,0.8588 2.9847,0.8302 3.0067,0.7803 3.0184,0.7748 3.0215,0.7924Z M3.0241,0.6513 3.0425,0.6582 3.0494,0.6925 3.0638,0.7004 3.0624,0.6847 3.0737,0.7103 3.092,0.7178 3.1161,0.7111 3.1051,0.7457 3.0906,0.7452 3.0864,0.7666 3.0597,0.8 3.048,0.793 3.0571,0.7654 3.0327,0.7475 3.0473,0.7356 3.0531,0.7136 3.0472,0.6982 3.0531,0.6977 3.0144,0.6414 3.0241,0.6513Z" fill="#e8efe2"/><path d="M0.1045,-1.0312 0.0878,-1.0512 0.0602,-1.0532 0.0745,-1.0512 0.0689,-1.0608 0.0833,-1.0931 0.119,-1.1077 0.1257,-1.103 0.1168,-1.0813 0.1225,-1.0738 0.1038,-1.0605 0.1045,-1.0312Z" fill="#e8efe2"/><path d="M0.4081,0.3129 0.4409,0.3156 0.4119,0.3279 0.4053,0.3195 0.366,0.3253 0.366,0.3938 0.3487,0.3938 0.3487,0.5183 0.3159,0.5267 0.2978,0.51 0.2871,0.5217 0.2669,0.495 0.2524,0.4023 0.2056,0.3195 0.2049,0.3057 0.23,0.3006 0.2447,0.3086 0.3211,0.3085 0.3622,0.3198 0.4081,0.3129Z" fill="#e8efe2"/><path d="M0.5461,0.4013 0.566,0.3806 0.5758,0.356 0.5751,0.2959 0.5313,0.283 0.5276,0.2647 0.5794,0.247 0.5871,0.2571 0.6,0.2544 0.5978,0.281 0.6156,0.3033 0.6264,0.2629 0.6032,0.2353 0.6042,0.2042 0.6552,0.2053 0.7062,0.1836 0.7079,0.2733 0.6953,0.291 0.6048,0.3508 0.6203,0.3994 0.6194,0.433 0.5723,0.4632 0.574,0.4868 0.5604,0.4866 0.5583,0.4405 0.5461,0.4013Z" fill="#e8efe2"/><path d="M0.3349,-0.8455 0.3552,-0.8293 0.343,-0.824 0.3375,-0.8061 0.3218,-0.8214 0.3349,-0.8455Z" fill="#e8efe2"/><path d="M0.4646,-0.9643 0.4808,-0.97 0.5084,-0.9564 0.5259,-0.9169 0.5054,-0.9179 0.4924,-0.8925 0.4899,-0.9311 0.4646,-0.9643Z" fill="#e8efe2"/><path d="M-0.1988,-0.2181 -0.2143,-0.2614 -0.2007,-0.2764 -0.1911,-0.2676 -0.1632,-0.2771 -0.0962,-0.2739 -0.115,-0.4507 -0.0841,-0.4509 0.0305,-0.3625 0.0546,-0.3536 0.0545,-0.3397 0.0738,-0.3404 0.073,-0.2935 0.0611,-0.2714 -0.0117,-0.2661 -0.0452,-0.251 -0.0576,-0.2339 -0.0756,-0.231 -0.0773,-0.2171 -0.0923,-0.208 -0.0963,-0.1831 -0.1052,-0.1788 -0.1093,-0.1882 -0.1225,-0.1779 -0.1395,-0.1783 -0.1592,-0.219 -0.1864,-0.2092 -0.1988,-0.2181Z" fill="#e8efe2"/><path d="M0.5794,0.247 0.5702,0.2394 0.5849,0.2172 0.5805,0.1912 0.5875,0.1852 0.5749,0.1648 0.6025,0.176 0.6102,0.2035 0.5997,0.2138 0.6032,0.2353 0.6264,0.2629 0.6156,0.3033 0.5978,0.281 0.6023,0.2576 0.5871,0.2571 0.5794,0.247Z" fill="#e8efe2"/><path d="M0.3763,-0.8151 0.3979,-0.8099 0.4,-0.7937 0.3615,-0.7842 0.3587,-0.8059 0.3763,-0.8151Z" fill="#e8efe2"/><path d="M0.3974,-1.1349 0.3939,-1.1561 0.3707,-1.1622 0.3674,-1.1872 0.4335,-1.1979 0.4674,-1.1625 0.4513,-1.1518 0.4482,-1.1283 0.4112,-1.1218 0.3974,-1.1349Z" fill="#e8efe2"/><path d="M0.1662,-0.5539 0.1784,-0.5651 0.1792,-0.5835 0.2007,-0.5985 0.2007,-0.6145 0.2649,-0.5981 0.2763,-0.5769 0.3337,-0.5548 0.351,-0.5687 0.3496,-0.5923 0.3676,-0.6062 0.3873,-0.6091 0.4065,-0.5944 0.4355,-0.589 0.436,-0.3564 0.4185,-0.3564 0.4185,-0.3471 0.2789,-0.4212 0.2478,-0.4055 0.2089,-0.4225 0.2009,-0.4376 0.1803,-0.4418 0.1644,-0.4731 0.1721,-0.4809 0.1731,-0.5052 0.1662,-0.5539Z" fill="#e8efe2"/><path d="M0.5016,0.5513 0.4843,0.5614 0.4721,0.5425 0.4997,0.5209 0.513,0.5346 0.5016,0.5513Z" fill="#e8efe2"/><path d="M0.628,-0.645 0.6377,-0.6344 0.6128,-0.6124 0.628,-0.645Z" fill="#e8efe2"/><path d="M0.4641,-1.1748 0.4335,-1.1979 0.3674,-1.1872 0.367,-1.2052 0.3793,-1.2351 0.3936,-1.24 0.4128,-1.2157 0.4255,-1.2247 0.4245,-1.2449 0.4423,-1.2505 0.4857,-1.226 0.4824,-1.2119 0.4913,-1.1894 0.4641,-1.1748Z" fill="#e8efe2"/><path d="M0.5917,0.0175 0.5924,-0.003 0.6105,-0.03 0.5931,-0.0737 0.6156,-0.096 0.6287,-0.0781 0.6648,-0.0637 0.6901,-0.0606 0.7116,-0.0746 0.7309,-0.0695 0.7149,-0.0491 0.7152,0.0152 0.7248,0.0297 0.702,0.047 0.6873,0.0809 0.659,0.0636 0.6569,0.0533 0.5917,0.0175Z" fill="#e8efe2"/><path d="M0.6247,-0.6051 0.6426,-0.5966 0.6767,-0.6184 0.6857,-0.595 0.6451,-0.5796 0.6629,-0.5594 0.6287,-0.533 0.61,-0.5362 0.6247,-0.6051Z" fill="#e8efe2"/><path d="M0.1225,-0.9045 0.147,-0.9176 0.1562,-0.902 0.1623,-0.9189 0.1768,-0.9123 0.1824,-0.9281 0.2124,-0.9337 0.2391,-0.9194 0.2335,-0.9128 0.2421,-0.8965 0.2142,-0.8925 0.2164,-0.8623 0.2367,-0.8465 0.2538,-0.8148 0.282,-0.8068 0.2775,-0.7977 0.3133,-0.778 0.321,-0.7606 0.2955,-0.7734 0.2883,-0.7572 0.2997,-0.7403 0.2744,-0.7167 0.2829,-0.7389 0.2738,-0.7627 0.1944,-0.8184 0.1754,-0.8574 0.1531,-0.8671 0.1307,-0.8513 0.1339,-0.8598 0.1204,-0.8652 0.1157,-0.8831 0.1248,-0.8908 0.1225,-0.9045Z M0.2719,-0.7229 0.2637,-0.6892 0.2171,-0.714 0.2222,-0.722 0.2719,-0.7229Z M0.1681,-0.7831 0.1669,-0.7441 0.151,-0.7387 0.1435,-0.7838 0.1611,-0.7919 0.1681,-0.7831Z" fill="#e8efe2"/><path d="M0.6255,-0.6195 0.6247,-0.6051 0.6102,-0.5933 0.6088,-0.5771 0.6187,-0.5794 0.6091,-0.5389 0.5978,-0.5738 0.6128,-0.6124 0.6255,-0.6195Z" fill="#e8efe2"/><path d="M0.7393,-0.6984 0.7807,-0.6997 0.7917,-0.6747 0.8076,-0.6693 0.7924,-0.631 0.8048,-0.6099 0.8268,-0.5987 0.8348,-0.5857 0.8322,-0.5696 0.8474,-0.5485 0.8241,-0.5501 0.8091,-0.5305 0.7805,-0.533 0.7343,-0.5712 0.6833,-0.5925 0.6767,-0.6184 0.7154,-0.6407 0.7208,-0.6825 0.7393,-0.6984Z" fill="#e8efe2"/><path d="M0.3862,-0.9682 0.3993,-0.9562 0.3672,-0.9123 0.3135,-0.9005 0.2808,-0.9281 0.2866,-0.9489 0.2993,-0.9577 0.3267,-0.952 0.3576,-0.9714 0.3862,-0.9682Z" fill="#e8efe2"/><path d="M0.4088,-0.7394 0.429,-0.7184 0.3992,-0.7374 0.4088,-0.7394Z M0.4163,-0.6644 0.4594,-0.6597 0.4328,-0.6513 0.4117,-0.6584 0.4163,-0.6644Z M0.4594,-0.8026 0.4646,-0.7951 0.4557,-0.7801 0.4147,-0.7801 0.4248,-0.7663 0.4142,-0.7704 0.418,-0.7622 0.395,-0.7743 0.4072,-0.7441 0.3939,-0.7374 0.4184,-0.724 0.4199,-0.7116 0.4102,-0.7187 0.4021,-0.7153 0.41,-0.7056 0.3967,-0.7078 0.4042,-0.684 0.3794,-0.6929 0.3686,-0.7156 0.3735,-0.7224 0.4046,-0.7209 0.3697,-0.7258 0.3625,-0.7374 0.3686,-0.741 0.3543,-0.7477 0.3491,-0.7563 0.3658,-0.7824 0.4199,-0.7982 0.4524,-0.793 0.4594,-0.8026Z" fill="#e8efe2"/><path d="M0.1662,-0.945 0.1321,-0.9473 0.1419,-0.983 0.1107,-0.9958 0.1038,-1.0605 0.1218,-1.0721 0.1168,-1.0813 0.1258,-1.1138 0.1707,-1.1109 0.1508,-1.1328 0.1564,-1.1403 0.1513,-1.1512 0.1922,-1.1355 0.1894,-1.1245 0.2196,-1.1382 0.2395,-1.1286 0.2491,-1.1156 0.2466,-1.0914 0.2611,-1.0409 0.211,-1.018 0.2407,-0.9729 0.2227,-0.9603 0.2271,-0.944 0.1662,-0.945Z" fill="#e8efe2"/><path d="M0.232,-0.0377 0.2302,-0.0223 0.2475,-0.0239 0.2519,-0.0157 0.2419,0.0035 0.2525,0.0099 0.251,0.033 0.2442,0.0435 0.2204,0.0319 0.2173,0.0407 0.2026,0.0409 0.2073,0.0641 0.1943,0.0685 0.1679,0.0414 0.1518,0.0103 0.1623,0.0061 0.1632,-0.0059 0.1745,-0.0033 0.1627,-0.0096 0.1674,-0.018 0.1979,-0.0175 0.1981,-0.0402 0.232,-0.0377Z" fill="#e8efe2"/><path d="M0.1655,-0.8283 0.1604,-0.7947 0.1496,-0.8176 0.1655,-0.8283Z M0.133,-0.9468 0.1216,-0.9432 0.1042,-0.9116 0.1183,-0.9166 0.1248,-0.8908 0.1157,-0.8831 0.1204,-0.8652 0.1339,-0.8598 0.1307,-0.8513 0.1068,-0.8345 0.0682,-0.8463 0.0532,-0.8309 0.056,-0.8193 0.0354,-0.8174 -0.0255,-0.834 -0.0312,-0.8427 -0.0188,-0.8945 -0.0096,-0.8814 -0.0201,-0.9141 -0.036,-0.9268 -0.0384,-0.9357 -0.0304,-0.9373 -0.0752,-0.9528 -0.0817,-0.9585 -0.074,-0.9653 -0.0831,-0.9693 -0.0241,-0.9745 -0.0325,-1.002 0.0073,-0.9958 0.0033,-1.0026 0.0278,-1.0175 0.0291,-1.0351 0.044,-1.0409 0.0724,-1.0099 0.0848,-1.0145 0.0962,-0.9974 0.1419,-0.983 0.133,-0.9468Z M-0.9533,-0.0407 -0.9427,-0.0603 -0.9509,-0.0846 -0.9411,-0.1009 -0.9233,-0.0949 -0.9076,-0.076 -0.9046,-0.0811 -0.9015,-0.0709 -0.9198,-0.0412 -0.9533,-0.0407Z" fill="#e8efe2"/><path d="M3.1416,0.286 3.1339,0.2946 3.1404,0.2964 3.1154,0.2973 3.1416,0.286Z M3.1116,0.3079 3.1184,0.3209 3.0948,0.3209 3.098,0.311 3.1116,0.3079Z" fill="#e8efe2"/><path d="M0.6156,-0.096 0.6058,-0.1165 0.5761,-0.1392 0.595,-0.1503 0.5983,-0.1848 0.6306,-0.2246 0.6374,-0.2515 0.6554,-0.2493 0.6611,-0.2621 0.7124,-0.2488 0.7397,-0.2194 0.7295,-0.1928 0.7491,-0.1932 0.7477,-0.179 0.7676,-0.1579 0.8374,-0.1401 0.7844,-0.0858 0.7599,-0.0846 0.7309,-0.0695 0.7116,-0.0746 0.6892,-0.0604 0.6287,-0.0781 0.6156,-0.096Z" fill="#e8efe2"/><path d="M0.4773,-1.2338 0.4245,-1.2449 0.4281,-1.2607 0.4149,-1.2611 0.41,-1.2894 0.4452,-1.3045 0.4889,-1.2989 0.4787,-1.2755 0.4849,-1.2446 0.4773,-1.2338Z M0.3948,-1.2698 0.407,-1.2641 0.384,-1.2469 0.3815,-1.2657 0.3948,-1.2698Z" fill="#e8efe2"/><path d="M0.6374,-0.2515 0.6459,-0.3023 0.6739,-0.3196 0.6945,-0.267 0.6957,-0.2733 0.7187,-0.258 0.7526,-0.2237 0.7397,-0.2194 0.7006,-0.2551 0.6707,-0.2546 0.6611,-0.2621 0.6554,-0.2493 0.6374,-0.2515Z" fill="#e8efe2"/><path d="M0.1977,-0.0379 0.1979,-0.0175 0.1639,-0.0199 0.171,-0.0402 0.1977,-0.0379Z" fill="#e8efe2"/><path d="M0.6435,-0.3938 0.436,-0.3938 0.4337,-0.5763 0.4519,-0.5822 0.5074,-0.5661 0.5424,-0.5818 0.5566,-0.5806 0.5603,-0.5714 0.5969,-0.5761 0.6091,-0.5389 0.5973,-0.5047 0.5685,-0.5487 0.5648,-0.5419 0.6245,-0.4305 0.6231,-0.4117 0.6435,-0.3938Z" fill="#e8efe2"/><path d="M0.2194,-1.1785 0.207,-1.1473 0.1916,-1.1763 0.2133,-1.1888 0.2194,-1.1785Z M0.17,-1.1491 0.1513,-1.1512 0.1419,-1.1726 0.1424,-1.2042 0.1606,-1.2071 0.159,-1.218 0.1443,-1.2109 0.1852,-1.2406 0.1794,-1.2046 0.1908,-1.1989 0.1674,-1.1692 0.17,-1.1491Z" fill="#e8efe2"/><path d="M0.3286,-0.9974 0.2958,-0.9732 0.2616,-0.9838 0.2477,-0.9727 0.2213,-0.9948 0.211,-1.0189 0.2616,-1.0384 0.2855,-1.0276 0.2904,-1.0134 0.3089,-1.0191 0.3286,-0.9974Z" fill="#e8efe2"/><path d="M0.5709,-0.6565 0.5943,-0.6526 0.5761,-0.6437 0.5641,-0.6518 0.5709,-0.6565Z" fill="#e8efe2"/><path d="M0.237,-0.8943 0.2677,-0.893 0.2848,-0.9197 0.3108,-0.901 0.33,-0.9045 0.3386,-0.8861 0.3318,-0.8782 0.2756,-0.8858 0.307,-0.8314 0.2791,-0.8453 0.2539,-0.8888 0.2419,-0.8774 0.237,-0.8943Z M0.3218,-0.8224 0.2976,-0.8331 0.3218,-0.8224Z" fill="#e8efe2"/><path d="M0.5367,0.1434 0.5044,0.1487 0.4957,0.1616 0.4971,0.2076 0.5072,0.2172 0.5201,0.2138 0.5198,0.2368 0.5081,0.236 0.474,0.2035 0.4543,0.209 0.4414,0.1969 0.4255,0.2006 0.4184,0.1909 0.3889,0.1966 0.3801,0.1279 0.347,0.1223 0.3375,0.1396 0.3068,0.1418 0.2868,0.1032 0.2131,0.1007 0.2285,0.0804 0.234,0.0846 0.2506,0.0751 0.2567,0.0853 0.2791,0.0658 0.2831,0.0381 0.3098,0.0096 0.3245,-0.076 0.3328,-0.0855 0.3437,-0.0895 0.3588,-0.0779 0.3913,-0.0721 0.399,-0.0825 0.4732,-0.0909 0.492,-0.076 0.518,-0.0802 0.5393,-0.0604 0.5363,-0.0429 0.5458,-0.0375 0.5226,-0.0143 0.5163,0.0243 0.5037,0.0428 0.5156,0.1104 0.5367,0.1434Z" fill="#e8efe2"/><path d="M0.1943,0.0685 0.2073,0.0641 0.2026,0.0409 0.2173,0.0407 0.2204,0.0319 0.2442,0.0435 0.251,0.033 0.2525,0.0099 0.2419,0.0035 0.2519,-0.0157 0.2475,-0.0239 0.2302,-0.0223 0.232,-0.0377 0.2803,-0.0293 0.2899,-0.0613 0.3229,-0.0629 0.3098,0.0096 0.2831,0.0381 0.277,0.0686 0.2567,0.0853 0.2499,0.0751 0.234,0.0846 0.2234,0.0774 0.2098,0.0874 0.1943,0.0685Z" fill="#e8efe2"/><path d="M0.4185,-0.3471 0.4184,-0.2777 0.4002,-0.2744 0.381,-0.2251 0.3901,-0.2228 0.399,-0.1918 0.38,-0.1868 0.355,-0.16 0.3309,-0.1567 0.3245,-0.1411 0.2702,-0.1316 0.244,-0.1699 0.2731,-0.1756 0.2592,-0.2199 0.2347,-0.2537 0.27,-0.2995 0.2786,-0.3629 0.2649,-0.3848 0.2615,-0.4127 0.2789,-0.4212 0.4185,-0.3471Z" fill="#e8efe2"/><path d="M0.4215,-0.1519 0.4782,-0.0893 0.4456,-0.0928 0.399,-0.0825 0.3913,-0.0721 0.3403,-0.0897 0.3245,-0.076 0.3248,-0.0608 0.2909,-0.0618 0.2824,-0.0396 0.2571,-0.0804 0.252,-0.1065 0.2702,-0.1316 0.3245,-0.1411 0.3297,-0.1558 0.3601,-0.163 0.3847,-0.19 0.399,-0.1918 0.4128,-0.1722 0.4109,-0.1545 0.4215,-0.1519Z" fill="#e8efe2"/><path d="M0.1494,-0.0832 0.1581,-0.1051 0.177,-0.1225 0.1946,-0.1126 0.2012,-0.1165 0.2391,-0.1909 0.2545,-0.2026 0.2454,-0.2303 0.2534,-0.2285 0.2731,-0.1756 0.244,-0.1699 0.2716,-0.1355 0.2519,-0.1056 0.2628,-0.069 0.2803,-0.0508 0.2817,-0.03 0.2545,-0.0384 0.1723,-0.0386 0.1691,-0.0709 0.1571,-0.0714 0.1494,-0.0832Z" fill="#e8efe2"/><path d="M0.5332,0.0419 0.5374,0.0571 0.5131,0.0777 0.5072,0.0454 0.5332,0.0419Z" fill="#e8efe2"/><path d="M0.0157,-0.193 -0.0494,-0.1932 -0.0483,-0.1652 -0.0562,-0.1737 -0.0808,-0.1703 -0.0963,-0.1831 -0.0923,-0.208 -0.0773,-0.2171 -0.0724,-0.2344 -0.0576,-0.2339 -0.0452,-0.251 -0.0117,-0.2661 0.0038,-0.2632 0.0075,-0.2463 0.0209,-0.2353 0.0173,-0.2296 0.0386,-0.2206 0.04,-0.2055 0.0157,-0.193Z" fill="#e8efe2"/><path d="M0.4889,-0.8085 0.4639,-0.808 0.4524,-0.793 0.4,-0.7937 0.3899,-0.8165 0.4011,-0.8374 0.391,-0.8562 0.4451,-0.8489 0.4728,-0.861 0.499,-0.8506 0.4796,-0.8202 0.4889,-0.8085Z" fill="#e8efe2"/><path d="M0.4409,0.3156 0.4568,0.3478 0.4831,0.3657 0.4882,0.3846 0.5124,0.3973 0.4739,0.4225 0.444,0.4646 0.4025,0.4569 0.3841,0.4827 0.362,0.4868 0.3629,0.4687 0.3487,0.4466 0.3487,0.3938 0.366,0.3938 0.366,0.3253 0.4053,0.3195 0.4119,0.3279 0.4409,0.3156Z" fill="#e8efe2"/><path d="M0.3377,-0.8784 0.3403,-0.8482 0.3307,-0.8455 0.322,-0.8224 0.2747,-0.8757 0.2761,-0.8863 0.2953,-0.8883 0.3377,-0.8784Z" fill="#e8efe2"/><path d="M0.0283,-0.1088 0.0279,-0.1586 0.0138,-0.188 0.0503,-0.2176 0.0628,-0.2056 0.0668,-0.1862 0.0483,-0.1586 0.0473,-0.1114 0.0283,-0.1088Z" fill="#e8efe2"/><path d="M0.0738,-1.049 0.1018,-1.0417 0.0984,-1.0337 0.111,-1.0194 0.1016,-0.9985 0.0848,-1.0145 0.0724,-1.0099 0.044,-1.0409 0.0738,-1.049Z" fill="#e8efe2"/><path d="M0.5543,-1.069 0.5407,-1.0676 0.5315,-1.0456 0.441,-1.0645 0.4121,-1.0526 0.4046,-1.075 0.4175,-1.0882 0.4098,-1.1224 0.4494,-1.1289 0.4513,-1.1518 0.4674,-1.1625 0.4641,-1.1748 0.4908,-1.1897 0.5395,-1.1717 0.5376,-1.1476 0.5709,-1.1071 0.5456,-1.0954 0.5543,-1.069Z" fill="#e8efe2"/><path d="M0.1663,-0.9386 0.2271,-0.944 0.2236,-0.9616 0.2616,-0.9838 0.2946,-0.9759 0.2993,-0.9577 0.2866,-0.9489 0.2876,-0.9332 0.2786,-0.9235 0.2539,-0.9164 0.2178,-0.9232 0.2129,-0.9337 0.1768,-0.9278 0.1663,-0.9386Z" fill="#e8efe2"/><path d="M0.2281,0.0809 0.2131,0.1007 0.2098,0.0874 0.2281,0.0809Z M0.4184,0.1909 0.4182,0.2287 0.3836,0.2289 0.3847,0.2877 0.4081,0.3129 0.3622,0.3198 0.3211,0.3085 0.2447,0.3086 0.23,0.3006 0.2049,0.3057 0.219,0.2368 0.2374,0.2162 0.2417,0.1941 0.2269,0.1586 0.2335,0.1466 0.2147,0.1065 0.2868,0.1032 0.3068,0.1418 0.3375,0.1396 0.347,0.1223 0.3801,0.1279 0.388,0.1953 0.4184,0.1909Z" fill="#e8efe2"/><path d="M0.1497,-0.6947 0.1433,-0.6855 0.144,-0.6471 0.1309,-0.6281 0.1578,-0.5915 0.1712,-0.5328 0.1724,-0.4825 0.1644,-0.4731 0.1791,-0.443 0.2009,-0.4376 0.2089,-0.4225 0.1019,-0.3467 0.0569,-0.338 0.0546,-0.3536 0.0305,-0.3625 0.0201,-0.3769 -0.1515,-0.4954 -0.1515,-0.5231 -0.1443,-0.5289 -0.0646,-0.5683 -0.0658,-0.5837 -0.0215,-0.5923 -0.0387,-0.655 0.022,-0.6855 0.1497,-0.6947Z" fill="#e8efe2"/><path d="M0.3375,-0.8061 0.3438,-0.8245 0.3581,-0.8132 0.3576,-0.7921 0.367,-0.7771 0.3527,-0.755 0.3372,-0.7723 0.3375,-0.8061Z" fill="#e8efe2"/><path d="M0.4705,0.4267 0.4845,0.4165 0.4924,0.4068 0.5034,0.4028 0.5084,0.3977 0.5423,0.3996 0.552,0.4034 0.5618,0.4142 0.5737,0.4393 0.5859,0.4461 0.5852,0.4545 M0.1241,-0.8742 0.1295,-0.8737 0.1349,-0.8846 0.1393,-0.8868 0.1508,-0.8826 0.1738,-0.8846 0.1831,-0.8796 0.1897,-0.8831 0.2019,-0.8792 0.2185,-0.8806" fill="none" stroke="#e8453c" stroke-width="0.0178" stroke-linecap="round"/></g></svg>