<svg xmlns="http://www.w3.org/2000/svg" viewBox="-1.484 0.387 0.524 0.461" preserveAspectRatio="xMidYMid meet"><rect x="-1.484" y="0.387" width="0.524" height="0.461" fill="#a9d2ea"/><g stroke="#7e96a9" stroke-width="0.0013" stroke-linejoin="round"><path d="M-0.9315,0.6262 -0.9582,0.6513 -1.01,0.6412 -1.02,0.6258 -1.0062,0.5539 -0.9919,0.5515 -0.9774,0.5712 -0.9704,0.5665 -0.9383,0.5913 -0.9273,0.6053 -0.9315,0.6262Z" fill="#e8efe2"/><path d="M-1.0151,0.3594 -1.0116,0.3958 -0.9748,0.3996 -0.9673,0.4307 -0.9467,0.4327 -0.9557,0.4805 -0.9723,0.4978 -1.0228,0.4958 -1.006,0.4572 -1.0652,0.4271 -1.0931,0.3992 -1.0779,0.3499 -1.0313,0.3432 -1.0151,0.3594Z" fill="#e8efe2"/><path d="M3.0215,0.7924 3.0433,0.7882 3.0407,0.8056 3.0112,0.8439 3.0206,0.8538 3.0027,0.8496 2.9887,0.8632 2.9807,0.903 2.9514,0.9222 2.9058,0.9053 2.9386,0.8588 2.9847,0.8302 3.0067,0.7803 3.0184,0.7748 3.0215,0.7924Z M3.0241,0.6513 3.0425,0.6582 3.0494,0.6925 3.0638,0.7004 3.0624,0.6847 3.0737,0.7103 3.092,0.7178 3.1161,0.7111 3.1051,0.7457 3.0906,0.7452 3.0864,0.7666 3.0597,0.8 3.048,0.793 3.0571,0.7654 3.0327,0.7475 3.0473,0.7356 3.0531,0.7136 3.0472,0.6982 3.0531,0.6977 3.0144,0.6414 3.0241,0.6513Z" fill="#e8efe2"/><path d="M3.1416,0.286 3.1339,0.2946 3.1404,0.2964 3.1154,0.2973 3.1416,0.286Z M3.1116,0.3079 3.1184,0.3209 3.0948,0.3209 3.098,0.311 3.1116,0.3079Z" fill="#e8efe2"/><path d="M-1.2291,0.3259 -1.2132,0.3105 -1.2058,0.3204 -1.1847,0.4093 -1.1695,0.4127 -1.1757,0.4323 -1.1957,0.4438 -1.1924,0.4891 -1.2158,0.5175 -1.2189,0.5529 -1.2308,0.5726 -1.2191,0.6363 -1.2315,0.6582 -1.2287,0.6756 -1.2425,0.6925 -1.2366,0.73 -1.2518,0.7547 -1.2523,0.8103 -1.2591,0.8229 -1.2535,0.8662 -1.242,0.8706 -1.2577,0.8757 -1.2453,0.8871 -1.2523,0.8958 -1.2514,0.9227 -1.2673,0.9782 -1.2842,0.9993 -1.2767,1.0309 -1.2626,1.0293 -1.2638,1.0532 -1.2552,1.0659 -1.1949,1.0744 -1.2357,1.0882 -1.2444,1.1206 -1.2638,1.105 -1.253,1.1088 -1.2432,1.0893 -1.2662,1.1082 -1.275,1.1018 -1.2694,1.0879 -1.2481,1.0836 -1.269,1.0816 -1.2762,1.0969 -1.2854,1.0902 -1.2762,1.0801 -1.2917,1.0844 -1.2968,1.0696 -1.2657,1.0736 -1.2699,1.054 -1.2771,1.0507 -1.2671,1.0605 -1.2832,1.0673 -1.295,1.0571 -1.2905,1.0456 -1.3106,1.0293 -1.3027,1.0205 -1.2882,1.0365 -1.2854,1.0241 -1.2912,1.0334 -1.3025,1.0159 -1.2888,1.0001 -1.2903,0.9843 -1.298,0.9945 -1.2917,0.97 -1.3017,0.9575 -1.2807,0.9622 -1.2867,0.9486 -1.3022,0.9512 -1.2938,0.9468 -1.2999,0.9427 -1.297,0.9263 -1.3214,0.9242 -1.2908,0.8913 -1.2984,0.9118 -1.287,0.9015 -1.2889,0.9207 -1.2868,0.8933 -1.2729,0.8925 -1.2811,0.8838 -1.2685,0.8713 -1.2788,0.861 -1.2704,0.8162 -1.2638,0.8184 -1.2709,0.8071 -1.2622,0.7975 -1.287,0.8031 -1.2912,0.7852 -1.2781,0.7452 -1.2856,0.7034 -1.2605,0.655 -1.247,0.6037 -1.2483,0.5279 -1.2331,0.4766 -1.2231,0.3818 -1.2291,0.3259Z M-1.1978,1.0847 -1.1982,1.1497 -1.2549,1.1421 -1.2271,1.14 -1.2367,1.1274 -1.231,1.1132 -1.2312,1.1283 -1.2086,1.1409 -1.2243,1.1209 -1.2111,1.1056 -1.2275,1.1059 -1.2284,1.0876 -1.1978,1.0847Z M-1.1708,1.1588 -1.1921,1.1536 -1.1708,1.1588Z M-1.2875,0.8412 -1.2984,0.8383 -1.2922,0.8045 -1.2814,0.8136 -1.2875,0.8412Z M-1.2999,0.9878 -1.3018,1.011 -1.3041,0.995 -1.3186,1.005 -1.3073,0.9766 -1.2999,0.9878Z M-1.2984,1.0925 -1.2765,1.105 -1.3039,1.0876 -1.2984,1.0925Z M-1.2727,1.1088 -1.2603,1.1185 -1.2718,1.128 -1.2889,1.1109 -1.2727,1.1088Z M-1.2165,1.1518 -1.1949,1.153 -1.1877,1.1739 -1.2214,1.1588 -1.2165,1.1518Z M-1.246,1.1251 -1.2392,1.1316 -1.2603,1.1257 -1.246,1.1251Z M-1.287,0.8664 -1.2872,0.8881 -1.2933,0.8895 -1.3024,0.8728 -1.2914,0.8603 -1.287,0.8664Z M-1.239,1.1503 -1.2266,1.1564 -1.2469,1.1509 -1.239,1.1503Z" fill="#e8efe2"/><path d="M-1.1673,-0.0213 -1.1427,-0.012 -1.1071,-0.0377 -1.1179,-0.0436 -1.1308,-0.0748 -1.0971,-0.0627 -1.0945,-0.0702 -1.0647,-0.0793 -1.0585,-0.0912 -1.047,-0.0888 -1.0498,-0.0791 -1.0393,-0.0686 -1.0472,-0.0484 -1.043,-0.0332 -1.0273,-0.0209 -0.9969,-0.0351 -0.9767,-0.0325 -0.977,-0.044 -0.9243,-0.0381 -0.8981,-0.0753 -0.8709,-0.0202 -0.9072,0.0239 -0.9191,0.0271 -0.8882,0.0164 -0.8796,0.0353 -0.8606,0.0302 -0.8664,0.0464 -0.8399,0.0129 -0.825,0.0113 -0.7793,0.0305 -0.7805,0.0559 -0.772,0.0431 -0.7713,0.0491 -0.7571,0.0416 -0.6974,0.0499 -0.6487,0.0858 -0.6205,0.0897 -0.6151,0.0974 -0.6103,0.1473 -0.6674,0.226 -0.6781,0.2251 -0.6833,0.314 -0.7156,0.3938 -0.7337,0.4117 -0.7791,0.4138 -0.8412,0.459 -0.8505,0.458 -0.8447,0.4625 -0.8517,0.5209 -0.9083,0.5923 -0.8828,0.5582 -0.8954,0.5499 -0.895,0.5645 -0.9315,0.6262 -0.9273,0.6053 -0.9383,0.5913 -0.9704,0.5665 -0.9774,0.5712 -0.9919,0.5515 -1.0055,0.5531 -0.9727,0.5133 -0.9397,0.4921 -0.9367,0.4747 -0.9427,0.4621 -0.9533,0.4621 -0.9467,0.4327 -0.9673,0.4307 -0.9739,0.4004 -1.0121,0.3947 -1.0146,0.3516 -1.0036,0.3233 -1.0193,0.3054 -1.0184,0.288 -1.0503,0.2879 -1.0561,0.243 -1.1343,0.2106 -1.1414,0.1703 -1.1976,0.1951 -1.2329,0.1934 -1.2312,0.1655 -1.2598,0.1754 -1.2633,0.1667 -1.2778,0.165 -1.2736,0.1576 -1.2915,0.1323 -1.2765,0.1132 -1.2722,0.0895 -1.2357,0.0728 -1.2212,0.0751 -1.2113,0.0208 -1.2226,-0.0101 -1.2069,-0.0115 -1.2191,-0.0185 -1.2191,-0.0298 -1.1764,-0.037 -1.1673,-0.0213Z M-0.8662,0.004 -0.8446,0.0052 -0.8522,0.0243 -0.8816,0.0312 -0.884,0.0047 -0.8662,0.004Z" fill="#e8efe2"/><path d="M-1.2132,0.3105 -1.2015,0.2891 -1.2116,0.2757 -1.1989,0.2199 -1.2144,0.1923 -1.1976,0.1951 -1.1414,0.1703 -1.1343,0.2106 -1.0561,0.243 -1.0503,0.2879 -1.0184,0.288 -1.0193,0.3054 -1.0036,0.3233 -1.0139,0.3592 -1.0313,0.3432 -1.0779,0.3499 -1.0934,0.3981 -1.1156,0.3943 -1.1228,0.4094 -1.1277,0.3981 -1.1558,0.39 -1.1818,0.4106 -1.2001,0.3642 -1.1949,0.3458 -1.2132,0.3105Z" fill="#e8efe2"/><path d="M-1.0055,0.5531 -1.0215,0.638 -0.9978,0.6605 -1.0015,0.6721 -0.99,0.6827 -0.9901,0.6951 -1.0154,0.7278 -1.0879,0.7358 -1.0891,0.7833 -1.1104,0.7896 -1.1357,0.7815 -1.1343,0.8115 -1.1243,0.8193 -1.1135,0.8118 -1.1104,0.8257 -1.1339,0.825 -1.1226,0.8321 -1.1388,0.8465 -1.1456,0.8816 -1.1683,0.8878 -1.1798,0.9075 -1.1655,0.9319 -1.1493,0.9357 -1.1559,0.953 -1.1486,0.9559 -1.1776,0.9825 -1.1853,1.0101 -1.2039,1.0107 -1.1942,1.015 -1.2106,1.039 -1.2053,1.0535 -1.2125,1.0543 -1.1936,1.075 -1.2561,1.065 -1.2638,1.0532 -1.2626,1.0293 -1.2767,1.0309 -1.2842,0.9993 -1.2673,0.9782 -1.2514,0.9227 -1.2523,0.8958 -1.2453,0.8871 -1.2577,0.8757 -1.242,0.8706 -1.2535,0.8662 -1.2523,0.8386 -1.2593,0.8326 -1.2523,0.8103 -1.2554,0.7787 -1.2467,0.7401 -1.2367,0.7313 -1.2425,0.6925 -1.2287,0.6756 -1.2315,0.6582 -1.2191,0.6363 -1.232,0.5812 -1.2189,0.5529 -1.2158,0.5175 -1.1924,0.4891 -1.1957,0.4438 -1.1757,0.4323 -1.1727,0.4093 -1.1558,0.39 -1.1277,0.3981 -1.1228,0.4094 -1.1156,0.3943 -1.0966,0.3938 -1.0652,0.4271 -1.006,0.4572 -1.0228,0.4958 -0.9723,0.4978 -0.957,0.4829 -0.9533,0.4621 -0.9406,0.4638 -0.9397,0.4921 -0.9727,0.5133 -1.0055,0.5531Z M-1.1982,1.1497 -1.1978,1.0847 -1.1954,1.1024 -1.1744,1.1257 -1.1376,1.1445 -1.1982,1.1497Z" fill="#e8efe2"/><circle cx="-1.222" cy="0.604" r="0.010" fill="#e8453c" stroke="#fff" stroke-width="0.0013"/></g></svg>