<svg xmlns="http://www.w3.org/2000/svg" viewBox="-1.637 -0.167 0.524 0.386" preserveAspectRatio="xMidYMid meet"><rect x="-1.637" y="-0.167" width="0.524" height="0.386" fill="#a9d2ea"/><g stroke="#7e96a9" stroke-width="0.0013" stroke-linejoin="round"><path d="M-1.0475,-0.1498 -1.0446,-0.1445 -1.0598,-0.132 -1.0533,-0.1225 -1.0673,-0.117 -1.0715,-0.1039 -1.0582,-0.0855 -1.0971,-0.0627 -1.1308,-0.0748 -1.1179,-0.0436 -1.1064,-0.0388 -1.1442,-0.012 -1.1673,-0.0213 -1.173,-0.0417 -1.1844,-0.0487 -1.1748,-0.0597 -1.1844,-0.0788 -1.1777,-0.1081 -1.2118,-0.107 -1.2235,-0.1214 -1.2568,-0.123 -1.2706,-0.1597 -1.2805,-0.1611 -1.2687,-0.1903 -1.2448,-0.2085 -1.2559,-0.2033 -1.2495,-0.1871 -1.2586,-0.1722 -1.2512,-0.159 -1.2434,-0.1606 -1.2474,-0.1925 -1.2182,-0.2015 -1.2268,-0.209 -1.2217,-0.2142 -1.2153,-0.2017 -1.1938,-0.196 -1.1893,-0.1841 -1.1563,-0.1866 -1.1367,-0.1767 -1.1123,-0.1843 -1.1222,-0.1868 -1.08,-0.1886 -1.098,-0.1848 -1.0877,-0.1715 -1.061,-0.1641 -1.0755,-0.1507 -1.0475,-0.1498Z" fill="#e8efe2"/><path d="M-1.2212,0.0741 -1.2357,0.0728 -1.2722,0.0895 -1.2765,0.1132 -1.2915,0.1323 -1.2736,0.1576 -1.2778,0.165 -1.2633,0.1667 -1.2598,0.1754 -1.2312,0.1655 -1.2329,0.1934 -1.2144,0.1923 -1.1989,0.2199 -1.2116,0.2757 -1.2015,0.2891 -1.2291,0.3259 -1.3252,0.2582 -1.3746,0.151 -1.3961,0.1184 -1.4162,0.106 -1.4116,0.0986 -1.4197,0.0816 -1.4018,0.0592 -1.4046,0.0774 -1.3793,0.0869 -1.3675,0.0594 -1.3189,0.0267 -1.3135,0.0098 -1.32,0.0021 -1.3128,0.0007 -1.273,0.0417 -1.2387,0.0386 -1.2235,0.0464 -1.2346,0.066 -1.2212,0.0741Z" fill="#e8efe2"/><path d="M-1.3504,-0.1517 -1.3474,-0.1396 -1.3596,-0.1265 -1.3687,-0.1411 -1.3572,-0.1424 -1.3804,-0.1577 -1.4043,-0.1438 -1.3964,-0.1313 -1.408,-0.1265 -1.4148,-0.1383 -1.4184,-0.1336 -1.4265,-0.1426 -1.4491,-0.1461 -1.4451,-0.1682 -1.4198,-0.1538 -1.3807,-0.1673 -1.3504,-0.1517Z" fill="#e8efe2"/><path d="M3.0215,0.7924 3.0433,0.7882 3.0407,0.8056 3.0112,0.8439 3.0206,0.8538 3.0027,0.8496 2.9887,0.8632 2.9807,0.903 2.9514,0.9222 2.9058,0.9053 2.9386,0.8588 2.9847,0.8302 3.0067,0.7803 3.0184,0.7748 3.0215,0.7924Z M3.0241,0.6513 3.0425,0.6582 3.0494,0.6925 3.0638,0.7004 3.0624,0.6847 3.0737,0.7103 3.092,0.7178 3.1161,0.7111 3.1051,0.7457 3.0906,0.7452 3.0864,0.7666 3.0597,0.8 3.048,0.793 3.0571,0.7654 3.0327,0.7475 3.0473,0.7356 3.0531,0.7136 3.0472,0.6982 3.0531,0.6977 3.0144,0.6414 3.0241,0.6513Z" fill="#e8efe2"/><path d="M-1.3139,0.0019 -1.32,0.0021 -1.3135,0.0098 -1.3189,0.0267 -1.3675,0.0594 -1.3793,0.0869 -1.4046,0.0774 -1.3916,0.045 -1.3935,0.0361 -1.4012,0.0473 -1.4125,0.0396 -1.412,0.0189 -1.4012,0.0108 -1.397,-0.0145 -1.3764,-0.0255 -1.3509,-0.0068 -1.3319,-0.0079 -1.3139,0.0019Z M-1.593,-0.0005 -1.5848,0.0131 -1.5905,0.0178 -1.597,0.015 -1.5903,0.0098 -1.5987,0.0 -1.593,-0.0005Z" fill="#e8efe2"/><path d="M-1.4409,-0.168 -1.4476,-0.1657 -1.4465,-0.1413 -1.4841,-0.1776 -1.4854,-0.168 -1.4944,-0.1737 -1.4994,-0.1914 -1.4598,-0.1918 -1.4409,-0.168Z" fill="#e8efe2"/><path d="M-1.2448,-0.2085 -1.2687,-0.1903 -1.2805,-0.1611 -1.2706,-0.1597 -1.2568,-0.123 -1.2235,-0.1214 -1.2118,-0.107 -1.1777,-0.1081 -1.1844,-0.0788 -1.1748,-0.0597 -1.1844,-0.0487 -1.173,-0.0417 -1.1673,-0.0237 -1.1764,-0.037 -1.2191,-0.0298 -1.2191,-0.0185 -1.2069,-0.0115 -1.2226,-0.0101 -1.2113,0.0208 -1.2212,0.0741 -1.2346,0.066 -1.2235,0.0464 -1.2387,0.0386 -1.273,0.0417 -1.3055,0.0035 -1.3509,-0.0068 -1.3793,-0.0283 -1.3453,-0.0683 -1.353,-0.0735 -1.3504,-0.1151 -1.3596,-0.1265 -1.3474,-0.1396 -1.3518,-0.1501 -1.3402,-0.1388 -1.342,-0.151 -1.3202,-0.1657 -1.3214,-0.1779 -1.3062,-0.1951 -1.2985,-0.1891 -1.294,-0.1989 -1.2795,-0.1985 -1.2516,-0.2185 -1.2437,-0.2171 -1.2448,-0.2085Z" fill="#e8efe2"/><path d="M-1.1673,-0.0213 -1.1427,-0.012 -1.1071,-0.0377 -1.1179,-0.0436 -1.1308,-0.0748 -1.0971,-0.0627 -1.0945,-0.0702 -1.0647,-0.0793 -1.0585,-0.0912 -1.047,-0.0888 -1.0498,-0.0791 -1.0393,-0.0686 -1.0472,-0.0484 -1.043,-0.0332 -1.0273,-0.0209 -0.9969,-0.0351 -0.9767,-0.0325 -0.977,-0.044 -0.9243,-0.0381 -0.8981,-0.0753 -0.8709,-0.0202 -0.9072,0.0239 -0.9191,0.0271 -0.8882,0.0164 -0.8796,0.0353 -0.8606,0.0302 -0.8664,0.0464 -0.8399,0.0129 -0.825,0.0113 -0.7793,0.0305 -0.7805,0.0559 -0.772,0.0431 -0.7713,0.0491 -0.7571,0.0416 -0.6974,0.0499 -0.6487,0.0858 -0.6205,0.0897 -0.6151,0.0974 -0.6103,0.1473 -0.6674,0.226 -0.6781,0.2251 -0.6833,0.314 -0.7156,0.3938 -0.7337,0.4117 -0.7791,0.4138 -0.8412,0.459 -0.8505,0.458 -0.8447,0.4625 -0.8517,0.5209 -0.9083,0.5923 -0.8828,0.5582 -0.8954,0.5499 -0.895,0.5645 -0.9315,0.6262 -0.9273,0.6053 -0.9383,0.5913 -0.9704,0.5665 -0.9774,0.5712 -0.9919,0.5515 -1.0055,0.5531 -0.9727,0.5133 -0.9397,0.4921 -0.9367,0.4747 -0.9427,0.4621 -0.9533,0.4621 -0.9467,0.4327 -0.9673,0.4307 -0.9739,0.4004 -1.0121,0.3947 -1.0146,0.3516 -1.0036,0.3233 -1.0193,0.3054 -1.0184,0.288 -1.0503,0.2879 -1.0561,0.243 -1.1343,0.2106 -1.1414,0.1703 -1.1976,0.1951 -1.2329,0.1934 -1.2312,0.1655 -1.2598,0.1754 -1.2633,0.1667 -1.2778,0.165 -1.2736,0.1576 -1.2915,0.1323 -1.2765,0.1132 -1.2722,0.0895 -1.2357,0.0728 -1.2212,0.0751 -1.2113,0.0208 -1.2226,-0.0101 -1.2069,-0.0115 -1.2191,-0.0185 -1.2191,-0.0298 -1.1764,-0.037 -1.1673,-0.0213Z M-0.8662,0.004 -0.8446,0.0052 -0.8522,0.0243 -0.8816,0.0312 -0.884,0.0047 -0.8662,0.004Z" fill="#e8efe2"/><path d="M-1.2132,0.3105 -1.2015,0.2891 -1.2116,0.2757 -1.1989,0.2199 -1.2144,0.1923 -1.1976,0.1951 -1.1414,0.1703 -1.1343,0.2106 -1.0561,0.243 -1.0503,0.2879 -1.0184,0.288 -1.0193,0.3054 -1.0036,0.3233 -1.0139,0.3592 -1.0313,0.3432 -1.0779,0.3499 -1.0934,0.3981 -1.1156,0.3943 -1.1228,0.4094 -1.1277,0.3981 -1.1558,0.39 -1.1818,0.4106 -1.2001,0.3642 -1.1949,0.3458 -1.2132,0.3105Z" fill="#e8efe2"/><circle cx="-1.376" cy="0.026" r="0.010" fill="#e8453c" stroke="#fff" stroke-width="0.0013"/></g></svg>