<svg xmlns="http://www.w3.org/2000/svg" viewBox="0.390 -0.139 0.524 0.387" preserveAspectRatio="xMidYMid meet"><rect x="0.390" y="-0.139" width="0.524" height="0.387" fill="#a9d2ea"/><g stroke="#7e96a9" stroke-width="0.0013" stroke-linejoin="round"><path d="M0.5306,0.2764 0.5056,0.282 0.4674,0.3202 0.4081,0.3129 0.3847,0.2877 0.3836,0.2289 0.4182,0.2287 0.4184,0.1909 0.4255,0.2006 0.4414,0.1969 0.4543,0.209 0.474,0.2035 0.5063,0.2355 0.5198,0.2368 0.5201,0.2138 0.5072,0.2172 0.4953,0.2033 0.4957,0.1616 0.5044,0.1487 0.5367,0.1434 0.5794,0.1689 0.5875,0.1859 0.5805,0.1912 0.5849,0.2172 0.5702,0.2394 0.5794,0.247 0.5276,0.2647 0.5306,0.2764Z" fill="#e8efe2"/><path d="M0.5917,0.0175 0.5163,0.0243 0.5226,-0.0143 0.5454,-0.0356 0.5363,-0.0429 0.5437,-0.0662 0.5609,-0.0615 0.5931,-0.0737 0.6011,-0.0637 0.6105,-0.03 0.5924,-0.003 0.5917,0.0175Z" fill="#e8efe2"/><path d="M0.5746,0.165 0.5405,0.1498 0.5156,0.1104 0.5131,0.0777 0.5377,0.0559 0.5309,0.0492 0.539,0.0374 0.5327,0.0185 0.5931,0.0175 0.6569,0.0533 0.6564,0.0611 0.6845,0.0819 0.6772,0.1061 0.6903,0.1228 0.6859,0.1478 0.6934,0.1754 0.7062,0.1836 0.6552,0.2053 0.6102,0.2035 0.599,0.1706 0.5746,0.165Z" fill="#e8efe2"/><path d="M0.5931,-0.0737 0.5845,-0.0657 0.5383,-0.0609 0.5157,-0.0811 0.4901,-0.0772 0.4601,-0.1162 0.4225,-0.1466 0.4367,-0.1797 0.4513,-0.1827 0.4634,-0.1671 0.4896,-0.1636 0.5034,-0.1636 0.5236,-0.1804 0.5437,-0.1714 0.566,-0.1951 0.5597,-0.2112 0.5794,-0.2149 0.5782,-0.1887 0.5918,-0.1786 0.5952,-0.1521 0.576,-0.1383 0.6058,-0.1165 0.6156,-0.096 0.5931,-0.0737Z" fill="#e8efe2"/><path d="M0.7248,0.0297 0.7152,0.0152 0.7152,-0.0496 0.7334,-0.0723 0.7844,-0.0858 0.8374,-0.1401 0.8542,-0.1657 0.8542,-0.1978 0.8945,-0.208 0.8906,-0.1832 0.8968,-0.1823 0.8889,-0.1815 0.8872,-0.1653 0.8374,-0.0786 0.7587,-0.0108 0.7248,0.0297Z" fill="#e8efe2"/><path d="M0.5163,0.0243 0.5325,0.0187 0.5381,0.0409 0.5047,0.0468 0.5163,0.0243Z" fill="#e8efe2"/><path d="M3.0215,0.7924 3.0433,0.7882 3.0407,0.8056 3.0112,0.8439 3.0206,0.8538 3.0027,0.8496 2.9887,0.8632 2.9807,0.903 2.9514,0.9222 2.9058,0.9053 2.9386,0.8588 2.9847,0.8302 3.0067,0.7803 3.0184,0.7748 3.0215,0.7924Z M3.0241,0.6513 3.0425,0.6582 3.0494,0.6925 3.0638,0.7004 3.0624,0.6847 3.0737,0.7103 3.092,0.7178 3.1161,0.7111 3.1051,0.7457 3.0906,0.7452 3.0864,0.7666 3.0597,0.8 3.048,0.793 3.0571,0.7654 3.0327,0.7475 3.0473,0.7356 3.0531,0.7136 3.0472,0.6982 3.0531,0.6977 3.0144,0.6414 3.0241,0.6513Z" fill="#e8efe2"/><path d="M0.5461,0.4013 0.566,0.3806 0.5758,0.356 0.5751,0.2959 0.5313,0.283 0.5276,0.2647 0.5794,0.247 0.5871,0.2571 0.6,0.2544 0.5978,0.281 0.6156,0.3033 0.6264,0.2629 0.6032,0.2353 0.6042,0.2042 0.6552,0.2053 0.7062,0.1836 0.7079,0.2733 0.6953,0.291 0.6048,0.3508 0.6203,0.3994 0.6194,0.433 0.5723,0.4632 0.574,0.4868 0.5604,0.4866 0.5583,0.4405 0.5461,0.4013Z" fill="#e8efe2"/><path d="M0.5794,0.247 0.5702,0.2394 0.5849,0.2172 0.5805,0.1912 0.5875,0.1852 0.5749,0.1648 0.6025,0.176 0.6102,0.2035 0.5997,0.2138 0.6032,0.2353 0.6264,0.2629 0.6156,0.3033 0.5978,0.281 0.6023,0.2576 0.5871,0.2571 0.5794,0.247Z" fill="#e8efe2"/><path d="M0.8646,0.2187 0.881,0.2719 0.8763,0.2822 0.8667,0.2742 0.8687,0.2979 0.8234,0.4468 0.7891,0.4619 0.7686,0.4509 0.755,0.4009 0.7749,0.3549 0.7676,0.3083 0.7756,0.2873 0.8098,0.2815 0.8264,0.2607 0.8371,0.2589 0.836,0.242 0.8517,0.2337 0.8517,0.2188 0.8589,0.2124 0.8646,0.2187Z" fill="#e8efe2"/><path d="M0.5917,0.0175 0.5924,-0.003 0.6105,-0.03 0.5931,-0.0737 0.6156,-0.096 0.6287,-0.0781 0.6648,-0.0637 0.6901,-0.0606 0.7116,-0.0746 0.7309,-0.0695 0.7149,-0.0491 0.7152,0.0152 0.7248,0.0297 0.702,0.047 0.6873,0.0809 0.659,0.0636 0.6569,0.0533 0.5917,0.0175Z" fill="#e8efe2"/><path d="M0.1655,-0.8283 0.1604,-0.7947 0.1496,-0.8176 0.1655,-0.8283Z M0.133,-0.9468 0.1216,-0.9432 0.1042,-0.9116 0.1183,-0.9166 0.1248,-0.8908 0.1157,-0.8831 0.1204,-0.8652 0.1339,-0.8598 0.1307,-0.8513 0.1068,-0.8345 0.0682,-0.8463 0.0532,-0.8309 0.056,-0.8193 0.0354,-0.8174 -0.0255,-0.834 -0.0312,-0.8427 -0.0188,-0.8945 -0.0096,-0.8814 -0.0201,-0.9141 -0.036,-0.9268 -0.0384,-0.9357 -0.0304,-0.9373 -0.0752,-0.9528 -0.0817,-0.9585 -0.074,-0.9653 -0.0831,-0.9693 -0.0241,-0.9745 -0.0325,-1.002 0.0073,-0.9958 0.0033,-1.0026 0.0278,-1.0175 0.0291,-1.0351 0.044,-1.0409 0.0724,-1.0099 0.0848,-1.0145 0.0962,-0.9974 0.1419,-0.983 0.133,-0.9468Z M-0.9533,-0.0407 -0.9427,-0.0603 -0.9509,-0.0846 -0.9411,-0.1009 -0.9233,-0.0949 -0.9076,-0.076 -0.9046,-0.0811 -0.9015,-0.0709 -0.9198,-0.0412 -0.9533,-0.0407Z" fill="#e8efe2"/><path d="M3.1416,0.286 3.1339,0.2946 3.1404,0.2964 3.1154,0.2973 3.1416,0.286Z M3.1116,0.3079 3.1184,0.3209 3.0948,0.3209 3.098,0.311 3.1116,0.3079Z" fill="#e8efe2"/><path d="M0.6156,-0.096 0.6058,-0.1165 0.5761,-0.1392 0.595,-0.1503 0.5983,-0.1848 0.6306,-0.2246 0.6374,-0.2515 0.6554,-0.2493 0.6611,-0.2621 0.7124,-0.2488 0.7397,-0.2194 0.7295,-0.1928 0.7491,-0.1932 0.7477,-0.179 0.7676,-0.1579 0.8374,-0.1401 0.7844,-0.0858 0.7599,-0.0846 0.7309,-0.0695 0.7116,-0.0746 0.6892,-0.0604 0.6287,-0.0781 0.6156,-0.096Z" fill="#e8efe2"/><path d="M0.5367,0.1434 0.5044,0.1487 0.4957,0.1616 0.4971,0.2076 0.5072,0.2172 0.5201,0.2138 0.5198,0.2368 0.5081,0.236 0.474,0.2035 0.4543,0.209 0.4414,0.1969 0.4255,0.2006 0.4184,0.1909 0.3889,0.1966 0.3801,0.1279 0.347,0.1223 0.3375,0.1396 0.3068,0.1418 0.2868,0.1032 0.2131,0.1007 0.2285,0.0804 0.234,0.0846 0.2506,0.0751 0.2567,0.0853 0.2791,0.0658 0.2831,0.0381 0.3098,0.0096 0.3245,-0.076 0.3328,-0.0855 0.3437,-0.0895 0.3588,-0.0779 0.3913,-0.0721 0.399,-0.0825 0.4732,-0.0909 0.492,-0.076 0.518,-0.0802 0.5393,-0.0604 0.5363,-0.0429 0.5458,-0.0375 0.5226,-0.0143 0.5163,0.0243 0.5037,0.0428 0.5156,0.1104 0.5367,0.1434Z" fill="#e8efe2"/><path d="M0.4185,-0.3471 0.4184,-0.2777 0.4002,-0.2744 0.381,-0.2251 0.3901,-0.2228 0.399,-0.1918 0.38,-0.1868 0.355,-0.16 0.3309,-0.1567 0.3245,-0.1411 0.2702,-0.1316 0.244,-0.1699 0.2731,-0.1756 0.2592,-0.2199 0.2347,-0.2537 0.27,-0.2995 0.2786,-0.3629 0.2649,-0.3848 0.2615,-0.4127 0.2789,-0.4212 0.4185,-0.3471Z" fill="#e8efe2"/><path d="M0.4215,-0.1519 0.4782,-0.0893 0.4456,-0.0928 0.399,-0.0825 0.3913,-0.0721 0.3403,-0.0897 0.3245,-0.076 0.3248,-0.0608 0.2909,-0.0618 0.2824,-0.0396 0.2571,-0.0804 0.252,-0.1065 0.2702,-0.1316 0.3245,-0.1411 0.3297,-0.1558 0.3601,-0.163 0.3847,-0.19 0.399,-0.1918 0.4128,-0.1722 0.4109,-0.1545 0.4215,-0.1519Z" fill="#e8efe2"/><path d="M0.5332,0.0419 0.5374,0.0571 0.5131,0.0777 0.5072,0.0454 0.5332,0.0419Z" fill="#e8efe2"/><path d="M0.2281,0.0809 0.2131,0.1007 0.2098,0.0874 0.2281,0.0809Z M0.4184,0.1909 0.4182,0.2287 0.3836,0.2289 0.3847,0.2877 0.4081,0.3129 0.3622,0.3198 0.3211,0.3085 0.2447,0.3086 0.23,0.3006 0.2049,0.3057 0.219,0.2368 0.2374,0.2162 0.2417,0.1941 0.2269,0.1586 0.2335,0.1466 0.2147,0.1065 0.2868,0.1032 0.3068,0.1418 0.3375,0.1396 0.347,0.1223 0.3801,0.1279 0.388,0.1953 0.4184,0.1909Z" fill="#e8efe2"/><circle cx="0.652" cy="0.054" r="0.010" fill="#e8453c" stroke="#fff" stroke-width="0.0013"/></g></svg>