<svg xmlns="http://www.w3.org/2000/svg" viewBox="-0.102 -0.269 0.524 0.387" preserveAspectRatio="xMidYMid meet"><rect x="-0.102" y="-0.269" width="0.524" height="0.387" fill="#a9d2ea"/><g stroke="#7e96a9" stroke-width="0.0013" stroke-linejoin="round"><path d="M0.0157,-0.193 0.0133,-0.1823 0.0279,-0.1586 0.0311,-0.11 0.0208,-0.1065 0.0093,-0.1198 0.0093,-0.1648 -0.0016,-0.1873 -0.0012,-0.1953 0.0157,-0.193Z" fill="#e8efe2"/><path d="M0.5931,-0.0737 0.5845,-0.0657 0.5383,-0.0609 0.5157,-0.0811 0.4901,-0.0772 0.4601,-0.1162 0.4225,-0.1466 0.4367,-0.1797 0.4513,-0.1827 0.4634,-0.1671 0.4896,-0.1636 0.5034,-0.1636 0.5236,-0.1804 0.5437,-0.1714 0.566,-0.1951 0.5597,-0.2112 0.5794,-0.2149 0.5782,-0.1887 0.5918,-0.1786 0.5952,-0.1521 0.576,-0.1383 0.6058,-0.1165 0.6156,-0.096 0.5931,-0.0737Z" fill="#e8efe2"/><path d="M0.5948,-0.1659 0.5782,-0.1887 0.5794,-0.2149 0.5711,-0.2149 0.5597,-0.2112 0.566,-0.1951 0.5437,-0.1714 0.5236,-0.1804 0.5034,-0.1636 0.4653,-0.1662 0.4503,-0.1829 0.4367,-0.1797 0.4281,-0.1558 0.4109,-0.1545 0.4128,-0.1722 0.3901,-0.2228 0.381,-0.2251 0.4002,-0.2744 0.4184,-0.2777 0.4185,-0.3564 0.436,-0.3564 0.436,-0.3938 0.6435,-0.3938 0.654,-0.3345 0.6739,-0.3196 0.6459,-0.3023 0.6306,-0.2246 0.6128,-0.2078 0.6096,-0.1907 0.5993,-0.1871 0.5948,-0.1659Z" fill="#e8efe2"/><path d="M0.2375,-0.2414 0.2545,-0.2026 0.2391,-0.1909 0.199,-0.1142 0.177,-0.1225 0.1447,-0.0797 0.1236,-0.0825 0.1208,-0.0767 0.1182,-0.0825 0.1197,-0.0763 0.1077,-0.0748 0.0976,-0.0812 0.0953,-0.0981 0.0773,-0.1111 0.0473,-0.1114 0.0483,-0.1586 0.066,-0.1832 0.0637,-0.2205 0.0771,-0.2405 0.0958,-0.2445 0.1211,-0.229 0.1367,-0.235 0.1679,-0.2255 0.1829,-0.2348 0.2175,-0.2305 0.2375,-0.2414Z" fill="#e8efe2"/><path d="M0.2375,-0.2414 0.2175,-0.2305 0.1829,-0.2348 0.1679,-0.2255 0.0813,-0.242 0.0637,-0.2205 0.0628,-0.2056 0.0503,-0.2176 0.0417,-0.2092 0.0367,-0.2235 0.0176,-0.2292 0.0209,-0.2353 0.0028,-0.2558 0.004,-0.2641 0.0227,-0.2697 0.0611,-0.2714 0.073,-0.2935 0.0738,-0.3404 0.1019,-0.3467 0.2089,-0.4225 0.2478,-0.4055 0.2615,-0.4127 0.2649,-0.3848 0.2786,-0.3629 0.27,-0.2995 0.2347,-0.2537 0.2375,-0.2414Z" fill="#e8efe2"/><path d="M0.1045,-1.0312 0.0878,-1.0512 0.0602,-1.0532 0.0745,-1.0512 0.0689,-1.0608 0.0833,-1.0931 0.119,-1.1077 0.1257,-1.103 0.1168,-1.0813 0.1225,-1.0738 0.1038,-1.0605 0.1045,-1.0312Z" fill="#e8efe2"/><path d="M-0.2143,-0.2614 -0.2536,-0.295 -0.2834,-0.2926 -0.2887,-0.2801 -0.2801,-0.3235 -0.2882,-0.3445 -0.2829,-0.3607 -0.2946,-0.3767 -0.2976,-0.3715 -0.296,-0.3812 -0.2272,-0.3812 -0.2295,-0.4093 -0.2098,-0.4216 -0.2098,-0.4702 -0.1515,-0.4702 -0.1515,-0.4954 -0.0841,-0.4509 -0.115,-0.4507 -0.0962,-0.2739 -0.1632,-0.2771 -0.1911,-0.2676 -0.2007,-0.2764 -0.2143,-0.2614Z" fill="#e8efe2"/><path d="M-0.1988,-0.2181 -0.2143,-0.2614 -0.2007,-0.2764 -0.1911,-0.2676 -0.1632,-0.2771 -0.0962,-0.2739 -0.115,-0.4507 -0.0841,-0.4509 0.0305,-0.3625 0.0546,-0.3536 0.0545,-0.3397 0.0738,-0.3404 0.073,-0.2935 0.0611,-0.2714 -0.0117,-0.2661 -0.0452,-0.251 -0.0576,-0.2339 -0.0756,-0.231 -0.0773,-0.2171 -0.0923,-0.208 -0.0963,-0.1831 -0.1052,-0.1788 -0.1093,-0.1882 -0.1225,-0.1779 -0.1395,-0.1783 -0.1592,-0.219 -0.1864,-0.2092 -0.1988,-0.2181Z" fill="#e8efe2"/><path d="M-0.0012,-0.1953 0.012,-0.1463 0.0093,-0.1198 0.0208,-0.1065 -0.0349,-0.0832 -0.0543,-0.089 -0.048,-0.0949 -0.0565,-0.1191 -0.0438,-0.1438 -0.0494,-0.1932 -0.0012,-0.1953Z" fill="#e8efe2"/><path d="M0.232,-0.0377 0.2302,-0.0223 0.2475,-0.0239 0.2519,-0.0157 0.2419,0.0035 0.2525,0.0099 0.251,0.033 0.2442,0.0435 0.2204,0.0319 0.2173,0.0407 0.2026,0.0409 0.2073,0.0641 0.1943,0.0685 0.1679,0.0414 0.1518,0.0103 0.1623,0.0061 0.1632,-0.0059 0.1745,-0.0033 0.1627,-0.0096 0.1674,-0.018 0.1979,-0.0175 0.1981,-0.0402 0.232,-0.0377Z" fill="#e8efe2"/><path d="M0.1655,-0.8283 0.1604,-0.7947 0.1496,-0.8176 0.1655,-0.8283Z M0.133,-0.9468 0.1216,-0.9432 0.1042,-0.9116 0.1183,-0.9166 0.1248,-0.8908 0.1157,-0.8831 0.1204,-0.8652 0.1339,-0.8598 0.1307,-0.8513 0.1068,-0.8345 0.0682,-0.8463 0.0532,-0.8309 0.056,-0.8193 0.0354,-0.8174 -0.0255,-0.834 -0.0312,-0.8427 -0.0188,-0.8945 -0.0096,-0.8814 -0.0201,-0.9141 -0.036,-0.9268 -0.0384,-0.9357 -0.0304,-0.9373 -0.0752,-0.9528 -0.0817,-0.9585 -0.074,-0.9653 -0.0831,-0.9693 -0.0241,-0.9745 -0.0325,-1.002 0.0073,-0.9958 0.0033,-1.0026 0.0278,-1.0175 0.0291,-1.0351 0.044,-1.0409 0.0724,-1.0099 0.0848,-1.0145 0.0962,-0.9974 0.1419,-0.983 0.133,-0.9468Z M-0.9533,-0.0407 -0.9427,-0.0603 -0.9509,-0.0846 -0.9411,-0.1009 -0.9233,-0.0949 -0.9076,-0.076 -0.9046,-0.0811 -0.9015,-0.0709 -0.9198,-0.0412 -0.9533,-0.0407Z" fill="#e8efe2"/><path d="M0.1977,-0.0379 0.1979,-0.0175 0.1639,-0.0199 0.171,-0.0402 0.1977,-0.0379Z" fill="#e8efe2"/><path d="M-0.1395,-0.1783 -0.1225,-0.1779 -0.1091,-0.1882 -0.1068,-0.179 -0.097,-0.1832 -0.0808,-0.1703 -0.0562,-0.1737 -0.0471,-0.1662 -0.0438,-0.1438 -0.0565,-0.1191 -0.0492,-0.09 -0.0922,-0.0911 -0.1316,-0.076 -0.13,-0.1021 -0.1501,-0.1139 -0.1438,-0.1482 -0.134,-0.1473 -0.1395,-0.1783Z" fill="#e8efe2"/><path d="M0.5367,0.1434 0.5044,0.1487 0.4957,0.1616 0.4971,0.2076 0.5072,0.2172 0.5201,0.2138 0.5198,0.2368 0.5081,0.236 0.474,0.2035 0.4543,0.209 0.4414,0.1969 0.4255,0.2006 0.4184,0.1909 0.3889,0.1966 0.3801,0.1279 0.347,0.1223 0.3375,0.1396 0.3068,0.1418 0.2868,0.1032 0.2131,0.1007 0.2285,0.0804 0.234,0.0846 0.2506,0.0751 0.2567,0.0853 0.2791,0.0658 0.2831,0.0381 0.3098,0.0096 0.3245,-0.076 0.3328,-0.0855 0.3437,-0.0895 0.3588,-0.0779 0.3913,-0.0721 0.399,-0.0825 0.4732,-0.0909 0.492,-0.076 0.518,-0.0802 0.5393,-0.0604 0.5363,-0.0429 0.5458,-0.0375 0.5226,-0.0143 0.5163,0.0243 0.5037,0.0428 0.5156,0.1104 0.5367,0.1434Z" fill="#e8efe2"/><path d="M0.1943,0.0685 0.2073,0.0641 0.2026,0.0409 0.2173,0.0407 0.2204,0.0319 0.2442,0.0435 0.251,0.033 0.2525,0.0099 0.2419,0.0035 0.2519,-0.0157 0.2475,-0.0239 0.2302,-0.0223 0.232,-0.0377 0.2803,-0.0293 0.2899,-0.0613 0.3229,-0.0629 0.3098,0.0096 0.2831,0.0381 0.277,0.0686 0.2567,0.0853 0.2499,0.0751 0.234,0.0846 0.2234,0.0774 0.2098,0.0874 0.1943,0.0685Z" fill="#e8efe2"/><path d="M0.4185,-0.3471 0.4184,-0.2777 0.4002,-0.2744 0.381,-0.2251 0.3901,-0.2228 0.399,-0.1918 0.38,-0.1868 0.355,-0.16 0.3309,-0.1567 0.3245,-0.1411 0.2702,-0.1316 0.244,-0.1699 0.2731,-0.1756 0.2592,-0.2199 0.2347,-0.2537 0.27,-0.2995 0.2786,-0.3629 0.2649,-0.3848 0.2615,-0.4127 0.2789,-0.4212 0.4185,-0.3471Z" fill="#e8efe2"/><path d="M0.4215,-0.1519 0.4782,-0.0893 0.4456,-0.0928 0.399,-0.0825 0.3913,-0.0721 0.3403,-0.0897 0.3245,-0.076 0.3248,-0.0608 0.2909,-0.0618 0.2824,-0.0396 0.2571,-0.0804 0.252,-0.1065 0.2702,-0.1316 0.3245,-0.1411 0.3297,-0.1558 0.3601,-0.163 0.3847,-0.19 0.399,-0.1918 0.4128,-0.1722 0.4109,-0.1545 0.4215,-0.1519Z" fill="#e8efe2"/><path d="M0.1494,-0.0832 0.1581,-0.1051 0.177,-0.1225 0.1946,-0.1126 0.2012,-0.1165 0.2391,-0.1909 0.2545,-0.2026 0.2454,-0.2303 0.2534,-0.2285 0.2731,-0.1756 0.244,-0.1699 0.2716,-0.1355 0.2519,-0.1056 0.2628,-0.069 0.2803,-0.0508 0.2817,-0.03 0.2545,-0.0384 0.1723,-0.0386 0.1691,-0.0709 0.1571,-0.0714 0.1494,-0.0832Z" fill="#e8efe2"/><path d="M0.0157,-0.193 -0.0494,-0.1932 -0.0483,-0.1652 -0.0562,-0.1737 -0.0808,-0.1703 -0.0963,-0.1831 -0.0923,-0.208 -0.0773,-0.2171 -0.0724,-0.2344 -0.0576,-0.2339 -0.0452,-0.251 -0.0117,-0.2661 0.0038,-0.2632 0.0075,-0.2463 0.0209,-0.2353 0.0173,-0.2296 0.0386,-0.2206 0.04,-0.2055 0.0157,-0.193Z" fill="#e8efe2"/><path d="M0.0283,-0.1088 0.0279,-0.1586 0.0138,-0.188 0.0503,-0.2176 0.0628,-0.2056 0.0668,-0.1862 0.0483,-0.1586 0.0473,-0.1114 0.0283,-0.1088Z" fill="#e8efe2"/><path d="M0.2281,0.0809 0.2131,0.1007 0.2098,0.0874 0.2281,0.0809Z M0.4184,0.1909 0.4182,0.2287 0.3836,0.2289 0.3847,0.2877 0.4081,0.3129 0.3622,0.3198 0.3211,0.3085 0.2447,0.3086 0.23,0.3006 0.2049,0.3057 0.219,0.2368 0.2374,0.2162 0.2417,0.1941 0.2269,0.1586 0.2335,0.1466 0.2147,0.1065 0.2868,0.1032 0.3068,0.1418 0.3375,0.1396 0.347,0.1223 0.3801,0.1279 0.388,0.1953 0.4184,0.1909Z" fill="#e8efe2"/><circle cx="0.160" cy="-0.073" r="0.010" fill="#e8453c" stroke="#fff" stroke-width="0.0013"/></g></svg>