<svg xmlns="http://www.w3.org/2000/svg" viewBox="0.511 -1.030 0.524 0.507" preserveAspectRatio="xMidYMid meet"><rect x="0.511" y="-1.030" width="0.524" height="0.507" fill="#a9d2ea"/><g stroke="#7e96a9" stroke-width="0.0013" stroke-linejoin="round"><path d="M1.2383,-0.8151 1.2252,-0.7977 1.246,-0.7886 1.2507,-0.7984 1.2765,-0.7815 1.2512,-0.7663 1.2322,-0.7677 1.2287,-0.7868 1.2114,-0.7812 1.1957,-0.7529 1.1769,-0.7509 1.1929,-0.7226 1.1826,-0.6997 1.161,-0.7037 1.1626,-0.7178 1.1128,-0.7439 1.0905,-0.7625 1.0804,-0.7879 1.0488,-0.7951 1.047,-0.8141 1.0226,-0.8276 1.0149,-0.824 1.0203,-0.816 1.0128,-0.8207 0.9941,-0.8059 0.9952,-0.7919 0.977,-0.7933 0.977,-0.8811 1.0221,-0.8953 1.0819,-0.8446 1.1329,-0.8499 1.1537,-0.8326 1.1521,-0.8092 1.1606,-0.8089 1.1643,-0.79 1.1858,-0.7905 1.1942,-0.7771 1.2383,-0.8151Z" fill="#e8efe2"/><path d="M-2.9925,-1.4517 -2.9447,-1.4388 -2.9615,-1.4253 -2.9983,-1.4431 -2.9925,-1.4517Z M-2.8997,-1.3303 -2.8901,-1.3138 -2.9224,-1.3243 -2.8997,-1.3303Z M-2.6686,-1.2432 -2.6567,-1.2354 -2.6873,-1.2093 -2.7002,-1.2276 -2.6686,-1.2432Z M-2.2695,-1.1816 -2.2791,-1.1473 -2.2873,-1.1591 -2.2869,-1.1879 -2.3059,-1.1717 -2.296,-1.1916 -2.3295,-1.2221 -2.3326,-1.2374 -2.3234,-1.2351 -2.3307,-1.2436 -2.3246,-1.2452 -2.3393,-1.2515 -2.3366,-1.2664 -2.3524,-1.2641 -2.3625,-1.2969 -2.3578,-1.2574 -2.3719,-1.2624 -2.3763,-1.2843 -2.3909,-1.2836 -2.3747,-1.2641 -2.3843,-1.2571 -2.44,-1.3014 -2.4258,-1.3114 -2.4335,-1.3173 -2.4508,-1.3069 -2.4681,-1.3212 -2.5159,-1.3177 -2.529,-1.3289 -2.5253,-1.3406 -2.5351,-1.3303 -2.5581,-1.3427 -2.5548,-1.3575 -2.589,-1.3546 -2.5943,-1.3342 -2.5824,-1.3338 -2.5913,-1.3159 -2.6075,-1.3208 -2.6347,-1.2907 -2.652,-1.2918 -2.6363,-1.309 -2.6503,-1.3093 -2.6417,-1.3424 -2.6019,-1.3481 -2.6189,-1.3585 -2.608,-1.3705 -2.6709,-1.3275 -2.6639,-1.3184 -2.6909,-1.288 -2.678,-1.2741 -2.7663,-1.1869 -2.8191,-1.1732 -2.8508,-1.1494 -2.8222,-1.1822 -2.7976,-1.1791 -2.7978,-1.1948 -2.7482,-1.2331 -2.7508,-1.2508 -2.7435,-1.2554 -2.7492,-1.2631 -2.7369,-1.287 -2.7609,-1.2694 -2.766,-1.2805 -2.759,-1.2819 -2.7718,-1.2816 -2.7742,-1.2624 -2.7988,-1.2843 -2.8299,-1.2704 -2.8212,-1.2863 -2.8348,-1.3268 -2.8267,-1.3417 -2.8374,-1.3166 -2.8608,-1.3103 -2.8859,-1.336 -2.8552,-1.3488 -2.8817,-1.3499 -2.8775,-1.3564 -2.9002,-1.376 -2.876,-1.407 -2.8695,-1.4353 -2.8499,-1.4287 -2.8088,-1.4525 -2.8185,-1.4832 -2.8081,-1.4982 -2.8416,-1.4807 -2.8997,-1.4892 -2.9135,-1.5131 -2.9,-1.5185 -2.9337,-1.5341 -2.8704,-1.5742 -2.8561,-1.5733 -2.8629,-1.558 -2.8571,-1.552 -2.8105,-1.5567 -2.8337,-1.5901 -2.7965,-1.5667 -2.911,-1.6548 -2.9009,-1.6802 -2.8543,-1.6939 -2.8253,-1.7524 -2.7934,-1.766 -2.7903,-1.7498 -2.7819,-1.7623 -2.7939,-1.7681 -2.7869,-1.7765 -2.7309,-1.8099 -2.7154,-1.7942 -2.7222,-1.7792 -2.7082,-1.7931 -2.6581,-1.7797 -2.6519,-1.7586 -2.4997,-1.7416 -2.4609,-1.7177 -2.4609,-1.3275 -2.4274,-1.3289 -2.3988,-1.2792 -2.3646,-1.3097 -2.3283,-1.2627 -2.3007,-1.2036 -2.2695,-1.1816Z M-2.8533,-1.1536 -2.8463,-1.1442 -2.878,-1.1403 -2.8533,-1.1536Z M-2.3277,-1.2167 -2.3204,-1.2128 -2.325,-1.1995 -2.3384,-1.217 -2.3277,-1.2167Z M-2.3557,-1.2279 -2.3506,-1.1919 -2.364,-1.2247 -2.3703,-1.217 -2.3647,-1.2335 -2.3557,-1.2279Z M-2.3506,-1.2544 -2.3356,-1.237 -2.3442,-1.2501 -2.3372,-1.2279 -2.3478,-1.218 -2.3548,-1.2607 -2.3506,-1.2544Z M-2.3689,-1.2571 -2.3553,-1.2498 -2.3621,-1.2416 -2.355,-1.2322 -2.3721,-1.2312 -2.3836,-1.2482 -2.3689,-1.2571Z M-2.3312,-1.1957 -2.3068,-1.1689 -2.3148,-1.1686 -2.3035,-1.1606 -2.3042,-1.146 -2.3332,-1.1785 -2.3255,-1.1826 -2.3342,-1.1838 -2.3312,-1.1957Z M-2.6602,-1.2611 -2.6526,-1.2571 -2.677,-1.2521 -2.6602,-1.2611Z M-2.9315,-1.105 -2.9512,-1.0899 -2.9315,-1.105Z M-2.9081,-1.1212 -2.9013,-1.1221 -2.9288,-1.1041 -2.9081,-1.1212Z M-3.0487,-1.0673 -3.0596,-1.0667 -3.0372,-1.0756 -3.0487,-1.0673Z M-2.7154,-0.338 -2.7236,-0.3517 -2.7197,-0.3616 -2.7018,-0.3475 -2.7154,-0.338Z M-1.3039,-0.8814 -1.2369,-0.8881 -1.2085,-0.9435 -1.1835,-0.9337 -1.1833,-0.8995 -1.1692,-0.8772 -1.1961,-0.8632 -1.2001,-0.8708 -1.2249,-0.8513 -1.2401,-0.8169 -1.2209,-0.8017 -1.246,-0.8045 -1.2483,-0.7947 -1.2914,-0.7801 -1.291,-0.7917 -1.2929,-0.7581 -1.3053,-0.7403 -1.3181,-0.7513 -1.3102,-0.7625 -1.3193,-0.7547 -1.3097,-0.7275 -1.3252,-0.6993 -1.3205,-0.7169 -1.3324,-0.7338 -1.3242,-0.7518 -1.3364,-0.7464 -1.3324,-0.72 -1.3479,-0.7271 -1.3444,-0.7378 -1.3484,-0.7313 -1.331,-0.7156 -1.3458,-0.7218 -1.3313,-0.6971 -1.3483,-0.7032 -1.3265,-0.694 -1.3182,-0.6704 -1.3256,-0.6886 -1.3233,-0.6767 -1.3392,-0.6792 -1.3219,-0.6693 -1.3294,-0.6603 -1.3446,-0.6642 -1.3341,-0.6494 -1.3511,-0.6471 -1.3601,-0.6304 -1.4102,-0.5993 -1.4217,-0.5722 -1.3971,-0.486 -1.4046,-0.4553 -1.4156,-0.4536 -1.4263,-0.4698 -1.4436,-0.4995 -1.4383,-0.5066 -1.4458,-0.5064 -1.4425,-0.5271 -1.4607,-0.5479 -1.4891,-0.5429 -1.494,-0.5552 -1.5219,-0.5562 -1.5184,-0.5608 -1.5361,-0.5539 -1.5361,-0.5633 -1.5766,-0.555 -1.5603,-0.5503 -1.5659,-0.5417 -1.5537,-0.5332 -1.56,-0.5289 -1.5736,-0.5401 -1.5745,-0.5312 -1.5882,-0.533 -1.6038,-0.5461 -1.6102,-0.5405 -1.6378,-0.5489 -1.6539,-0.5368 -1.6584,-0.5433 -1.6628,-0.5285 -1.6867,-0.5235 -1.6828,-0.5185 -1.6958,-0.5122 -1.7006,-0.4962 -1.7064,-0.4987 -1.6996,-0.4677 -1.7298,-0.479 -1.7368,-0.5005 -1.7705,-0.5449 -1.7909,-0.5443 -1.8022,-0.5293 -1.8221,-0.5407 -1.8322,-0.5624 -1.8579,-0.5853 -1.938,-0.5761 -2.0022,-0.6049 -2.0443,-0.601 -2.0684,-0.6321 -2.1056,-0.6439 -2.138,-0.7078 -2.1305,-0.7065 -2.1347,-0.7182 -2.1211,-0.7193 -2.1468,-0.7178 -2.1705,-0.7714 -2.1654,-0.7965 -2.1736,-0.8283 -2.164,-0.9118 -2.1506,-0.91 -2.1654,-0.9133 -2.1614,-0.9306 -2.1766,-0.9674 -2.1429,-0.9611 -2.1492,-0.9409 -2.1386,-0.9554 -2.1473,-0.9352 -2.1415,-0.9344 -2.1335,-0.9577 -2.1431,-0.9835 -1.6609,-0.9835 -1.657,-0.9932 -1.6514,-0.9769 -1.5973,-0.959 -1.5425,-0.9653 -1.4683,-0.9197 -1.4408,-0.89 -1.4336,-0.8465 -1.4512,-0.8125 -1.4432,-0.8017 -1.3795,-0.8281 -1.3762,-0.8467 -1.3408,-0.848 -1.3039,-0.8814Z M-1.2655,-0.7856 -1.2549,-0.7873 -1.2921,-0.7776 -1.2655,-0.7856Z M-1.6959,-0.4733 -1.6998,-0.4936 -1.6959,-0.4733Z" fill="#e8efe2"/><path d="M0.6669,-0.9339 0.611,-0.909 0.6149,-0.9174 0.61,-0.8995 0.5555,-0.9133 0.5507,-0.9202 0.5686,-0.9219 0.5543,-0.937 0.5562,-0.9227 0.5376,-0.9202 0.5171,-0.8993 0.5185,-0.8878 0.502,-0.8871 0.4924,-0.8925 0.5054,-0.9179 0.5259,-0.9169 0.5084,-0.9564 0.4808,-0.97 0.4344,-0.9502 0.3993,-0.9562 0.3864,-0.9724 0.3986,-0.9849 0.3964,-1.0001 0.4204,-1.0252 0.4121,-1.0552 0.4252,-1.0625 0.533,-1.0456 0.5407,-1.0676 0.5889,-1.0758 0.6004,-1.0599 0.5971,-1.0454 0.6163,-1.0392 0.6212,-1.0208 0.6531,-1.0219 0.6995,-0.9993 0.6943,-0.9546 0.6775,-0.9533 0.6669,-0.9339Z" fill="#e8efe2"/><path d="M0.977,-0.7933 0.9952,-0.7919 0.9941,-0.8059 1.0128,-0.8207 1.0203,-0.816 1.0149,-0.824 1.0226,-0.8276 1.047,-0.8141 1.0488,-0.7951 1.0804,-0.7879 1.0905,-0.7625 1.1128,-0.7439 1.1626,-0.7178 1.161,-0.7037 1.1479,-0.7085 1.1313,-0.6988 1.1259,-0.6816 1.0875,-0.6565 1.0692,-0.6661 1.0667,-0.6881 0.9982,-0.7229 0.9666,-0.7191 0.9409,-0.7034 0.9402,-0.7392 0.9278,-0.7461 0.9336,-0.7609 0.9257,-0.7577 0.9203,-0.772 0.924,-0.7868 0.9402,-0.7778 0.955,-0.7861 0.939,-0.812 0.9245,-0.8087 0.9224,-0.7905 0.9161,-0.804 0.9446,-0.8172 0.977,-0.7933Z" fill="#e8efe2"/><path d="M0.7245,-0.7979 0.7468,-0.7989 0.7615,-0.7842 0.7622,-0.7659 0.7823,-0.755 0.7683,-0.7488 0.7814,-0.6991 0.7465,-0.7041 0.687,-0.689 0.6398,-0.6916 0.6309,-0.6706 0.6292,-0.694 0.5723,-0.6751 0.5348,-0.6931 0.5315,-0.6801 0.5182,-0.6777 0.5056,-0.6899 0.4791,-0.6897 0.4929,-0.6966 0.4758,-0.6956 0.4753,-0.7175 0.4588,-0.7242 0.4615,-0.7322 0.4737,-0.728 0.4671,-0.7338 0.4695,-0.7527 0.4557,-0.7509 0.4569,-0.7627 0.5208,-0.7799 0.5088,-0.791 0.5454,-0.7884 0.5808,-0.8092 0.611,-0.8106 0.6699,-0.784 0.7028,-0.7849 0.7245,-0.7979Z M0.4889,-0.8085 0.5054,-0.7861 0.48,-0.7852 0.4573,-0.7647 0.4676,-0.7773 0.4545,-0.7796 0.4646,-0.7951 0.4595,-0.8038 0.4889,-0.8085Z" fill="#e8efe2"/><path d="M0.6264,-0.6726 0.6395,-0.6792 0.6398,-0.6916 0.7393,-0.6984 0.7208,-0.6825 0.7154,-0.6407 0.6426,-0.5966 0.6247,-0.6051 0.6278,-0.626 0.6384,-0.6363 0.628,-0.645 0.6264,-0.6726Z" fill="#e8efe2"/><path d="M0.9072,-0.3379 0.8559,-0.3301 0.8227,-0.3002 0.7578,-0.3107 0.747,-0.2897 0.7114,-0.3519 0.6856,-0.3745 0.6713,-0.4262 0.6552,-0.4372 0.614,-0.51 0.6042,-0.5106 0.61,-0.5362 0.6295,-0.5332 0.6543,-0.5495 0.6629,-0.5594 0.6451,-0.5796 0.6833,-0.5925 0.7343,-0.5712 0.78,-0.5332 0.8454,-0.5201 0.8753,-0.4831 0.8741,-0.4694 0.8877,-0.4447 0.8973,-0.4426 0.9173,-0.4113 0.9632,-0.407 0.9711,-0.3938 0.9596,-0.3564 0.9072,-0.3379Z" fill="#e8efe2"/><path d="M-3.1381,-1.6827 -3.0604,-1.6231 -3.0517,-1.6081 -3.0529,-1.5755 -3.0381,-1.5585 -3.0329,-1.5672 -3.0465,-1.5964 -2.9985,-1.5892 -2.9623,-1.5511 -2.9924,-1.5396 -2.9875,-1.5273 -3.0156,-1.5349 -3.0056,-1.5085 -3.0206,-1.5003 -3.0086,-1.4832 -3.0222,-1.4771 -3.0613,-1.4982 -3.0734,-1.526 -3.1138,-1.5273 -3.1231,-1.5498 -3.1159,-1.5658 -3.136,-1.5563 -3.1302,-1.5281 -3.1416,-1.5093 -3.1381,-1.6827Z M2.281,-0.8162 2.2763,-0.8264 2.2909,-0.8419 2.286,-0.8774 2.3012,-0.8895 2.3232,-0.8846 2.3518,-0.9502 2.3504,-0.964 2.2864,-0.9494 2.2785,-0.9801 2.2262,-1.0053 2.2,-1.0873 2.1574,-1.1109 2.096,-1.0888 2.1059,-1.0824 2.1063,-1.0653 2.0815,-1.0126 2.0572,-0.9974 1.9949,-1.018 1.9323,-0.9875 1.8956,-0.9923 1.8624,-1.0191 1.8029,-1.0161 1.7862,-1.0254 1.7822,-1.0479 1.726,-1.0696 1.709,-1.0459 1.7148,-1.0189 1.6993,-1.0036 1.6513,-1.0112 1.645,-1.026 1.6118,-1.0342 1.5258,-0.9859 1.5129,-1.0047 1.4875,-1.0004 1.4587,-1.0365 1.4219,-1.0309 1.4092,-1.0462 1.3961,-1.0318 1.3589,-1.1027 1.3348,-1.1248 1.3411,-1.1373 1.2805,-1.108 1.2865,-1.1254 1.2408,-1.1304 1.2346,-1.1637 1.2039,-1.1662 1.136,-1.1343 1.0687,-1.1248 1.0643,-1.1129 1.0739,-1.1094 1.0681,-1.1033 1.0835,-1.0951 1.0655,-1.094 1.0636,-1.0741 1.0477,-1.0642 1.0743,-1.047 1.0636,-1.0298 1.0388,-1.0241 0.995,-1.0401 0.972,-1.0265 0.9536,-1.0384 0.9516,-1.0254 0.931,-1.0515 0.8865,-1.0585 0.8488,-1.0274 0.851,-1.0088 0.8278,-1.0205 0.8144,-0.9682 0.8254,-0.9507 0.8407,-0.9499 0.8545,-0.9258 0.8472,-0.9217 0.8596,-0.9136 0.8283,-0.8983 0.8154,-0.8706 0.8283,-0.8463 0.8316,-0.854 0.8283,-0.8338 0.8477,-0.8054 0.8259,-0.7924 0.7969,-0.8214 0.6978,-0.8429 0.6397,-0.8846 0.6718,-0.9085 0.6592,-0.9224 0.6854,-0.9327 0.6667,-0.9398 0.6936,-0.9533 0.6995,-0.9993 0.6531,-1.0219 0.6212,-1.0208 0.6163,-1.0392 0.5971,-1.0454 0.6004,-1.0599 0.5903,-1.0753 0.5543,-1.069 0.5456,-1.0954 0.5709,-1.1071 0.5376,-1.1476 0.5395,-1.1717 0.4936,-1.1869 0.4824,-1.2119 0.4787,-1.2755 0.4913,-1.2952 0.4889,-1.3072 0.5266,-1.3156 0.4976,-1.3409 0.4852,-1.336 0.5505,-1.4237 0.5234,-1.4556 0.5328,-1.4691 0.5166,-1.5052 0.5252,-1.5396 0.5074,-1.5874 0.5234,-1.6227 0.5007,-1.6468 0.5021,-1.6778 0.4958,-1.6807 0.5582,-1.7329 0.5761,-1.7212 0.5601,-1.7167 0.5651,-1.7092 0.5838,-1.7067 0.5784,-1.689 0.6259,-1.6949 0.7151,-1.6245 0.7189,-1.5848 0.6746,-1.5516 0.5568,-1.5995 0.6055,-1.5464 0.6006,-1.5231 0.6116,-1.4836 0.6535,-1.4584 0.6643,-1.4695 0.6391,-1.4962 0.6437,-1.5135 0.6939,-1.4892 0.7058,-1.4974 0.695,-1.5315 0.7367,-1.5711 0.7697,-1.549 0.7754,-1.5896 0.7641,-1.6035 0.772,-1.645 0.7563,-1.6696 0.8009,-1.6605 0.8149,-1.631 0.7837,-1.6108 0.8114,-1.5834 0.8318,-1.5914 0.8355,-1.6185 0.8508,-1.6333 0.9146,-1.6544 0.939,-1.6856 0.951,-1.6851 0.9296,-1.6506 1.0308,-1.6861 1.0315,-1.6586 1.0425,-1.6544 1.0634,-1.6851 1.0502,-1.7147 1.0631,-1.7278 1.1203,-1.7117 1.1933,-1.6525 1.2067,-1.6831 1.1676,-1.7127 1.1743,-1.7739 1.1631,-1.792 1.1915,-1.8248 1.2111,-1.8984 1.2479,-1.8954 1.2708,-1.8824 1.2544,-1.8127 1.2689,-1.7856 1.2668,-1.6841 1.2844,-1.6605 1.2456,-1.5905 1.2486,-1.5781 1.2045,-1.583 1.2579,-1.5593 1.3034,-1.6236 1.2999,-1.6691 1.3111,-1.6788 1.3345,-1.6846 1.3481,-1.6601 1.3469,-1.6277 1.3774,-1.619 1.3542,-1.6264 1.3614,-1.6501 1.3552,-1.6807 1.2877,-1.6954 1.2842,-1.7253 1.2975,-1.7654 1.2757,-1.8116 1.3088,-1.8507 1.3066,-1.8913 1.3195,-1.876 1.3139,-1.811 1.3217,-1.8023 1.3792,-1.785 1.327,-1.8377 1.3647,-1.8377 1.3511,-1.849 1.3654,-1.8644 1.4505,-1.827 1.4368,-1.8017 1.434,-1.7665 1.4488,-1.7824 1.443,-1.7467 1.45,-1.74 1.4615,-1.7639 1.4512,-1.7931 1.4579,-1.8248 1.4107,-1.8708 1.4064,-1.9354 1.5165,-1.9553 1.4973,-1.9274 1.5129,-1.9074 1.4994,-1.9243 1.5284,-1.9503 1.501,-1.9827 1.5225,-1.9853 1.4973,-2.0043 1.5266,-2.0283 1.5186,-2.0391 1.6434,-2.0944 1.6207,-2.0959 1.6277,-2.1046 1.7219,-2.1148 1.7385,-2.0837 1.7424,-2.1075 1.7246,-2.1325 1.7733,-2.1296 1.7612,-2.1644 1.8153,-2.2304 1.8511,-2.2028 1.8186,-2.1799 1.875,-2.1667 1.8572,-2.1348 1.9392,-2.1506 1.9872,-2.0916 1.9808,-2.0661 1.9626,-2.0851 1.985,-2.0584 1.9708,-2.0289 1.835,-1.8877 1.935,-1.9453 1.9141,-1.9497 1.9244,-1.9635 1.9727,-1.9566 1.9808,-1.9219 1.9745,-1.8907 1.9837,-1.8789 1.9761,-1.8895 1.9878,-1.9219 1.9811,-1.9311 1.9907,-1.936 2.0673,-1.9366 2.0759,-1.9298 2.067,-1.9158 2.09,-1.8996 2.1387,-1.8936 2.1576,-1.9122 2.1541,-1.9397 2.1736,-1.9465 2.2532,-1.9074 2.2445,-1.8948 2.2558,-1.8836 2.2414,-1.8737 2.2564,-1.8679 2.2564,-1.8478 2.2293,-1.8661 2.2867,-1.7744 2.3152,-1.8388 2.3333,-1.811 2.3752,-1.8215 2.4075,-1.7947 2.4126,-1.8204 2.4431,-1.8143 2.4323,-1.8399 2.4468,-1.8535 2.4285,-1.8615 2.4623,-1.8766 2.4576,-1.8942 2.5525,-1.8679 2.5162,-1.8575 2.5215,-1.8524 2.5627,-1.8598 2.5501,-1.8393 2.544,-1.8558 2.534,-1.8259 2.5702,-1.8615 2.6093,-1.8518 2.6183,-1.8371 2.5991,-1.8265 2.6618,-1.7786 2.7698,-1.7845 2.791,-1.7618 2.7896,-1.7242 2.8084,-1.7157 2.8159,-1.6812 2.8075,-1.6634 2.8266,-1.7127 2.8615,-1.7222 2.9297,-1.7217 2.9603,-1.6754 2.9765,-1.6773 2.9845,-1.6919 2.9699,-1.7167 2.9756,-1.741 3.0704,-1.7303 3.1416,-1.6846 3.1416,-1.5093 3.1158,-1.4901 3.0871,-1.5098 3.0777,-1.5085 3.0931,-1.5007 3.0465,-1.4933 3.0728,-1.5023 3.1107,-1.4803 3.1149,-1.4489 3.1341,-1.418 3.1262,-1.4009 3.0896,-1.4184 3.017,-1.3695 2.9732,-1.3159 2.9536,-1.3381 2.9006,-1.3117 2.9034,-1.3338 2.8789,-1.3114 2.8578,-1.318 2.8267,-1.2518 2.8489,-1.2423 2.8407,-1.2244 2.8508,-1.1923 2.8421,-1.1872 2.8456,-1.2014 2.8391,-1.2004 2.8288,-1.1879 2.8225,-1.1695 2.8294,-1.1467 2.7937,-1.1298 2.7931,-1.0986 2.7658,-1.0957 2.7594,-1.0608 2.7358,-1.0373 2.715,-1.1603 2.7224,-1.2071 2.7375,-1.226 2.7372,-1.2419 2.7625,-1.2495 2.8287,-1.3335 2.8573,-1.3495 2.866,-1.3998 2.8868,-1.4074 2.8506,-1.4096 2.8465,-1.3731 2.7955,-1.3395 2.7992,-1.3535 2.7889,-1.351 2.7979,-1.3849 2.7416,-1.3772 2.6929,-1.311 2.6915,-1.2989 2.7081,-1.289 2.6412,-1.2785 2.6574,-1.29 2.6117,-1.309 2.5958,-1.2914 2.511,-1.2965 2.4789,-1.2826 2.3599,-1.1494 2.3876,-1.1427 2.3876,-1.1177 2.4028,-1.1325 2.397,-1.1272 2.4056,-1.1227 2.3955,-1.1109 2.4178,-1.123 2.4164,-1.1106 2.4201,-1.1331 2.4384,-1.1325 2.4674,-1.1033 2.4581,-1.0974 2.4695,-1.0713 2.4525,-1.0326 2.4454,-0.9685 2.3585,-0.8455 2.3241,-0.8257 2.3002,-0.8391 2.281,-0.8162Z M0.828,-2.5255 0.8496,-2.5016 0.7837,-2.4995 0.828,-2.5255Z M0.8776,-2.5343 0.9023,-2.5081 0.8446,-2.4463 0.814,-2.4669 0.8776,-2.5343Z M1.1828,-2.1148 1.0709,-2.0487 1.0215,-1.9944 0.9884,-1.9189 0.9477,-1.9219 0.9383,-1.9478 0.9798,-1.9944 0.9701,-2.0029 0.9861,-2.0249 0.976,-2.0391 1.0276,-2.0866 1.1786,-2.1729 1.2032,-2.1499 1.1828,-2.1148Z M0.9655,-1.9195 0.9849,-1.9128 0.9669,-1.8743 0.9652,-1.8393 1.0058,-1.7733 0.9376,-1.7776 0.9317,-1.7808 0.9453,-1.7947 0.8978,-1.8304 0.9184,-1.8598 0.9236,-1.8813 0.9172,-1.8871 0.9294,-1.9116 0.9655,-1.9195Z M1.6848,-2.5511 1.708,-2.5092 1.6949,-2.4995 1.6961,-2.4607 1.6383,-2.4373 1.5973,-2.4731 1.6244,-2.541 1.6848,-2.5511Z M1.7047,-2.4525 1.7108,-2.4383 1.7043,-2.4124 1.7445,-2.4213 1.7397,-2.3701 1.7286,-2.3673 1.7441,-2.3367 1.7027,-2.325 1.6244,-2.3872 1.6579,-2.4463 1.7047,-2.4525Z M1.7956,-2.3635 1.7874,-2.3259 1.8117,-2.3542 1.8385,-2.3036 1.7329,-2.2562 1.7731,-2.3729 1.7956,-2.3635Z M2.4443,-2.0851 2.4578,-2.071 2.4695,-2.1075 2.537,-2.064 2.5136,-2.0303 2.4927,-2.046 2.4948,-2.0766 2.4799,-2.0731 2.4981,-2.0256 2.4298,-2.0049 2.3904,-2.046 2.4122,-2.1053 2.4443,-2.0851Z M2.5621,-2.0528 2.6323,-2.0384 2.6014,-2.0122 2.5508,-2.0412 2.5621,-2.0528Z M3.1217,-1.7786 3.1186,-1.7936 3.1416,-1.8171 3.1416,-1.7872 3.1217,-1.7786Z M2.4916,-1.1358 2.5014,-1.0937 2.4991,-1.0645 2.5257,-0.9743 2.5128,-0.9913 2.4976,-0.9891 2.4881,-0.9507 2.5059,-0.9154 2.5033,-0.907 2.5007,-0.9204 2.4895,-0.9245 2.4798,-0.9043 2.482,-1.0442 2.4724,-1.0738 2.4752,-1.1047 2.4876,-1.108 2.4841,-1.1325 2.4916,-1.1358Z M-3.122,-1.8193 -3.098,-1.7996 -3.1416,-1.7872 -3.1416,-1.8171 -3.122,-1.8193Z M2.6032,-2.1461 2.5901,-2.1453 2.6032,-2.1461Z M1.8797,-2.2638 1.8574,-2.2646 1.8797,-2.2638Z M1.6848,-2.1177 1.6635,-2.1126 1.6848,-2.1177Z M1.6806,-2.1745 1.6628,-2.1737 1.6806,-2.1745Z M0.8973,-2.4302 0.8742,-2.4342 0.8973,-2.4302Z M1.0231,-2.5466 1.0285,-2.5233 0.9985,-2.5443 1.0231,-2.5466Z M0.8774,-1.6949 0.8536,-1.673 0.8426,-1.6875 0.8543,-1.7107 0.8774,-1.6949Z M1.106,-2.5092 1.0912,-2.5222 1.1271,-2.5647 1.1421,-2.5343 1.106,-2.5092Z M1.0116,-2.4484 0.995,-2.4846 1.0343,-2.471 1.0116,-2.4484Z M1.0851,-2.5233 1.0655,-2.4794 1.0348,-2.4952 1.0851,-2.5233Z M1.0671,-2.5365 1.0482,-2.5399 1.0746,-2.5477 1.0671,-2.5365Z M0.9341,-2.4555 0.9112,-2.4627 0.9399,-2.4638 0.9341,-2.4555Z M0.9962,-2.472 0.9725,-2.4463 0.9962,-2.472Z M1.009,-2.6054 1.0221,-2.5901 0.9681,-2.5773 1.009,-2.6054Z M0.955,-2.5556 1.0069,-2.5189 0.9437,-2.5211 0.955,-2.5556Z M1.1109,-2.6125 1.084,-2.621 1.1109,-2.6125Z M1.0175,-2.6258 1.0107,-2.6258 1.0369,-2.6392 1.0175,-2.6258Z M1.6176,-2.4056 1.5895,-2.4342 1.6371,-2.4262 1.6176,-2.4056Z M1.5982,-2.5578 1.5691,-2.5612 1.5982,-2.5578Z M2.4611,-1.9623 2.4452,-1.9737 2.4611,-1.9623Z M2.4815,-1.9559 2.5044,-1.9158 2.4381,-1.9268 2.4815,-1.9559Z M2.9531,-1.7142 2.9285,-1.7273 2.9569,-1.7283 2.9531,-1.7142Z M2.8561,-1.2691 2.8723,-1.29 2.8732,-1.2788 2.8561,-1.2691Z M2.6126,-0.8973 2.6276,-0.9116 2.6126,-0.8973Z M2.5936,-0.8893 2.5639,-0.8666 2.5817,-0.8908 2.5936,-0.8893Z M2.5518,-0.8691 2.5581,-0.8676 2.5384,-0.8506 2.5518,-0.8691Z M1.979,-1.9879 1.946,-1.9847 1.979,-1.9879Z M1.3308,-2.4017 1.3542,-2.3872 1.3308,-2.4017Z M1.3968,-2.5255 1.3785,-2.5255 1.4038,-2.5343 1.3968,-2.5255Z M1.2334,-1.9068 1.2203,-1.9056 1.2278,-1.9298 1.2502,-1.914 1.2334,-1.9068Z M1.3549,-1.8592 1.3416,-1.861 1.3678,-1.8702 1.3549,-1.8592Z M1.0551,-1.7318 1.0409,-1.7212 1.0205,-1.7493 1.0551,-1.7318Z M0.3658,-1.1628 0.3594,-1.1536 0.3939,-1.1561 0.3974,-1.1349 0.3421,-1.1379 0.3658,-1.1628Z M0.5863,-0.9088 0.6055,-0.9058 0.6189,-0.8893 0.6384,-0.891 0.5892,-0.8666 0.5857,-0.8838 0.5674,-0.8913 0.5863,-0.9088Z" fill="#e8efe2"/><path d="M0.4924,-0.8925 0.5185,-0.8878 0.5159,-0.8774 0.5042,-0.8794 0.499,-0.8506 0.4728,-0.861 0.4451,-0.8489 0.4,-0.8528 0.3965,-0.8718 0.3728,-0.8772 0.3751,-0.8851 0.3533,-0.909 0.3691,-0.9138 0.384,-0.9447 0.4039,-0.9598 0.436,-0.9502 0.4676,-0.9643 0.4899,-0.9311 0.4924,-0.8925Z" fill="#e8efe2"/><path d="M0.4646,-0.9643 0.4808,-0.97 0.5084,-0.9564 0.5259,-0.9169 0.5054,-0.9179 0.4924,-0.8925 0.4899,-0.9311 0.4646,-0.9643Z" fill="#e8efe2"/><path d="M0.628,-0.645 0.6377,-0.6344 0.6128,-0.6124 0.628,-0.645Z" fill="#e8efe2"/><path d="M0.8454,-0.5201 0.8121,-0.5312 0.8229,-0.5493 0.8334,-0.5509 0.8402,-0.5407 0.8329,-0.5371 0.8454,-0.5201Z" fill="#e8efe2"/><path d="M1.2383,-0.8151 1.1942,-0.7771 1.1858,-0.7905 1.1643,-0.79 1.1606,-0.8089 1.1521,-0.8092 1.1537,-0.8326 1.1329,-0.8499 1.0819,-0.8446 1.0221,-0.8953 0.977,-0.8811 0.977,-0.7933 0.9446,-0.8172 0.9161,-0.804 0.918,-0.8271 0.8954,-0.8369 0.877,-0.8681 0.8995,-0.8698 0.8905,-0.8777 0.8974,-0.8903 0.9285,-0.8895 0.921,-0.8955 0.9262,-0.9281 0.8933,-0.9344 0.8592,-0.9148 0.8484,-0.9207 0.8545,-0.9258 0.8407,-0.9499 0.8254,-0.9507 0.8144,-0.9682 0.8172,-0.9972 0.829,-1.0216 0.851,-1.0088 0.8488,-1.0274 0.8865,-1.0585 0.931,-1.0515 0.9516,-1.0254 0.9536,-1.0384 0.972,-1.0265 0.995,-1.0401 1.0388,-1.0241 1.0687,-1.0318 1.0743,-1.047 1.0477,-1.0642 1.0636,-1.0741 1.0655,-1.094 1.0835,-1.0951 1.0681,-1.1033 1.0739,-1.1094 1.0643,-1.1129 1.0687,-1.1248 1.136,-1.1343 1.2039,-1.1662 1.2346,-1.1637 1.2408,-1.1304 1.2865,-1.1254 1.2805,-1.108 1.3411,-1.1373 1.3348,-1.1248 1.3589,-1.1027 1.3961,-1.0318 1.4092,-1.0462 1.4219,-1.0309 1.4549,-1.0378 1.4875,-1.0004 1.5129,-1.0047 1.5237,-0.9878 1.4966,-0.9677 1.4919,-0.9332 1.4491,-0.9365 1.4366,-0.8953 1.4402,-0.8846 1.394,-0.8784 1.4043,-0.8752 1.4101,-0.8367 1.3999,-0.8136 1.3811,-0.8276 1.2952,-0.8386 1.2839,-0.8328 1.2826,-0.8188 1.2519,-0.8286 1.2383,-0.8151Z" fill="#e8efe2"/><path d="M0.6247,-0.6051 0.6426,-0.5966 0.6767,-0.6184 0.6857,-0.595 0.6451,-0.5796 0.6629,-0.5594 0.6287,-0.533 0.61,-0.5362 0.6247,-0.6051Z" fill="#e8efe2"/><path d="M0.6255,-0.6195 0.6247,-0.6051 0.6102,-0.5933 0.6088,-0.5771 0.6187,-0.5794 0.6091,-0.5389 0.5978,-0.5738 0.6128,-0.6124 0.6255,-0.6195Z" fill="#e8efe2"/><path d="M0.7393,-0.6984 0.7807,-0.6997 0.7917,-0.6747 0.8076,-0.6693 0.7924,-0.631 0.8048,-0.6099 0.8268,-0.5987 0.8348,-0.5857 0.8322,-0.5696 0.8474,-0.5485 0.8241,-0.5501 0.8091,-0.5305 0.7805,-0.533 0.7343,-0.5712 0.6833,-0.5925 0.6767,-0.6184 0.7154,-0.6407 0.7208,-0.6825 0.7393,-0.6984Z" fill="#e8efe2"/><path d="M0.9409,-0.7034 0.9666,-0.7191 0.9982,-0.7229 1.0676,-0.6866 1.057,-0.612 1.0615,-0.5798 1.0762,-0.5773 1.0788,-0.5677 1.0619,-0.5465 1.0802,-0.5203 1.0954,-0.5141 1.0952,-0.495 1.105,-0.4921 1.1023,-0.4829 1.0793,-0.4747 1.0749,-0.4547 1.0006,-0.4661 0.9901,-0.4923 0.9557,-0.4801 0.9374,-0.4844 0.895,-0.512 0.8739,-0.5533 0.8648,-0.5499 0.8552,-0.5596 0.8453,-0.5501 0.8268,-0.5987 0.8048,-0.6099 0.7924,-0.631 0.8076,-0.6693 0.7863,-0.6844 0.7718,-0.7153 0.7683,-0.7488 0.7782,-0.7577 0.8058,-0.7374 0.8378,-0.7556 0.8433,-0.7493 0.8378,-0.7369 0.8529,-0.7278 0.8566,-0.7107 0.8922,-0.6903 0.942,-0.6921 0.9409,-0.7034Z" fill="#e8efe2"/><path d="M0.7582,-0.7884 0.7461,-0.7993 0.7245,-0.7979 0.7241,-0.8247 0.6985,-0.8443 0.7969,-0.8214 0.8145,-0.7926 0.7582,-0.7884Z" fill="#e8efe2"/><path d="M0.1655,-0.8283 0.1604,-0.7947 0.1496,-0.8176 0.1655,-0.8283Z M0.133,-0.9468 0.1216,-0.9432 0.1042,-0.9116 0.1183,-0.9166 0.1248,-0.8908 0.1157,-0.8831 0.1204,-0.8652 0.1339,-0.8598 0.1307,-0.8513 0.1068,-0.8345 0.0682,-0.8463 0.0532,-0.8309 0.056,-0.8193 0.0354,-0.8174 -0.0255,-0.834 -0.0312,-0.8427 -0.0188,-0.8945 -0.0096,-0.8814 -0.0201,-0.9141 -0.036,-0.9268 -0.0384,-0.9357 -0.0304,-0.9373 -0.0752,-0.9528 -0.0817,-0.9585 -0.074,-0.9653 -0.0831,-0.9693 -0.0241,-0.9745 -0.0325,-1.002 0.0073,-0.9958 0.0033,-1.0026 0.0278,-1.0175 0.0291,-1.0351 0.044,-1.0409 0.0724,-1.0099 0.0848,-1.0145 0.0962,-0.9974 0.1419,-0.983 0.133,-0.9468Z M-0.9533,-0.0407 -0.9427,-0.0603 -0.9509,-0.0846 -0.9411,-0.1009 -0.9233,-0.0949 -0.9076,-0.076 -0.9046,-0.0811 -0.9015,-0.0709 -0.9198,-0.0412 -0.9533,-0.0407Z" fill="#e8efe2"/><path d="M0.6435,-0.3938 0.436,-0.3938 0.4337,-0.5763 0.4519,-0.5822 0.5074,-0.5661 0.5424,-0.5818 0.5566,-0.5806 0.5603,-0.5714 0.5969,-0.5761 0.6091,-0.5389 0.5973,-0.5047 0.5685,-0.5487 0.5648,-0.5419 0.6245,-0.4305 0.6231,-0.4117 0.6435,-0.3938Z" fill="#e8efe2"/><path d="M0.5709,-0.6565 0.5943,-0.6526 0.5761,-0.6437 0.5641,-0.6518 0.5709,-0.6565Z" fill="#e8efe2"/><path d="M0.7823,-0.755 0.799,-0.7527 0.8048,-0.7376 0.7823,-0.755Z M0.8529,-0.7278 0.8381,-0.7363 0.8433,-0.7493 0.8378,-0.7556 0.8114,-0.7383 0.8112,-0.7529 0.7955,-0.7625 0.8022,-0.7682 0.7854,-0.7926 0.8121,-0.7879 0.8104,-0.8066 0.8341,-0.7905 0.8493,-0.8042 0.8791,-0.7693 0.8648,-0.7672 0.8529,-0.7278Z" fill="#e8efe2"/><path d="M0.7814,-0.7561 0.7622,-0.7659 0.7582,-0.7884 0.7927,-0.7856 0.8023,-0.7668 0.7955,-0.7625 0.8112,-0.7529 0.8114,-0.7383 0.7814,-0.7561Z" fill="#e8efe2"/><circle cx="0.773" cy="-0.756" r="0.010" fill="#e8453c" stroke="#fff" stroke-width="0.0013"/></g></svg>